<?xml version="1.0" encoding="utf-8"?>
<svg xmlns="http://www.w3.org/2000/svg"  viewBox="0,0,400,508.0452374884588" width="100%">
<path d="M177.86504789876295 19.525482643226272 L 177.86504789876295,19.525482643226272 L 170.22464164706568,29.356740293868356 L 165.11098391955184,39.15791760493653 L 162.43383369750043,48.62821118069506 L 162.1029499621907,57.46681762540788 L 164.0280916949018,65.37293354333863 L 168.11901787691292,72.04575553875145 L 174.28548748950323,77.18448021590999 L 182.43725951395183,80.4883041790783 L 192.484092931538,81.65642403252018 L 192.484092931538,81.65642403252018 L 202.37718239130342,80.61531005727802 L 211.6185311603073,77.65908112918255 L 220.00760364139228,73.03840674468057 L 227.34386423740074,67.00395640021885 L 233.42677735117545,59.80639959224423 L 238.0558073855589,51.696405817203484 L 241.0304187433938,42.92464457154319 L 242.15007582752267,33.74178535171017 L 241.21424304078812,24.398497654151285 L 241.21424304078812,24.398497654151285 L 238.2797388023847,15.28749702329984 L 233.71086944714844,8.272093382743082 L 227.76833125138396,3.372340292197021 L 220.7128204913958,0.6082913113773931 L 212.8050334434886,0.0 L 204.30566638396718,1.5675199177804369 L 195.47541558913602,5.330904624434437 L 186.57497733529968,11.310207679677806 L 177.86504789876295,19.525482643226272 L 177.86504789876295,19.525482643226272 L 177.86504789876295,19.525482643226272 L 177.86504789876295,19.525482643226272 L 177.86504789876295,19.525482643226272 L 177.86504789876295,19.525482643226272 L 177.86504789876295,19.525482643226272 L 177.86504789876295,19.525482643226272 L 177.86504789876295,19.525482643226272 L 177.86504789876295,19.525482643226272 L 177.86504789876295,19.525482643226272"/></svg>
