<?xml version="1.0" encoding="utf-8"?>
<svg xmlns="http://www.w3.org/2000/svg"  viewBox="0,0,400,508.0452374884588" width="100%">
<path d="M177.86504789876295 19.525482643226272 L 177.86504789876295,19.525482643226272 L 170.22464164706568,29.356740293868356 L 165.11098391955184,39.15791760493653 L 162.43383369750043,48.62821118069506 L 162.1029499621907,57.46681762540788 L 164.0280916949018,65.37293354333863 L 168.11901787691292,72.04575553875145 L 174.28548748950323,77.18448021590999 L 182.43725951395183,80.4883041790783 L 192.484092931538,81.65642403252018 L 192.484092931538,81.65642403252018 L 202.37718239130342,80.61531005727802 L 211.6185311603073,77.65908112918255 L 220.00760364139228,73.03840674468057 L 227.34386423740074,67.00395640021885 L 233.42677735117545,59.80639959224423 L 238.0558073855589,51.696405817203484 L 241.0304187433938,42.92464457154319 L 242.15007582752267,33.74178535171017 L 241.21424304078812,24.398497654151285 L 241.21424304078812,24.398497654151285 L 238.2797388023847,15.28749702329984 L 233.71086944714844,8.272093382743082 L 227.76833125138396,3.372340292197021 L 220.7128204913958,0.6082913113773931 L 212.8050334434886,0.0 L 204.30566638396718,1.5675199177804369 L 195.47541558913602,5.330904624434437 L 186.57497733529968,11.310207679677806 L 177.86504789876295,19.525482643226272 L 177.86504789876295,19.525482643226272 L 177.86504789876295,19.525482643226272 L 177.86504789876295,19.525482643226272 L 177.86504789876295,19.525482643226272 L 177.86504789876295,19.525482643226272 L 177.86504789876295,19.525482643226272 L 177.86504789876295,19.525482643226272 L 177.86504789876295,19.525482643226272 L 177.86504789876295,19.525482643226272 L 177.86504789876295,19.525482643226272M211.97615297523805 205.918306811108 L 177.86504789876295,19.525482643226272 L 170.22464164706568,29.356740293868356 L 165.11098391955184,39.15791760493653 L 162.43383369750043,48.62821118069506 L 162.1029499621907,57.46681762540788 L 164.0280916949018,65.37293354333863 L 168.11901787691292,72.04575553875145 L 174.28548748950323,77.18448021590999 L 182.43725951395183,80.4883041790783 L 192.484092931538,81.65642403252018 L 192.484092931538,81.65642403252018 L 202.37718239130342,80.61531005727802 L 211.6185311603073,77.65908112918255 L 220.00760364139228,73.03840674468057 L 227.34386423740074,67.00395640021885 L 233.42677735117545,59.80639959224423 L 238.0558073855589,51.696405817203484 L 241.0304187433938,42.92464457154319 L 242.15007582752267,33.74178535171017 L 241.21424304078812,24.398497654151285 L 241.21424304078812,24.398497654151285 L 238.2797388023847,15.28749702329984 L 233.71086944714844,8.272093382743082 L 227.76833125138396,3.372340292197021 L 220.7128204913958,0.6082913113773931 L 212.8050334434886,0.0 L 204.30566638396718,1.5675199177804369 L 195.47541558913602,5.330904624434437 L 186.57497733529968,11.310207679677806 L 177.86504789876295,19.525482643226272 L 177.86504789876295,19.525482643226272 L 177.86504789876295,19.525482643226272 L 177.86504789876295,19.525482643226272 L 177.86504789876295,19.525482643226272 L 177.86504789876295,19.525482643226272 L 177.86504789876295,19.525482643226272 L 177.86504789876295,19.525482643226272 L 177.86504789876295,19.525482643226272 L 177.86504789876295,19.525482643226272 L 177.86504789876295,19.525482643226272 L 211.97615297523805,205.918306811108 L 198.29628298915014,224.02332897446936 L 184.38579706633135,245.17649221462318 L 170.73600741981713,268.3650917659248 L 157.83822626264316,292.5764228627292 L 146.18376580784513,316.79778073939144 L 136.26393826845867,340.0164606302667 L 128.57005585751946,361.2197577697099 L 123.59343078806313,379.39496739207635 L 121.82537527312532,393.529384731721 L 121.82537527312532,393.529384731721 L 122.8948984579648,405.7486871185124 L 126.04999185324135,416.38375828776026 L 131.21044122009204,425.38446434017527 L 138.29603231965376,432.700671376468 L 147.22655091306368,438.28224549734927 L 157.92178276145873,442.0790528035294 L 170.30151362597604,444.0409593957195 L 184.2855292677526,444.1178313746298 L 199.7936154479255,442.2595348409711 L 199.7936154479255,442.2595348409711 L 218.6539883605797,437.65557175623223 L 236.25098701114226,431.14652049849803 L 252.58461139961318,422.72235428791066 L 267.6548615259923,412.3730463446121 L 281.46173739027995,400.08856988874453 L 294.00523899247577,385.85889814045015 L 305.28536633257994,369.674004319871 L 315.3021194105924,351.5238616471493 L 324.05549822651335,331.398443342427 L 324.05549822651335,331.398443342427 L 335.65314026211666,290.3571622541873 L 338.68791229909885,253.30653954937978 L 334.25273334196754,221.43976203109136 L 323.44052239523063,195.95001650240852 L 307.34419846339597,178.03048976641782 L 287.0566805509716,168.87436862620584 L 263.6708876624652,169.67483988485913 L 238.2797388023847,181.62509034546437 L 211.97615297523805,205.918306811108 L 211.97615297523805,205.918306811108 L 211.97615297523805,205.918306811108 L 211.97615297523805,205.918306811108 L 211.97615297523805,205.918306811108 L 211.97615297523805,205.918306811108 L 211.97615297523805,205.918306811108 L 211.97615297523805,205.918306811108 L 211.97615297523805,205.918306811108 L 211.97615297523805,205.918306811108 L 211.97615297523805,205.918306811108 L 285.0713781391132,276.5770244695207 L 285.0713781391132,276.5770244695207 L 285.0713781391132,276.5770244695207 L 285.0713781391132,276.5770244695207 L 285.0713781391132,276.5770244695207 L 285.0713781391132,276.5770244695207 L 285.0713781391132,276.5770244695207 L 285.0713781391132,276.5770244695207 L 285.0713781391132,276.5770244695207 L 285.0713781391132,276.5770244695207 L 285.0713781391132,276.5770244695207 L 284.41462405842265,289.8925881207726 L 283.15626318626,301.6138937746231 L 281.145893824757,312.04174482680816 L 278.23311427604557,321.4769446730643 L 274.2675228422579,330.2202967091273 L 269.0987178255257,338.5726043307333 L 262.576297527981,346.83467093361855 L 254.54986025175572,355.30729991351905 L 244.86900429898188,364.2912946661709 L 244.86900429898188,364.2912946661709 L 230.7696806888397,376.0192848399267 L 217.80338320263706,385.2004729297833 L 206.1104867583839,391.8148053760251 L 195.83136627409044,395.8422286189364 L 187.10639666776683,397.26268909880145 L 180.07595285742337,396.05613325590434 L 174.88040976107018,392.2025075305295 L 171.6601422967175,385.6817583629611 L 170.55552538237544,376.4738321934835 L 170.55552538237544,376.4738321934835 L 173.50339866058928,362.5416215809725 L 181.50476898716994,343.16486950563797 L 193.2962621000255,320.2987980397645 L 207.6145037370644,295.89862925563693 L 223.196119636195,271.91958522553983 L 238.77773553532558,250.31688802175816 L 253.0959771723645,233.04575971657636 L 264.88747028522005,222.06142238227935 L 272.8888406118007,219.31909809115177 L 272.8888406118007,219.31909809115177 L 275.27187195802117,220.9618188578663 L 277.5145283862316,224.15869050255057 L 279.5666759971424,228.74928454747888 L 281.3781808914643,234.57317251492526 L 282.898909169908,241.4699259271638 L 284.07872693318404,249.27911630646855 L 284.8675002820032,257.8403151751135 L 285.215095317076,266.9930940553729 L 285.0713781391132,276.5770244695207 L 285.0713781391132,276.5770244695207 L 285.0713781391132,276.5770244695207 L 285.0713781391132,276.5770244695207 L 285.0713781391132,276.5770244695207 L 285.0713781391132,276.5770244695207 L 285.0713781391132,276.5770244695207 L 285.0713781391132,276.5770244695207 L 285.0713781391132,276.5770244695207 L 285.0713781391132,276.5770244695207 L 285.0713781391132,276.5770244695207"/></svg>
