<?xml version="1.0" encoding="utf-8"?>
<svg xmlns="http://www.w3.org/2000/svg"  viewBox="0,0,400,522.6285191717291" width="100%">
<path d="M189.52380952380952 174.05709060030046 L 189.52380952380952,174.05709060030046 L 169.70409563002153,189.62571036645116 L 151.17773858514602,207.88294467306812 L 134.39153439153444,228.06061793716114 L 119.79227905153832,249.3905545757397 L 107.8267685675093,271.1045790058136 L 98.94179894179894,292.4345156443922 L 93.58416617675877,312.6121889084852 L 92.20066627474034,330.86942321510224 L 95.23809523809524,346.43804298125286 L 95.23809523809524,346.43804298125286 L 101.56247958717091,358.2859755699262 L 110.41870794957217,367.1474296165654 L 121.8694885361552,372.9988895420995 L 135.97752955777645,375.81683976745705 L 152.8055392252923,375.5777647135672 L 172.41622574955906,372.2581488013587 L 194.87229734143312,365.83447645176045 L 220.23646221177083,356.2832320857013 L 248.57142857142858,343.58090012411 L 248.57142857142858,343.58090012411 L 249.69103141942642,343.6423019139069 L 251.1084982689921,344.42484812855184 L 252.76895943562613,345.8736690835456 L 254.61754523482915,347.9338950943889 L 256.5993859821021,350.55065647658245 L 258.6596119929454,353.6690835456268 L 260.7433535828597,357.2343066170227 L 262.795741067346,361.1914560062708 L 264.76190476190476,365.48566202887196 L 264.76190476190476,365.48566202887196 L 267.6739173035469,371.0679992161474 L 270.77405447775817,375.78809850414785 L 274.1798941798942,379.70082957737276 L 278.0090143053106,382.8610621203214 L 282.37899274936314,385.323665817493 L 287.4074074074074,387.14351035338694 L 293.2118361747991,388.3754654125025 L 299.90985694689397,389.074400679339 L 307.6190476190476,389.29518583839575 L 307.6190476190476,389.29518583839575 L 323.5795937030504,388.64720099288 L 338.8660265203475,386.7920830883794 L 353.15696649029985,383.86308707296365 L 366.1310340322686,379.99346789470246 L 377.466849565615,375.3164805016657 L 386.84303350970015,369.9653798419231 L 393.9382062838853,364.07342086354436 L 398.43098830753144,357.7738585145993 L 400.0,351.1999477431576 L 400.0,351.1999477431576 L 399.83277810438295,346.6431510875956 L 399.2265987327716,343.1053628584493 L 398.0246913580248,340.54739042393356 L 396.07028545300153,338.9300411522634 L 393.20661049056105,338.2141224116533 L 389.2768959435626,338.36044157031813 L 384.1243712848651,339.3298059964727 L 377.59226598732766,341.0830230583317 L 369.5238095238095,343.58090012411 L 369.5238095238095,343.58090012411 L 352.58736690835457,348.5792670977857 L 338.44143967600763,352.1039911163368 L 326.84303350970026,354.09236396890714 L 317.549154092364,354.4816774446404 L 310.3168071069306,353.20922333268015 L 304.90299823633154,350.2122934221699 L 301.0647331634986,345.42817950225356 L 298.55901757136326,338.7941733620746 L 297.14285714285717,330.24756679077666 L 297.14285714285717,330.24756679077666 L 296.782284930433,325.1564439218761 L 296.939055457574,319.50094715526814 L 297.5661375661376,313.4221699653798 L 298.6165000979816,307.0612058266379 L 300.0431118949637,300.55914821346914 L 301.79894179894177,294.0570906003005 L 303.83695865177344,287.69612646155855 L 306.1101312953164,281.6173492716703 L 308.57142857142856,275.9618525050624 L 308.57142857142856,275.9618525050624 L 314.00091449474166,263.57828728199104 L 318.2154288327128,249.69756352472402 L 321.1992945326279,234.93892481546803 L 322.9368345417729,219.92161473642955 L 323.4123718074336,205.26487686981514 L 322.61022927689595,191.58795479783137 L 320.5147298974459,179.51009210268467 L 317.1101966163694,169.65053236658179 L 312.3809523809524,162.62851917172904 L 312.3809523809524,162.62851917172904 L 304.12306486380555,156.93774903651456 L 293.0903390162649,153.15174080606175 L 279.89417989417996,151.19994774315762 L 265.14599255339994,151.01182311058855 L 249.45718204977467,152.51682017114118 L 233.43915343915342,155.64439218760214 L 217.7033117773858,160.32399242275787 L 202.86106212032135,166.4850741393951 L 189.52380952380952,174.05709060030046 L 189.52380952380952,174.05709060030046 L 189.52380952380952,174.05709060030046 L 189.52380952380952,174.05709060030046 L 189.52380952380952,174.05709060030046 L 189.52380952380952,174.05709060030046 L 189.52380952380952,174.05709060030046 L 189.52380952380952,174.05709060030046 L 189.52380952380952,174.05709060030046 L 189.52380952380952,174.05709060030046 L 189.52380952380952,174.05709060030046 L 273.3333333333333,190.24756679077666 L 273.3333333333333,190.24756679077666 L 273.3333333333333,190.24756679077666 L 273.3333333333333,190.24756679077666 L 273.3333333333333,190.24756679077666 L 273.3333333333333,190.24756679077666 L 273.3333333333333,190.24756679077666 L 273.3333333333333,190.24756679077666 L 273.3333333333333,190.24756679077666 L 273.3333333333333,190.24756679077666 L 273.3333333333333,190.24756679077666 L 276.4791952446273,194.8762166046117 L 278.3238617806519,201.03337905807038 L 278.90652557319225,208.55444509765493 L 278.2663792540336,217.2748056698674 L 276.4426154549611,227.02985172120978 L 273.47442680776015,237.65497419818408 L 269.40100594421585,248.98556404729243 L 264.2615454961134,260.8570122150369 L 258.0952380952381,273.10470964791955 L 258.0952380952381,273.10470964791955 L 251.43118427069035,282.7304200143707 L 242.0314847475341,292.89698869945784 L 230.54673721340393,303.15761970082957 L 217.62753935593446,313.0655170161343 L 203.92448886276048,322.1738846430205 L 190.0881834215168,330.0359265791365 L 176.76922071983802,336.2048468221308 L 164.61819844535893,340.23384936965186 L 154.28571428571428,341.6761382193481 L 154.28571428571428,341.6761382193481 L 140.46247305506566,339.3363381017702 L 131.88320595728004,332.69318701417467 L 128.35978835978838,322.3110588542687 L 129.70409563002158,308.7543275197596 L 135.72800313541055,292.5873669083545 L 146.24338624338623,274.3745509177608 L 161.06212032137958,254.68025344568562 L 179.99608073682148,234.06884838983603 L 202.85714285714286,213.10470964791952 L 202.85714285714286,213.10470964791952 L 215.49546018681818,202.47566790776676 L 226.29172382258804,194.03357502122938 L 235.52028218694886,187.70788425109413 L 243.4554837023973,183.42804886014767 L 250.3716767914299,181.1235221111764 L 256.5432098765432,180.72375726696714 L 262.24443138023383,182.15820759030635 L 267.74968972499835,185.35632634398067 L 273.3333333333333,190.24756679077666 L 273.3333333333333,190.24756679077666 L 273.3333333333333,190.24756679077666 L 273.3333333333333,190.24756679077666 L 273.3333333333333,190.24756679077666 L 273.3333333333333,190.24756679077666 L 273.3333333333333,190.24756679077666 L 273.3333333333333,190.24756679077666 L 273.3333333333333,190.24756679077666 L 273.3333333333333,190.24756679077666 L 273.3333333333333,190.24756679077666"/></svg>
