<?xml version="1.0" encoding="utf-8"?>
<svg xmlns="http://www.w3.org/2000/svg"  viewBox="0,0,400,577.6960896935165" width="100%">
<path d="M203.9608509856178 154.88673436566637 L 203.9608509856178,154.88673436566637 L 196.11062608811082,163.38229512883734 L 187.58647449544844,173.77710385108247 L 178.59670082249696,185.7648302164222 L 169.3496096841224,199.0391439088768 L 160.05350569519115,213.29371461246652 L 150.91669347056933,228.2222120112116 L 142.14747762512317,243.51830578913234 L 133.9541627737189,258.875665630249 L 126.54505353122273,273.9879612185819 L 126.54505353122273,273.9879612185819 L 93.081529813598,358.53104402477186 L 78.73301781310789,426.94889899778923 L 81.55125672012132,478.33478840233414 L 99.5879857250073,511.7819745031066 L 130.8949440181348,526.3837195648066 L 173.52387078987272,521.2332858521343 L 225.52650523059012,495.4239356297895 L 284.954586530656,448.04893116247246 L 349.8598538804393,378.20153471488294 L 349.8598538804393,378.20153471488294 L 363.84689610807334,360.6243011839667 L 375.1872444056427,345.2158862901867 L 384.1014566006525,331.388135826862 L 390.8100905206084,318.5528955873117 L 395.5337039930157,306.1220113648546 L 398.4928548453798,293.50732895280976 L 399.90810090520614,280.1206941444959 L 400.0,265.37395273323216 L 398.989109957267,248.67895051233734 L 398.989109957267,248.67895051233734 L 397.737240065963,232.1248602367933 L 395.811443479504,217.92338678797336 L 392.9789091577449,205.6701741487845 L 389.00682606054113,194.96086630213344 L 383.66238314774824,185.39110723092702 L 376.7127693792216,176.5565409180719 L 367.92517371481665,168.05281134647484 L 357.0667851143889,159.47556249904264 L 343.9047925377935,150.42043835868208 L 343.9047925377935,150.42043835868208 L 323.4215054092828,137.24210816523455 L 305.3153415327748,127.48242429812049 L 289.09617240270194,121.1413867573403 L 274.27386951349644,118.21899554289372 L 260.35830435959093,118.71525065478093 L 246.8593484354179,122.63015209300183 L 233.28687323540976,129.96369985755635 L 219.1507502539989,140.71589394844455 L 203.9608509856178,154.88673436566637 L 203.9608509856178,154.88673436566637 L 203.9608509856178,154.88673436566637 L 203.9608509856178,154.88673436566637 L 203.9608509856178,154.88673436566637 L 203.9608509856178,154.88673436566637 L 203.9608509856178,154.88673436566637 L 203.9608509856178,154.88673436566637 L 203.9608509856178,154.88673436566637 L 203.9608509856178,154.88673436566637 L 203.9608509856178,154.88673436566637 L 342.4160272021321,212.9485824564627 L 342.4160272021321,212.9485824564627 L 342.4160272021321,212.9485824564627 L 342.4160272021321,212.9485824564627 L 342.4160272021321,212.9485824564627 L 342.4160272021321,212.9485824564627 L 342.4160272021321,212.9485824564627 L 342.4160272021321,212.9485824564627 L 342.4160272021321,212.9485824564627 L 342.4160272021321,212.9485824564627 L 342.4160272021321,212.9485824564627 L 349.65154926557307,225.5510116558685 L 352.54943405474125,240.43253840616322 L 351.18320084547173,257.44612415567696 L 345.6263689135996,276.4447303527392 L 335.95245753496,297.2813184456799 L 322.23498598538805,319.80884988282855 L 304.547473540719,343.880286112515 L 282.96343947678787,369.34858858306904 L 257.5564030694298,396.0667187428203 L 257.5564030694298,396.0667187428203 L 220.17593571147768,430.8535894254775 L 188.6647572076971,454.0244145261835 L 163.3782107246244,465.8732711482791 L 144.6716394287961,466.6942363951048 L 132.9003864867487,456.78138737000097 L 128.4197950650186,436.4288011763083 L 131.5852083301424,405.9305549173673 L 142.7519694486565,365.58072569651847 L 162.27542158709738,315.6733906171023 L 162.27542158709738,315.6733906171023 L 180.55925704687365,279.213956409196 L 200.3624908739094,248.41550644059478 L 221.21950098791527,223.53535817672181 L 242.66466530860225,204.83082908300005 L 264.2323617556812,192.55923662485242 L 285.4569682488628,186.97789826770196 L 305.8728627078579,188.3441314769715 L 325.01442305237737,196.91525371808416 L 342.4160272021321,212.9485824564627 L 342.4160272021321,212.9485824564627 L 342.4160272021321,212.9485824564627 L 342.4160272021321,212.9485824564627 L 342.4160272021321,212.9485824564627 L 342.4160272021321,212.9485824564627 L 342.4160272021321,212.9485824564627 L 342.4160272021321,212.9485824564627 L 342.4160272021321,212.9485824564627 L 342.4160272021321,212.9485824564627 L 342.4160272021321,212.9485824564627"/></svg>
