<?xml version="1.0" encoding="utf-8"?>
<svg xmlns="http://www.w3.org/2000/svg"  viewBox="0,0,400,577.6960896935165" width="100%">
<path d="M203.9608509856178 154.88673436566637 L 203.9608509856178,154.88673436566637 L 196.11062608811082,163.38229512883734 L 187.58647449544844,173.77710385108247 L 178.59670082249696,185.7648302164222 L 169.3496096841224,199.0391439088768 L 160.05350569519115,213.29371461246652 L 150.91669347056933,228.2222120112116 L 142.14747762512317,243.51830578913234 L 133.9541627737189,258.875665630249 L 126.54505353122273,273.9879612185819 L 126.54505353122273,273.9879612185819 L 93.081529813598,358.53104402477186 L 78.73301781310789,426.94889899778923 L 81.55125672012132,478.33478840233414 L 99.5879857250073,511.7819745031066 L 130.8949440181348,526.3837195648066 L 173.52387078987272,521.2332858521343 L 225.52650523059012,495.4239356297895 L 284.954586530656,448.04893116247246 L 349.8598538804393,378.20153471488294 L 349.8598538804393,378.20153471488294 L 363.84689610807334,360.6243011839667 L 375.1872444056427,345.2158862901867 L 384.1014566006525,331.388135826862 L 390.8100905206084,318.5528955873117 L 395.5337039930157,306.1220113648546 L 398.4928548453798,293.50732895280976 L 399.90810090520614,280.1206941444959 L 400.0,265.37395273323216 L 398.989109957267,248.67895051233734 L 398.989109957267,248.67895051233734 L 397.737240065963,232.1248602367933 L 395.811443479504,217.92338678797336 L 392.9789091577449,205.6701741487845 L 389.00682606054113,194.96086630213344 L 383.66238314774824,185.39110723092702 L 376.7127693792216,176.5565409180719 L 367.92517371481665,168.05281134647484 L 357.0667851143889,159.47556249904264 L 343.9047925377935,150.42043835868208 L 343.9047925377935,150.42043835868208 L 323.4215054092828,137.24210816523455 L 305.3153415327748,127.48242429812049 L 289.09617240270194,121.1413867573403 L 274.27386951349644,118.21899554289372 L 260.35830435959093,118.71525065478093 L 246.8593484354179,122.63015209300183 L 233.28687323540976,129.96369985755635 L 219.1507502539989,140.71589394844455 L 203.9608509856178,154.88673436566637 L 203.9608509856178,154.88673436566637 L 203.9608509856178,154.88673436566637 L 203.9608509856178,154.88673436566637 L 203.9608509856178,154.88673436566637 L 203.9608509856178,154.88673436566637 L 203.9608509856178,154.88673436566637 L 203.9608509856178,154.88673436566637 L 203.9608509856178,154.88673436566637 L 203.9608509856178,154.88673436566637 L 203.9608509856178,154.88673436566637 L 342.4160272021321,212.9485824564627 L 342.4160272021321,212.9485824564627 L 342.4160272021321,212.9485824564627 L 342.4160272021321,212.9485824564627 L 342.4160272021321,212.9485824564627 L 342.4160272021321,212.9485824564627 L 342.4160272021321,212.9485824564627 L 342.4160272021321,212.9485824564627 L 342.4160272021321,212.9485824564627 L 342.4160272021321,212.9485824564627 L 342.4160272021321,212.9485824564627 L 349.65154926557307,225.5510116558685 L 352.54943405474125,240.43253840616322 L 351.18320084547173,257.44612415567696 L 345.6263689135996,276.4447303527392 L 335.95245753496,297.2813184456799 L 322.23498598538805,319.80884988282855 L 304.547473540719,343.880286112515 L 282.96343947678787,369.34858858306904 L 257.5564030694298,396.0667187428203 L 257.5564030694298,396.0667187428203 L 220.17593571147768,430.8535894254775 L 188.6647572076971,454.0244145261835 L 163.3782107246244,465.8732711482791 L 144.6716394287961,466.6942363951048 L 132.9003864867487,456.78138737000097 L 128.4197950650186,436.4288011763083 L 131.5852083301424,405.9305549173673 L 142.7519694486565,365.58072569651847 L 162.27542158709738,315.6733906171023 L 162.27542158709738,315.6733906171023 L 180.55925704687365,279.213956409196 L 200.3624908739094,248.41550644059478 L 221.21950098791527,223.53535817672181 L 242.66466530860225,204.83082908300005 L 264.2323617556812,192.55923662485242 L 285.4569682488628,186.97789826770196 L 305.8728627078579,188.3441314769715 L 325.01442305237737,196.91525371808416 L 342.4160272021321,212.9485824564627 L 342.4160272021321,212.9485824564627 L 342.4160272021321,212.9485824564627 L 342.4160272021321,212.9485824564627 L 342.4160272021321,212.9485824564627 L 342.4160272021321,212.9485824564627 L 342.4160272021321,212.9485824564627 L 342.4160272021321,212.9485824564627 L 342.4160272021321,212.9485824564627 L 342.4160272021321,212.9485824564627 L 342.4160272021321,212.9485824564627M233.73615769884668 22.38661949179788 L 203.9608509856178,154.88673436566637 L 196.11062608811082,163.38229512883734 L 187.58647449544844,173.77710385108247 L 178.59670082249696,185.7648302164222 L 169.3496096841224,199.0391439088768 L 160.05350569519115,213.29371461246652 L 150.91669347056933,228.2222120112116 L 142.14747762512317,243.51830578913234 L 133.9541627737189,258.875665630249 L 126.54505353122273,273.9879612185819 L 126.54505353122273,273.9879612185819 L 93.081529813598,358.53104402477186 L 78.73301781310789,426.94889899778923 L 81.55125672012132,478.33478840233414 L 99.5879857250073,511.7819745031066 L 130.8949440181348,526.3837195648066 L 173.52387078987272,521.2332858521343 L 225.52650523059012,495.4239356297895 L 284.954586530656,448.04893116247246 L 349.8598538804393,378.20153471488294 L 349.8598538804393,378.20153471488294 L 363.84689610807334,360.6243011839667 L 375.1872444056427,345.2158862901867 L 384.1014566006525,331.388135826862 L 390.8100905206084,318.5528955873117 L 395.5337039930157,306.1220113648546 L 398.4928548453798,293.50732895280976 L 399.90810090520614,280.1206941444959 L 400.0,265.37395273323216 L 398.989109957267,248.67895051233734 L 398.989109957267,248.67895051233734 L 397.737240065963,232.1248602367933 L 395.811443479504,217.92338678797336 L 392.9789091577449,205.6701741487845 L 389.00682606054113,194.96086630213344 L 383.66238314774824,185.39110723092702 L 376.7127693792216,176.5565409180719 L 367.92517371481665,168.05281134647484 L 357.0667851143889,159.47556249904264 L 343.9047925377935,150.42043835868208 L 343.9047925377935,150.42043835868208 L 323.4215054092828,137.24210816523455 L 305.3153415327748,127.48242429812049 L 289.09617240270194,121.1413867573403 L 274.27386951349644,118.21899554289372 L 260.35830435959093,118.71525065478093 L 246.8593484354179,122.63015209300183 L 233.28687323540976,129.96369985755635 L 219.1507502539989,140.71589394844455 L 203.9608509856178,154.88673436566637 L 203.9608509856178,154.88673436566637 L 203.9608509856178,154.88673436566637 L 203.9608509856178,154.88673436566637 L 203.9608509856178,154.88673436566637 L 203.9608509856178,154.88673436566637 L 203.9608509856178,154.88673436566637 L 203.9608509856178,154.88673436566637 L 203.9608509856178,154.88673436566637 L 203.9608509856178,154.88673436566637 L 203.9608509856178,154.88673436566637 L 342.4160272021321,212.9485824564627 L 342.4160272021321,212.9485824564627 L 342.4160272021321,212.9485824564627 L 342.4160272021321,212.9485824564627 L 342.4160272021321,212.9485824564627 L 342.4160272021321,212.9485824564627 L 342.4160272021321,212.9485824564627 L 342.4160272021321,212.9485824564627 L 342.4160272021321,212.9485824564627 L 342.4160272021321,212.9485824564627 L 342.4160272021321,212.9485824564627 L 349.65154926557307,225.5510116558685 L 352.54943405474125,240.43253840616322 L 351.18320084547173,257.44612415567696 L 345.6263689135996,276.4447303527392 L 335.95245753496,297.2813184456799 L 322.23498598538805,319.80884988282855 L 304.547473540719,343.880286112515 L 282.96343947678787,369.34858858306904 L 257.5564030694298,396.0667187428203 L 257.5564030694298,396.0667187428203 L 220.17593571147768,430.8535894254775 L 188.6647572076971,454.0244145261835 L 163.3782107246244,465.8732711482791 L 144.6716394287961,466.6942363951048 L 132.9003864867487,456.78138737000097 L 128.4197950650186,436.4288011763083 L 131.5852083301424,405.9305549173673 L 142.7519694486565,365.58072569651847 L 162.27542158709738,315.6733906171023 L 162.27542158709738,315.6733906171023 L 180.55925704687365,279.213956409196 L 200.3624908739094,248.41550644059478 L 221.21950098791527,223.53535817672181 L 242.66466530860225,204.83082908300005 L 264.2323617556812,192.55923662485242 L 285.4569682488628,186.97789826770196 L 305.8728627078579,188.3441314769715 L 325.01442305237737,196.91525371808416 L 342.4160272021321,212.9485824564627 L 342.4160272021321,212.9485824564627 L 342.4160272021321,212.9485824564627 L 342.4160272021321,212.9485824564627 L 342.4160272021321,212.9485824564627 L 342.4160272021321,212.9485824564627 L 342.4160272021321,212.9485824564627 L 342.4160272021321,212.9485824564627 L 342.4160272021321,212.9485824564627 L 342.4160272021321,212.9485824564627 L 342.4160272021321,212.9485824564627 L 233.73615769884668,22.38661949179788 L 228.32227991443176,28.26611935650217 L 224.94243542812214,33.912808181061486 L 223.53535817672199,39.204153839084576 L 224.03978209703521,44.017624204179256 L 226.39444112586602,48.23068714995362 L 230.53806920001836,51.72081055001595 L 236.40940025629638,54.36546227797426 L 243.947168231504,56.042110207436615 L 253.09010706244547,56.62822221201109 L 253.09010706244547,56.62822221201109 L 258.42433896470556,56.2544992265159 L 263.4522405509862,55.182343120586815 L 268.0880393328126,53.48527317005911 L 272.24596282171063,51.23680865076806 L 275.84023852920603,48.510468838548434 L 278.78509396682443,45.379773009235755 L 280.9947566460915,41.918240438664974 L 282.3834540785329,38.199390402671106 L 282.8654137756743,34.296742177089435 L 282.8654137756743,34.296742177089435 L 281.7687512444669,27.36959263173485 L 278.7238279036285,21.557485436546017 L 274.09824013233475,16.982952717915538 L 268.25958430976124,13.768526602234997 L 261.5754568150837,12.036739215896331 L 254.41345402747783,11.910122685291467 L 247.1411723261193,13.511209136812079 L 240.12620809018367,16.962530696850354 L 233.73615769884668,22.38661949179788 L 233.73615769884668,22.38661949179788 L 233.73615769884668,22.38661949179788 L 233.73615769884668,22.38661949179788 L 233.73615769884668,22.38661949179788 L 233.73615769884668,22.38661949179788 L 233.73615769884668,22.38661949179788 L 233.73615769884668,22.38661949179788 L 233.73615769884668,22.38661949179788 L 233.73615769884668,22.38661949179788 L 233.73615769884668,22.38661949179788M337.94973119514776 6.010200799522001 L 203.9608509856178,154.88673436566637 L 196.11062608811082,163.38229512883734 L 187.58647449544844,173.77710385108247 L 178.59670082249696,185.7648302164222 L 169.3496096841224,199.0391439088768 L 160.05350569519115,213.29371461246652 L 150.91669347056933,228.2222120112116 L 142.14747762512317,243.51830578913234 L 133.9541627737189,258.875665630249 L 126.54505353122273,273.9879612185819 L 126.54505353122273,273.9879612185819 L 93.081529813598,358.53104402477186 L 78.73301781310789,426.94889899778923 L 81.55125672012132,478.33478840233414 L 99.5879857250073,511.7819745031066 L 130.8949440181348,526.3837195648066 L 173.52387078987272,521.2332858521343 L 225.52650523059012,495.4239356297895 L 284.954586530656,448.04893116247246 L 349.8598538804393,378.20153471488294 L 349.8598538804393,378.20153471488294 L 363.84689610807334,360.6243011839667 L 375.1872444056427,345.2158862901867 L 384.1014566006525,331.388135826862 L 390.8100905206084,318.5528955873117 L 395.5337039930157,306.1220113648546 L 398.4928548453798,293.50732895280976 L 399.90810090520614,280.1206941444959 L 400.0,265.37395273323216 L 398.989109957267,248.67895051233734 L 398.989109957267,248.67895051233734 L 397.737240065963,232.1248602367933 L 395.811443479504,217.92338678797336 L 392.9789091577449,205.6701741487845 L 389.00682606054113,194.96086630213344 L 383.66238314774824,185.39110723092702 L 376.7127693792216,176.5565409180719 L 367.92517371481665,168.05281134647484 L 357.0667851143889,159.47556249904264 L 343.9047925377935,150.42043835868208 L 343.9047925377935,150.42043835868208 L 323.4215054092828,137.24210816523455 L 305.3153415327748,127.48242429812049 L 289.09617240270194,121.1413867573403 L 274.27386951349644,118.21899554289372 L 260.35830435959093,118.71525065478093 L 246.8593484354179,122.63015209300183 L 233.28687323540976,129.96369985755635 L 219.1507502539989,140.71589394844455 L 203.9608509856178,154.88673436566637 L 203.9608509856178,154.88673436566637 L 203.9608509856178,154.88673436566637 L 203.9608509856178,154.88673436566637 L 203.9608509856178,154.88673436566637 L 203.9608509856178,154.88673436566637 L 203.9608509856178,154.88673436566637 L 203.9608509856178,154.88673436566637 L 203.9608509856178,154.88673436566637 L 203.9608509856178,154.88673436566637 L 203.9608509856178,154.88673436566637 L 342.4160272021321,212.9485824564627 L 342.4160272021321,212.9485824564627 L 342.4160272021321,212.9485824564627 L 342.4160272021321,212.9485824564627 L 342.4160272021321,212.9485824564627 L 342.4160272021321,212.9485824564627 L 342.4160272021321,212.9485824564627 L 342.4160272021321,212.9485824564627 L 342.4160272021321,212.9485824564627 L 342.4160272021321,212.9485824564627 L 342.4160272021321,212.9485824564627 L 349.65154926557307,225.5510116558685 L 352.54943405474125,240.43253840616322 L 351.18320084547173,257.44612415567696 L 345.6263689135996,276.4447303527392 L 335.95245753496,297.2813184456799 L 322.23498598538805,319.80884988282855 L 304.547473540719,343.880286112515 L 282.96343947678787,369.34858858306904 L 257.5564030694298,396.0667187428203 L 257.5564030694298,396.0667187428203 L 220.17593571147768,430.8535894254775 L 188.6647572076971,454.0244145261835 L 163.3782107246244,465.8732711482791 L 144.6716394287961,466.6942363951048 L 132.9003864867487,456.78138737000097 L 128.4197950650186,436.4288011763083 L 131.5852083301424,405.9305549173673 L 142.7519694486565,365.58072569651847 L 162.27542158709738,315.6733906171023 L 162.27542158709738,315.6733906171023 L 180.55925704687365,279.213956409196 L 200.3624908739094,248.41550644059478 L 221.21950098791527,223.53535817672181 L 242.66466530860225,204.83082908300005 L 264.2323617556812,192.55923662485242 L 285.4569682488628,186.97789826770196 L 305.8728627078579,188.3441314769715 L 325.01442305237737,196.91525371808416 L 342.4160272021321,212.9485824564627 L 342.4160272021321,212.9485824564627 L 342.4160272021321,212.9485824564627 L 342.4160272021321,212.9485824564627 L 342.4160272021321,212.9485824564627 L 342.4160272021321,212.9485824564627 L 342.4160272021321,212.9485824564627 L 342.4160272021321,212.9485824564627 L 342.4160272021321,212.9485824564627 L 342.4160272021321,212.9485824564627 L 342.4160272021321,212.9485824564627 L 233.73615769884668,22.38661949179788 L 228.32227991443176,28.26611935650217 L 224.94243542812214,33.912808181061486 L 223.53535817672199,39.204153839084576 L 224.03978209703521,44.017624204179256 L 226.39444112586602,48.23068714995362 L 230.53806920001836,51.72081055001595 L 236.40940025629638,54.36546227797426 L 243.947168231504,56.042110207436615 L 253.09010706244547,56.62822221201109 L 253.09010706244547,56.62822221201109 L 258.42433896470556,56.2544992265159 L 263.4522405509862,55.182343120586815 L 268.0880393328126,53.48527317005911 L 272.24596282171063,51.23680865076806 L 275.84023852920603,48.510468838548434 L 278.78509396682443,45.379773009235755 L 280.9947566460915,41.918240438664974 L 282.3834540785329,38.199390402671106 L 282.8654137756743,34.296742177089435 L 282.8654137756743,34.296742177089435 L 281.7687512444669,27.36959263173485 L 278.7238279036285,21.557485436546017 L 274.09824013233475,16.982952717915538 L 268.25958430976124,13.768526602234997 L 261.5754568150837,12.036739215896331 L 254.41345402747783,11.910122685291467 L 247.1411723261193,13.511209136812079 L 240.12620809018367,16.962530696850354 L 233.73615769884668,22.38661949179788 L 233.73615769884668,22.38661949179788 L 233.73615769884668,22.38661949179788 L 233.73615769884668,22.38661949179788 L 233.73615769884668,22.38661949179788 L 233.73615769884668,22.38661949179788 L 233.73615769884668,22.38661949179788 L 233.73615769884668,22.38661949179788 L 233.73615769884668,22.38661949179788 L 233.73615769884668,22.38661949179788 L 233.73615769884668,22.38661949179788 L 337.94973119514776,6.010200799522001 L 332.194805658942,13.627614656884608 L 328.74348409890393,21.404320278556234 L 327.47323438864134,29.058493773836183 L 328.2615244017624,36.30831125202292 L 330.9858220118754,42.871948822415064 L 335.5235950925884,48.46758259431135 L 341.7523115175093,52.81338867701039 L 349.54943916024644,55.62754317981065 L 358.792445894408,56.62822221201109 L 358.792445894408,56.62822221201109 L 365.24784675315385,56.34844052341636 L 370.7352438134041,55.492757840779575 L 375.2791435004366,54.03666773882262 L 378.9040522395299,51.95566379226714 L 381.6344764559625,49.225239575834486 L 383.4949225750127,45.82088866424657 L 384.50989702195886,41.718104632224836 L 384.7039062220793,36.89238105449101 L 384.1014566006525,31.31921150576655 L 384.1014566006525,31.31921150576655 L 381.8815829108527,22.90329662475044 L 378.3628686812991,15.602424093900328 L 373.7903781647752,9.539126039608316 L 368.4091756140647,4.835934588266503 L 362.4643252819516,1.6153818662662234 L 356.2008914212195,0.0 L 349.86393828465236,0.11232111585916996 L 343.69853012503387,2.0748773402359166 L 337.94973119514776,6.010200799522001 L 337.94973119514776,6.010200799522001 L 337.94973119514776,6.010200799522001 L 337.94973119514776,6.010200799522001 L 337.94973119514776,6.010200799522001 L 337.94973119514776,6.010200799522001 L 337.94973119514776,6.010200799522001 L 337.94973119514776,6.010200799522001 L 337.94973119514776,6.010200799522001 L 337.94973119514776,6.010200799522001 L 337.94973119514776,6.010200799522001"/></svg>
