<?xml version="1.0" encoding="utf-8"?>
<svg xmlns="http://www.w3.org/2000/svg"  viewBox="0,0,6512.0,1376.0" width="100%">
<path d="M1073 1058 L 1072 1085 L 1066 1117 L 1052 1152 L 1030 1196 L 1009 1242 L 994 1286 L 980 1317 L 971 1336 L 968 1344 L 966 1339 L 972 1340 L 978 1320 L 991 1298 L 1003 1266 L 1016 1231 L 1021 1184 L 1030 1143 L 1040 1108 L 1049 1077 L 1055 1049 L 1058 1021 L 1064 1006 L 1071 1006 L 1071 1006 L 1074 1013 L 1083 1042 L 1097 1082 L 1114 1124 L 1134 1172 L 1158 1225 L 1181 1280 L 1200 1327 L 1218 1365 L 1220 1373 L 1223 1376 L 1221 1372 L 1220 1369 L 1215 1353 L 1204 1330 "/></svg>
