<?xml version="1.0" encoding="utf-8"?>
<svg xmlns="http://www.w3.org/2000/svg"  viewBox="0,0,6512.0,1376.0" width="100%">
<path d="M1073 1058 L 1072 1085 L 1066 1117 L 1052 1152 L 1030 1196 L 1009 1242 L 994 1286 L 980 1317 L 971 1336 L 968 1344 L 966 1339 L 972 1340 L 978 1320 L 991 1298 L 1003 1266 L 1016 1231 L 1021 1184 L 1030 1143 L 1040 1108 L 1049 1077 L 1055 1049 L 1058 1021 L 1064 1006 L 1071 1006 L 1071 1006 L 1074 1013 L 1083 1042 L 1097 1082 L 1114 1124 L 1134 1172 L 1158 1225 L 1181 1280 L 1200 1327 L 1218 1365 L 1220 1373 L 1223 1376 L 1221 1372 L 1220 1369 L 1215 1353 L 1204 1330 M1176 1237 L 1175 1233 L 1171 1229 L 1169 1230 L 1158 1230 L 1139 1227 L 1118 1228 L 1092 1229 L 1065 1233 L 1041 1236 L 1024 1239 L 1015 1243 L 1010 1239 L 1014 1243 M1614 1010 L 1616 1037 L 1620 1077 L 1623 1130 L 1632 1199 L 1631 1258 L 1635 1301 L 1632 1311 L 1631 1312 L 1631 1303 L 1630 1272 L 1623 1231 L 1619 1182 L 1619 1129 L 1614 1076 L 1607 1029 L 1607 995 L 1594 965 L 1594 952 L 1591 949 L 1592 953 L 1600 981 L 1611 1021 L 1631 1070 L 1646 1122 L 1672 1181 L 1693 1233 L 1710 1270 L 1724 1290 L 1717 1303 L 1737 1286 L 1749 1257 L 1751 1212 L 1760 1167 L 1765 1116 L 1771 1066 L 1778 1020 L 1786 987 L 1790 967 L 1792 960 L 1800 963 L 1812 980 L 1821 1020 L 1836 1081 L 1847 1148 L 1860 1215 L 1868 1263 L 1874 1288 L 1872 1290 L 1876 1292 L 1874 1283 "/></svg>
