<?xml version="1.0" encoding="utf-8"?>
<svg xmlns="http://www.w3.org/2000/svg"  viewBox="0,0,6512.0,1376.0" width="100%">
<path d="M1073 1058 L 1072 1085 L 1066 1117 L 1052 1152 L 1030 1196 L 1009 1242 L 994 1286 L 980 1317 L 971 1336 L 968 1344 L 966 1339 L 972 1340 L 978 1320 L 991 1298 L 1003 1266 L 1016 1231 L 1021 1184 L 1030 1143 L 1040 1108 L 1049 1077 L 1055 1049 L 1058 1021 L 1064 1006 L 1071 1006 L 1071 1006 L 1074 1013 L 1083 1042 L 1097 1082 L 1114 1124 L 1134 1172 L 1158 1225 L 1181 1280 L 1200 1327 L 1218 1365 L 1220 1373 L 1223 1376 L 1221 1372 L 1220 1369 L 1215 1353 L 1204 1330 M1176 1237 L 1175 1233 L 1171 1229 L 1169 1230 L 1158 1230 L 1139 1227 L 1118 1228 L 1092 1229 L 1065 1233 L 1041 1236 L 1024 1239 L 1015 1243 L 1010 1239 L 1014 1243 M1614 1010 L 1616 1037 L 1620 1077 L 1623 1130 L 1632 1199 L 1631 1258 L 1635 1301 L 1632 1311 L 1631 1312 L 1631 1303 L 1630 1272 L 1623 1231 L 1619 1182 L 1619 1129 L 1614 1076 L 1607 1029 L 1607 995 L 1594 965 L 1594 952 L 1591 949 L 1592 953 L 1600 981 L 1611 1021 L 1631 1070 L 1646 1122 L 1672 1181 L 1693 1233 L 1710 1270 L 1724 1290 L 1717 1303 L 1737 1286 L 1749 1257 L 1751 1212 L 1760 1167 L 1765 1116 L 1771 1066 L 1778 1020 L 1786 987 L 1790 967 L 1792 960 L 1800 963 L 1812 980 L 1821 1020 L 1836 1081 L 1847 1148 L 1860 1215 L 1868 1263 L 1874 1288 L 1872 1290 L 1876 1292 L 1874 1283 M2028 982 L 2024 974 L 2004 967 L 1983 966 L 1960 974 L 1932 993 L 1913 1029 L 1898 1075 L 1896 1125 L 1901 1172 L 1916 1216 L 1937 1251 L 1965 1275 L 1995 1282 L 2030 1268 L 2056 1228 L 2082 1177 L 2087 1119 L 2084 1069 L 2071 1030 L 2053 1001 L 2032 983 L 2006 977 M2133 985 L 2135 984 L 2135 984 L 2138 991 L 2149 1017 L 2169 1056 L 2186 1105 L 2210 1163 L 2225 1211 L 2237 1246 L 2244 1261 L 2248 1263 L 2248 1257 L 2257 1230 L 2261 1189 L 2265 1141 L 2268 1087 L 2271 1035 L 2268 985 L 2258 941 L 2258 911 L 2251 892 L 2253 890 L 2253 891 L 2257 898 M2542 982 L 2537 983 L 2522 985 L 2502 988 L 2478 989 L 2458 991 L 2438 993 L 2422 996 L 2413 1003 L 2404 1018 L 2397 1042 L 2398 1076 L 2398 1112 L 2403 1146 L 2405 1175 L 2412 1201 L 2416 1221 L 2423 1238 L 2432 1252 L 2443 1265 L 2452 1271 L 2466 1274 L 2481 1268 L 2502 1254 L 2516 1243 L 2526 1236 L 2540 1235 L 2547 1233 L 2557 1233 L 2562 1234 M2486 1140 L 2482 1138 L 2472 1140 L 2459 1143 L 2447 1146 L 2432 1148 L 2419 1152 L 2414 1158 L 2402 1160 M3035 914 L 3035 904 L 3037 924 L 3037 934 L 3035 972 L 3045 990 L 3044 1052 L 3037 1113 L 3045 1161 L 3052 1191 L 3066 1208 L 3081 1212 L 3102 1208 L 3123 1192 L 3149 1175 L 3169 1163 M3145 1079 L 3131 1073 L 3107 1076 L 3088 1081 L 3077 1085 L 3068 1085 M3341 1100 L 3330 1095 L 3312 1097 L 3286 1105 L 3264 1117 L 3252 1136 L 3242 1158 L 3245 1179 L 3251 1195 L 3271 1208 L 3293 1210 L 3326 1195 L 3348 1165 L 3356 1135 L 3350 1109 L 3343 1095 L 3329 1088 M3737 1056 L 3734 1054 L 3722 1052 L 3703 1055 L 3682 1066 L 3660 1083 L 3645 1100 L 3641 1112 L 3641 1112 L 3642 1109 L 3655 1107 L 3682 1103 L 3704 1102 L 3730 1112 L 3750 1129 L 3759 1150 L 3761 1165 L 3759 1172 L 3744 1179 L 3723 1188 L 3682 1195 L 3666 1182 M3815 877 L 3819 892 L 3825 918 L 3824 951 L 3833 992 L 3839 1041 L 3845 1086 L 3843 1118 L 3849 1136 L 3848 1140 M3889 1028 L 3882 1025 L 3865 1025 L 3848 1027 L 3829 1032 M4009 1061 L 4007 1049 L 3993 1041 L 3974 1037 L 3946 1044 L 3923 1068 L 3904 1099 L 3892 1124 L 3897 1144 L 3909 1158 L 3924 1163 L 3952 1158 L 3984 1136 L 4014 1111 L 4021 1088 L 4026 1071 M4080 1088 L 4094 1119 L 4113 1156 L 4121 1196 L 4125 1233 L 4125 1256 L 4127 1261 L 4123 1261 L 4109 1254 L 4099 1235 L 4084 1204 L 4077 1173 L 4075 1141 L 4077 1112 L 4080 1084 L 4092 1059 L 4104 1037 L 4121 1018 L 4145 1007 L 4166 1004 L 4185 1012 L 4202 1027 L 4211 1051 L 4216 1077 L 4214 1099 L 4206 1112 L 4199 1122 L 4184 1131 M4519 892 L 4515 945 L 4517 1007 L 4516 1059 L 4519 1094 L 4519 1107 L 4519 1107 L 4519 1094 L 4524 1059 L 4528 1013 L 4535 965 L 4543 908 L 4549 863 L 4550 832 L 4550 815 L 4551 810 L 4551 811 L 4553 817 L 4560 846 L 4567 893 L 4578 955 L 4587 1022 L 4601 1079 L 4610 1112 L 4620 1118 L 4618 1112 L 4632 1074 L 4645 1021 L 4657 973 L 4664 917 L 4675 861 L 4687 822 L 4691 800 L 4696 792 L 4696 792 L 4700 797 L 4707 820 L 4714 867 L 4723 931 L 4736 999 L 4748 1056 L 4761 1103 L 4766 1129 L 4772 1136 L 4769 1135 L 4772 1124 M4797 1036 L 4806 1052 L 4814 1070 L 4822 1089 L 4826 1105 L 4836 1113 L 4833 1112 L 4833 1111 L 4830 1105 L 4824 1097 L 4818 1084 L 4811 1069 L 4811 1051 L 4811 1032 L 4819 1014 L 4828 996 L 4842 981 L 4857 972 L 4866 967 M4947 1083 L 4947 1083 L 4946 1083 L 4941 1090 L 4939 1097 L 4944 1097 L 4939 1096 L 4944 1094 L 4950 1087 L 4951 1081 L 4948 1079 M5449 793 L 5442 790 L 5429 787 L 5409 789 L 5384 796 L 5357 814 L 5324 843 L 5298 879 L 5275 917 L 5264 957 L 5257 994 L 5261 1030 L 5275 1064 L 5293 1095 L 5320 1120 L 5346 1132 L 5371 1131 L 5390 1119 L 5403 1095 L 5415 1060 L 5431 1022 L 5431 994 L 5434 980 L 5434 980 L 5430 980 L 5432 991 L 5426 1020 L 5427 1056 L 5424 1094 L 5429 1126 L 5429 1145 L 5432 1148 L 5437 1144 L 5435 1135 M5416 993 L 5408 991 L 5396 989 L 5379 991 L 5368 990 L 5351 986 M5561 996 L 5546 996 L 5523 1007 L 5499 1024 L 5482 1047 L 5477 1075 L 5475 1104 L 5485 1133 L 5498 1151 L 5513 1156 L 5527 1146 L 5549 1119 L 5565 1083 L 5576 1046 L 5581 1020 L 5581 1005 L 5586 1001 L 5581 1001 L 5587 1015 L 5585 1046 L 5582 1078 L 5586 1105 L 5581 1122 L 5588 1127 L 5585 1126 M5660 1036 L 5665 1054 L 5664 1076 L 5664 1097 L 5661 1114 L 5660 1119 M5624 919 L 5629 917 L 5624 916 L 5624 921 "/></svg>
