<?xml version="1.0" encoding="utf-8"?>
<svg xmlns="http://www.w3.org/2000/svg"  viewBox="0,0,6512.0,1376.0" width="100%">
<path d="M1073 1058 L 1072 1085 L 1066 1117 L 1052 1152 L 1030 1196 L 1009 1242 L 994 1286 L 980 1317 L 971 1336 L 968 1344 L 966 1339 L 972 1340 L 978 1320 L 991 1298 L 1003 1266 L 1016 1231 L 1021 1184 L 1030 1143 L 1040 1108 L 1049 1077 L 1055 1049 L 1058 1021 L 1064 1006 L 1071 1006 L 1071 1006 L 1074 1013 L 1083 1042 L 1097 1082 L 1114 1124 L 1134 1172 L 1158 1225 L 1181 1280 L 1200 1327 L 1218 1365 L 1220 1373 L 1223 1376 L 1221 1372 L 1220 1369 L 1215 1353 L 1204 1330 M1176 1237 L 1175 1233 L 1171 1229 L 1169 1230 L 1158 1230 L 1139 1227 L 1118 1228 L 1092 1229 L 1065 1233 L 1041 1236 L 1024 1239 L 1015 1243 L 1010 1239 L 1014 1243 M1614 1010 L 1616 1037 L 1620 1077 L 1623 1130 L 1632 1199 L 1631 1258 L 1635 1301 L 1632 1311 L 1631 1312 L 1631 1303 L 1630 1272 L 1623 1231 L 1619 1182 L 1619 1129 L 1614 1076 L 1607 1029 L 1607 995 L 1594 965 L 1594 952 L 1591 949 L 1592 953 L 1600 981 L 1611 1021 L 1631 1070 L 1646 1122 L 1672 1181 L 1693 1233 L 1710 1270 L 1724 1290 L 1717 1303 L 1737 1286 L 1749 1257 L 1751 1212 L 1760 1167 L 1765 1116 L 1771 1066 L 1778 1020 L 1786 987 L 1790 967 L 1792 960 L 1800 963 L 1812 980 L 1821 1020 L 1836 1081 L 1847 1148 L 1860 1215 L 1868 1263 L 1874 1288 L 1872 1290 L 1876 1292 L 1874 1283 M2028 982 L 2024 974 L 2004 967 L 1983 966 L 1960 974 L 1932 993 L 1913 1029 L 1898 1075 L 1896 1125 L 1901 1172 L 1916 1216 L 1937 1251 L 1965 1275 L 1995 1282 L 2030 1268 L 2056 1228 L 2082 1177 L 2087 1119 L 2084 1069 L 2071 1030 L 2053 1001 L 2032 983 L 2006 977 M2133 985 L 2135 984 L 2135 984 L 2138 991 L 2149 1017 L 2169 1056 L 2186 1105 L 2210 1163 L 2225 1211 L 2237 1246 L 2244 1261 L 2248 1263 L 2248 1257 L 2257 1230 L 2261 1189 L 2265 1141 L 2268 1087 L 2271 1035 L 2268 985 L 2258 941 L 2258 911 L 2251 892 L 2253 890 L 2253 891 L 2257 898 "/></svg>
