<?xml version="1.0" encoding="utf-8"?>
<svg xmlns="http://www.w3.org/2000/svg"  viewBox="0,0,400,558.1327329197043" width="100%">
<path d="M173.1102536071876 199.24562178285197 L 173.1102536071876,199.24562178285197 L 149.29448985354057,218.2788303517777 L 127.39001064237985,239.70114459881117 L 107.82251116725915,262.77411367799186 L 91.01768662173218,286.7592867433593 L 77.40123219935276,310.91821294895277 L 67.39884309367466,334.51244144881156 L 61.43621449825161,356.8035213969752 L 59.93904160663737,377.0530019474831 L 63.333019612385705,394.52243225437456 L 63.333019612385705,394.52243225437456 L 70.34251087767055,407.65382582695634 L 80.15811535760568,417.4752220782322 L 92.8493343082815,423.9605580371686 L 108.48566898578844,427.0837707327314 L 127.13662064621688,426.8187971938867 L 148.87169054565723,423.1395744496007 L 173.76037994019993,416.0200395288394 L 201.8721900859354,405.43412946056884 L 233.276622238954,391.35578127375527 L 233.276622238954,391.35578127375527 L 234.5175092487348,391.42383458701056 L 236.08852722494518,392.29115234530536 L 237.9288625685058,393.8969209495608 L 239.97770168033765,396.1803268006979 L 242.17423096136167,399.0805562996373 L 244.45763681249863,402.5367958472999 L 246.76710563466952,406.48823184460673 L 249.0418238287952,410.87405069247865 L 251.2209777957966,415.63343879183645 L 251.2209777957966,415.63343879183645 L 254.45423414683583,422.0985035510798 L 257.9307448941916,427.47761118391037 L 261.8155755210785,431.8576382604414 L 266.2737915107112,435.3254613507859 L 271.4704583463045,437.96795702505665 L 277.5706415110731,439.8720018533667 L 284.7394064882318,441.1244724058294 L 293.1418187609953,441.8122452525574 L 302.9429438125783,442.0221969636638 L 302.9429438125783,442.0221969636638 L 317.9479754139306,441.3402158882767 L 332.518624164718,439.38114923222827 L 346.3768850405786,436.27531185068807 L 359.2447530171509,432.15301859882567 L 370.8442230700732,427.1445843318105 L 380.8972901749839,421.3803239048122 L 389.12594930752135,414.99055217300014 L 395.25219544332384,408.10558399154405 L 398.9980235580299,400.85573421561315 L 398.9980235580299,400.85573421561315 L 399.9638014291194,397.37053581124616 L 400.00000000000006,394.63247590985105 L 399.0371180145808,392.60680388338267 L 397.00565421677146,391.2587691037957 L 393.8361073504817,390.55362094304513 L 389.45897615962116,390.4566087730856 L 383.8047593880993,390.93298196587193 L 376.8039557798258,391.947989893359 L 368.3870640787102,393.46688192750145 L 368.3870640787102,393.46688192750145 L 346.5216793241002,397.7875433477886 L 329.12175027329926,400.82243153040315 L 315.6486421916063,402.45860693419814 L 305.5637203443208,402.58313001802685 L 298.32834999674213,401.08306124074215 L 293.40389641416954,397.8454610611972 L 290.25172486190246,392.7573899382452 L 288.3332006052401,385.705908330739 L 287.10968890948186,376.5780766975319 L 287.10968890948186,376.5780766975319 L 286.6362116023658,371.049830952674 L 286.60580480282636,365.1132653282848 L 286.9924055398293,358.9073823365453 L 287.76995084234073,352.5711844896363 L 288.9123777393268,346.24367429973864 L 290.39362325975367,340.0638542790331 L 292.18762443258737,334.1707269397004 L 294.268318286794,328.7032947939215 L 296.6096418513397,323.8005603538772 L 296.6096418513397,323.8005603538772 L 302.5722704467627,310.47079861287074 L 307.71825928312353,293.787601265502 L 311.93466881927503,274.93248966530797 L 315.1085595140704,255.0869851658256 L 317.1269918263627,235.43260912059188 L 317.877026215005,217.15088288314377 L 317.24572313885045,201.42332780701815 L 315.1201430567521,189.4314652457521 L 311.38734642756305,182.35681655288246 L 311.38734642756305,182.35681655288246 L 308.9519065787282,180.2891541841929 L 305.2741317772775,178.3257436996387 L 300.51908750642525,176.49264807025412 L 294.85183924938644,174.815930267073 L 288.4374524893757,173.3216532611292 L 281.44099270960777,172.03588002345666 L 274.0275253932975,170.9846735250892 L 266.3621160236594,170.19409673706085 L 258.60983008390826,169.6902126304053 L 258.60983008390826,169.6902126304053 L 248.41486458114625,169.6612537737011 L 238.81934741216418,170.31861982088944 L 229.64083777972445,171.72312437104975 L 220.6968948865899,173.93558102326122 L 211.80507793552312,177.01680337660264 L 202.78294612928678,181.0276050301534 L 193.4480586706437,186.02879958299246 L 183.6179747623564,192.08120063419895 L 173.1102536071876,199.24562178285197 L 173.1102536071876,199.24562178285197 L 173.1102536071876,199.24562178285197 L 173.1102536071876,199.24562178285197 L 173.1102536071876,199.24562178285197 L 173.1102536071876,199.24562178285197 L 173.1102536071876,199.24562178285197 L 173.1102536071876,199.24562178285197 L 173.1102536071876,199.24562178285197 L 173.1102536071876,199.24562178285197 L 173.1102536071876,199.24562178285197 L 260.7209307376545,221.41217864718698 L 260.7209307376545,221.41217864718698 L 260.7209307376545,221.41217864718698 L 260.7209307376545,221.41217864718698 L 260.7209307376545,221.41217864718698 L 260.7209307376545,221.41217864718698 L 260.7209307376545,221.41217864718698 L 260.7209307376545,221.41217864718698 L 260.7209307376545,221.41217864718698 L 260.7209307376545,221.41217864718698 L 260.7209307376545,221.41217864718698 L 264.20757708485667,226.54224011236036 L 266.2520723681829,233.36639469473744 L 266.8978548726896,241.70220159708086 L 266.1883628834334,251.36722002215345 L 264.16703468547064,262.1790091727178 L 260.87730856385787,273.95512825153656 L 256.36262280365173,286.5131364613725 L 250.66641568990858,299.6705930049881 L 243.83212550768496,313.24505708514624 L 243.83212550768496,313.24505708514624 L 236.44616910524368,323.9134998950242 L 226.02822040585843,335.18139103868174 L 213.29935494146693,346.553534066475 L 198.98064824400737,357.5347325287597 L 183.79317584541764,367.6297899758917 L 168.4580132776358,376.3435099582268 L 153.69623607259987,383.1806960261208 L 140.22891976224778,387.6461517299296 L 128.7771398785176,389.24468062000904 L 128.7771398785176,389.24468062000904 L 113.45645673908793,386.6514150021357 L 103.94781614021879,379.28862568505787 L 100.04271431363891,367.78182397358944 L 101.53264749107707,352.75652117254407 L 108.20911190426203,334.8382285867354 L 119.86360378492256,314.65245752097707 L 136.28761936478747,292.82471928008283 L 157.27265487558552,269.98052516886634 L 182.61020654904544,246.74538649214125 L 182.61020654904544,246.74538649214125 L 196.61760553693338,234.96492358481694 L 208.5834051271656,225.60831698364544 L 218.81167331513754,218.59737777552536 L 227.60647809624476,213.8539170473549 L 235.27188746588283,211.29974588603238 L 242.11196941944732,210.8566753784561 L 248.43079195233372,212.44651661152415 L 254.53242305993757,215.991080672135 L 260.7209307376545,221.41217864718698 L 260.7209307376545,221.41217864718698 L 260.7209307376545,221.41217864718698 L 260.7209307376545,221.41217864718698 L 260.7209307376545,221.41217864718698 L 260.7209307376545,221.41217864718698 L 260.7209307376545,221.41217864718698 L 260.7209307376545,221.41217864718698 L 260.7209307376545,221.41217864718698 L 260.7209307376545,221.41217864718698 L 260.7209307376545,221.41217864718698"/></svg>
