<?xml version="1.0" encoding="utf-8"?>
<svg xmlns="http://www.w3.org/2000/svg"  viewBox="0,0,400,552.5743026977594" width="100%">
<path d="M197.94871794871796 203.85635397981076 L 197.94871794871796,203.85635397981076 L 181.7368365516513,217.57236818965217 L 163.82821568006756,235.93964334705075 L 145.1851851851852,257.6075410643311 L 126.77007491822307,281.225422953818 L 109.5452147303999,305.4426506278358 L 94.47293447293447,328.90858569870915 L 82.51556399704549,350.27258977876255 L 74.63543315395167,368.1840244803208 L 71.7948717948718,381.29225141570817 L 71.7948717948718,381.29225141570817 L 72.3520101297879,384.8517463332278 L 73.97277619499842,388.6476029685906 L 76.58119658119658,392.6122894024128 L 80.10129787907566,396.6782737153107 L 84.4571066793289,400.77802398790044 L 89.57264957264957,404.84400830079846 L 95.37195314973091,408.8086947346206 L 101.7790440012662,412.6045513699834 L 108.71794871794872,416.164046287503 L 108.71794871794872,416.164046287503 L 120.32077661707288,421.5370546234743 L 131.03724807428512,425.26397242446615 L 141.65242165242165,427.2181773416341 L 152.95135591431887,427.27304702613344 L 165.71910942281312,425.30195912911955 L 180.7407407407407,421.17829130174806 L 198.80130843093804,414.77542119517426 L 220.6858710562414,405.96672646055356 L 247.17948717948718,394.62558474904154 L 247.17948717948718,394.62558474904154 L 250.83043157117228,393.3354437058141 L 254.27878020470618,392.8894516548837 L 257.54985754985756,393.29605008617347 L 260.6689880763955,394.5636804896064 L 263.66149625408883,396.7007843551053 L 266.5527065527065,399.7158031725932 L 269.36794344201746,403.6171784319932 L 272.1325313917906,408.4133516232281 L 274.87179487179486,414.112764236221 L 274.87179487179486,414.112764236221 L 278.00640146319154,420.1245119763638 L 281.33516232281664,425.2076958249797 L 284.9762583095916,429.42140621152964 L 289.0478702824382,432.8247335654743 L 293.6681791002778,435.47676831627444 L 298.9553656220322,437.43660089339096 L 305.027610706623,438.7633217262847 L 312.00309521297174,439.51602124441627 L 320.0,439.7537898772466 L 320.0,439.7537898772466 L 337.33037881186027,439.3711090007386 L 352.4322042840561,438.21181105131717 L 365.3561253561254,436.25901304913646 L 376.15279096760577,433.49583201435047 L 384.8728500580352,429.9053849671133 L 391.5669515669515,425.470788927579 L 396.2857444338926,420.1751609159016 L 399.0798775983961,414.00161795223516 L 400.0,406.9332770567338 L 400.0,406.9332770567338 L 399.8339840315148,401.9513910871936 L 399.2796595265731,397.923393478949 L 398.2526115859449,394.81551827230834 L 396.66842531040066,392.59399950757967 L 394.4426858007106,391.22507122507125 L 391.49097815764475,390.6749674650909 L 387.7288874819739,390.9099222679469 L 383.07199887446797,391.8961696739474 L 377.43589743589746,393.5999437234005 L 377.43589743589746,393.5999437234005 L 361.9795293869367,397.9993668882558 L 348.9796349055609,400.913087826668 L 338.2336182336182,402.2988990890225 L 329.53888361295776,402.1145932257042 L 322.69283528542786,400.3179627870985 L 317.4928774928775,396.86680032359044 L 313.73641447715517,391.718898385565 L 311.22085048010973,384.83204952340753 L 309.7435897435897,376.164046287503 L 309.7435897435897,376.164046287503 L 309.35528120713303,370.6812985825332 L 309.5241110055925,364.5907636031092 L 310.1994301994302,358.04438816784494 L 311.3305898491084,351.1941190953536 L 312.86694101508914,344.1919032042489 L 314.75783475783476,337.1896873131441 L 316.95262213780734,330.33941824065283 L 319.400654215469,323.7930428053885 L 322.05128205128204,317.7025078259646 L 322.05128205128204,317.7025078259646 L 327.89842073792687,304.1567303295698 L 332.43712848651126,288.6525271710456 L 335.65052231718903,271.96651542330545 L 337.5217192501143,254.87531215926265 L 338.0338363054413,238.1555344518307 L 337.16999050332385,222.58379937392283 L 334.9132988639161,208.9367239984524 L 331.2468784073722,197.9909253983328 L 326.15384615384613,190.5230206464774 L 326.15384615384613,190.5230206464774 L 316.48974710703095,183.45045900601463 L 304.8334564383947,178.6148921951391 L 291.54795821462494,175.9741127642361 L 276.9962365024094,175.485913263691 L 261.5412753684359,177.1080862438886 L 245.54605887939218,180.79842425521437 L 229.3735711019662,186.51471984805315 L 213.3867961028455,194.21476557279027 L 197.94871794871796,203.85635397981076 L 197.94871794871796,203.85635397981076 L 197.94871794871796,203.85635397981076 L 197.94871794871796,203.85635397981076 L 197.94871794871796,203.85635397981076 L 197.94871794871796,203.85635397981076 L 197.94871794871796,203.85635397981076 L 197.94871794871796,203.85635397981076 L 197.94871794871796,203.85635397981076 L 197.94871794871796,203.85635397981076 L 197.94871794871796,203.85635397981076 L 284.1025641025641,225.39481551827228 L 284.1025641025641,225.39481551827228 L 284.1025641025641,225.39481551827228 L 284.1025641025641,225.39481551827228 L 284.1025641025641,225.39481551827228 L 284.1025641025641,225.39481551827228 L 284.1025641025641,225.39481551827228 L 284.1025641025641,225.39481551827228 L 284.1025641025641,225.39481551827228 L 284.1025641025641,225.39481551827228 L 284.1025641025641,225.39481551827228 L 287.49041539164983,230.3795153177869 L 289.47697935352255,237.01030565228092 L 290.1044634377968,245.10991523337194 L 289.4150750940874,254.50107277267767 L 287.4510217720095,265.0065069818156 L 284.2545109211776,276.4489465724033 L 279.8677499912068,288.65112025605856 L 274.33294643171183,301.4357567443987 L 267.6923076923077,314.62558474904154 L 267.6923076923077,314.62558474904154 L 260.5156343427948,324.99173437445046 L 250.39288101016498,335.9403468045443 L 238.0246913580247,346.9902571137138 L 224.1117090499807,357.66030037634965 L 209.35457774963945,367.4693116668425 L 194.45394112060774,375.9361260595828 L 180.1104428264922,382.5795786289613 L 167.02472653089936,386.9185044493686 L 155.89743589743588,388.47173859519535 L 155.89743589743588,388.47173859519535 L 141.01086841827578,385.9519538531884 L 131.77165769758363,378.79779114347014 L 127.977207977208,367.6170377404944 L 129.42492349899757,353.0174809187154 L 135.9122085048011,335.60690795258694 L 147.23646723646723,315.9931061165629 L 163.19510393584463,294.78386268509723 L 183.58552284478205,272.5869649326439 L 208.2051282051282,250.01020013365692 L 208.2051282051282,250.01020013365692 L 221.81562379093236,238.56353979810777 L 233.4423692448384,229.47205515106742 L 243.38081671415011,222.65977278322953 L 251.92641834617143,218.05071928528716 L 259.37462628820657,215.56892124793356 L 266.0208926875593,215.1384052618621 L 272.1606696915339,216.6831979177658 L 278.08940944743415,220.12732580633812 L 284.1025641025641,225.39481551827228 L 284.1025641025641,225.39481551827228 L 284.1025641025641,225.39481551827228 L 284.1025641025641,225.39481551827228 L 284.1025641025641,225.39481551827228 L 284.1025641025641,225.39481551827228 L 284.1025641025641,225.39481551827228 L 284.1025641025641,225.39481551827228 L 284.1025641025641,225.39481551827228 L 284.1025641025641,225.39481551827228 L 284.1025641025641,225.39481551827228M257.43589743589746 25.394815518272292 L 197.94871794871796,203.85635397981076 L 181.7368365516513,217.57236818965217 L 163.82821568006756,235.93964334705075 L 145.1851851851852,257.6075410643311 L 126.77007491822307,281.225422953818 L 109.5452147303999,305.4426506278358 L 94.47293447293447,328.90858569870915 L 82.51556399704549,350.27258977876255 L 74.63543315395167,368.1840244803208 L 71.7948717948718,381.29225141570817 L 71.7948717948718,381.29225141570817 L 72.3520101297879,384.8517463332278 L 73.97277619499842,388.6476029685906 L 76.58119658119658,392.6122894024128 L 80.10129787907566,396.6782737153107 L 84.4571066793289,400.77802398790044 L 89.57264957264957,404.84400830079846 L 95.37195314973091,408.8086947346206 L 101.7790440012662,412.6045513699834 L 108.71794871794872,416.164046287503 L 108.71794871794872,416.164046287503 L 120.32077661707288,421.5370546234743 L 131.03724807428512,425.26397242446615 L 141.65242165242165,427.2181773416341 L 152.95135591431887,427.27304702613344 L 165.71910942281312,425.30195912911955 L 180.7407407407407,421.17829130174806 L 198.80130843093804,414.77542119517426 L 220.6858710562414,405.96672646055356 L 247.17948717948718,394.62558474904154 L 247.17948717948718,394.62558474904154 L 250.83043157117228,393.3354437058141 L 254.27878020470618,392.8894516548837 L 257.54985754985756,393.29605008617347 L 260.6689880763955,394.5636804896064 L 263.66149625408883,396.7007843551053 L 266.5527065527065,399.7158031725932 L 269.36794344201746,403.6171784319932 L 272.1325313917906,408.4133516232281 L 274.87179487179486,414.112764236221 L 274.87179487179486,414.112764236221 L 278.00640146319154,420.1245119763638 L 281.33516232281664,425.2076958249797 L 284.9762583095916,429.42140621152964 L 289.0478702824382,432.8247335654743 L 293.6681791002778,435.47676831627444 L 298.9553656220322,437.43660089339096 L 305.027610706623,438.7633217262847 L 312.00309521297174,439.51602124441627 L 320.0,439.7537898772466 L 320.0,439.7537898772466 L 337.33037881186027,439.3711090007386 L 352.4322042840561,438.21181105131717 L 365.3561253561254,436.25901304913646 L 376.15279096760577,433.49583201435047 L 384.8728500580352,429.9053849671133 L 391.5669515669515,425.470788927579 L 396.2857444338926,420.1751609159016 L 399.0798775983961,414.00161795223516 L 400.0,406.9332770567338 L 400.0,406.9332770567338 L 399.8339840315148,401.9513910871936 L 399.2796595265731,397.923393478949 L 398.2526115859449,394.81551827230834 L 396.66842531040066,392.59399950757967 L 394.4426858007106,391.22507122507125 L 391.49097815764475,390.6749674650909 L 387.7288874819739,390.9099222679469 L 383.07199887446797,391.8961696739474 L 377.43589743589746,393.5999437234005 L 377.43589743589746,393.5999437234005 L 361.9795293869367,397.9993668882558 L 348.9796349055609,400.913087826668 L 338.2336182336182,402.2988990890225 L 329.53888361295776,402.1145932257042 L 322.69283528542786,400.3179627870985 L 317.4928774928775,396.86680032359044 L 313.73641447715517,391.718898385565 L 311.22085048010973,384.83204952340753 L 309.7435897435897,376.164046287503 L 309.7435897435897,376.164046287503 L 309.35528120713303,370.6812985825332 L 309.5241110055925,364.5907636031092 L 310.1994301994302,358.04438816784494 L 311.3305898491084,351.1941190953536 L 312.86694101508914,344.1919032042489 L 314.75783475783476,337.1896873131441 L 316.95262213780734,330.33941824065283 L 319.400654215469,323.7930428053885 L 322.05128205128204,317.7025078259646 L 322.05128205128204,317.7025078259646 L 327.89842073792687,304.1567303295698 L 332.43712848651126,288.6525271710456 L 335.65052231718903,271.96651542330545 L 337.5217192501143,254.87531215926265 L 338.0338363054413,238.1555344518307 L 337.16999050332385,222.58379937392283 L 334.9132988639161,208.9367239984524 L 331.2468784073722,197.9909253983328 L 326.15384615384613,190.5230206464774 L 326.15384615384613,190.5230206464774 L 316.48974710703095,183.45045900601463 L 304.8334564383947,178.6148921951391 L 291.54795821462494,175.9741127642361 L 276.9962365024094,175.485913263691 L 261.5412753684359,177.1080862438886 L 245.54605887939218,180.79842425521437 L 229.3735711019662,186.51471984805315 L 213.3867961028455,194.21476557279027 L 197.94871794871796,203.85635397981076 L 197.94871794871796,203.85635397981076 L 197.94871794871796,203.85635397981076 L 197.94871794871796,203.85635397981076 L 197.94871794871796,203.85635397981076 L 197.94871794871796,203.85635397981076 L 197.94871794871796,203.85635397981076 L 197.94871794871796,203.85635397981076 L 197.94871794871796,203.85635397981076 L 197.94871794871796,203.85635397981076 L 197.94871794871796,203.85635397981076 L 284.1025641025641,225.39481551827228 L 284.1025641025641,225.39481551827228 L 284.1025641025641,225.39481551827228 L 284.1025641025641,225.39481551827228 L 284.1025641025641,225.39481551827228 L 284.1025641025641,225.39481551827228 L 284.1025641025641,225.39481551827228 L 284.1025641025641,225.39481551827228 L 284.1025641025641,225.39481551827228 L 284.1025641025641,225.39481551827228 L 284.1025641025641,225.39481551827228 L 287.49041539164983,230.3795153177869 L 289.47697935352255,237.01030565228092 L 290.1044634377968,245.10991523337194 L 289.4150750940874,254.50107277267767 L 287.4510217720095,265.0065069818156 L 284.2545109211776,276.4489465724033 L 279.8677499912068,288.65112025605856 L 274.33294643171183,301.4357567443987 L 267.6923076923077,314.62558474904154 L 267.6923076923077,314.62558474904154 L 260.5156343427948,324.99173437445046 L 250.39288101016498,335.9403468045443 L 238.0246913580247,346.9902571137138 L 224.1117090499807,357.66030037634965 L 209.35457774963945,367.4693116668425 L 194.45394112060774,375.9361260595828 L 180.1104428264922,382.5795786289613 L 167.02472653089936,386.9185044493686 L 155.89743589743588,388.47173859519535 L 155.89743589743588,388.47173859519535 L 141.01086841827578,385.9519538531884 L 131.77165769758363,378.79779114347014 L 127.977207977208,367.6170377404944 L 129.42492349899757,353.0174809187154 L 135.9122085048011,335.60690795258694 L 147.23646723646723,315.9931061165629 L 163.19510393584463,294.78386268509723 L 183.58552284478205,272.5869649326439 L 208.2051282051282,250.01020013365692 L 208.2051282051282,250.01020013365692 L 221.81562379093236,238.56353979810777 L 233.4423692448384,229.47205515106742 L 243.38081671415011,222.65977278322953 L 251.92641834617143,218.05071928528716 L 259.37462628820657,215.56892124793356 L 266.0208926875593,215.1384052618621 L 272.1606696915339,216.6831979177658 L 278.08940944743415,220.12732580633812 L 284.1025641025641,225.39481551827228 L 284.1025641025641,225.39481551827228 L 284.1025641025641,225.39481551827228 L 284.1025641025641,225.39481551827228 L 284.1025641025641,225.39481551827228 L 284.1025641025641,225.39481551827228 L 284.1025641025641,225.39481551827228 L 284.1025641025641,225.39481551827228 L 284.1025641025641,225.39481551827228 L 284.1025641025641,225.39481551827228 L 284.1025641025641,225.39481551827228 L 257.43589743589746,25.394815518272292 L 247.1105483451162,35.18131616897061 L 238.7267419366185,45.871056241426515 L 232.32668566001902,57.15170060849074 L 227.95258696493264,68.7109141430129 L 225.64665330097426,80.23636171784318 L 225.45109211775875,91.41570820583165 L 227.40811086490098,101.93661847982837 L 231.55991699201576,111.48675741268335 L 237.94871794871796,119.75378987724665 L 237.94871794871796,119.75378987724665 L 241.03830326052542,122.0667581161409 L 245.41943653054767,124.20245506665259 L 250.94017094017096,126.13555625901303 L 257.4485596707819,127.84073722345323 L 264.792655903767,129.29267349020432 L 272.82051282051276,130.46604058949737 L 281.38018360240585,131.33551405156337 L 290.31972143083254,131.8757694066336 L 299.4871794871795,132.06148218493894 L 299.4871794871795,132.06148218493894 L 311.25180260982717,131.8996869614154 L 321.35345221764976,131.37490767120394 L 329.95251661918326,130.42805388484396 L 337.20938412296437,129.00003517287462 L 343.2844430375294,127.03176110583509 L 348.338081671415,124.46414125426472 L 352.53068833315746,121.2380851887025 L 356.0226513312933,117.29450247968764 L 358.97435897435895,112.57430269775946 L 358.97435897435895,112.57430269775946 L 364.2249657064471,100.62255988181924 L 367.70285955471144,88.22341809996126 L 369.4586894586895,75.68921247933582 L 369.54310435791916,63.33227814709295 L 368.00675319193834,51.464950230382286 L 364.9002849002849,40.399563856354014 L 360.27434842249664,30.448454152157854 L 354.17959269811115,21.923956244943906 L 346.6666666666667,15.138405261862037 L 346.6666666666667,15.138405261862037 L 336.4144771552178,8.534346312124118 L 326.71942597868525,3.787415145439715 L 317.37891737891744,0.9313777215010514 L 308.190355597763,0.0 L 298.9511448770708,1.0270479406282016 L 289.45868945868943,4.046287503077646 L 279.51039358446764,9.091484647040208 L 268.9036614962541,16.196405332207874 L 257.43589743589746,25.394815518272292 L 257.43589743589746,25.394815518272292 L 257.43589743589746,25.394815518272292 L 257.43589743589746,25.394815518272292 L 257.43589743589746,25.394815518272292 L 257.43589743589746,25.394815518272292 L 257.43589743589746,25.394815518272292 L 257.43589743589746,25.394815518272292 L 257.43589743589746,25.394815518272292 L 257.43589743589746,25.394815518272292 L 257.43589743589746,25.394815518272292 L 338.46153846153845,68.47173859519536 L 338.46153846153845,68.47173859519536 L 338.46153846153845,68.47173859519536 L 338.46153846153845,68.47173859519536 L 338.46153846153845,68.47173859519536 L 338.46153846153845,68.47173859519536 L 338.46153846153845,68.47173859519536 L 338.46153846153845,68.47173859519536 L 338.46153846153845,68.47173859519536 L 338.46153846153845,68.47173859519536 L 338.46153846153845,68.47173859519536 L 338.24065280855393,70.39921212760721 L 337.60613414934403,72.7234356863986 L 336.6001899335233,75.38531884210884 L 335.2650276107067,78.32577116527737 L 333.642854630509,81.48570222644291 L 331.7758784425451,84.80602159614509 L 329.70630649642993,88.22763884492278 L 327.47634624177834,91.6914635433154 L 325.12820512820514,95.13840526186203 L 325.12820512820514,95.13840526186203 L 321.5335373360064,99.77419014456063 L 318.175231261651,103.43076219619422 L 314.90978157644827,106.11656290668634 L 311.5936829517077,107.8400337659597 L 308.0834300587387,108.60961626393721 L 304.2355175688509,108.43375189054208 L 299.90644015335374,107.32088213569695 L 294.9526924835567,105.27944848932502 L 289.2307692307692,102.31789244134922 L 289.2307692307692,102.31789244134922 L 281.2549681685483,97.25018465759206 L 275.1109704196124,91.7097534381484 L 270.8072174738842,85.83166262178607 L 268.3521508212866,79.75097604727229 L 267.75421195174283,73.60275755337479 L 269.0218423551757,67.52207097886115 L 272.16348352150817,61.64398016249868 L 277.18757694066335,56.10354894305513 L 284.1025641025641,51.03584115929793 L 284.1025641025641,51.03584115929793 L 290.8290246561851,48.69614153564784 L 298.4080756920264,47.740846259364794 L 306.40075973409307,48.034891491681535 L 314.36811930639095,49.44321339383064 L 321.87119693292533,51.83074812704443 L 328.4710351377018,55.06243185255535 L 333.7286764447258,59.00320073159585 L 337.2051633780028,63.517990925398315 L 338.46153846153845,68.47173859519536 L 338.46153846153845,68.47173859519536 L 338.46153846153845,68.47173859519536 L 338.46153846153845,68.47173859519536 L 338.46153846153845,68.47173859519536 L 338.46153846153845,68.47173859519536 L 338.46153846153845,68.47173859519536 L 338.46153846153845,68.47173859519536 L 338.46153846153845,68.47173859519536 L 338.46153846153845,68.47173859519536 L 338.46153846153845,68.47173859519536"/></svg>
