<?xml version="1.0" encoding="utf-8"?>
<svg xmlns="http://www.w3.org/2000/svg"  viewBox="0,0,400,620.141865565488" width="100%">
<path d="M147.04922478223017 22.234168573589855 L 147.04922478223017,22.234168573589855 L 138.3488979490863,33.42927416400666 L 132.52584455682472,44.5901264991746 L 129.47730483969957,55.37419302660807 L 129.10051903196495,65.43894119382111 L 131.29272736787522,74.44183844832756 L 135.9511700816845,82.04035223764159 L 142.97308740764706,87.89195000927698 L 152.25571958001706,91.654099210748 L 163.69630683304868,92.98426728956854 L 163.69630683304868,92.98426728956854 L 174.96182189258747,91.79872406624219 L 185.48518308840673,88.43239025875491 L 195.03803538551566,83.17070966084519 L 203.39202374892366,76.2991260662515 L 210.3187931436401,68.10308326871206 L 215.5899885346743,58.86802506196521 L 218.97725488703557,48.8793952397491 L 220.25223716573342,38.4226375958022 L 219.18658033577705,27.783195923862692 L 219.18658033577705,27.783195923862692 L 215.84498499041382,17.408265500787554 L 210.6422961098769,9.419645193364389 L 203.87537523965392,3.8401705050927304 L 195.84108392523277,0.6926769394717918 L 186.8362837121014,0.0 L 177.1578361457476,1.7849751901769637 L 167.10260277165926,6.070438013501503 L 156.96744513532414,12.879223973472834 L 147.04922478223017,22.234168573589855 L 147.04922478223017,22.234168573589855 L 147.04922478223017,22.234168573589855 L 147.04922478223017,22.234168573589855 L 147.04922478223017,22.234168573589855 L 147.04922478223017,22.234168573589855 L 147.04922478223017,22.234168573589855 L 147.04922478223017,22.234168573589855 L 147.04922478223017,22.234168573589855 L 147.04922478223017,22.234168573589855 L 147.04922478223017,22.234168573589855"/></svg>
