<?xml version="1.0" encoding="utf-8"?>
<svg xmlns="http://www.w3.org/2000/svg"  viewBox="0,0,400,620.141865565488" width="100%">
<path d="M147.04922478223017 22.234168573589855 L 147.04922478223017,22.234168573589855 L 138.3488979490863,33.42927416400666 L 132.52584455682472,44.5901264991746 L 129.47730483969957,55.37419302660807 L 129.10051903196495,65.43894119382111 L 131.29272736787522,74.44183844832756 L 135.9511700816845,82.04035223764159 L 142.97308740764706,87.89195000927698 L 152.25571958001706,91.654099210748 L 163.69630683304868,92.98426728956854 L 163.69630683304868,92.98426728956854 L 174.96182189258747,91.79872406624219 L 185.48518308840673,88.43239025875491 L 195.03803538551566,83.17070966084519 L 203.39202374892366,76.2991260662515 L 210.3187931436401,68.10308326871206 L 215.5899885346743,58.86802506196521 L 218.97725488703557,48.8793952397491 L 220.25223716573342,38.4226375958022 L 219.18658033577705,27.783195923862692 L 219.18658033577705,27.783195923862692 L 215.84498499041382,17.408265500787554 L 210.6422961098769,9.419645193364389 L 203.87537523965392,3.8401705050927304 L 195.84108392523277,0.6926769394717918 L 186.8362837121014,0.0 L 177.1578361457476,1.7849751901769637 L 167.10260277165926,6.070438013501503 L 156.96744513532414,12.879223973472834 L 147.04922478223017,22.234168573589855 L 147.04922478223017,22.234168573589855 L 147.04922478223017,22.234168573589855 L 147.04922478223017,22.234168573589855 L 147.04922478223017,22.234168573589855 L 147.04922478223017,22.234168573589855 L 147.04922478223017,22.234168573589855 L 147.04922478223017,22.234168573589855 L 147.04922478223017,22.234168573589855 L 147.04922478223017,22.234168573589855 L 147.04922478223017,22.234168573589855M210.8630393103678 210.9010984828663 L 147.04922478223017,22.234168573589855 L 138.3488979490863,33.42927416400666 L 132.52584455682472,44.5901264991746 L 129.47730483969957,55.37419302660807 L 129.10051903196495,65.43894119382111 L 131.29272736787522,74.44183844832756 L 135.9511700816845,82.04035223764159 L 142.97308740764706,87.89195000927698 L 152.25571958001706,91.654099210748 L 163.69630683304868,92.98426728956854 L 163.69630683304868,92.98426728956854 L 174.96182189258747,91.79872406624219 L 185.48518308840673,88.43239025875491 L 195.03803538551566,83.17070966084519 L 203.39202374892366,76.2991260662515 L 210.3187931436401,68.10308326871206 L 215.5899885346743,58.86802506196521 L 218.97725488703557,48.8793952397491 L 220.25223716573342,38.4226375958022 L 219.18658033577705,27.783195923862692 L 219.18658033577705,27.783195923862692 L 215.84498499041382,17.408265500787554 L 210.6422961098769,9.419645193364389 L 203.87537523965392,3.8401705050927304 L 195.84108392523277,0.6926769394717918 L 186.8362837121014,0.0 L 177.1578361457476,1.7849751901769637 L 167.10260277165926,6.070438013501503 L 156.96744513532414,12.879223973472834 L 147.04922478223017,22.234168573589855 L 147.04922478223017,22.234168573589855 L 147.04922478223017,22.234168573589855 L 147.04922478223017,22.234168573589855 L 147.04922478223017,22.234168573589855 L 147.04922478223017,22.234168573589855 L 147.04922478223017,22.234168573589855 L 147.04922478223017,22.234168573589855 L 147.04922478223017,22.234168573589855 L 147.04922478223017,22.234168573589855 L 147.04922478223017,22.234168573589855 L 210.8630393103678,210.9010984828663 L 194.0637205695555,228.03153202441504 L 175.73442309430587,251.4531467799562 L 156.81140252808055,279.4418622353104 L 138.2309145143412,310.27359787629825 L 120.92921469654945,342.22427318874026 L 105.84255871816707,373.569807658457 L 93.9072022226557,402.58612077126924 L 86.05940085347696,427.5491320129973 L 83.23541025409256,446.73476086946187 L 83.23541025409256,446.73476086946187 L 84.45901264991745,461.4256014538605 L 88.09176066489376,474.0384112198442 L 94.07656554027373,484.5503546639138 L 102.3563385173098,492.9385962825704 L 112.87399083725424,499.1803005723149 L 125.57243374135936,503.2526320296482 L 140.3945784708776,505.1327551510712 L 157.28333626706117,504.7978344330849 L 176.18161837116259,502.22503437219024 L 176.18161837116259,502.22503437219024 L 218.25413060956518,487.3248683390502 L 255.04022378793434,461.12112807387297 L 285.56938900755955,426.3883272517948 L 308.87111736973065,385.90097954795226 L 323.97489997573734,342.4335986374817 L 329.91022792686925,298.7606981955196 L 325.7065923244164,257.6567918972023 L 310.3934842696683,221.89639341766627 L 283.00039486391466,194.25401643204782 L 283.00039486391466,194.25401643204782 L 274.81767277674965,189.390054186747 L 267.5826240847959,185.96472866188708 L 260.90704522856913,184.0807996232142 L 254.40273264858547,183.8410268364741 L 247.6814827853606,185.34817006741233 L 240.35509207941044,188.70498908177498 L 232.03535697125108,194.0142436453076 L 222.3340739013982,201.3786935237561 L 210.8630393103678,210.9010984828663 L 210.8630393103678,210.9010984828663 L 210.8630393103678,210.9010984828663 L 210.8630393103678,210.9010984828663 L 210.8630393103678,210.9010984828663 L 210.8630393103678,210.9010984828663 L 210.8630393103678,210.9010984828663 L 210.8630393103678,210.9010984828663 L 210.8630393103678,210.9010984828663 L 210.8630393103678,210.9010984828663 L 210.8630393103678,210.9010984828663 L 269.1278264882326,314.945361300482 L 269.1278264882326,314.945361300482 L 269.1278264882326,314.945361300482 L 269.1278264882326,314.945361300482 L 269.1278264882326,314.945361300482 L 269.1278264882326,314.945361300482 L 269.1278264882326,314.945361300482 L 269.1278264882326,314.945361300482 L 269.1278264882326,314.945361300482 L 269.1278264882326,314.945361300482 L 269.1278264882326,314.945361300482 L 268.37996374863815,330.10813562386136 L 266.94703590407187,343.45548741906487 L 264.65777667829065,355.32994923857876 L 261.34091979505143,366.07405363488897 L 256.82519897811125,376.03033316048135 L 250.93934795122715,385.54132036784205 L 243.51210043815624,394.9495478094569 L 234.37219016265541,404.5975480378119 L 223.3483508484817,414.82785360539305 L 223.3483508484817,414.82785360539305 L 207.2930889300139,428.18281723509637 L 192.5280329592434,438.6376719204184 L 179.21303146066347,446.16958215786 L 167.50793295876767,450.7557124439223 L 157.57258597804937,452.373227275106 L 149.56683904300212,450.9992911479123 L 143.65054067811934,446.611068558842 L 139.98353940789445,439.1857240043959 L 138.72568375682093,428.7004219810751 L 138.72568375682093,428.7004219810751 L 142.08250277118347,412.8354559250997 L 151.19386866731048,390.7706506691279 L 164.62114472476085,364.7324678043189 L 180.92569422309336,336.9473689218313 L 198.66888044186703,309.64181561282413 L 216.41206666064065,285.0422694684562 L 232.71661615897312,265.37519207988635 L 246.14389221642344,252.86704503827337 L 255.2552581125505,249.7442899347762 L 255.2552581125505,249.7442899347762 L 257.9688771116893,251.61489826307462 L 260.52264758633487,255.25525811255056 L 262.85948077773924,260.4826854552115 L 264.9222879271548,267.1144962630651 L 266.65398027583393,274.96800650811855 L 267.99746906502884,283.86053216237957 L 268.8956655359921,293.6093891978555 L 269.2914809299759,304.03189358655385 L 269.1278264882326,314.945361300482 L 269.1278264882326,314.945361300482 L 269.1278264882326,314.945361300482 L 269.1278264882326,314.945361300482 L 269.1278264882326,314.945361300482 L 269.1278264882326,314.945361300482 L 269.1278264882326,314.945361300482 L 269.1278264882326,314.945361300482 L 269.1278264882326,314.945361300482 L 269.1278264882326,314.945361300482 L 269.1278264882326,314.945361300482"/></svg>
