<?xml version="1.0" encoding="utf-8"?>
<svg xmlns="http://www.w3.org/2000/svg"  viewBox="0,0,400,621.0856025057906" width="100%">
<path d="M234.46421928066536 14.80312503750295 L 234.46421928066536,14.80312503750295 L 229.53064432896892,21.623243366496055 L 226.36120345146233,28.018529408235157 L 224.9054928174542,33.888175501338175 L 225.1131085962533,39.13137398442293 L 226.93364695716875,43.64731719610704 L 230.31670406950929,47.33519747500823 L 235.21187610258386,50.09420715974423 L 241.56875922570114,51.823538588932934 L 249.33694960817024,52.42238410119179 L 249.33694960817024,52.42238410119179 L 256.61430268700417,51.41190730495551 L 263.6828398958321,48.61569479280447 L 270.2689404394734,44.386573379576916 L 276.09898352274774,39.07736988011096 L 280.8993483504746,33.040911109244355 L 284.39641412747363,26.630023881815184 L 286.31656005856445,20.19753501266112 L 286.38616534856646,14.096271316620253 L 284.3316092022994,8.679059608530348 L 284.3316092022994,8.679059608530348 L 280.77813913857443,4.655153791688491 L 276.1229853468863,1.8913437421245254 L 270.62536752793216,0.3516267236311321 L 264.5445053824091,0.0 L 258.13961861101444,0.8004608350236125 L 251.66992691444548,2.717006492493658 L 245.3946499933995,5.713634236202023 L 239.5730075485737,9.754341329941191 L 234.46421928066536,14.80312503750295 L 234.46421928066536,14.80312503750295 L 234.46421928066536,14.80312503750295 L 234.46421928066536,14.80312503750295 L 234.46421928066536,14.80312503750295 L 234.46421928066536,14.80312503750295 L 234.46421928066536,14.80312503750295 L 234.46421928066536,14.80312503750295 L 234.46421928066536,14.80312503750295 L 234.46421928066536,14.80312503750295 L 234.46421928066536,14.80312503750295"/></svg>
