<?xml version="1.0" encoding="utf-8"?>
<svg xmlns="http://www.w3.org/2000/svg"  viewBox="0,0,400,621.0856025057906" width="100%">
<path d="M234.46421928066536 14.80312503750295 L 234.46421928066536,14.80312503750295 L 229.53064432896892,21.623243366496055 L 226.36120345146233,28.018529408235157 L 224.9054928174542,33.888175501338175 L 225.1131085962533,39.13137398442293 L 226.93364695716875,43.64731719610704 L 230.31670406950929,47.33519747500823 L 235.21187610258386,50.09420715974423 L 241.56875922570114,51.823538588932934 L 249.33694960817024,52.42238410119179 L 249.33694960817024,52.42238410119179 L 256.61430268700417,51.41190730495551 L 263.6828398958321,48.61569479280447 L 270.2689404394734,44.386573379576916 L 276.09898352274774,39.07736988011096 L 280.8993483504746,33.040911109244355 L 284.39641412747363,26.630023881815184 L 286.31656005856445,20.19753501266112 L 286.38616534856646,14.096271316620253 L 284.3316092022994,8.679059608530348 L 284.3316092022994,8.679059608530348 L 280.77813913857443,4.655153791688491 L 276.1229853468863,1.8913437421245254 L 270.62536752793216,0.3516267236311321 L 264.5445053824091,0.0 L 258.13961861101444,0.8004608350236125 L 251.66992691444548,2.717006492493658 L 245.3946499933995,5.713634236202023 L 239.5730075485737,9.754341329941191 L 234.46421928066536,14.80312503750295 L 234.46421928066536,14.80312503750295 L 234.46421928066536,14.80312503750295 L 234.46421928066536,14.80312503750295 L 234.46421928066536,14.80312503750295 L 234.46421928066536,14.80312503750295 L 234.46421928066536,14.80312503750295 L 234.46421928066536,14.80312503750295 L 234.46421928066536,14.80312503750295 L 234.46421928066536,14.80312503750295 L 234.46421928066536,14.80312503750295M240.58828470963795 152.1571639444599 L 234.46421928066536,14.80312503750295 L 229.53064432896892,21.623243366496055 L 226.36120345146233,28.018529408235157 L 224.9054928174542,33.888175501338175 L 225.1131085962533,39.13137398442293 L 226.93364695716875,43.64731719610704 L 230.31670406950929,47.33519747500823 L 235.21187610258386,50.09420715974423 L 241.56875922570114,51.823538588932934 L 249.33694960817024,52.42238410119179 L 249.33694960817024,52.42238410119179 L 256.61430268700417,51.41190730495551 L 263.6828398958321,48.61569479280447 L 270.2689404394734,44.386573379576916 L 276.09898352274774,39.07736988011096 L 280.8993483504746,33.040911109244355 L 284.39641412747363,26.630023881815184 L 286.31656005856445,20.19753501266112 L 286.38616534856646,14.096271316620253 L 284.3316092022994,8.679059608530348 L 284.3316092022994,8.679059608530348 L 280.77813913857443,4.655153791688491 L 276.1229853468863,1.8913437421245254 L 270.62536752793216,0.3516267236311321 L 264.5445053824091,0.0 L 258.13961861101444,0.8004608350236125 L 251.66992691444548,2.717006492493658 L 245.3946499933995,5.713634236202023 L 239.5730075485737,9.754341329941191 L 234.46421928066536,14.80312503750295 L 234.46421928066536,14.80312503750295 L 234.46421928066536,14.80312503750295 L 234.46421928066536,14.80312503750295 L 234.46421928066536,14.80312503750295 L 234.46421928066536,14.80312503750295 L 234.46421928066536,14.80312503750295 L 234.46421928066536,14.80312503750295 L 234.46421928066536,14.80312503750295 L 234.46421928066536,14.80312503750295 L 234.46421928066536,14.80312503750295 L 240.58828470963795,152.1571639444599 L 226.62642360819422,160.00816062020732 L 210.3531868422,172.4531064360892 L 192.56783515547184,188.57753189242393 L 174.0696292918262,207.4669674895293 L 155.65782999507965,228.20694372772343 L 138.1316980090487,249.8829911073243 L 122.29049407754994,271.5806401286498 L 108.93347894439978,292.3854212920183 L 98.85991335341487,311.3828650977475 L 98.85991335341487,311.3828650977475 L 83.57315155951851,350.66185030062303 L 74.93969541685169,386.61418267788366 L 72.80833343334095,418.8942359619332 L 77.02785411691289,447.1563838851754 L 87.44704597549415,471.0550001800138 L 103.91469751701129,490.2444585788521 L 126.27959724939092,504.379132814094 L 154.3905336805597,513.113396618143 L 188.09629531844422,516.1016237234031 L 188.09629531844422,516.1016237234031 L 210.09876750633043,514.5343046071503 L 231.6548057652382,509.91395346046306 L 252.5771958668859,502.3629795864487 L 272.6787235829923,492.003792288214 L 291.77217468527607,478.95880086886615 L 309.67033494545586,463.35041463151214 L 326.18599013525034,445.301042879259 L 341.13192602637804,424.9330949152137 L 354.3209283905577,402.3689800424834 L 354.3209283905577,402.3689800424834 L 360.7522171685048,388.4443217684546 L 366.5642588836753,373.20916389645623 L 371.6562458746866,357.1027398082255 L 375.9273704801565,340.5642828854994 L 379.276825038703,324.0330265100149 L 381.60380188894356,307.948204063509 L 382.8074933694961,292.7490489277186 L 382.78709181897835,278.87479448438097 L 381.4417895760078,266.7646741152329 L 381.4417895760078,266.7646741152329 L 378.03833091314937,254.23692200607266 L 372.74832887299436,241.45715074345665 L 365.9534124593469,228.88619535084672 L 358.03521067601145,216.9848908517048 L 349.3753525267921,206.21407226949256 L 340.35546701549316,197.03457462767184 L 331.3571831459191,189.9072329497043 L 322.7621299218741,185.29288225905185 L 314.9519363471624,183.6523575791761 L 314.9519363471624,183.6523575791761 L 311.5844804205119,183.39553806089285 L 308.490645289042,182.634680235698 L 305.68483204723566,181.3841851980751 L 303.18144178957596,179.65845404250737 L 300.99487561054644,177.47188786347772 L 299.13953460462994,174.83888775546956 L 297.6298198663099,171.7738548129659 L 296.48013249006925,168.29119013045002 L 295.7048735703914,164.4052948024051 L 295.7048735703914,164.4052948024051 L 294.0451474312048,157.01513315011968 L 291.37014413095403,151.1658886075343 L 287.63666038618936,146.84316008016617 L 282.80149291346146,144.03254647353208 L 276.82143842932066,142.71964669314877 L 269.65329365031744,142.8900596445331 L 261.25385529300223,144.5293842332018 L 251.57992007392565,147.62321936467183 L 240.58828470963795,152.1571639444599 L 240.58828470963795,152.1571639444599 L 240.58828470963795,152.1571639444599 L 240.58828470963795,152.1571639444599 L 240.58828470963795,152.1571639444599 L 240.58828470963795,152.1571639444599 L 240.58828470963795,152.1571639444599 L 240.58828470963795,152.1571639444599 L 240.58828470963795,152.1571639444599 L 240.58828470963795,152.1571639444599 L 240.58828470963795,152.1571639444599 L 262.4599469559687,187.15182353858907 L 262.4599469559687,187.15182353858907 L 262.4599469559687,187.15182353858907 L 262.4599469559687,187.15182353858907 L 262.4599469559687,187.15182353858907 L 262.4599469559687,187.15182353858907 L 262.4599469559687,187.15182353858907 L 262.4599469559687,187.15182353858907 L 262.4599469559687,187.15182353858907 L 262.4599469559687,187.15182353858907 L 262.4599469559687,187.15182353858907 L 262.23913017389316,187.82627479688472 L 261.60068165180553,188.6591380944953 L 260.5806041259136,189.6144106952129 L 259.2149003324254,190.65608986282973 L 257.5395730075486,191.74817286113748 L 255.59062488749146,192.85465695392867 L 253.4040587084619,193.93953940499492 L 251.0158772066677,194.96681747812846 L 248.462083118317,195.90048843712134 L 248.462083118317,195.90048843712134 L 246.26231593601113,196.64454498541903 L 244.34337009612733,197.12218128577777 L 242.7268472403903,197.32619679095617 L 241.4343490105248,197.24939095371255 L 240.48747704825573,196.8845632268053 L 239.90783299530767,196.2245130629929 L 239.71701849340548,195.26203991503363 L 239.93663518427402,193.9899432356861 L 240.58828470963795,192.4010224777084 L 240.58828470963795,192.4010224777084 L 242.72084678435564,189.68641616762895 L 245.4654553746085,187.40384269204472 L 248.59169296866563,185.5965053344055 L 251.86914205479616,184.30760737816084 L 255.06738512126927,183.5803521067602 L 257.95600465635385,183.45794280365322 L 260.3045831483193,183.98358275228927 L 261.8827030854345,185.20047523611802 L 262.4599469559687,187.15182353858907 L 262.4599469559687,187.15182353858907 L 262.4599469559687,187.15182353858907 L 262.4599469559687,187.15182353858907 L 262.4599469559687,187.15182353858907 L 262.4599469559687,187.15182353858907 L 262.4599469559687,187.15182353858907 L 262.4599469559687,187.15182353858907 L 262.4599469559687,187.15182353858907 L 262.4599469559687,187.15182353858907 L 262.4599469559687,187.15182353858907 L 331.57439965437374,232.64488101095694 L 331.57439965437374,232.64488101095694 L 331.57439965437374,232.64488101095694 L 331.57439965437374,232.64488101095694 L 331.57439965437374,232.64488101095694 L 331.57439965437374,232.64488101095694 L 331.57439965437374,232.64488101095694 L 331.57439965437374,232.64488101095694 L 331.57439965437374,232.64488101095694 L 331.57439965437374,232.64488101095694 L 331.57439965437374,232.64488101095694 L 343.7217228509367,255.15019141454763 L 349.042927262472,282.0406350882668 L 348.09965557382367,311.86890203655486 L 341.45355046983576,343.1876822638522 L 329.6662546353524,374.54966577459896 L 313.2994107552174,404.5075425732357 L 292.91466151427517,431.61400266420253 L 269.0736495973694,454.42173605194006 L 242.3380176893444,471.4834327408885 L 242.3380176893444,471.4834327408885 L 227.3344774202839,478.4511622883341 L 214.13827450886268,483.6115544781405 L 202.35337885679314,486.97180985754926 L 191.5837603657878,488.53912897380206 L 181.43338893755924,488.32071237414056 L 171.50623447382,486.3237606058062 L 161.4062668762826,482.5554742160405 L 150.73745604665956,477.0230537520853 L 139.1037718866634,469.733699761182 L 139.1037718866634,469.733699761182 L 131.8300190814502,464.65011340861923 L 125.69395274040829,459.78254347330414 L 120.60196574939695,454.95817682143854 L 116.46045099427559,450.0042003192243 L 113.17580136090344,444.7478008328634 L 110.65440973513988,439.0161652285575 L 108.8026690028442,432.6364803725084 L 107.52697204987581,425.4359331309181 L 106.73371176209393,417.24171036998825 L 106.73371176209393,417.24171036998825 L 106.51289498001847,401.1532876498616 L 108.66105824042627,384.5752277173066 L 113.0197895040023,367.79555246198726 L 119.43067673143162,351.1022837735669 L 127.73530788339914,334.7834435417093 L 137.77527092058995,319.127053656078 L 149.3921538036891,304.4211360063366 L 162.4275444933815,290.9537124821488 L 176.72303095035224,279.0128049731781 L 176.72303095035224,279.0128049731781 L 189.74882091038916,269.9605169992921 L 205.43161280257306,260.0585644508984 L 222.79933274928896,249.8181861821499 L 240.87990687292236,239.7506210471997 L 258.7012612958585,230.36710790020052 L 275.2913221404827,222.1788855953054 L 289.67801552918024,215.69719298666712 L 300.8892675843364,211.4332689284387 L 307.95300442833656,209.89835227477298 L 307.95300442833656,209.89835227477298 L 309.367911961309,210.27518091374958 L 311.23645397050177,211.35766318240195 L 313.49382553074037,213.0737936083143 L 316.0752217168505,215.35156671907072 L 318.9158376036579,218.11897704225532 L 321.95086826598816,221.30401910545214 L 325.1155087786672,224.8346874362453 L 328.3449542165205,228.63897656221883 L 331.57439965437374,232.64488101095694 L 331.57439965437374,232.64488101095694 L 331.57439965437374,232.64488101095694 L 331.57439965437374,232.64488101095694 L 331.57439965437374,232.64488101095694 L 331.57439965437374,232.64488101095694 L 331.57439965437374,232.64488101095694 L 331.57439965437374,232.64488101095694 L 331.57439965437374,232.64488101095694 L 331.57439965437374,232.64488101095694 L 331.57439965437374,232.64488101095694"/></svg>
