<?xml version="1.0" standalone="no"?>
<!DOCTYPE svg PUBLIC "-//W3C//DTD SVG 20010904//EN"
 "http://www.w3.org/TR/2001/REC-SVG-20010904/DTD/svg10.dtd">
<svg version="1.0" xmlns="http://www.w3.org/2000/svg"
 width="30.000000pt" height="66.000000pt" viewBox="0 0 30.000000 66.000000"
 preserveAspectRatio="xMidYMid meet">
<metadata>
Created by potrace 1.10, written by Peter Selinger 2001-2011
</metadata>
<g transform="translate(0.000000,66.000000) scale(0.100000,-0.100000)"
fill="#000000" stroke="none">
<path d="M115 578 c-28 -16 -35 -28 -35 -65 0 -36 21 -53 67 -53 41 0 73 26
73 58 0 33 -8 45 -37 61 -27 14 -42 14 -68 -1z m55 -43 c16 -19 4 -35 -26 -35
-38 0 -31 44 7 49 4 1 12 -6 19 -14z"/>
<path d="M107 398 c-58 -79 -86 -242 -53 -307 15 -28 21 -32 53 -29 32 3 39 9
57 45 12 23 23 42 26 43 3 0 10 -10 15 -23 12 -26 65 -38 65 -13 0 8 -7 19
-16 24 -19 11 -32 78 -33 163 -1 68 -24 99 -41 54 -5 -14 -10 -41 -10 -58 0
-42 -26 -152 -42 -177 -32 -51 -54 -4 -44 92 7 73 38 146 72 174 15 12 23 27
20 33 -13 21 -45 11 -69 -21z"/>
</g>
</svg>
