<?xml version="1.0" standalone="no"?>
<!DOCTYPE svg PUBLIC "-//W3C//DTD SVG 20010904//EN"
 "http://www.w3.org/TR/2001/REC-SVG-20010904/DTD/svg10.dtd">
<svg version="1.0" xmlns="http://www.w3.org/2000/svg"
 width="38.000000pt" height="49.000000pt" viewBox="0 0 38.000000 49.000000"
 preserveAspectRatio="xMidYMid meet">
<metadata>
Created by potrace 1.10, written by Peter Selinger 2001-2011
</metadata>
<g transform="translate(0.000000,49.000000) scale(0.100000,-0.100000)"
fill="#000000" stroke="none">
<path d="M277 394 c-14 -15 -6 -34 14 -34 14 0 19 5 17 17 -3 18 -20 27 -31
17z"/>
<path d="M200 375 c0 -10 7 -15 18 -13 21 4 19 22 -2 26 -10 2 -16 -3 -16 -13z"/>
<path d="M203 313 c-7 -2 -33 -34 -58 -69 -40 -58 -45 -71 -45 -119 0 -53 16
-85 43 -85 28 1 94 49 134 98 61 75 58 133 -8 166 -33 16 -45 18 -66 9z m77
-58 c6 -8 8 -25 4 -42 -9 -36 -108 -133 -136 -133 -18 0 -19 4 -13 37 15 81
77 166 114 156 11 -3 25 -11 31 -18z"/>
</g>
</svg>
