<?xml version="1.0" standalone="no"?>
<!DOCTYPE svg PUBLIC "-//W3C//DTD SVG 20010904//EN"
 "http://www.w3.org/TR/2001/REC-SVG-20010904/DTD/svg10.dtd">
<svg version="1.0" xmlns="http://www.w3.org/2000/svg"
 width="35.000000pt" height="47.000000pt" viewBox="0 0 35.000000 47.000000"
 preserveAspectRatio="xMidYMid meet">
<metadata>
Created by potrace 1.10, written by Peter Selinger 2001-2011
</metadata>
<g transform="translate(0.000000,47.000000) scale(0.100000,-0.100000)"
fill="#000000" stroke="none">
<path d="M232 409 c-29 -11 -37 -34 -24 -65 8 -15 20 -24 35 -24 31 0 47 18
47 52 0 33 -25 49 -58 37z m15 -46 c-4 -3 -7 0 -7 7 0 7 3 10 7 7 3 -4 3 -10
0 -14z"/>
<path d="M183 271 c-40 -29 -101 -98 -122 -138 -6 -12 -11 -33 -11 -48 0 -50
53 -46 115 9 l40 34 11 -31 c15 -44 52 -56 99 -34 23 11 35 24 35 37 0 19 -1
20 -30 5 -16 -8 -38 -15 -50 -15 -16 0 -20 6 -20 35 0 19 10 54 21 78 44 90
-5 128 -88 68z m41 -62 c-45 -65 -144 -143 -144 -113 0 18 69 101 113 135 59
47 72 37 31 -22z"/>
</g>
</svg>
