<?xml version="1.0" standalone="no"?>
<!DOCTYPE svg PUBLIC "-//W3C//DTD SVG 20010904//EN"
 "http://www.w3.org/TR/2001/REC-SVG-20010904/DTD/svg10.dtd">
<svg version="1.0" xmlns="http://www.w3.org/2000/svg"
 width="44.000000pt" height="70.000000pt" viewBox="0 0 44.000000 70.000000"
 preserveAspectRatio="xMidYMid meet">
<metadata>
Created by potrace 1.10, written by Peter Selinger 2001-2011
</metadata>
<g transform="translate(0.000000,70.000000) scale(0.100000,-0.100000)"
fill="#000000" stroke="none">
<path d="M97 626 c-6 -16 11 -36 30 -36 7 0 13 11 13 25 0 18 -5 25 -19 25
-10 0 -21 -6 -24 -14z"/>
<path d="M244 625 c-8 -19 12 -36 33 -28 19 7 12 37 -10 41 -9 2 -20 -4 -23
-13z"/>
<path d="M179 523 c-9 -25 -81 -353 -96 -441 -4 -25 -2 -32 10 -32 17 0 26 26
52 150 27 132 19 120 79 120 l54 0 48 -130 c37 -99 53 -130 66 -130 10 0 18 3
18 6 0 12 -143 390 -163 429 -31 62 -52 70 -68 28z m57 -100 c20 -44 22 -58
12 -64 -22 -14 -68 -10 -68 5 0 20 23 116 27 116 2 0 15 -25 29 -57z"/>
</g>
</svg>
