<?xml version="1.0" standalone="no"?>
<!DOCTYPE svg PUBLIC "-//W3C//DTD SVG 20010904//EN"
 "http://www.w3.org/TR/2001/REC-SVG-20010904/DTD/svg10.dtd">
<svg version="1.0" xmlns="http://www.w3.org/2000/svg"
 width="50.000000pt" height="75.000000pt" viewBox="0 0 50.000000 75.000000"
 preserveAspectRatio="xMidYMid meet">
<metadata>
Created by potrace 1.10, written by Peter Selinger 2001-2011
</metadata>
<g transform="translate(0.000000,75.000000) scale(0.100000,-0.100000)"
fill="#000000" stroke="none">
<path d="M396 665 c-21 -22 -20 -48 3 -69 26 -23 59 -13 67 21 13 49 -36 82
-70 48z m31 -42 c-4 -3 -7 0 -7 7 0 7 3 10 7 7 3 -4 3 -10 0 -14z"/>
<path d="M370 528 c-11 -24 -20 -55 -20 -70 0 -41 -16 -74 -66 -140 -44 -57
-48 -59 -87 -56 -44 3 -66 -19 -28 -29 12 -3 21 -9 21 -13 0 -11 -57 -60 -115
-100 -34 -23 -44 -35 -36 -43 17 -17 70 14 144 82 64 60 101 75 133 53 6 -4
15 -43 20 -86 6 -50 14 -81 22 -84 10 -3 13 15 11 84 -2 76 0 89 15 92 20 4
21 32 1 32 -28 0 -20 111 15 190 36 83 40 130 10 130 -15 0 -27 -13 -40 -42z
m-38 -243 c-4 -29 -8 -35 -29 -35 -17 0 -22 4 -16 13 44 68 51 72 45 22z"/>
</g>
</svg>
