<?xml version="1.0" standalone="no"?>
<!DOCTYPE svg PUBLIC "-//W3C//DTD SVG 20010904//EN"
 "http://www.w3.org/TR/2001/REC-SVG-20010904/DTD/svg10.dtd">
<svg version="1.0" xmlns="http://www.w3.org/2000/svg"
 width="28.000000pt" height="63.000000pt" viewBox="0 0 28.000000 63.000000"
 preserveAspectRatio="xMidYMid meet">
<metadata>
Created by potrace 1.10, written by Peter Selinger 2001-2011
</metadata>
<g transform="translate(0.000000,63.000000) scale(0.100000,-0.100000)"
fill="#000000" stroke="none">
<path d="M97 540 c-51 -41 -24 -110 43 -110 41 0 70 26 70 64 0 38 -14 53 -56
62 -21 4 -37 0 -57 -16z m62 -29 c19 -12 6 -41 -18 -41 -26 0 -36 17 -21 35
14 17 20 18 39 6z"/>
<path d="M105 374 c-57 -61 -92 -234 -62 -305 27 -64 84 -57 119 16 l22 45 13
-31 c10 -25 18 -30 40 -27 32 4 42 24 15 33 -24 7 -29 25 -38 142 -5 65 -11
94 -21 97 -17 7 -16 7 -37 -117 -17 -105 -38 -157 -61 -157 -53 0 -9 247 51
286 13 9 24 23 24 30 0 23 -39 16 -65 -12z"/>
</g>
</svg>
