<?xml version="1.0" standalone="no"?>
<!DOCTYPE svg PUBLIC "-//W3C//DTD SVG 20010904//EN"
 "http://www.w3.org/TR/2001/REC-SVG-20010904/DTD/svg10.dtd">
<svg version="1.0" xmlns="http://www.w3.org/2000/svg"
 width="40.000000pt" height="57.000000pt" viewBox="0 0 40.000000 57.000000"
 preserveAspectRatio="xMidYMid meet">
<metadata>
Created by potrace 1.10, written by Peter Selinger 2001-2011
</metadata>
<g transform="translate(0.000000,57.000000) scale(0.100000,-0.100000)"
fill="#000000" stroke="none">
<path d="M146 401 c-22 -24 -15 -51 12 -51 25 0 45 24 40 47 -5 25 -31 27 -52
4z"/>
<path d="M280 402 c-15 -12 -21 -25 -17 -35 14 -36 73 -9 65 29 -5 25 -22 27
-48 6z"/>
<path d="M174 248 c-33 -40 -74 -125 -74 -154 0 -32 24 -47 64 -40 48 9 82 39
102 91 40 105 -27 179 -92 103z m60 -58 c-1 -35 -7 -49 -33 -72 -36 -32 -61
-36 -61 -10 0 26 70 134 84 129 6 -2 11 -23 10 -47z"/>
</g>
</svg>
