<?xml version="1.0" standalone="no"?>
<!DOCTYPE svg PUBLIC "-//W3C//DTD SVG 20010904//EN"
 "http://www.w3.org/TR/2001/REC-SVG-20010904/DTD/svg10.dtd">
<svg version="1.0" xmlns="http://www.w3.org/2000/svg"
 width="30.000000pt" height="60.000000pt" viewBox="0 0 30.000000 60.000000"
 preserveAspectRatio="xMidYMid meet">
<metadata>
Created by potrace 1.10, written by Peter Selinger 2001-2011
</metadata>
<g transform="translate(0.000000,60.000000) scale(0.100000,-0.100000)"
fill="#000000" stroke="none">
<path d="M190 515 c-16 -19 3 -45 31 -45 22 0 26 29 7 48 -16 16 -23 15 -38
-3z"/>
<path d="M55 500 c-10 -17 6 -51 22 -48 26 5 41 37 23 48 -20 13 -37 13 -45 0z"/>
<path d="M104 396 c-47 -21 -47 -20 -60 -174 -11 -126 34 -202 121 -202 84 0
130 74 123 197 -7 138 -92 220 -184 179z m115 -100 c33 -65 34 -137 3 -188
-57 -93 -132 -35 -132 101 0 75 15 111 47 111 14 0 23 6 23 16 0 31 34 8 59
-40z"/>
</g>
</svg>
