<?xml version="1.0" standalone="no"?>
<!DOCTYPE svg PUBLIC "-//W3C//DTD SVG 20010904//EN"
 "http://www.w3.org/TR/2001/REC-SVG-20010904/DTD/svg10.dtd">
<svg version="1.0" xmlns="http://www.w3.org/2000/svg"
 width="30.000000pt" height="49.000000pt" viewBox="0 0 30.000000 49.000000"
 preserveAspectRatio="xMidYMid meet">
<metadata>
Created by potrace 1.10, written by Peter Selinger 2001-2011
</metadata>
<g transform="translate(0.000000,49.000000) scale(0.100000,-0.100000)"
fill="#000000" stroke="none">
<path d="M95 390 c-21 -23 -13 -50 14 -50 23 0 45 34 37 56 -8 20 -30 17 -51
-6z"/>
<path d="M225 390 c-21 -23 -13 -50 14 -50 23 0 45 34 37 56 -8 20 -30 17 -51
-6z"/>
<path d="M154 270 c-21 -8 -84 -97 -84 -118 0 -7 -4 -12 -10 -12 -5 0 -10 -20
-10 -44 0 -36 4 -46 20 -51 36 -11 78 5 114 46 31 34 36 46 36 90 0 76 -22
105 -66 89z m32 -65 c12 -49 -41 -125 -87 -125 -18 0 -18 2 -4 38 21 49 63
112 75 112 5 0 12 -11 16 -25z"/>
</g>
</svg>
