<?xml version="1.0" standalone="no"?>
<!DOCTYPE svg PUBLIC "-//W3C//DTD SVG 20010904//EN"
 "http://www.w3.org/TR/2001/REC-SVG-20010904/DTD/svg10.dtd">
<svg version="1.0" xmlns="http://www.w3.org/2000/svg"
 width="37.000000pt" height="54.000000pt" viewBox="0 0 37.000000 54.000000"
 preserveAspectRatio="xMidYMid meet">
<metadata>
Created by potrace 1.10, written by Peter Selinger 2001-2011
</metadata>
<g transform="translate(0.000000,54.000000) scale(0.100000,-0.100000)"
fill="#000000" stroke="none">
<path d="M152 428 c-21 -21 -14 -48 13 -48 25 0 51 32 40 50 -8 14 -39 12 -53
-2z"/>
<path d="M282 404 c-26 -18 -29 -39 -6 -48 21 -8 50 9 57 33 9 34 -14 41 -51
15z"/>
<path d="M151 293 c-50 -24 -105 -98 -105 -140 0 -56 44 -69 114 -33 l40 20 0
-23 c0 -37 28 -69 58 -65 38 4 43 38 6 38 l-27 0 7 74 c5 60 4 77 -9 89 -8 9
-15 20 -15 26 0 23 -35 30 -69 14z m40 -63 c21 0 7 -31 -28 -59 -38 -31 -83
-41 -83 -18 0 19 35 67 67 93 27 21 28 22 31 3 2 -10 8 -19 13 -19z"/>
</g>
</svg>
