<?xml version="1.0" standalone="no"?>
<!DOCTYPE svg PUBLIC "-//W3C//DTD SVG 20010904//EN"
 "http://www.w3.org/TR/2001/REC-SVG-20010904/DTD/svg10.dtd">
<svg version="1.0" xmlns="http://www.w3.org/2000/svg"
 width="35.000000pt" height="56.000000pt" viewBox="0 0 35.000000 56.000000"
 preserveAspectRatio="xMidYMid meet">
<metadata>
Created by potrace 1.10, written by Peter Selinger 2001-2011
</metadata>
<g transform="translate(0.000000,56.000000) scale(0.100000,-0.100000)"
fill="#000000" stroke="none">
<path d="M105 450 c-9 -15 14 -40 36 -40 23 0 26 35 3 44 -22 9 -32 7 -39 -4z"/>
<path d="M237 446 c-6 -16 11 -36 30 -36 7 0 13 11 13 25 0 18 -5 25 -19 25
-10 0 -21 -6 -24 -14z"/>
<path d="M148 323 c-49 -20 -52 -48 -5 -39 108 22 113 20 124 -60 l6 -48 -27
21 c-35 28 -79 37 -105 23 -45 -24 -65 -105 -36 -147 21 -30 97 -57 137 -49
55 11 68 31 68 107 0 76 -15 158 -33 184 -17 23 -84 27 -129 8z m76 -158 c29
-27 50 -71 42 -92 -8 -19 -72 -16 -107 4 -34 20 -40 65 -12 95 22 25 45 23 77
-7z"/>
</g>
</svg>
