<?xml version="1.0" standalone="no"?>
<!DOCTYPE svg PUBLIC "-//W3C//DTD SVG 20010904//EN"
 "http://www.w3.org/TR/2001/REC-SVG-20010904/DTD/svg10.dtd">
<svg version="1.0" xmlns="http://www.w3.org/2000/svg"
 width="34.000000pt" height="54.000000pt" viewBox="0 0 34.000000 54.000000"
 preserveAspectRatio="xMidYMid meet">
<metadata>
Created by potrace 1.10, written by Peter Selinger 2001-2011
</metadata>
<g transform="translate(0.000000,54.000000) scale(0.100000,-0.100000)"
fill="#000000" stroke="none">
<path d="M222 498 c-18 -18 -14 -36 8 -43 24 -7 40 1 40 20 0 21 -34 37 -48
23z"/>
<path d="M84 475 c-16 -41 27 -60 50 -22 8 14 8 20 -4 27 -22 14 -40 12 -46
-5z"/>
<path d="M133 375 c-44 -19 -54 -44 -60 -154 -6 -110 4 -155 44 -195 20 -21
35 -26 74 -26 40 0 52 5 78 31 85 84 56 303 -45 345 -41 17 -50 17 -91 -1z
m117 -106 c52 -122 -11 -269 -90 -210 -38 27 -56 111 -38 182 11 44 17 55 37
57 13 2 26 12 28 23 8 31 37 6 63 -52z"/>
</g>
</svg>
