<?xml version="1.0" standalone="no"?>
<!DOCTYPE svg PUBLIC "-//W3C//DTD SVG 20010904//EN"
 "http://www.w3.org/TR/2001/REC-SVG-20010904/DTD/svg10.dtd">
<svg version="1.0" xmlns="http://www.w3.org/2000/svg"
 width="50.000000pt" height="73.000000pt" viewBox="0 0 50.000000 73.000000"
 preserveAspectRatio="xMidYMid meet">
<metadata>
Created by potrace 1.10, written by Peter Selinger 2001-2011
</metadata>
<g transform="translate(0.000000,73.000000) scale(0.100000,-0.100000)"
fill="#000000" stroke="none">
<path d="M102 647 c-24 -29 17 -81 48 -62 16 10 12 62 -6 69 -23 9 -30 8 -42
-7z"/>
<path d="M297 638 c-32 -17 -14 -68 24 -68 20 0 32 25 24 50 -7 23 -27 30 -48
18z"/>
<path d="M195 466 c-82 -36 -145 -168 -145 -302 0 -75 21 -107 68 -107 48 0
78 27 116 105 20 40 36 64 36 53 1 -34 37 -103 64 -120 48 -32 136 15 136 72
0 33 -25 29 -59 -9 -58 -65 -92 -4 -99 177 -2 66 -7 123 -11 127 -14 15 -77
17 -106 4z m52 -93 c-11 -122 -104 -299 -139 -265 -19 19 -13 107 11 176 30
86 78 142 125 145 5 1 6 -25 3 -56z"/>
</g>
</svg>
