<?xml version="1.0" standalone="no"?>
<!DOCTYPE svg PUBLIC "-//W3C//DTD SVG 20010904//EN"
 "http://www.w3.org/TR/2001/REC-SVG-20010904/DTD/svg10.dtd">
<svg version="1.0" xmlns="http://www.w3.org/2000/svg"
 width="50.000000pt" height="66.000000pt" viewBox="0 0 50.000000 66.000000"
 preserveAspectRatio="xMidYMid meet">
<metadata>
Created by potrace 1.10, written by Peter Selinger 2001-2011
</metadata>
<g transform="translate(0.000000,66.000000) scale(0.100000,-0.100000)"
fill="#000000" stroke="none">
<path d="M131 601 c-19 -12 -6 -58 19 -66 26 -8 40 1 40 29 0 38 -29 56 -59
37z"/>
<path d="M320 585 c-7 -9 -10 -26 -6 -41 9 -36 50 -30 54 8 4 34 -29 56 -48
33z"/>
<path d="M224 416 c-68 -30 -132 -144 -148 -264 -13 -89 30 -161 87 -147 34 9
69 49 105 120 20 39 31 53 32 39 1 -70 63 -140 115 -130 32 6 85 57 85 81 0
32 -31 28 -60 -6 -24 -28 -32 -32 -47 -23 -10 6 -23 22 -30 35 -17 35 -35 194
-27 244 3 23 2 45 -3 48 -22 14 -81 16 -109 3z m56 -68 c0 -76 -63 -238 -107
-280 -24 -23 -25 -23 -40 -3 -42 57 37 275 111 305 33 14 36 12 36 -22z"/>
</g>
</svg>
