<?xml version="1.0" standalone="no"?>
<!DOCTYPE svg PUBLIC "-//W3C//DTD SVG 20010904//EN"
 "http://www.w3.org/TR/2001/REC-SVG-20010904/DTD/svg10.dtd">
<svg version="1.0" xmlns="http://www.w3.org/2000/svg"
 width="32.000000pt" height="63.000000pt" viewBox="0 0 32.000000 63.000000"
 preserveAspectRatio="xMidYMid meet">
<metadata>
Created by potrace 1.10, written by Peter Selinger 2001-2011
</metadata>
<g transform="translate(0.000000,63.000000) scale(0.100000,-0.100000)"
fill="#000000" stroke="none">
<path d="M106 547 c-32 -32 -34 -71 -4 -91 54 -38 137 1 123 57 -9 33 -23 45
-63 53 -25 5 -36 1 -56 -19z m65 -28 c16 -8 18 -13 8 -25 -13 -16 -45 -19 -54
-4 -4 6 -1 17 5 25 15 18 16 18 41 4z"/>
<path d="M119 383 c-69 -77 -100 -264 -54 -327 30 -41 94 -14 117 50 l12 33
18 -29 c12 -21 26 -30 43 -30 30 0 33 22 4 41 -17 12 -22 31 -30 119 -6 58
-14 109 -19 114 -17 17 -27 -5 -33 -71 -8 -80 -33 -172 -53 -193 -24 -25 -39
4 -37 73 2 75 35 169 69 196 13 10 24 26 24 35 0 25 -34 19 -61 -11z"/>
</g>
</svg>
