<?xml version="1.0" standalone="no"?>
<!DOCTYPE svg PUBLIC "-//W3C//DTD SVG 20010904//EN"
 "http://www.w3.org/TR/2001/REC-SVG-20010904/DTD/svg10.dtd">
<svg version="1.0" xmlns="http://www.w3.org/2000/svg"
 width="43.000000pt" height="57.000000pt" viewBox="0 0 43.000000 57.000000"
 preserveAspectRatio="xMidYMid meet">
<metadata>
Created by potrace 1.10, written by Peter Selinger 2001-2011
</metadata>
<g transform="translate(0.000000,57.000000) scale(0.100000,-0.100000)"
fill="#000000" stroke="none">
<path d="M172 448 c-21 -21 -14 -48 13 -48 23 0 45 24 45 49 0 15 -43 14 -58
-1z"/>
<path d="M302 424 c-26 -18 -29 -39 -6 -48 28 -11 64 20 64 55 0 14 -33 11
-58 -7z"/>
<path d="M195 321 c-82 -24 -155 -147 -113 -189 18 -18 58 -15 101 8 20 11 38
20 40 20 1 0 4 -14 5 -32 3 -40 18 -58 48 -58 17 0 24 6 24 20 0 14 -7 20 -21
20 -19 0 -20 4 -13 80 6 68 4 81 -10 86 -9 3 -16 14 -16 24 0 21 -17 29 -45
21z m5 -56 c0 -8 5 -15 10 -15 21 0 9 -29 -25 -59 -38 -33 -85 -42 -85 -16 0
17 77 105 91 105 5 0 9 -7 9 -15z"/>
</g>
</svg>
