<?xml version="1.0" standalone="no"?>
<!DOCTYPE svg PUBLIC "-//W3C//DTD SVG 20010904//EN"
 "http://www.w3.org/TR/2001/REC-SVG-20010904/DTD/svg10.dtd">
<svg version="1.0" xmlns="http://www.w3.org/2000/svg"
 width="42.000000pt" height="78.000000pt" viewBox="0 0 42.000000 78.000000"
 preserveAspectRatio="xMidYMid meet">
<metadata>
Created by potrace 1.10, written by Peter Selinger 2001-2011
</metadata>
<g transform="translate(0.000000,78.000000) scale(0.100000,-0.100000)"
fill="#000000" stroke="none">
<path d="M280 715 c-18 -22 1 -69 30 -73 40 -6 57 58 21 78 -26 14 -36 13 -51
-5z"/>
<path d="M122 688 c4 -39 17 -44 51 -18 34 27 25 50 -20 50 -33 0 -34 -2 -31
-32z"/>
<path d="M145 527 c-33 -80 -110 -421 -99 -439 3 -4 14 -8 24 -8 14 0 20 10
25 43 12 77 7 73 98 76 l84 2 18 -61 c21 -71 39 -90 61 -69 13 13 12 22 -6 74
-11 32 -20 59 -20 61 0 1 12 4 28 6 19 2 27 9 27 23 0 16 -8 21 -36 23 l-35 3
-43 137 c-24 75 -47 143 -53 150 -6 6 -21 12 -35 12 -18 0 -28 -9 -38 -33z
m84 -162 c16 -60 28 -111 27 -112 -8 -8 -113 -12 -124 -5 -10 7 -8 30 13 116
14 60 28 112 31 118 12 18 23 -7 53 -117z"/>
</g>
</svg>
