<?xml version="1.0" standalone="no"?>
<!DOCTYPE svg PUBLIC "-//W3C//DTD SVG 20010904//EN"
 "http://www.w3.org/TR/2001/REC-SVG-20010904/DTD/svg10.dtd">
<svg version="1.0" xmlns="http://www.w3.org/2000/svg"
 width="45.000000pt" height="72.000000pt" viewBox="0 0 45.000000 72.000000"
 preserveAspectRatio="xMidYMid meet">
<metadata>
Created by potrace 1.10, written by Peter Selinger 2001-2011
</metadata>
<g transform="translate(0.000000,72.000000) scale(0.100000,-0.100000)"
fill="#000000" stroke="none">
<path d="M137 653 c-14 -14 -7 -43 11 -43 24 0 42 19 35 36 -5 15 -35 19 -46
7z"/>
<path d="M300 636 c0 -21 5 -26 26 -26 21 0 25 4 22 23 -2 14 -11 23 -25 25
-19 3 -23 -1 -23 -22z"/>
<path d="M167 563 c-39 -20 -53 -35 -70 -71 -29 -66 -35 -214 -13 -302 29
-116 70 -149 162 -130 111 23 169 122 168 286 -1 107 -34 181 -98 219 -53 31
-87 31 -149 -2z m154 -53 c43 -45 59 -91 59 -171 0 -143 -74 -249 -174 -249
-27 0 -39 7 -56 30 -28 39 -53 178 -45 245 16 129 39 165 110 165 25 0 45 5
45 10 0 21 24 9 61 -30z"/>
</g>
</svg>
