<?xml version="1.0" standalone="no"?>
<!DOCTYPE svg PUBLIC "-//W3C//DTD SVG 20010904//EN"
 "http://www.w3.org/TR/2001/REC-SVG-20010904/DTD/svg10.dtd">
<svg version="1.0" xmlns="http://www.w3.org/2000/svg"
 width="29.000000pt" height="53.000000pt" viewBox="0 0 29.000000 53.000000"
 preserveAspectRatio="xMidYMid meet">
<metadata>
Created by potrace 1.10, written by Peter Selinger 2001-2011
</metadata>
<g transform="translate(0.000000,53.000000) scale(0.100000,-0.100000)"
fill="#000000" stroke="none">
<path d="M98 476 c-29 -14 -35 -59 -13 -92 22 -34 78 -34 101 0 14 23 14 28
-1 59 -18 39 -51 51 -87 33z m60 -57 c3 -17 -23 -33 -39 -23 -5 3 -9 14 -9 25
0 15 6 20 22 17 13 -2 24 -10 26 -19z"/>
<path d="M95 307 c-28 -21 -10 -35 38 -30 53 6 62 -4 70 -75 6 -48 5 -53 -11
-46 -39 17 -93 16 -112 -1 -28 -25 -26 -79 2 -99 30 -21 107 -20 137 0 23 16
23 20 19 122 -4 94 -7 107 -28 124 -26 21 -88 24 -115 5z m75 -188 c32 -20 33
-22 15 -35 -35 -26 -85 -14 -85 20 0 42 19 46 70 15z"/>
</g>
</svg>
