<?xml version="1.0" standalone="no"?>
<!DOCTYPE svg PUBLIC "-//W3C//DTD SVG 20010904//EN"
 "http://www.w3.org/TR/2001/REC-SVG-20010904/DTD/svg10.dtd">
<svg version="1.0" xmlns="http://www.w3.org/2000/svg"
 width="48.000000pt" height="51.000000pt" viewBox="0 0 48.000000 51.000000"
 preserveAspectRatio="xMidYMid meet">
<metadata>
Created by potrace 1.10, written by Peter Selinger 2001-2011
</metadata>
<g transform="translate(0.000000,51.000000) scale(0.100000,-0.100000)"
fill="#000000" stroke="none">
<path d="M217 393 c-13 -12 -7 -33 8 -33 8 0 15 9 15 20 0 20 -11 26 -23 13z"/>
<path d="M297 394 c-14 -14 -7 -35 11 -32 9 2 17 10 17 17 0 16 -18 25 -28 15z"/>
<path d="M230 313 c-50 -20 -101 -67 -125 -117 -28 -57 -27 -89 1 -100 22 -9
93 26 131 63 l31 32 7 -33 c10 -44 32 -68 64 -68 48 0 141 78 141 118 0 23 -3
22 -48 -20 -66 -62 -90 -74 -109 -55 -15 14 -16 37 -10 147 2 33 0 35 -33 37
-19 1 -42 -1 -50 -4z m43 -53 c-7 -25 -119 -130 -139 -130 -36 0 8 82 67 126
42 30 79 33 72 4z"/>
</g>
</svg>
