<?xml version="1.0" standalone="no"?>
<!DOCTYPE svg PUBLIC "-//W3C//DTD SVG 20010904//EN"
 "http://www.w3.org/TR/2001/REC-SVG-20010904/DTD/svg10.dtd">
<svg version="1.0" xmlns="http://www.w3.org/2000/svg"
 width="42.000000pt" height="65.000000pt" viewBox="0 0 42.000000 65.000000"
 preserveAspectRatio="xMidYMid meet">
<metadata>
Created by potrace 1.10, written by Peter Selinger 2001-2011
</metadata>
<g transform="translate(0.000000,65.000000) scale(0.100000,-0.100000)"
fill="#000000" stroke="none">
<path d="M347 563 c-4 -3 -7 -12 -7 -20 0 -15 26 -18 34 -4 7 11 -18 33 -27
24z"/>
<path d="M227 553 c-8 -7 11 -33 24 -33 5 0 9 9 9 20 0 19 -20 27 -33 13z"/>
<path d="M240 513 c-26 -5 -70 -40 -70 -56 0 -6 -26 -62 -57 -126 -55 -110
-58 -119 -58 -192 0 -94 16 -119 77 -119 34 0 46 7 91 53 60 60 130 187 146
266 24 113 -34 190 -129 174z m80 -60 c19 -24 21 -37 17 -84 -9 -108 -145
-319 -205 -319 -35 0 -56 42 -49 100 7 55 72 204 115 259 15 20 28 41 28 46 1
6 2 13 3 18 0 4 16 7 35 7 26 0 40 -7 56 -27z"/>
</g>
</svg>
