<?xml version="1.0" standalone="no"?>
<!DOCTYPE svg PUBLIC "-//W3C//DTD SVG 20010904//EN"
 "http://www.w3.org/TR/2001/REC-SVG-20010904/DTD/svg10.dtd">
<svg version="1.0" xmlns="http://www.w3.org/2000/svg"
 width="30.000000pt" height="54.000000pt" viewBox="0 0 30.000000 54.000000"
 preserveAspectRatio="xMidYMid meet">
<metadata>
Created by potrace 1.10, written by Peter Selinger 2001-2011
</metadata>
<g transform="translate(0.000000,54.000000) scale(0.100000,-0.100000)"
fill="#000000" stroke="none">
<path d="M226 385 c-6 -17 17 -31 34 -20 8 5 8 11 -1 21 -15 18 -25 18 -33 -1z"/>
<path d="M160 375 c0 -8 7 -15 15 -15 8 0 15 7 15 15 0 8 -7 15 -15 15 -8 0
-15 -7 -15 -15z"/>
<path d="M158 309 c-10 -5 -38 -42 -63 -81 -44 -67 -46 -74 -40 -120 10 -69
36 -81 98 -44 53 31 127 119 127 152 0 43 -19 73 -56 89 -42 17 -44 18 -66 4z
m80 -68 c7 -46 -90 -161 -136 -161 -35 0 8 123 60 172 34 31 71 26 76 -11z"/>
</g>
</svg>
