<?xml version="1.0" standalone="no"?>
<!DOCTYPE svg PUBLIC "-//W3C//DTD SVG 20010904//EN"
 "http://www.w3.org/TR/2001/REC-SVG-20010904/DTD/svg10.dtd">
<svg version="1.0" xmlns="http://www.w3.org/2000/svg"
 width="35.000000pt" height="61.000000pt" viewBox="0 0 35.000000 61.000000"
 preserveAspectRatio="xMidYMid meet">
<metadata>
Created by potrace 1.10, written by Peter Selinger 2001-2011
</metadata>
<g transform="translate(0.000000,61.000000) scale(0.100000,-0.100000)"
fill="#000000" stroke="none">
<path d="M221 531 c-7 -5 -11 -17 -9 -27 4 -25 51 -26 56 -2 4 20 -29 40 -47
29z"/>
<path d="M84 505 c-8 -21 2 -45 19 -45 8 0 20 7 27 15 10 12 10 18 0 30 -7 8
-19 15 -27 15 -7 0 -16 -7 -19 -15z"/>
<path d="M135 407 c-43 -20 -51 -33 -63 -114 -14 -82 -7 -153 19 -205 23 -45
45 -58 99 -58 111 0 165 165 99 304 -33 72 -93 100 -154 73z m116 -112 c45
-98 -4 -238 -77 -219 -72 19 -85 242 -15 252 13 2 26 12 28 23 5 19 6 19 26 2
11 -10 28 -36 38 -58z"/>
</g>
</svg>
