<?xml version="1.0" standalone="no"?>
<!DOCTYPE svg PUBLIC "-//W3C//DTD SVG 20010904//EN"
 "http://www.w3.org/TR/2001/REC-SVG-20010904/DTD/svg10.dtd">
<svg version="1.0" xmlns="http://www.w3.org/2000/svg"
 width="47.000000pt" height="70.000000pt" viewBox="0 0 47.000000 70.000000"
 preserveAspectRatio="xMidYMid meet">
<metadata>
Created by potrace 1.10, written by Peter Selinger 2001-2011
</metadata>
<g transform="translate(0.000000,70.000000) scale(0.100000,-0.100000)"
fill="#000000" stroke="none">
<path d="M93 633 c-7 -2 -13 -15 -13 -27 0 -47 55 -65 66 -21 10 39 -17 63
-53 48z"/>
<path d="M276 614 c-19 -19 -19 -24 -1 -47 19 -26 49 -18 53 15 4 35 -29 56
-52 32z"/>
<path d="M195 453 c-68 -17 -137 -126 -157 -245 -13 -83 -5 -131 29 -157 49
-39 114 1 155 95 23 53 38 68 38 39 0 -8 7 -33 16 -55 31 -78 111 -89 160 -24
45 58 11 89 -36 33 -30 -37 -60 -34 -78 7 -19 41 -35 165 -28 225 4 41 2 60
-8 68 -16 14 -64 21 -91 14z m41 -57 c3 -8 0 -41 -6 -73 -28 -134 -101 -261
-135 -233 -21 17 -19 85 4 160 22 71 54 121 90 144 32 19 40 20 47 2z"/>
</g>
</svg>
