<?xml version="1.0" standalone="no"?>
<!DOCTYPE svg PUBLIC "-//W3C//DTD SVG 20010904//EN"
 "http://www.w3.org/TR/2001/REC-SVG-20010904/DTD/svg10.dtd">
<svg version="1.0" xmlns="http://www.w3.org/2000/svg"
 width="28.000000pt" height="56.000000pt" viewBox="0 0 28.000000 56.000000"
 preserveAspectRatio="xMidYMid meet">
<metadata>
Created by potrace 1.10, written by Peter Selinger 2001-2011
</metadata>
<g transform="translate(0.000000,56.000000) scale(0.100000,-0.100000)"
fill="#000000" stroke="none">
<path d="M45 460 c-9 -15 14 -40 36 -40 23 0 26 35 3 44 -22 9 -32 7 -39 -4z"/>
<path d="M177 456 c-6 -16 11 -36 30 -36 7 0 13 11 13 25 0 18 -5 25 -19 25
-10 0 -21 -6 -24 -14z"/>
<path d="M88 333 c-49 -20 -52 -48 -5 -39 108 22 113 20 123 -60 7 -48 7 -49
-13 -32 -31 28 -76 40 -106 29 -49 -19 -73 -103 -42 -148 21 -30 97 -57 137
-49 55 11 68 31 68 107 0 76 -15 158 -33 184 -17 23 -84 27 -129 8z m68 -151
c28 -22 57 -80 50 -98 -3 -9 -20 -14 -44 -14 -74 0 -118 65 -75 112 20 22 42
23 69 0z"/>
</g>
</svg>
