<?xml version="1.0" standalone="no"?>
<!DOCTYPE svg PUBLIC "-//W3C//DTD SVG 20010904//EN"
 "http://www.w3.org/TR/2001/REC-SVG-20010904/DTD/svg10.dtd">
<svg version="1.0" xmlns="http://www.w3.org/2000/svg"
 width="42.000000pt" height="50.000000pt" viewBox="0 0 42.000000 50.000000"
 preserveAspectRatio="xMidYMid meet">
<metadata>
Created by potrace 1.10, written by Peter Selinger 2001-2011
</metadata>
<g transform="translate(0.000000,50.000000) scale(0.100000,-0.100000)"
fill="#000000" stroke="none">
<path d="M166 383 c-12 -12 -6 -33 9 -33 8 0 15 6 15 14 0 17 -14 28 -24 19z"/>
<path d="M241 376 c-8 -10 -9 -16 -1 -21 13 -8 30 3 30 21 0 18 -14 18 -29 0z"/>
<path d="M155 291 c-66 -30 -141 -125 -131 -166 15 -58 77 -50 154 19 l39 36
7 -32 c13 -67 54 -84 116 -47 55 33 80 60 80 88 l0 25 -32 -30 c-49 -45 -89
-74 -104 -74 -7 0 -19 18 -25 41 -10 32 -10 50 0 89 7 27 10 54 6 60 -10 16
-66 11 -110 -9z m65 -35 c0 -31 -113 -136 -146 -136 -31 0 40 110 88 137 31
17 58 16 58 -1z"/>
</g>
</svg>
