<?xml version="1.0" standalone="no"?>
<!DOCTYPE svg PUBLIC "-//W3C//DTD SVG 20010904//EN"
 "http://www.w3.org/TR/2001/REC-SVG-20010904/DTD/svg10.dtd">
<svg version="1.0" xmlns="http://www.w3.org/2000/svg"
 width="37.000000pt" height="49.000000pt" viewBox="0 0 37.000000 49.000000"
 preserveAspectRatio="xMidYMid meet">
<metadata>
Created by potrace 1.10, written by Peter Selinger 2001-2011
</metadata>
<g transform="translate(0.000000,49.000000) scale(0.100000,-0.100000)"
fill="#000000" stroke="none">
<path d="M232 419 c-29 -11 -37 -34 -24 -65 8 -15 20 -24 35 -24 31 0 47 18
47 52 0 33 -25 49 -58 37z m15 -46 c-4 -3 -7 0 -7 7 0 7 3 10 7 7 3 -4 3 -10
0 -14z"/>
<path d="M198 292 c-51 -33 -158 -144 -158 -162 0 -10 4 -30 10 -44 14 -38 49
-33 108 13 l50 40 9 -32 c13 -48 52 -58 109 -28 33 18 44 30 44 47 l0 23 -36
-24 c-20 -14 -47 -25 -60 -25 -21 0 -24 5 -24 35 0 19 10 54 21 78 40 82 -1
126 -73 79z m26 -73 c-45 -66 -144 -143 -144 -113 0 17 78 109 118 140 55 42
66 30 26 -27z"/>
</g>
</svg>
