<?xml version="1.0" standalone="no"?>
<!DOCTYPE svg PUBLIC "-//W3C//DTD SVG 20010904//EN"
 "http://www.w3.org/TR/2001/REC-SVG-20010904/DTD/svg10.dtd">
<svg version="1.0" xmlns="http://www.w3.org/2000/svg"
 width="33.000000pt" height="52.000000pt" viewBox="0 0 33.000000 52.000000"
 preserveAspectRatio="xMidYMid meet">
<metadata>
Created by potrace 1.10, written by Peter Selinger 2001-2011
</metadata>
<g transform="translate(0.000000,52.000000) scale(0.100000,-0.100000)"
fill="#000000" stroke="none">
<path d="M113 424 c-7 -19 11 -39 26 -30 16 10 13 33 -4 40 -9 3 -18 -1 -22
-10z"/>
<path d="M180 421 c0 -15 6 -21 21 -21 14 0 19 5 17 17 -5 26 -38 29 -38 4z"/>
<path d="M118 354 c-14 -7 -40 -36 -57 -63 -18 -27 -39 -55 -47 -62 -12 -10
-14 -25 -8 -68 3 -31 11 -62 16 -68 42 -53 208 89 208 177 0 37 -10 51 -60 82
-22 14 -29 14 -52 2z m71 -63 c8 -15 5 -29 -15 -65 -25 -45 -95 -106 -121
-106 -28 0 8 111 54 167 23 28 68 30 82 4z"/>
</g>
</svg>
