<?xml version="1.0" standalone="no"?>
<!DOCTYPE svg PUBLIC "-//W3C//DTD SVG 20010904//EN"
 "http://www.w3.org/TR/2001/REC-SVG-20010904/DTD/svg10.dtd">
<svg version="1.0" xmlns="http://www.w3.org/2000/svg"
 width="33.000000pt" height="62.000000pt" viewBox="0 0 33.000000 62.000000"
 preserveAspectRatio="xMidYMid meet">
<metadata>
Created by potrace 1.10, written by Peter Selinger 2001-2011
</metadata>
<g transform="translate(0.000000,62.000000) scale(0.100000,-0.100000)"
fill="#000000" stroke="none">
<path d="M210 525 c-10 -12 -10 -18 0 -30 18 -22 50 -19 50 5 0 27 -34 44 -50
25z"/>
<path d="M73 504 c-3 -8 1 -23 10 -31 13 -13 19 -14 31 -3 20 16 20 36 0 44
-25 9 -34 7 -41 -10z"/>
<path d="M124 406 c-47 -21 -47 -20 -60 -174 -11 -126 34 -202 121 -202 84 0
130 74 123 197 -7 138 -92 220 -184 179z m115 -100 c33 -65 34 -137 3 -188
-57 -93 -132 -35 -132 101 0 75 15 111 47 111 14 0 23 6 23 16 0 31 34 8 59
-40z"/>
</g>
</svg>
