<?xml version="1.0" standalone="no"?>
<!DOCTYPE svg PUBLIC "-//W3C//DTD SVG 20010904//EN"
 "http://www.w3.org/TR/2001/REC-SVG-20010904/DTD/svg10.dtd">
<svg version="1.0" xmlns="http://www.w3.org/2000/svg"
 width="44.000000pt" height="67.000000pt" viewBox="0 0 44.000000 67.000000"
 preserveAspectRatio="xMidYMid meet">
<metadata>
Created by potrace 1.10, written by Peter Selinger 2001-2011
</metadata>
<g transform="translate(0.000000,67.000000) scale(0.100000,-0.100000)"
fill="#000000" stroke="none">
<path d="M357 594 c-14 -15 -6 -34 14 -34 14 0 19 5 17 17 -3 18 -20 27 -31
17z"/>
<path d="M240 576 c0 -15 24 -28 34 -19 13 14 5 33 -14 33 -11 0 -20 -6 -20
-14z"/>
<path d="M241 537 c-19 -7 -37 -19 -42 -27 -4 -8 -30 -60 -57 -115 -86 -172
-101 -267 -51 -321 48 -51 128 -18 193 80 123 186 140 340 41 382 -40 16 -40
16 -84 1z m95 -48 c32 -36 25 -111 -20 -205 -69 -146 -150 -228 -192 -193 -30
25 -35 58 -20 120 18 70 85 206 115 233 12 11 21 27 21 36 0 24 9 30 45 30 20
0 39 -8 51 -21z"/>
</g>
</svg>
