<?xml version="1.0" standalone="no"?>
<!DOCTYPE svg PUBLIC "-//W3C//DTD SVG 20010904//EN"
 "http://www.w3.org/TR/2001/REC-SVG-20010904/DTD/svg10.dtd">
<svg version="1.0" xmlns="http://www.w3.org/2000/svg"
 width="46.000000pt" height="68.000000pt" viewBox="0 0 46.000000 68.000000"
 preserveAspectRatio="xMidYMid meet">
<metadata>
Created by potrace 1.10, written by Peter Selinger 2001-2011
</metadata>
<g transform="translate(0.000000,68.000000) scale(0.100000,-0.100000)"
fill="#000000" stroke="none">
<path d="M324 599 c-8 -14 18 -31 30 -19 9 9 0 30 -14 30 -5 0 -12 -5 -16 -11z"/>
<path d="M410 595 c0 -8 7 -15 15 -15 8 0 15 7 15 15 0 8 -7 15 -15 15 -8 0
-15 -7 -15 -15z"/>
<path d="M351 542 c-5 -10 -16 -59 -23 -108 -10 -70 -19 -98 -44 -134 -31 -44
-33 -45 -85 -45 -41 0 -54 -4 -54 -15 0 -8 10 -16 23 -18 12 -2 22 -7 22 -11
0 -12 -95 -51 -124 -51 -16 0 -26 -6 -26 -15 0 -36 122 -6 187 45 14 11 39 20
54 20 33 0 35 -12 20 -103 -6 -38 -5 -50 6 -54 21 -8 23 -3 31 78 7 72 8 73
38 80 64 12 69 39 8 39 -32 0 -34 2 -34 33 0 18 14 72 31 120 35 101 36 150 2
155 -13 2 -26 -4 -32 -16z m-41 -287 c0 -8 -4 -15 -10 -15 -5 0 -7 7 -4 15 4
8 8 15 10 15 2 0 4 -7 4 -15z"/>
</g>
</svg>
