<?xml version="1.0" standalone="no"?>
<!DOCTYPE svg PUBLIC "-//W3C//DTD SVG 20010904//EN"
 "http://www.w3.org/TR/2001/REC-SVG-20010904/DTD/svg10.dtd">
<svg version="1.0" xmlns="http://www.w3.org/2000/svg"
 width="30.000000pt" height="53.000000pt" viewBox="0 0 30.000000 53.000000"
 preserveAspectRatio="xMidYMid meet">
<metadata>
Created by potrace 1.10, written by Peter Selinger 2001-2011
</metadata>
<g transform="translate(0.000000,53.000000) scale(0.100000,-0.100000)"
fill="#000000" stroke="none">
<path d="M98 419 c-25 -14 -24 -59 1 -59 23 0 44 24 39 46 -4 22 -18 26 -40
13z"/>
<path d="M228 416 c-24 -18 -24 -56 0 -56 25 0 42 19 42 47 0 26 -16 29 -42 9z"/>
<path d="M121 262 c-49 -51 -88 -151 -71 -182 10 -19 18 -21 48 -16 47 7 82
34 104 77 31 60 21 126 -23 150 -18 9 -26 5 -58 -29z m59 -52 c0 -30 -7 -48
-31 -75 -29 -33 -69 -47 -69 -25 0 14 26 66 54 107 29 45 46 42 46 -7z"/>
</g>
</svg>
