<?xml version="1.0" standalone="no"?>
<!DOCTYPE svg PUBLIC "-//W3C//DTD SVG 20010904//EN"
 "http://www.w3.org/TR/2001/REC-SVG-20010904/DTD/svg10.dtd">
<svg version="1.0" xmlns="http://www.w3.org/2000/svg"
 width="42.000000pt" height="47.000000pt" viewBox="0 0 42.000000 47.000000"
 preserveAspectRatio="xMidYMid meet">
<metadata>
Created by potrace 1.10, written by Peter Selinger 2001-2011
</metadata>
<g transform="translate(0.000000,47.000000) scale(0.100000,-0.100000)"
fill="#000000" stroke="none">
<path d="M177 383 c-13 -12 -7 -33 8 -33 8 0 15 9 15 20 0 20 -11 26 -23 13z"/>
<path d="M257 383 c-4 -3 -7 -12 -7 -20 0 -17 26 -17 33 1 8 21 -11 35 -26 19z"/>
<path d="M190 303 c-50 -20 -101 -67 -125 -117 -28 -57 -27 -89 1 -100 22 -9
93 26 131 63 l31 32 7 -33 c16 -75 67 -88 137 -35 30 23 44 42 46 62 l4 29
-40 -36 c-59 -53 -81 -63 -99 -45 -15 14 -16 37 -10 147 2 33 0 35 -33 37 -19
1 -42 -1 -50 -4z m43 -53 c-7 -25 -119 -130 -139 -130 -38 0 5 80 67 126 42
30 79 33 72 4z"/>
</g>
</svg>
