<?xml version="1.0" standalone="no"?>
<!DOCTYPE svg PUBLIC "-//W3C//DTD SVG 20010904//EN"
 "http://www.w3.org/TR/2001/REC-SVG-20010904/DTD/svg10.dtd">
<svg version="1.0" xmlns="http://www.w3.org/2000/svg"
 width="39.000000pt" height="45.000000pt" viewBox="0 0 39.000000 45.000000"
 preserveAspectRatio="xMidYMid meet">
<metadata>
Created by potrace 1.10, written by Peter Selinger 2001-2011
</metadata>
<g transform="translate(0.000000,45.000000) scale(0.100000,-0.100000)"
fill="#000000" stroke="none">
<path d="M186 373 c-12 -12 -6 -33 9 -33 8 0 15 6 15 14 0 17 -14 28 -24 19z"/>
<path d="M261 366 c-8 -10 -9 -16 -1 -21 13 -8 30 3 30 21 0 18 -14 18 -29 0z"/>
<path d="M175 280 c-66 -34 -106 -74 -116 -116 -13 -58 -11 -72 11 -84 26 -14
75 7 128 54 l39 36 7 -32 c8 -42 33 -68 65 -68 34 0 84 40 80 63 -4 16 -8 15
-38 -8 -47 -34 -58 -32 -72 16 -10 32 -10 50 0 89 7 27 10 54 6 60 -10 17 -67
11 -110 -10z m65 -34 c0 -31 -113 -136 -146 -136 -17 0 -4 38 28 82 37 52 118
89 118 54z"/>
</g>
</svg>
