<?xml version="1.0" standalone="no"?>
<!DOCTYPE svg PUBLIC "-//W3C//DTD SVG 20010904//EN"
 "http://www.w3.org/TR/2001/REC-SVG-20010904/DTD/svg10.dtd">
<svg version="1.0" xmlns="http://www.w3.org/2000/svg"
 width="26.000000pt" height="52.000000pt" viewBox="0 0 26.000000 52.000000"
 preserveAspectRatio="xMidYMid meet">
<metadata>
Created by potrace 1.10, written by Peter Selinger 2001-2011
</metadata>
<g transform="translate(0.000000,52.000000) scale(0.100000,-0.100000)"
fill="#000000" stroke="none">
<path d="M102 462 c-38 -6 -50 -71 -19 -109 13 -18 73 -16 91 3 20 19 20 37 1
73 -15 30 -35 39 -73 33z m45 -58 c9 -23 -13 -40 -32 -24 -8 7 -15 19 -15 26
0 19 39 18 47 -2z"/>
<path d="M98 293 c-10 -2 -18 -12 -18 -22 0 -16 7 -17 49 -13 26 2 51 0 54 -4
3 -5 8 -36 12 -68 7 -56 7 -59 -11 -51 -11 5 -38 10 -60 13 -35 3 -44 0 -58
-19 -39 -56 -5 -109 70 -109 42 0 82 13 94 31 3 4 3 53 0 109 -5 92 -8 104
-29 121 -22 18 -63 23 -103 12z m60 -193 c38 -24 41 -36 7 -44 -40 -10 -75 3
-75 28 0 42 19 46 68 16z"/>
</g>
</svg>
