<?xml version="1.0" standalone="no"?>
<!DOCTYPE svg PUBLIC "-//W3C//DTD SVG 20010904//EN"
 "http://www.w3.org/TR/2001/REC-SVG-20010904/DTD/svg10.dtd">
<svg version="1.0" xmlns="http://www.w3.org/2000/svg"
 width="38.000000pt" height="41.000000pt" viewBox="0 0 38.000000 41.000000"
 preserveAspectRatio="xMidYMid meet">
<metadata>
Created by potrace 1.10, written by Peter Selinger 2001-2011
</metadata>
<g transform="translate(0.000000,41.000000) scale(0.100000,-0.100000)"
fill="#000000" stroke="none">
<path d="M167 334 c-14 -14 -7 -35 11 -32 9 2 17 10 17 17 0 16 -18 25 -28 15z"/>
<path d="M247 334 c-14 -14 -7 -35 11 -32 9 2 17 10 17 17 0 16 -18 25 -28 15z"/>
<path d="M164 241 c-56 -26 -136 -110 -130 -136 3 -11 6 -30 6 -41 0 -46 66
-36 135 21 51 41 55 42 55 12 0 -34 28 -67 57 -67 40 0 93 37 93 66 l0 24 -46
-33 c-45 -32 -46 -32 -61 -12 -12 16 -13 37 -8 103 l6 82 -33 0 c-18 0 -51 -9
-74 -19z m66 -29 c0 -16 -52 -78 -92 -109 -70 -56 -91 -37 -38 36 17 23 45 50
63 61 33 20 67 26 67 12z"/>
</g>
</svg>
