<?xml version="1.0" standalone="no"?>
<!DOCTYPE svg PUBLIC "-//W3C//DTD SVG 20010904//EN"
 "http://www.w3.org/TR/2001/REC-SVG-20010904/DTD/svg10.dtd">
<svg version="1.0" xmlns="http://www.w3.org/2000/svg"
 width="36.000000pt" height="72.000000pt" viewBox="0 0 36.000000 72.000000"
 preserveAspectRatio="xMidYMid meet">
<metadata>
Created by potrace 1.10, written by Peter Selinger 2001-2011
</metadata>
<g transform="translate(0.000000,72.000000) scale(0.100000,-0.100000)"
fill="#000000" stroke="none">
<path d="M54 615 c-8 -19 3 -35 26 -35 19 0 30 17 23 38 -6 17 -42 15 -49 -3z"/>
<path d="M193 614 c-7 -18 14 -35 37 -31 8 1 16 12 18 25 3 18 -1 22 -23 22
-14 0 -28 -7 -32 -16z"/>
<path d="M127 488 c-8 -29 -31 -133 -51 -231 -20 -98 -39 -184 -42 -192 -6
-14 21 -33 32 -22 5 5 37 140 51 216 l8 45 55 3 55 4 43 -119 c44 -124 65
-163 78 -149 11 11 -6 71 -67 234 -102 275 -133 316 -162 211z m72 -84 l20
-52 -36 -5 c-20 -4 -39 -4 -43 -2 -5 3 -1 32 7 66 9 33 19 57 24 52 4 -4 17
-31 28 -59z"/>
</g>
</svg>
