<?xml version="1.0" standalone="no"?>
<!DOCTYPE svg PUBLIC "-//W3C//DTD SVG 20010904//EN"
 "http://www.w3.org/TR/2001/REC-SVG-20010904/DTD/svg10.dtd">
<svg version="1.0" xmlns="http://www.w3.org/2000/svg"
 width="30.000000pt" height="61.000000pt" viewBox="0 0 30.000000 61.000000"
 preserveAspectRatio="xMidYMid meet">
<metadata>
Created by potrace 1.10, written by Peter Selinger 2001-2011
</metadata>
<g transform="translate(0.000000,61.000000) scale(0.100000,-0.100000)"
fill="#000000" stroke="none">
<path d="M112 540 c-20 -8 -42 -45 -42 -71 0 -5 9 -18 20 -29 41 -41 130 -14
130 40 0 26 -43 70 -67 69 -10 0 -28 -4 -41 -9z m68 -60 c0 -16 -50 -24 -63
-11 -18 19 19 44 44 30 11 -5 19 -14 19 -19z"/>
<path d="M112 368 c-39 -42 -64 -118 -69 -210 -5 -71 -3 -92 11 -113 32 -49
104 -21 121 48 l7 28 19 -30 c13 -21 27 -31 44 -31 31 0 33 22 4 41 -17 12
-21 28 -26 112 -6 96 -19 137 -41 123 -7 -4 -12 -27 -12 -52 0 -62 -28 -179
-49 -205 -27 -34 -41 -15 -41 55 0 86 24 161 66 204 18 19 31 39 28 43 -10 16
-40 9 -62 -13z"/>
</g>
</svg>
