<?xml version="1.0" standalone="no"?>
<!DOCTYPE svg PUBLIC "-//W3C//DTD SVG 20010904//EN"
 "http://www.w3.org/TR/2001/REC-SVG-20010904/DTD/svg10.dtd">
<svg version="1.0" xmlns="http://www.w3.org/2000/svg"
 width="38.000000pt" height="68.000000pt" viewBox="0 0 38.000000 68.000000"
 preserveAspectRatio="xMidYMid meet">
<metadata>
Created by potrace 1.10, written by Peter Selinger 2001-2011
</metadata>
<g transform="translate(0.000000,68.000000) scale(0.100000,-0.100000)"
fill="#000000" stroke="none">
<path d="M187 586 c-12 -10 -17 -24 -15 -43 3 -30 23 -39 64 -29 44 11 24 88
-23 86 -4 0 -16 -7 -26 -14z m43 -36 c0 -11 -7 -20 -15 -20 -15 0 -21 21 -8
33 12 13 23 7 23 -13z"/>
<path d="M170 433 c-31 -68 -90 -279 -97 -340 -5 -44 -3 -53 10 -53 11 0 18
13 23 38 3 20 9 51 13 67 l7 30 85 0 84 0 10 -75 c8 -61 14 -75 29 -78 17 -4
18 1 11 65 -13 127 -44 261 -82 356 -13 31 -20 37 -44 37 -24 0 -31 -7 -49
-47z m74 -52 c9 -24 23 -69 30 -101 l14 -58 -30 -6 c-43 -8 -118 -7 -118 2 0
11 36 125 55 176 20 52 24 51 49 -13z"/>
</g>
</svg>
