<?xml version="1.0" standalone="no"?>
<!DOCTYPE svg PUBLIC "-//W3C//DTD SVG 20010904//EN"
 "http://www.w3.org/TR/2001/REC-SVG-20010904/DTD/svg10.dtd">
<svg version="1.0" xmlns="http://www.w3.org/2000/svg"
 width="54.000000pt" height="79.000000pt" viewBox="0 0 54.000000 79.000000"
 preserveAspectRatio="xMidYMid meet">
<metadata>
Created by potrace 1.10, written by Peter Selinger 2001-2011
</metadata>
<g transform="translate(0.000000,79.000000) scale(0.100000,-0.100000)"
fill="#000000" stroke="none">
<path d="M262 714 c-34 -24 -28 -84 11 -102 35 -17 61 -9 75 24 16 34 15 60
-4 78 -20 20 -53 20 -82 0z m58 -39 c0 -16 -27 -32 -37 -22 -3 4 -3 13 0 22 8
20 37 20 37 0z"/>
<path d="M256 568 c-3 -7 -21 -71 -40 -143 -20 -71 -43 -136 -51 -145 -8 -9
-15 -29 -15 -43 0 -15 -9 -61 -21 -102 -16 -60 -18 -79 -8 -91 15 -18 35 -4
44 34 3 15 13 51 21 80 l16 53 86 -3 86 -3 16 -80 c13 -69 18 -80 38 -83 19
-3 22 1 22 30 0 18 -6 59 -14 90 -13 56 -13 58 10 73 29 18 22 45 -12 45 -25
0 -21 -9 -73 179 -25 91 -44 121 -77 121 -13 0 -26 -6 -28 -12z m73 -183 c17
-61 31 -114 31 -118 0 -9 -128 -9 -133 1 -4 5 26 116 59 221 7 21 9 15 43
-104z"/>
</g>
</svg>
