<?xml version="1.0" standalone="no"?>
<!DOCTYPE svg PUBLIC "-//W3C//DTD SVG 20010904//EN"
 "http://www.w3.org/TR/2001/REC-SVG-20010904/DTD/svg10.dtd">
<svg version="1.0" xmlns="http://www.w3.org/2000/svg"
 width="50.000000pt" height="68.000000pt" viewBox="0 0 50.000000 68.000000"
 preserveAspectRatio="xMidYMid meet">
<metadata>
Created by potrace 1.10, written by Peter Selinger 2001-2011
</metadata>
<g transform="translate(0.000000,68.000000) scale(0.100000,-0.100000)"
fill="#000000" stroke="none">
<path d="M122 631 c-18 -11 -11 -51 10 -65 28 -17 52 13 39 47 -11 28 -26 33
-49 18z"/>
<path d="M307 618 c-32 -17 -14 -68 24 -68 23 0 32 16 25 44 -7 28 -26 37 -49
24z"/>
<path d="M205 446 c-128 -58 -201 -381 -93 -409 46 -12 90 22 130 100 l37 73
15 -53 c9 -30 24 -61 33 -69 45 -41 112 -27 144 29 32 55 0 72 -43 23 -14 -16
-33 -30 -42 -30 -39 0 -69 112 -65 240 2 46 -1 84 -7 90 -18 18 -77 21 -109 6z
m60 -45 c11 -19 -24 -153 -60 -226 -58 -122 -102 -121 -92 1 6 83 55 187 100
215 36 22 43 23 52 10z"/>
</g>
</svg>
