<?xml version="1.0" standalone="no"?>
<!DOCTYPE svg PUBLIC "-//W3C//DTD SVG 20010904//EN"
 "http://www.w3.org/TR/2001/REC-SVG-20010904/DTD/svg10.dtd">
<svg version="1.0" xmlns="http://www.w3.org/2000/svg"
 width="30.000000pt" height="57.000000pt" viewBox="0 0 30.000000 57.000000"
 preserveAspectRatio="xMidYMid meet">
<metadata>
Created by potrace 1.10, written by Peter Selinger 2001-2011
</metadata>
<g transform="translate(0.000000,57.000000) scale(0.100000,-0.100000)"
fill="#000000" stroke="none">
<path d="M130 500 c-20 -5 -26 -13 -28 -42 -4 -52 12 -78 49 -78 45 0 69 17
69 48 0 54 -39 85 -90 72z m49 -54 c17 -20 -13 -43 -34 -26 -8 7 -15 19 -15
26 0 18 34 18 49 0z"/>
<path d="M127 333 c-10 -3 -17 -12 -15 -21 3 -14 13 -16 51 -14 43 4 48 2 57
-23 5 -14 10 -44 10 -67 0 -35 -2 -39 -17 -32 -34 15 -99 16 -110 2 -24 -28
-25 -63 -3 -91 18 -22 29 -27 66 -27 25 0 59 7 76 16 l31 16 -7 91 c-3 51 -9
102 -12 113 -9 35 -68 52 -127 37z m64 -190 c37 -22 37 -40 0 -48 -51 -11 -89
23 -59 53 16 16 25 15 59 -5z"/>
</g>
</svg>
