<?xml version="1.0" standalone="no"?>
<!DOCTYPE svg PUBLIC "-//W3C//DTD SVG 20010904//EN"
 "http://www.w3.org/TR/2001/REC-SVG-20010904/DTD/svg10.dtd">
<svg version="1.0" xmlns="http://www.w3.org/2000/svg"
 width="33.000000pt" height="51.000000pt" viewBox="0 0 33.000000 51.000000"
 preserveAspectRatio="xMidYMid meet">
<metadata>
Created by potrace 1.10, written by Peter Selinger 2001-2011
</metadata>
<g transform="translate(0.000000,51.000000) scale(0.100000,-0.100000)"
fill="#000000" stroke="none">
<path d="M106 431 c-22 -24 -15 -51 12 -51 25 0 45 24 40 47 -5 25 -31 27 -52
4z"/>
<path d="M240 432 c-15 -12 -21 -25 -17 -35 14 -36 73 -9 65 29 -5 25 -22 27
-48 6z"/>
<path d="M152 295 c-34 -29 -92 -136 -92 -170 0 -34 24 -48 67 -40 96 18 150
173 77 222 -19 12 -25 11 -52 -12z m42 -75 c-1 -35 -7 -49 -33 -72 -36 -32
-61 -36 -61 -10 0 26 70 134 84 129 6 -2 11 -23 10 -47z"/>
</g>
</svg>
