<?xml version="1.0" standalone="no"?>
<!DOCTYPE svg PUBLIC "-//W3C//DTD SVG 20010904//EN"
 "http://www.w3.org/TR/2001/REC-SVG-20010904/DTD/svg10.dtd">
<svg version="1.0" xmlns="http://www.w3.org/2000/svg"
 width="48.000000pt" height="76.000000pt" viewBox="0 0 48.000000 76.000000"
 preserveAspectRatio="xMidYMid meet">
<metadata>
Created by potrace 1.10, written by Peter Selinger 2001-2011
</metadata>
<g transform="translate(0.000000,76.000000) scale(0.100000,-0.100000)"
fill="#000000" stroke="none">
<path d="M268 693 c-20 -24 -12 -43 17 -43 25 0 51 33 40 50 -10 16 -41 12
-57 -7z"/>
<path d="M402 674 c-26 -18 -29 -39 -6 -48 30 -11 74 30 58 55 -8 13 -27 11
-52 -7z"/>
<path d="M275 536 c-43 -18 -134 -121 -162 -182 -64 -140 -23 -234 102 -234
76 0 148 49 190 130 23 45 38 117 31 155 -8 42 -51 95 -76 95 -12 0 -20 8 -22
22 -4 28 -23 32 -63 14z m25 -40 c0 -2 -7 -7 -16 -10 -8 -3 -12 -2 -9 4 6 10
25 14 25 6z m79 -52 c54 -68 -6 -226 -102 -273 -55 -27 -76 -26 -118 2 -27 18
-35 30 -37 60 -5 54 29 120 80 158 39 29 134 79 150 79 4 0 16 -12 27 -26z"/>
</g>
</svg>
