<?xml version="1.0" standalone="no"?>
<!DOCTYPE svg PUBLIC "-//W3C//DTD SVG 20010904//EN"
 "http://www.w3.org/TR/2001/REC-SVG-20010904/DTD/svg10.dtd">
<svg version="1.0" xmlns="http://www.w3.org/2000/svg"
 width="64.000000pt" height="94.000000pt" viewBox="0 0 64.000000 94.000000"
 preserveAspectRatio="xMidYMid meet">
<metadata>
Created by potrace 1.10, written by Peter Selinger 2001-2011
</metadata>
<g transform="translate(0.000000,94.000000) scale(0.100000,-0.100000)"
fill="#000000" stroke="none">
<path d="M391 856 c-15 -17 -5 -43 19 -49 23 -6 55 26 47 48 -8 19 -51 20 -66
1z"/>
<path d="M528 839 c-26 -15 -24 -59 2 -59 24 0 63 36 57 53 -5 16 -38 19 -59
6z"/>
<path d="M399 643 c-16 -27 -34 -49 -39 -49 -6 -1 -14 -2 -19 -3 -9 -1 -141
-302 -141 -321 0 -5 -18 -13 -40 -16 -47 -8 -56 -34 -11 -34 28 0 28 -1 23
-45 -7 -62 17 -60 48 4 21 46 26 51 72 60 92 20 89 22 82 -71 -4 -52 -2 -99 5
-126 11 -39 14 -42 45 -42 39 0 77 33 58 52 -9 9 -17 7 -32 -7 -30 -27 -40 -7
-40 81 0 100 8 132 33 136 28 4 34 28 8 35 -12 3 -21 7 -21 9 0 1 6 34 14 71
39 184 39 313 0 313 -8 0 -28 -21 -45 -47z m27 -160 c-8 -48 -20 -111 -26
-139 l-11 -50 -59 -10 c-33 -6 -60 -7 -60 -3 0 9 128 287 148 322 l17 29 3
-31 c2 -16 -4 -70 -12 -118z"/>
</g>
</svg>
