<?xml version="1.0" standalone="no"?>
<!DOCTYPE svg PUBLIC "-//W3C//DTD SVG 20010904//EN"
 "http://www.w3.org/TR/2001/REC-SVG-20010904/DTD/svg10.dtd">
<svg version="1.0" xmlns="http://www.w3.org/2000/svg"
 width="47.000000pt" height="65.000000pt" viewBox="0 0 47.000000 65.000000"
 preserveAspectRatio="xMidYMid meet">
<metadata>
Created by potrace 1.10, written by Peter Selinger 2001-2011
</metadata>
<g transform="translate(0.000000,65.000000) scale(0.100000,-0.100000)"
fill="#000000" stroke="none">
<path d="M231 524 c-57 -48 -31 -114 46 -114 59 0 89 91 41 124 -31 22 -52 20
-87 -10z m79 -42 c0 -5 -6 -16 -13 -26 -11 -15 -17 -17 -35 -7 -26 14 -28 36
-5 50 18 9 53 -2 53 -17z"/>
<path d="M199 366 c-64 -44 -116 -137 -99 -181 16 -42 67 -42 161 3 3 1 11 -9
17 -23 9 -19 19 -25 45 -25 51 0 97 19 97 40 0 16 -4 17 -32 8 -58 -18 -73
-16 -76 14 -2 15 4 40 12 57 19 36 21 102 4 119 -21 21 -90 14 -129 -12z m88
-17 c12 -12 5 -48 -16 -87 -16 -29 -80 -72 -109 -72 -52 0 -27 69 51 135 43
37 56 42 74 24z"/>
</g>
</svg>
