<?xml version="1.0" standalone="no"?>
<!DOCTYPE svg PUBLIC "-//W3C//DTD SVG 20010904//EN"
 "http://www.w3.org/TR/2001/REC-SVG-20010904/DTD/svg10.dtd">
<svg version="1.0" xmlns="http://www.w3.org/2000/svg"
 width="31.000000pt" height="60.000000pt" viewBox="0 0 31.000000 60.000000"
 preserveAspectRatio="xMidYMid meet">
<metadata>
Created by potrace 1.10, written by Peter Selinger 2001-2011
</metadata>
<g transform="translate(0.000000,60.000000) scale(0.100000,-0.100000)"
fill="#000000" stroke="none">
<path d="M211 550 c-18 -11 -9 -44 13 -48 21 -4 37 14 29 34 -6 17 -27 24 -42
14z"/>
<path d="M67 527 c-3 -9 0 -22 6 -32 17 -22 49 -9 45 19 -4 25 -43 34 -51 13z"/>
<path d="M135 433 c-42 -10 -62 -42 -75 -118 -20 -117 0 -213 52 -249 12 -9
42 -16 66 -16 60 0 105 44 121 118 14 68 14 78 -5 141 -26 88 -93 140 -159
124z m115 -148 c17 -62 6 -127 -30 -165 -34 -37 -54 -38 -84 -5 -55 59 -47
225 11 233 12 2 25 13 29 25 6 20 8 20 34 -12 15 -18 33 -52 40 -76z"/>
</g>
</svg>
