<?xml version="1.0" standalone="no"?>
<!DOCTYPE svg PUBLIC "-//W3C//DTD SVG 20010904//EN"
 "http://www.w3.org/TR/2001/REC-SVG-20010904/DTD/svg10.dtd">
<svg version="1.0" xmlns="http://www.w3.org/2000/svg"
 width="41.000000pt" height="62.000000pt" viewBox="0 0 41.000000 62.000000"
 preserveAspectRatio="xMidYMid meet">
<metadata>
Created by potrace 1.10, written by Peter Selinger 2001-2011
</metadata>
<g transform="translate(0.000000,62.000000) scale(0.100000,-0.100000)"
fill="#000000" stroke="none">
<path d="M211 504 c-33 -27 -41 -70 -19 -92 7 -7 33 -12 60 -12 37 0 50 4 58
19 18 34 12 78 -12 95 -31 22 -52 20 -87 -10z m79 -42 c0 -5 -6 -16 -13 -26
-11 -15 -17 -17 -35 -7 -26 14 -28 36 -5 50 18 9 53 -2 53 -17z"/>
<path d="M174 359 c-7 -6 -31 -29 -54 -51 -54 -51 -84 -116 -70 -152 16 -43
67 -43 161 2 3 1 11 -9 17 -23 12 -26 38 -31 101 -19 22 5 31 12 31 26 0 17
-4 19 -27 14 -58 -15 -68 -12 -71 16 -2 15 4 40 12 57 19 36 21 115 4 128 -18
14 -91 15 -104 2z m63 -40 c12 -12 5 -48 -16 -87 -16 -29 -80 -72 -109 -72
-52 0 -27 69 51 135 43 37 56 42 74 24z"/>
</g>
</svg>
