<?xml version="1.0" standalone="no"?>
<!DOCTYPE svg PUBLIC "-//W3C//DTD SVG 20010904//EN"
 "http://www.w3.org/TR/2001/REC-SVG-20010904/DTD/svg10.dtd">
<svg version="1.0" xmlns="http://www.w3.org/2000/svg"
 width="46.000000pt" height="57.000000pt" viewBox="0 0 46.000000 57.000000"
 preserveAspectRatio="xMidYMid meet">
<metadata>
Created by potrace 1.10, written by Peter Selinger 2001-2011
</metadata>
<g transform="translate(0.000000,57.000000) scale(0.100000,-0.100000)"
fill="#000000" stroke="none">
<path d="M246 495 c-31 -47 -11 -79 46 -73 31 3 33 6 36 42 2 24 -2 42 -10 47
-25 16 -56 9 -72 -16z m54 -36 c0 -23 -28 -26 -37 -3 -6 16 15 37 29 28 4 -3
8 -14 8 -25z"/>
<path d="M225 360 c-5 -6 -25 -22 -44 -37 -42 -34 -91 -109 -91 -140 0 -30 33
-63 63 -63 12 0 40 9 62 20 49 25 48 25 60 -2 18 -41 129 -32 143 11 5 14 -27
12 -85 -5 -32 -9 -38 26 -14 82 12 26 21 63 21 84 0 30 -5 39 -25 48 -31 14
-76 15 -90 2z m63 -58 c8 -56 -95 -157 -141 -139 -31 12 -18 47 42 108 62 64
93 74 99 31z"/>
</g>
</svg>
