<?xml version="1.0" standalone="no"?>
<!DOCTYPE svg PUBLIC "-//W3C//DTD SVG 20010904//EN"
 "http://www.w3.org/TR/2001/REC-SVG-20010904/DTD/svg10.dtd">
<svg version="1.0" xmlns="http://www.w3.org/2000/svg"
 width="46.000000pt" height="52.000000pt" viewBox="0 0 46.000000 52.000000"
 preserveAspectRatio="xMidYMid meet">
<metadata>
Created by potrace 1.10, written by Peter Selinger 2001-2011
</metadata>
<g transform="translate(0.000000,52.000000) scale(0.100000,-0.100000)"
fill="#000000" stroke="none">
<path d="M212 434 c-40 -27 -23 -84 25 -84 38 0 56 55 27 84 -19 20 -24 20
-52 0z m28 -34 c0 -5 -5 -10 -11 -10 -5 0 -7 5 -4 10 3 6 8 10 11 10 2 0 4 -4
4 -10z"/>
<path d="M189 312 c-15 -9 -53 -42 -84 -71 -43 -41 -60 -65 -67 -95 -17 -77
30 -86 114 -22 l46 35 5 -29 c16 -75 99 -60 194 35 60 60 78 95 51 95 -7 0
-33 -23 -57 -51 -94 -110 -182 -121 -150 -20 6 20 15 40 20 46 5 5 9 28 9 52
0 40 -2 43 -27 43 -16 0 -40 -8 -54 -18z m38 -49 c-21 -39 -149 -161 -155
-145 -8 26 70 120 137 165 32 21 36 16 18 -20z"/>
</g>
</svg>
