<?xml version="1.0" standalone="no"?>
<!DOCTYPE svg PUBLIC "-//W3C//DTD SVG 20010904//EN"
 "http://www.w3.org/TR/2001/REC-SVG-20010904/DTD/svg10.dtd">
<svg version="1.0" xmlns="http://www.w3.org/2000/svg"
 width="37.000000pt" height="74.000000pt" viewBox="0 0 37.000000 74.000000"
 preserveAspectRatio="xMidYMid meet">
<metadata>
Created by potrace 1.10, written by Peter Selinger 2001-2011
</metadata>
<g transform="translate(0.000000,74.000000) scale(0.100000,-0.100000)"
fill="#000000" stroke="none">
<path d="M47 646 c-6 -16 11 -36 30 -36 7 0 13 11 13 25 0 18 -5 25 -19 25
-10 0 -21 -6 -24 -14z"/>
<path d="M194 645 c-8 -19 12 -36 33 -28 19 7 12 37 -10 41 -9 2 -20 -4 -23
-13z"/>
<path d="M129 543 c-11 -29 -99 -438 -99 -460 0 -7 7 -13 15 -13 15 0 25 29
50 150 27 132 19 120 79 120 l53 0 49 -130 c37 -99 53 -130 66 -130 10 0 18 3
18 6 0 12 -143 390 -163 429 -31 62 -52 70 -68 28z m58 -100 c25 -63 21 -73
-29 -73 -18 0 -28 5 -28 14 0 24 23 116 29 116 3 0 16 -26 28 -57z"/>
</g>
</svg>
