<?xml version="1.0" standalone="no"?>
<!DOCTYPE svg PUBLIC "-//W3C//DTD SVG 20010904//EN"
 "http://www.w3.org/TR/2001/REC-SVG-20010904/DTD/svg10.dtd">
<svg version="1.0" xmlns="http://www.w3.org/2000/svg"
 width="36.000000pt" height="47.000000pt" viewBox="0 0 36.000000 47.000000"
 preserveAspectRatio="xMidYMid meet">
<metadata>
Created by potrace 1.10, written by Peter Selinger 2001-2011
</metadata>
<g transform="translate(0.000000,47.000000) scale(0.100000,-0.100000)"
fill="#000000" stroke="none">
<path d="M132 408 c-21 -21 -14 -48 13 -48 23 0 45 24 45 49 0 15 -43 14 -58
-1z"/>
<path d="M262 384 c-26 -18 -29 -39 -6 -48 28 -11 64 20 64 55 0 14 -33 11
-58 -7z"/>
<path d="M155 281 c-54 -16 -135 -109 -135 -154 0 -46 62 -60 123 -27 20 11
38 20 40 20 1 0 4 -14 5 -32 3 -42 20 -60 51 -56 36 4 42 38 6 38 l-26 0 7 80
c6 68 4 81 -10 86 -9 3 -16 14 -16 24 0 21 -17 29 -45 21z m5 -56 c0 -8 5 -15
10 -15 6 0 10 -6 10 -14 0 -22 -68 -76 -96 -76 -22 0 -24 3 -19 23 7 23 73 97
87 97 4 0 8 -7 8 -15z"/>
</g>
</svg>
