<?xml version="1.0" encoding="utf-8"?>
<svg xmlns="http://www.w3.org/2000/svg"  viewBox="0,0,400,377.77777777777777" width="100%">
<path d="M171.11111111111111 12.222222222222223 L 171.11111111111111,12.222222222222223 L 168.70141746684956,18.547477518671055 L 168.62368541380891,24.71726870903827 L 170.49382716049382,30.41152263374474 L 173.92775491540925,35.31016613321141 L 178.5413808870599,39.09312604785858 L 183.9506172839506,41.440329218107 L 189.77137631458618,42.03170248437737 L 195.61957018747142,40.54717268709042 L 201.11111111111111,36.666666666666664 L 201.11111111111111,36.666666666666664 L 204.75232434080166,31.897576588934648 L 206.86633135192807,26.662094192958342 L 207.5720164609054,21.234567901234474 L 206.98826398414874,15.889346136259771 L 205.23395823807348,10.900777320530324 L 202.4279835390946,6.543209876543238 L 198.68922420362753,3.0909922267946714 L 194.13656454808716,0.8184727937814135 L 188.88888888888889,0.0 L 188.88888888888889,0.0 L 186.96235329980183,0.1996646852614327 L 184.9169333942997,0.7742722146014103 L 182.79835390946505,1.6872427983538627 L 180.65233958238076,2.901996646852657 L 178.52461515012953,4.381953970431343 L 176.46090534979425,6.090534979423915 L 174.50693491845755,7.991159884163986 L 172.70842859320226,10.047248894985552 L 171.11111111111111,12.222222222222223 L 171.11111111111111,12.222222222222223 L 171.11111111111111,12.222222222222223 L 171.11111111111111,12.222222222222223 L 171.11111111111111,12.222222222222223 L 171.11111111111111,12.222222222222223 L 171.11111111111111,12.222222222222223 L 171.11111111111111,12.222222222222223 L 171.11111111111111,12.222222222222223 L 171.11111111111111,12.222222222222223 L 171.11111111111111,12.222222222222223"/></svg>
