<?xml version="1.0" encoding="utf-8"?>
<svg xmlns="http://www.w3.org/2000/svg"  viewBox="0,0,400,377.77777777777777" width="100%">
<path d="M171.11111111111111 12.222222222222223 L 171.11111111111111,12.222222222222223 L 168.70141746684956,18.547477518671055 L 168.62368541380891,24.71726870903827 L 170.49382716049382,30.41152263374474 L 173.92775491540925,35.31016613321141 L 178.5413808870599,39.09312604785858 L 183.9506172839506,41.440329218107 L 189.77137631458618,42.03170248437737 L 195.61957018747142,40.54717268709042 L 201.11111111111111,36.666666666666664 L 201.11111111111111,36.666666666666664 L 204.75232434080166,31.897576588934648 L 206.86633135192807,26.662094192958342 L 207.5720164609054,21.234567901234474 L 206.98826398414874,15.889346136259771 L 205.23395823807348,10.900777320530324 L 202.4279835390946,6.543209876543238 L 198.68922420362753,3.0909922267946714 L 194.13656454808716,0.8184727937814135 L 188.88888888888889,0.0 L 188.88888888888889,0.0 L 186.96235329980183,0.1996646852614327 L 184.9169333942997,0.7742722146014103 L 182.79835390946505,1.6872427983538627 L 180.65233958238076,2.901996646852657 L 178.52461515012953,4.381953970431343 L 176.46090534979425,6.090534979423915 L 174.50693491845755,7.991159884163986 L 172.70842859320226,10.047248894985552 L 171.11111111111111,12.222222222222223 L 171.11111111111111,12.222222222222223 L 171.11111111111111,12.222222222222223 L 171.11111111111111,12.222222222222223 L 171.11111111111111,12.222222222222223 L 171.11111111111111,12.222222222222223 L 171.11111111111111,12.222222222222223 L 171.11111111111111,12.222222222222223 L 171.11111111111111,12.222222222222223 L 171.11111111111111,12.222222222222223 L 171.11111111111111,12.222222222222223M177.77777777777777 106.66666666666666 L 171.11111111111111,12.222222222222223 L 168.70141746684956,18.547477518671055 L 168.62368541380891,24.71726870903827 L 170.49382716049382,30.41152263374474 L 173.92775491540925,35.31016613321141 L 178.5413808870599,39.09312604785858 L 183.9506172839506,41.440329218107 L 189.77137631458618,42.03170248437737 L 195.61957018747142,40.54717268709042 L 201.11111111111111,36.666666666666664 L 201.11111111111111,36.666666666666664 L 204.75232434080166,31.897576588934648 L 206.86633135192807,26.662094192958342 L 207.5720164609054,21.234567901234474 L 206.98826398414874,15.889346136259771 L 205.23395823807348,10.900777320530324 L 202.4279835390946,6.543209876543238 L 198.68922420362753,3.0909922267946714 L 194.13656454808716,0.8184727937814135 L 188.88888888888889,0.0 L 188.88888888888889,0.0 L 186.96235329980183,0.1996646852614327 L 184.9169333942997,0.7742722146014103 L 182.79835390946505,1.6872427983538627 L 180.65233958238076,2.901996646852657 L 178.52461515012953,4.381953970431343 L 176.46090534979425,6.090534979423915 L 174.50693491845755,7.991159884163986 L 172.70842859320226,10.047248894985552 L 171.11111111111111,12.222222222222223 L 171.11111111111111,12.222222222222223 L 171.11111111111111,12.222222222222223 L 171.11111111111111,12.222222222222223 L 171.11111111111111,12.222222222222223 L 171.11111111111111,12.222222222222223 L 171.11111111111111,12.222222222222223 L 171.11111111111111,12.222222222222223 L 171.11111111111111,12.222222222222223 L 171.11111111111111,12.222222222222223 L 171.11111111111111,12.222222222222223 L 177.77777777777777,106.66666666666666 L 170.04420057917997,110.41914342325867 L 161.0943453741808,115.6165218716659 L 151.19341563786008,122.05761316872423 L 140.60661484529797,129.54122847126962 L 129.59914647157444,137.8661789361378 L 118.43621399176956,146.8312757201646 L 107.38302088096326,156.23532998018595 L 96.70477061423563,165.87715287303763 L 86.66666666666667,175.55555555555557 L 86.66666666666667,175.55555555555557 L 73.13214449016917,188.73952141441853 L 62.011888431641516,200.36884621246756 L 53.086419753086425,210.7818930041152 L 46.136259716506636,220.3170248437738 L 40.94192958390489,229.31260478585583 L 37.28395061728395,238.10699588477368 L 34.942844078646544,247.03856119493977 L 33.69913122999543,256.44566377076666 L 33.333333333333336,266.6666666666667 L 33.333333333333336,266.6666666666667 L 33.572626124066446,274.21124828532237 L 34.26002133821064,281.920438957476 L 35.34979423868313,289.62962962962956 L 36.796220088401164,297.17421124828536 L 38.55357415028197,304.3895747599451 L 40.5761316872428,311.11111111111114 L 42.81816796220088,317.17421124828536 L 45.23395823807346,322.4142661179698 L 47.77777777777778,326.6666666666667 L 47.77777777777778,326.6666666666667 L 52.02255753696081,331.98140527358635 L 56.05700350556317,336.09815576893766 L 60.164609053497955,339.05349794238685 L 64.62886755067825,340.88401158360006 L 69.73327236701724,341.62627648224355 L 75.76131687242797,341.3168724279836 L 82.99649443682365,339.9923792104862 L 91.72229843011735,337.68937661941777 L 102.22222222222223,334.44444444444446 L 102.22222222222223,334.44444444444446 L 110.28501752781587,331.21932632220694 L 119.48178631306205,326.83279987806736 L 129.54732510288065,321.440329218107 L 140.21643042219176,315.1973784484073 L 151.22389879591526,308.25941167504953 L 162.30452674897117,300.7818930041152 L 173.19311080627952,292.92028654168575 L 183.62444749276023,284.83005639384237 L 193.33333333333334,276.6666666666667 L 193.33333333333334,276.6666666666667 L 207.08428593202248,264.71269623533 L 218.15576893766197,255.4381953970431 L 226.83127572016463,248.72427983539092 L 233.3942996494437,244.45206523395822 L 238.12833409541233,242.5026672763298 L 241.3168724279835,242.75720164609052 L 243.24340801707055,245.0967840268252 L 244.19143423258646,249.40253010211862 L 244.44444444444446,255.55555555555557 L 244.44444444444446,255.55555555555557 L 245.55403139765275,270.0167657369304 L 248.7120865721689,284.2493522328913 L 253.66255144032928,297.8600823045267 L 260.14936747447035,310.45572321292485 L 267.91647614692886,321.64304221917394 L 276.7078189300411,331.02880658436214 L 286.26733729614386,338.21978356957777 L 296.3389727175735,342.82274043590917 L 306.6666666666667,344.44444444444446 L 306.6666666666667,344.44444444444446 L 322.1582075903063,343.3729614388051 L 337.2656607224509,340.3170248437738 L 351.60493827160496,335.51440329218104 L 364.79195244627346,329.2028654168572 L 376.4426154549612,321.6201798506325 L 386.1728395061728,313.00411522633743 L 393.5985368084133,303.5924401768023 L 398.3356195701874,293.6229233348575 L 400.0,283.3333333333333 L 400.0,283.3333333333333 L 400.0,280.3703703703703 L 400.0,277.40740740740745 L 400.0,274.44444444444446 L 400.0,271.48148148148147 L 400.0,268.51851851851853 L 400.0,265.55555555555554 L 400.0,262.5925925925926 L 400.0,259.6296296296296 L 400.0,256.6666666666667 L 400.0,256.6666666666667 L 395.55555555555554,259.6296296296296 L 391.1111111111111,262.59259259259255 L 386.6666666666667,265.55555555555554 L 382.22222222222223,268.51851851851853 L 377.77777777777777,271.48148148148147 L 373.3333333333333,274.44444444444446 L 368.8888888888889,277.4074074074074 L 364.44444444444446,280.3703703703703 L 360.0,283.3333333333333 L 360.0,283.3333333333333 L 352.57735101356496,288.382868465173 L 345.2278616064624,293.11233043743334 L 338.1069958847737,297.4485596707819 L 331.3702179545801,301.3183965858863 L 325.1729919219631,304.6486816034141 L 319.6707818930041,307.3662551440329 L 315.0190519737844,309.39795762841027 L 311.37326627038556,310.6706294772139 L 308.8888888888889,311.11111111111114 L 308.8888888888889,311.11111111111114 L 300.52126200274347,307.37997256515774 L 293.30589849108367,297.0644718792867 L 287.40740740740745,281.48148148148147 L 282.99039780521264,261.94787379972564 L 280.2194787379973,239.78052126200276 L 279.25925925925924,216.2962962962963 L 280.2743484224966,192.81207133058987 L 283.4293552812071,170.64471879286694 L 288.8888888888889,151.1111111111111 L 288.8888888888889,151.1111111111111 L 290.6142356348116,145.74455113549763 L 292.0743789056546,140.11278768480412 L 293.2510288065844,134.36213991769543 L 294.1258954427679,128.63892699283645 L 294.6806889193721,123.08946806889193 L 294.8971193415637,117.86008230452674 L 294.75689681450996,113.09708885840574 L 294.24173144337755,108.94680688919372 L 293.3333333333333,105.55555555555556 L 293.3333333333333,105.55555555555556 L 288.71208657216874,99.30193568053656 L 281.05471726870906,94.62124676116446 L 270.78189300411526,91.52263374485598 L 258.31428135954883,90.01524157902755 L 244.0725499161713,90.10821521109588 L 228.47736625514403,91.81069958847742 L 211.94939795762843,95.13183965858863 L 194.90931260478587,100.08078036884619 L 177.77777777777777,106.66666666666666 L 177.77777777777777,106.66666666666666 L 177.77777777777777,106.66666666666666 L 177.77777777777777,106.66666666666666 L 177.77777777777777,106.66666666666666 L 177.77777777777777,106.66666666666666 L 177.77777777777777,106.66666666666666 L 177.77777777777777,106.66666666666666 L 177.77777777777777,106.66666666666666 L 177.77777777777777,106.66666666666666 L 177.77777777777777,106.66666666666666 L 244.44444444444446,145.55555555555557 L 244.44444444444446,145.55555555555557 L 244.44444444444446,145.55555555555557 L 244.44444444444446,145.55555555555557 L 244.44444444444446,145.55555555555557 L 244.44444444444446,145.55555555555557 L 244.44444444444446,145.55555555555557 L 244.44444444444446,145.55555555555557 L 244.44444444444446,145.55555555555557 L 244.44444444444446,145.55555555555557 L 244.44444444444446,145.55555555555557 L 240.04877305288824,159.9237921048621 L 228.04450541076056,178.93766194177712 L 210.2057613168724,200.90534979423867 L 188.3066605700351,224.1350403901844 L 164.12132296905958,246.9349184575522 L 139.4238683127572,267.61316872427983 L 115.98841639993904,284.4779759183051 L 95.58908702941626,295.83752476756587 L 80.0,300.0 L 80.0,300.0 L 71.53025453436975,296.17741197988113 L 69.9375095259869,285.7155921353452 L 74.27983539094649,270.12345679012344 L 83.61530254534371,250.90992226794697 L 97.00198140527358,229.58390489254683 L 113.49794238683127,207.65432098765433 L 132.16125590611185,186.63008687700048 L 152.04999237921047,168.02011888431645 L 172.22222222222223,153.33333333333334 L 172.22222222222223,153.33333333333334 L 184.35604328608446,146.59198292943157 L 196.12406645328454,141.2132296905959 L 207.24279835390948,137.24279835390945 L 217.42874561804607,134.7264136564548 L 226.39841487578116,133.70980033531472 L 233.86831275720164,134.23868312757205 L 239.55494589239441,136.35878677030942 L 243.1748209114464,140.11583600060965 L 244.44444444444446,145.55555555555557 L 244.44444444444446,145.55555555555557 L 244.44444444444446,145.55555555555557 L 244.44444444444446,145.55555555555557 L 244.44444444444446,145.55555555555557 L 244.44444444444446,145.55555555555557 L 244.44444444444446,145.55555555555557 L 244.44444444444446,145.55555555555557 L 244.44444444444446,145.55555555555557 L 244.44444444444446,145.55555555555557 L 244.44444444444446,145.55555555555557"/></svg>
