<?xml version="1.0" encoding="utf-8"?>
<svg xmlns="http://www.w3.org/2000/svg"  viewBox="0,0,400,545.5094151390448" width="100%">
<path d="M169.6969696969697 18.236687866317563 L 169.6969696969697,18.236687866317563 L 164.3795984536725,26.172839506173066 L 161.27696720289316,34.40828033420626 L 160.26936026936028,42.613792243421905 L 161.23706197780274,50.46015712682378 L 164.06035665294925,57.61815687741615 L 168.6195286195286,63.75857338820306 L 174.7948622022696,68.5521885521886 L 182.46664172590096,71.66978426237695 L 191.5151515151515,72.7821424117721 L 191.5151515151515,72.7821424117721 L 200.6035665294924,71.95410899114614 L 209.18318992393063,69.56977179199404 L 217.10437710437716,65.77877540840504 L 224.2174834767427,60.73076443446814 L 230.3728644469385,54.57538346427237 L 235.42087542087538,47.46227709190675 L 239.21187180446435,39.541089911460304 L 241.59620900361642,30.96146651702218 L 242.42424242424244,21.873051502681196 L 242.42424242424244,21.873051502681196 L 240.64845990771911,13.847113106372543 L 235.7600698341439,7.586980920314296 L 228.41750841750846,3.1525127821424626 L 219.2792118718045,0.6035665294924993 L 209.00361641102384,0.0 L 198.24915824915823,1.4016710313007659 L 187.67427360019954,4.868437461030115 L 177.93739867813943,10.460157126823919 L 169.6969696969697,18.236687866317563 L 169.6969696969697,18.236687866317563 L 169.6969696969697,18.236687866317563 L 169.6969696969697,18.236687866317563 L 169.6969696969697,18.236687866317563 L 169.6969696969697,18.236687866317563 L 169.6969696969697,18.236687866317563 L 169.6969696969697,18.236687866317563 L 169.6969696969697,18.236687866317563 L 169.6969696969697,18.236687866317563 L 169.6969696969697,18.236687866317563"/></svg>
