<?xml version="1.0" encoding="utf-8"?>
<svg xmlns="http://www.w3.org/2000/svg"  viewBox="0,0,400,545.5094151390448" width="100%">
<path d="M169.6969696969697 18.236687866317563 L 169.6969696969697,18.236687866317563 L 164.3795984536725,26.172839506173066 L 161.27696720289316,34.40828033420626 L 160.26936026936028,42.613792243421905 L 161.23706197780274,50.46015712682378 L 164.06035665294925,57.61815687741615 L 168.6195286195286,63.75857338820306 L 174.7948622022696,68.5521885521886 L 182.46664172590096,71.66978426237695 L 191.5151515151515,72.7821424117721 L 191.5151515151515,72.7821424117721 L 200.6035665294924,71.95410899114614 L 209.18318992393063,69.56977179199404 L 217.10437710437716,65.77877540840504 L 224.2174834767427,60.73076443446814 L 230.3728644469385,54.57538346427237 L 235.42087542087538,47.46227709190675 L 239.21187180446435,39.541089911460304 L 241.59620900361642,30.96146651702218 L 242.42424242424244,21.873051502681196 L 242.42424242424244,21.873051502681196 L 240.64845990771911,13.847113106372543 L 235.7600698341439,7.586980920314296 L 228.41750841750846,3.1525127821424626 L 219.2792118718045,0.6035665294924993 L 209.00361641102384,0.0 L 198.24915824915823,1.4016710313007659 L 187.67427360019954,4.868437461030115 L 177.93739867813943,10.460157126823919 L 169.6969696969697,18.236687866317563 L 169.6969696969697,18.236687866317563 L 169.6969696969697,18.236687866317563 L 169.6969696969697,18.236687866317563 L 169.6969696969697,18.236687866317563 L 169.6969696969697,18.236687866317563 L 169.6969696969697,18.236687866317563 L 169.6969696969697,18.236687866317563 L 169.6969696969697,18.236687866317563 L 169.6969696969697,18.236687866317563 L 169.6969696969697,18.236687866317563M196.36363636363637 170.9639605935903 L 169.6969696969697,18.236687866317563 L 164.3795984536725,26.172839506173066 L 161.27696720289316,34.40828033420626 L 160.26936026936028,42.613792243421905 L 161.23706197780274,50.46015712682378 L 164.06035665294925,57.61815687741615 L 168.6195286195286,63.75857338820306 L 174.7948622022696,68.5521885521886 L 182.46664172590096,71.66978426237695 L 191.5151515151515,72.7821424117721 L 191.5151515151515,72.7821424117721 L 200.6035665294924,71.95410899114614 L 209.18318992393063,69.56977179199404 L 217.10437710437716,65.77877540840504 L 224.2174834767427,60.73076443446814 L 230.3728644469385,54.57538346427237 L 235.42087542087538,47.46227709190675 L 239.21187180446435,39.541089911460304 L 241.59620900361642,30.96146651702218 L 242.42424242424244,21.873051502681196 L 242.42424242424244,21.873051502681196 L 240.64845990771911,13.847113106372543 L 235.7600698341439,7.586980920314296 L 228.41750841750846,3.1525127821424626 L 219.2792118718045,0.6035665294924993 L 209.00361641102384,0.0 L 198.24915824915823,1.4016710313007659 L 187.67427360019954,4.868437461030115 L 177.93739867813943,10.460157126823919 L 169.6969696969697,18.236687866317563 L 169.6969696969697,18.236687866317563 L 169.6969696969697,18.236687866317563 L 169.6969696969697,18.236687866317563 L 169.6969696969697,18.236687866317563 L 169.6969696969697,18.236687866317563 L 169.6969696969697,18.236687866317563 L 169.6969696969697,18.236687866317563 L 169.6969696969697,18.236687866317563 L 169.6969696969697,18.236687866317563 L 169.6969696969697,18.236687866317563 L 196.36363636363637,170.9639605935903 L 164.01712599243464,187.03745271646517 L 133.8654030012055,209.1366338279919 L 106.84624017957354,235.6553186182816 L 83.89741031716342,264.9873217774453 L 65.95668620359979,295.52645799559383 L 53.96184062850729,325.6665419628383 L 48.85064638151058,353.80138836928955 L 51.56087625223427,378.3248119050588 L 63.03030303030303,397.630627260257 L 63.03030303030303,397.630627260257 L 71.70636405204304,403.92235108284495 L 82.87650164193373,408.27867148854807 L 96.07182940516275,410.73949370245674 L 110.82346094691773,411.3447229496613 L 126.66250987238642,410.1342644552522 L 143.12008978675644,407.1480234443198 L 159.72731429521548,402.42590514195456 L 176.01529700295129,396.00781477324693 L 191.5151515151515,387.93365756328717 L 191.5151515151515,387.93365756328717 L 206.34991894251147,378.9649582242176 L 217.9822920563661,372.30078563411905 L 226.80134680134688,368.0009976306273 L 233.19615912208508,366.12545205137803 L 237.55580496321238,366.73400673400675 L 240.26936026936022,369.8865195161492 L 241.72590098516022,375.6428482354409 L 242.3145030552438,384.06285072951744 L 242.42424242424244,395.2063848360145 L 242.42424242424244,395.2063848360145 L 243.22567236147478,411.27488880575305 L 245.60335868977842,425.5277050338779 L 249.51739618406287,437.94488090784387 L 254.92787961923764,448.5064638151058 L 261.7949037702124,457.1925011431185 L 270.07856341189677,463.98304027933665 L 279.7389533192002,468.858128611215 L 290.7361682670324,471.7978135262086 L 303.030303030303,472.7821424117721 L 303.030303030303,472.7821424117721 L 311.6199027310138,472.5510246497901 L 318.8627010849233,471.8310678804506 L 324.84848484848493,470.58236687866315 L 329.66704077815194,468.7650164193374 L 333.40815563037785,466.33911127738287 L 336.16161616161617,463.2647462277092 L 338.01720912832025,459.50201604522596 L 339.0647212869435,455.01101550484276 L 339.3939393939394,449.75183938146904 L 339.3939393939394,449.75183938146904 L 339.0381178035499,444.7254437377894 L 337.98395477407826,440.15795818264957 L 336.25140291806963,436.05935902232204 L 333.8604148480692,432.4396225630793 L 330.83094317662227,429.3087251111943 L 327.18294051627385,426.6766429729393 L 322.9363594795694,424.553352454587 L 318.1111526790539,422.94882986241015 L 312.72727272727275,421.87305150268116 L 312.72727272727275,421.87305150268116 L 304.7545412977512,420.5029721079104 L 298.5077108533899,418.36471713014924 L 293.8271604938272,414.7798977428607 L 290.5532693187014,409.07012511950785 L 288.52641642765104,400.55701043355367 L 287.5869809203142,388.5621648584612 L 287.5753418963295,372.4071995676935 L 288.3318784553352,351.4137257347134 L 289.6969696969697,324.9033545329842 L 289.6969696969697,324.9033545329842 L 290.3138379681589,301.1796982167354 L 290.50172506962633,281.4665170220726 L 290.19079685746357,265.37473500436465 L 289.31121918776245,252.51527621897995 L 287.79315791661475,242.499064721287 L 285.5667789001122,234.93702456665423 L 282.56224799434676,229.44007981045027 L 278.70973105541003,225.61915450804344 L 273.93939393939394,223.08517271480238 L 273.93939393939394,223.08517271480238 L 270.4011306480442,221.52886893627638 L 267.0923224009644,219.34405786257642 L 264.06285072951744,216.62052625015588 L 261.3625971650663,213.4480608554683 L 259.0414432389741,209.91644843496698 L 257.1492704826038,206.11547574510544 L 255.73596042731845,202.13492954233698 L 254.851394604481,198.06459658311522 L 254.54545454545453,193.9942636238933 L 254.54545454545453,193.9942636238933 L 253.7473500436463,185.42295381801569 L 251.39294176331217,178.30818472793783 L 247.5420875420876,172.6699089662053 L 242.2546452176082,168.52807914536317 L 235.59047262750966,165.90264787795658 L 227.6094276094276,164.8135677765308 L 218.37136800099762,165.280791453631 L 207.93615163985532,167.32427152180247 L 196.36363636363637,170.9639605935903 L 196.36363636363637,170.9639605935903 L 196.36363636363637,170.9639605935903 L 196.36363636363637,170.9639605935903 L 196.36363636363637,170.9639605935903 L 196.36363636363637,170.9639605935903 L 196.36363636363637,170.9639605935903 L 196.36363636363637,170.9639605935903 L 196.36363636363637,170.9639605935903 L 196.36363636363637,170.9639605935903 L 196.36363636363637,170.9639605935903 L 218.1818181818182,244.9033545329842 L 218.1818181818182,244.9033545329842 L 218.1818181818182,244.9033545329842 L 218.1818181818182,244.9033545329842 L 218.1818181818182,244.9033545329842 L 218.1818181818182,244.9033545329842 L 218.1818181818182,244.9033545329842 L 218.1818181818182,244.9033545329842 L 218.1818181818182,244.9033545329842 L 218.1818181818182,244.9033545329842 L 218.1818181818182,244.9033545329842 L 225.7072785467847,255.88560502140763 L 230.43937315542257,266.3191586648377 L 232.27833894500566,276.37361266990894 L 231.1244128528079,286.21856424325557 L 226.87783181610342,296.02361059151184 L 219.43883277216608,305.95834892131194 L 208.70765265826998,316.19237643929006 L 194.58452841168892,326.89529035208056 L 176.96969696969697,338.23668786631754 L 176.96969696969697,338.23668786631754 L 150.34293552812068,352.8237103545747 L 128.80409028557176,360.56698673982623 L 112.59259259259261,361.9852849482479 L 101.94787379972564,357.597372906015 L 97.10936525751339,347.9220185393025 L 98.31649831649831,333.47798977428613 L 105.80870432722284,314.784054537141 L 119.82541464022943,292.35898075404253 L 140.6060606060606,266.72153635116604 L 140.6060606060606,266.72153635116604 L 148.5754666001579,258.0354990231534 L 156.23560709980464,249.84827700877088 L 163.4567901234568,242.29953859583492 L 170.10932368957057,235.52895207216199 L 176.06351581660223,229.6761857255685 L 181.18967452300782,224.88090784387083 L 185.35810782724363,221.28278671488556 L 188.4391237477657,219.02149062642894 L 190.3030303030303,218.23668786631754 L 190.3030303030303,218.23668786631754 L 191.81776613875377,218.67231990688794 L 193.89117512574302,219.92600906181158 L 196.45342312008978,221.91794488090787 L 199.4346759778858,224.56831691399591 L 202.76509955522303,227.79731471089502 L 206.37485970819301,231.5251278214242 L 210.19412229288773,235.67194579540265 L 214.15305316539883,240.15795818264957 L 218.1818181818182,244.9033545329842 L 218.1818181818182,244.9033545329842 L 218.1818181818182,244.9033545329842 L 218.1818181818182,244.9033545329842 L 218.1818181818182,244.9033545329842 L 218.1818181818182,244.9033545329842 L 218.1818181818182,244.9033545329842 L 218.1818181818182,244.9033545329842 L 218.1818181818182,244.9033545329842 L 218.1818181818182,244.9033545329842 L 218.1818181818182,244.9033545329842"/></svg>
