<?xml version="1.0" encoding="utf-8"?>
<svg xmlns="http://www.w3.org/2000/svg"  viewBox="0,0,400,734.0858174346096" width="100%">
<path d="M76.28533512179112 40.58277087287202 L 76.28533512179112,40.58277087287202 L 72.94814899375464,49.213031007862696 L 71.98542597164155,58.97344425576852 L 73.10035816721131,69.24756346409038 L 75.99613769222356,79.41894148032925 L 80.37595665843786,88.87113115198555 L 85.94300717761384,96.98768532656011 L 92.40048136151105,103.1521568515532 L 99.4515713218891,106.74809857446594 L 106.79946917050758,107.15906334279882 L 106.79946917050758,107.15906334279882 L 118.21325456508605,103.55170593187697 L 128.24574171054573,97.7182893591518 L 136.6457854706831,90.20676664906745 L 143.16224070929474,81.56509082606773 L 147.54396229017726,72.34121491459628 L 149.53980507712726,63.08309193909737 L 148.89862393394122,54.33867492401426 L 145.36927372441576,46.655916893791314 L 138.7006093123475,40.58277087287202 L 138.7006093123475,40.58277087287202 L 129.61942950099174,35.240228884544806 L 120.91496739394111,31.23332239329894 L 112.65571711925114,28.562051399135054 L 104.91017280497724,27.226415902053308 L 97.74682857917495,27.226415902053386 L 91.23417856989968,28.562051399135285 L 85.44071690520698,31.23332239329894 L 80.43493771315231,35.24022888454465 L 76.28533512179112,40.58277087287202 L 76.28533512179112,40.58277087287202 L 76.28533512179112,40.58277087287202 L 76.28533512179112,40.58277087287202 L 76.28533512179112,40.58277087287202 L 76.28533512179112,40.58277087287202 L 76.28533512179112,40.58277087287202 L 76.28533512179112,40.58277087287202 L 76.28533512179112,40.58277087287202 L 76.28533512179112,40.58277087287202 L 76.28533512179112,40.58277087287202"/></svg>
