<?xml version="1.0" encoding="utf-8"?>
<svg xmlns="http://www.w3.org/2000/svg"  viewBox="0,0,400,734.0858174346096" width="100%">
<path d="M76.28533512179112 40.58277087287202 L 76.28533512179112,40.58277087287202 L 72.94814899375464,49.213031007862696 L 71.98542597164155,58.97344425576852 L 73.10035816721131,69.24756346409038 L 75.99613769222356,79.41894148032925 L 80.37595665843786,88.87113115198555 L 85.94300717761384,96.98768532656011 L 92.40048136151105,103.1521568515532 L 99.4515713218891,106.74809857446594 L 106.79946917050758,107.15906334279882 L 106.79946917050758,107.15906334279882 L 118.21325456508605,103.55170593187697 L 128.24574171054573,97.7182893591518 L 136.6457854706831,90.20676664906745 L 143.16224070929474,81.56509082606773 L 147.54396229017726,72.34121491459628 L 149.53980507712726,63.08309193909737 L 148.89862393394122,54.33867492401426 L 145.36927372441576,46.655916893791314 L 138.7006093123475,40.58277087287202 L 138.7006093123475,40.58277087287202 L 129.61942950099174,35.240228884544806 L 120.91496739394111,31.23332239329894 L 112.65571711925114,28.562051399135054 L 104.91017280497724,27.226415902053308 L 97.74682857917495,27.226415902053386 L 91.23417856989968,28.562051399135285 L 85.44071690520698,31.23332239329894 L 80.43493771315231,35.24022888454465 L 76.28533512179112,40.58277087287202 L 76.28533512179112,40.58277087287202 L 76.28533512179112,40.58277087287202 L 76.28533512179112,40.58277087287202 L 76.28533512179112,40.58277087287202 L 76.28533512179112,40.58277087287202 L 76.28533512179112,40.58277087287202 L 76.28533512179112,40.58277087287202 L 76.28533512179112,40.58277087287202 L 76.28533512179112,40.58277087287202 L 76.28533512179112,40.58277087287202M144.2486336848414 184.83140455771346 L 76.28533512179112,40.58277087287202 L 72.94814899375464,49.213031007862696 L 71.98542597164155,58.97344425576852 L 73.10035816721131,69.24756346409038 L 75.99613769222356,79.41894148032925 L 80.37595665843786,88.87113115198555 L 85.94300717761384,96.98768532656011 L 92.40048136151105,103.1521568515532 L 99.4515713218891,106.74809857446594 L 106.79946917050758,107.15906334279882 L 106.79946917050758,107.15906334279882 L 118.21325456508605,103.55170593187697 L 128.24574171054573,97.7182893591518 L 136.6457854706831,90.20676664906745 L 143.16224070929474,81.56509082606773 L 147.54396229017726,72.34121491459628 L 149.53980507712726,63.08309193909737 L 148.89862393394122,54.33867492401426 L 145.36927372441576,46.655916893791314 L 138.7006093123475,40.58277087287202 L 138.7006093123475,40.58277087287202 L 129.61942950099174,35.240228884544806 L 120.91496739394111,31.23332239329894 L 112.65571711925114,28.562051399135054 L 104.91017280497724,27.226415902053308 L 97.74682857917495,27.226415902053386 L 91.23417856989968,28.562051399135285 L 85.44071690520698,31.23332239329894 L 80.43493771315231,35.24022888454465 L 76.28533512179112,40.58277087287202 L 76.28533512179112,40.58277087287202 L 76.28533512179112,40.58277087287202 L 76.28533512179112,40.58277087287202 L 76.28533512179112,40.58277087287202 L 76.28533512179112,40.58277087287202 L 76.28533512179112,40.58277087287202 L 76.28533512179112,40.58277087287202 L 76.28533512179112,40.58277087287202 L 76.28533512179112,40.58277087287202 L 76.28533512179112,40.58277087287202 L 144.2486336848414,184.83140455771346 L 124.81913269310348,193.7470568929353 L 109.53352644872216,202.42297977996265 L 97.70687367114259,212.8797499964325 L 88.65423307980994,227.1379443199817 L 81.69066339416945,247.21813952824672 L 76.13122333366628,275.1409123988641 L 71.2909716177457,312.92683970947076 L 66.48496696585282,362.5964982377032 L 61.0282680974329,426.1704647611981 L 61.0282680974329,426.1704647611981 L 58.792695862288724,481.8067228889302 L 62.150810751675486,532.0091135242607 L 70.94279313346367,576.4808287789494 L 85.0088233755238,614.9250607647559 L 104.18908184572649,647.0450015934398 L 128.32374891194223,672.5438433767606 L 157.25300494204157,691.1247782264777 L 190.8170303038951,702.4909982543511 L 228.85600536537336,706.34569557214 L 228.85600536537336,706.34569557214 L 265.71155410322626,702.591836831766 L 298.49170222177827,691.520522077465 L 327.0252144008905,673.4171435094679 L 351.1408553204241,648.5670933280061 L 370.6673896602406,617.2557637333106 L 385.43358210020125,579.7685469256126 L 395.26819732016725,536.3908351051433 L 400.0,487.4080204721339 L 399.4577548195608,433.10549522681544 L 399.4577548195608,433.10549522681544 L 392.3495864191365,372.30744350423583 L 378.0381188848776,318.0277496349358 L 357.3338660654405,271.0312647155352 L 331.04734180948174,232.0828398426538 L 299.9890599656578,201.94732611291064 L 264.96953438262534,181.38957462292558 L 226.7992789090408,171.17443646931795 L 186.28880739356063,172.06676274870742 L 144.2486336848414,184.83140455771346 L 144.2486336848414,184.83140455771346 L 144.2486336848414,184.83140455771346 L 144.2486336848414,184.83140455771346 L 144.2486336848414,184.83140455771346 L 144.2486336848414,184.83140455771346 L 144.2486336848414,184.83140455771346 L 144.2486336848414,184.83140455771346 L 144.2486336848414,184.83140455771346 L 144.2486336848414,184.83140455771346 L 144.2486336848414,184.83140455771346 L 303.754334394041,323.53201387006095 L 303.754334394041,323.53201387006095 L 303.754334394041,323.53201387006095 L 303.754334394041,323.53201387006095 L 303.754334394041,323.53201387006095 L 303.754334394041,323.53201387006095 L 303.754334394041,323.53201387006095 L 303.754334394041,323.53201387006095 L 303.754334394041,323.53201387006095 L 303.754334394041,323.53201387006095 L 303.754334394041,323.53201387006095 L 317.36754234506765,353.89013351598436 L 327.69303214943136,384.6478022422314 L 334.730803807132,415.4853807845431 L 338.48085731816957,446.0832298786608 L 338.943192682544,476.1217102603253 L 336.1178099002554,505.2811826652778 L 330.0047089713038,533.2420078292594 L 320.6038898956891,559.6845464880112 L 307.91535267341146,584.2891593772742 L 307.91535267341146,584.2891593772742 L 280.81450933945973,619.6682791325981 L 252.92598353287008,640.3668241080305 L 225.31143423850233,647.2181395282468 L 199.03252044121638,641.0555706179217 L 175.15090112587222,622.7124626017304 L 154.7282352773299,593.022160704348 L 138.8261818804492,552.8180101504494 L 128.5063999200902,502.93335616470944 L 124.83054838111275,444.2015439718033 L 124.83054838111275,444.2015439718033 L 125.6049125510733,411.5241370453347 L 127.94322597830069,382.81938954608364 L 131.86832003881335,358.0530544100229 L 137.40302610862977,337.19088457312455 L 144.57017556376852,320.1986329713609 L 153.392599780248,307.0420525407041 L 163.89313013408673,297.68689621712645 L 176.0945980013033,292.0989169366001 L 190.01983475791607,290.24386763509756 L 190.01983475791607,290.24386763509756 L 196.22806642027808,289.9394492881844 L 201.87692937018704,289.0414151647902 L 206.92076085560586,287.57259664093374 L 211.3138981244976,285.5558250926336 L 215.01067842482536,283.013931895908 L 217.96543900455202,279.96974842677554 L 220.13251711164068,276.4461060612547 L 221.46624999405435,272.46583617536396 L 221.920974899756,268.0517701451219 L 221.920974899756,268.0517701451219 L 223.58576273443776,256.43821021038167 L 228.25287651555152,250.04161969586698 L 235.4314416586995,248.53094364931005 L 244.6305835794841,251.57512711844254 L 255.3594276935078,258.8431151509963 L 267.1270994163729,270.00385279470316 L 279.44272416368193,284.7262850972949 L 291.8154273510371,302.67935710650363 L 303.754334394041,323.53201387006095 L 303.754334394041,323.53201387006095 L 303.754334394041,323.53201387006095 L 303.754334394041,323.53201387006095 L 303.754334394041,323.53201387006095 L 303.754334394041,323.53201387006095 L 303.754334394041,323.53201387006095 L 303.754334394041,323.53201387006095 L 303.754334394041,323.53201387006095 L 303.754334394041,323.53201387006095 L 303.754334394041,323.53201387006095"/></svg>
