<?xml version="1.0" encoding="utf-8"?>
<svg xmlns="http://www.w3.org/2000/svg"  viewBox="0,0,400,379.15343915343914" width="100%">
<path d="M163.8095238095238 99.15343915343914 L 163.8095238095238,99.15343915343914 L 154.32229407538046,104.16356391665042 L 144.4196224443138,110.16918152720618 L 134.32098765432102,116.96649029982359 L 124.2458684433993,124.35168854921943 L 114.41374354954601,132.12097459011034 L 105.04409171075837,140.07054673721342 L 96.35639166503366,147.9966033052453 L 88.57012215036907,155.69534260892283 L 81.9047619047619,162.96296296296293 L 81.9047619047619,162.96296296296293 L 71.13332026912272,177.3427395649618 L 61.7649748513946,191.08759553203996 L 53.93298059964728,203.91534391534384 L 47.77059246195049,215.54379776601996 L 43.41106538637402,225.69077013521456 L 40.98765432098765,234.07407407407402 L 40.63361421386113,240.41152263374485 L 42.48220001306421,244.42092886537327 L 46.666666666666664,245.8201058201058 L 46.666666666666664,245.8201058201058 L 48.53092951858383,246.1271147690901 L 50.29329152785944,247.00633614213857 L 51.92239858906526,248.39506172839504 L 53.38689659677314,250.23058331700307 L 54.6554314455549,252.45019269710622 L 55.69664902998236,254.9911816578483 L 56.47919524462734,257.79084198837285 L 56.97171598406167,260.78646547782347 L 57.142857142857146,263.9153439153439 L 57.142857142857146,263.9153439153439 L 59.451303155006855,275.6731334509113 L 66.01606897903194,283.6919459141681 L 76.29629629629629,288.042328042328 L 89.75112678816383,288.7948265726043 L 105.83970213599844,286.01998824221045 L 124.02116402116401,279.7883597883598 L 143.75465412502447,270.1704879482657 L 164.49931412894372,257.2369194591417 L 185.71428571428572,241.05820105820104 L 185.71428571428572,241.05820105820104 L 200.30308968580567,229.44150499706058 L 211.91325364164868,220.57613168724276 L 220.88183421516757,214.39153439153438 L 227.5458880397152,210.8171663727219 L 232.2424717486446,209.782480893592 L 235.30864197530866,211.21693121693124 L 237.08145535306028,215.04997060552614 L 237.89796851525244,221.21105232216343 L 238.0952380952381,229.62962962962962 L 238.0952380952381,229.62962962962962 L 239.01887778430984,240.84786726762033 L 241.67483179828858,251.50956953426083 L 245.89065255731924,261.41093474426805 L 251.4938924815468,270.3481612123587 L 258.3121039911164,278.11744725324974 L 266.1728395061728,284.5149911816578 L 274.9036514468613,289.3369913123 L 284.33209223332676,292.3796459598929 L 294.2857142857143,293.4391534391534 L 294.2857142857143,293.4391534391534 L 306.94101508916316,291.64151806127114 L 321.45404663923176,286.6771180351427 L 336.9312169312169,279.1887125220459 L 352.4789339604154,269.8190606832582 L 367.2036057221242,259.2109216800574 L 380.2116402116402,248.00705467372134 L 390.6094454242602,236.85021882552746 L 397.5034293552811,226.38317329675354 L 400.0,217.24867724867724 L 400.0,217.24867724867724 L 399.8641322098111,209.93141289437585 L 399.19524462734336,204.56594160297863 L 397.60141093474437,201.26984126984124 L 394.6907048141616,200.1606897903194 L 390.07119994774314,201.3560650597687 L 383.35097001763666,204.97354497354493 L 374.13808870598996,211.1307074270037 L 362.04062969495067,219.94513031550068 L 346.6666666666667,231.53439153439152 L 346.6666666666667,231.53439153439152 L 338.7575935724083,237.44333398654388 L 331.0131295316481,243.03873538441437 L 323.59788359788365,248.21869488536151 L 316.676464824613,252.8813116467437 L 310.4134822653341,256.92468482591937 L 304.97354497354496,260.2469135802469 L 300.5212620027435,262.7460970670847 L 297.22124240642756,264.3203344437912 L 295.23809523809524,264.86772486772486 L 295.23809523809524,264.86772486772486 L 288.4329479391207,263.29740675419686 L 282.6311320138481,258.6543863087073 L 277.8483245149912,251.04056437389767 L 274.1002024952642,240.5578417924097 L 271.4024430073813,227.30811940688483 L 269.7707231040564,211.3932980599647 L 269.2207198380038,192.91527859429092 L 269.76811026193735,171.97596185250507 L 271.42857142857144,148.67724867724866 L 271.42857142857144,148.67724867724866 L 272.06349206349205,140.42328042328043 L 272.6984126984127,132.16931216931218 L 273.3333333333333,123.91534391534388 L 273.968253968254,115.66137566137562 L 274.6031746031746,107.4074074074074 L 275.23809523809524,99.15343915343914 L 275.8730158730159,90.89947089947091 L 276.5079365079365,82.64550264550265 L 277.14285714285717,74.39153439153436 L 277.14285714285717,74.39153439153436 L 273.6507936507936,74.39153439153436 L 270.1587301587302,74.39153439153436 L 266.6666666666667,74.39153439153436 L 263.17460317460313,74.39153439153436 L 259.6825396825397,74.39153439153436 L 256.1904761904762,74.39153439153436 L 252.69841269841268,74.39153439153436 L 249.20634920634922,74.39153439153436 L 245.71428571428572,74.39153439153436 L 245.71428571428572,74.39153439153436 L 239.0175713632503,74.80175060421982 L 231.15291658501536,75.98014239989544 L 222.36331569664907,77.84832451499109 L 212.89176301521982,80.32791168593636 L 202.9812528577961,83.3405186491606 L 192.87477954144617,86.80776014109348 L 182.8153373832386,90.65125089816449 L 173.04592070024168,94.79260565680318 L 163.8095238095238,99.15343915343914 L 163.8095238095238,99.15343915343914 L 163.8095238095238,99.15343915343914 L 163.8095238095238,99.15343915343914 L 163.8095238095238,99.15343915343914 L 163.8095238095238,99.15343915343914 L 163.8095238095238,99.15343915343914 L 163.8095238095238,99.15343915343914 L 163.8095238095238,99.15343915343914 L 163.8095238095238,99.15343915343914 L 163.8095238095238,99.15343915343914 L 238.0952380952381,120.10582010582009 L 238.0952380952381,120.10582010582009 L 238.0952380952381,120.10582010582009 L 238.0952380952381,120.10582010582009 L 238.0952380952381,120.10582010582009 L 238.0952380952381,120.10582010582009 L 238.0952380952381,120.10582010582009 L 238.0952380952381,120.10582010582009 L 238.0952380952381,120.10582010582009 L 238.0952380952381,120.10582010582009 L 238.0952380952381,120.10582010582009 L 236.34463387549803,126.70716571951142 L 231.42726500751195,135.9500947155268 L 223.84479717813056,147.23104056437384 L 214.09889607420473,159.94643673656017 L 202.69122738258542,173.49271670259324 L 190.12345679012347,187.26631393298058 L 176.89724998366975,200.66366189822978 L 163.5142726500751,213.08119406884836 L 150.47619047619048,223.9153439153439 L 150.47619047619048,223.9153439153439 L 130.01502384218432,239.0750538898687 L 113.2066104905611,249.10836762688612 L 100.24691358024694,254.17989417989412 L 91.33189627016786,254.45424260239074 L 86.65752171925011,250.09602194787377 L 86.41975308641975,241.26984126984127 L 90.81455353060291,228.14030962179112 L 100.03788621072572,210.8720360572212 L 114.28571428571429,189.6296296296296 L 114.28571428571429,189.6296296296296 L 120.04311189496373,182.21307727480573 L 126.41191456006271,174.67110849826898 L 133.2275132275132,167.16049382716045 L 140.32529884381736,159.83800378862105 L 147.5406623554772,152.8604089097916 L 154.7089947089947,146.38447971781304 L 161.66568685087202,140.56698673982623 L 168.24612972761122,135.5647005029721 L 174.28571428571428,131.53439153439152 L 174.28571428571428,131.53439153439152 L 184.75145339342868,125.68685087203612 L 195.01339081585996,120.87399568881042 L 204.79717813051147,117.1428571428571 L 213.82846691488666,114.5404663923182 L 221.832908746489,113.11385459533604 L 228.53615520282182,112.9100529100529 L 233.66385786138875,113.976092494611 L 236.941668299693,116.35900450715266 L 238.0952380952381,120.10582010582009 L 238.0952380952381,120.10582010582009 L 238.0952380952381,120.10582010582009 L 238.0952380952381,120.10582010582009 L 238.0952380952381,120.10582010582009 L 238.0952380952381,120.10582010582009 L 238.0952380952381,120.10582010582009 L 238.0952380952381,120.10582010582009 L 238.0952380952381,120.10582010582009 L 238.0952380952381,120.10582010582009 L 238.0952380952381,120.10582010582009"/></svg>
