<?xml version="1.0" encoding="utf-8"?>
<svg xmlns="http://www.w3.org/2000/svg"  viewBox="0,0,400,557.8386359135021" width="100%">
<path d="M81.38065143412736 3.9251697005707427 L 81.38065143412736,3.9251697005707427 L 79.37725442181768,4.850645492356701 L 77.47468745686213,6.402708006986069 L 75.7089612704586,8.494931489583724 L 74.11608659380495,11.040890185275142 L 72.7320741580991,13.954158339185005 L 71.59293469453895,17.148310196438587 L 70.73467893432242,20.536920002160567 L 70.19331760864735,24.03356200147643 L 70.00486144871171,27.55181043951094 L 70.00486144871171,27.55181043951094 L 71.66855723005452,40.28160391796764 L 76.18430292227082,50.8939664019878 L 82.8390860476422,59.15122706566551 L 90.91989412845025,64.81571508309477 L 99.7137146869767,67.64975962836927 L 108.5075352455031,67.41568987558297 L 116.5883433263112,63.8758349988296 L 123.24312645168257,56.79252417220334 L 127.75887214389886,45.92808656979777 L 127.75887214389886,45.92808656979777 L 129.5101940378232,35.06725004051212 L 129.06486132867593,25.35155476331941 L 126.62453411116512,16.953852247969788 L 122.390872479999,10.046994004213191 L 116.56553652988589,4.803831541799366 L 109.35018635553392,1.3972163704783536 L 100.94648205165139,0.0 L 91.55608371294645,0.7850339401141486 L 81.38065143412736,3.9251697005707427 L 81.38065143412736,3.9251697005707427 L 81.38065143412736,3.9251697005707427 L 81.38065143412736,3.9251697005707427 L 81.38065143412736,3.9251697005707427 L 81.38065143412736,3.9251697005707427 L 81.38065143412736,3.9251697005707427 L 81.38065143412736,3.9251697005707427 L 81.38065143412736,3.9251697005707427 L 81.38065143412736,3.9251697005707427 L 81.38065143412736,3.9251697005707427"/></svg>
