<?xml version="1.0" encoding="utf-8"?>
<svg xmlns="http://www.w3.org/2000/svg"  viewBox="0,0,400,557.8386359135021" width="100%">
<path d="M81.38065143412736 3.9251697005707427 L 81.38065143412736,3.9251697005707427 L 79.37725442181768,4.850645492356701 L 77.47468745686213,6.402708006986069 L 75.7089612704586,8.494931489583724 L 74.11608659380495,11.040890185275142 L 72.7320741580991,13.954158339185005 L 71.59293469453895,17.148310196438587 L 70.73467893432242,20.536920002160567 L 70.19331760864735,24.03356200147643 L 70.00486144871171,27.55181043951094 L 70.00486144871171,27.55181043951094 L 71.66855723005452,40.28160391796764 L 76.18430292227082,50.8939664019878 L 82.8390860476422,59.15122706566551 L 90.91989412845025,64.81571508309477 L 99.7137146869767,67.64975962836927 L 108.5075352455031,67.41568987558297 L 116.5883433263112,63.8758349988296 L 123.24312645168257,56.79252417220334 L 127.75887214389886,45.92808656979777 L 127.75887214389886,45.92808656979777 L 129.5101940378232,35.06725004051212 L 129.06486132867593,25.35155476331941 L 126.62453411116512,16.953852247969788 L 122.390872479999,10.046994004213191 L 116.56553652988589,4.803831541799366 L 109.35018635553392,1.3972163704783536 L 100.94648205165139,0.0 L 91.55608371294645,0.7850339401141486 L 81.38065143412736,3.9251697005707427 L 81.38065143412736,3.9251697005707427 L 81.38065143412736,3.9251697005707427 L 81.38065143412736,3.9251697005707427 L 81.38065143412736,3.9251697005707427 L 81.38065143412736,3.9251697005707427 L 81.38065143412736,3.9251697005707427 L 81.38065143412736,3.9251697005707427 L 81.38065143412736,3.9251697005707427 L 81.38065143412736,3.9251697005707427 L 81.38065143412736,3.9251697005707427M170.6368497812348 161.43610796017208 L 81.38065143412736,3.9251697005707427 L 79.37725442181768,4.850645492356701 L 77.47468745686213,6.402708006986069 L 75.7089612704586,8.494931489583724 L 74.11608659380495,11.040890185275142 L 72.7320741580991,13.954158339185005 L 71.59293469453895,17.148310196438587 L 70.73467893432242,20.536920002160567 L 70.19331760864735,24.03356200147643 L 70.00486144871171,27.55181043951094 L 70.00486144871171,27.55181043951094 L 71.66855723005452,40.28160391796764 L 76.18430292227082,50.8939664019878 L 82.8390860476422,59.15122706566551 L 90.91989412845025,64.81571508309477 L 99.7137146869767,67.64975962836927 L 108.5075352455031,67.41568987558297 L 116.5883433263112,63.8758349988296 L 123.24312645168257,56.79252417220334 L 127.75887214389886,45.92808656979777 L 127.75887214389886,45.92808656979777 L 129.5101940378232,35.06725004051212 L 129.06486132867593,25.35155476331941 L 126.62453411116512,16.953852247969788 L 122.390872479999,10.046994004213191 L 116.56553652988589,4.803831541799366 L 109.35018635553392,1.3972163704783536 L 100.94648205165139,0.0 L 91.55608371294645,0.7850339401141486 L 81.38065143412736,3.9251697005707427 L 81.38065143412736,3.9251697005707427 L 81.38065143412736,3.9251697005707427 L 81.38065143412736,3.9251697005707427 L 81.38065143412736,3.9251697005707427 L 81.38065143412736,3.9251697005707427 L 81.38065143412736,3.9251697005707427 L 81.38065143412736,3.9251697005707427 L 81.38065143412736,3.9251697005707427 L 81.38065143412736,3.9251697005707427 L 81.38065143412736,3.9251697005707427 L 170.6368497812348,161.43610796017208 L 150.8297472646848,169.27804485736758 L 131.3179327439577,182.4927828492891 L 112.46151353103224,200.4897459442913 L 94.62059693788747,222.67835815072883 L 78.15529027650238,248.46804347695604 L 63.425700858855926,277.2682259313275 L 50.79193599692708,308.48832952219755 L 40.6141030026948,341.53777825792076 L 33.25230918813806,375.82599614685165 L 33.25230918813806,375.82599614685165 L 30.146983801172738,398.9172773486498 L 28.438874784685833,419.8335103860949 L 28.163992869875223,438.6683231603016 L 29.358348787938805,455.5153435723845 L 32.05795327007448,470.4681995234578 L 36.29881704748014,483.6205189146365 L 42.11695085135369,495.0659296470348 L 49.54836541289303,504.8980596217672 L 58.62907146329605,513.2105367399485 L 58.62907146329605,513.2105367399485 L 73.3922708967272,522.0559726798585 L 88.90449353907462,525.9607362994171 L 104.87765354075513,525.1048812546137 L 121.02366505218554,519.6684612014379 L 137.05444222378267,509.8315297958791 L 152.68189920596333,495.7741406939267 L 167.61795014914438,477.67634755157036 L 181.57450920374265,455.7182040247993 L 194.26349052017497,430.07976376960323 L 194.26349052017497,430.07976376960323 L 200.70460997377208,415.8591260195537 L 206.57675987444256,404.14483516087785 L 211.82952519850912,394.9801040710131 L 216.41249092229484,388.40814562739695 L 220.27524202212254,384.47217270746677 L 223.36736347431528,383.2153981886601 L 225.63844025519597,384.68103494841455 L 227.0380573410876,388.91229586416745 L 227.51579970831304,395.9523938133563 L 227.51579970831304,395.9523938133563 L 227.73666552632673,398.81284622817594 L 228.37525582623618,402.63118409285954 L 229.39555987684324,407.26336448261577 L 230.76156694695015,412.5653444726527 L 232.43726630535895,418.39308113817907 L 234.3866472208718,424.60253155440313 L 236.5736989622907,431.0496527965333 L 238.96241079841786,437.59040193977796 L 241.51677199805536,444.0807360593456 L 241.51677199805536,444.0807360593456 L 252.05111123114682,464.6500657195844 L 265.18542525672643,480.8116818812005 L 280.3435423756279,492.50076522803795 L 296.9492908886848,499.6524964439402 L 314.42649909673077,502.2020562127513 L 332.1989953005995,500.08462521831495 L 349.69060780112466,493.235384144475 L 366.32516489913985,481.58951367507507 L 381.5264948954788,465.0821944939591 L 381.5264948954788,465.0821944939591 L 392.171267037577,449.1114352076918 L 398.1706548551467,435.3229262320171 L 400.0,424.14879634130955 L 398.13464412394893,416.0211743099443 L 393.0499288788059,411.37218891229577 L 385.22119591638295,410.63396892273886 L 375.1237868884927,414.23864311564836 L 363.23304344694714,422.61834026539896 L 350.0243072435585,436.2051891463655 L 350.0243072435585,436.2051891463655 L 341.28810385494864,445.70361967866415 L 332.63832622121384,452.62368185719333 L 324.161400097229,456.9797799744323 L 315.9437512378688,458.7863183228601 L 308.07180539800856,458.05770119495594 L 300.631988332523,454.80833288319906 L 293.7107257962872,449.0526176800686 L 287.3944435441761,440.8049598780436 L 281.7695673310646,430.07976376960323 L 281.7695673310646,430.07976376960323 L 276.3487519280745,415.6070509011685 L 271.2664373983447,396.81305028898595 L 266.66666666666663,374.7564774302742 L 262.69348265783196,350.49604782225094 L 259.4909282966324,325.09047696213463 L 257.20304650785926,299.5984803471434 L 255.9738802163044,275.0787734744954 L 255.94747234675924,252.5900718414088 L 257.26786582401553,233.1910909451016 L 257.26786582401553,233.1910909451016 L 258.2377548509455,221.9317356572259 L 258.8043236884591,212.01918171615137 L 258.95316804407713,203.37420551324288 L 258.66988362532027,195.91758343986498 L 257.9400661397096,189.57009188738243 L 256.74931129476573,184.25250724715963 L 255.08321479800975,179.88560591056128 L 252.92737235696234,176.39016426895208 L 250.26737967914434,173.68695871369664 L 250.26737967914434,173.68695871369664 L 244.62689881584706,169.83861190634804 L 237.29391358624866,166.49441533577 L 228.6501377410468,163.70478402563955 L 219.07728503093918,161.5201329996339 L 208.95706920662352,159.9908772814298 L 198.67120401879757,159.16743189470455 L 188.601403218159,159.10021186313517 L 179.12938055540548,159.8396322103987 L 170.6368497812348,161.43610796017208 L 170.6368497812348,161.43610796017208 L 170.6368497812348,161.43610796017208 L 170.6368497812348,161.43610796017208 L 170.6368497812348,161.43610796017208 L 170.6368497812348,161.43610796017208 L 170.6368497812348,161.43610796017208 L 170.6368497812348,161.43610796017208 L 170.6368497812348,161.43610796017208 L 170.6368497812348,161.43610796017208 L 170.6368497812348,161.43610796017208 L 206.51434127369953,211.31457174237917 L 206.51434127369953,211.31457174237917 L 206.51434127369953,211.31457174237917 L 206.51434127369953,211.31457174237917 L 206.51434127369953,211.31457174237917 L 206.51434127369953,211.31457174237917 L 206.51434127369953,211.31457174237917 L 206.51434127369953,211.31457174237917 L 206.51434127369953,211.31457174237917 L 206.51434127369953,211.31457174237917 L 206.51434127369953,211.31457174237917 L 207.19854516645952,214.42709927558414 L 207.51543960100108,218.9728539104652 L 207.48663101604276,224.76457984479364 L 207.13372585030334,231.6150212763403 L 206.47833054250162,239.33692240287596 L 205.54205153135632,247.74302742217174 L 204.34649525558612,256.64608053199845 L 202.9132681539098,265.8588259301271 L 201.26397666504616,275.1940078143286 L 201.26397666504616,275.1940078143286 L 191.73913826320236,313.875534909403 L 179.90241091845365,351.03740914792604 L 166.35877491492462,385.61371288644 L 151.71321053673992,416.53852848148733 L 136.57069806802426,442.7459382896102 L 121.53621779290226,463.17002466735073 L 107.21474999549864,476.7448699712514 L 94.21127495993805,482.4045565578541 L 83.13077297034515,479.0831667837015 L 83.13077297034515,479.0831667837015 L 77.74836901396613,472.52441227485787 L 73.84240503670092,462.9767670765887 L 71.39847674607033,450.75712562343574 L 70.40217984959517,436.1823823499402 L 70.83911005479632,419.56943169064374 L 72.6948630691946,401.2351680800878 L 75.95503460031085,381.4964859528139 L 80.60522035566596,360.6702797433635 L 86.63101604278073,339.073443886278 L 86.63101604278073,339.073443886278 L 93.36502277678744,319.05147734024735 L 100.70400979491887,300.4339293109346 L 108.60476421973746,283.2640126757773 L 117.02407317380577,267.58494031221295 L 125.91872377968632,253.439925097679 L 135.24550315994162,240.87217990961298 L 144.96119843713424,229.9249176254523 L 155.02259673382662,220.64135112263455 L 165.3864851725814,213.06469327859696 L 165.3864851725814,213.06469327859696 L 173.9702431324534,208.1072159503532 L 181.16398686808665,204.3236884591608 L 187.13336574299137,201.72131295125934 L 192.04402912067795,200.30729157288863 L 196.06162636465663,200.0888264702881 L 199.3518068384378,201.0731197896973 L 202.08021990553183,203.26737367735583 L 204.41251492944895,206.67879027950326 L 206.51434127369953,211.31457174237917 L 206.51434127369953,211.31457174237917 L 206.51434127369953,211.31457174237917 L 206.51434127369953,211.31457174237917 L 206.51434127369953,211.31457174237917 L 206.51434127369953,211.31457174237917 L 206.51434127369953,211.31457174237917 L 206.51434127369953,211.31457174237917 L 206.51434127369953,211.31457174237917 L 206.51434127369953,211.31457174237917 L 206.51434127369953,211.31457174237917M241.51677199805536 20.551324294639773 L 81.38065143412736,3.9251697005707427 L 79.37725442181768,4.850645492356701 L 77.47468745686213,6.402708006986069 L 75.7089612704586,8.494931489583724 L 74.11608659380495,11.040890185275142 L 72.7320741580991,13.954158339185005 L 71.59293469453895,17.148310196438587 L 70.73467893432242,20.536920002160567 L 70.19331760864735,24.03356200147643 L 70.00486144871171,27.55181043951094 L 70.00486144871171,27.55181043951094 L 71.66855723005452,40.28160391796764 L 76.18430292227082,50.8939664019878 L 82.8390860476422,59.15122706566551 L 90.91989412845025,64.81571508309477 L 99.7137146869767,67.64975962836927 L 108.5075352455031,67.41568987558297 L 116.5883433263112,63.8758349988296 L 123.24312645168257,56.79252417220334 L 127.75887214389886,45.92808656979777 L 127.75887214389886,45.92808656979777 L 129.5101940378232,35.06725004051212 L 129.06486132867593,25.35155476331941 L 126.62453411116512,16.953852247969788 L 122.390872479999,10.046994004213191 L 116.56553652988589,4.803831541799366 L 109.35018635553392,1.3972163704783536 L 100.94648205165139,0.0 L 91.55608371294645,0.7850339401141486 L 81.38065143412736,3.9251697005707427 L 81.38065143412736,3.9251697005707427 L 81.38065143412736,3.9251697005707427 L 81.38065143412736,3.9251697005707427 L 81.38065143412736,3.9251697005707427 L 81.38065143412736,3.9251697005707427 L 81.38065143412736,3.9251697005707427 L 81.38065143412736,3.9251697005707427 L 81.38065143412736,3.9251697005707427 L 81.38065143412736,3.9251697005707427 L 81.38065143412736,3.9251697005707427 L 170.6368497812348,161.43610796017208 L 150.8297472646848,169.27804485736758 L 131.3179327439577,182.4927828492891 L 112.46151353103224,200.4897459442913 L 94.62059693788747,222.67835815072883 L 78.15529027650238,248.46804347695604 L 63.425700858855926,277.2682259313275 L 50.79193599692708,308.48832952219755 L 40.6141030026948,341.53777825792076 L 33.25230918813806,375.82599614685165 L 33.25230918813806,375.82599614685165 L 30.146983801172738,398.9172773486498 L 28.438874784685833,419.8335103860949 L 28.163992869875223,438.6683231603016 L 29.358348787938805,455.5153435723845 L 32.05795327007448,470.4681995234578 L 36.29881704748014,483.6205189146365 L 42.11695085135369,495.0659296470348 L 49.54836541289303,504.8980596217672 L 58.62907146329605,513.2105367399485 L 58.62907146329605,513.2105367399485 L 73.3922708967272,522.0559726798585 L 88.90449353907462,525.9607362994171 L 104.87765354075513,525.1048812546137 L 121.02366505218554,519.6684612014379 L 137.05444222378267,509.8315297958791 L 152.68189920596333,495.7741406939267 L 167.61795014914438,477.67634755157036 L 181.57450920374265,455.7182040247993 L 194.26349052017497,430.07976376960323 L 194.26349052017497,430.07976376960323 L 200.70460997377208,415.8591260195537 L 206.57675987444256,404.14483516087785 L 211.82952519850912,394.9801040710131 L 216.41249092229484,388.40814562739695 L 220.27524202212254,384.47217270746677 L 223.36736347431528,383.2153981886601 L 225.63844025519597,384.68103494841455 L 227.0380573410876,388.91229586416745 L 227.51579970831304,395.9523938133563 L 227.51579970831304,395.9523938133563 L 227.73666552632673,398.81284622817594 L 228.37525582623618,402.63118409285954 L 229.39555987684324,407.26336448261577 L 230.76156694695015,412.5653444726527 L 232.43726630535895,418.39308113817907 L 234.3866472208718,424.60253155440313 L 236.5736989622907,431.0496527965333 L 238.96241079841786,437.59040193977796 L 241.51677199805536,444.0807360593456 L 241.51677199805536,444.0807360593456 L 252.05111123114682,464.6500657195844 L 265.18542525672643,480.8116818812005 L 280.3435423756279,492.50076522803795 L 296.9492908886848,499.6524964439402 L 314.42649909673077,502.2020562127513 L 332.1989953005995,500.08462521831495 L 349.69060780112466,493.235384144475 L 366.32516489913985,481.58951367507507 L 381.5264948954788,465.0821944939591 L 381.5264948954788,465.0821944939591 L 392.171267037577,449.1114352076918 L 398.1706548551467,435.3229262320171 L 400.0,424.14879634130955 L 398.13464412394893,416.0211743099443 L 393.0499288788059,411.37218891229577 L 385.22119591638295,410.63396892273886 L 375.1237868884927,414.23864311564836 L 363.23304344694714,422.61834026539896 L 350.0243072435585,436.2051891463655 L 350.0243072435585,436.2051891463655 L 341.28810385494864,445.70361967866415 L 332.63832622121384,452.62368185719333 L 324.161400097229,456.9797799744323 L 315.9437512378688,458.7863183228601 L 308.07180539800856,458.05770119495594 L 300.631988332523,454.80833288319906 L 293.7107257962872,449.0526176800686 L 287.3944435441761,440.8049598780436 L 281.7695673310646,430.07976376960323 L 281.7695673310646,430.07976376960323 L 276.3487519280745,415.6070509011685 L 271.2664373983447,396.81305028898595 L 266.66666666666663,374.7564774302742 L 262.69348265783196,350.49604782225094 L 259.4909282966324,325.09047696213463 L 257.20304650785926,299.5984803471434 L 255.9738802163044,275.0787734744954 L 255.94747234675924,252.5900718414088 L 257.26786582401553,233.1910909451016 L 257.26786582401553,233.1910909451016 L 258.2377548509455,221.9317356572259 L 258.8043236884591,212.01918171615137 L 258.95316804407713,203.37420551324288 L 258.66988362532027,195.91758343986498 L 257.9400661397096,189.57009188738243 L 256.74931129476573,184.25250724715963 L 255.08321479800975,179.88560591056128 L 252.92737235696234,176.39016426895208 L 250.26737967914434,173.68695871369664 L 250.26737967914434,173.68695871369664 L 244.62689881584706,169.83861190634804 L 237.29391358624866,166.49441533577 L 228.6501377410468,163.70478402563955 L 219.07728503093918,161.5201329996339 L 208.95706920662352,159.9908772814298 L 198.67120401879757,159.16743189470455 L 188.601403218159,159.10021186313517 L 179.12938055540548,159.8396322103987 L 170.6368497812348,161.43610796017208 L 170.6368497812348,161.43610796017208 L 170.6368497812348,161.43610796017208 L 170.6368497812348,161.43610796017208 L 170.6368497812348,161.43610796017208 L 170.6368497812348,161.43610796017208 L 170.6368497812348,161.43610796017208 L 170.6368497812348,161.43610796017208 L 170.6368497812348,161.43610796017208 L 170.6368497812348,161.43610796017208 L 170.6368497812348,161.43610796017208 L 206.51434127369953,211.31457174237917 L 206.51434127369953,211.31457174237917 L 206.51434127369953,211.31457174237917 L 206.51434127369953,211.31457174237917 L 206.51434127369953,211.31457174237917 L 206.51434127369953,211.31457174237917 L 206.51434127369953,211.31457174237917 L 206.51434127369953,211.31457174237917 L 206.51434127369953,211.31457174237917 L 206.51434127369953,211.31457174237917 L 206.51434127369953,211.31457174237917 L 207.19854516645952,214.42709927558414 L 207.51543960100108,218.9728539104652 L 207.48663101604276,224.76457984479364 L 207.13372585030334,231.6150212763403 L 206.47833054250162,239.33692240287596 L 205.54205153135632,247.74302742217174 L 204.34649525558612,256.64608053199845 L 202.9132681539098,265.8588259301271 L 201.26397666504616,275.1940078143286 L 201.26397666504616,275.1940078143286 L 191.73913826320236,313.875534909403 L 179.90241091845365,351.03740914792604 L 166.35877491492462,385.61371288644 L 151.71321053673992,416.53852848148733 L 136.57069806802426,442.7459382896102 L 121.53621779290226,463.17002466735073 L 107.21474999549864,476.7448699712514 L 94.21127495993805,482.4045565578541 L 83.13077297034515,479.0831667837015 L 83.13077297034515,479.0831667837015 L 77.74836901396613,472.52441227485787 L 73.84240503670092,462.9767670765887 L 71.39847674607033,450.75712562343574 L 70.40217984959517,436.1823823499402 L 70.83911005479632,419.56943169064374 L 72.6948630691946,401.2351680800878 L 75.95503460031085,381.4964859528139 L 80.60522035566596,360.6702797433635 L 86.63101604278073,339.073443886278 L 86.63101604278073,339.073443886278 L 93.36502277678744,319.05147734024735 L 100.70400979491887,300.4339293109346 L 108.60476421973746,283.2640126757773 L 117.02407317380577,267.58494031221295 L 125.91872377968632,253.439925097679 L 135.24550315994162,240.87217990961298 L 144.96119843713424,229.9249176254523 L 155.02259673382662,220.64135112263455 L 165.3864851725814,213.06469327859696 L 165.3864851725814,213.06469327859696 L 173.9702431324534,208.1072159503532 L 181.16398686808665,204.3236884591608 L 187.13336574299137,201.72131295125934 L 192.04402912067795,200.30729157288863 L 196.06162636465663,200.0888264702881 L 199.3518068384378,201.0731197896973 L 202.08021990553183,203.26737367735583 L 204.41251492944895,206.67879027950326 L 206.51434127369953,211.31457174237917 L 206.51434127369953,211.31457174237917 L 206.51434127369953,211.31457174237917 L 206.51434127369953,211.31457174237917 L 206.51434127369953,211.31457174237917 L 206.51434127369953,211.31457174237917 L 206.51434127369953,211.31457174237917 L 206.51434127369953,211.31457174237917 L 206.51434127369953,211.31457174237917 L 206.51434127369953,211.31457174237917 L 206.51434127369953,211.31457174237917 L 241.51677199805536,20.551324294639773 L 236.58930361247644,25.67805205951376 L 232.88620008762607,30.127778077867077 L 230.4002592772646,34.130971029366684 L 229.12427903515245,37.91809959367893 L 229.05105721505004,41.719632450470186 L 230.1733916707178,45.7660382794072 L 232.48408025591615,50.28778576015653 L 235.97592082440562,55.51534357238455 L 240.64171122994648,61.679180395757896 L 240.64171122994648,61.679180395757896 L 246.4958557650179,68.17191523073892 L 252.7965333669433,72.52561263256445 L 259.2772646248582,74.80509191739125 L 265.67157012789806,75.07517240137548 L 271.7129704651986,73.40067340067334 L 277.13498622589526,69.84641423144097 L 281.6711379991237,64.47721420983443 L 285.0549463740194,57.35789265201031 L 287.019931939718,48.553268874124456 L 287.019931939718,48.553268874124456 L 287.0439390938498,38.83517288151873 L 285.00813242346214,30.247813848526842 L 281.2510128018149,23.014458308575797 L 276.1110811021684,17.358372795093 L 269.9268381977829,13.502823841504757 L 263.0367849619186,11.671077981238376 L 255.7794222678358,12.086401747720865 L 248.49325098879456,14.97206167437903 L 241.51677199805536,20.551324294639773 L 241.51677199805536,20.551324294639773 L 241.51677199805536,20.551324294639773 L 241.51677199805536,20.551324294639773 L 241.51677199805536,20.551324294639773 L 241.51677199805536,20.551324294639773 L 241.51677199805536,20.551324294639773 L 241.51677199805536,20.551324294639773 L 241.51677199805536,20.551324294639773 L 241.51677199805536,20.551324294639773 L 241.51677199805536,20.551324294639773"/></svg>
