<?xml version="1.0" encoding="utf-8"?>
<svg xmlns="http://www.w3.org/2000/svg"  viewBox="0,0,400,561.4663047602369" width="100%">
<path d="M86.80851063829788 10.828006887896526 L 86.80851063829788,10.828006887896526 L 81.96129936082654,19.670198172956336 L 80.68645477628928,29.30391384292084 L 82.45862884160758,39.07071768379874 L 86.75247351370284,48.312173481598265 L 93.04264074949654,56.369845022327254 L 100.80378250591016,62.58529609199431 L 109.51055073986515,66.30009047660735 L 118.63759740828299,66.85579196217492 L 127.65957446808511,63.59396433470503 L 127.65957446808511,63.59396433470503 L 131.57516854916378,59.53477512185164 L 134.27195517030032,53.43723550185325 L 135.79196217494092,45.91074920468135 L 136.1772174065318,37.56471996030695 L 135.46974870851943,29.00855149870117 L 133.7115839243499,20.851647549835103 L 130.94475089746956,13.703411843679666 L 127.21127747132473,8.173248110206355 L 122.55319148936171,4.870560079385889 L 122.55319148936171,4.870560079385889 L 116.5081866736713,2.637247176254335 L 111.32475264862971,1.062370487114365 L 106.85579196217495,0.17394857426368499 L 102.95420716224498,0.0 L 99.47290079677786,0.5685433266204354 L 96.26477541371158,1.9075971164228904 L 93.18273356098416,4.04517993170478 L 90.07967778653358,7.009310334763424 L 86.80851063829788,10.828006887896526 L 86.80851063829788,10.828006887896526 L 86.80851063829788,10.828006887896526 L 86.80851063829788,10.828006887896526 L 86.80851063829788,10.828006887896526 L 86.80851063829788,10.828006887896526 L 86.80851063829788,10.828006887896526 L 86.80851063829788,10.828006887896526 L 86.80851063829788,10.828006887896526 L 86.80851063829788,10.828006887896526 L 86.80851063829788,10.828006887896526"/></svg>
