<?xml version="1.0" encoding="utf-8"?>
<svg xmlns="http://www.w3.org/2000/svg"  viewBox="0,0,400,561.4663047602369" width="100%">
<path d="M86.80851063829788 10.828006887896526 L 86.80851063829788,10.828006887896526 L 81.96129936082654,19.670198172956336 L 80.68645477628928,29.30391384292084 L 82.45862884160758,39.07071768379874 L 86.75247351370284,48.312173481598265 L 93.04264074949654,56.369845022327254 L 100.80378250591016,62.58529609199431 L 109.51055073986515,66.30009047660735 L 118.63759740828299,66.85579196217492 L 127.65957446808511,63.59396433470503 L 127.65957446808511,63.59396433470503 L 131.57516854916378,59.53477512185164 L 134.27195517030032,53.43723550185325 L 135.79196217494092,45.91074920468135 L 136.1772174065318,37.56471996030695 L 135.46974870851943,29.00855149870117 L 133.7115839243499,20.851647549835103 L 130.94475089746956,13.703411843679666 L 127.21127747132473,8.173248110206355 L 122.55319148936171,4.870560079385889 L 122.55319148936171,4.870560079385889 L 116.5081866736713,2.637247176254335 L 111.32475264862971,1.062370487114365 L 106.85579196217495,0.17394857426368499 L 102.95420716224498,0.0 L 99.47290079677786,0.5685433266204354 L 96.26477541371158,1.9075971164228904 L 93.18273356098416,4.04517993170478 L 90.07967778653358,7.009310334763424 L 86.80851063829788,10.828006887896526 L 86.80851063829788,10.828006887896526 L 86.80851063829788,10.828006887896526 L 86.80851063829788,10.828006887896526 L 86.80851063829788,10.828006887896526 L 86.80851063829788,10.828006887896526 L 86.80851063829788,10.828006887896526 L 86.80851063829788,10.828006887896526 L 86.80851063829788,10.828006887896526 L 86.80851063829788,10.828006887896526 L 86.80851063829788,10.828006887896526M165.95744680851064 164.87056007938585 L 86.80851063829788,10.828006887896526 L 81.96129936082654,19.670198172956336 L 80.68645477628928,29.30391384292084 L 82.45862884160758,39.07071768379874 L 86.75247351370284,48.312173481598265 L 93.04264074949654,56.369845022327254 L 100.80378250591016,62.58529609199431 L 109.51055073986515,66.30009047660735 L 118.63759740828299,66.85579196217492 L 127.65957446808511,63.59396433470503 L 127.65957446808511,63.59396433470503 L 131.57516854916378,59.53477512185164 L 134.27195517030032,53.43723550185325 L 135.79196217494092,45.91074920468135 L 136.1772174065318,37.56471996030695 L 135.46974870851943,29.00855149870117 L 133.7115839243499,20.851647549835103 L 130.94475089746956,13.703411843679666 L 127.21127747132473,8.173248110206355 L 122.55319148936171,4.870560079385889 L 122.55319148936171,4.870560079385889 L 116.5081866736713,2.637247176254335 L 111.32475264862971,1.062370487114365 L 106.85579196217495,0.17394857426368499 L 102.95420716224498,0.0 L 99.47290079677786,0.5685433266204354 L 96.26477541371158,1.9075971164228904 L 93.18273356098416,4.04517993170478 L 90.07967778653358,7.009310334763424 L 86.80851063829788,10.828006887896526 L 86.80851063829788,10.828006887896526 L 86.80851063829788,10.828006887896526 L 86.80851063829788,10.828006887896526 L 86.80851063829788,10.828006887896526 L 86.80851063829788,10.828006887896526 L 86.80851063829788,10.828006887896526 L 86.80851063829788,10.828006887896526 L 86.80851063829788,10.828006887896526 L 86.80851063829788,10.828006887896526 L 86.80851063829788,10.828006887896526 L 165.95744680851064,164.87056007938585 L 143.34529959431455,177.99959139596652 L 122.23915010361031,196.52219595481998 L 102.94720252167063,219.7799375419548 L 85.77766103376821,247.11437994337908 L 71.03872982517584,277.86708694510105 L 59.03861308116627,311.37962233312896 L 50.08551498701223,346.99354989347097 L 44.48763972798646,384.0504334121354 L 42.5531914893617,421.8918366751305 L 42.5531914893617,421.8918366751305 L 43.220967224119306,441.8258763097218 L 45.24764323030674,459.1261710883459 L 48.66824271079591,473.86977205732114 L 53.51778886845869,486.1337302629657 L 59.83130490616701,495.9950967515979 L 67.64381402679274,503.53092256953545 L 76.99033943320782,508.8182587630971 L 87.90590432828415,511.93415637860073 L 100.42553191489361,512.9556664623645 L 100.42553191489361,512.9556664623645 L 113.50553074745352,512.0765840702799 L 125.63289846189767,509.3272626448354 L 136.98975571315995,504.53959081224633 L 147.75822315617427,497.54545719872743 L 158.12042144587457,488.1767504304934 L 168.2584712371946,476.2653591337594 L 178.35449318506843,461.64317193474 L 188.59060794442982,444.14207745965035 L 199.14893617021278,423.593964334705 L 199.14893617021278,423.593964334705 L 204.68260222397336,412.77296208738284 L 209.88004553016376,403.09371625368465 L 214.6572104018913,394.68931500452373 L 218.93004115226336,387.6928465108133 L 222.61448209438757,382.23739894346664 L 225.62647754137114,378.45606047339686 L 227.8819718063217,376.4819192715173 L 229.29690920234654,376.44806350874114 L 229.7872340425532,378.4875813559816 L 229.7872340425532,378.4875813559816 L 231.12278551206833,389.13463502904006 L 234.35659457724074,401.3787467530571 L 239.18045705279752,414.610512798062 L 245.28616875346583,428.2205294340833 L 252.3655254939731,441.59939293115013 L 260.11032308904646,454.1376995592913 L 268.21235735341327,465.2260455885356 L 276.3634241018008,474.2550272889121 L 284.25531914893617,480.61524093044966 L 284.25531914893617,480.61524093044966 L 298.9837433966669,487.28365875726 L 315.337244257654,489.4550973353179 L 332.4192277383767,487.6128768642558 L 349.3330998453142,482.24031754370594 L 365.18226658494586,473.8207395733005 L 379.07013396375095,462.83746315267183 L 390.1001079882088,449.7738084814522 L 397.3755946647987,435.1130957592738 L 400.0,419.3386451857688 L 400.0,419.3386451857688 L 399.2306569769139,411.1397133934564 L 396.99734407378224,405.2523129906896 L 393.41213553979514,401.65543005574517 L 388.58710562414274,400.3280506669001 L 382.6343285760149,401.2491609024311 L 375.665878644602,404.3977468406152 L 367.79383007909405,409.752794559729 L 359.1302571286811,417.2932901380497 L 349.78723404255317,426.99821965385394 L 349.78723404255317,426.99821965385394 L 334.09333683565364,441.4733094008114 L 319.93345591454334,448.0471645798674 L 307.3286052009456,446.76181303446856 L 296.2997986165835,437.65928260806106 L 286.8680500831801,420.7816011440912 L 279.05437352245866,396.17079648600526 L 272.8797828561422,363.86889647724945 L 268.3652920059539,323.91792896127015 L 265.531914893617,276.35992178151355 L 265.531914893617,276.35992178151355 L 264.87464611972086,257.97157283366903 L 264.05627061261424,240.45880395762185 L 263.10480693459425,224.12981933864512 L 262.04827364795847,209.29282316201142 L 260.9146893150045,196.25601961299358 L 259.73207249802994,185.3276128768642 L 258.5284417593322,176.81580713889613 L 257.3318156612089,171.02880658436206 L 256.17021276595744,168.2748153985348 L 256.17021276595744,168.2748153985348 L 250.75095584157833,164.4316026033914 L 242.82403759157106,161.42194203659915 L 232.9708431836092,159.259842979307 L 221.77275778536617,157.95931471266368 L 209.81116656451567,157.534366517818 L 197.66745468873125,157.99900767591862 L 185.92300732568657,159.36724746811424 L 175.1592096430552,161.65309517555377 L 165.95744680851064,164.87056007938585 L 165.95744680851064,164.87056007938585 L 165.95744680851064,164.87056007938585 L 165.95744680851064,164.87056007938585 L 165.95744680851064,164.87056007938585 L 165.95744680851064,164.87056007938585 L 165.95744680851064,164.87056007938585 L 165.95744680851064,164.87056007938585 L 165.95744680851064,164.87056007938585 L 165.95744680851064,164.87056007938585 L 165.95744680851064,164.87056007938585 L 210.2127659574468,244.01949624959863 L 210.2127659574468,244.01949624959863 L 210.2127659574468,244.01949624959863 L 210.2127659574468,244.01949624959863 L 210.2127659574468,244.01949624959863 L 210.2127659574468,244.01949624959863 L 210.2127659574468,244.01949624959863 L 210.2127659574468,244.01949624959863 L 210.2127659574468,244.01949624959863 L 210.2127659574468,244.01949624959863 L 210.2127659574468,244.01949624959863 L 204.67092782301606,280.05253480430787 L 194.9403146251058,317.68963605055006 L 182.00157604412925,355.06756559554026 L 166.83536176049967,390.3230890464932 L 150.42232145463038,421.5929720106236 L 133.7431048069346,447.01398009514617 L 117.77836149782568,464.7228789072759 L 103.50874120771678,472.85643405422746 L 91.91489361702128,469.5514111432156 L 91.91489361702128,469.5514111432156 L 87.30467267898314,462.089134051309 L 84.22146338616001,450.8933835332573 L 82.61623325453114,436.5805679596064 L 82.43994980007588,419.7670957009018 L 83.6435805387736,401.0693751276887 L 86.17809298660362,381.1038146105127 L 89.99445465954528,360.48682251991943 L 95.0436330735779,339.83480722645413 L 101.27659574468085,319.76417710066244 L 101.27659574468085,319.76417710066244 L 110.3324285672591,296.33949157983824 L 120.38992499197383,274.9671657473075 L 131.31599684791175,255.80830633628105 L 142.97755596415956,239.0240200799696 L 155.24151416980416,224.77541371158384 L 167.97478329393223,213.22359396433467 L 181.04427516563055,204.5296675714327 L 194.31690161398592,198.8547412660887 L 207.6595744680851,196.35992178151352 L 207.6595744680851,196.35992178151352 L 208.95193065405826,196.90161398593233 L 209.99211977935386,198.99133175728912 L 210.78014184397165,202.47497300294765 L 211.31599684791175,207.19843563027163 L 211.59968479117416,213.00761754662454 L 211.63120567375884,219.74841665937012 L 211.41055949566584,227.26673087587184 L 210.9377462568952,235.4084581034935 L 210.2127659574468,244.01949624959863 L 210.2127659574468,244.01949624959863 L 210.2127659574468,244.01949624959863 L 210.2127659574468,244.01949624959863 L 210.2127659574468,244.01949624959863 L 210.2127659574468,244.01949624959863 L 210.2127659574468,244.01949624959863 L 210.2127659574468,244.01949624959863 L 210.2127659574468,244.01949624959863 L 210.2127659574468,244.01949624959863 L 210.2127659574468,244.01949624959863M252.7659574468085 18.487581355981632 L 86.80851063829788,10.828006887896526 L 81.96129936082654,19.670198172956336 L 80.68645477628928,29.30391384292084 L 82.45862884160758,39.07071768379874 L 86.75247351370284,48.312173481598265 L 93.04264074949654,56.369845022327254 L 100.80378250591016,62.58529609199431 L 109.51055073986515,66.30009047660735 L 118.63759740828299,66.85579196217492 L 127.65957446808511,63.59396433470503 L 127.65957446808511,63.59396433470503 L 131.57516854916378,59.53477512185164 L 134.27195517030032,53.43723550185325 L 135.79196217494092,45.91074920468135 L 136.1772174065318,37.56471996030695 L 135.46974870851943,29.00855149870117 L 133.7115839243499,20.851647549835103 L 130.94475089746956,13.703411843679666 L 127.21127747132473,8.173248110206355 L 122.55319148936171,4.870560079385889 L 122.55319148936171,4.870560079385889 L 116.5081866736713,2.637247176254335 L 111.32475264862971,1.062370487114365 L 106.85579196217495,0.17394857426368499 L 102.95420716224498,0.0 L 99.47290079677786,0.5685433266204354 L 96.26477541371158,1.9075971164228904 L 93.18273356098416,4.04517993170478 L 90.07967778653358,7.009310334763424 L 86.80851063829788,10.828006887896526 L 86.80851063829788,10.828006887896526 L 86.80851063829788,10.828006887896526 L 86.80851063829788,10.828006887896526 L 86.80851063829788,10.828006887896526 L 86.80851063829788,10.828006887896526 L 86.80851063829788,10.828006887896526 L 86.80851063829788,10.828006887896526 L 86.80851063829788,10.828006887896526 L 86.80851063829788,10.828006887896526 L 86.80851063829788,10.828006887896526 L 165.95744680851064,164.87056007938585 L 143.34529959431455,177.99959139596652 L 122.23915010361031,196.52219595481998 L 102.94720252167063,219.7799375419548 L 85.77766103376821,247.11437994337908 L 71.03872982517584,277.86708694510105 L 59.03861308116627,311.37962233312896 L 50.08551498701223,346.99354989347097 L 44.48763972798646,384.0504334121354 L 42.5531914893617,421.8918366751305 L 42.5531914893617,421.8918366751305 L 43.220967224119306,441.8258763097218 L 45.24764323030674,459.1261710883459 L 48.66824271079591,473.86977205732114 L 53.51778886845869,486.1337302629657 L 59.83130490616701,495.9950967515979 L 67.64381402679274,503.53092256953545 L 76.99033943320782,508.8182587630971 L 87.90590432828415,511.93415637860073 L 100.42553191489361,512.9556664623645 L 100.42553191489361,512.9556664623645 L 113.50553074745352,512.0765840702799 L 125.63289846189767,509.3272626448354 L 136.98975571315995,504.53959081224633 L 147.75822315617427,497.54545719872743 L 158.12042144587457,488.1767504304934 L 168.2584712371946,476.2653591337594 L 178.35449318506843,461.64317193474 L 188.59060794442982,444.14207745965035 L 199.14893617021278,423.593964334705 L 199.14893617021278,423.593964334705 L 204.68260222397336,412.77296208738284 L 209.88004553016376,403.09371625368465 L 214.6572104018913,394.68931500452373 L 218.93004115226336,387.6928465108133 L 222.61448209438757,382.23739894346664 L 225.62647754137114,378.45606047339686 L 227.8819718063217,376.4819192715173 L 229.29690920234654,376.44806350874114 L 229.7872340425532,378.4875813559816 L 229.7872340425532,378.4875813559816 L 231.12278551206833,389.13463502904006 L 234.35659457724074,401.3787467530571 L 239.18045705279752,414.610512798062 L 245.28616875346583,428.2205294340833 L 252.3655254939731,441.59939293115013 L 260.11032308904646,454.1376995592913 L 268.21235735341327,465.2260455885356 L 276.3634241018008,474.2550272889121 L 284.25531914893617,480.61524093044966 L 284.25531914893617,480.61524093044966 L 298.9837433966669,487.28365875726 L 315.337244257654,489.4550973353179 L 332.4192277383767,487.6128768642558 L 349.3330998453142,482.24031754370594 L 365.18226658494586,473.8207395733005 L 379.07013396375095,462.83746315267183 L 390.1001079882088,449.7738084814522 L 397.3755946647987,435.1130957592738 L 400.0,419.3386451857688 L 400.0,419.3386451857688 L 399.2306569769139,411.1397133934564 L 396.99734407378224,405.2523129906896 L 393.41213553979514,401.65543005574517 L 388.58710562414274,400.3280506669001 L 382.6343285760149,401.2491609024311 L 375.665878644602,404.3977468406152 L 367.79383007909405,409.752794559729 L 359.1302571286811,417.2932901380497 L 349.78723404255317,426.99821965385394 L 349.78723404255317,426.99821965385394 L 334.09333683565364,441.4733094008114 L 319.93345591454334,448.0471645798674 L 307.3286052009456,446.76181303446856 L 296.2997986165835,437.65928260806106 L 286.8680500831801,420.7816011440912 L 279.05437352245866,396.17079648600526 L 272.8797828561422,363.86889647724945 L 268.3652920059539,323.91792896127015 L 265.531914893617,276.35992178151355 L 265.531914893617,276.35992178151355 L 264.87464611972086,257.97157283366903 L 264.05627061261424,240.45880395762185 L 263.10480693459425,224.12981933864512 L 262.04827364795847,209.29282316201142 L 260.9146893150045,196.25601961299358 L 259.73207249802994,185.3276128768642 L 258.5284417593322,176.81580713889613 L 257.3318156612089,171.02880658436206 L 256.17021276595744,168.2748153985348 L 256.17021276595744,168.2748153985348 L 250.75095584157833,164.4316026033914 L 242.82403759157106,161.42194203659915 L 232.9708431836092,159.259842979307 L 221.77275778536617,157.95931471266368 L 209.81116656451567,157.534366517818 L 197.66745468873125,157.99900767591862 L 185.92300732568657,159.36724746811424 L 175.1592096430552,161.65309517555377 L 165.95744680851064,164.87056007938585 L 165.95744680851064,164.87056007938585 L 165.95744680851064,164.87056007938585 L 165.95744680851064,164.87056007938585 L 165.95744680851064,164.87056007938585 L 165.95744680851064,164.87056007938585 L 165.95744680851064,164.87056007938585 L 165.95744680851064,164.87056007938585 L 165.95744680851064,164.87056007938585 L 165.95744680851064,164.87056007938585 L 165.95744680851064,164.87056007938585 L 210.2127659574468,244.01949624959863 L 210.2127659574468,244.01949624959863 L 210.2127659574468,244.01949624959863 L 210.2127659574468,244.01949624959863 L 210.2127659574468,244.01949624959863 L 210.2127659574468,244.01949624959863 L 210.2127659574468,244.01949624959863 L 210.2127659574468,244.01949624959863 L 210.2127659574468,244.01949624959863 L 210.2127659574468,244.01949624959863 L 210.2127659574468,244.01949624959863 L 204.67092782301606,280.05253480430787 L 194.9403146251058,317.68963605055006 L 182.00157604412925,355.06756559554026 L 166.83536176049967,390.3230890464932 L 150.42232145463038,421.5929720106236 L 133.7431048069346,447.01398009514617 L 117.77836149782568,464.7228789072759 L 103.50874120771678,472.85643405422746 L 91.91489361702128,469.5514111432156 L 91.91489361702128,469.5514111432156 L 87.30467267898314,462.089134051309 L 84.22146338616001,450.8933835332573 L 82.61623325453114,436.5805679596064 L 82.43994980007588,419.7670957009018 L 83.6435805387736,401.0693751276887 L 86.17809298660362,381.1038146105127 L 89.99445465954528,360.48682251991943 L 95.0436330735779,339.83480722645413 L 101.27659574468085,319.76417710066244 L 101.27659574468085,319.76417710066244 L 110.3324285672591,296.33949157983824 L 120.38992499197383,274.9671657473075 L 131.31599684791175,255.80830633628105 L 142.97755596415956,239.0240200799696 L 155.24151416980416,224.77541371158384 L 167.97478329393223,213.22359396433467 L 181.04427516563055,204.5296675714327 L 194.31690161398592,198.8547412660887 L 207.6595744680851,196.35992178151352 L 207.6595744680851,196.35992178151352 L 208.95193065405826,196.90161398593233 L 209.99211977935386,198.99133175728912 L 210.78014184397165,202.47497300294765 L 211.31599684791175,207.19843563027163 L 211.59968479117416,213.00761754662454 L 211.63120567375884,219.74841665937012 L 211.41055949566584,227.26673087587184 L 210.9377462568952,235.4084581034935 L 210.2127659574468,244.01949624959863 L 210.2127659574468,244.01949624959863 L 210.2127659574468,244.01949624959863 L 210.2127659574468,244.01949624959863 L 210.2127659574468,244.01949624959863 L 210.2127659574468,244.01949624959863 L 210.2127659574468,244.01949624959863 L 210.2127659574468,244.01949624959863 L 210.2127659574468,244.01949624959863 L 210.2127659574468,244.01949624959863 L 210.2127659574468,244.01949624959863 L 252.7659574468085,18.487581355981632 L 245.22896418877502,24.282753991185906 L 240.63391997198144,31.62595219332799 L 238.7706855791963,39.92178151358607 L 239.42912179318796,48.574847503137455 L 242.39908939672534,56.98975571315994 L 247.47044917257682,64.57111169483122 L 254.43306190351106,70.72352099932868 L 263.0767883722966,74.85158917783028 L 273.1914893617021,76.35992178151353 L 273.1914893617021,76.35992178151353 L 278.59907188512386,75.60108571928913 L 283.41826460029773,73.44132154218833 L 287.565011820331,70.05574526457097 L 290.95525785833115,65.61947290079668 L 293.5049470274057,60.30762046522485 L 295.13002364066193,54.29530397221483 L 295.74643201120745,47.75763943612644 L 295.2701164521496,40.869742871318905 L 293.6170212765957,33.80673029215184 L 293.6170212765957,33.80673029215184 L 291.23544348130633,27.789744038759054 L 288.118378425707,22.802439949799954 L 284.34988179669034,18.865831946998096 L 280.0140092811488,16.000933952076533 L 275.1948165659749,14.228759886758333 L 269.97635933806146,13.570323672766555 L 264.44269328430084,14.046639231824358 L 258.6778740915857,15.678720485654999 L 252.7659574468085,18.487581355981632 L 252.7659574468085,18.487581355981632 L 252.7659574468085,18.487581355981632 L 252.7659574468085,18.487581355981632 L 252.7659574468085,18.487581355981632 L 252.7659574468085,18.487581355981632 L 252.7659574468085,18.487581355981632 L 252.7659574468085,18.487581355981632 L 252.7659574468085,18.487581355981632 L 252.7659574468085,18.487581355981632 L 252.7659574468085,18.487581355981632"/></svg>
