<?xml version="1.0" encoding="utf-8"?>
<svg xmlns="http://www.w3.org/2000/svg"  viewBox="0,0,400,691.2822428908845" width="100%">
<path d="M94.68501047518649 37.56655413069292 L 94.68501047518649,37.56655413069292 L 93.72067058985752,41.33673165285551 L 93.40752701085773,45.63000128993808 L 93.7242290396189,50.29690815196344 L 94.64942597757289,55.187997348954895 L 96.1617671261515,60.15381399093473 L 98.23990178678658,65.04490318792618 L 100.86247926090996,69.7118100499517 L 104.00814884995353,74.00507968703432 L 107.65555985534903,77.77525720919678 L 107.65555985534903,77.77525720919678 L 112.96298767441961,82.81935974592676 L 117.73664802928606,86.71052455997537 L 122.11532046064134,89.44875165134304 L 126.23778450917857,91.03404102002952 L 130.24281971559094,91.46639266603499 L 134.26920562057137,90.7458065893593 L 138.45572176481315,88.87228279000249 L 142.94114768900928,85.84582126796458 L 147.86426293385287,81.66642202324553 L 147.86426293385287,81.66642202324553 L 155.5505144183936,74.58510699813631 L 161.3152030317992,67.29028498734525 L 165.1583287740696,59.95276157941778 L 167.0798916452048,52.74334236289959 L 167.0798916452048,45.832832926335506 L 165.15832877406956,39.392038858271405 L 161.31520303179923,33.59176574725221 L 155.55051441839365,28.602819181823378 L 147.86426293385287,24.59600475053039 L 147.86426293385287,24.59600475053039 L 137.79918778384194,21.240386625566583 L 129.12190804076207,18.984329476863405 L 121.68296881463591,17.870534701557183 L 115.3329152154864,17.941703696784387 L 109.92229235333627,19.24053785968134 L 105.3016453382084,21.80973858738451 L 101.32151928012561,25.692007277029774 L 97.8324592891107,30.930045325753756 L 94.68501047518649,37.56655413069292 L 94.68501047518649,37.56655413069292 L 94.68501047518649,37.56655413069292 L 94.68501047518649,37.56655413069292 L 94.68501047518649,37.56655413069292 L 94.68501047518649,37.56655413069292 L 94.68501047518649,37.56655413069292 L 94.68501047518649,37.56655413069292 L 94.68501047518649,37.56655413069292 L 94.68501047518649,37.56655413069292 L 94.68501047518649,37.56655413069292"/></svg>
