<?xml version="1.0" encoding="utf-8"?>
<svg xmlns="http://www.w3.org/2000/svg"  viewBox="0,0,400,691.2822428908845" width="100%">
<path d="M94.68501047518649 37.56655413069292 L 94.68501047518649,37.56655413069292 L 93.72067058985752,41.33673165285551 L 93.40752701085773,45.63000128993808 L 93.7242290396189,50.29690815196344 L 94.64942597757289,55.187997348954895 L 96.1617671261515,60.15381399093473 L 98.23990178678658,65.04490318792618 L 100.86247926090996,69.7118100499517 L 104.00814884995353,74.00507968703432 L 107.65555985534903,77.77525720919678 L 107.65555985534903,77.77525720919678 L 112.96298767441961,82.81935974592676 L 117.73664802928606,86.71052455997537 L 122.11532046064134,89.44875165134304 L 126.23778450917857,91.03404102002952 L 130.24281971559094,91.46639266603499 L 134.26920562057137,90.7458065893593 L 138.45572176481315,88.87228279000249 L 142.94114768900928,85.84582126796458 L 147.86426293385287,81.66642202324553 L 147.86426293385287,81.66642202324553 L 155.5505144183936,74.58510699813631 L 161.3152030317992,67.29028498734525 L 165.1583287740696,59.95276157941778 L 167.0798916452048,52.74334236289959 L 167.0798916452048,45.832832926335506 L 165.15832877406956,39.392038858271405 L 161.31520303179923,33.59176574725221 L 155.55051441839365,28.602819181823378 L 147.86426293385287,24.59600475053039 L 147.86426293385287,24.59600475053039 L 137.79918778384194,21.240386625566583 L 129.12190804076207,18.984329476863405 L 121.68296881463591,17.870534701557183 L 115.3329152154864,17.941703696784387 L 109.92229235333627,19.24053785968134 L 105.3016453382084,21.80973858738451 L 101.32151928012561,25.692007277029774 L 97.8324592891107,30.930045325753756 L 94.68501047518649,37.56655413069292 L 94.68501047518649,37.56655413069292 L 94.68501047518649,37.56655413069292 L 94.68501047518649,37.56655413069292 L 94.68501047518649,37.56655413069292 L 94.68501047518649,37.56655413069292 L 94.68501047518649,37.56655413069292 L 94.68501047518649,37.56655413069292 L 94.68501047518649,37.56655413069292 L 94.68501047518649,37.56655413069292 L 94.68501047518649,37.56655413069292M160.8348123140154 164.6779380562857 L 94.68501047518649,37.56655413069292 L 93.72067058985752,41.33673165285551 L 93.40752701085773,45.63000128993808 L 93.7242290396189,50.29690815196344 L 94.64942597757289,55.187997348954895 L 96.1617671261515,60.15381399093473 L 98.23990178678658,65.04490318792618 L 100.86247926090996,69.7118100499517 L 104.00814884995353,74.00507968703432 L 107.65555985534903,77.77525720919678 L 107.65555985534903,77.77525720919678 L 112.96298767441961,82.81935974592676 L 117.73664802928606,86.71052455997537 L 122.11532046064134,89.44875165134304 L 126.23778450917857,91.03404102002952 L 130.24281971559094,91.46639266603499 L 134.26920562057137,90.7458065893593 L 138.45572176481315,88.87228279000249 L 142.94114768900928,85.84582126796458 L 147.86426293385287,81.66642202324553 L 147.86426293385287,81.66642202324553 L 155.5505144183936,74.58510699813631 L 161.3152030317992,67.29028498734525 L 165.1583287740696,59.95276157941778 L 167.0798916452048,52.74334236289959 L 167.0798916452048,45.832832926335506 L 165.15832877406956,39.392038858271405 L 161.31520303179923,33.59176574725221 L 155.55051441839365,28.602819181823378 L 147.86426293385287,24.59600475053039 L 147.86426293385287,24.59600475053039 L 137.79918778384194,21.240386625566583 L 129.12190804076207,18.984329476863405 L 121.68296881463591,17.870534701557183 L 115.3329152154864,17.941703696784387 L 109.92229235333627,19.24053785968134 L 105.3016453382084,21.80973858738451 L 101.32151928012561,25.692007277029774 L 97.8324592891107,30.930045325753756 L 94.68501047518649,37.56655413069292 L 94.68501047518649,37.56655413069292 L 94.68501047518649,37.56655413069292 L 94.68501047518649,37.56655413069292 L 94.68501047518649,37.56655413069292 L 94.68501047518649,37.56655413069292 L 94.68501047518649,37.56655413069292 L 94.68501047518649,37.56655413069292 L 94.68501047518649,37.56655413069292 L 94.68501047518649,37.56655413069292 L 94.68501047518649,37.56655413069292 L 160.8348123140154,164.6779380562857 L 142.66536783250373,173.01538584715578 L 128.37107514111477,181.12865130305977 L 117.31141328280336,190.90727124728102 L 108.84586130052442,204.24078250310248 L 102.33389823723294,223.01872189380686 L 97.13500313588385,249.13062624267735 L 92.60865503943208,284.4660323729966 L 88.11433299083254,330.91447710804783 L 83.01151603304021,390.3654972711138 L 83.01151603304021,390.3654972711138 L 80.92092679824034,442.39359123197977 L 84.06125871264183,489.34021893362154 L 92.28305688626752,530.9278212946529 L 105.43686642914014,566.8788392336877 L 123.37323245128262,596.9157136693399 L 145.94270006271768,620.760885520223 L 172.99581437346816,638.136795704951 L 204.38312049355696,648.7658851421377 L 239.95516353300687,652.3705947503969 L 239.95516353300687,652.3705947503969 L 274.4205286966732,648.8601840608138 L 305.0747941659217,638.5068744801326 L 331.75782970149055,621.5775497404554 L 354.30950506411887,598.3390935738845 L 372.5696900145452,569.0583897125216 L 386.3782543135083,534.0023218884693 L 395.5750677217471,493.4377738338292 L 400.0,447.63162928070386 L 399.492920909006,396.85077196119505 L 399.492920909006,396.85077196119505 L 392.84573675478265,339.99564089904237 L 379.46240720230236,289.23613427810164 L 360.10088205073464,245.28750050040696 L 335.51911109924964,208.8649879679916 L 306.47504414701734,180.68384508288958 L 273.72663099320783,161.45932024713437 L 238.03182143699104,151.9066618627595 L 200.14856527753685,152.74111833179873 L 160.8348123140154,164.6779380562857 L 160.8348123140154,164.6779380562857 L 160.8348123140154,164.6779380562857 L 160.8348123140154,164.6779380562857 L 160.8348123140154,164.6779380562857 L 160.8348123140154,164.6779380562857 L 160.8348123140154,164.6779380562857 L 160.8348123140154,164.6779380562857 L 160.8348123140154,164.6779380562857 L 160.8348123140154,164.6779380562857 L 160.8348123140154,164.6779380562857 L 309.9961301858845,294.38343185791103 L 309.9961301858845,294.38343185791103 L 309.9961301858845,294.38343185791103 L 309.9961301858845,294.38343185791103 L 309.9961301858845,294.38343185791103 L 309.9961301858845,294.38343185791103 L 309.9961301858845,294.38343185791103 L 309.9961301858845,294.38343185791103 L 309.9961301858845,294.38343185791103 L 309.9961301858845,294.38343185791103 L 309.9961301858845,294.38343185791103 L 322.72648420715507,322.7727440540528 L 332.3823376346095,351.53569347513746 L 338.96369046824753,380.3733703412107 L 342.4705427080693,408.9868648723184 L 342.90289435407465,437.07726728850577 L 340.26074540626377,464.3456678098186 L 334.5440958646366,490.4931566563026 L 325.7529457291931,515.2208240480035 L 313.8872949999333,538.2297602049666 L 313.8872949999333,538.2297602049666 L 288.5440157995169,571.314446861225 L 262.46413749849876,590.6706343381504 L 236.64046758029866,597.0776231334818 L 212.0658135283364,591.314713744957 L 189.73298282603182,574.161206670314 L 170.63478295680486,546.3964024072912 L 155.76402140407532,508.7996014536267 L 146.113505651263,462.1501043070586 L 142.67604318178786,407.22721146532507 L 142.67604318178786,407.22721146532507 L 143.40018770822488,376.6690241396336 L 145.58685508658155,349.82585836480325 L 149.25739601542588,326.6656880929822 L 154.43316119332616,307.156487276318 L 161.13550131885046,291.26622986695844 L 169.385767090567,278.9628898170512 L 179.20530920704394,270.214441078744 L 190.6154783668495,264.9888576041847 L 203.63762526855177,263.254113345521 L 203.63762526855177,263.254113345521 L 209.44323605421295,262.9694373646122 L 214.72575472495407,262.1296432209307 L 219.4424798836387,260.75608161304507 L 223.5507101331305,258.8701032395236 L 227.00774407629316,256.49305879893427 L 229.77088031599033,253.646298989845 L 231.7974174550857,250.3511745108243 L 233.04465409644288,246.62903606044026 L 233.4698888429256,242.50123433726094 L 233.4698888429256,242.50123433726094 L 235.02671061352123,231.64084566558583 L 239.3911492458311,225.6590916167372 L 246.10416472063946,224.2463870614766 L 254.70671701873079,227.09314687056573 L 264.73976612088944,233.88978591476615 L 275.7442720078997,244.3267190648394 L 287.26119466054615,258.09436119154685 L 298.8314940596129,274.8831271656502 L 309.9961301858845,294.38343185791103 L 309.9961301858845,294.38343185791103 L 309.9961301858845,294.38343185791103 L 309.9961301858845,294.38343185791103 L 309.9961301858845,294.38343185791103 L 309.9961301858845,294.38343185791103 L 309.9961301858845,294.38343185791103 L 309.9961301858845,294.38343185791103 L 309.9961301858845,294.38343185791103 L 309.9961301858845,294.38343185791103 L 309.9961301858845,294.38343185791103M272.3815369834132 10.328400432351607 L 94.68501047518649,37.56655413069292 L 93.72067058985752,41.33673165285551 L 93.40752701085773,45.63000128993808 L 93.7242290396189,50.29690815196344 L 94.64942597757289,55.187997348954895 L 96.1617671261515,60.15381399093473 L 98.23990178678658,65.04490318792618 L 100.86247926090996,69.7118100499517 L 104.00814884995353,74.00507968703432 L 107.65555985534903,77.77525720919678 L 107.65555985534903,77.77525720919678 L 112.96298767441961,82.81935974592676 L 117.73664802928606,86.71052455997537 L 122.11532046064134,89.44875165134304 L 126.23778450917857,91.03404102002952 L 130.24281971559094,91.46639266603499 L 134.26920562057137,90.7458065893593 L 138.45572176481315,88.87228279000249 L 142.94114768900928,85.84582126796458 L 147.86426293385287,81.66642202324553 L 147.86426293385287,81.66642202324553 L 155.5505144183936,74.58510699813631 L 161.3152030317992,67.29028498734525 L 165.1583287740696,59.95276157941778 L 167.0798916452048,52.74334236289959 L 167.0798916452048,45.832832926335506 L 165.15832877406956,39.392038858271405 L 161.31520303179923,33.59176574725221 L 155.55051441839365,28.602819181823378 L 147.86426293385287,24.59600475053039 L 147.86426293385287,24.59600475053039 L 137.79918778384194,21.240386625566583 L 129.12190804076207,18.984329476863405 L 121.68296881463591,17.870534701557183 L 115.3329152154864,17.941703696784387 L 109.92229235333627,19.24053785968134 L 105.3016453382084,21.80973858738451 L 101.32151928012561,25.692007277029774 L 97.8324592891107,30.930045325753756 L 94.68501047518649,37.56655413069292 L 94.68501047518649,37.56655413069292 L 94.68501047518649,37.56655413069292 L 94.68501047518649,37.56655413069292 L 94.68501047518649,37.56655413069292 L 94.68501047518649,37.56655413069292 L 94.68501047518649,37.56655413069292 L 94.68501047518649,37.56655413069292 L 94.68501047518649,37.56655413069292 L 94.68501047518649,37.56655413069292 L 94.68501047518649,37.56655413069292 L 160.8348123140154,164.6779380562857 L 142.66536783250373,173.01538584715578 L 128.37107514111477,181.12865130305977 L 117.31141328280336,190.90727124728102 L 108.84586130052442,204.24078250310248 L 102.33389823723294,223.01872189380686 L 97.13500313588385,249.13062624267735 L 92.60865503943208,284.4660323729966 L 88.11433299083254,330.91447710804783 L 83.01151603304021,390.3654972711138 L 83.01151603304021,390.3654972711138 L 80.92092679824034,442.39359123197977 L 84.06125871264183,489.34021893362154 L 92.28305688626752,530.9278212946529 L 105.43686642914014,566.8788392336877 L 123.37323245128262,596.9157136693399 L 145.94270006271768,620.760885520223 L 172.99581437346816,638.136795704951 L 204.38312049355696,648.7658851421377 L 239.95516353300687,652.3705947503969 L 239.95516353300687,652.3705947503969 L 274.4205286966732,648.8601840608138 L 305.0747941659217,638.5068744801326 L 331.75782970149055,621.5775497404554 L 354.30950506411887,598.3390935738845 L 372.5696900145452,569.0583897125216 L 386.3782543135083,534.0023218884693 L 395.5750677217471,493.4377738338292 L 400.0,447.63162928070386 L 399.492920909006,396.85077196119505 L 399.492920909006,396.85077196119505 L 392.84573675478265,339.99564089904237 L 379.46240720230236,289.23613427810164 L 360.10088205073464,245.28750050040696 L 335.51911109924964,208.8649879679916 L 306.47504414701734,180.68384508288958 L 273.72663099320783,161.45932024713437 L 238.03182143699104,151.9066618627595 L 200.14856527753685,152.74111833179873 L 160.8348123140154,164.6779380562857 L 160.8348123140154,164.6779380562857 L 160.8348123140154,164.6779380562857 L 160.8348123140154,164.6779380562857 L 160.8348123140154,164.6779380562857 L 160.8348123140154,164.6779380562857 L 160.8348123140154,164.6779380562857 L 160.8348123140154,164.6779380562857 L 160.8348123140154,164.6779380562857 L 160.8348123140154,164.6779380562857 L 160.8348123140154,164.6779380562857 L 309.9961301858845,294.38343185791103 L 309.9961301858845,294.38343185791103 L 309.9961301858845,294.38343185791103 L 309.9961301858845,294.38343185791103 L 309.9961301858845,294.38343185791103 L 309.9961301858845,294.38343185791103 L 309.9961301858845,294.38343185791103 L 309.9961301858845,294.38343185791103 L 309.9961301858845,294.38343185791103 L 309.9961301858845,294.38343185791103 L 309.9961301858845,294.38343185791103 L 322.72648420715507,322.7727440540528 L 332.3823376346095,351.53569347513746 L 338.96369046824753,380.3733703412107 L 342.4705427080693,408.9868648723184 L 342.90289435407465,437.07726728850577 L 340.26074540626377,464.3456678098186 L 334.5440958646366,490.4931566563026 L 325.7529457291931,515.2208240480035 L 313.8872949999333,538.2297602049666 L 313.8872949999333,538.2297602049666 L 288.5440157995169,571.314446861225 L 262.46413749849876,590.6706343381504 L 236.64046758029866,597.0776231334818 L 212.0658135283364,591.314713744957 L 189.73298282603182,574.161206670314 L 170.63478295680486,546.3964024072912 L 155.76402140407532,508.7996014536267 L 146.113505651263,462.1501043070586 L 142.67604318178786,407.22721146532507 L 142.67604318178786,407.22721146532507 L 143.40018770822488,376.6690241396336 L 145.58685508658155,349.82585836480325 L 149.25739601542588,326.6656880929822 L 154.43316119332616,307.156487276318 L 161.13550131885046,291.26622986695844 L 169.385767090567,278.9628898170512 L 179.20530920704394,270.214441078744 L 190.6154783668495,264.9888576041847 L 203.63762526855177,263.254113345521 L 203.63762526855177,263.254113345521 L 209.44323605421295,262.9694373646122 L 214.72575472495407,262.1296432209307 L 219.4424798836387,260.75608161304507 L 223.5507101331305,258.8701032395236 L 227.00774407629316,256.49305879893427 L 229.77088031599033,253.646298989845 L 231.7974174550857,250.3511745108243 L 233.04465409644288,246.62903606044026 L 233.4698888429256,242.50123433726094 L 233.4698888429256,242.50123433726094 L 235.02671061352123,231.64084566558583 L 239.3911492458311,225.6590916167372 L 246.10416472063946,224.2463870614766 L 254.70671701873079,227.09314687056573 L 264.73976612088944,233.88978591476615 L 275.7442720078997,244.3267190648394 L 287.26119466054615,258.09436119154685 L 298.8314940596129,274.8831271656502 L 309.9961301858845,294.38343185791103 L 309.9961301858845,294.38343185791103 L 309.9961301858845,294.38343185791103 L 309.9961301858845,294.38343185791103 L 309.9961301858845,294.38343185791103 L 309.9961301858845,294.38343185791103 L 309.9961301858845,294.38343185791103 L 309.9961301858845,294.38343185791103 L 309.9961301858845,294.38343185791103 L 309.9961301858845,294.38343185791103 L 309.9961301858845,294.38343185791103 L 272.3815369834132,10.328400432351607 L 268.53841124114274,15.249736452314643 L 265.65606693444005,19.722707802345774 L 263.7345040633049,23.87541867385456 L 262.77372262773724,27.83597325825005 L 262.77372262773724,31.732475746940832 L 263.7345040633048,35.69303033133617 L 265.65606693444005,39.845741202844884 L 268.53841124114274,44.31871255287631 L 272.3815369834132,49.24004857283921 L 272.3815369834132,49.24004857283921 L 280.7545692718966,57.557924890021816 L 289.981629503107,63.5165490154214 L 299.5716516099762,67.15862234617481 L 309.03356952543623,68.52684627941827 L 317.87631718241954,67.6639222122881 L 325.60882851385793,64.61255154192072 L 331.74003745268374,59.41543566545236 L 335.77887793182896,52.11527598001927 L 337.2342838842259,42.75477388275794 L 337.2342838842259,42.75477388275794 L 335.69347513755616,31.607930005293333 L 331.4411276727294,21.699426644782083 L 325.0323596525174,13.306822882611016 L 317.0222892396927,6.7076778001662225 L 307.9660345970278,2.1795504788338773 L 298.418713887295,0.0 L 288.93544527326674,0.44658544505090764 L 280.0713469177153,3.7968658953727696 L 272.3815369834132,10.328400432351607 L 272.3815369834132,10.328400432351607 L 272.3815369834132,10.328400432351607 L 272.3815369834132,10.328400432351607 L 272.3815369834132,10.328400432351607 L 272.3815369834132,10.328400432351607 L 272.3815369834132,10.328400432351607 L 272.3815369834132,10.328400432351607 L 272.3815369834132,10.328400432351607 L 272.3815369834132,10.328400432351607 L 272.3815369834132,10.328400432351607"/></svg>
