<?xml version="1.0" encoding="utf-8"?>
<svg xmlns="http://www.w3.org/2000/svg"  viewBox="0,0,400,637.6400734246503" width="100%">
<path d="M132.3671497584541 6.722199028515035 L 132.3671497584541,6.722199028515035 L 128.5965156424988,11.709508757281332 L 126.2493124722504,17.420462151183173 L 125.24601896582571,23.505165569935635 L 125.50711384134179,29.613725373253043 L 126.95307581691549,35.3962479208498 L 129.5043836106638,40.502839572440685 L 133.08151594070364,44.58360668773988 L 137.6049515251519,47.288655626462145 L 142.9951690821256,48.2680927483218 L 142.9951690821256,48.2680927483218 L 150.48474848081213,47.61601823688074 L 157.3938225217524,45.77112449719354 L 163.5713007693684,42.90040622121488 L 168.86609278808243,39.17085810089932 L 173.1271081423166,34.749474828200896 L 176.20325639649312,29.803251095074373 L 177.94344711503413,24.499181593473995 L 178.19658986236192,19.00426101535433 L 176.81159420289856,13.485484052669625 L 176.81159420289856,13.485484052669625 L 174.36498943029628,9.05482329708507 L 170.47904945561058,5.451183873084088 L 165.5036679191269,2.7143264216084972 L 159.78873846113066,0.8840115836001176 L 153.68415472190742,0.0 L 147.53981034174268,0.10205231175007431 L 141.70559896092192,1.2299291597913915 L 136.53141421973058,3.4233911850658814 L 132.3671497584541,6.722199028515035 L 132.3671497584541,6.722199028515035 L 132.3671497584541,6.722199028515035 L 132.3671497584541,6.722199028515035 L 132.3671497584541,6.722199028515035 L 132.3671497584541,6.722199028515035 L 132.3671497584541,6.722199028515035 L 132.3671497584541,6.722199028515035 L 132.3671497584541,6.722199028515035 L 132.3671497584541,6.722199028515035 L 132.3671497584541,6.722199028515035"/></svg>
