<?xml version="1.0" encoding="utf-8"?>
<svg xmlns="http://www.w3.org/2000/svg"  viewBox="0,0,400,637.6400734246503" width="100%">
<path d="M132.3671497584541 6.722199028515035 L 132.3671497584541,6.722199028515035 L 128.5965156424988,11.709508757281332 L 126.2493124722504,17.420462151183173 L 125.24601896582571,23.505165569935635 L 125.50711384134179,29.613725373253043 L 126.95307581691549,35.3962479208498 L 129.5043836106638,40.502839572440685 L 133.08151594070364,44.58360668773988 L 137.6049515251519,47.288655626462145 L 142.9951690821256,48.2680927483218 L 142.9951690821256,48.2680927483218 L 150.48474848081213,47.61601823688074 L 157.3938225217524,45.77112449719354 L 163.5713007693684,42.90040622121488 L 168.86609278808243,39.17085810089932 L 173.1271081423166,34.749474828200896 L 176.20325639649312,29.803251095074373 L 177.94344711503413,24.499181593473995 L 178.19658986236192,19.00426101535433 L 176.81159420289856,13.485484052669625 L 176.81159420289856,13.485484052669625 L 174.36498943029628,9.05482329708507 L 170.47904945561058,5.451183873084088 L 165.5036679191269,2.7143264216084972 L 159.78873846113066,0.8840115836001176 L 153.68415472190742,0.0 L 147.53981034174268,0.10205231175007431 L 141.70559896092192,1.2299291597913915 L 136.53141421973058,3.4233911850658814 L 132.3671497584541,6.722199028515035 L 132.3671497584541,6.722199028515035 L 132.3671497584541,6.722199028515035 L 132.3671497584541,6.722199028515035 L 132.3671497584541,6.722199028515035 L 132.3671497584541,6.722199028515035 L 132.3671497584541,6.722199028515035 L 132.3671497584541,6.722199028515035 L 132.3671497584541,6.722199028515035 L 132.3671497584541,6.722199028515035 L 132.3671497584541,6.722199028515035M161.35265700483092 93.67872076764547 L 132.3671497584541,6.722199028515035 L 128.5965156424988,11.709508757281332 L 126.2493124722504,17.420462151183173 L 125.24601896582571,23.505165569935635 L 125.50711384134179,29.613725373253043 L 126.95307581691549,35.3962479208498 L 129.5043836106638,40.502839572440685 L 133.08151594070364,44.58360668773988 L 137.6049515251519,47.288655626462145 L 142.9951690821256,48.2680927483218 L 142.9951690821256,48.2680927483218 L 150.48474848081213,47.61601823688074 L 157.3938225217524,45.77112449719354 L 163.5713007693684,42.90040622121488 L 168.86609278808243,39.17085810089932 L 173.1271081423166,34.749474828200896 L 176.20325639649312,29.803251095074373 L 177.94344711503413,24.499181593473995 L 178.19658986236192,19.00426101535433 L 176.81159420289856,13.485484052669625 L 176.81159420289856,13.485484052669625 L 174.36498943029628,9.05482329708507 L 170.47904945561058,5.451183873084088 L 165.5036679191269,2.7143264216084972 L 159.78873846113066,0.8840115836001176 L 153.68415472190742,0.0 L 147.53981034174268,0.10205231175007431 L 141.70559896092192,1.2299291597913915 L 136.53141421973058,3.4233911850658814 L 132.3671497584541,6.722199028515035 L 132.3671497584541,6.722199028515035 L 132.3671497584541,6.722199028515035 L 132.3671497584541,6.722199028515035 L 132.3671497584541,6.722199028515035 L 132.3671497584541,6.722199028515035 L 132.3671497584541,6.722199028515035 L 132.3671497584541,6.722199028515035 L 132.3671497584541,6.722199028515035 L 132.3671497584541,6.722199028515035 L 132.3671497584541,6.722199028515035 L 161.35265700483092,93.67872076764547 L 149.64977502103994,99.97548093808614 L 139.51346229034544,106.12115067294879 L 130.7210592234747,112.32248530512982 L 123.04990623115512,118.78624016752484 L 116.27734372411416,125.71917059303001 L 110.18071211307927,133.32803191454119 L 104.53735180877783,141.81957946495442 L 99.12460322193726,151.40056857716553 L 93.71980676328502,162.27775458407058 L 93.71980676328502,162.27775458407058 L 85.20970424709913,186.2799281657755 L 78.3854529068342,215.02157014771086 L 73.28681338343175,247.3734783271373 L 69.95354631783331,282.20645050131543 L 68.42541235098044,318.39128446750567 L 68.74217212381463,354.7987780229684 L 70.94358627727745,390.2997289649643 L 75.06941545231042,423.7649350907537 L 81.15942028985508,454.0651941975971 L 81.15942028985508,454.0651941975971 L 90.98029860241347,488.49525854356773 L 101.97013975865292,517.231599106711 L 114.43907675791735,540.5207318608642 L 128.6972425995507,558.6091727798652 L 145.05477028289698,571.7434378375513 L 163.82179280730006,580.1700430077599 L 185.3084431721039,584.1355042643288 L 209.82485437665252,583.8863375810952 L 237.68115942028984,579.6690589318966 L 237.68115942028984,579.6690589318966 L 271.52541698972175,569.556602585767 L 301.5287966442019,554.0923639689072 L 327.64358561460017,533.3638164913885 L 349.82207113178663,507.45843356328237 L 368.0165404266317,476.46368859466014 L 382.17928073000536,440.46705499559323 L 392.2625792727779,399.5560061761529 L 398.21872328581935,353.81801554641066 L 400.0,303.34055651643774 L 400.0,303.34055651643774 L 398.5341577039555,270.0648761124696 L 394.7860546178671,239.17483416499343 L 388.7636428699231,210.69428705857405 L 380.4748745883117,184.64709117777647 L 369.9277019012213,161.05710290716553 L 357.1300769368402,139.94817863130626 L 342.0899518233567,121.3441747347634 L 324.8152786889591,105.2689476021021 L 305.31400966183577,91.74635361788701 L 305.31400966183577,91.74635361788701 L 288.8623817949278,82.8744292691334 L 273.39681782337,76.23705294129348 L 258.5435677223117,71.85012889074439 L 243.92888146690262,69.72956137386278 L 229.17900903229227,69.89125464702488 L 213.92020039363032,72.35111296660777 L 197.77870552606643,77.12504058898769 L 180.38077440475007,84.22894177054141 L 161.35265700483092,93.67872076764547 L 161.35265700483092,93.67872076764547 L 161.35265700483092,93.67872076764547 L 161.35265700483092,93.67872076764547 L 161.35265700483092,93.67872076764547 L 161.35265700483092,93.67872076764547 L 161.35265700483092,93.67872076764547 L 161.35265700483092,93.67872076764547 L 161.35265700483092,93.67872076764547 L 161.35265700483092,93.67872076764547 L 161.35265700483092,93.67872076764547 L 310.1449275362319,144.88645023624449 L 310.1449275362319,144.88645023624449 L 310.1449275362319,144.88645023624449 L 310.1449275362319,144.88645023624449 L 310.1449275362319,144.88645023624449 L 310.1449275362319,144.88645023624449 L 310.1449275362319,144.88645023624449 L 310.1449275362319,144.88645023624449 L 310.1449275362319,144.88645023624449 L 310.1449275362319,144.88645023624449 L 310.1449275362319,144.88645023624449 L 323.0419541029667,159.4587251413161 L 334.09408693001467,174.36498943029628 L 343.3887994274468,189.8676633333996 L 351.01356500533456,206.22916708084003 L 357.05585707374934,223.71192090283157 L 361.6031490427626,242.5783450295886 L 364.74291432244553,263.0908596913249 L 366.56262632286956,285.51188511825484 L 367.1497584541063,310.1038415405923 L 367.1497584541063,310.1038415405923 L 364.5653167929066,354.7431131256503 L 357.0664599113337,396.185629179009 L 345.03488996242623,433.8826928556755 L 328.85230909922274,467.28560731065653 L 308.900419474762,495.84567569895904 L 285.56092324208265,519.0142011755896 L 259.21552255422364,536.2424868955553 L 230.24591956422336,546.9818360138631 L 199.03381642512076,550.6835516855199 L 199.03381642512076,550.6835516855199 L 190.84842580995738,550.4211314553057 L 183.57752993644922,549.5861579955337 L 177.0620862408302,548.1070621525085 L 171.14305215933416,545.912274772536 L 165.66138512819495,542.9302267019211 L 160.45804258364643,539.0893487869691 L 155.37398196192257,534.3180718739853 L 150.25016069925712,528.5448268092748 L 144.92753623188406,521.698044439143 L 144.92753623188406,521.698044439143 L 136.05693723782824,505.78716128903994 L 127.63960955050595,484.0871288178499 L 119.9141170155663,457.96571307396147 L 113.11902347865848,428.79068010576333 L 107.49289278543169,397.9297959616443 L 103.27428878153513,366.75082668999295 L 100.70177531261805,336.6215383391981 L 100.01391622432952,308.9096969576483 L 101.44927536231884,284.9830685937324 L 101.44927536231884,284.9830685937324 L 106.90708600889309,246.68959530294305 L 113.1919179870513,214.5987819990325 L 120.62980855251388,188.25735737526756 L 129.54679496100144,167.2120501249147 L 140.26891446823458,151.0095889412404 L 153.12220432993377,139.19670251751126 L 168.4327018018197,131.32011954699382 L 186.52644413961283,126.92656872295453 L 207.72946859903382,125.56277873865994 L 207.72946859903382,125.56277873865994 L 215.58219518498632,125.39048262791336 L 222.95779407964056,124.90010138963437 L 229.73698336017176,124.13139566476475 L 235.80048110375537,123.12412609424598 L 241.02900538756685,121.91805331901953 L 245.30327428878152,120.55293798002688 L 248.50400588457484,119.06854071820979 L 250.5119182521222,117.50462217450949 L 251.20772946859904,115.90094298986767 L 251.20772946859904,115.90094298986767 L 252.05198041125743,110.31059687348849 L 254.52641763251893,107.03432005990611 L 258.5435677223117,106.02439977999107 L 264.01595727056457,107.23312326461365 L 270.8561128672061,110.61277774464386 L 278.9765611021649,116.11565045095192 L 288.28982856536976,123.69402861440793 L 298.7084418467492,133.30019946588217 L 310.1449275362319,144.88645023624449 L 310.1449275362319,144.88645023624449 L 310.1449275362319,144.88645023624449 L 310.1449275362319,144.88645023624449 L 310.1449275362319,144.88645023624449 L 310.1449275362319,144.88645023624449 L 310.1449275362319,144.88645023624449 L 310.1449275362319,144.88645023624449 L 310.1449275362319,144.88645023624449 L 310.1449275362319,144.88645023624449 L 310.1449275362319,144.88645023624449M289.8550724637681 23.147319801461894 L 132.3671497584541,6.722199028515035 L 128.5965156424988,11.709508757281332 L 126.2493124722504,17.420462151183173 L 125.24601896582571,23.505165569935635 L 125.50711384134179,29.613725373253043 L 126.95307581691549,35.3962479208498 L 129.5043836106638,40.502839572440685 L 133.08151594070364,44.58360668773988 L 137.6049515251519,47.288655626462145 L 142.9951690821256,48.2680927483218 L 142.9951690821256,48.2680927483218 L 150.48474848081213,47.61601823688074 L 157.3938225217524,45.77112449719354 L 163.5713007693684,42.90040622121488 L 168.86609278808243,39.17085810089932 L 173.1271081423166,34.749474828200896 L 176.20325639649312,29.803251095074373 L 177.94344711503413,24.499181593473995 L 178.19658986236192,19.00426101535433 L 176.81159420289856,13.485484052669625 L 176.81159420289856,13.485484052669625 L 174.36498943029628,9.05482329708507 L 170.47904945561058,5.451183873084088 L 165.5036679191269,2.7143264216084972 L 159.78873846113066,0.8840115836001176 L 153.68415472190742,0.0 L 147.53981034174268,0.10205231175007431 L 141.70559896092192,1.2299291597913915 L 136.53141421973058,3.4233911850658814 L 132.3671497584541,6.722199028515035 L 132.3671497584541,6.722199028515035 L 132.3671497584541,6.722199028515035 L 132.3671497584541,6.722199028515035 L 132.3671497584541,6.722199028515035 L 132.3671497584541,6.722199028515035 L 132.3671497584541,6.722199028515035 L 132.3671497584541,6.722199028515035 L 132.3671497584541,6.722199028515035 L 132.3671497584541,6.722199028515035 L 132.3671497584541,6.722199028515035 L 161.35265700483092,93.67872076764547 L 149.64977502103994,99.97548093808614 L 139.51346229034544,106.12115067294879 L 130.7210592234747,112.32248530512982 L 123.04990623115512,118.78624016752484 L 116.27734372411416,125.71917059303001 L 110.18071211307927,133.32803191454119 L 104.53735180877783,141.81957946495442 L 99.12460322193726,151.40056857716553 L 93.71980676328502,162.27775458407058 L 93.71980676328502,162.27775458407058 L 85.20970424709913,186.2799281657755 L 78.3854529068342,215.02157014771086 L 73.28681338343175,247.3734783271373 L 69.95354631783331,282.20645050131543 L 68.42541235098044,318.39128446750567 L 68.74217212381463,354.7987780229684 L 70.94358627727745,390.2997289649643 L 75.06941545231042,423.7649350907537 L 81.15942028985508,454.0651941975971 L 81.15942028985508,454.0651941975971 L 90.98029860241347,488.49525854356773 L 101.97013975865292,517.231599106711 L 114.43907675791735,540.5207318608642 L 128.6972425995507,558.6091727798652 L 145.05477028289698,571.7434378375513 L 163.82179280730006,580.1700430077599 L 185.3084431721039,584.1355042643288 L 209.82485437665252,583.8863375810952 L 237.68115942028984,579.6690589318966 L 237.68115942028984,579.6690589318966 L 271.52541698972175,569.556602585767 L 301.5287966442019,554.0923639689072 L 327.64358561460017,533.3638164913885 L 349.82207113178663,507.45843356328237 L 368.0165404266317,476.46368859466014 L 382.17928073000536,440.46705499559323 L 392.2625792727779,399.5560061761529 L 398.21872328581935,353.81801554641066 L 400.0,303.34055651643774 L 400.0,303.34055651643774 L 398.5341577039555,270.0648761124696 L 394.7860546178671,239.17483416499343 L 388.7636428699231,210.69428705857405 L 380.4748745883117,184.64709117777647 L 369.9277019012213,161.05710290716553 L 357.1300769368402,139.94817863130626 L 342.0899518233567,121.3441747347634 L 324.8152786889591,105.2689476021021 L 305.31400966183577,91.74635361788701 L 305.31400966183577,91.74635361788701 L 288.8623817949278,82.8744292691334 L 273.39681782337,76.23705294129348 L 258.5435677223117,71.85012889074439 L 243.92888146690262,69.72956137386278 L 229.17900903229227,69.89125464702488 L 213.92020039363032,72.35111296660777 L 197.77870552606643,77.12504058898769 L 180.38077440475007,84.22894177054141 L 161.35265700483092,93.67872076764547 L 161.35265700483092,93.67872076764547 L 161.35265700483092,93.67872076764547 L 161.35265700483092,93.67872076764547 L 161.35265700483092,93.67872076764547 L 161.35265700483092,93.67872076764547 L 161.35265700483092,93.67872076764547 L 161.35265700483092,93.67872076764547 L 161.35265700483092,93.67872076764547 L 161.35265700483092,93.67872076764547 L 161.35265700483092,93.67872076764547 L 310.1449275362319,144.88645023624449 L 310.1449275362319,144.88645023624449 L 310.1449275362319,144.88645023624449 L 310.1449275362319,144.88645023624449 L 310.1449275362319,144.88645023624449 L 310.1449275362319,144.88645023624449 L 310.1449275362319,144.88645023624449 L 310.1449275362319,144.88645023624449 L 310.1449275362319,144.88645023624449 L 310.1449275362319,144.88645023624449 L 310.1449275362319,144.88645023624449 L 323.0419541029667,159.4587251413161 L 334.09408693001467,174.36498943029628 L 343.3887994274468,189.8676633333996 L 351.01356500533456,206.22916708084003 L 357.05585707374934,223.71192090283157 L 361.6031490427626,242.5783450295886 L 364.74291432244553,263.0908596913249 L 366.56262632286956,285.51188511825484 L 367.1497584541063,310.1038415405923 L 367.1497584541063,310.1038415405923 L 364.5653167929066,354.7431131256503 L 357.0664599113337,396.185629179009 L 345.03488996242623,433.8826928556755 L 328.85230909922274,467.28560731065653 L 308.900419474762,495.84567569895904 L 285.56092324208265,519.0142011755896 L 259.21552255422364,536.2424868955553 L 230.24591956422336,546.9818360138631 L 199.03381642512076,550.6835516855199 L 199.03381642512076,550.6835516855199 L 190.84842580995738,550.4211314553057 L 183.57752993644922,549.5861579955337 L 177.0620862408302,548.1070621525085 L 171.14305215933416,545.912274772536 L 165.66138512819495,542.9302267019211 L 160.45804258364643,539.0893487869691 L 155.37398196192257,534.3180718739853 L 150.25016069925712,528.5448268092748 L 144.92753623188406,521.698044439143 L 144.92753623188406,521.698044439143 L 136.05693723782824,505.78716128903994 L 127.63960955050595,484.0871288178499 L 119.9141170155663,457.96571307396147 L 113.11902347865848,428.79068010576333 L 107.49289278543169,397.9297959616443 L 103.27428878153513,366.75082668999295 L 100.70177531261805,336.6215383391981 L 100.01391622432952,308.9096969576483 L 101.44927536231884,284.9830685937324 L 101.44927536231884,284.9830685937324 L 106.90708600889309,246.68959530294305 L 113.1919179870513,214.5987819990325 L 120.62980855251388,188.25735737526756 L 129.54679496100144,167.2120501249147 L 140.26891446823458,151.0095889412404 L 153.12220432993377,139.19670251751126 L 168.4327018018197,131.32011954699382 L 186.52644413961283,126.92656872295453 L 207.72946859903382,125.56277873865994 L 207.72946859903382,125.56277873865994 L 215.58219518498632,125.39048262791336 L 222.95779407964056,124.90010138963437 L 229.73698336017176,124.13139566476475 L 235.80048110375537,123.12412609424598 L 241.02900538756685,121.91805331901953 L 245.30327428878152,120.55293798002688 L 248.50400588457484,119.06854071820979 L 250.5119182521222,117.50462217450949 L 251.20772946859904,115.90094298986767 L 251.20772946859904,115.90094298986767 L 252.05198041125743,110.31059687348849 L 254.52641763251893,107.03432005990611 L 258.5435677223117,106.02439977999107 L 264.01595727056457,107.23312326461365 L 270.8561128672061,110.61277774464386 L 278.9765611021649,116.11565045095192 L 288.28982856536976,123.69402861440793 L 298.7084418467492,133.30019946588217 L 310.1449275362319,144.88645023624449 L 310.1449275362319,144.88645023624449 L 310.1449275362319,144.88645023624449 L 310.1449275362319,144.88645023624449 L 310.1449275362319,144.88645023624449 L 310.1449275362319,144.88645023624449 L 310.1449275362319,144.88645023624449 L 310.1449275362319,144.88645023624449 L 310.1449275362319,144.88645023624449 L 310.1449275362319,144.88645023624449 L 310.1449275362319,144.88645023624449 L 289.8550724637681,23.147319801461894 L 290.04857424968355,29.352630497737113 L 290.6873952141442,34.500308144967214 L 291.8590087672213,38.677826153224125 L 293.6508883189864,41.97265793257919 L 296.1505072795107,44.472276893103576 L 299.44533905886556,46.264156444868526 L 303.6228570671226,47.43576999794575 L 308.77053471435295,48.07459096240638 L 314.97584541062804,48.2680927483218 L 314.97584541062804,48.2680927483218 L 321.1440461753576,48.11037553925379 L 326.1750926091595,47.578908305335155 L 330.1485059939166,46.586217636494865 L 333.14380761151205,45.04483012266154 L 335.24051874382883,42.86727235376371 L 336.51816067275,39.96607091972991 L 337.0562546801588,36.25375241048885 L 336.93432204793805,31.642843415969203 L 336.231884057971,26.045870526099577 L 336.231884057971,26.045870526099577 L 335.33992034618257,21.71858743696294 L 333.9628768149076,17.76505437267649 L 332.1166577205224,14.20117558961722 L 329.81716731940384,11.042855344161566 L 327.08030986792846,8.305997892686086 L 323.9219896224727,6.006507491567438 L 320.3581108394134,4.160288397182397 L 316.4045777751271,2.7832448659074025 L 312.07729468599035,1.8912811541188994 L 312.07729468599035,1.8912811541188994 L 306.4803217961207,1.1888431641519466 L 301.8694128016011,1.0669105319310173 L 298.15709429236,1.605004539339861 L 295.2558928583262,2.882646468261129 L 293.0783350894283,4.979357600577802 L 291.53694757559487,7.9746592181733 L 290.54425690675464,11.948072602930385 L 290.01278967283616,16.979119036732254 L 289.8550724637681,23.147319801461894 L 289.8550724637681,23.147319801461894 L 289.8550724637681,23.147319801461894 L 289.8550724637681,23.147319801461894 L 289.8550724637681,23.147319801461894 L 289.8550724637681,23.147319801461894 L 289.8550724637681,23.147319801461894 L 289.8550724637681,23.147319801461894 L 289.8550724637681,23.147319801461894 L 289.8550724637681,23.147319801461894 L 289.8550724637681,23.147319801461894"/></svg>
