<?xml version="1.0" encoding="utf-8"?>
<svg xmlns="http://www.w3.org/2000/svg"  viewBox="0,0,400,589.7799542415513" width="100%">
<path d="M136.8899079395356 27.8108584897736 L 136.8899079395356,27.8108584897736 L 128.33120024509924,39.01031294628091 L 122.74926247856617,50.269065608523206 L 120.02549822846613,61.219467600942885 L 120.04131108332881,71.49387004798217 L 122.67810463168404,80.72462407408321 L 127.81728246206148,88.54408080368843 L 135.340248162991,94.58459136123977 L 145.12840532300226,98.47850687117969 L 157.06315753062506,99.85817845795023 L 157.06315753062506,99.85817845795023 L 167.99972327503988,98.13457727791607 L 178.48562265586781,93.32746939965517 L 188.17692607984506,85.98239831593096 L 196.72970395370785,76.64490751950669 L 203.8000266841926,65.8605405031453 L 209.04396467803542,54.17484075961018 L 212.11758834197275,42.13335178166411 L 212.67696808274076,30.281617062070534 L 210.37817430707577,19.165180093592408 L 210.37817430707577,19.165180093592408 L 205.81814228604463,10.78041380264583 L 199.94169009769382,4.815014305692225 L 192.92671235922853,1.2334026792905672 L 184.95110368785424,0.0 L 176.19275870077632,1.0792273443793383 L 166.82957201520009,4.435505788987397 L 157.039438248331,10.033256410383236 L 147.00025201737438,17.83690028512559 L 136.8899079395356,27.8108584897736 L 136.8899079395356,27.8108584897736 L 136.8899079395356,27.8108584897736 L 136.8899079395356,27.8108584897736 L 136.8899079395356,27.8108584897736 L 136.8899079395356,27.8108584897736 L 136.8899079395356,27.8108584897736 L 136.8899079395356,27.8108584897736 L 136.8899079395356,27.8108584897736 L 136.8899079395356,27.8108584897736 L 136.8899079395356,27.8108584897736"/></svg>
