<?xml version="1.0" encoding="utf-8"?>
<svg xmlns="http://www.w3.org/2000/svg"  viewBox="0,0,400,589.7799542415513" width="100%">
<path d="M136.8899079395356 27.8108584897736 L 136.8899079395356,27.8108584897736 L 128.33120024509924,39.01031294628091 L 122.74926247856617,50.269065608523206 L 120.02549822846613,61.219467600942885 L 120.04131108332881,71.49387004798217 L 122.67810463168404,80.72462407408321 L 127.81728246206148,88.54408080368843 L 135.340248162991,94.58459136123977 L 145.12840532300226,98.47850687117969 L 157.06315753062506,99.85817845795023 L 157.06315753062506,99.85817845795023 L 167.99972327503988,98.13457727791607 L 178.48562265586781,93.32746939965517 L 188.17692607984506,85.98239831593096 L 196.72970395370785,76.64490751950669 L 203.8000266841926,65.8605405031453 L 209.04396467803542,54.17484075961018 L 212.11758834197275,42.13335178166411 L 212.67696808274076,30.281617062070534 L 210.37817430707577,19.165180093592408 L 210.37817430707577,19.165180093592408 L 205.81814228604463,10.78041380264583 L 199.94169009769382,4.815014305692225 L 192.92671235922853,1.2334026792905672 L 184.95110368785424,0.0 L 176.19275870077632,1.0792273443793383 L 166.82957201520009,4.435505788987397 L 157.039438248331,10.033256410383236 L 147.00025201737438,17.83690028512559 L 136.8899079395356,27.8108584897736 L 136.8899079395356,27.8108584897736 L 136.8899079395356,27.8108584897736 L 136.8899079395356,27.8108584897736 L 136.8899079395356,27.8108584897736 L 136.8899079395356,27.8108584897736 L 136.8899079395356,27.8108584897736 L 136.8899079395356,27.8108584897736 L 136.8899079395356,27.8108584897736 L 136.8899079395356,27.8108584897736 L 136.8899079395356,27.8108584897736M221.90574550198403 200.7244264133975 L 136.8899079395356,27.8108584897736 L 128.33120024509924,39.01031294628091 L 122.74926247856617,50.269065608523206 L 120.02549822846613,61.219467600942885 L 120.04131108332881,71.49387004798217 L 122.67810463168404,80.72462407408321 L 127.81728246206148,88.54408080368843 L 135.340248162991,94.58459136123977 L 145.12840532300226,98.47850687117969 L 157.06315753062506,99.85817845795023 L 157.06315753062506,99.85817845795023 L 167.99972327503988,98.13457727791607 L 178.48562265586781,93.32746939965517 L 188.17692607984506,85.98239831593096 L 196.72970395370785,76.64490751950669 L 203.8000266841926,65.8605405031453 L 209.04396467803542,54.17484075961018 L 212.11758834197275,42.13335178166411 L 212.67696808274076,30.281617062070534 L 210.37817430707577,19.165180093592408 L 210.37817430707577,19.165180093592408 L 205.81814228604463,10.78041380264583 L 199.94169009769382,4.815014305692225 L 192.92671235922853,1.2334026792905672 L 184.95110368785424,0.0 L 176.19275870077632,1.0792273443793383 L 166.82957201520009,4.435505788987397 L 157.039438248331,10.033256410383236 L 147.00025201737438,17.83690028512559 L 136.8899079395356,27.8108584897736 L 136.8899079395356,27.8108584897736 L 136.8899079395356,27.8108584897736 L 136.8899079395356,27.8108584897736 L 136.8899079395356,27.8108584897736 L 136.8899079395356,27.8108584897736 L 136.8899079395356,27.8108584897736 L 136.8899079395356,27.8108584897736 L 136.8899079395356,27.8108584897736 L 136.8899079395356,27.8108584897736 L 136.8899079395356,27.8108584897736 L 221.90574550198403,200.7244264133975 L 209.78519224972447,208.59527492130644 L 194.42695696432722,223.3447152944898 L 177.0763019662297,243.20566100204087 L 158.97848957586962,266.41102551305306 L 141.37878211368454,291.1937222966196 L 125.52244190011218,315.78666482183365 L 112.65473125559008,338.42276655778863 L 104.02091250055592,357.33494097357783 L 100.86624795544729,370.75610153829433 L 100.86624795544729,370.75610153829433 L 100.65672762851649,374.00564321257923 L 100.04397950258688,377.0061324227765 L 99.0517228599525,379.7219902454451 L 97.70367698290733,382.1176377571443 L 96.02356115374543,384.15749603443254 L 94.0350946547609,385.80598615386907 L 91.7619967682478,387.0275291920126 L 89.22798677650012,387.7865462254222 L 86.45678396181196,388.04745833065675 L 86.45678396181196,388.04745833065675 L 84.06508966382857,389.08320032416367 L 81.73269357158034,392.0639234657826 L 79.51889389080237,396.7998734971612 L 77.48298882722975,403.1012961599472 L 75.68427658659762,410.77843719578794 L 74.18205537464112,419.6415423463313 L 73.03562339709538,429.50085735322466 L 72.30427885969551,440.1666279581158 L 72.04731996817664,451.44909990265216 L 72.04731996817664,451.44909990265216 L 72.27660636368577,467.3943874248273 L 73.02771696966403,480.81357138268606 L 74.3955289152876,491.9557042403159 L 76.47491932973261,501.0698384618046 L 79.36076534217536,508.40502651123956 L 83.14794408179198,514.2103208527083 L 87.93133267775872,518.7347739502983 L 93.80580825925175,522.2274382680971 L 100.86624795544729,524.9373662701923 L 100.86624795544729,524.9373662701923 L 118.45409577648527,528.7838432155442 L 136.54004852569835,529.772146644463 L 154.9817905093222,527.9259958392427 L 173.63700603359243,523.2691100821775 L 192.36337940474488,515.8252086555615 L 211.0185949290151,505.6180108416887 L 229.46033691263892,492.6712359228531 L 247.54628966185197,477.0086031813488 L 265.13413748289,458.6538318994699 L 265.13413748289,458.6538318994699 L 278.67784767279244,443.39047374324866 L 289.6954542983787,429.83490391219925 L 298.43600982373613,417.3467017843819 L 305.14856671295223,405.28544673785757 L 310.08217743011465,393.0107181506867 L 313.48589443931075,379.88209540093015 L 315.60877020462823,365.25915786664825 L 316.69985719015455,348.501484925902 L 317.0082078599772,328.9686559567519 L 317.0082078599772,328.9686559567519 L 315.83410338642165,294.9690413950892 L 312.3117899657553,265.96233575632397 L 306.44126759797797,241.92481975816222 L 298.2225362830897,222.83277411830986 L 287.6555960210904,208.66247955447284 L 274.7404468119802,199.3902167843572 L 259.47708865575913,194.99226652566875 L 241.86552155242705,195.44490949611358 L 221.90574550198403,200.7244264133975 L 221.90574550198403,200.7244264133975 L 221.90574550198403,200.7244264133975 L 221.90574550198403,200.7244264133975 L 221.90574550198403,200.7244264133975 L 221.90574550198403,200.7244264133975 L 221.90574550198403,200.7244264133975 L 221.90574550198403,200.7244264133975 L 221.90574550198403,200.7244264133975 L 221.90574550198403,200.7244264133975 L 221.90574550198403,200.7244264133975 L 268.0160302816171,294.38594237202716 L 268.0160302816171,294.38594237202716 L 268.0160302816171,294.38594237202716 L 268.0160302816171,294.38594237202716 L 268.0160302816171,294.38594237202716 L 268.0160302816171,294.38594237202716 L 268.0160302816171,294.38594237202716 L 268.0160302816171,294.38594237202716 L 268.0160302816171,294.38594237202716 L 268.0160302816171,294.38594237202716 L 268.0160302816171,294.38594237202716 L 270.4531865373307,319.15875612130446 L 266.80634688462055,345.5919196311652 L 257.9294054860724,372.4638898634659 L 244.67625650427198,398.55312378006295 L 227.90079410180516,422.6380783428129 L 208.4569124412577,443.49721051357193 L 187.19850568521548,459.9089772541966 L 164.97946799626422,470.6518355265434 L 142.65369353698972,474.50424229246875 L 142.65369353698972,474.50424229246875 L 134.96073964628619,474.33425410269473 L 129.14160905681263,473.57128385556945 L 125.14886320398091,471.83582303438806 L 122.93506352320291,468.74836312244594 L 122.45277144989056,463.92939560303813 L 123.65454841945575,456.99941195945985 L 126.49295586731037,447.5789036750064 L 130.92055522886636,435.2883622329728 L 136.8899079395356,419.7482791166545 L 136.8899079395356,419.7482791166545 L 147.99646187372443,395.6178625961744 L 160.7396462862028,370.90632365949006 L 174.51461947847227,346.5268546749224 L 188.71653975203466,323.39264801079236 L 202.74056540839172,302.41689603542085 L 215.981854749045,284.5127911171288 L 227.8355660754965,270.59352562423726 L 237.69685768924774,261.5722919250669 L 244.96088789180055,258.3622823879388 L 244.96088789180055,258.3622823879388 L 247.45931896010714,258.93352176985394 L 250.11192536332507,260.5839884961481 L 252.85940889571918,263.2188054376456 L 255.6424713515544,266.7430954651698 L 258.4018145250955,271.0619814495447 L 261.07814021060744,276.08058626159414 L 263.61215020235517,281.7040327721418 L 265.94454629460336,287.8374438520115 L 268.0160302816171,294.38594237202716 L 268.0160302816171,294.38594237202716 L 268.0160302816171,294.38594237202716 L 268.0160302816171,294.38594237202716 L 268.0160302816171,294.38594237202716 L 268.0160302816171,294.38594237202716 L 268.0160302816171,294.38594237202716 L 268.0160302816171,294.38594237202716 L 268.0160302816171,294.38594237202716 L 268.0160302816171,294.38594237202716 L 268.0160302816171,294.38594237202716"/></svg>
