<?xml version="1.0" encoding="utf-8"?>
<svg xmlns="http://www.w3.org/2000/svg"  viewBox="0,0,400,628.1215087513965" width="100%">
<path d="M220.6309517476193 138.59658456136623 L 220.6309517476193,138.59658456136623 L 219.30686338836568,142.36905416348952 L 217.12448203909605,149.43282911575716 L 214.1831143267543,159.4403362238655 L 210.58206687828434,172.04400229351018 L 206.42064632063034,186.89625413038726 L 201.79815928073626,203.64951854019267 L 196.81391238554616,221.95622232862232 L 191.56721226200395,241.46879230137202 L 186.15736553705378,261.83965526413795 L 186.15736553705378,261.83965526413795 L 180.33728786508476,281.98589609453063 L 174.45337021865188,301.3944305533389 L 168.633292546683,319.7105921157631 L 163.00473479810609,336.57971425700316 L 157.69537692184923,351.647130452259 L 152.83289886684045,364.5581741767304 L 148.54498058200778,374.9581789056174 L 144.95930201627917,382.4924781141199 L 142.20354311858273,386.80640527743793 L 142.20354311858273,386.80640527743793 L 139.94431735560636,389.7229463330438 L 137.79149155007005,393.22114048932156 L 135.78762568494972,397.1804011278395 L 133.97527974322142,401.48014163016563 L 132.3970137078612,405.9997753778676 L 131.09538756184494,410.61871575251376 L 130.1129612881488,415.2163761356718 L 129.49229486974872,419.6721699089099 L 129.2759482896207,423.8655104537959 L 129.2759482896207,423.8655104537959 L 128.99576173502862,429.12166835133274 L 128.1835753932365,436.1015055593977 L 126.88194924722029,444.54966218013516 L 125.13344327995601,454.2107783156887 L 122.98061747441966,464.82949406820234 L 120.46603181358726,476.15044953982016 L 117.63224628043481,487.91828483268614 L 114.52182085793832,499.87764004894404 L 111.17731552907378,511.7731552907379 L 111.17731552907378,511.7731552907379 L 107.02535274541442,527.7414244589858 L 103.75296294325926,541.3334279110734 L 101.3459594616162,552.7903388838645 L 99.79015563949328,562.3533306142233 L 99.07136481589852,570.263576339014 L 99.17540032983986,576.7622492951003 L 100.08807552032535,582.0905227193465 L 101.79520372636294,586.4895698486165 L 104.28259828696068,590.2005639197745 L 104.28259828696068,590.2005639197745 L 108.73248095145203,594.3596200339297 L 113.38807020032749,596.5325436092047 L 118.13587274565089,596.7760812895675 L 122.86239529948634,595.1469797189859 L 127.45414457389771,591.701985541428 L 131.7976272809491,586.4978454008618 L 135.7793501327044,579.5913059412554 L 139.28581984122758,571.0391138065768 L 142.20354311858273,560.8980156407938 L 142.20354311858273,560.8980156407938 L 143.27818268872684,555.9515998415824 L 144.73586210565514,549.8631578325146 L 146.51274139490343,542.8313028674789 L 148.54498058200778,535.054648200363 L 150.7687396925041,526.7318070850549 L 153.12017875192848,518.0613927754429 L 155.53545778581687,509.2420185254149 L 157.95073681970524,500.4722975888588 L 160.30217587912963,491.9508432196627 L 160.30217587912963,491.9508432196627 L 161.83433526626587,486.8755652497739 L 163.36649465340213,481.80028727988514 L 164.8986540405384,476.72500930999627 L 166.43081342767462,471.6497313401075 L 167.96297281481085,466.5744533702187 L 169.4951322019471,461.4991754003298 L 171.02729158908335,456.42389743044095 L 172.5594509762196,451.34861946055224 L 174.09161036335584,446.2733414906634 L 174.09161036335584,446.2733414906634 L 182.32696706921314,446.5606213757515 L 190.5623237750705,446.8479012608395 L 198.79768048092777,447.13518114592756 L 207.03303718678512,447.4224610310157 L 215.26839389264242,447.7097409161036 L 223.50375059849972,447.99702080119175 L 231.73910730435708,448.2843006862798 L 239.97446401021438,448.5715805713678 L 248.2098207160717,448.85886045645583 L 248.2098207160717,448.85886045645583 L 256.445177421929,449.1461403415439 L 264.6805341277863,449.4334202266319 L 272.91589083364363,449.72070011171996 L 281.15124753950096,450.0079799968081 L 289.3866042453582,450.295259881896 L 297.62196095121556,450.58253976698415 L 305.85731765707294,450.8698196520722 L 314.0926743629302,451.1570995371602 L 322.32803106878754,451.44437942224823 L 322.32803106878754,451.44437942224823 L 323.86019045592377,459.1051763579295 L 325.39234984306,466.76597329361067 L 326.92450923019624,474.4267702292919 L 328.4566686173325,482.08756716497317 L 329.98882800446876,489.7483641006543 L 331.52098739160505,497.4091610363356 L 333.0531467787413,505.0699579720169 L 334.5853061658775,512.730754907698 L 336.11746555301374,520.3915518433793 L 336.11746555301374,520.3915518433793 L 339.62393526153693,538.4216157424648 L 342.78283177575616,553.1036276474379 L 345.75730169707936,564.7922540830983 L 348.71049162691446,573.8421615742465 L 351.8055481666696,580.6080166456823 L 355.20561791775276,585.4444858222057 L 359.07384748157205,588.7062356286169 L 363.5733834595355,590.7479325897159 L 368.86737245305096,591.9242432303027 L 368.86737245305096,591.9242432303027 L 373.8303393567531,592.5413629834549 L 377.8640799654791,592.5839229664308 L 381.06080757567696,591.9242432303027 L 383.5127354837947,590.4346438261425 L 385.3120769862803,587.987444805022 L 386.5510453795818,584.4549662180135 L 387.3218539601472,579.7095281161888 L 387.7167160244246,573.6234505506199 L 387.82784486886203,566.0690535723786 L 387.82784486886203,566.0690535723786 L 387.6410538324672,560.2028692521857 L 387.09959627127256,553.1024454256885 L 386.23184550726177,545.0018619992552 L 385.06617486241896,536.1351988792538 L 383.63095765872805,526.7365359720523 L 381.95456721817305,517.0399531840188 L 380.0653768627381,507.2795304215212 L 377.9917599144071,497.68934759092764 L 375.7620896951641,488.50348459860624 L 375.7620896951641,488.50348459860624 L 372.4542332405288,474.0602814869985 L 370.0472297588859,462.5891838532154 L 368.61201255519495,453.61493855402455 L 368.21951493441617,446.6622924461941 L 368.94067020150965,441.255992386492 L 370.8464116614353,436.92078523168595 L 374.00767261915314,433.18141783854406 L 378.49538637962314,429.5626370638341 L 384.3804862478055,425.5891897643241 L 384.3804862478055,425.5891897643241 L 391.5731233707505,420.1734319306273 L 396.53136138745543,414.43847422461033 L 399.31904027238386,408.6396765441294 L 400.0,403.03239878704045 L 398.6380805447678,397.8720008511997 L 395.2971218811512,393.413842634463 L 390.0409639836144,389.91328403468646 L 382.93344682662126,387.625684949726 L 374.0384103846358,386.80640527743793 L 374.0384103846358,386.80640527743793 L 367.6816040384694,386.85014748216327 L 362.5732238595993,386.00722337488855 L 358.1103367558653,382.8164068734372 L 353.6900096351073,375.81647189563347 L 348.70930940516513,363.54619235930085 L 342.5653029738788,344.54434218226316 L 334.65505724908814,317.34969528234416 L 324.3756391386332,280.5010255773676 L 311.12411555035374,232.53710698515727 L 311.12411555035374,232.53710698515727 L 304.10999391155786,208.3051077890681 L 297.3370455096262,187.74745378990738 L 290.6634037346385,170.64425174229928 L 283.9472019766748,156.77560840086784 L 277.04657362581503,145.92163052023673 L 269.8196520721391,137.8624248550301 L 262.1245707057272,132.3780981598719 L 253.81946291665923,129.2487571893861 L 244.76246209501514,128.2545086981966 L 244.76246209501514,128.2545086981966 L 241.04082802811317,128.43893529109278 L 237.39722059666735,128.96384174779675 L 233.90966643613345,129.78666808533276 L 230.65619218196753,130.86485432072496 L 227.7148244696258,132.15584047099725 L 225.163589934564,133.6170665531735 L 223.08051521223837,135.20597258427767 L 221.54362693810472,136.87999858133404 L 220.6309517476193,138.59658456136623 L 220.6309517476193,138.59658456136623 L 220.6309517476193,138.59658456136623 L 220.6309517476193,138.59658456136623 L 220.6309517476193,138.59658456136623 L 220.6309517476193,138.59658456136623 L 220.6309517476193,138.59658456136623 L 220.6309517476193,138.59658456136623 L 220.6309517476193,138.59658456136623 L 220.6309517476193,138.59658456136623 L 220.6309517476193,138.59658456136623 L 283.5452465819013,296.3132414747035 L 283.5452465819013,296.3132414747035 L 283.5452465819013,296.3132414747035 L 283.5452465819013,296.3132414747035 L 283.5452465819013,296.3132414747035 L 283.5452465819013,296.3132414747035 L 283.5452465819013,296.3132414747035 L 283.5452465819013,296.3132414747035 L 283.5452465819013,296.3132414747035 L 283.5452465819013,296.3132414747035 L 283.5452465819013,296.3132414747035 L 288.32024022745935,313.5334834754956 L 292.82568731416956,329.95217913023953 L 296.98356120657553,345.27850188859924 L 300.7158352692214,359.2216252002389 L 303.9444828666513,371.49072251482215 L 306.591477363409,381.79496728201315 L 308.5787921240387,389.8435329514757 L 309.82840051308415,395.345592972874 L 310.2622758950896,398.01032079587173 L 310.2622758950896,398.01032079587173 L 306.4732551884756,400.3073776548268 L 296.29314370496473,402.0227814131097 L 281.502367399053,403.1494387402245 L 263.88135222523687,403.6802563056753 L 245.21052413801257,403.60814077896595 L 227.27030909187633,402.9259988296005 L 211.84113304132455,401.62673712708295 L 200.70342194085345,399.7032623409173 L 195.63760174495928,397.14848114060754 L 195.63760174495928,397.14848114060754 L 195.5371128962659,392.4609719045002 L 197.38728993397288,381.8008783907598 L 200.96823961270414,365.9626536149386 L 206.0600686870836,345.7407505925887 L 212.4428839117353,321.92962233926215 L 219.89679204128316,295.32372187051135 L 228.20189983035115,266.7175022018881 L 237.1383140335632,236.90541634894467 L 246.4861414055434,206.6819173272331 L 246.4861414055434,206.6819173272331 L 248.38124286972504,201.61255046609105 L 250.2195976899387,198.8768893381332 L 252.26365909453634,199.08496036601585 L 254.77588031187008,202.84678997239516 L 258.01871457029193,210.77240457992707 L 262.254615098154,223.47183061126782 L 267.74603512380816,241.55509448907335 L 274.75542787560653,265.6322226359999 L 283.5452465819013,296.3132414747035 L 283.5452465819013,296.3132414747035 L 283.5452465819013,296.3132414747035 L 283.5452465819013,296.3132414747035 L 283.5452465819013,296.3132414747035 L 283.5452465819013,296.3132414747035 L 283.5452465819013,296.3132414747035 L 283.5452465819013,296.3132414747035 L 283.5452465819013,296.3132414747035 L 283.5452465819013,296.3132414747035 L 283.5452465819013,296.3132414747035"/></svg>
