<?xml version="1.0" encoding="utf-8"?>
<svg xmlns="http://www.w3.org/2000/svg"  viewBox="0,0,400,751.5668599979547" width="100%">
<path d="M63.90159096553638 41.54918260310593 L 63.90159096553638,41.54918260310593 L 60.484935255932626,50.38495814401978 L 59.49928657345859,60.377799529576784 L 60.64076903972302,70.89657993542622 L 63.6055067763347,81.31017253721738 L 68.08962390490244,90.98745051059906 L 73.78924454703503,99.2972870312204 L 80.40049282434123,105.60855527473004 L 87.61949285842987,109.29012841677742 L 95.14236877090973,109.71087963301142 L 95.14236877090973,109.71087963301142 L 106.82795463288967,106.01761895717986 L 117.0993489069721,100.04528919341406 L 125.69942584990285,92.35489196335955 L 132.3710597184278,83.50742888866164 L 136.85712476929297,74.06390159096543 L 138.9004952592441,64.58531169191667 L 138.24404544502718,55.6326608131601 L 134.6306495833881,47.766950576341536 L 127.80318193107276,41.54918260310593 L 127.80318193107276,41.54918260310593 L 118.50574880568014,36.079416792064386 L 109.59400429516867,31.977092433782754 L 101.138073602244,29.2422095282617 L 93.20808192961182,27.874768075501372 L 85.8741544799778,27.874768075501454 L 79.20641645604756,29.242209528261945 L 73.27499306052681,31.977092433782754 L 68.1500094961212,36.07941679206422 L 63.90159096553638,41.54918260310593 L 63.90159096553638,41.54918260310593 L 63.90159096553638,41.54918260310593 L 63.90159096553638,41.54918260310593 L 63.90159096553638,41.54918260310593 L 63.90159096553638,41.54918260310593 L 63.90159096553638,41.54918260310593 L 63.90159096553638,41.54918260310593 L 63.90159096553638,41.54918260310593 L 63.90159096553638,41.54918260310593 L 63.90159096553638,41.54918260310593"/></svg>
