<?xml version="1.0" encoding="utf-8"?>
<svg xmlns="http://www.w3.org/2000/svg"  viewBox="0,0,400,751.5668599979547" width="100%">
<path d="M63.90159096553638 41.54918260310593 L 63.90159096553638,41.54918260310593 L 60.484935255932626,50.38495814401978 L 59.49928657345859,60.377799529576784 L 60.64076903972302,70.89657993542622 L 63.6055067763347,81.31017253721738 L 68.08962390490244,90.98745051059906 L 73.78924454703503,99.2972870312204 L 80.40049282434123,105.60855527473004 L 87.61949285842987,109.29012841677742 L 95.14236877090973,109.71087963301142 L 95.14236877090973,109.71087963301142 L 106.82795463288967,106.01761895717986 L 117.0993489069721,100.04528919341406 L 125.69942584990285,92.35489196335955 L 132.3710597184278,83.50742888866164 L 136.85712476929297,74.06390159096543 L 138.9004952592441,64.58531169191667 L 138.24404544502718,55.6326608131601 L 134.6306495833881,47.766950576341536 L 127.80318193107276,41.54918260310593 L 127.80318193107276,41.54918260310593 L 118.50574880568014,36.079416792064386 L 109.59400429516867,31.977092433782754 L 101.138073602244,29.2422095282617 L 93.20808192961182,27.874768075501372 L 85.8741544799778,27.874768075501454 L 79.20641645604756,29.242209528261945 L 73.27499306052681,31.977092433782754 L 68.1500094961212,36.07941679206422 L 63.90159096553638,41.54918260310593 L 63.90159096553638,41.54918260310593 L 63.90159096553638,41.54918260310593 L 63.90159096553638,41.54918260310593 L 63.90159096553638,41.54918260310593 L 63.90159096553638,41.54918260310593 L 63.90159096553638,41.54918260310593 L 63.90159096553638,41.54918260310593 L 63.90159096553638,41.54918260310593 L 63.90159096553638,41.54918260310593 L 63.90159096553638,41.54918260310593M127.80318193107276 194.91300092039327 L 63.90159096553638,41.54918260310593 L 60.484935255932626,50.38495814401978 L 59.49928657345859,60.377799529576784 L 60.64076903972302,70.89657993542622 L 63.6055067763347,81.31017253721738 L 68.08962390490244,90.98745051059906 L 73.78924454703503,99.2972870312204 L 80.40049282434123,105.60855527473004 L 87.61949285842987,109.29012841677742 L 95.14236877090973,109.71087963301142 L 95.14236877090973,109.71087963301142 L 106.82795463288967,106.01761895717986 L 117.0993489069721,100.04528919341406 L 125.69942584990285,92.35489196335955 L 132.3710597184278,83.50742888866164 L 136.85712476929297,74.06390159096543 L 138.9004952592441,64.58531169191667 L 138.24404544502718,55.6326608131601 L 134.6306495833881,47.766950576341536 L 127.80318193107276,41.54918260310593 L 127.80318193107276,41.54918260310593 L 118.50574880568014,36.079416792064386 L 109.59400429516867,31.977092433782754 L 101.138073602244,29.2422095282617 L 93.20808192961182,27.874768075501372 L 85.8741544799778,27.874768075501454 L 79.20641645604756,29.242209528261945 L 73.27499306052681,31.977092433782754 L 68.1500094961212,36.07941679206422 L 63.90159096553638,41.54918260310593 L 63.90159096553638,41.54918260310593 L 63.90159096553638,41.54918260310593 L 63.90159096553638,41.54918260310593 L 63.90159096553638,41.54918260310593 L 63.90159096553638,41.54918260310593 L 63.90159096553638,41.54918260310593 L 63.90159096553638,41.54918260310593 L 63.90159096553638,41.54918260310593 L 63.90159096553638,41.54918260310593 L 63.90159096553638,41.54918260310593 L 127.80318193107276,194.91300092039327 L 110.90885184589983,204.36042406268422 L 96.88965507165919,215.47916453612663 L 85.3599029934696,229.41460065157992 L 75.93390699644992,247.3121107199033 L 68.225978465719,270.3170730519559 L 61.85042878639571,299.5748659585969 L 56.42156934359888,336.2308677506854 L 51.553711522447365,381.4304567390807 L 46.86116670806001,436.31901123464183 L 46.86116670806001,436.31901123464183 L 45.41580836340437,493.65415613571173 L 49.49865349871194,545.2507219487014 L 58.95776417478707,590.8398953965726 L 73.64120245243416,630.1528632022868 L 93.39703039245765,662.9208120888057 L 118.07331005566186,688.874928779091 L 147.5181035028512,707.7463999961042 L 181.5794727948302,719.2664124628068 L 220.1054799924031,723.1661529021607 L 220.1054799924031,723.1661529021607 L 244.2090705001777,721.8376698953479 L 266.40759300111523,717.7976790505827 L 286.7945477654896,710.9643676313751 L 305.46343506357533,701.2559229012354 L 322.5077551656465,688.5905321236736 L 338.02100834197716,672.8863825621996 L 352.0966948628419,654.0616614803236 L 364.8283149985146,632.0345561415555 L 376.3093690192698,606.7232538094055 L 376.3093690192698,606.7232538094055 L 392.32713407062187,553.2761618139052 L 400.0,497.3396251223539 L 399.81884322634374,440.7368990050986 L 392.27454016859264,385.291238732487 L 377.85796724568655,332.82589957486584 L 357.06000087656497,285.164136802583 L 330.3715174801677,244.12920568598526 L 298.2833934754342,211.54436149541993 L 261.2865052813043,189.2328595012345 L 261.2865052813043,189.2328595012345 L 242.5903470710553,181.66712929821247 L 226.6875094352486,176.0415297033801 L 212.79492761033765,172.40281085187502 L 200.12953683277576,170.79772287883435 L 187.90827233901638,171.27301591939496 L 175.34806936551297,173.8754401086941 L 161.66586314871898,178.65174558186877 L 146.0785889250878,185.64868247405607 L 127.80318193107276,194.91300092039327 L 127.80318193107276,194.91300092039327 L 127.80318193107276,194.91300092039327 L 127.80318193107276,194.91300092039327 L 127.80318193107276,194.91300092039327 L 127.80318193107276,194.91300092039327 L 127.80318193107276,194.91300092039327 L 127.80318193107276,194.91300092039327 L 127.80318193107276,194.91300092039327 L 127.80318193107276,194.91300092039327 L 127.80318193107276,194.91300092039327 L 296.78738915104674,331.23639498020424 L 296.78738915104674,331.23639498020424 L 296.78738915104674,331.23639498020424 L 296.78738915104674,331.23639498020424 L 296.78738915104674,331.23639498020424 L 296.78738915104674,331.23639498020424 L 296.78738915104674,331.23639498020424 L 296.78738915104674,331.23639498020424 L 296.78738915104674,331.23639498020424 L 296.78738915104674,331.23639498020424 L 296.78738915104674,331.23639498020424 L 310.7247731887974,362.31744315719243 L 321.2961474966764,393.8075550166304 L 328.5015120746834,425.37947961255816 L 332.3408669228185,456.70596599901637 L 332.81421204108165,487.4597632300448 L 329.92154742947304,517.3136203596839 L 323.66287308799247,545.9402864419739 L 314.0381890166401,573.0125105309548 L 301.04749521541584,598.2030416806673 L 301.04749521541584,598.2030416806673 L 273.30129001154137,634.4246568004403 L 244.74864497655184,655.6161034736324 L 216.47650075238505,662.6305716664963 L 189.57179798097854,656.3212513452838 L 165.1214773042703,637.5413324762475 L 144.21247936419817,607.1440050256396 L 127.93174480269984,565.9824589597121 L 117.36621426171308,514.9098842447174 L 113.60282838317579,454.7794708469079 L 113.60282838317579,454.7794708469079 L 114.39563275820923,421.32390538941416 L 116.78962926168876,391.9356016888485 L 120.80819296118277,366.5794971438589 L 126.4746989242599,345.220529153092 L 133.8125222184887,327.82363511519526 L 142.8450379114377,314.35375242881565 L 153.59562107067546,304.77581849260037 L 166.08764676377055,299.0547707051965 L 180.34449005829157,297.1555464652515 L 180.34449005829157,297.1555464652515 L 186.70056051464107,296.8438788976709 L 192.48394181556097,295.92445957330756 L 197.64788382591414,294.4206635597305 L 202.14563641056358,292.35586592450824 L 205.93044943437206,289.7534417352092 L 208.95557276220248,286.6367660594019 L 211.1742562589178,283.0292139646549 L 212.5397497893809,278.9541605185369 L 213.0053032184546,274.4349807886163 L 213.0053032184546,274.4349807886163 L 214.70973522866169,262.5448630854115 L 219.48798862413383,255.99594832162137 L 226.83749945214683,254.44929801750203 L 236.25570375997702,257.5659736933094 L 247.24003759490031,265.0070368692993 L 259.2879370041928,276.43354906572785 L 271.89683803513077,291.5065718028508 L 284.56417673499004,309.8871666009243 L 296.78738915104674,331.23639498020424 L 296.78738915104674,331.23639498020424 L 296.78738915104674,331.23639498020424 L 296.78738915104674,331.23639498020424 L 296.78738915104674,331.23639498020424 L 296.78738915104674,331.23639498020424 L 296.78738915104674,331.23639498020424 L 296.78738915104674,331.23639498020424 L 296.78738915104674,331.23639498020424 L 296.78738915104674,331.23639498020424 L 296.78738915104674,331.23639498020424"/></svg>
