<?xml version="1.0" encoding="utf-8"?>
<svg xmlns="http://www.w3.org/2000/svg"  viewBox="0,0,400,814.9273333503016" width="100%">
<path d="M166.25111354323093 13.359464481152486 L 166.25111354323093,13.359464481152486 L 156.29412812746565,18.830715976482196 L 146.41044567181655,27.0019598360864 L 136.89327801674773,37.38450965919202 L 128.0358370027234,49.48967904502532 L 120.13133447020795,62.8287815928122 L 113.47298225966556,76.91313090177917 L 108.3539922115605,91.2540405711523 L 105.06757616635701,105.36282420015786 L 103.90694596451932,118.7507953880221 L 103.90694596451932,118.7507953880221 L 104.38748759194682,121.6442261192702 L 105.77209906080584,125.29512077171727 L 107.97526025096084,129.58130774517034 L 110.91145104227645,134.380615439436 L 114.49515131461735,139.57087225432062 L 118.64084094784799,145.02990658963068 L 123.26299982183308,150.635546845173 L 128.27610781643716,156.26562142075392 L 133.59464481152486,161.7979587161801 L 133.59464481152486,161.7979587161801 L 156.2411871007152,178.42958588918034 L 182.49179159561203,188.08521469113492 L 210.67270737356512,191.26574868283734 L 239.11018351192448,188.47209142508078 L 266.13046908803994,180.20514647865812 L 290.0598131792613,166.9658174043626 L 309.2244648629387,149.25500776298716 L 321.95067321642193,127.57362111532491 L 326.56468731706076,102.42256102216906 L 326.56468731706076,102.42256102216906 L 324.3269108401842,88.69658174043647 L 318.1185573570211,73.76110361678839 L 308.69709078877037,58.385807732444086 L 296.8199750566316,43.34037516862216 L 283.24467408180413,29.394487006541375 L 268.728651785487,17.317824327420002 L 254.02937208887977,7.880068212476801 L 239.90429891318178,1.8508997429307144 L 227.11089617959226,0.0 L 227.11089617959226,0.0 L 221.7495991244368,0.21380030033863104 L 215.66748962814017,0.8307668813152546 L 209.02339077095374,1.8142482628724848 L 201.9761256331289,3.1275929649519236 L 194.68451729491713,4.734149507495679 L 187.30738883657003,6.597266410445691 L 180.00356333833898,8.680292193743899 L 172.93186388047542,10.94657537733207 L 166.25111354323093,13.359464481152486 L 166.25111354323093,13.359464481152486 L 166.25111354323093,13.359464481152486 L 166.25111354323093,13.359464481152486 L 166.25111354323093,13.359464481152486 L 166.25111354323093,13.359464481152486 L 166.25111354323093,13.359464481152486 L 166.25111354323093,13.359464481152486 L 166.25111354323093,13.359464481152486 L 166.25111354323093,13.359464481152486 L 166.25111354323093,13.359464481152486 L 267.1892896230497,102.42256102216906 L 267.1892896230497,102.42256102216906 L 267.1892896230497,102.42256102216906 L 267.1892896230497,102.42256102216906 L 267.1892896230497,102.42256102216906 L 267.1892896230497,102.42256102216906 L 267.1892896230497,102.42256102216906 L 267.1892896230497,102.42256102216906 L 267.1892896230497,102.42256102216906 L 267.1892896230497,102.42256102216906 L 267.1892896230497,102.42256102216906 L 264.61757743897783,109.87299244063227 L 257.6110361678841,116.28496525745116 L 247.2325587314516,121.49965639237446 L 234.54503805136295,125.35824276515059 L 220.61136704930132,127.70190129552796 L 206.4944386469495,128.37180890325544 L 193.2571457659905,127.20914250808113 L 181.96238132810709,124.05507902975394 L 173.67303825498232,118.7507953880221 L 173.67303825498232,118.7507953880221 L 167.65405075211888,109.1114561327599 L 166.86400773753468,99.36216243732335 L 170.4843594899336,90.05268650258328 L 177.69655628801954,81.73280052941017 L 187.68204841049658,74.95227671867444 L 199.6222861360686,70.26088727124647 L 212.69871974343965,68.20840438799675 L 226.0927995113136,69.34460026979562 L 238.98597571839446,74.21924711751382 L 238.98597571839446,74.21924711751382 L 244.25360788006816,76.89684135508679 L 249.13029092112293,79.91651607320121 L 253.55493904146198,83.18053399170239 L 257.4664664409886,86.591157830436 L 260.803787319606,90.05065030924688 L 263.5058158772175,93.46127414798048 L 265.5114663137265,96.72529206648176 L 266.7596528290361,99.74496678459624 L 267.1892896230497,102.42256102216906 L 267.1892896230497,102.42256102216906 L 267.1892896230497,102.42256102216906 L 267.1892896230497,102.42256102216906 L 267.1892896230497,102.42256102216906 L 267.1892896230497,102.42256102216906 L 267.1892896230497,102.42256102216906 L 267.1892896230497,102.42256102216906 L 267.1892896230497,102.42256102216906 L 267.1892896230497,102.42256102216906 L 267.1892896230497,102.42256102216906"/></svg>
