<?xml version="1.0" encoding="utf-8"?>
<svg xmlns="http://www.w3.org/2000/svg"  viewBox="0,0,400,814.9273333503016" width="100%">
<path d="M166.25111354323093 13.359464481152486 L 166.25111354323093,13.359464481152486 L 156.29412812746565,18.830715976482196 L 146.41044567181655,27.0019598360864 L 136.89327801674773,37.38450965919202 L 128.0358370027234,49.48967904502532 L 120.13133447020795,62.8287815928122 L 113.47298225966556,76.91313090177917 L 108.3539922115605,91.2540405711523 L 105.06757616635701,105.36282420015786 L 103.90694596451932,118.7507953880221 L 103.90694596451932,118.7507953880221 L 104.38748759194682,121.6442261192702 L 105.77209906080584,125.29512077171727 L 107.97526025096084,129.58130774517034 L 110.91145104227645,134.380615439436 L 114.49515131461735,139.57087225432062 L 118.64084094784799,145.02990658963068 L 123.26299982183308,150.635546845173 L 128.27610781643716,156.26562142075392 L 133.59464481152486,161.7979587161801 L 133.59464481152486,161.7979587161801 L 156.2411871007152,178.42958588918034 L 182.49179159561203,188.08521469113492 L 210.67270737356512,191.26574868283734 L 239.11018351192448,188.47209142508078 L 266.13046908803994,180.20514647865812 L 290.0598131792613,166.9658174043626 L 309.2244648629387,149.25500776298716 L 321.95067321642193,127.57362111532491 L 326.56468731706076,102.42256102216906 L 326.56468731706076,102.42256102216906 L 324.3269108401842,88.69658174043647 L 318.1185573570211,73.76110361678839 L 308.69709078877037,58.385807732444086 L 296.8199750566316,43.34037516862216 L 283.24467408180413,29.394487006541375 L 268.728651785487,17.317824327420002 L 254.02937208887977,7.880068212476801 L 239.90429891318178,1.8508997429307144 L 227.11089617959226,0.0 L 227.11089617959226,0.0 L 221.7495991244368,0.21380030033863104 L 215.66748962814017,0.8307668813152546 L 209.02339077095374,1.8142482628724848 L 201.9761256331289,3.1275929649519236 L 194.68451729491713,4.734149507495679 L 187.30738883657003,6.597266410445691 L 180.00356333833898,8.680292193743899 L 172.93186388047542,10.94657537733207 L 166.25111354323093,13.359464481152486 L 166.25111354323093,13.359464481152486 L 166.25111354323093,13.359464481152486 L 166.25111354323093,13.359464481152486 L 166.25111354323093,13.359464481152486 L 166.25111354323093,13.359464481152486 L 166.25111354323093,13.359464481152486 L 166.25111354323093,13.359464481152486 L 166.25111354323093,13.359464481152486 L 166.25111354323093,13.359464481152486 L 166.25111354323093,13.359464481152486 L 267.1892896230497,102.42256102216906 L 267.1892896230497,102.42256102216906 L 267.1892896230497,102.42256102216906 L 267.1892896230497,102.42256102216906 L 267.1892896230497,102.42256102216906 L 267.1892896230497,102.42256102216906 L 267.1892896230497,102.42256102216906 L 267.1892896230497,102.42256102216906 L 267.1892896230497,102.42256102216906 L 267.1892896230497,102.42256102216906 L 267.1892896230497,102.42256102216906 L 264.61757743897783,109.87299244063227 L 257.6110361678841,116.28496525745116 L 247.2325587314516,121.49965639237446 L 234.54503805136295,125.35824276515059 L 220.61136704930132,127.70190129552796 L 206.4944386469495,128.37180890325544 L 193.2571457659905,127.20914250808113 L 181.96238132810709,124.05507902975394 L 173.67303825498232,118.7507953880221 L 173.67303825498232,118.7507953880221 L 167.65405075211888,109.1114561327599 L 166.86400773753468,99.36216243732335 L 170.4843594899336,90.05268650258328 L 177.69655628801954,81.73280052941017 L 187.68204841049658,74.95227671867444 L 199.6222861360686,70.26088727124647 L 212.69871974343965,68.20840438799675 L 226.0927995113136,69.34460026979562 L 238.98597571839446,74.21924711751382 L 238.98597571839446,74.21924711751382 L 244.25360788006816,76.89684135508679 L 249.13029092112293,79.91651607320121 L 253.55493904146198,83.18053399170239 L 257.4664664409886,86.591157830436 L 260.803787319606,90.05065030924688 L 263.5058158772175,93.46127414798048 L 265.5114663137265,96.72529206648176 L 266.7596528290361,99.74496678459624 L 267.1892896230497,102.42256102216906 L 267.1892896230497,102.42256102216906 L 267.1892896230497,102.42256102216906 L 267.1892896230497,102.42256102216906 L 267.1892896230497,102.42256102216906 L 267.1892896230497,102.42256102216906 L 267.1892896230497,102.42256102216906 L 267.1892896230497,102.42256102216906 L 267.1892896230497,102.42256102216906 L 267.1892896230497,102.42256102216906 L 267.1892896230497,102.42256102216906M166.25111354323093 268.6736745654 L 166.25111354323093,13.359464481152486 L 156.29412812746565,18.830715976482196 L 146.41044567181655,27.0019598360864 L 136.89327801674773,37.38450965919202 L 128.0358370027234,49.48967904502532 L 120.13133447020795,62.8287815928122 L 113.47298225966556,76.91313090177917 L 108.3539922115605,91.2540405711523 L 105.06757616635701,105.36282420015786 L 103.90694596451932,118.7507953880221 L 103.90694596451932,118.7507953880221 L 104.38748759194682,121.6442261192702 L 105.77209906080584,125.29512077171727 L 107.97526025096084,129.58130774517034 L 110.91145104227645,134.380615439436 L 114.49515131461735,139.57087225432062 L 118.64084094784799,145.02990658963068 L 123.26299982183308,150.635546845173 L 128.27610781643716,156.26562142075392 L 133.59464481152486,161.7979587161801 L 133.59464481152486,161.7979587161801 L 156.2411871007152,178.42958588918034 L 182.49179159561203,188.08521469113492 L 210.67270737356512,191.26574868283734 L 239.11018351192448,188.47209142508078 L 266.13046908803994,180.20514647865812 L 290.0598131792613,166.9658174043626 L 309.2244648629387,149.25500776298716 L 321.95067321642193,127.57362111532491 L 326.56468731706076,102.42256102216906 L 326.56468731706076,102.42256102216906 L 324.3269108401842,88.69658174043647 L 318.1185573570211,73.76110361678839 L 308.69709078877037,58.385807732444086 L 296.8199750566316,43.34037516862216 L 283.24467408180413,29.394487006541375 L 268.728651785487,17.317824327420002 L 254.02937208887977,7.880068212476801 L 239.90429891318178,1.8508997429307144 L 227.11089617959226,0.0 L 227.11089617959226,0.0 L 221.7495991244368,0.21380030033863104 L 215.66748962814017,0.8307668813152546 L 209.02339077095374,1.8142482628724848 L 201.9761256331289,3.1275929649519236 L 194.68451729491713,4.734149507495679 L 187.30738883657003,6.597266410445691 L 180.00356333833898,8.680292193743899 L 172.93186388047542,10.94657537733207 L 166.25111354323093,13.359464481152486 L 166.25111354323093,13.359464481152486 L 166.25111354323093,13.359464481152486 L 166.25111354323093,13.359464481152486 L 166.25111354323093,13.359464481152486 L 166.25111354323093,13.359464481152486 L 166.25111354323093,13.359464481152486 L 166.25111354323093,13.359464481152486 L 166.25111354323093,13.359464481152486 L 166.25111354323093,13.359464481152486 L 166.25111354323093,13.359464481152486 L 267.1892896230497,102.42256102216906 L 267.1892896230497,102.42256102216906 L 267.1892896230497,102.42256102216906 L 267.1892896230497,102.42256102216906 L 267.1892896230497,102.42256102216906 L 267.1892896230497,102.42256102216906 L 267.1892896230497,102.42256102216906 L 267.1892896230497,102.42256102216906 L 267.1892896230497,102.42256102216906 L 267.1892896230497,102.42256102216906 L 267.1892896230497,102.42256102216906 L 264.61757743897783,109.87299244063227 L 257.6110361678841,116.28496525745116 L 247.2325587314516,121.49965639237446 L 234.54503805136295,125.35824276515059 L 220.61136704930132,127.70190129552796 L 206.4944386469495,128.37180890325544 L 193.2571457659905,127.20914250808113 L 181.96238132810709,124.05507902975394 L 173.67303825498232,118.7507953880221 L 173.67303825498232,118.7507953880221 L 167.65405075211888,109.1114561327599 L 166.86400773753468,99.36216243732335 L 170.4843594899336,90.05268650258328 L 177.69655628801954,81.73280052941017 L 187.68204841049658,74.95227671867444 L 199.6222861360686,70.26088727124647 L 212.69871974343965,68.20840438799675 L 226.0927995113136,69.34460026979562 L 238.98597571839446,74.21924711751382 L 238.98597571839446,74.21924711751382 L 244.25360788006816,76.89684135508679 L 249.13029092112293,79.91651607320121 L 253.55493904146198,83.18053399170239 L 257.4664664409886,86.591157830436 L 260.803787319606,90.05065030924688 L 263.5058158772175,93.46127414798048 L 265.5114663137265,96.72529206648176 L 266.7596528290361,99.74496678459624 L 267.1892896230497,102.42256102216906 L 267.1892896230497,102.42256102216906 L 267.1892896230497,102.42256102216906 L 267.1892896230497,102.42256102216906 L 267.1892896230497,102.42256102216906 L 267.1892896230497,102.42256102216906 L 267.1892896230497,102.42256102216906 L 267.1892896230497,102.42256102216906 L 267.1892896230497,102.42256102216906 L 267.1892896230497,102.42256102216906 L 267.1892896230497,102.42256102216906 L 166.25111354323093,268.6736745654 L 147.7360075339153,291.28763776120564 L 130.83356664715313,317.4201430425819 L 115.61709384306043,346.85128152918116 L 102.15989208175316,379.3611443406551 L 90.5352643233475,414.72982259665565 L 80.81651352795947,452.73740741683423 L 73.07694265570517,493.1639899208429 L 67.3898546667006,535.7896612283337 L 63.82855252106187,580.394512458958 L 63.82855252106187,580.394512458958 L 61.749599124436855,612.8779047570569 L 60.501412609127236,640.4744330474177 L 60.145078775229706,663.7949553310086 L 60.741683422841014,683.4503296087963 L 62.35231235205783,700.0514138817481 L 65.0380513629769,714.2090661508311 L 68.85998625569498,726.5341444170123 L 73.87920283030874,737.6375066812593 L 80.15678688691492,748.1300109445392 L 80.15678688691492,748.1300109445392 L 97.99587670849347,768.2150220163404 L 119.07251393519813,780.2733589554327 L 142.22606836519128,784.7448395225126 L 166.29590979663521,782.0692814782764 L 190.12140802769224,772.6865025834203 L 212.54193285652468,757.0363205986409 L 232.396854081295,735.5585532846344 L 248.52554150016545,708.6930184020973 L 259.76736491129833,676.8795337117259 L 259.76736491129833,676.8795337117259 L 260.9218865331263,672.261447224414 L 262.0764081549543,667.643360737102 L 263.2309297767823,663.0252742497901 L 264.3854513986103,658.4071877624781 L 265.53997302043825,653.7891012751662 L 266.69449464226625,649.1710147878542 L 267.8490162640943,644.5529283005421 L 269.0035378859223,639.9348418132302 L 270.15805950775024,635.3167553259182 L 270.15805950775024,635.3167553259182 L 273.291761052712,640.2647051337525 L 276.42546259767363,645.2126549415868 L 279.5591641426354,650.1606047494209 L 282.692865687597,655.1085545572552 L 285.8265672325587,660.0565043650895 L 288.9602687775204,665.0044541729237 L 292.0939703224821,669.952403980758 L 295.2276718674438,674.9003537885923 L 298.3613734124055,679.8483035964265 L 298.3613734124055,679.8483035964265 L 304.85275776935015,689.6362849652576 L 311.47853088650766,698.2269846521928 L 318.26312708391663,705.6326198172516 L 325.2309806816158,711.8654076204537 L 332.4065259996437,716.9375652218177 L 339.8141973580391,720.8613097813637 L 347.4784290768408,723.6488584591107 L 355.42365547608745,725.3124284150781 L 363.67431087581764,725.8642368092851 L 363.67431087581764,725.8642368092851 L 377.4145435109063,724.705642800784 L 387.9416630609077,721.4334801089364 L 395.23123520578287,716.3531777342259 L 399.25882562549316,709.7701646771361 L 400.0,701.9898699381507 L 397.4303240092646,693.317722517753 L 391.52536333324855,684.059151416427 L 382.2606836519127,674.5195856346561 L 369.61185064521874,665.0044541729237 L 369.61185064521874,665.0044541729237 L 361.8865331263203,658.7166891496348 L 355.4195830894144,651.2072081244115 L 350.03996029423,641.6941128560157 L 345.57662450049634,629.3955051032095 L 341.85853546794266,613.529486624755 L 338.71465295629815,593.3141591794141 L 335.973936725292,567.9676245259488 L 333.4653465346534,536.7079844231209 L 331.01784214411157,498.75334062969284 L 331.01784214411157,498.75334062969284 L 327.66015933212844,454.2767695792716 L 323.5083611188882,415.8476927384255 L 318.5380131843518,383.46611010715463 L 312.7246812084807,357.1320216854591 L 306.0439308712362,336.8454274733386 L 298.47132785257963,322.6063274707934 L 289.98243783247216,314.41472167782337 L 280.5528264908753,312.2706100944285 L 270.15805950775024,316.17399272060885 L 270.15805950775024,316.17399272060885 L 266.81055766245004,319.1631245386751 L 263.719616177556,324.03369899971995 L 260.9218865331264,330.57802438341514 L 258.4540202092189,338.5884089694316 L 256.35266868589173,347.85716103744056 L 254.6544834432029,358.17658886711297 L 253.39611596121048,369.3390007381201 L 252.6142177199725,381.13670493013313 L 252.34544019954694,393.36200972282325 L 252.34544019954694,393.36200972282325 L 250.8773448038891,426.7657614090458 L 246.7581256840337,464.4333019420194 L 240.41538344065768,504.58092595891975 L 232.27671867443814,545.4249280969228 L 222.76973198605205,585.1816029932041 L 212.32202397617655,622.0672452849398 L 201.36119524548857,654.2981496093054 L 190.31484639466518,680.0906106034769 L 179.61057802438341,697.6609229046298 L 179.61057802438341,697.6609229046298 L 166.96785359769908,711.5742319733259 L 155.76675405329735,719.6843900328337 L 146.01949655119756,722.0158314031917 L 137.738298251419,718.592990404439 L 130.935376313981,709.4403013566138 L 125.622947898903,694.5821985797552 L 121.81323016620429,674.0431163939015 L 119.5184402759042,647.8474891190918 L 118.7507953880221,616.0197510753646 L 118.7507953880221,616.0197510753646 L 120.05803151009187,574.1148922090154 L 123.9308712362239,533.6760925449872 L 130.29601160630205,494.9599124436865 L 139.08014966021022,458.22291226551965 L 150.20998243783248,423.7216523708926 L 163.61220697905264,391.7126931202118 L 179.21352032375472,362.4525948738834 L 196.94061951182263,336.19791799231336 L 216.72020158314032,313.2052228359083 L 216.72020158314032,313.2052228359083 L 225.32922701010457,303.7837562676577 L 233.25409147598563,294.46002697956163 L 240.36040622057072,285.4417266919493 L 246.5137824836468,276.93654712514956 L 251.5798315050014,269.152179999491 L 255.4241645244216,262.2963170353026 L 257.9123927816946,256.57664995291304 L 258.9101275166077,252.20087047265145 L 258.28297996894804,249.37667031484642 L 258.28297996894804,249.37667031484642 L 252.2924991727964,242.70813713762143 L 244.44501005370455,238.47081880424545 L 235.08259309221415,236.56697803456439 L 224.5473287688666,236.8988775484233 L 213.1812975642037,239.3687800656672 L 201.32657995876707,243.87894830614175 L 189.32525643309833,250.33164498969182 L 177.51940746773906,258.6291328361629 L 166.25111354323093,268.6736745654 L 166.25111354323093,268.6736745654 L 166.25111354323093,268.6736745654 L 166.25111354323093,268.6736745654 L 166.25111354323093,268.6736745654 L 166.25111354323093,268.6736745654 L 166.25111354323093,268.6736745654 L 166.25111354323093,268.6736745654 L 166.25111354323093,268.6736745654 L 166.25111354323093,268.6736745654 L 166.25111354323093,268.6736745654"/></svg>
