<?xml version="1.0" encoding="utf-8"?>
<svg xmlns="http://www.w3.org/2000/svg"  viewBox="0,0,400,641.1288723015832" width="100%">
<path d="M122.75757661621661 33.242795788587465 L 122.75757661621661,33.242795788587465 L 118.9137113781811,48.35595422659229 L 119.46098452496122,61.20553911667201 L 123.63191833000737,71.45152868124173 L 130.65903506676977,78.7539011427161 L 139.7748570086989,82.77263472350968 L 150.21190642924512,83.16770764603739 L 161.20270560185878,79.59909813271379 L 171.97977679999028,71.72678440595368 L 181.77564229709,59.210744688171744 L 181.77564229709,59.210744688171744 L 184.5670591759329,54.037556214910055 L 186.62014305201933,49.47640694130167 L 187.896034293625,45.43986269596787 L 188.35587326902606,41.840489307529445 L 187.96080034649842,38.590852604607306 L 186.67195589431802,35.6035184158224 L 184.45048028076084,32.79105256979563 L 181.2575138741029,30.066020895147883 L 177.05419704262013,27.340989220500127 L 177.05419704262013,27.340989220500127 L 168.5860356294248,22.530490643329397 L 160.54533016519392,19.109223900292616 L 153.00979991337545,17.067474083459082 L 146.0571641374174,16.395526284897816 L 139.7651421007679,17.083665596677587 L 134.21145306687498,19.122177110867558 L 129.47381629918678,22.501345919536348 L 125.62995106115132,27.211457114753397 L 122.75757661621661,33.242795788587465 L 122.75757661621661,33.242795788587465 L 122.75757661621661,33.242795788587465 L 122.75757661621661,33.242795788587465 L 122.75757661621661,33.242795788587465 L 122.75757661621661,33.242795788587465 L 122.75757661621661,33.242795788587465 L 122.75757661621661,33.242795788587465 L 122.75757661621661,33.242795788587465 L 122.75757661621661,33.242795788587465 L 122.75757661621661,33.242795788587465"/></svg>
