<?xml version="1.0" encoding="utf-8"?>
<svg xmlns="http://www.w3.org/2000/svg"  viewBox="0,0,400,641.1288723015832" width="100%">
<path d="M122.75757661621661 33.242795788587465 L 122.75757661621661,33.242795788587465 L 118.9137113781811,48.35595422659229 L 119.46098452496122,61.20553911667201 L 123.63191833000737,71.45152868124173 L 130.65903506676977,78.7539011427161 L 139.7748570086989,82.77263472350968 L 150.21190642924512,83.16770764603739 L 161.20270560185878,79.59909813271379 L 171.97977679999028,71.72678440595368 L 181.77564229709,59.210744688171744 L 181.77564229709,59.210744688171744 L 184.5670591759329,54.037556214910055 L 186.62014305201933,49.47640694130167 L 187.896034293625,45.43986269596787 L 188.35587326902606,41.840489307529445 L 187.96080034649842,38.590852604607306 L 186.67195589431802,35.6035184158224 L 184.45048028076084,32.79105256979563 L 181.2575138741029,30.066020895147883 L 177.05419704262013,27.340989220500127 L 177.05419704262013,27.340989220500127 L 168.5860356294248,22.530490643329397 L 160.54533016519392,19.109223900292616 L 153.00979991337545,17.067474083459082 L 146.0571641374174,16.395526284897816 L 139.7651421007679,17.083665596677587 L 134.21145306687498,19.122177110867558 L 129.47381629918678,22.501345919536348 L 125.62995106115132,27.211457114753397 L 122.75757661621661,33.242795788587465 L 122.75757661621661,33.242795788587465 L 122.75757661621661,33.242795788587465 L 122.75757661621661,33.242795788587465 L 122.75757661621661,33.242795788587465 L 122.75757661621661,33.242795788587465 L 122.75757661621661,33.242795788587465 L 122.75757661621661,33.242795788587465 L 122.75757661621661,33.242795788587465 L 122.75757661621661,33.242795788587465 L 122.75757661621661,33.242795788587465M180.59528098347252 151.27892715033423 L 122.75757661621661,33.242795788587465 L 118.9137113781811,48.35595422659229 L 119.46098452496122,61.20553911667201 L 123.63191833000737,71.45152868124173 L 130.65903506676977,78.7539011427161 L 139.7748570086989,82.77263472350968 L 150.21190642924512,83.16770764603739 L 161.20270560185878,79.59909813271379 L 171.97977679999028,71.72678440595368 L 181.77564229709,59.210744688171744 L 181.77564229709,59.210744688171744 L 184.5670591759329,54.037556214910055 L 186.62014305201933,49.47640694130167 L 187.896034293625,45.43986269596787 L 188.35587326902606,41.840489307529445 L 187.96080034649842,38.590852604607306 L 186.67195589431802,35.6035184158224 L 184.45048028076084,32.79105256979563 L 181.2575138741029,30.066020895147883 L 177.05419704262013,27.340989220500127 L 177.05419704262013,27.340989220500127 L 168.5860356294248,22.530490643329397 L 160.54533016519392,19.109223900292616 L 153.00979991337545,17.067474083459082 L 146.0571641374174,16.395526284897816 L 139.7651421007679,17.083665596677587 L 134.21145306687498,19.122177110867558 L 129.47381629918678,22.501345919536348 L 125.62995106115132,27.211457114753397 L 122.75757661621661,33.242795788587465 L 122.75757661621661,33.242795788587465 L 122.75757661621661,33.242795788587465 L 122.75757661621661,33.242795788587465 L 122.75757661621661,33.242795788587465 L 122.75757661621661,33.242795788587465 L 122.75757661621661,33.242795788587465 L 122.75757661621661,33.242795788587465 L 122.75757661621661,33.242795788587465 L 122.75757661621661,33.242795788587465 L 122.75757661621661,33.242795788587465 L 180.59528098347252,151.27892715033423 L 164.72112142420548,159.14476427180713 L 151.5282764538967,168.30268414810385 L 140.72529883461587,179.5201645057743 L 132.0207413284327,193.5646830713682 L 125.12315669741706,211.20371757143494 L 119.74109770363863,233.2047457325244 L 115.58311710916723,260.33524528118585 L 112.3577676760726,293.3626939439693 L 109.77360216642447,333.0545694474242 L 109.77360216642447,333.0545694474242 L 108.13502102872779,373.59002278955495 L 108.03139534413039,409.02514946790643 L 109.59873382366634,439.94284395833927 L 112.97304517836976,466.9260007367139 L 118.29033811927478,490.5575142788908 L 125.68662135741549,511.42027906073037 L 135.29790360382606,530.0971895580933 L 147.26019356954052,547.1711402468396 L 161.70949996559304,563.2250256028303 L 161.70949996559304,563.2250256028303 L 169.406945349595,570.8058920916603 L 176.94895220670088,577.0946758256661 L 184.61725286690984,582.198240792089 L 192.69357966022108,586.2234509781699 L 201.45966491663395,589.2771703711501 L 211.19724096614758,591.4662629582706 L 222.18804013876124,592.8975927267724 L 234.7137947644742,593.6780236638967 L 249.05623717328564,593.9144197568845 L 249.05623717328564,593.9144197568845 L 281.5930829855531,590.6356383301693 L 310.61313212679573,580.9741623927819 L 335.92208643839336,565.1922944588595 L 357.3256477617257,543.5523370425393 L 374.62951793817274,516.3165926579584 L 387.6393988091142,483.74736381925425 L 396.1609922159301,446.1069530405639 L 399.99999999999994,403.6576628360246 L 398.962124002704,356.6617957197735 L 398.962124002704,356.6617957197735 L 395.2736972915646,323.9695113806099 L 389.0399647025013,292.9870508373036 L 380.4260796703408,264.0252911436471 L 369.59719562991063,237.3951093534325 L 356.7184660160377,213.40738252045193 L 341.95504426354927,192.37298769849792 L 325.47208380727244,174.6028019413625 L 307.43473808203436,160.40770230283803 L 288.0081605226621,150.09856583671674 L 288.0081605226621,150.09856583671674 L 273.171876960691,144.15466133426176 L 260.5117327752659,139.70685265318187 L 249.40597385880193,136.76485470140824 L 239.23284610371476,135.33838238687193 L 229.37059540241987,135.43715061750387 L 219.19746764733264,137.07087430123508 L 208.09170873086873,140.24926834599648 L 195.43156454544354,144.98204765971929 L 180.59528098347252,151.27892715033423 L 180.59528098347252,151.27892715033423 L 180.59528098347252,151.27892715033423 L 180.59528098347252,151.27892715033423 L 180.59528098347252,151.27892715033423 L 180.59528098347252,151.27892715033423 L 180.59528098347252,151.27892715033423 L 180.59528098347252,151.27892715033423 L 180.59528098347252,151.27892715033423 L 180.59528098347252,151.27892715033423 L 180.59528098347252,151.27892715033423 L 313.97610942224634,268.13469719846347 L 313.97610942224634,268.13469719846347 L 313.97610942224634,268.13469719846347 L 313.97610942224634,268.13469719846347 L 313.97610942224634,268.13469719846347 L 313.97610942224634,268.13469719846347 L 313.97610942224634,268.13469719846347 L 313.97610942224634,268.13469719846347 L 313.97610942224634,268.13469719846347 L 313.97610942224634,268.13469719846347 L 313.97610942224634,268.13469719846347 L 327.9105256979554,304.1365268394572 L 336.7931898495404,341.3235752480338 L 340.8184000356214,378.5203385645414 L 340.1804544148185,414.5513129293281 L 335.0736511457519,448.24099448274194 L 325.6922883870419,478.4138793651308 L 312.2306642973086,503.89446371684284 L 294.883077035172,523.5072436782261 L 273.84382475925247,536.0767153896287 L 273.84382475925247,536.0767153896287 L 248.983375363803,540.2346959841 L 225.95904356731418,533.9297207368759 L 205.38286856943938,518.5024469424352 L 187.86688956983198,495.29353189525716 L 174.02314576814564,465.6436328898209 L 164.46367636403377,430.8934072206054 L 159.80052055714995,392.3835121820899 L 160.64571754714765,351.4546050687533 L 167.6113065336804,309.4473431750748 L 167.6113065336804,309.4473431750748 L 171.7514764636116,293.5391814380494 L 175.63905878733667,280.283189566189 L 179.4586367555446,269.4462097691495 L 183.39479361892464,260.795084256587 L 187.63211262816597,254.0966552381569 L 192.35517703395763,249.1177649235154 L 197.74857008698888,245.62525552231804 L 203.99687503794888,243.38596924422075 L 211.28467513752668,242.1667482988792 L 211.28467513752668,242.1667482988792 L 216.3429038669381,241.04305728152607 L 221.23597916152247,239.29761215658812 L 225.88618175783162,237.00813218751395 L 230.21579239241754,234.25233663775137 L 234.14709180183206,231.10794477074842 L 237.60236072262722,227.65267584995337 L 240.50387989135493,223.96424913881393 L 242.77393004456712,220.12038390077853 L 244.33479191881577,216.19879939929493 L 244.33479191881577,216.19879939929493 L 248.19970612403506,206.51627449472375 L 253.39556271580253,200.99173018462378 L 259.76692316722193,199.49887266589218 L 267.15834895139716,201.91140813542592 L 275.4144015414321,208.10304279012155 L 284.37964241043056,217.94748282687632 L 293.89863303149656,231.318434442587 L 303.81593487773387,248.0896038341504 L 313.97610942224634,268.13469719846347 L 313.97610942224634,268.13469719846347 L 313.97610942224634,268.13469719846347 L 313.97610942224634,268.13469719846347 L 313.97610942224634,268.13469719846347 L 313.97610942224634,268.13469719846347 L 313.97610942224634,268.13469719846347 L 313.97610942224634,268.13469719846347 L 313.97610942224634,268.13469719846347 L 313.97610942224634,268.13469719846347 L 313.97610942224634,268.13469719846347M285.6474378954271 6.094485575385711 L 122.75757661621661,33.242795788587465 L 118.9137113781811,48.35595422659229 L 119.46098452496122,61.20553911667201 L 123.63191833000737,71.45152868124173 L 130.65903506676977,78.7539011427161 L 139.7748570086989,82.77263472350968 L 150.21190642924512,83.16770764603739 L 161.20270560185878,79.59909813271379 L 171.97977679999028,71.72678440595368 L 181.77564229709,59.210744688171744 L 181.77564229709,59.210744688171744 L 184.5670591759329,54.037556214910055 L 186.62014305201933,49.47640694130167 L 187.896034293625,45.43986269596787 L 188.35587326902606,41.840489307529445 L 187.96080034649842,38.590852604607306 L 186.67195589431802,35.6035184158224 L 184.45048028076084,32.79105256979563 L 181.2575138741029,30.066020895147883 L 177.05419704262013,27.340989220500127 L 177.05419704262013,27.340989220500127 L 168.5860356294248,22.530490643329397 L 160.54533016519392,19.109223900292616 L 153.00979991337545,17.067474083459082 L 146.0571641374174,16.395526284897816 L 139.7651421007679,17.083665596677587 L 134.21145306687498,19.122177110867558 L 129.47381629918678,22.501345919536348 L 125.62995106115132,27.211457114753397 L 122.75757661621661,33.242795788587465 L 122.75757661621661,33.242795788587465 L 122.75757661621661,33.242795788587465 L 122.75757661621661,33.242795788587465 L 122.75757661621661,33.242795788587465 L 122.75757661621661,33.242795788587465 L 122.75757661621661,33.242795788587465 L 122.75757661621661,33.242795788587465 L 122.75757661621661,33.242795788587465 L 122.75757661621661,33.242795788587465 L 122.75757661621661,33.242795788587465 L 180.59528098347252,151.27892715033423 L 164.72112142420548,159.14476427180713 L 151.5282764538967,168.30268414810385 L 140.72529883461587,179.5201645057743 L 132.0207413284327,193.5646830713682 L 125.12315669741706,211.20371757143494 L 119.74109770363863,233.2047457325244 L 115.58311710916723,260.33524528118585 L 112.3577676760726,293.3626939439693 L 109.77360216642447,333.0545694474242 L 109.77360216642447,333.0545694474242 L 108.13502102872779,373.59002278955495 L 108.03139534413039,409.02514946790643 L 109.59873382366634,439.94284395833927 L 112.97304517836976,466.9260007367139 L 118.29033811927478,490.5575142788908 L 125.68662135741549,511.42027906073037 L 135.29790360382606,530.0971895580933 L 147.26019356954052,547.1711402468396 L 161.70949996559304,563.2250256028303 L 161.70949996559304,563.2250256028303 L 169.406945349595,570.8058920916603 L 176.94895220670088,577.0946758256661 L 184.61725286690984,582.198240792089 L 192.69357966022108,586.2234509781699 L 201.45966491663395,589.2771703711501 L 211.19724096614758,591.4662629582706 L 222.18804013876124,592.8975927267724 L 234.7137947644742,593.6780236638967 L 249.05623717328564,593.9144197568845 L 249.05623717328564,593.9144197568845 L 281.5930829855531,590.6356383301693 L 310.61313212679573,580.9741623927819 L 335.92208643839336,565.1922944588595 L 357.3256477617257,543.5523370425393 L 374.62951793817274,516.3165926579584 L 387.6393988091142,483.74736381925425 L 396.1609922159301,446.1069530405639 L 399.99999999999994,403.6576628360246 L 398.962124002704,356.6617957197735 L 398.962124002704,356.6617957197735 L 395.2736972915646,323.9695113806099 L 389.0399647025013,292.9870508373036 L 380.4260796703408,264.0252911436471 L 369.59719562991063,237.3951093534325 L 356.7184660160377,213.40738252045193 L 341.95504426354927,192.37298769849792 L 325.47208380727244,174.6028019413625 L 307.43473808203436,160.40770230283803 L 288.0081605226621,150.09856583671674 L 288.0081605226621,150.09856583671674 L 273.171876960691,144.15466133426176 L 260.5117327752659,139.70685265318187 L 249.40597385880193,136.76485470140824 L 239.23284610371476,135.33838238687193 L 229.37059540241987,135.43715061750387 L 219.19746764733264,137.07087430123508 L 208.09170873086873,140.24926834599648 L 195.43156454544354,144.98204765971929 L 180.59528098347252,151.27892715033423 L 180.59528098347252,151.27892715033423 L 180.59528098347252,151.27892715033423 L 180.59528098347252,151.27892715033423 L 180.59528098347252,151.27892715033423 L 180.59528098347252,151.27892715033423 L 180.59528098347252,151.27892715033423 L 180.59528098347252,151.27892715033423 L 180.59528098347252,151.27892715033423 L 180.59528098347252,151.27892715033423 L 180.59528098347252,151.27892715033423 L 313.97610942224634,268.13469719846347 L 313.97610942224634,268.13469719846347 L 313.97610942224634,268.13469719846347 L 313.97610942224634,268.13469719846347 L 313.97610942224634,268.13469719846347 L 313.97610942224634,268.13469719846347 L 313.97610942224634,268.13469719846347 L 313.97610942224634,268.13469719846347 L 313.97610942224634,268.13469719846347 L 313.97610942224634,268.13469719846347 L 313.97610942224634,268.13469719846347 L 327.9105256979554,304.1365268394572 L 336.7931898495404,341.3235752480338 L 340.8184000356214,378.5203385645414 L 340.1804544148185,414.5513129293281 L 335.0736511457519,448.24099448274194 L 325.6922883870419,478.4138793651308 L 312.2306642973086,503.89446371684284 L 294.883077035172,523.5072436782261 L 273.84382475925247,536.0767153896287 L 273.84382475925247,536.0767153896287 L 248.983375363803,540.2346959841 L 225.95904356731418,533.9297207368759 L 205.38286856943938,518.5024469424352 L 187.86688956983198,495.29353189525716 L 174.02314576814564,465.6436328898209 L 164.46367636403377,430.8934072206054 L 159.80052055714995,392.3835121820899 L 160.64571754714765,351.4546050687533 L 167.6113065336804,309.4473431750748 L 167.6113065336804,309.4473431750748 L 171.7514764636116,293.5391814380494 L 175.63905878733667,280.283189566189 L 179.4586367555446,269.4462097691495 L 183.39479361892464,260.795084256587 L 187.63211262816597,254.0966552381569 L 192.35517703395763,249.1177649235154 L 197.74857008698888,245.62525552231804 L 203.99687503794888,243.38596924422075 L 211.28467513752668,242.1667482988792 L 211.28467513752668,242.1667482988792 L 216.3429038669381,241.04305728152607 L 221.23597916152247,239.29761215658812 L 225.88618175783162,237.00813218751395 L 230.21579239241754,234.25233663775137 L 234.14709180183206,231.10794477074842 L 237.60236072262722,227.65267584995337 L 240.50387989135493,223.96424913881393 L 242.77393004456712,220.12038390077853 L 244.33479191881577,216.19879939929493 L 244.33479191881577,216.19879939929493 L 248.19970612403506,206.51627449472375 L 253.39556271580253,200.99173018462378 L 259.76692316722193,199.49887266589218 L 267.15834895139716,201.91140813542592 L 275.4144015414321,208.10304279012155 L 284.37964241043056,217.94748282687632 L 293.89863303149656,231.318434442587 L 303.81593487773387,248.0896038341504 L 313.97610942224634,268.13469719846347 L 313.97610942224634,268.13469719846347 L 313.97610942224634,268.13469719846347 L 313.97610942224634,268.13469719846347 L 313.97610942224634,268.13469719846347 L 313.97610942224634,268.13469719846347 L 313.97610942224634,268.13469719846347 L 313.97610942224634,268.13469719846347 L 313.97610942224634,268.13469719846347 L 313.97610942224634,268.13469719846347 L 313.97610942224634,268.13469719846347 L 285.6474378954271,6.094485575385711 L 279.5205692936047,13.158842792550425 L 275.278392830398,20.11633602247379 L 272.8820488740827,26.860101277915117 L 272.29267779293485,33.283274571633335 L 273.4714199552305,39.27899191638708 L 276.3794157292455,44.74038932493541 L 280.97780548325596,49.56060281003718 L 287.2277295855377,53.63276838445137 L 295.09032840436686,56.850022060936816 L 295.09032840436686,56.850022060936816 L 304.1705290172156,58.954918779322 L 312.4735369955838,59.78716255874488 L 319.9216330760233,59.38561303092976 L 326.4370979950859,57.78912982760092 L 331.9422124893238,55.036572580481966 L 336.3592572952886,51.166800921297195 L 339.6105131495327,46.218674481770485 L 341.61826078860764,40.23105289362592 L 342.30478094906556,33.242795788587465 L 342.30478094906556,33.242795788587465 L 340.9058342070004,25.23933080475891 L 337.0587306663213,17.91590937610061 L 331.2880753553025,11.515404200888174 L 324.1184733022187,6.280687977396681 L 316.0745295353441,2.4546334039013455 L 307.68084908295316,0.28011317867751484 L 299.4620369733205,0.0 L 291.9426982347203,1.8571665661444172 L 285.6474378954271,6.094485575385711 L 285.6474378954271,6.094485575385711 L 285.6474378954271,6.094485575385711 L 285.6474378954271,6.094485575385711 L 285.6474378954271,6.094485575385711 L 285.6474378954271,6.094485575385711 L 285.6474378954271,6.094485575385711 L 285.6474378954271,6.094485575385711 L 285.6474378954271,6.094485575385711 L 285.6474378954271,6.094485575385711 L 285.6474378954271,6.094485575385711"/></svg>
