<?xml version="1.0" encoding="utf-8"?>
<svg xmlns="http://www.w3.org/2000/svg"  viewBox="0,0,400,701.9310861308737" width="100%">
<path d="M60.165521668360604 16.712644907877948 L 60.165521668360604,16.712644907877948 L 57.96773626575167,23.62542889675159 L 57.27385965046348,30.171405864327255 L 58.019700593768874,36.231363528683374 L 60.14106786694075,41.686089607898516 L 63.573770241252035,46.4163718200506 L 68.2536164879756,50.30299788321782 L 74.11641537838437,53.226755515478494 L 81.09797568375122,55.06843243491092 L 89.13410617534905,55.70881635959315 L 89.13410617534905,55.70881635959315 L 95.84514630250881,55.027166645015136 L 101.80423203600822,53.06169235589451 L 106.91966162052285,49.93160577415382 L 111.09973330072827,45.75611918171466 L 114.25274532130004,40.6544448604987 L 116.28699592691368,34.74579509242776 L 117.11078336224485,28.14938215942354 L 116.63240587196906,20.98441834340784 L 114.7601617007619,13.370115926302358 L 114.7601617007619,13.370115926302358 L 111.384008742234,7.835914992472928 L 106.07294874636061,3.842303548093683 L 99.3680220695558,1.3617710665677765 L 91.81026906823375,0.366807021297729 L 83.94073009880866,0.8299008856861895 L 76.30044551769461,2.723542133135806 L 69.43045568130584,6.0202202370491 L 63.871800946056446,10.692424670828974 L 60.165521668360604,16.712644907877948 L 60.165521668360604,16.712644907877948 L 60.165521668360604,16.712644907877948 L 60.165521668360604,16.712644907877948 L 60.165521668360604,16.712644907877948 L 60.165521668360604,16.712644907877948 L 60.165521668360604,16.712644907877948 L 60.165521668360604,16.712644907877948 L 60.165521668360604,16.712644907877948 L 60.165521668360604,16.712644907877948 L 60.165521668360604,16.712644907877948"/></svg>
