<?xml version="1.0" encoding="utf-8"?>
<svg xmlns="http://www.w3.org/2000/svg"  viewBox="0,0,400,701.9310861308737" width="100%">
<path d="M60.165521668360604 16.712644907877948 L 60.165521668360604,16.712644907877948 L 57.96773626575167,23.62542889675159 L 57.27385965046348,30.171405864327255 L 58.019700593768874,36.231363528683374 L 60.14106786694075,41.686089607898516 L 63.573770241252035,46.4163718200506 L 68.2536164879756,50.30299788321782 L 74.11641537838437,53.226755515478494 L 81.09797568375122,55.06843243491092 L 89.13410617534905,55.70881635959315 L 89.13410617534905,55.70881635959315 L 95.84514630250881,55.027166645015136 L 101.80423203600822,53.06169235589451 L 106.91966162052285,49.93160577415382 L 111.09973330072827,45.75611918171466 L 114.25274532130004,40.6544448604987 L 116.28699592691368,34.74579509242776 L 117.11078336224485,28.14938215942354 L 116.63240587196906,20.98441834340784 L 114.7601617007619,13.370115926302358 L 114.7601617007619,13.370115926302358 L 111.384008742234,7.835914992472928 L 106.07294874636061,3.842303548093683 L 99.3680220695558,1.3617710665677765 L 91.81026906823375,0.366807021297729 L 83.94073009880866,0.8299008856861895 L 76.30044551769461,2.723542133135806 L 69.43045568130584,6.0202202370491 L 63.871800946056446,10.692424670828974 L 60.165521668360604,16.712644907877948 L 60.165521668360604,16.712644907877948 L 60.165521668360604,16.712644907877948 L 60.165521668360604,16.712644907877948 L 60.165521668360604,16.712644907877948 L 60.165521668360604,16.712644907877948 L 60.165521668360604,16.712644907877948 L 60.165521668360604,16.712644907877948 L 60.165521668360604,16.712644907877948 L 60.165521668360604,16.712644907877948 L 60.165521668360604,16.712644907877948M141.50039355336662 158.21303846124457 L 60.165521668360604,16.712644907877948 L 57.96773626575167,23.62542889675159 L 57.27385965046348,30.171405864327255 L 58.019700593768874,36.231363528683374 L 60.14106786694075,41.686089607898516 L 63.573770241252035,46.4163718200506 L 68.2536164879756,50.30299788321782 L 74.11641537838437,53.226755515478494 L 81.09797568375122,55.06843243491092 L 89.13410617534905,55.70881635959315 L 89.13410617534905,55.70881635959315 L 95.84514630250881,55.027166645015136 L 101.80423203600822,53.06169235589451 L 106.91966162052285,49.93160577415382 L 111.09973330072827,45.75611918171466 L 114.25274532130004,40.6544448604987 L 116.28699592691368,34.74579509242776 L 117.11078336224485,28.14938215942354 L 116.63240587196906,20.98441834340784 L 114.7601617007619,13.370115926302358 L 114.7601617007619,13.370115926302358 L 111.384008742234,7.835914992472928 L 106.07294874636061,3.842303548093683 L 99.3680220695558,1.3617710665677765 L 91.81026906823375,0.366807021297729 L 83.94073009880866,0.8299008856861895 L 76.30044551769461,2.723542133135806 L 69.43045568130584,6.0202202370491 L 63.871800946056446,10.692424670828974 L 60.165521668360604,16.712644907877948 L 60.165521668360604,16.712644907877948 L 60.165521668360604,16.712644907877948 L 60.165521668360604,16.712644907877948 L 60.165521668360604,16.712644907877948 L 60.165521668360604,16.712644907877948 L 60.165521668360604,16.712644907877948 L 60.165521668360604,16.712644907877948 L 60.165521668360604,16.712644907877948 L 60.165521668360604,16.712644907877948 L 60.165521668360604,16.712644907877948 L 141.50039355336662,158.21303846124457 L 137.93778035901235,171.95454649661096 L 133.3022566273623,191.14313879824843 L 127.75888551800031,215.03603114802948 L 121.47273019051042,242.8904393278261 L 114.60885380447658,273.9635791195103 L 107.3323195194828,307.5126663049542 L 99.80819049511307,342.79491666602985 L 92.20152989095133,379.0675459846094 L 84.67740086658159,415.58777004256496 L 84.67740086658159,415.58777004256496 L 77.31374991402957,451.3881353212237 L 70.17018317425627,485.59289005723724 L 63.38425328024822,517.5968026654643 L 57.09351286499209,546.7946415607639 L 51.43551456147458,572.5811751579944 L 46.54781100268227,594.351171872015 L 42.56795482160188,611.4994001176839 L 39.633498651220016,623.4206283098603 L 37.88199512452334,629.5096248634027 L 37.88199512452334,629.5096248634027 L 36.940523769859155,634.8619506491721 L 38.273255947240926,640.3059781902658 L 41.430853055578915,645.5207513430486 L 45.9639764937834,650.1853139638848 L 51.42328766076464,653.9787099091388 L 57.35944795543295,656.5799830351752 L 63.32311877669858,657.6681771983585 L 68.86496152347183,656.9223362550532 L 73.53563759466296,654.0215040616237 L 73.53563759466296,654.0215040616237 L 76.43799815068125,647.0888513590965 L 81.15605346212337,631.1602564592424 L 87.27714563002927,607.9688825376933 L 94.38861675543906,579.2478927700809 L 102.0778089393928,546.7304503320368 L 109.93206428293048,512.149718399193 L 117.53872488709221,477.2388601471814 L 124.485132852918,443.7310387516335 L 130.35863028144797,413.3594173881812 L 130.35863028144797,413.3594173881812 L 131.34900923895185,407.78853575222183 L 132.33938819645573,402.21765411626257 L 133.32976715395964,396.64677248030324 L 134.32014611146352,391.0758908443439 L 135.31052506896737,385.50500920838465 L 136.30090402647124,379.9341275724253 L 137.29128298397512,374.363245936466 L 138.281661941479,368.7923643005067 L 139.27204089898288,363.22148266454735 L 139.27204089898288,363.22148266454735 L 146.08089623182204,362.8500905554834 L 152.88975156466122,362.47869844641946 L 159.69860689750038,362.1073063373555 L 166.50746223033954,361.73591422829156 L 173.3163175631787,361.36452211922756 L 180.12517289601786,360.9931300101636 L 186.93402822885702,360.6217379010997 L 193.74288356169617,360.2503457920357 L 200.55173889453536,359.87895368297177 L 200.55173889453536,359.87895368297177 L 207.36059422737455,359.3837642042198 L 214.16944956021368,358.8885747254679 L 220.97830489305287,358.393385246716 L 227.78716022589202,357.898195767964 L 234.59601555873115,357.4030062892121 L 241.4048708915703,356.9078168104601 L 248.2137262244095,356.4126273317082 L 255.02258155724863,355.9174378529563 L 261.83143689008784,355.4222483742043 L 261.83143689008784,355.4222483742043 L 267.1547237866712,370.1541353670745 L 272.4780106832545,384.8860223599447 L 277.80129757983786,399.6179093528149 L 283.1245844764212,414.3497963456851 L 288.44787137300455,429.0816833385552 L 293.7711582695879,443.81357033142547 L 299.0944451661712,458.5454573242956 L 304.41773206275457,473.27734431716584 L 309.7410189593379,488.009231310036 L 309.7410189593379,488.009231310036 L 325.1560840293751,530.6031682956465 L 338.81047539718327,566.475366615976 L 350.8417456957489,595.9192718880627 L 361.3874475580587,619.2283297289449 L 370.5851336170993,636.6959857556607 L 378.57235650585744,648.6156855852482 L 385.4866688573197,655.2808748347458 L 391.46562330447273,656.9849991211915 L 396.64677248030324,654.0215040616237 L 396.64677248030324,654.0215040616237 L 399.55218976149894,647.8316355772243 L 400.0,637.1025302042656 L 397.8434803872871,621.3389984639956 L 392.9359081148412,600.0458508776622 L 385.1305603741432,572.7278979665136 L 374.28071435667397,538.8899502517978 L 360.23964725391454,498.0368182547628 L 342.8606362573457,449.67331249665676 L 321.9969585584484,393.30424349872766 L 321.9969585584484,393.30424349872766 L 286.9393774979176,300.6931124339939 L 257.1087964908795,226.58739559373066 L 231.87247342559553,170.18011753108303 L 210.59766619032698,130.6643027991961 L 192.65163267333543,107.23297595121461 L 177.4016307628822,99.07916154028389 L 164.21491834722872,105.39588411954857 L 152.45875331463637,125.37616824215384 L 141.50039355336662,158.21303846124457 L 141.50039355336662,158.21303846124457 L 141.50039355336662,158.21303846124457 L 141.50039355336662,158.21303846124457 L 141.50039355336662,158.21303846124457 L 141.50039355336662,158.21303846124457 L 141.50039355336662,158.21303846124457 L 141.50039355336662,158.21303846124457 L 141.50039355336662,158.21303846124457 L 141.50039355336662,158.21303846124457 L 141.50039355336662,158.21303846124457 L 221.72108911118076,251.80384994536104 L 221.72108911118076,251.80384994536104 L 221.72108911118076,251.80384994536104 L 221.72108911118076,251.80384994536104 L 221.72108911118076,251.80384994536104 L 221.72108911118076,251.80384994536104 L 221.72108911118076,251.80384994536104 L 221.72108911118076,251.80384994536104 L 221.72108911118076,251.80384994536104 L 221.72108911118076,251.80384994536104 L 221.72108911118076,251.80384994536104 L 224.19703650494046,258.2413131691363 L 226.67298389870015,264.67877639291146 L 229.14893129245982,271.1162396166867 L 231.62487868621952,277.5537028404618 L 234.10082607997924,283.9911660642371 L 236.57677347373894,290.4286292880123 L 239.0527208674986,296.86609251178754 L 241.5286682612583,303.3035557355627 L 244.004615655018,309.74101895933796 L 244.004615655018,309.74101895933796 L 239.54791034625055,310.36000580777784 L 235.0912050374831,310.9789926562177 L 230.63449972871564,311.5979795046577 L 226.1777944199482,312.21696635309763 L 221.72108911118076,312.83595320153756 L 217.2643838024133,313.4549400499775 L 212.80767849364585,314.0739268984174 L 208.3509731848784,314.6929137468573 L 203.89426787611094,315.31190059529723 L 203.89426787611094,315.31190059529723 L 196.52908856097014,316.6354625971466 L 189.37482328307567,317.64723863089273 L 182.55985449988157,318.36556904760084 L 176.21256466884208,318.8087941983356 L 170.46133624741134,318.9952544341619 L 165.43455169304363,318.9432901061448 L 161.26059346319323,318.671241565349 L 158.0678440153142,318.1974491628394 L 155.98468580686082,317.540253249681 L 155.98468580686082,317.540253249681 L 154.4914755576613,315.3852619995568 L 153.6951986489275,311.2770233610222 L 153.55000420299714,305.40811102025845 L 154.01004134220804,297.971098663447 L 155.029459188898,289.15855997676886 L 156.56240686540474,279.16306864640563 L 158.56303349406613,268.1771983585386 L 160.9854881972199,256.393522799349 L 163.78392009720386,244.004615655018 L 163.78392009720386,244.004615655018 L 167.15854469314294,232.15063541674638 L 170.5606798156795,221.22284290725133 L 173.93530441161866,211.40464163718195 L 177.22739742776577,202.8794351171872 L 180.38193781092627,195.83062685791572 L 183.34390450790545,190.44162037001658 L 186.05827646550867,186.89581916413854 L 188.47003263054128,185.37662675093046 L 190.52415194980858,186.06744664104113 L 190.52415194980858,186.06744664104113 L 192.36430050665217,188.46850426795268 L 194.84636135076687,192.56604436836594 L 197.86946255129573,198.15832308056764 L 201.3327321773818,205.0435965428438 L 205.1352982981683,213.02012089348074 L 209.17628898279824,221.88615227076474 L 213.35483230041493,231.43994681298184 L 217.57005632016137,241.47976065841868 L 221.72108911118076,251.80384994536104 L 221.72108911118076,251.80384994536104 L 221.72108911118076,251.80384994536104 L 221.72108911118076,251.80384994536104 L 221.72108911118076,251.80384994536104 L 221.72108911118076,251.80384994536104 L 221.72108911118076,251.80384994536104 L 221.72108911118076,251.80384994536104 L 221.72108911118076,251.80384994536104 L 221.72108911118076,251.80384994536104 L 221.72108911118076,251.80384994536104"/></svg>
