<?xml version="1.0" encoding="utf-8"?>
<svg xmlns="http://www.w3.org/2000/svg"  viewBox="0,0,400,369.52782166052305" width="100%">
<path d="M167.77251184834122 6.49464630507284 L 167.77251184834122,6.49464630507284 L 164.31910232155977,10.563064380863349 L 162.12171448260617,15.029352680748133 L 161.10233456205023,19.659469896436686 L 161.18294879046152,24.219374719637962 L 162.28554339840983,28.47502584206108 L 164.3321046164648,32.19238195541515 L 167.24461867519616,35.137401751409136 L 170.94507180517363,37.0760439217522 L 175.35545023696682,37.77426715815341 L 175.35545023696682,37.77426715815341 L 177.84018879332194,37.46741299839421 L 180.20790669553176,36.58325694485075 L 182.41179568193792,35.17640863612425 L 184.4050474908821,33.301477710815924 L 186.14085386070641,31.013073807527054 L 187.57240652975247,28.36580656485869 L 188.6528972363622,25.414285621412226 L 189.33551771887738,22.213120615788714 L 189.5734597156398,18.81692118658943 L 189.5734597156398,18.81692118658943 L 189.20029385186484,12.995793757598273 L 188.13280544016015,8.196646708143984 L 186.44900824995614,4.458486922941891 L 184.22691605068297,1.8203212867071035 L 181.544542611771,0.3211566841547335 L 178.4799017026505,0.0 L 175.11100709275183,0.8958581189580145 L 171.51587255150534,3.0477379257438884 L 167.77251184834122,6.49464630507284 L 167.77251184834122,6.49464630507284 L 167.77251184834122,6.49464630507284 L 167.77251184834122,6.49464630507284 L 167.77251184834122,6.49464630507284 L 167.77251184834122,6.49464630507284 L 167.77251184834122,6.49464630507284 L 167.77251184834122,6.49464630507284 L 167.77251184834122,6.49464630507284 L 167.77251184834122,6.49464630507284 L 167.77251184834122,6.49464630507284"/></svg>
