<?xml version="1.0" encoding="utf-8"?>
<svg xmlns="http://www.w3.org/2000/svg"  viewBox="0,0,400,369.52782166052305" width="100%">
<path d="M167.77251184834122 6.49464630507284 L 167.77251184834122,6.49464630507284 L 164.31910232155977,10.563064380863349 L 162.12171448260617,15.029352680748133 L 161.10233456205023,19.659469896436686 L 161.18294879046152,24.219374719637962 L 162.28554339840983,28.47502584206108 L 164.3321046164648,32.19238195541515 L 167.24461867519616,35.137401751409136 L 170.94507180517363,37.0760439217522 L 175.35545023696682,37.77426715815341 L 175.35545023696682,37.77426715815341 L 177.84018879332194,37.46741299839421 L 180.20790669553176,36.58325694485075 L 182.41179568193792,35.17640863612425 L 184.4050474908821,33.301477710815924 L 186.14085386070641,31.013073807527054 L 187.57240652975247,28.36580656485869 L 188.6528972363622,25.414285621412226 L 189.33551771887738,22.213120615788714 L 189.5734597156398,18.81692118658943 L 189.5734597156398,18.81692118658943 L 189.20029385186484,12.995793757598273 L 188.13280544016015,8.196646708143984 L 186.44900824995614,4.458486922941891 L 184.22691605068297,1.8203212867071035 L 181.544542611771,0.3211566841547335 L 178.4799017026505,0.0 L 175.11100709275183,0.8958581189580145 L 171.51587255150534,3.0477379257438884 L 167.77251184834122,6.49464630507284 L 167.77251184834122,6.49464630507284 L 167.77251184834122,6.49464630507284 L 167.77251184834122,6.49464630507284 L 167.77251184834122,6.49464630507284 L 167.77251184834122,6.49464630507284 L 167.77251184834122,6.49464630507284 L 167.77251184834122,6.49464630507284 L 167.77251184834122,6.49464630507284 L 167.77251184834122,6.49464630507284 L 167.77251184834122,6.49464630507284M180.09478672985782 82.32403019132876 L 167.77251184834122,6.49464630507284 L 164.31910232155977,10.563064380863349 L 162.12171448260617,15.029352680748133 L 161.10233456205023,19.659469896436686 L 161.18294879046152,24.219374719637962 L 162.28554339840983,28.47502584206108 L 164.3321046164648,32.19238195541515 L 167.24461867519616,35.137401751409136 L 170.94507180517363,37.0760439217522 L 175.35545023696682,37.77426715815341 L 175.35545023696682,37.77426715815341 L 177.84018879332194,37.46741299839421 L 180.20790669553176,36.58325694485075 L 182.41179568193792,35.17640863612425 L 184.4050474908821,33.301477710815924 L 186.14085386070641,31.013073807527054 L 187.57240652975247,28.36580656485869 L 188.6528972363622,25.414285621412226 L 189.33551771887738,22.213120615788714 L 189.5734597156398,18.81692118658943 L 189.5734597156398,18.81692118658943 L 189.20029385186484,12.995793757598273 L 188.13280544016015,8.196646708143984 L 186.44900824995614,4.458486922941891 L 184.22691605068297,1.8203212867071035 L 181.544542611771,0.3211566841547335 L 178.4799017026505,0.0 L 175.11100709275183,0.8958581189580145 L 171.51587255150534,3.0477379257438884 L 167.77251184834122,6.49464630507284 L 167.77251184834122,6.49464630507284 L 167.77251184834122,6.49464630507284 L 167.77251184834122,6.49464630507284 L 167.77251184834122,6.49464630507284 L 167.77251184834122,6.49464630507284 L 167.77251184834122,6.49464630507284 L 167.77251184834122,6.49464630507284 L 167.77251184834122,6.49464630507284 L 167.77251184834122,6.49464630507284 L 167.77251184834122,6.49464630507284 L 180.09478672985782,82.32403019132876 L 164.29829864971168,89.55980730598952 L 148.65003673148308,98.50408597117385 L 133.368439529577,108.96963314024916 L 118.67194559839812,120.76921576658282 L 104.7789934923514,133.7156008035418 L 91.90802176584167,147.6215552044936 L 80.2774689732738,162.29984592280536 L 70.10577366905258,177.56323991184442 L 61.611374407582936,193.224504124978 L 61.611374407582936,193.224504124978 L 53.78009218627088,210.36152880983497 L 47.9693665932037,225.77444919028207 L 44.163594874495345,239.4944707740916 L 42.34717427625976,251.5527990690357 L 42.50450204461087,261.98063958288634 L 44.61997542566262,270.8091978234158 L 48.677991665528964,278.0696792983961 L 54.66294801032381,283.79328951559944 L 62.55924170616114,288.01123398279793 L 62.55924170616114,288.01123398279793 L 71.12385336011805,289.3647728824138 L 82.48915933662292,287.9566243441967 L 96.0154467263472,284.11444619975424 L 111.06300261996242,278.1658962806935 L 126.99211410814007,270.43863241862186 L 143.16306828155166,261.26031244514655 L 158.93615223086871,250.95859419187485 L 173.6716530467627,239.86113549041406 L 186.72985781990522,228.2955941723714 L 186.72985781990522,228.2955941723714 L 189.99473407056345,224.92539933298224 L 193.2596103212217,221.5552044935931 L 196.52448657187995,218.18500965420395 L 199.78936282253818,214.81481481481478 L 203.0542390731964,211.44461997542564 L 206.31911532385465,208.0744251360365 L 209.5839915745129,204.70423029664735 L 212.84886782517114,201.33403545725818 L 216.11374407582937,197.96384061786904 L 216.11374407582937,197.96384061786904 L 216.85097419694577,201.4393540459891 L 217.58820431806214,204.91486747410914 L 218.32543443917854,208.39038090222923 L 219.0626645602949,211.86589433034928 L 219.79989468141125,215.34140775846936 L 220.53712480252761,218.81692118658938 L 221.27435492364404,222.29243461470946 L 222.0115850447604,225.76794804282954 L 222.74881516587678,229.2434614709496 L 222.74881516587678,229.2434614709496 L 229.01202062163966,250.75835885033712 L 237.60783778336875,267.8888823877414 L 248.41144461997547,280.6038265753905 L 261.2980191003712,288.87198590551225 L 276.14273919346766,292.6621548703346 L 292.8207828681762,291.94312796208527 L 311.2073280934085,286.68369967299225 L 331.1775528380758,276.85266449528336 L 352.60663507109007,262.4188169211866 L 352.60663507109007,262.4188169211866 L 361.5288098349358,255.28575793627576 L 369.35879182675745,248.39454163659883 L 376.12778655432686,241.70616113744074 L 381.8669995254162,235.1816095540863 L 386.60763624779776,228.7818800018203 L 390.3809022292434,222.46796559592767 L 393.21800297752554,216.2008594516932 L 395.15014400041605,209.94155468440175 L 396.2085308056872,203.65104440933823 L 396.2085308056872,203.65104440933823 L 396.62980516061083,200.5968053361418 L 397.0510795155345,197.54256626294537 L 397.4723538704581,194.48832718974896 L 397.89362822538175,191.43408811655254 L 398.31490258030544,188.3798490433561 L 398.73617693522914,185.32560997015972 L 399.1574512901527,182.2713708969633 L 399.57872564507636,179.2171318237669 L 400.0,176.16289275057045 L 400.0,176.16289275057045 L 395.78725645076355,179.95436194488326 L 391.5745129015271,183.74583113919604 L 387.3617693522907,187.53730033350885 L 383.14902580305426,191.32876952782163 L 378.93628225381775,195.12023872213445 L 374.7235387045813,198.91170791644723 L 370.5107951553449,202.70317711076 L 366.29805160610846,206.4946463050728 L 362.08530805687207,210.28611549938563 L 362.08530805687207,210.28611549938563 L 344.6999395393287,225.5417081114817 L 329.65498410469445,237.89518850077036 L 316.69299631384945,247.46357732139714 L 305.5565307276734,254.36389522750764 L 295.9881419070466,258.7131628732471 L 287.7303844128489,260.62840091276104 L 280.52581280596024,260.226630000195 L 274.11698164726073,257.62487078969434 L 268.2464454976303,252.94014393540456 L 268.2464454976303,252.94014393540456 L 263.98949414571666,248.0993895422542 L 260.6609066500238,242.01821621516197 L 258.20607337195014,234.08811655257148 L 256.57038467289476,223.70058315292647 L 255.6992309142564,210.24710861467048 L 255.5380024574337,193.11918553624716 L 256.0320896638257,171.7083065161001 L 257.1268828948309,145.40596415267294 L 258.76777251184836,113.60365104440932 L 258.76777251184836,113.60365104440932 L 259.2241530630156,104.22509572939624 L 259.189046866772,96.78128189625465 L 258.45181674565566,91.0303668597507 L 256.80182552220475,86.73050793465046 L 254.02843601895734,83.6398624357199 L 249.9210110584518,81.51658767772511 L 244.26891346322626,80.11884097543218 L 236.86150605581884,79.20477964360713 L 227.48815165876778,78.53256099701596 L 227.48815165876778,78.53256099701596 L 221.3692716764508,78.31932336057321 L 215.1177682861025,78.30112014770606 L 208.88186764964018,78.46234860452869 L 202.80979592898146,78.78740597715498 L 197.049779286044,79.26068951169881 L 191.75004388274527,79.86659645427422 L 187.058815881003,80.58952405099498 L 183.12432144273464,81.41386954797525 L 180.09478672985782,82.32403019132876 L 180.09478672985782,82.32403019132876 L 180.09478672985782,82.32403019132876 L 180.09478672985782,82.32403019132876 L 180.09478672985782,82.32403019132876 L 180.09478672985782,82.32403019132876 L 180.09478672985782,82.32403019132876 L 180.09478672985782,82.32403019132876 L 180.09478672985782,82.32403019132876 L 180.09478672985782,82.32403019132876 L 180.09478672985782,82.32403019132876 L 220.85308056872037,132.5609970159733 L 220.85308056872037,132.5609970159733 L 220.85308056872037,132.5609970159733 L 220.85308056872037,132.5609970159733 L 220.85308056872037,132.5609970159733 L 220.85308056872037,132.5609970159733 L 220.85308056872037,132.5609970159733 L 220.85308056872037,132.5609970159733 L 220.85308056872037,132.5609970159733 L 220.85308056872037,132.5609970159733 L 220.85308056872037,132.5609970159733 L 215.21138480941883,143.0278444145392 L 203.73425909673054,157.66842847762632 L 187.95857468843255,175.03949447077403 L 169.42120284230168,193.69778765952185 L 149.65901481611505,212.2000533094091 L 130.20888186764967,229.10303668597504 L 112.60767525468248,242.9634830547591 L 98.39226623499047,252.3381376813007 L 89.0995260663507,255.78374583113916 L 89.0995260663507,255.78374583113916 L 79.85619461835012,253.12347629356577 L 75.81638159135086,245.73557232851596 L 76.49640161488503,234.50939090749515 L 81.4125693184847,220.3342890020088 L 90.08119933168206,204.0996235835625 L 102.01860628400911,186.69475162366157 L 116.74110480499806,169.00903009381156 L 133.76500952418098,151.93181596551796 L 152.60663507109004,136.3524662102861 L 152.60663507109004,136.3524662102861 L 165.6505373198369,127.82816167053491 L 178.0391239053693,121.2385986126551 L 189.4681411269089,116.62278392136209 L 199.63333528367755,114.01972448137096 L 208.23045267489712,113.46842717739675 L 214.95523959978937,115.00789889415478 L 219.5034423575761,118.67714651636011 L 221.57080724747917,124.51517692872791 L 220.85308056872037,132.5609970159733 L 220.85308056872037,132.5609970159733 L 220.85308056872037,132.5609970159733 L 220.85308056872037,132.5609970159733 L 220.85308056872037,132.5609970159733 L 220.85308056872037,132.5609970159733 L 220.85308056872037,132.5609970159733 L 220.85308056872037,132.5609970159733 L 220.85308056872037,132.5609970159733 L 220.85308056872037,132.5609970159733 L 220.85308056872037,132.5609970159733"/></svg>
