<?xml version="1.0" encoding="utf-8"?>
<svg xmlns="http://www.w3.org/2000/svg"  viewBox="0,0,400,873.0112279632172" width="100%">
<path d="M158.5185185185185 283.3815983335875 L 158.5185185185185,283.3815983335875 L 131.5856322715033,326.6331351928062 L 108.32291825433114,376.8836051414928 L 89.10836762688616,431.91383427323075 L 74.3199715490525,489.5046486816035 L 64.33572118071432,547.4368744601942 L 59.53360768175582,603.4913377025861 L 60.291622212061164,655.4488645023625 L 66.9877559315145,701.0902809531069 L 80.0,738.1964131484024 L 80.0,738.1964131484024 L 86.98470761570896,750.7412487933752 L 93.40852512320278,760.8596250571561 L 99.69821673525378,768.7588274145202 L 106.28054666463447,774.646141340243 L 113.58227912411726,778.7288523090994 L 122.03017832647458,781.2142457958647 L 132.05100848447896,782.309607275314 L 144.0715338109028,782.2222222222224 L 158.5185185185185,781.1593761113653 L 158.5185185185185,781.1593761113653 L 173.02240512117055,779.4584158918865 L 185.2217649748514,777.099019458416 L 195.55555555555554,773.7519687039579 L 204.46273433927757,769.0880455215162 L 212.38225880201188,762.7780318040951 L 219.75308641975306,754.4927094446986 L 227.01417466849563,743.9028603363311 L 234.6044810242341,730.6792663719963 L 242.96296296296296,714.4927094446987 L 242.96296296296296,714.4927094446987 L 248.81979373063044,703.3826144388561 L 254.4815322867449,692.8821825941169 L 259.8628257887517,683.1621195955903 L 264.87832139409636,674.3931311283851 L 269.44266626022454,666.7459228776103 L 273.4705075445816,660.391200528375 L 276.87649240461315,655.4996697657879 L 279.57526799776457,652.2420362749583 L 281.48148148148147,650.789005740995 L 281.48148148148147,650.789005740995 L 283.17024843773805,651.3234771122289 L 285.2248132906569,652.8699893308948 L 287.5720164609054,655.343189554438 L 290.13869836915103,658.657724940304 L 292.8516994360616,662.7282426459383 L 295.63786008230454,667.4693898287863 L 298.4240207285475,672.7958136462939 L 301.13702179545805,678.6221612559062 L 303.7037037037037,684.863079815069 L 303.7037037037037,684.863079815069 L 311.68825890362234,696.8876695625669 L 323.0259614896104,707.0954630899763 L 336.5706447187929,715.2060153431897 L 351.1761418482955,720.9388812680995 L 365.6962861352436,724.0136158105981 L 378.98491083676277,724.1497739165779 L 389.8958492099781,721.0669105319313 L 397.28293451201534,714.4845806025505 L 400.0,704.1223390743282 L 400.0,704.1223390743282 L 399.62607326118984,700.0254026317128 L 398.54493725549963,695.7089874511 L 396.81755829903983,691.2828329014887 L 394.50490270792056,686.8566783518773 L 391.6679367982523,682.5402631712647 L 388.3676268861454,678.4433267286493 L 384.66493928771024,674.6756083930297 L 380.62084031905704,671.3468475334047 L 376.2962962962963,668.5667835187727 L 376.2962962962963,668.5667835187727 L 367.25499161713145,660.1392064217855 L 358.94528273129094,646.0295686633137 L 351.4403292181071,626.701214245796 L 344.81329065691205,602.6174871716711 L 339.1373266270386,574.2417314433777 L 334.4855967078189,542.0372910633544 L 330.9312604785856,506.4675100340397 L 328.5474775186709,467.99573235787244 L 327.4074074074074,427.08530203729117 L 327.4074074074074,427.08530203729117 L 325.7633490829649,395.61448966112914 L 322.0464360107708,368.67957120357687 L 316.59807956104254,346.75608393029523 L 309.75969110399836,330.31956510694516 L 301.8726820098563,319.84555199918714 L 293.278463648834,315.8095818726822 L 284.3184473911497,318.68719199309066 L 275.33404460702127,328.9539196260734 L 266.6666666666667,347.0853020372912 L 266.6666666666667,347.0853020372912 L 264.20769191688254,354.66544734034477 L 261.80968348320886,363.3917593862726 L 259.5336076817559,372.9837931209675 L 257.4404308286338,383.1611034903217 L 255.59111923995326,393.64324544022776 L 254.04663923182437,404.149773916578 L 252.86795712035772,414.40024386526466 L 252.11603922166336,424.1142102321802 L 251.85185185185185,433.01122796321715 L 251.85185185185185,433.01122796321715 L 250.49839963420203,457.17217903774855 L 246.73068129858257,486.9298379312098 L 240.98765432098767,520.4186353706244 L 233.70827617741193,555.773002083016 L 225.33150434385007,591.1273687954074 L 216.2962962962963,624.6161662348221 L 207.04160951074533,654.3738251282834 L 198.00640146319162,678.5347762028148 L 189.62962962962962,695.2334501854393 L 189.62962962962962,695.2334501854393 L 174.42056597063453,715.1409846060054 L 160.5771477925113,724.8915307625872 L 148.36762688614544,725.0825585530663 L 138.0602550424224,716.311537875324 L 129.9232840522278,699.175938627242 L 124.22496570644718,674.2732307067014 L 121.23355179596606,642.2008840115838 L 121.21729411166999,603.5563684397706 L 124.44444444444444,558.937153889143 L 124.44444444444444,558.937153889143 L 129.17543057460747,522.9792206472592 L 136.28410303307425,487.5699842503685 L 145.51440329218107,453.258141543464 L 156.6102728242646,420.592389371539 L 169.31565310166133,390.12142457958646 L 183.3744855967078,362.39394401259995 L 198.53071178174056,337.95864451557196 L 214.52827312909616,317.36422293349614 L 231.11111111111111,301.1593761113653 L 231.11111111111111,301.1593761113653 L 238.12630188487523,295.0932276583857 L 244.32454402276073,288.84418025707475 L 249.65706447187927,282.55855306609766 L 254.07509017934262,276.3826652441193 L 257.5298480922624,270.4628359498045 L 259.9725651577503,264.94538434181794 L 261.35446832291825,259.9766295788245 L 261.6267845348778,255.70289081948903 L 260.74074074074076,252.27048722247642 L 260.74074074074076,252.27048722247642 L 253.33333333333323,243.58278717675185 L 244.17009602194793,238.18726820098576 L 233.58024691358025,235.97419092618 L 221.89300411522632,236.83381598333602 L 209.43758573388206,240.65640400345495 L 196.5432098765432,247.33221561753822 L 183.53909465020575,256.7515114565871 L 170.75445816186559,268.8045521516031 L 158.5185185185185,283.3815983335875 L 158.5185185185185,283.3815983335875 L 158.5185185185185,283.3815983335875 L 158.5185185185185,283.3815983335875 L 158.5185185185185,283.3815983335875 L 158.5185185185185,283.3815983335875 L 158.5185185185185,283.3815983335875 L 158.5185185185185,283.3815983335875 L 158.5185185185185,283.3815983335875 L 158.5185185185185,283.3815983335875 L 158.5185185185185,283.3815983335875"/></svg>
