<?xml version="1.0" encoding="utf-8"?>
<svg xmlns="http://www.w3.org/2000/svg"  viewBox="0,0,400,522.5897797021103" width="100%">
<path d="M130.72178659085557 20.400249548906725 L 130.72178659085557,20.400249548906725 L 130.97581841207693,25.77526402498492 L 131.7857316303239,30.316456405524445 L 133.22325287747074,34.077621664431355 L 135.36010878539165,37.112554775611386 L 138.268025985961,39.47505071297017 L 142.01873111105294,41.218904450413326 L 146.6839507925419,42.397910961846655 L 152.33541166230205,43.065865221175784 L 159.04484035220761,43.27656220230645 L 159.04484035220761,43.27656220230645 L 169.5826780184023,42.03628919281398 L 177.26041623861062,38.68008054303033 L 182.1228841577538,33.754851820997196 L 184.21491092075325,27.807518594755653 L 183.58132567253054,21.38499643234722 L 180.266957558007,15.034200901813026 L 174.3166357221041,9.30204757119434 L 165.7751893097432,4.735452008532485 L 154.68744746584576,1.8813297818688495 L 154.68744746584576,1.8813297818688495 L 148.98816884150278,1.1177400133741264 L 144.19443894457248,1.0176215897161576 L 140.24349697216485,1.5989061688638135 L 137.07258212138981,2.879525408785655 L 134.61893358935757,4.877410967450306 L 132.81979057317795,7.61049450282614 L 131.61239226996108,11.09670767288178 L 130.93397787681695,15.353982135585788 L 130.72178659085557,20.400249548906725 L 130.72178659085557,20.400249548906725 L 130.72178659085557,20.400249548906725 L 130.72178659085557,20.400249548906725 L 130.72178659085557,20.400249548906725 L 130.72178659085557,20.400249548906725 L 130.72178659085557,20.400249548906725 L 130.72178659085557,20.400249548906725 L 130.72178659085557,20.400249548906725 L 130.72178659085557,20.400249548906725 L 130.72178659085557,20.400249548906725"/></svg>
