<?xml version="1.0" encoding="utf-8"?>
<svg xmlns="http://www.w3.org/2000/svg"  viewBox="0,0,400,522.5897797021103" width="100%">
<path d="M130.72178659085557 20.400249548906725 L 130.72178659085557,20.400249548906725 L 130.97581841207693,25.77526402498492 L 131.7857316303239,30.316456405524445 L 133.22325287747074,34.077621664431355 L 135.36010878539165,37.112554775611386 L 138.268025985961,39.47505071297017 L 142.01873111105294,41.218904450413326 L 146.6839507925419,42.397910961846655 L 152.33541166230205,43.065865221175784 L 159.04484035220761,43.27656220230645 L 159.04484035220761,43.27656220230645 L 169.5826780184023,42.03628919281398 L 177.26041623861062,38.68008054303033 L 182.1228841577538,33.754851820997196 L 184.21491092075325,27.807518594755653 L 183.58132567253054,21.38499643234722 L 180.266957558007,15.034200901813026 L 174.3166357221041,9.30204757119434 L 165.7751893097432,4.735452008532485 L 154.68744746584576,1.8813297818688495 L 154.68744746584576,1.8813297818688495 L 148.98816884150278,1.1177400133741264 L 144.19443894457248,1.0176215897161576 L 140.24349697216485,1.5989061688638135 L 137.07258212138981,2.879525408785655 L 134.61893358935757,4.877410967450306 L 132.81979057317795,7.61049450282614 L 131.61239226996108,11.09670767288178 L 130.93397787681695,15.353982135585788 L 130.72178659085557,20.400249548906725 L 130.72178659085557,20.400249548906725 L 130.72178659085557,20.400249548906725 L 130.72178659085557,20.400249548906725 L 130.72178659085557,20.400249548906725 L 130.72178659085557,20.400249548906725 L 130.72178659085557,20.400249548906725 L 130.72178659085557,20.400249548906725 L 130.72178659085557,20.400249548906725 L 130.72178659085557,20.400249548906725 L 130.72178659085557,20.400249548906725M178.65310834083596 141.31790214544813 L 130.72178659085557,20.400249548906725 L 130.97581841207693,25.77526402498492 L 131.7857316303239,30.316456405524445 L 133.22325287747074,34.077621664431355 L 135.36010878539165,37.112554775611386 L 138.268025985961,39.47505071297017 L 142.01873111105294,41.218904450413326 L 146.6839507925419,42.397910961846655 L 152.33541166230205,43.065865221175784 L 159.04484035220761,43.27656220230645 L 159.04484035220761,43.27656220230645 L 169.5826780184023,42.03628919281398 L 177.26041623861062,38.68008054303033 L 182.1228841577538,33.754851820997196 L 184.21491092075325,27.807518594755653 L 183.58132567253054,21.38499643234722 L 180.266957558007,15.034200901813026 L 174.3166357221041,9.30204757119434 L 165.7751893097432,4.735452008532485 L 154.68744746584576,1.8813297818688495 L 154.68744746584576,1.8813297818688495 L 148.98816884150278,1.1177400133741264 L 144.19443894457248,1.0176215897161576 L 140.24349697216485,1.5989061688638135 L 137.07258212138981,2.879525408785655 L 134.61893358935757,4.877410967450306 L 132.81979057317795,7.61049450282614 L 131.61239226996108,11.09670767288178 L 130.93397787681695,15.353982135585788 L 130.72178659085557,20.400249548906725 L 130.72178659085557,20.400249548906725 L 130.72178659085557,20.400249548906725 L 130.72178659085557,20.400249548906725 L 130.72178659085557,20.400249548906725 L 130.72178659085557,20.400249548906725 L 130.72178659085557,20.400249548906725 L 130.72178659085557,20.400249548906725 L 130.72178659085557,20.400249548906725 L 130.72178659085557,20.400249548906725 L 130.72178659085557,20.400249548906725 L 178.65310834083596,141.31790214544813 L 160.13269426896733,151.31629576775515 L 143.2171635852856,165.70794559236114 L 128.13962784338193,183.96386770919327 L 115.13319859684776,205.55507820817908 L 104.4309873992745,229.95259317924558 L 96.26610580425353,256.6274287123202 L 90.8716653653762,285.05060089733 L 88.48077763623388,314.6931258242024 L 89.32655417041798,345.02601958286476 L 89.32655417041798,345.02601958286476 L 90.89258563300619,360.508511933892 L 92.81725025496576,373.8302394997067 L 95.2977962739509,385.4125962425705 L 98.53147192761587,395.67697612474444 L 102.7155254536149,405.04477310849023 L 108.04720508960224,413.93738115606885 L 114.72375907323213,422.7761942297418 L 122.9424356421588,431.9826062917704 L 132.9004830340365,441.978011304416 L 132.9004830340365,441.978011304416 L 165.0325198088784,468.37938905346994 L 198.957722380577,485.3487147110574 L 233.56432795508113,493.21772394959703 L 267.7405737383397,492.31815244150727 L 300.37469693630146,482.98173585920654 L 330.35493475491523,465.54020987511336 L 356.56952440012986,440.3253101616464 L 377.9067030778943,407.66877239122397 L 393.25470799415723,367.9023322362645 L 393.25470799415723,367.9023322362645 L 398.7074263214323,338.6184404687634 L 400.0,308.6531456984567 L 397.4103697283727,278.7775092179929 L 391.2164762050634,249.76259232002027 L 381.6962601285849,222.3794562971873 L 369.1276621974499,197.3991624421424 L 353.78862311017133,175.59277204753386 L 335.9570835652618,157.73134640601012 L 315.9109842612343,144.58594681021953 L 315.9109842612343,144.58594681021953 L 304.2823040686183,139.99095945577426 L 290.1790550763402,136.3911791185843 L 274.2736744582211,133.8135032856027 L 257.23859938808215,132.28482944378234 L 239.74626703974474,131.832055080076 L 222.4691145870301,132.48207768143664 L 206.07957920375966,134.2617947348169 L 191.2500980637545,137.19810372716984 L 178.65310834083596,141.31790214544813 L 178.65310834083596,141.31790214544813 L 178.65310834083596,141.31790214544813 L 178.65310834083596,141.31790214544813 L 178.65310834083596,141.31790214544813 L 178.65310834083596,141.31790214544813 L 178.65310834083596,141.31790214544813 L 178.65310834083596,141.31790214544813 L 178.65310834083596,141.31790214544813 L 178.65310834083596,141.31790214544813 L 178.65310834083596,141.31790214544813 L 298.4814127157869,185.98117923065712 L 298.4814127157869,185.98117923065712 L 298.4814127157869,185.98117923065712 L 298.4814127157869,185.98117923065712 L 298.4814127157869,185.98117923065712 L 298.4814127157869,185.98117923065712 L 298.4814127157869,185.98117923065712 L 298.4814127157869,185.98117923065712 L 298.4814127157869,185.98117923065712 L 298.4814127157869,185.98117923065712 L 298.4814127157869,185.98117923065712 L 321.80003959907793,208.99496792848257 L 339.4612283932861,236.46477363149694 L 351.4560132694269,267.0367561630734 L 357.7754283985161,299.35707534658525 L 358.4105079515695,332.07189100540563 L 353.3522860996028,363.82736296290756 L 342.59179701363183,393.2696510424643 L 326.12007486467195,419.04491506744915 L 303.92815382373925,439.799314861235 L 303.92815382373925,439.799314861235 L 279.2526981541599,451.7597307262695 L 252.57786262108536,455.5164130706843 L 225.21265825622098,451.90318399001796 L 198.46609609127214,441.7538655798089 L 173.64718715794427,425.90227993559535 L 152.0649424879428,405.1822491529159 L 135.02837311297318,380.4275953273088 L 123.84649006474073,352.47214055431243 L 119.82830437495096,322.149706929465 L 119.82830437495096,322.149706929465 L 121.22846800132987,304.52886436568633 L 125.21975620416686,286.1638579962119 L 131.48836496901183,267.6016033890833 L 139.72049028141495,249.38901611234178 L 149.60232812692627,232.07301173402868 L 160.82007449109577,216.2005058221852 L 173.05992535947365,202.3184139448527 L 186.00807671760998,190.97365167007246 L 199.35072455105478,182.71313456588572 L 199.35072455105478,182.71313456588572 L 214.54929898424626,175.6525442407625 L 227.73952772495824,170.44788051538575 L 239.33383890646775,167.09914338975574 L 249.7446606620517,165.60633286387255 L 259.38442112498734,165.96944893773602 L 268.66554842855163,168.18849161134625 L 278.00047070602164,172.26346088470314 L 287.8016160906743,178.1943567578068 L 298.4814127157869,185.98117923065712 L 298.4814127157869,185.98117923065712 L 298.4814127157869,185.98117923065712 L 298.4814127157869,185.98117923065712 L 298.4814127157869,185.98117923065712 L 298.4814127157869,185.98117923065712 L 298.4814127157869,185.98117923065712 L 298.4814127157869,185.98117923065712 L 298.4814127157869,185.98117923065712 L 298.4814127157869,185.98117923065712 L 298.4814127157869,185.98117923065712"/></svg>
