<?xml version="1.0" encoding="utf-8"?>
<svg xmlns="http://www.w3.org/2000/svg"  viewBox="0,0,400,355.906432748538" width="100%">
<path d="M172.6315789473684 102.2222222222222 L 172.6315789473684,102.2222222222222 L 152.20561692296585,113.43874088513468 L 130.86130965273267,128.1726951122662 L 109.55165692007799,145.4191033138401 L 89.22965850841094,164.1729839000794 L 70.84831420114071,183.4293552812071 L 55.36062378167641,202.18323586744637 L 43.719587033427196,219.4296440690203 L 36.87820373980218,234.1635982961519 L 35.78947368421053,245.3801169590643 L 35.78947368421053,245.3801169590643 L 36.83777344596057,249.52855389502565 L 37.86008230452675,254.1621543570861 L 38.830409356725156,259.14230019493175 L 39.722763699371896,264.3303732582485 L 40.51115442928308,269.58775539672223 L 41.16959064327485,274.77582846003895 L 41.67208143816331,279.7559742978846 L 41.99263591076457,284.38957475994516 L 42.10526315789474,288.53801169590645 L 42.10526315789474,288.53801169590645 L 44.587394411955806,302.50812215724494 L 51.669915529564655,312.18973359324235 L 62.80701754385965,317.66081871345034 L 77.4528914879792,318.99935022742045 L 95.06172839506172,316.28330084470434 L 115.0877192982456,309.5906432748538 L 136.98505523066922,298.9993502274204 L 160.20792722547108,284.58739441195587 L 184.21052631578948,266.4327485380117 L 184.21052631578948,266.4327485380117 L 200.33499386325894,253.5932423651722 L 213.16728034076962,243.79467186484726 L 223.07992202729048,236.95906432748535 L 230.44545520179045,233.00844704353474 L 235.63641614323876,231.86484730344378 L 239.0253411306043,233.4502923976608 L 240.98476644285608,237.68680961663415 L 241.88722835896323,244.49642625081222 L 242.10526315789474,253.80116959064327 L 242.10526315789474,253.80116959064327 L 243.15789473684202,265.6458017471663 L 246.1598440545809,277.1352248935095 L 250.87719298245614,287.99220272904483 L 257.07602339181284,297.93949895314415 L 264.5224171539961,306.6998772651794 L 272.98245614035085,313.99610136452236 L 282.22222222222223,319.55093495054507 L 292.0077972709551,323.0871417226193 L 302.10526315789474,324.3274853801169 L 302.10526315789474,324.3274853801169 L 316.55187351093775,322.949967511371 L 331.4403292181071,319.07732293697205 L 346.19883040935673,313.09941520467834 L 360.2555772146415,305.40610786224823 L 373.038769763916,296.3872644574399 L 383.97660818713445,286.4327485380117 L 392.49729261425165,275.9324236517219 L 398.029023175222,265.27615334632884 L 400.0,254.85380116959064 L 400.0,254.85380116959064 L 400.0,252.04678362573097 L 400.0,249.23976608187135 L 400.0,246.43274853801168 L 400.0,243.62573099415204 L 400.0,240.81871345029242 L 400.0,238.01169590643275 L 400.0,235.20467836257308 L 400.0,232.39766081871343 L 400.0,229.5906432748538 L 400.0,229.5906432748538 L 394.6198830409357,233.4502923976608 L 389.2397660818713,237.3099415204678 L 383.85964912280707,241.16959064327486 L 378.4795321637427,245.02923976608187 L 373.0994152046784,248.88888888888889 L 367.71929824561397,252.7485380116959 L 362.3391812865498,256.60818713450294 L 356.95906432748535,260.4678362573099 L 351.57894736842104,264.32748538011697 L 351.57894736842104,264.32748538011697 L 337.4211248285321,274.32531947151836 L 326.1916107140279,281.9319904700021 L 317.38791423001953,287.2514619883041 L 310.5075445816187,290.3876976391596 L 305.04801097393687,291.4446610353043 L 300.5068226120857,290.5263157894737 L 296.3814887011768,287.73662551440333 L 292.16951844632155,283.17955382282867 L 287.36842105263156,276.9590643274854 L 287.36842105263156,276.9590643274854 L 283.5795249440473,271.0923399032561 L 280.60501046855825,264.48920655548335 L 278.4015594541911,256.80311890838203 L 276.92585372897264,247.687531586167 L 276.13457512092987,236.7958992130532 L 275.9844054580896,223.78167641325538 L 276.43202656847876,208.29831781098838 L 277.43412028012415,189.9992780304671 L 278.94736842105266,168.53801169590642 L 278.94736842105266,168.53801169590642 L 279.64912280701753,158.9473684210526 L 280.35087719298247,149.3567251461988 L 281.05263157894734,139.766081871345 L 281.7543859649123,130.1754385964912 L 282.4561403508772,120.58479532163743 L 283.1578947368421,110.99415204678363 L 283.859649122807,101.40350877192981 L 284.5614035087719,91.812865497076 L 285.2631578947368,82.2222222222222 L 285.2631578947368,82.2222222222222 L 281.4035087719298,82.2222222222222 L 277.5438596491228,82.2222222222222 L 273.6842105263158,82.2222222222222 L 269.82456140350877,82.2222222222222 L 265.96491228070175,82.2222222222222 L 262.10526315789474,82.2222222222222 L 258.2456140350877,82.2222222222222 L 254.38596491228068,82.2222222222222 L 250.52631578947367,82.2222222222222 L 250.52631578947367,82.2222222222222 L 243.66182947079628,82.56154790267853 L 235.84434336870981,83.5333188939426 L 227.29044834307996,85.06822612085766 L 218.21673525377233,87.09696050826653 L 208.83979496065268,89.5502129810122 L 199.3762183235867,92.35867446393762 L 190.04259620244028,95.45303588188577 L 181.0555194570789,98.76398815969965 L 172.6315789473684,102.2222222222222 L 172.6315789473684,102.2222222222222 L 172.6315789473684,102.2222222222222 L 172.6315789473684,102.2222222222222 L 172.6315789473684,102.2222222222222 L 172.6315789473684,102.2222222222222 L 172.6315789473684,102.2222222222222 L 172.6315789473684,102.2222222222222 L 172.6315789473684,102.2222222222222 L 172.6315789473684,102.2222222222222 L 172.6315789473684,102.2222222222222 L 242.10526315789474,132.7485380116959 L 242.10526315789474,132.7485380116959 L 242.10526315789474,132.7485380116959 L 242.10526315789474,132.7485380116959 L 242.10526315789474,132.7485380116959 L 242.10526315789474,132.7485380116959 L 242.10526315789474,132.7485380116959 L 242.10526315789474,132.7485380116959 L 242.10526315789474,132.7485380116959 L 242.10526315789474,132.7485380116959 L 242.10526315789474,132.7485380116959 L 240.17038480976098,140.04476211103895 L 234.7353981661974,150.26063100137173 L 226.35477582846005,162.72904483430798 L 215.58299039780522,176.78290376146126 L 202.97451447548914,191.75510793444516 L 189.08382066276803,206.9785575048733 L 174.46538156089812,221.78615262435923 L 159.67366977113565,235.51079344451662 L 145.26315789473685,247.48538011695905 L 145.26315789473685,247.48538011695905 L 122.64818424662475,264.2408490361707 L 104.07046422640964,275.3303010612952 L 89.74658869395715,280.93567251461985 L 79.89314850913291,281.23889971843187 L 74.72673453180276,276.4219189950184 L 74.46393762183234,266.66666666666663 L 79.32134863908742,252.15507905566386 L 89.51555844343369,233.0690924842972 L 105.26315789473684,209.59064327485382 L 105.26315789473684,209.59064327485382 L 111.62659735759149,201.39340119846946 L 118.66580030322721,193.05754097177098 L 126.19883040935675,184.75633528265104 L 134.04375135369287,176.66305681900224 L 142.01862681394846,168.950978268717 L 149.94152046783626,161.7933723196881 L 157.6304959930691,155.36351165980795 L 164.90361706735976,149.83466897696914 L 171.57894736842104,145.3801169590643 L 171.57894736842104,145.3801169590643 L 183.1463432243159,138.91704570067145 L 194.4884845859505,133.59757418236944 L 205.30214424951268,129.47368421052627 L 215.28409501119052,126.59735759150959 L 224.131109667172,125.02057613168718 L 231.53996101364518,124.79532163742687 L 237.20742184679807,125.97357591509639 L 240.83026496281857,128.60732077106346 L 242.10526315789474,132.7485380116959 L 242.10526315789474,132.7485380116959 L 242.10526315789474,132.7485380116959 L 242.10526315789474,132.7485380116959 L 242.10526315789474,132.7485380116959 L 242.10526315789474,132.7485380116959 L 242.10526315789474,132.7485380116959 L 242.10526315789474,132.7485380116959 L 242.10526315789474,132.7485380116959 L 242.10526315789474,132.7485380116959 L 242.10526315789474,132.7485380116959"/></svg>
