<?xml version="1.0" encoding="utf-8"?>
<svg xmlns="http://www.w3.org/2000/svg"  viewBox="0,0,400,400.0" width="100%">
<path d="M177.2972972972973 11.891891891891891 L 177.2972972972973,11.891891891891891 L 174.95273050828604,18.046194342490697 L 174.87709932154377,24.0492344196048 L 176.6966966966967,29.58958958958954 L 180.03781559337116,34.35583731880029 L 184.52674897119343,38.03655507359213 L 189.78978978978978,40.32032032032033 L 195.45323100878653,40.89571052534014 L 201.14336558781002,39.45130315500683 L 206.48648648648648,35.67567567567568 L 206.48648648648648,35.67567567567568 L 210.02928854780703,31.03547992436885 L 212.08616023430844,25.941497052608177 L 212.77277277277278,20.660660660660632 L 212.20479738998256,15.45990434879323 L 210.49790531272015,10.60616171727287 L 207.76776776776774,6.366366366366393 L 204.13005598190784,3.0074518963407613 L 199.70044118192266,0.7963519074630583 L 194.59459459459458,0.0 L 194.59459459459458,0.0 L 192.72012753494232,0.19426834241659055 L 190.72998924850776,0.7533459385311019 L 188.6686686686687,1.6416416416415962 L 186.5806547288029,2.8235643050457666 L 184.51043636228826,4.263522782041306 L 182.5025025025025,5.925925925925972 L 180.60134208282355,7.775182589997392 L 178.85144403662923,9.77570162755351 L 177.2972972972973,11.891891891891891 L 177.2972972972973,11.891891891891891 L 177.2972972972973,11.891891891891891 L 177.2972972972973,11.891891891891891 L 177.2972972972973,11.891891891891891 L 177.2972972972973,11.891891891891891 L 177.2972972972973,11.891891891891891 L 177.2972972972973,11.891891891891891 L 177.2972972972973,11.891891891891891 L 177.2972972972973,11.891891891891891 L 177.2972972972973,11.891891891891891"/></svg>
