<?xml version="1.0" encoding="utf-8"?>
<svg xmlns="http://www.w3.org/2000/svg"  viewBox="0,0,400,400.0" width="100%">
<path d="M177.2972972972973 11.891891891891891 L 177.2972972972973,11.891891891891891 L 174.95273050828604,18.046194342490697 L 174.87709932154377,24.0492344196048 L 176.6966966966967,29.58958958958954 L 180.03781559337116,34.35583731880029 L 184.52674897119343,38.03655507359213 L 189.78978978978978,40.32032032032033 L 195.45323100878653,40.89571052534014 L 201.14336558781002,39.45130315500683 L 206.48648648648648,35.67567567567568 L 206.48648648648648,35.67567567567568 L 210.02928854780703,31.03547992436885 L 212.08616023430844,25.941497052608177 L 212.77277277277278,20.660660660660632 L 212.20479738998256,15.45990434879323 L 210.49790531272015,10.60616171727287 L 207.76776776776774,6.366366366366393 L 204.13005598190784,3.0074518963407613 L 199.70044118192266,0.7963519074630583 L 194.59459459459458,0.0 L 194.59459459459458,0.0 L 192.72012753494232,0.19426834241659055 L 190.72998924850776,0.7533459385311019 L 188.6686686686687,1.6416416416415962 L 186.5806547288029,2.8235643050457666 L 184.51043636228826,4.263522782041306 L 182.5025025025025,5.925925925925972 L 180.60134208282355,7.775182589997392 L 178.85144403662923,9.77570162755351 L 177.2972972972973,11.891891891891891 L 177.2972972972973,11.891891891891891 L 177.2972972972973,11.891891891891891 L 177.2972972972973,11.891891891891891 L 177.2972972972973,11.891891891891891 L 177.2972972972973,11.891891891891891 L 177.2972972972973,11.891891891891891 L 177.2972972972973,11.891891891891891 L 177.2972972972973,11.891891891891891 L 177.2972972972973,11.891891891891891 L 177.2972972972973,11.891891891891891M183.78378378378378 103.78378378378379 L 177.2972972972973,11.891891891891891 L 174.95273050828604,18.046194342490697 L 174.87709932154377,24.0492344196048 L 176.6966966966967,29.58958958958954 L 180.03781559337116,34.35583731880029 L 184.52674897119343,38.03655507359213 L 189.78978978978978,40.32032032032033 L 195.45323100878653,40.89571052534014 L 201.14336558781002,39.45130315500683 L 206.48648648648648,35.67567567567568 L 206.48648648648648,35.67567567567568 L 210.02928854780703,31.03547992436885 L 212.08616023430844,25.941497052608177 L 212.77277277277278,20.660660660660632 L 212.20479738998256,15.45990434879323 L 210.49790531272015,10.60616171727287 L 207.76776776776774,6.366366366366393 L 204.13005598190784,3.0074518963407613 L 199.70044118192266,0.7963519074630583 L 194.59459459459458,0.0 L 194.59459459459458,0.0 L 192.72012753494232,0.19426834241659055 L 190.72998924850776,0.7533459385311019 L 188.6686686686687,1.6416416416415962 L 186.5806547288029,2.8235643050457666 L 184.51043636228826,4.263522782041306 L 182.5025025025025,5.925925925925972 L 180.60134208282355,7.775182589997392 L 178.85144403662923,9.77570162755351 L 177.2972972972973,11.891891891891891 L 177.2972972972973,11.891891891891891 L 177.2972972972973,11.891891891891891 L 177.2972972972973,11.891891891891891 L 177.2972972972973,11.891891891891891 L 177.2972972972973,11.891891891891891 L 177.2972972972973,11.891891891891891 L 177.2972972972973,11.891891891891891 L 177.2972972972973,11.891891891891891 L 177.2972972972973,11.891891891891891 L 177.2972972972973,11.891891891891891 L 183.78378378378378,103.78378378378379 L 152.2218514811107,121.06328550773001 L 123.00003707411113,143.76153931709487 L 97.01701701701704,170.33033033033027 L 75.17146776406037,199.2214436658881 L 58.36206576947318,228.88666444222 L 47.487487487487485,257.77777777777777 L 43.4464093723353,284.3465687910132 L 47.13750787824861,307.04482260037815 L 59.45945945945946,324.3243243243243 L 59.45945945945946,324.3243243243243 L 68.26381937493048,329.26704482260044 L 79.36380825269714,331.1934156378601 L 92.49249249249249,330.2102102102102 L 107.38293849404961,326.4242019797575 L 123.76821265710157,319.9421643866089 L 141.38138138138137,310.8708708708709 L 159.95551106662217,299.3170948726505 L 179.22366811255696,285.3876098320543 L 198.9189189189189,269.18918918918916 L 198.9189189189189,269.18918918918916 L 212.29822415007592,257.5582990397806 L 223.07047788529272,248.53446038631225 L 231.51151151151151,242.00200200200197 L 237.89715641567489,237.84525266006747 L 242.50324398472546,235.9485411337263 L 245.60560560560558,236.1961961961962 L 247.48007266525784,238.4725466206948 L 248.40247655062467,242.6619211804397 L 248.64864864864865,248.64864864864865 L 248.64864864864865,248.64864864864865 L 249.72824676528376,262.71901531160796 L 252.80094909724545,276.566937307678 L 257.6176176176176,289.80980980980985 L 263.92911429948464,302.0650279909539 L 271.48630111593076,312.9499870240611 L 280.04004004004,322.0820820820821 L 289.3411930448967,329.0787083379676 L 299.1406221035851,333.5572609646684 L 309.18918918918916,335.13513513513516 L 309.18918918918916,335.13513513513516 L 324.2620398175953,334.0926111296482 L 338.9611834056279,331.11926741556374 L 352.91291291291293,326.4464464464464 L 365.74352129907686,320.30549067586105 L 377.07930152374604,312.92774255737214 L 386.54654654654655,304.5445445445445 L 393.7715493271049,295.3872390909428 L 398.3806028250472,285.6871686501316 L 400.0,275.6756756756757 L 400.0,275.6756756756757 L 400.0,272.7927927927928 L 400.0,269.9099099099099 L 400.0,267.02702702702703 L 400.0,264.14414414414415 L 400.0,261.2612612612612 L 400.0,258.3783783783784 L 400.0,255.49549549549553 L 400.0,252.6126126126126 L 400.0,249.72972972972974 L 400.0,249.72972972972974 L 395.6756756756757,252.6126126126126 L 391.35135135135135,255.49549549549553 L 387.02702702702703,258.3783783783784 L 382.7027027027027,261.2612612612612 L 378.3783783783784,264.14414414414415 L 374.05405405405406,267.02702702702703 L 369.72972972972974,269.90990990990986 L 365.4054054054054,272.7927927927928 L 361.0810810810811,275.6756756756757 L 361.0810810810811,275.6756756756757 L 353.85904422941445,280.5887368850332 L 346.70818967115264,285.19037556074596 L 339.77977977977986,289.40940940940936 L 333.22507692878065,293.1746561376191 L 327.1953434916398,296.4149334519705 L 321.8418418418418,299.05905905905905 L 317.3158343528714,301.0358506654803 L 313.76858339821297,302.27412597782967 L 311.35135135135135,302.7027027027027 L 311.35135135135135,302.7027027027027 L 303.2098765432098,299.0724057390724 L 296.18952285618957,289.03570236903573 L 290.4504504504505,273.8738738738739 L 286.15281948615285,254.8682015348682 L 283.45679012345687,233.29996663329996 L 282.52252252252254,210.45045045045046 L 283.5101768435101,187.60093426760096 L 286.57991324657996,166.03269936603272 L 291.8918918918919,147.02702702702703 L 291.8918918918919,147.02702702702703 L 293.5706076446817,141.80550921291666 L 294.9912875838802,136.3259555852148 L 296.1361361361362,130.7307307307307 L 296.98735772809846,125.16219923627328 L 297.527156786416,119.76272568865164 L 297.7377377377377,114.67467467467468 L 297.6013050087124,110.04041078115156 L 297.10006302598896,106.0022985948912 L 296.2162162162162,102.70270270270271 L 296.2162162162162,102.70270270270271 L 291.71986801616424,96.61809958106264 L 284.2694546398251,92.06391576761946 L 274.2742742742743,89.049049049049 L 262.14362510658805,87.58239721202688 L 248.28680532384237,87.67285804322843 L 233.11311311311312,89.32932932932937 L 217.03184666147632,92.5607088570052 L 200.4523041560078,97.37589441293149 L 183.78378378378378,103.78378378378379 L 183.78378378378378,103.78378378378379 L 183.78378378378378,103.78378378378379 L 183.78378378378378,103.78378378378379 L 183.78378378378378,103.78378378378379 L 183.78378378378378,103.78378378378379 L 183.78378378378378,103.78378378378379 L 183.78378378378378,103.78378378378379 L 183.78378378378378,103.78378378378379 L 183.78378378378378,103.78378378378379 L 183.78378378378378,103.78378378378379 L 248.64864864864865,141.6216216216216 L 248.64864864864865,141.6216216216216 L 248.64864864864865,141.6216216216216 L 248.64864864864865,141.6216216216216 L 248.64864864864865,141.6216216216216 L 248.64864864864865,141.6216216216216 L 248.64864864864865,141.6216216216216 L 248.64864864864865,141.6216216216216 L 248.64864864864865,141.6216216216216 L 248.64864864864865,141.6216216216216 L 248.64864864864865,141.6216216216216 L 244.37177918659395,155.60152745337933 L 232.69195121046974,174.10150891632372 L 215.33533533533534,195.47547547547543 L 194.02810217625031,218.07733659585514 L 170.49642234827422,240.26100174248324 L 146.46646646646644,260.3803803803804 L 123.66440514588663,276.7893819745671 L 103.8164090015942,287.84191599006414 L 88.64864864864865,291.8918918918919 L 88.64864864864865,291.8918918918919 L 80.37074111148185,288.2096911726542 L 78.72168464761059,278.1299818336856 L 82.80280280280282,263.1031031031031 L 91.71541912282656,244.57939420902383 L 104.56085715344975,224.00919437956472 L 120.44044044044043,202.84284284284286 L 138.45549252956656,182.53067882697516 L 157.70733696659622,164.5230415600786 L 177.2972972972973,150.27027027027026 L 177.2972972972973,150.27027027027026 L 189.4249805360916,143.38931524116714 L 201.12557001445893,137.9053127201275 L 212.13213213213214,133.85385385385382 L 222.17773328884437,131.2705297890483 L 230.9954398843288,130.19093167241311 L 238.31831831831832,130.65065065065065 L 243.87943499054606,132.68527787046307 L 247.41185630074517,136.33040447855262 L 248.64864864864865,141.6216216216216 L 248.64864864864865,141.6216216216216 L 248.64864864864865,141.6216216216216 L 248.64864864864865,141.6216216216216 L 248.64864864864865,141.6216216216216 L 248.64864864864865,141.6216216216216 L 248.64864864864865,141.6216216216216 L 248.64864864864865,141.6216216216216 L 248.64864864864865,141.6216216216216 L 248.64864864864865,141.6216216216216 L 248.64864864864865,141.6216216216216"/></svg>
