<?xml version="1.0" encoding="utf-8"?>
<svg xmlns="http://www.w3.org/2000/svg"  viewBox="0,0,400,736.6044106784847" width="100%">
<path d="M186.08058608058607 248.69232276639676 L 186.08058608058607,248.69232276639676 L 181.37144063069985,250.47106528588006 L 177.0602511343252,252.82865282865274 L 173.21937321937324,255.69272976680375 L 169.92116251375515,258.99094047242187 L 167.23797464538205,262.65092931759597 L 165.24216524216524,266.60034067441467 L 164.00608993201584,270.76681891496696 L 163.60210434284508,275.07800841134167 L 164.10256410256412,279.46155353562756 L 164.10256410256412,279.46155353562756 L 165.98984006391413,285.6640387504585 L 168.89009481602076,290.6605968334363 L 173.05657305657306,294.5477019551093 L 178.74251948326022,297.42182828602574 L 186.2011787937714,299.37944999673385 L 195.68579568579568,300.517041257782 L 207.44961485702225,300.9310762397181 L 221.74588100514023,300.7180291130908 L 238.82783882783883,299.974374048448 L 238.82783882783883,299.974374048448 L 257.85133933282077,298.38054035584895 L 273.25705844224365,297.64291492686544 L 285.5514855514856,297.9665053739127 L 295.2411100559249,299.55631930940564 L 302.83242135093985,302.6173643457593 L 308.83190883190883,307.35464809538877 L 313.7460618942101,313.9731781707089 L 318.08136993322177,322.6779621841349 L 322.34432234432234,333.6740077480817 L 322.34432234432234,333.6740077480817 L 324.7762753935593,341.33365491390174 L 327.1479320862037,350.45247390926403 L 329.3989960656628,360.7531014938421 L 331.46917097534384,371.9581744273101 L 333.2981604586543,383.79032946934177 L 334.8256681590015,395.9722033796107 L 335.99139771979276,408.2264329177909 L 336.7350527844354,420.275654843556 L 336.996336996337,431.8425059165799 L 336.996336996337,431.8425059165799 L 336.8656948903862,447.29445223272376 L 336.38533391619814,459.6230472773683 L 335.42260208926876,469.0694764768838 L 333.8448474250944,475.8749252576411 L 331.51941793917103,480.28057904601104 L 328.31366164699494,482.527623268364 L 324.0949265640624,482.8572433510704 L 318.7305607058693,481.5106247205012 L 312.0879120879121,478.7289528030268 L 312.0879120879121,478.7289528030268 L 293.9708668103729,472.1646894486401 L 273.51432289703894,467.1319535517066 L 251.74331840998514,463.642804383545 L 229.68289141128648,461.70930121547394 L 208.35807996301824,461.3435033188118 L 188.79392212725546,462.5574699648772 L 172.01545596607326,465.3632604249888 L 159.04771954154668,469.77293397046475 L 150.91575091575092,475.7985498726238 L 150.91575091575092,475.7985498726238 L 140.44227377560708,489.8254922946281 L 132.46506579839917,504.44333901124014 L 126.984126984127,519.4832602240009 L 123.99945733279067,534.7764261344508 L 123.51105684439018,550.1540069441303 L 125.51892551892551,565.4471728545802 L 130.02306335639668,580.4870940673409 L 137.0234703568037,595.1049407839531 L 146.5201465201465,609.1318832059573 L 146.5201465201465,609.1318832059573 L 154.9978142570735,618.9782782375374 L 163.11370385444462,627.1243160132047 L 171.2657712657713,633.7147077887818 L 179.85197244456504,638.8941648200906 L 189.27026334433742,642.8073983629538 L 199.91859991859994,645.5991196731937 L 212.19493812086404,647.4140400066325 L 226.4972339046413,648.3968706190929 L 243.2234432234432,648.6923227663968 L 243.2234432234432,648.6923227663968 L 255.8695990794756,648.3225051126286 L 269.17901485802724,647.2532497223854 L 282.8381495048162,645.5448529522603 L 296.5334619655608,643.2576111588457 L 309.95141118597917,640.4518206987342 L 322.77845611178947,637.1877779285186 L 334.70105568870997,633.5257792047914 L 345.4056688624589,629.5261208841454 L 354.57875457875457,625.2490993231733 L 354.57875457875457,625.2490993231733 L 359.6255596255596,622.6442967183707 L 364.67236467236467,620.0394941135681 L 369.71916971916977,617.4346915087655 L 374.76597476597476,614.8298889039629 L 379.8127798127798,612.2250862991602 L 384.85958485958486,609.6202836943577 L 389.9063899063899,607.0154810895551 L 394.95319495319495,604.4106784847525 L 400.0,601.8058758799499 L 400.0,601.8058758799499 L 398.86039886039885,586.9910610651351 L 397.72079772079775,572.1762462503203 L 396.5811965811966,557.3614314355054 L 395.44159544159544,542.5466166206905 L 394.3019943019943,527.7318018058758 L 393.16239316239313,512.9169869910611 L 392.02279202279203,498.1021721762462 L 390.8831908831909,483.2873573614313 L 389.7435897435897,468.4725425466166 L 389.7435897435897,468.4725425466166 L 388.12764738690663,443.6445127803152 L 386.25846033253447,419.29885386675494 L 384.2083842083843,395.9179366586772 L 382.04977464236725,373.9841320088233 L 379.8549872623947,353.97981076993415 L 377.6963776963777,336.38734379475113 L 375.64630157222746,321.68910193601545 L 373.77711451785524,310.36745604646836 L 372.16117216117215,302.904776978851 L 372.16117216117215,302.904776978851 L 365.1527256465527,286.81569916137806 L 353.3205706045212,272.84905309596655 L 337.267670601004,261.1736685810759 L 317.5969892019275,251.9583754151654 L 294.91148997321835,245.37200339669468 L 269.81413648080314,241.58338232412308 L 242.90789229060832,240.76134199590973 L 214.79572096856046,243.0747122105146 L 186.08058608058607,248.69232276639676 L 186.08058608058607,248.69232276639676 L 186.08058608058607,248.69232276639676 L 186.08058608058607,248.69232276639676 L 186.08058608058607,248.69232276639676 L 186.08058608058607,248.69232276639676 L 186.08058608058607,248.69232276639676 L 186.08058608058607,248.69232276639676 L 186.08058608058607,248.69232276639676 L 186.08058608058607,248.69232276639676 L 186.08058608058607,248.69232276639676 L 279.8534798534798,527.0806011546752 L 279.8534798534798,527.0806011546752 L 279.8534798534798,527.0806011546752 L 279.8534798534798,527.0806011546752 L 279.8534798534798,527.0806011546752 L 279.8534798534798,527.0806011546752 L 279.8534798534798,527.0806011546752 L 279.8534798534798,527.0806011546752 L 279.8534798534798,527.0806011546752 L 279.8534798534798,527.0806011546752 L 279.8534798534798,527.0806011546752 L 295.91642924976253,537.596285744434 L 307.9636412969746,547.6054809388141 L 315.995115995116,557.0358311099052 L 320.0108533441867,565.8149806297954 L 320.01085334418667,573.8705738705738 L 315.99511599511595,581.1302552043292 L 307.96364129697463,587.5216690031504 L 295.9164292497626,592.9724596391262 L 279.8534798534798,597.4102714843455 L 279.8534798534798,597.4102714843455 L 255.7610656376088,600.4391584638497 L 233.7428460885251,599.1749448539571 L 214.46208112874783,594.2085349492755 L 198.58203068079612,586.1308330444133 L 186.76595466718925,575.5327434339779 L 179.67711301044633,563.0051704125777 L 177.97876563308662,549.1390182748206 L 182.33417245762922,534.5251913153147 L 193.4065934065934,519.7545938286678 L 193.4065934065934,519.7545938286678 L 200.90545028816632,512.8667400272338 L 208.03046975886483,507.84807328017195 L 215.16754850088188,504.7227121301194 L 222.70258319641036,503.51477511971325 L 231.02147052764334,504.24838079159053 L 240.51010717677383,506.9476476883883 L 251.55438982599475,511.6366943527437 L 264.54021515749906,518.3396393272935 L 279.8534798534798,527.0806011546752 L 279.8534798534798,527.0806011546752 L 279.8534798534798,527.0806011546752 L 279.8534798534798,527.0806011546752 L 279.8534798534798,527.0806011546752 L 279.8534798534798,527.0806011546752 L 279.8534798534798,527.0806011546752 L 279.8534798534798,527.0806011546752 L 279.8534798534798,527.0806011546752 L 279.8534798534798,527.0806011546752 L 279.8534798534798,527.0806011546752M190.47619047619048 4.0036780777520615 L 186.08058608058607,248.69232276639676 L 181.37144063069985,250.47106528588006 L 177.0602511343252,252.82865282865274 L 173.21937321937324,255.69272976680375 L 169.92116251375515,258.99094047242187 L 167.23797464538205,262.65092931759597 L 165.24216524216524,266.60034067441467 L 164.00608993201584,270.76681891496696 L 163.60210434284508,275.07800841134167 L 164.10256410256412,279.46155353562756 L 164.10256410256412,279.46155353562756 L 165.98984006391413,285.6640387504585 L 168.89009481602076,290.6605968334363 L 173.05657305657306,294.5477019551093 L 178.74251948326022,297.42182828602574 L 186.2011787937714,299.37944999673385 L 195.68579568579568,300.517041257782 L 207.44961485702225,300.9310762397181 L 221.74588100514023,300.7180291130908 L 238.82783882783883,299.974374048448 L 238.82783882783883,299.974374048448 L 257.85133933282077,298.38054035584895 L 273.25705844224365,297.64291492686544 L 285.5514855514856,297.9665053739127 L 295.2411100559249,299.55631930940564 L 302.83242135093985,302.6173643457593 L 308.83190883190883,307.35464809538877 L 313.7460618942101,313.9731781707089 L 318.08136993322177,322.6779621841349 L 322.34432234432234,333.6740077480817 L 322.34432234432234,333.6740077480817 L 324.7762753935593,341.33365491390174 L 327.1479320862037,350.45247390926403 L 329.3989960656628,360.7531014938421 L 331.46917097534384,371.9581744273101 L 333.2981604586543,383.79032946934177 L 334.8256681590015,395.9722033796107 L 335.99139771979276,408.2264329177909 L 336.7350527844354,420.275654843556 L 336.996336996337,431.8425059165799 L 336.996336996337,431.8425059165799 L 336.8656948903862,447.29445223272376 L 336.38533391619814,459.6230472773683 L 335.42260208926876,469.0694764768838 L 333.8448474250944,475.8749252576411 L 331.51941793917103,480.28057904601104 L 328.31366164699494,482.527623268364 L 324.0949265640624,482.8572433510704 L 318.7305607058693,481.5106247205012 L 312.0879120879121,478.7289528030268 L 312.0879120879121,478.7289528030268 L 293.9708668103729,472.1646894486401 L 273.51432289703894,467.1319535517066 L 251.74331840998514,463.642804383545 L 229.68289141128648,461.70930121547394 L 208.35807996301824,461.3435033188118 L 188.79392212725546,462.5574699648772 L 172.01545596607326,465.3632604249888 L 159.04771954154668,469.77293397046475 L 150.91575091575092,475.7985498726238 L 150.91575091575092,475.7985498726238 L 140.44227377560708,489.8254922946281 L 132.46506579839917,504.44333901124014 L 126.984126984127,519.4832602240009 L 123.99945733279067,534.7764261344508 L 123.51105684439018,550.1540069441303 L 125.51892551892551,565.4471728545802 L 130.02306335639668,580.4870940673409 L 137.0234703568037,595.1049407839531 L 146.5201465201465,609.1318832059573 L 146.5201465201465,609.1318832059573 L 154.9978142570735,618.9782782375374 L 163.11370385444462,627.1243160132047 L 171.2657712657713,633.7147077887818 L 179.85197244456504,638.8941648200906 L 189.27026334433742,642.8073983629538 L 199.91859991859994,645.5991196731937 L 212.19493812086404,647.4140400066325 L 226.4972339046413,648.3968706190929 L 243.2234432234432,648.6923227663968 L 243.2234432234432,648.6923227663968 L 255.8695990794756,648.3225051126286 L 269.17901485802724,647.2532497223854 L 282.8381495048162,645.5448529522603 L 296.5334619655608,643.2576111588457 L 309.95141118597917,640.4518206987342 L 322.77845611178947,637.1877779285186 L 334.70105568870997,633.5257792047914 L 345.4056688624589,629.5261208841454 L 354.57875457875457,625.2490993231733 L 354.57875457875457,625.2490993231733 L 359.6255596255596,622.6442967183707 L 364.67236467236467,620.0394941135681 L 369.71916971916977,617.4346915087655 L 374.76597476597476,614.8298889039629 L 379.8127798127798,612.2250862991602 L 384.85958485958486,609.6202836943577 L 389.9063899063899,607.0154810895551 L 394.95319495319495,604.4106784847525 L 400.0,601.8058758799499 L 400.0,601.8058758799499 L 398.86039886039885,586.9910610651351 L 397.72079772079775,572.1762462503203 L 396.5811965811966,557.3614314355054 L 395.44159544159544,542.5466166206905 L 394.3019943019943,527.7318018058758 L 393.16239316239313,512.9169869910611 L 392.02279202279203,498.1021721762462 L 390.8831908831909,483.2873573614313 L 389.7435897435897,468.4725425466166 L 389.7435897435897,468.4725425466166 L 388.12764738690663,443.6445127803152 L 386.25846033253447,419.29885386675494 L 384.2083842083843,395.9179366586772 L 382.04977464236725,373.9841320088233 L 379.8549872623947,353.97981076993415 L 377.6963776963777,336.38734379475113 L 375.64630157222746,321.68910193601545 L 373.77711451785524,310.36745604646836 L 372.16117216117215,302.904776978851 L 372.16117216117215,302.904776978851 L 365.1527256465527,286.81569916137806 L 353.3205706045212,272.84905309596655 L 337.267670601004,261.1736685810759 L 317.5969892019275,251.9583754151654 L 294.91148997321835,245.37200339669468 L 269.81413648080314,241.58338232412308 L 242.90789229060832,240.76134199590973 L 214.79572096856046,243.0747122105146 L 186.08058608058607,248.69232276639676 L 186.08058608058607,248.69232276639676 L 186.08058608058607,248.69232276639676 L 186.08058608058607,248.69232276639676 L 186.08058608058607,248.69232276639676 L 186.08058608058607,248.69232276639676 L 186.08058608058607,248.69232276639676 L 186.08058608058607,248.69232276639676 L 186.08058608058607,248.69232276639676 L 186.08058608058607,248.69232276639676 L 186.08058608058607,248.69232276639676 L 279.8534798534798,527.0806011546752 L 279.8534798534798,527.0806011546752 L 279.8534798534798,527.0806011546752 L 279.8534798534798,527.0806011546752 L 279.8534798534798,527.0806011546752 L 279.8534798534798,527.0806011546752 L 279.8534798534798,527.0806011546752 L 279.8534798534798,527.0806011546752 L 279.8534798534798,527.0806011546752 L 279.8534798534798,527.0806011546752 L 279.8534798534798,527.0806011546752 L 295.91642924976253,537.596285744434 L 307.9636412969746,547.6054809388141 L 315.995115995116,557.0358311099052 L 320.0108533441867,565.8149806297954 L 320.01085334418667,573.8705738705738 L 315.99511599511595,581.1302552043292 L 307.96364129697463,587.5216690031504 L 295.9164292497626,592.9724596391262 L 279.8534798534798,597.4102714843455 L 279.8534798534798,597.4102714843455 L 255.7610656376088,600.4391584638497 L 233.7428460885251,599.1749448539571 L 214.46208112874783,594.2085349492755 L 198.58203068079612,586.1308330444133 L 186.76595466718925,575.5327434339779 L 179.67711301044633,563.0051704125777 L 177.97876563308662,549.1390182748206 L 182.33417245762922,534.5251913153147 L 193.4065934065934,519.7545938286678 L 193.4065934065934,519.7545938286678 L 200.90545028816632,512.8667400272338 L 208.03046975886483,507.84807328017195 L 215.16754850088188,504.7227121301194 L 222.70258319641036,503.51477511971325 L 231.02147052764334,504.24838079159053 L 240.51010717677383,506.9476476883883 L 251.55438982599475,511.6366943527437 L 264.54021515749906,518.3396393272935 L 279.8534798534798,527.0806011546752 L 279.8534798534798,527.0806011546752 L 279.8534798534798,527.0806011546752 L 279.8534798534798,527.0806011546752 L 279.8534798534798,527.0806011546752 L 279.8534798534798,527.0806011546752 L 279.8534798534798,527.0806011546752 L 279.8534798534798,527.0806011546752 L 279.8534798534798,527.0806011546752 L 279.8534798534798,527.0806011546752 L 279.8534798534798,527.0806011546752 L 190.47619047619048,4.0036780777520615 L 181.44781601571722,6.644658496510445 L 173.81831702819358,9.828306124602385 L 167.46710080043417,13.771687845761692 L 162.27357461925368,18.69187054372225 L 158.11714577146677,24.805921102217372 L 154.8772215438882,32.330906404980446 L 152.43320922333268,41.48389333574511 L 150.66451609661485,52.481948778245005 L 149.45054945054946,65.5421396162136 L 149.45054945054946,65.5421396162136 L 148.5842917941683,89.5280302687711 L 149.90076224644122,110.69205143279204 L 153.41202007868674,129.03420310827698 L 159.1301245622233,144.55448529522596 L 167.06713496836957,157.25289799363867 L 177.2351105684439,167.12944120351523 L 189.64611063376495,174.18411492485558 L 204.3121944356512,178.41691915765986 L 221.24542124542126,179.82785390192788 L 221.24542124542126,179.82785390192788 L 242.07781244818275,178.91134928171962 L 260.5948235577865,176.1859539637317 L 276.7602767602768,171.68784576191968 L 290.53799424169796,165.4532024902394 L 301.8917981880945,157.51820196264634 L 310.7855107855108,147.91902199309607 L 317.18295421999125,136.69184039554406 L 321.0479506775803,123.87283498394599 L 322.34432234432234,109.49818357225756 L 322.34432234432234,109.49818357225756 L 320.2821869488535,84.41489922971412 L 314.312847646181,62.08112874779535 L 304.7619047619048,42.75011682419074 L 291.95495862162534,26.675108156589488 L 276.21760955094294,14.109347442680594 L 257.87545787545787,5.306079380153402 L 237.25410392077063,0.5185486666967555 L 214.6791480124814,0.0 L 190.47619047619048,4.0036780777520615 L 190.47619047619048,4.0036780777520615 L 190.47619047619048,4.0036780777520615 L 190.47619047619048,4.0036780777520615 L 190.47619047619048,4.0036780777520615 L 190.47619047619048,4.0036780777520615 L 190.47619047619048,4.0036780777520615 L 190.47619047619048,4.0036780777520615 L 190.47619047619048,4.0036780777520615 L 190.47619047619048,4.0036780777520615 L 190.47619047619048,4.0036780777520615 L 262.27106227106225,83.12455719863118 L 262.27106227106225,83.12455719863118 L 262.27106227106225,83.12455719863118 L 262.27106227106225,83.12455719863118 L 262.27106227106225,83.12455719863118 L 262.27106227106225,83.12455719863118 L 262.27106227106225,83.12455719863118 L 262.27106227106225,83.12455719863118 L 262.27106227106225,83.12455719863118 L 262.27106227106225,83.12455719863118 L 262.27106227106225,83.12455719863118 L 268.13588788897425,92.96894235165843 L 269.5749609329856,102.62037916358895 L 267.26360059693394,111.56031896772626 L 261.8771260746569,119.27021309737349 L 254.0908565599924,125.23151288583387 L 244.5801112467779,128.92566966641039 L 234.0202093288513,129.83413477240634 L 223.08647000005024,127.43835953712497 L 212.45421245421247,121.21979529386928 L 212.45421245421247,121.21979529386928 L 208.6133345392604,117.54975705592999 L 204.95334569408644,113.45764432184174 L 201.54660154660155,109.06404980479036 L 198.465457724717,104.48956621796121 L 195.78226985634393,99.85478627453924 L 193.56939356939355,95.28030268771002 L 191.89918449177708,90.88670817065872 L 190.84399825140562,86.79459543657073 L 190.47619047619048,83.12455719863118 L 190.47619047619048,83.12455719863118 L 192.21473542461192,75.31014938422356 L 197.0042760166217,69.44934352341745 L 204.20567087233755,65.54213961621352 L 213.1797786118774,63.588537662611756 L 223.28745785535907,63.58853766261167 L 233.88956722290052,65.5421396162136 L 244.34696533461965,69.44934352341754 L 254.02051081063425,75.31014938422348 L 262.27106227106225,83.12455719863118 L 262.27106227106225,83.12455719863118 L 262.27106227106225,83.12455719863118 L 262.27106227106225,83.12455719863118 L 262.27106227106225,83.12455719863118 L 262.27106227106225,83.12455719863118 L 262.27106227106225,83.12455719863118 L 262.27106227106225,83.12455719863118 L 262.27106227106225,83.12455719863118 L 262.27106227106225,83.12455719863118 L 262.27106227106225,83.12455719863118"/></svg>
