<?xml version="1.0" encoding="utf-8"?>
<svg xmlns="http://www.w3.org/2000/svg"  viewBox="0,0,400,631.9855617437898" width="100%">
<path d="M105.506092754597 35.37372771481865 L 105.506092754597,35.37372771481865 L 101.41582780914966,51.455670849109175 L 101.99818229590672,65.12894069201977 L 106.43648157959346,76.03171936716329 L 113.91405102493528,83.80218899815219 L 123.61421599665748,88.07853170859877 L 134.7203018594854,88.49892962211574 L 146.41563397814446,84.70156486231542 L 157.8835377173599,76.3246195528104 L 168.30733844185713,63.006275817213094 L 168.30733844185713,63.006275817213094 L 171.27769091277167,57.501475269317574 L 173.46238170924488,52.647946898919294 L 174.82006021683225,48.35265182351905 L 175.30937582108965,44.522551160616956 L 174.88897790757275,41.06460602771353 L 173.5175158618372,37.88577754230905 L 171.15363906943884,34.89302682190386 L 167.7559969159333,31.993314983998246 L 163.28323878687632,29.093603146092633 L 163.28323878687632,29.093603146092633 L 154.27225072255888,23.97474166634379 L 145.7161194171286,20.33416465297791 L 137.69754609947407,18.161534452384327 L 130.29923199848378,17.44651341095193 L 123.6038783430464,18.178763875069404 L 117.69418636205043,20.347948191126072 L 112.65285728438451,23.943728705510477 L 108.56259233893718,28.955767764611725 L 105.506092754597,35.37372771481865 L 105.506092754597,35.37372771481865 L 105.506092754597,35.37372771481865 L 105.506092754597,35.37372771481865 L 105.506092754597,35.37372771481865 L 105.506092754597,35.37372771481865 L 105.506092754597,35.37372771481865 L 105.506092754597,35.37372771481865 L 105.506092754597,35.37372771481865 L 105.506092754597,35.37372771481865 L 105.506092754597,35.37372771481865"/></svg>
