<?xml version="1.0" encoding="utf-8"?>
<svg xmlns="http://www.w3.org/2000/svg"  viewBox="0,0,400,631.9855617437898" width="100%">
<path d="M105.506092754597 35.37372771481865 L 105.506092754597,35.37372771481865 L 101.41582780914966,51.455670849109175 L 101.99818229590672,65.12894069201977 L 106.43648157959346,76.03171936716329 L 113.91405102493528,83.80218899815219 L 123.61421599665748,88.07853170859877 L 134.7203018594854,88.49892962211574 L 146.41563397814446,84.70156486231542 L 157.8835377173599,76.3246195528104 L 168.30733844185713,63.006275817213094 L 168.30733844185713,63.006275817213094 L 171.27769091277167,57.501475269317574 L 173.46238170924488,52.647946898919294 L 174.82006021683225,48.35265182351905 L 175.30937582108965,44.522551160616956 L 174.88897790757275,41.06460602771353 L 173.5175158618372,37.88577754230905 L 171.15363906943884,34.89302682190386 L 167.7559969159333,31.993314983998246 L 163.28323878687632,29.093603146092633 L 163.28323878687632,29.093603146092633 L 154.27225072255888,23.97474166634379 L 145.7161194171286,20.33416465297791 L 137.69754609947407,18.161534452384327 L 130.29923199848378,17.44651341095193 L 123.6038783430464,18.178763875069404 L 117.69418636205043,20.347948191126072 L 112.65285728438451,23.943728705510477 L 108.56259233893718,28.955767764611725 L 105.506092754597,35.37372771481865 L 105.506092754597,35.37372771481865 L 105.506092754597,35.37372771481865 L 105.506092754597,35.37372771481865 L 105.506092754597,35.37372771481865 L 105.506092754597,35.37372771481865 L 105.506092754597,35.37372771481865 L 105.506092754597,35.37372771481865 L 105.506092754597,35.37372771481865 L 105.506092754597,35.37372771481865 L 105.506092754597,35.37372771481865M167.05131352811193 160.97621908933888 L 105.506092754597,35.37372771481865 L 101.41582780914966,51.455670849109175 L 101.99818229590672,65.12894069201977 L 106.43648157959346,76.03171936716329 L 113.91405102493528,83.80218899815219 L 123.61421599665748,88.07853170859877 L 134.7203018594854,88.49892962211574 L 146.41563397814446,84.70156486231542 L 157.8835377173599,76.3246195528104 L 168.30733844185713,63.006275817213094 L 168.30733844185713,63.006275817213094 L 171.27769091277167,57.501475269317574 L 173.46238170924488,52.647946898919294 L 174.82006021683225,48.35265182351905 L 175.30937582108965,44.522551160616956 L 174.88897790757275,41.06460602771353 L 173.5175158618372,37.88577754230905 L 171.15363906943884,34.89302682190386 L 167.7559969159333,31.993314983998246 L 163.28323878687632,29.093603146092633 L 163.28323878687632,29.093603146092633 L 154.27225072255888,23.97474166634379 L 145.7161194171286,20.33416465297791 L 137.69754609947407,18.161534452384327 L 130.29923199848378,17.44651341095193 L 123.6038783430464,18.178763875069404 L 117.69418636205043,20.347948191126072 L 112.65285728438451,23.943728705510477 L 108.56259233893718,28.955767764611725 L 105.506092754597,35.37372771481865 L 105.506092754597,35.37372771481865 L 105.506092754597,35.37372771481865 L 105.506092754597,35.37372771481865 L 105.506092754597,35.37372771481865 L 105.506092754597,35.37372771481865 L 105.506092754597,35.37372771481865 L 105.506092754597,35.37372771481865 L 105.506092754597,35.37372771481865 L 105.506092754597,35.37372771481865 L 105.506092754597,35.37372771481865 L 167.05131352811193,160.97621908933888 L 150.1595875276209,169.34627262976997 L 136.12105392378564,179.09123410047343 L 124.62558310827401,191.02777813672412 L 115.36304547275381,205.97257937379666 L 108.02331140889295,224.7423124469657 L 102.29625130835925,248.15365199150588 L 97.87173556282062,277.0232726426919 L 94.43963456394482,312.16784903579844 L 91.68981870339978,354.40405580610013 L 91.68981870339978,354.40405580610013 L 89.94620112766567,397.5379154982965 L 89.83593282248093,435.2445070446802 L 91.50374093840051,468.14408966191564 L 95.09435262597938,496.8569225666671 L 100.75249503577258,522.0032649755989 L 108.62289531833508,544.203376105375 L 118.85028062422195,564.0775151726604 L 131.57937810398815,582.2459413941187 L 146.9549149081887,599.3289139864146 L 146.9549149081887,599.3289139864146 L 155.14578245269442,607.3957296875875 L 163.17124753942304,614.0876374584878 L 171.3311021230956,619.5183514888375 L 179.9251381584331,623.8015859683582 L 189.25314760015675,627.0510550867716 L 199.61492240298756,629.3804730337998 L 211.31025452164656,630.9035539991644 L 224.6389359108549,631.7340121725871 L 239.90075852533369,631.9855617437898 L 239.90075852533369,631.9855617437898 L 255.41757659555216,631.7253974612445 L 268.7634874074456,630.8346363084238 L 280.37267241267915,629.1478758275507 L 290.67931306291746,626.4997135608479 L 300.1175908098259,622.7247470505382 L 309.12168710506927,617.6575738388447 L 318.1257834003127,611.1327914679899 L 327.564061147221,602.9849974801969 L 337.87070179745945,593.0487894176886 L 337.87070179745945,593.0487894176886 L 368.2272216263712,552.1375252518726 L 388.41149030198864,501.891359875259 L 398.85768927597655,445.535641214502 L 400.0,386.2957171962561 L 392.2726039257239,327.39693574717546 L 376.1096825048134,272.0646447939147 L 351.9454171889335,223.52419226312782 L 320.2139894297491,185.0009260814694 L 281.34958067892535,159.7201941755937 L 281.34958067892535,159.7201941755937 L 265.5622606725504,153.3952731078865 L 252.09057507505568,148.66235069628405 L 240.27291405533234,145.53176459439788 L 229.44766778227176,144.01385245583882 L 218.95322642476557,144.11895193421816 L 208.127980151705,145.85740068314666 L 196.31031913198166,149.23953635623553 L 182.83863353448683,154.275696607096 L 167.05131352811193,160.97621908933888 L 167.05131352811193,160.97621908933888 L 167.05131352811193,160.97621908933888 L 167.05131352811193,160.97621908933888 L 167.05131352811193,160.97621908933888 L 167.05131352811193,160.97621908933888 L 167.05131352811193,160.97621908933888 L 167.05131352811193,160.97621908933888 L 167.05131352811193,160.97621908933888 L 167.05131352811193,160.97621908933888 L 167.05131352811193,160.97621908933888 L 314.0062284363006,294.11485994633034 L 314.0062284363006,294.11485994633034 L 314.0062284363006,294.11485994633034 L 314.0062284363006,294.11485994633034 L 314.0062284363006,294.11485994633034 L 314.0062284363006,294.11485994633034 L 314.0062284363006,294.11485994633034 L 314.0062284363006,294.11485994633034 L 314.0062284363006,294.11485994633034 L 314.0062284363006,294.11485994633034 L 314.0062284363006,294.11485994633034 L 330.5981624820705,345.95819280585465 L 337.5140527478775,397.7394997437124 L 335.7773269412175,447.070782775746 L 326.4114127695866,491.56404391779836 L 310.4397379404809,528.8312851857116 L 288.88573016139657,556.4845085953282 L 262.77281713982967,572.1357161624907 L 233.12442658327623,573.3969099030414 L 200.9639861992324,557.8800918328229 L 200.9639861992324,557.8800918328229 L 186.0122931930858,544.0448654166721 L 173.08678029470926,525.6300584508164 L 162.35284996187988,503.35930668803115 L 153.97590465237488,477.95624588109115 L 148.12134682397127,450.1445117827714 L 144.95457893444635,420.6477401458471 L 144.64100344157714,390.1895667230931 L 147.3460228031409,359.49362726728447 L 153.2350394769147,329.28355753119604 L 153.2350394769147,329.28355753119604 L 157.6406028574997,312.3556497430663 L 161.7773872441969,298.249921390759 L 165.84180805561655,286.7182687876086 L 170.03028071036906,277.51258824694935 L 174.53922062706482,270.3847760821154 L 179.5650432243141,265.0867286064413 L 185.30416392072738,261.370342133261 L 191.95299813491494,258.98751297590906 L 199.7079612854872,257.6901374477195 L 199.7079612854872,257.6901374477195 L 205.13178354676273,256.4926925711037 L 210.44189161831656,254.62330020976825 L 215.52457131042684,252.1543239389905 L 220.26610843337164,249.15812733404834 L 224.55278879742937,245.70707397021894 L 228.27089821287805,241.87352742277994 L 231.3067224899961,237.7298512670087 L 233.54654743906164,233.34840907818284 L 234.87665887035286,228.80156443157983 L 234.87665887035286,228.80156443157983 L 239.161616292142,218.3881013606938 L 245.1522865597581,212.94704967673303 L 252.6005659865352,212.24064334664303 L 261.2583508858076,216.03111633736938 L 270.8775375709098,224.08070261585718 L 281.21002235517585,236.15163614905185 L 292.00770155194016,252.00615090389857 L 303.022471474537,271.40648084734306 L 314.0062284363006,294.11485994633034 L 314.0062284363006,294.11485994633034 L 314.0062284363006,294.11485994633034 L 314.0062284363006,294.11485994633034 L 314.0062284363006,294.11485994633034 L 314.0062284363006,294.11485994633034 L 314.0062284363006,294.11485994633034 L 314.0062284363006,294.11485994633034 L 314.0062284363006,294.11485994633034 L 314.0062284363006,294.11485994633034 L 314.0062284363006,294.11485994633034"/></svg>
