<?xml version="1.0" encoding="utf-8"?>
<svg xmlns="http://www.w3.org/2000/svg"  viewBox="0,0,400,390.17950575545365" width="100%">
<path d="M164.30813813088628 118.94067455526044 L 164.30813813088628,118.94067455526044 L 159.25657606411048,122.28810956976463 L 152.9385458871091,126.98071975219204 L 145.56870321178465,132.81815986476698 L 137.36170365003983,139.60008466971362 L 128.53220281377733,147.1261489292561 L 119.2948563148998,155.19600740561864 L 109.8643197653099,163.60931486102547 L 100.45524877691022,172.16572605770068 L 91.28229896160349,180.6648957578685 L 91.28229896160349,180.6648957578685 L 79.63961707823897,192.0261402834051 L 69.55676597470048,202.4572104906968 L 60.919262657973135,212.12267568220236 L 53.612624135042246,221.18710516038058 L 47.52236741289306,229.81506822769003 L 42.534009498510834,238.17113418658943 L 38.53306739888082,246.41987233953753 L 35.40505812098826,254.72585198899299 L 33.03549867181841,263.25364243741456 L 33.03549867181841,263.25364243741456 L 30.13764791113257,283.3716433974022 L 31.167994848265316,299.07489393925846 L 35.93334943250424,310.3276181276665 L 44.240521613136934,317.094040027309 L 55.896321339451035,319.338383702869 L 70.70755856073411,317.0248732190293 L 88.48104322627384,310.11773264047275 L 109.02358528535781,298.5811860318824 L 132.14199468727364,282.379457457941 L 132.14199468727364,282.379457457941 L 136.58536585365857,278.9986315704742 L 141.0287370200435,275.61780568300736 L 145.47210818642844,272.23697979554055 L 149.91547935281338,268.8561539080738 L 154.35885051919828,265.475328020607 L 158.8022216855832,262.0945021331402 L 163.24559285196815,258.7136762456734 L 167.68896401835306,255.33285035820657 L 172.13233518473803,251.9520244707398 L 172.13233518473803,251.9520244707398 L 172.61531031151898,254.75328020606943 L 173.09828543829997,257.5545359413991 L 173.5812605650809,260.3557916767287 L 174.0642356918619,263.1570474120583 L 174.54721081864287,265.958303147388 L 175.03018594542385,268.75955888271756 L 175.51316107220478,271.56081461804723 L 175.9961361989858,274.36207035337685 L 176.47911132576675,277.16332608870647 L 176.47911132576675,277.16332608870647 L 183.20737222773766,296.0112813449367 L 193.85667564046378,309.1350869504295 L 208.0334862754569,316.6062947758191 L 225.34426884422862,318.4964566917397 L 245.39548805829097,314.8771245688255 L 267.79360862915564,305.81985027771077 L 292.14509526833444,291.39618568902966 L 318.0564126873393,271.6776826734164 L 345.1340255976818,246.73589310150533 L 345.1340255976818,246.73589310150533 L 361.1652222132783,230.1656723937977 L 374.47029255771116,215.27692064599418 L 385.02777106979,202.14118972872902 L 392.81619218832464,190.8300315126364 L 397.81409035212477,181.41499786835055 L 400.0,173.96764066650573 L 399.3524555707604,168.55951177773608 L 395.8499915032154,165.26216307267592 L 389.4711422361749,164.14714642195932 L 389.4711422361749,164.14714642195932 L 386.8559213644942,164.86624272183323 L 383.1674224333004,166.9376693766938 L 378.55590437092496,170.23263301939954 L 373.17162610570006,174.6223402828088 L 367.1648465659575,179.97799779978 L 360.685824680029,186.17081220317155 L 353.88481937624664,193.07199012584186 L 346.9120895829421,200.55273820064934 L 339.9178942284473,208.4842630604524 L 339.9178942284473,208.4842630604524 L 313.00723568291784,237.157482685938 L 287.2986485640435,259.36241320609025 L 263.60782419705396,275.00603718908485 L 242.75045390717943,283.99533720309705 L 225.54222901964997,286.23729581630255 L 212.79884085969576,281.6388955968768 L 205.33598075254685,270.1071191129954 L 203.96934002343323,251.54894893283372 L 209.51460999758515,225.87136762456737 L 209.51460999758515,225.87136762456737 L 211.34156776111212,220.09236153967709 L 213.31162926590767,214.41352807367463 L 215.37470820252764,208.935039845448 L 217.4807182615281,203.7570694738851 L 219.57957313346515,198.9797895778738 L 221.62118650889482,194.70337277630207 L 223.5554720783732,191.0279916880577 L 225.3323435324563,188.05381893202875 L 226.90171456170012,185.881027127103 L 226.90171456170012,185.881027127103 L 228.3148640067259,183.872804624636 L 229.6421512069907,180.82707999797273 L 230.8621106013041,176.8654914271915 L 231.95327662847592,172.1096770923705 L 232.8941837273159,166.68127517358784 L 233.66336633663371,160.70192385092173 L 234.23935889523912,154.29326130445025 L 234.60069584194193,147.5769257142517 L 234.72591161555184,140.6745552604041 L 234.72591161555184,140.6745552604041 L 234.63647177725903,130.23394480369456 L 234.26797964349285,121.93273527894792 L 233.47017628592135,115.5276503260082 L 232.09280277621264,110.77541358471893 L 229.98560018603493,107.43274869492373 L 226.9983095870563,105.25637929646629 L 222.980672050945,104.0030290291902 L 217.78242864936902,103.42942153293923 L 211.25332045399665,103.29228044755698 L 211.25332045399665,103.29228044755698 L 206.38063806380637,103.54271199477682 L 201.1215755721914,104.26538588818235 L 195.60492634629324,105.4173710053932 L 189.95948375325344,106.95573622402893 L 184.31404116021363,108.8375504217089 L 178.7973919343154,111.01988247605253 L 173.5383294427004,113.45980126467936 L 168.66564705251014,116.11437566520881 L 164.30813813088628,118.94067455526044 L 164.30813813088628,118.94067455526044 L 164.30813813088628,118.94067455526044 L 164.30813813088628,118.94067455526044 L 164.30813813088628,118.94067455526044 L 164.30813813088628,118.94067455526044 L 164.30813813088628,118.94067455526044 L 164.30813813088628,118.94067455526044 L 164.30813813088628,118.94067455526044 L 164.30813813088628,118.94067455526044 L 164.30813813088628,118.94067455526044 L 197.3436368027047,161.53908073734206 L 197.3436368027047,161.53908073734206 L 197.3436368027047,161.53908073734206 L 197.3436368027047,161.53908073734206 L 197.3436368027047,161.53908073734206 L 197.3436368027047,161.53908073734206 L 197.3436368027047,161.53908073734206 L 197.3436368027047,161.53908073734206 L 197.3436368027047,161.53908073734206 L 197.3436368027047,161.53908073734206 L 197.3436368027047,161.53908073734206 L 188.0860172738141,175.24961168203552 L 173.576490440372,192.72377102208867 L 155.45359413990187,212.38026241648555 L 135.35586620992726,232.6377895242099 L 114.92184448797185,251.91505600424543 L 95.79006681155921,268.63076551557594 L 79.59907101821295,281.20362171718534 L 67.98739494545661,288.0523282680572 L 62.593576430813826,287.59558882717545 L 62.593576430813826,287.59558882717545 L 62.9286776916174,278.011215755722 L 68.10784059435754,264.8850250878746 L 77.43701199388232,249.054173710054 L 90.22213874503981,231.35581850868022 L 105.76916770267816,212.62711637017364 L 123.38404572164536,193.70522418095473 L 142.37271965678954,175.4272988274438 L 162.0411363629588,158.63049719606113 L 181.69524269500124,144.1519761732271 L 181.69524269500124,144.1519761732271 L 190.0739667462681,138.90960911809339 L 196.6925147799333,135.37733177111755 L 201.59381791837725,133.5909200676165 L 204.82080728398049,133.5861499429076 L 206.41641399912353,135.3987973323078 L 206.4235691861869,139.06463817113422 L 204.88520396755126,144.619448394704 L 201.84424946559702,152.0990039383343 L 197.3436368027047,161.53908073734206 L 197.3436368027047,161.53908073734206 L 197.3436368027047,161.53908073734206 L 197.3436368027047,161.53908073734206 L 197.3436368027047,161.53908073734206 L 197.3436368027047,161.53908073734206 L 197.3436368027047,161.53908073734206 L 197.3436368027047,161.53908073734206 L 197.3436368027047,161.53908073734206 L 197.3436368027047,161.53908073734206 L 197.3436368027047,161.53908073734206"/></svg>
