<?xml version="1.0" encoding="utf-8"?>
<svg xmlns="http://www.w3.org/2000/svg"  viewBox="0,0,400,681.4814814814815" width="100%">
<path d="M96.29629629629629 14.814814814814817 L 96.29629629629629,14.814814814814817 L 93.5406188081085,22.699791698420107 L 93.89422344154853,31.255398059238953 L 96.95473251028807,40.05486968449928 L 102.31976832799879,48.671442361428575 L 109.5869532083524,56.67835187725452 L 118.35390946502058,63.648834019204436 L 128.21825941167504,69.1561245745059 L 138.77762536198748,72.77345933038659 L 149.62962962962962,74.07407407407408 L 149.62962962962962,74.07407407407408 L 159.87806736777927,72.27759995935584 L 167.85855814662403,67.38403698623179 L 173.49794238683128,60.137174211248315 L 176.72306050906874,51.28080069095151 L 177.46075293400395,41.55870548188794 L 175.6378600823045,31.714677640603625 L 171.18122237463803,22.49250622364478 L 164.01768023167202,14.635980287557857 L 154.07407407407408,8.88888888888889 L 154.07407407407408,8.88888888888889 L 143.85002286236852,5.043946552862979 L 134.83310470964793,2.381750749377548 L 126.9135802469136,0.8779149519888826 L 119.9817101051669,0.5080526342528544 L 113.92775491540924,1.2477772697251637 L 108.64197530864197,3.0727023319615943 L 104.01463191586649,5.958441294518101 L 99.93598536808413,9.880607630950552 L 96.29629629629629,14.814814814814817 L 96.29629629629629,14.814814814814817 L 96.29629629629629,14.814814814814817 L 96.29629629629629,14.814814814814817 L 96.29629629629629,14.814814814814817 L 96.29629629629629,14.814814814814817 L 96.29629629629629,14.814814814814817 L 96.29629629629629,14.814814814814817 L 96.29629629629629,14.814814814814817 L 96.29629629629629,14.814814814814817 L 96.29629629629629,14.814814814814817"/></svg>
