<?xml version="1.0" encoding="utf-8"?>
<svg xmlns="http://www.w3.org/2000/svg"  viewBox="0,0,400,681.4814814814815" width="100%">
<path d="M96.29629629629629 14.814814814814817 L 96.29629629629629,14.814814814814817 L 93.5406188081085,22.699791698420107 L 93.89422344154853,31.255398059238953 L 96.95473251028807,40.05486968449928 L 102.31976832799879,48.671442361428575 L 109.5869532083524,56.67835187725452 L 118.35390946502058,63.648834019204436 L 128.21825941167504,69.1561245745059 L 138.77762536198748,72.77345933038659 L 149.62962962962962,74.07407407407408 L 149.62962962962962,74.07407407407408 L 159.87806736777927,72.27759995935584 L 167.85855814662403,67.38403698623179 L 173.49794238683128,60.137174211248315 L 176.72306050906874,51.28080069095151 L 177.46075293400395,41.55870548188794 L 175.6378600823045,31.714677640603625 L 171.18122237463803,22.49250622364478 L 164.01768023167202,14.635980287557857 L 154.07407407407408,8.88888888888889 L 154.07407407407408,8.88888888888889 L 143.85002286236852,5.043946552862979 L 134.83310470964793,2.381750749377548 L 126.9135802469136,0.8779149519888826 L 119.9817101051669,0.5080526342528544 L 113.92775491540924,1.2477772697251637 L 108.64197530864197,3.0727023319615943 L 104.01463191586649,5.958441294518101 L 99.93598536808413,9.880607630950552 L 96.29629629629629,14.814814814814817 L 96.29629629629629,14.814814814814817 L 96.29629629629629,14.814814814814817 L 96.29629629629629,14.814814814814817 L 96.29629629629629,14.814814814814817 L 96.29629629629629,14.814814814814817 L 96.29629629629629,14.814814814814817 L 96.29629629629629,14.814814814814817 L 96.29629629629629,14.814814814814817 L 96.29629629629629,14.814814814814817 L 96.29629629629629,14.814814814814817M160.0 202.96296296296296 L 96.29629629629629,14.814814814814817 L 93.5406188081085,22.699791698420107 L 93.89422344154853,31.255398059238953 L 96.95473251028807,40.05486968449928 L 102.31976832799879,48.671442361428575 L 109.5869532083524,56.67835187725452 L 118.35390946502058,63.648834019204436 L 128.21825941167504,69.1561245745059 L 138.77762536198748,72.77345933038659 L 149.62962962962962,74.07407407407408 L 149.62962962962962,74.07407407407408 L 159.87806736777927,72.27759995935584 L 167.85855814662403,67.38403698623179 L 173.49794238683128,60.137174211248315 L 176.72306050906874,51.28080069095151 L 177.46075293400395,41.55870548188794 L 175.6378600823045,31.714677640603625 L 171.18122237463803,22.49250622364478 L 164.01768023167202,14.635980287557857 L 154.07407407407408,8.88888888888889 L 154.07407407407408,8.88888888888889 L 143.85002286236852,5.043946552862979 L 134.83310470964793,2.381750749377548 L 126.9135802469136,0.8779149519888826 L 119.9817101051669,0.5080526342528544 L 113.92775491540924,1.2477772697251637 L 108.64197530864197,3.0727023319615943 L 104.01463191586649,5.958441294518101 L 99.93598536808413,9.880607630950552 L 96.29629629629629,14.814814814814817 L 96.29629629629629,14.814814814814817 L 96.29629629629629,14.814814814814817 L 96.29629629629629,14.814814814814817 L 96.29629629629629,14.814814814814817 L 96.29629629629629,14.814814814814817 L 96.29629629629629,14.814814814814817 L 96.29629629629629,14.814814814814817 L 96.29629629629629,14.814814814814817 L 96.29629629629629,14.814814814814817 L 96.29629629629629,14.814814814814817 L 160.0,202.96296296296296 L 138.33460346491893,213.18701417466858 L 121.7659909566631,223.74028349336993 L 110.3429355281207,234.07407407407402 L 104.11421023218006,243.6396890717878 L 103.12858812172942,251.8884316415181 L 107.43484224965704,258.2716049382717 L 117.08174566885128,262.24051211705535 L 132.11807143220034,263.24645633287605 L 152.59259259259258,260.74074074074076 L 152.59259259259258,260.74074074074076 L 200.49382716049382,251.3031550068587 L 238.4087791495199,245.15775034293554 L 267.65432098765433,242.9629629629629 L 289.5473251028807,245.37722908093278 L 305.40466392318245,253.05898491083673 L 316.5432098765432,266.6666666666667 L 324.27983539094646,286.8587105624143 L 329.93141289437585,314.29355281207137 L 334.81481481481484,349.6296296296296 L 334.81481481481484,349.6296296296296 L 337.8610984097952,370.813392267439 L 339.9806939998984,387.1930091957527 L 341.0150891632373,399.122085048011 L 340.80577147792513,406.9542244576538 L 339.19422852207487,411.04303205812124 L 336.02194787379966,411.74211248285326 L 331.13041711121275,409.40507036528993 L 324.361123812427,404.3855103388712 L 315.55555555555554,397.03703703703707 L 315.55555555555554,397.03703703703707 L 299.5376721028298,384.10201696895814 L 282.3370421175634,373.0081796474115 L 264.30727023319616,363.840877914952 L 245.8019610831682,356.6854646141341 L 227.17471930091958,351.62729258751204 L 208.77914951989027,348.7517146776406 L 190.9688563735203,348.14408372707413 L 174.09744449524973,349.8897525783671 L 158.5185185185185,354.0740740740741 L 158.5185185185185,354.0740740740741 L 135.7536960829142,366.811969720063 L 116.09815576893767,385.4148249758675 L 99.91769547325104,408.61454046639227 L 87.57811309251639,435.14301681654223 L 79.44520652339583,463.7321546512219 L 75.88477366255144,493.11385459533614 L 77.26261240664532,522.0200172737897 L 83.94452065233956,549.182543311487 L 96.29629629629629,573.3333333333334 L 96.29629629629629,573.3333333333334 L 109.49956815526085,587.918508357466 L 127.62891835594168,601.7842808514963 L 149.57475994513032,614.5404663923183 L 174.22750596961845,625.7968805568257 L 200.47756947619774,635.1633389219124 L 227.21536351165977,642.2496570644719 L 253.3313011227963,646.6656505613981 L 277.71579535639887,648.0211349895849 L 299.25925925925924,645.925925925926 L 299.25925925925924,645.925925925926 L 324.17416044302183,639.9044861047605 L 344.8336127622822,632.32230859117 L 361.5912208504801,622.6063100137175 L 374.8005893410557,610.1834070009653 L 384.8153228674491,594.4805161814764 L 391.9890260631002,574.9245541838135 L 396.6753035614489,550.9424376365391 L 399.2277599959356,521.9610831682163 L 400.0,487.40740740740745 L 400.0,487.40740740740745 L 399.20134125895436,449.6733221561754 L 396.9029111415943,412.03678301071994 L 393.2510288065845,375.2537722908093 L 388.39201341258956,340.0802723162119 L 382.47218411827464,307.27226540669614 L 375.63786008230454,277.5857338820303 L 368.03536046334403,251.77666006198254 L 359.8110044200579,230.60102626632124 L 351.1111111111111,214.8148148148148 L 351.1111111111111,214.8148148148148 L 340.1188843164151,204.50744297109196 L 324.51760402377687,196.33389219123106 L 305.1851851851852,190.3429355281207 L 282.9995427526292,186.58334603464922 L 258.8385916780978,185.10389676370468 L 233.58024691358023,185.9533607681756 L 208.1024234110654,189.18051110095013 L 183.28303612254228,194.83412081491647 L 160.0,202.96296296296296 L 160.0,202.96296296296296 L 160.0,202.96296296296296 L 160.0,202.96296296296296 L 160.0,202.96296296296296 L 160.0,202.96296296296296 L 160.0,202.96296296296296 L 160.0,202.96296296296296 L 160.0,202.96296296296296 L 160.0,202.96296296296296 L 160.0,202.96296296296296 L 272.5925925925926,437.03703703703707 L 272.5925925925926,437.03703703703707 L 272.5925925925926,437.03703703703707 L 272.5925925925926,437.03703703703707 L 272.5925925925926,437.03703703703707 L 272.5925925925926,437.03703703703707 L 272.5925925925926,437.03703703703707 L 272.5925925925926,437.03703703703707 L 272.5925925925926,437.03703703703707 L 272.5925925925926,437.03703703703707 L 272.5925925925926,437.03703703703707 L 286.43194634964175,451.2218665853783 L 299.1373266270386,466.78453487781337 L 310.4526748971194,483.2373113854595 L 320.1219326322207,500.0924655794341 L 327.8890413046792,516.862266930854 L 333.49794238683126,533.0589849108368 L 336.6925773510136,548.1948889904994 L 337.21688766956254,561.7822486409592 L 334.81481481481484,573.3333333333334 L 334.81481481481484,573.3333333333334 L 327.9642330945485,581.5190773764164 L 316.00467408423515,587.3515216176397 L 299.97256515775047,590.8916323731138 L 280.9043336889702,592.2003759589493 L 259.83640705177055,591.3387186912564 L 237.80521262002748,588.3676268861454 L 215.8471777676167,583.3480668597266 L 194.99872986841436,576.3410049281106 L 176.2962962962963,567.4074074074074 L 176.2962962962963,567.4074074074074 L 161.05471726870903,556.2404105065285 L 148.9590001524158,542.8176599095667 L 140.082304526749,527.6268861454047 L 134.49778997104102,511.1558197429254 L 132.27861606462432,493.8921912310116 L 133.49794238683126,476.323731138546 L 138.22892851699436,458.93816999441145 L 146.54473403444595,442.2232383274908 L 158.5185185185185,426.6666666666667 L 158.5185185185185,426.6666666666667 L 169.45384341817808,415.8045013463397 L 180.5964537926129,407.91749225219735 L 192.0438957475995,403.01783264746234 L 203.8937153889143,401.1177157953564 L 216.243458822334,402.2293349591019 L 229.1906721536351,406.36488340192045 L 242.83290148859416,413.5365543870345 L 257.2676929329878,423.75654117766607 L 272.5925925925926,437.03703703703707 L 272.5925925925926,437.03703703703707 L 272.5925925925926,437.03703703703707 L 272.5925925925926,437.03703703703707 L 272.5925925925926,437.03703703703707 L 272.5925925925926,437.03703703703707 L 272.5925925925926,437.03703703703707 L 272.5925925925926,437.03703703703707 L 272.5925925925926,437.03703703703707 L 272.5925925925926,437.03703703703707 L 272.5925925925926,437.03703703703707M291.85185185185185 20.74074074074074 L 96.29629629629629,14.814814814814817 L 93.5406188081085,22.699791698420107 L 93.89422344154853,31.255398059238953 L 96.95473251028807,40.05486968449928 L 102.31976832799879,48.671442361428575 L 109.5869532083524,56.67835187725452 L 118.35390946502058,63.648834019204436 L 128.21825941167504,69.1561245745059 L 138.77762536198748,72.77345933038659 L 149.62962962962962,74.07407407407408 L 149.62962962962962,74.07407407407408 L 159.87806736777927,72.27759995935584 L 167.85855814662403,67.38403698623179 L 173.49794238683128,60.137174211248315 L 176.72306050906874,51.28080069095151 L 177.46075293400395,41.55870548188794 L 175.6378600823045,31.714677640603625 L 171.18122237463803,22.49250622364478 L 164.01768023167202,14.635980287557857 L 154.07407407407408,8.88888888888889 L 154.07407407407408,8.88888888888889 L 143.85002286236852,5.043946552862979 L 134.83310470964793,2.381750749377548 L 126.9135802469136,0.8779149519888826 L 119.9817101051669,0.5080526342528544 L 113.92775491540924,1.2477772697251637 L 108.64197530864197,3.0727023319615943 L 104.01463191586649,5.958441294518101 L 99.93598536808413,9.880607630950552 L 96.29629629629629,14.814814814814817 L 96.29629629629629,14.814814814814817 L 96.29629629629629,14.814814814814817 L 96.29629629629629,14.814814814814817 L 96.29629629629629,14.814814814814817 L 96.29629629629629,14.814814814814817 L 96.29629629629629,14.814814814814817 L 96.29629629629629,14.814814814814817 L 96.29629629629629,14.814814814814817 L 96.29629629629629,14.814814814814817 L 96.29629629629629,14.814814814814817 L 160.0,202.96296296296296 L 138.33460346491893,213.18701417466858 L 121.7659909566631,223.74028349336993 L 110.3429355281207,234.07407407407402 L 104.11421023218006,243.6396890717878 L 103.12858812172942,251.8884316415181 L 107.43484224965704,258.2716049382717 L 117.08174566885128,262.24051211705535 L 132.11807143220034,263.24645633287605 L 152.59259259259258,260.74074074074076 L 152.59259259259258,260.74074074074076 L 200.49382716049382,251.3031550068587 L 238.4087791495199,245.15775034293554 L 267.65432098765433,242.9629629629629 L 289.5473251028807,245.37722908093278 L 305.40466392318245,253.05898491083673 L 316.5432098765432,266.6666666666667 L 324.27983539094646,286.8587105624143 L 329.93141289437585,314.29355281207137 L 334.81481481481484,349.6296296296296 L 334.81481481481484,349.6296296296296 L 337.8610984097952,370.813392267439 L 339.9806939998984,387.1930091957527 L 341.0150891632373,399.122085048011 L 340.80577147792513,406.9542244576538 L 339.19422852207487,411.04303205812124 L 336.02194787379966,411.74211248285326 L 331.13041711121275,409.40507036528993 L 324.361123812427,404.3855103388712 L 315.55555555555554,397.03703703703707 L 315.55555555555554,397.03703703703707 L 299.5376721028298,384.10201696895814 L 282.3370421175634,373.0081796474115 L 264.30727023319616,363.840877914952 L 245.8019610831682,356.6854646141341 L 227.17471930091958,351.62729258751204 L 208.77914951989027,348.7517146776406 L 190.9688563735203,348.14408372707413 L 174.09744449524973,349.8897525783671 L 158.5185185185185,354.0740740740741 L 158.5185185185185,354.0740740740741 L 135.7536960829142,366.811969720063 L 116.09815576893767,385.4148249758675 L 99.91769547325104,408.61454046639227 L 87.57811309251639,435.14301681654223 L 79.44520652339583,463.7321546512219 L 75.88477366255144,493.11385459533614 L 77.26261240664532,522.0200172737897 L 83.94452065233956,549.182543311487 L 96.29629629629629,573.3333333333334 L 96.29629629629629,573.3333333333334 L 109.49956815526085,587.918508357466 L 127.62891835594168,601.7842808514963 L 149.57475994513032,614.5404663923183 L 174.22750596961845,625.7968805568257 L 200.47756947619774,635.1633389219124 L 227.21536351165977,642.2496570644719 L 253.3313011227963,646.6656505613981 L 277.71579535639887,648.0211349895849 L 299.25925925925924,645.925925925926 L 299.25925925925924,645.925925925926 L 324.17416044302183,639.9044861047605 L 344.8336127622822,632.32230859117 L 361.5912208504801,622.6063100137175 L 374.8005893410557,610.1834070009653 L 384.8153228674491,594.4805161814764 L 391.9890260631002,574.9245541838135 L 396.6753035614489,550.9424376365391 L 399.2277599959356,521.9610831682163 L 400.0,487.40740740740745 L 400.0,487.40740740740745 L 399.20134125895436,449.6733221561754 L 396.9029111415943,412.03678301071994 L 393.2510288065845,375.2537722908093 L 388.39201341258956,340.0802723162119 L 382.47218411827464,307.27226540669614 L 375.63786008230454,277.5857338820303 L 368.03536046334403,251.77666006198254 L 359.8110044200579,230.60102626632124 L 351.1111111111111,214.8148148148148 L 351.1111111111111,214.8148148148148 L 340.1188843164151,204.50744297109196 L 324.51760402377687,196.33389219123106 L 305.1851851851852,190.3429355281207 L 282.9995427526292,186.58334603464922 L 258.8385916780978,185.10389676370468 L 233.58024691358023,185.9533607681756 L 208.1024234110654,189.18051110095013 L 183.28303612254228,194.83412081491647 L 160.0,202.96296296296296 L 160.0,202.96296296296296 L 160.0,202.96296296296296 L 160.0,202.96296296296296 L 160.0,202.96296296296296 L 160.0,202.96296296296296 L 160.0,202.96296296296296 L 160.0,202.96296296296296 L 160.0,202.96296296296296 L 160.0,202.96296296296296 L 160.0,202.96296296296296 L 272.5925925925926,437.03703703703707 L 272.5925925925926,437.03703703703707 L 272.5925925925926,437.03703703703707 L 272.5925925925926,437.03703703703707 L 272.5925925925926,437.03703703703707 L 272.5925925925926,437.03703703703707 L 272.5925925925926,437.03703703703707 L 272.5925925925926,437.03703703703707 L 272.5925925925926,437.03703703703707 L 272.5925925925926,437.03703703703707 L 272.5925925925926,437.03703703703707 L 286.43194634964175,451.2218665853783 L 299.1373266270386,466.78453487781337 L 310.4526748971194,483.2373113854595 L 320.1219326322207,500.0924655794341 L 327.8890413046792,516.862266930854 L 333.49794238683126,533.0589849108368 L 336.6925773510136,548.1948889904994 L 337.21688766956254,561.7822486409592 L 334.81481481481484,573.3333333333334 L 334.81481481481484,573.3333333333334 L 327.9642330945485,581.5190773764164 L 316.00467408423515,587.3515216176397 L 299.97256515775047,590.8916323731138 L 280.9043336889702,592.2003759589493 L 259.83640705177055,591.3387186912564 L 237.80521262002748,588.3676268861454 L 215.8471777676167,583.3480668597266 L 194.99872986841436,576.3410049281106 L 176.2962962962963,567.4074074074074 L 176.2962962962963,567.4074074074074 L 161.05471726870903,556.2404105065285 L 148.9590001524158,542.8176599095667 L 140.082304526749,527.6268861454047 L 134.49778997104102,511.1558197429254 L 132.27861606462432,493.8921912310116 L 133.49794238683126,476.323731138546 L 138.22892851699436,458.93816999441145 L 146.54473403444595,442.2232383274908 L 158.5185185185185,426.6666666666667 L 158.5185185185185,426.6666666666667 L 169.45384341817808,415.8045013463397 L 180.5964537926129,407.91749225219735 L 192.0438957475995,403.01783264746234 L 203.8937153889143,401.1177157953564 L 216.243458822334,402.2293349591019 L 229.1906721536351,406.36488340192045 L 242.83290148859416,413.5365543870345 L 257.2676929329878,423.75654117766607 L 272.5925925925926,437.03703703703707 L 272.5925925925926,437.03703703703707 L 272.5925925925926,437.03703703703707 L 272.5925925925926,437.03703703703707 L 272.5925925925926,437.03703703703707 L 272.5925925925926,437.03703703703707 L 272.5925925925926,437.03703703703707 L 272.5925925925926,437.03703703703707 L 272.5925925925926,437.03703703703707 L 272.5925925925926,437.03703703703707 L 272.5925925925926,437.03703703703707 L 291.85185185185185,20.74074074074074 L 290.1082152110958,28.81268099375112 L 290.6325255296449,37.03094040542602 L 293.16872427983543,45.10288065843624 L 297.46075293400395,52.73586343545191 L 303.2525529644871,59.63725041914342 L 310.2880658436214,65.51440329218109 L 318.3112330437433,70.07468373723516 L 327.06599603718945,73.02545343697602 L 336.2962962962963,74.07407407407408 L 336.2962962962963,74.07407407407408 L 339.6880556825687,73.48676522887774 L 342.9091093837322,71.78986943047298 L 345.8984910836763,69.08093278463647 L 348.59523446629066,65.45750139714478 L 350.9383732154651,61.017121373774316 L 352.8669410150891,55.857338820301855 L 354.3199715490525,50.07569984250377 L 355.23649850124474,43.76975054615666 L 355.55555555555554,37.03703703703704 L 355.55555555555554,37.03703703703704 L 355.2730782909109,28.74358583549262 L 354.39313112838494,21.608494640044636 L 352.8669410150892,15.582990397805151 L 350.6457348981354,10.618300055885744 L 347.68073972463554,6.6656505613981505 L 343.92318244170093,3.6762688614541092 L 339.3242899964436,1.6013819031651886 L 333.8352893359752,0.39221663364329556 L 327.4074074074074,0.0 L 327.4074074074074,0.0 L 322.4325560128029,0.321089264848019 L 317.4577046181985,1.251841690799059 L 312.5925925925927,2.743484224965616 L 307.946959304984,4.747243814459176 L 303.6305441243713,7.214347406391224 L 299.75308641975306,10.09602194787375 L 296.42432556012807,13.34349438601841 L 293.7540009144947,16.907991667936855 L 291.85185185185185,20.74074074074074 L 291.85185185185185,20.74074074074074 L 291.85185185185185,20.74074074074074 L 291.85185185185185,20.74074074074074 L 291.85185185185185,20.74074074074074 L 291.85185185185185,20.74074074074074 L 291.85185185185185,20.74074074074074 L 291.85185185185185,20.74074074074074 L 291.85185185185185,20.74074074074074 L 291.85185185185185,20.74074074074074 L 291.85185185185185,20.74074074074074"/></svg>
