<?xml version="1.0" encoding="utf-8"?>
<svg xmlns="http://www.w3.org/2000/svg"  viewBox="0,0,400,650.4252400548696" width="100%">
<path d="M145.1851851851852 14.869684499314086 L 145.1851851851852,14.869684499314086 L 134.26205354874762,23.32977696489361 L 126.16775897983031,34.26510186455322 L 120.87791495198906,46.748971193415535 L 118.36813493877965,59.854696946603646 L 118.61403241375808,72.65559111923999 L 121.5912208504801,84.22496570644718 L 127.27531372250162,93.63613270334798 L 135.64192450337853,99.96240410506533 L 146.66666666666666,102.2770919067215 L 146.66666666666666,102.2770919067215 L 157.86617893613774,101.01305695270034 L 168.55357415028197,97.43230198648571 L 178.43621399176956,91.85185185185178 L 187.22146014327086,84.58873139257229 L 194.61667428745616,75.95996545242079 L 200.32921810699585,66.28257887517141 L 204.0664532845603,55.873596504597856 L 205.53574150281966,45.05004318447391 L 204.44444444444446,34.12894375857335 L 204.44444444444446,34.12894375857335 L 201.92450337854999,24.25036833815991 L 198.33155514911343,16.334908296499567 L 193.68998628257887,10.370370370370285 L 188.02418330539044,6.3445612965502995 L 181.35853274399227,4.245287811817248 L 173.71742112482855,4.060356652949192 L 165.12523497434336,5.777574556724025 L 155.60636081898085,9.38474825991972 L 145.1851851851852,14.869684499314086 L 145.1851851851852,14.869684499314086 L 145.1851851851852,14.869684499314086 L 145.1851851851852,14.869684499314086 L 145.1851851851852,14.869684499314086 L 145.1851851851852,14.869684499314086 L 145.1851851851852,14.869684499314086 L 145.1851851851852,14.869684499314086 L 145.1851851851852,14.869684499314086 L 145.1851851851852,14.869684499314086 L 145.1851851851852,14.869684499314086"/></svg>
