<?xml version="1.0" encoding="utf-8"?>
<svg xmlns="http://www.w3.org/2000/svg"  viewBox="0,0,400,650.4252400548696" width="100%">
<path d="M145.1851851851852 14.869684499314086 L 145.1851851851852,14.869684499314086 L 134.26205354874762,23.32977696489361 L 126.16775897983031,34.26510186455322 L 120.87791495198906,46.748971193415535 L 118.36813493877965,59.854696946603646 L 118.61403241375808,72.65559111923999 L 121.5912208504801,84.22496570644718 L 127.27531372250162,93.63613270334798 L 135.64192450337853,99.96240410506533 L 146.66666666666666,102.2770919067215 L 146.66666666666666,102.2770919067215 L 157.86617893613774,101.01305695270034 L 168.55357415028197,97.43230198648571 L 178.43621399176956,91.85185185185178 L 187.22146014327086,84.58873139257229 L 194.61667428745616,75.95996545242079 L 200.32921810699585,66.28257887517141 L 204.0664532845603,55.873596504597856 L 205.53574150281966,45.05004318447391 L 204.44444444444446,34.12894375857335 L 204.44444444444446,34.12894375857335 L 201.92450337854999,24.25036833815991 L 198.33155514911343,16.334908296499567 L 193.68998628257887,10.370370370370285 L 188.02418330539044,6.3445612965502995 L 181.35853274399227,4.245287811817248 L 173.71742112482855,4.060356652949192 L 165.12523497434336,5.777574556724025 L 155.60636081898085,9.38474825991972 L 145.1851851851852,14.869684499314086 L 145.1851851851852,14.869684499314086 L 145.1851851851852,14.869684499314086 L 145.1851851851852,14.869684499314086 L 145.1851851851852,14.869684499314086 L 145.1851851851852,14.869684499314086 L 145.1851851851852,14.869684499314086 L 145.1851851851852,14.869684499314086 L 145.1851851851852,14.869684499314086 L 145.1851851851852,14.869684499314086 L 145.1851851851852,14.869684499314086M179.25925925925927 247.46227709190669 L 145.1851851851852,14.869684499314086 L 134.26205354874762,23.32977696489361 L 126.16775897983031,34.26510186455322 L 120.87791495198906,46.748971193415535 L 118.36813493877965,59.854696946603646 L 118.61403241375808,72.65559111923999 L 121.5912208504801,84.22496570644718 L 127.27531372250162,93.63613270334798 L 135.64192450337853,99.96240410506533 L 146.66666666666666,102.2770919067215 L 146.66666666666666,102.2770919067215 L 157.86617893613774,101.01305695270034 L 168.55357415028197,97.43230198648571 L 178.43621399176956,91.85185185185178 L 187.22146014327086,84.58873139257229 L 194.61667428745616,75.95996545242079 L 200.32921810699585,66.28257887517141 L 204.0664532845603,55.873596504597856 L 205.53574150281966,45.05004318447391 L 204.44444444444446,34.12894375857335 L 204.44444444444446,34.12894375857335 L 201.92450337854999,24.25036833815991 L 198.33155514911343,16.334908296499567 L 193.68998628257887,10.370370370370285 L 188.02418330539044,6.3445612965502995 L 181.35853274399227,4.245287811817248 L 173.71742112482855,4.060356652949192 L 165.12523497434336,5.777574556724025 L 155.60636081898085,9.38474825991972 L 145.1851851851852,14.869684499314086 L 145.1851851851852,14.869684499314086 L 145.1851851851852,14.869684499314086 L 145.1851851851852,14.869684499314086 L 145.1851851851852,14.869684499314086 L 145.1851851851852,14.869684499314086 L 145.1851851851852,14.869684499314086 L 145.1851851851852,14.869684499314086 L 145.1851851851852,14.869684499314086 L 145.1851851851852,14.869684499314086 L 145.1851851851852,14.869684499314086 L 179.25925925925927,247.46227709190669 L 155.70390692475738,275.096275974191 L 133.80683838845704,306.6686988772036 L 114.12894375857339,340.74074074074065 L 97.23111314332165,375.8735965045978 L 83.67423665091704,410.62846110857083 L 74.01920438957475,443.5665294924554 L 68.82690646751003,473.2489965960473 L 68.65823299293807,498.23705735914234 L 74.07407407407408,517.0919067215364 L 74.07407407407408,517.0919067215364 L 78.95137936290199,525.5621602398008 L 83.90184423106234,532.2887771173093 L 89.21810699588477,537.3936899862825 L 95.19280597469898,540.9988314789412 L 102.11857948483463,543.2261342275059 L 110.28806584362137,544.1975308641975 L 119.99390336838894,544.0349540212366 L 131.528730376467,542.8603363308438 L 145.1851851851852,540.7956104252399 L 145.1851851851852,540.7956104252399 L 167.73459330386623,536.2495554539449 L 188.95493573134178,529.5574861555657 L 208.83401920438956,520.7681755829904 L 227.35965045978767,509.93039678910736 L 244.51963623431388,497.0929228268048 L 260.3017832647462,482.30452674897117 L 274.69389828786257,465.61398160849467 L 287.68378804044096,447.07006045826347 L 299.25925925925924,426.7215363511659 L 299.25925925925924,426.7215363511659 L 312.33246964385506,396.8602347203169 L 320.99171874206166,366.9257735101356 L 325.32235939643346,337.5034293552811 L 325.4097444495249,309.178478890413 L 321.3392267438907,282.53619875019047 L 313.196159122085,258.161865569273 L 301.06589442666257,236.64075598231975 L 285.0337855001778,218.55814662399018 L 265.18518518518516,204.49931412894372 L 265.18518518518516,204.49931412894372 L 256.775897983031,200.8027231621197 L 249.0494335213128,198.74002946705272 L 241.5912208504801,198.51851851851833 L 233.98668902098262,200.3454757912919 L 225.82126708326982,204.42818676014826 L 216.6803840877915,210.9739368998628 L 206.1494690849972,220.19001168521052 L 193.8139511253366,232.28369659096685 L 179.25925925925927,247.46227709190669 L 179.25925925925927,247.46227709190669 L 179.25925925925927,247.46227709190669 L 179.25925925925927,247.46227709190669 L 179.25925925925927,247.46227709190669 L 179.25925925925927,247.46227709190669 L 179.25925925925927,247.46227709190669 L 179.25925925925927,247.46227709190669 L 179.25925925925927,247.46227709190669 L 179.25925925925927,247.46227709190669 L 179.25925925925927,247.46227709190669 L 266.6666666666667,324.4993141289437 L 266.6666666666667,324.4993141289437 L 266.6666666666667,324.4993141289437 L 266.6666666666667,324.4993141289437 L 266.6666666666667,324.4993141289437 L 266.6666666666667,324.4993141289437 L 266.6666666666667,324.4993141289437 L 266.6666666666667,324.4993141289437 L 266.6666666666667,324.4993141289437 L 266.6666666666667,324.4993141289437 L 266.6666666666667,324.4993141289437 L 266.2622567698013,338.69836915104406 L 264.9677386577249,351.8366102728242 L 262.6611796982167,364.1700960219477 L 259.220647259056,375.9548849260783 L 254.52420870802214,387.44703551287904 L 248.44993141289436,398.9026063100137 L 240.87588274145202,410.5776558451455 L 231.68013006147436,422.7282426459381 L 220.74074074074073,435.6104252400548 L 220.74074074074073,435.6104252400548 L 205.91982929431484,450.829649951735 L 190.5136412132297,463.75654117766595 L 175.14403292181072,474.1838134430726 L 160.43286084438347,481.9041812731798 L 147.00198140527357,486.7103591932123 L 135.47325102880657,488.395061728395 L 126.46852613930801,486.7510034039526 L 120.60966316110348,481.57089874510996 L 118.51851851851852,472.64746227709185 L 118.51851851851852,472.64746227709185 L 119.89635726261238,463.7484123355179 L 123.83478128334097,451.2767362698775 L 130.0411522633745,435.8299039780521 L 138.2228318853833,418.005385357923 L 148.0871818320378,398.40065030737185 L 159.3415637860082,377.61316872427983 L 171.6933394299649,356.24041050652846 L 184.84987044657822,334.87984555199915 L 198.5185185185185,314.1289437585733 L 198.5185185185185,314.1289437585733 L 212.17090890616262,294.53640197124423 L 224.44546054971295,280.186963369405 L 235.28120713305898,271.05624142661173 L 244.61718234009044,267.11984961642014 L 252.39241985469695,268.35340141238623 L 258.5459533607682,274.73251028806584 L 263.01681654219374,286.2327897170146 L 265.7440430828633,302.82985317278866 L 266.6666666666667,324.4993141289437 L 266.6666666666667,324.4993141289437 L 266.6666666666667,324.4993141289437 L 266.6666666666667,324.4993141289437 L 266.6666666666667,324.4993141289437 L 266.6666666666667,324.4993141289437 L 266.6666666666667,324.4993141289437 L 266.6666666666667,324.4993141289437 L 266.6666666666667,324.4993141289437 L 266.6666666666667,324.4993141289437 L 266.6666666666667,324.4993141289437M337.77777777777777 19.314128943758533 L 145.1851851851852,14.869684499314086 L 134.26205354874762,23.32977696489361 L 126.16775897983031,34.26510186455322 L 120.87791495198906,46.748971193415535 L 118.36813493877965,59.854696946603646 L 118.61403241375808,72.65559111923999 L 121.5912208504801,84.22496570644718 L 127.27531372250162,93.63613270334798 L 135.64192450337853,99.96240410506533 L 146.66666666666666,102.2770919067215 L 146.66666666666666,102.2770919067215 L 157.86617893613774,101.01305695270034 L 168.55357415028197,97.43230198648571 L 178.43621399176956,91.85185185185178 L 187.22146014327086,84.58873139257229 L 194.61667428745616,75.95996545242079 L 200.32921810699585,66.28257887517141 L 204.0664532845603,55.873596504597856 L 205.53574150281966,45.05004318447391 L 204.44444444444446,34.12894375857335 L 204.44444444444446,34.12894375857335 L 201.92450337854999,24.25036833815991 L 198.33155514911343,16.334908296499567 L 193.68998628257887,10.370370370370285 L 188.02418330539044,6.3445612965502995 L 181.35853274399227,4.245287811817248 L 173.71742112482855,4.060356652949192 L 165.12523497434336,5.777574556724025 L 155.60636081898085,9.38474825991972 L 145.1851851851852,14.869684499314086 L 145.1851851851852,14.869684499314086 L 145.1851851851852,14.869684499314086 L 145.1851851851852,14.869684499314086 L 145.1851851851852,14.869684499314086 L 145.1851851851852,14.869684499314086 L 145.1851851851852,14.869684499314086 L 145.1851851851852,14.869684499314086 L 145.1851851851852,14.869684499314086 L 145.1851851851852,14.869684499314086 L 145.1851851851852,14.869684499314086 L 179.25925925925927,247.46227709190669 L 155.70390692475738,275.096275974191 L 133.80683838845704,306.6686988772036 L 114.12894375857339,340.74074074074065 L 97.23111314332165,375.8735965045978 L 83.67423665091704,410.62846110857083 L 74.01920438957475,443.5665294924554 L 68.82690646751003,473.2489965960473 L 68.65823299293807,498.23705735914234 L 74.07407407407408,517.0919067215364 L 74.07407407407408,517.0919067215364 L 78.95137936290199,525.5621602398008 L 83.90184423106234,532.2887771173093 L 89.21810699588477,537.3936899862825 L 95.19280597469898,540.9988314789412 L 102.11857948483463,543.2261342275059 L 110.28806584362137,544.1975308641975 L 119.99390336838894,544.0349540212366 L 131.528730376467,542.8603363308438 L 145.1851851851852,540.7956104252399 L 145.1851851851852,540.7956104252399 L 167.73459330386623,536.2495554539449 L 188.95493573134178,529.5574861555657 L 208.83401920438956,520.7681755829904 L 227.35965045978767,509.93039678910736 L 244.51963623431388,497.0929228268048 L 260.3017832647462,482.30452674897117 L 274.69389828786257,465.61398160849467 L 287.68378804044096,447.07006045826347 L 299.25925925925924,426.7215363511659 L 299.25925925925924,426.7215363511659 L 312.33246964385506,396.8602347203169 L 320.99171874206166,366.9257735101356 L 325.32235939643346,337.5034293552811 L 325.4097444495249,309.178478890413 L 321.3392267438907,282.53619875019047 L 313.196159122085,258.161865569273 L 301.06589442666257,236.64075598231975 L 285.0337855001778,218.55814662399018 L 265.18518518518516,204.49931412894372 L 265.18518518518516,204.49931412894372 L 256.775897983031,200.8027231621197 L 249.0494335213128,198.74002946705272 L 241.5912208504801,198.51851851851833 L 233.98668902098262,200.3454757912919 L 225.82126708326982,204.42818676014826 L 216.6803840877915,210.9739368998628 L 206.1494690849972,220.19001168521052 L 193.8139511253366,232.28369659096685 L 179.25925925925927,247.46227709190669 L 179.25925925925927,247.46227709190669 L 179.25925925925927,247.46227709190669 L 179.25925925925927,247.46227709190669 L 179.25925925925927,247.46227709190669 L 179.25925925925927,247.46227709190669 L 179.25925925925927,247.46227709190669 L 179.25925925925927,247.46227709190669 L 179.25925925925927,247.46227709190669 L 179.25925925925927,247.46227709190669 L 179.25925925925927,247.46227709190669 L 266.6666666666667,324.4993141289437 L 266.6666666666667,324.4993141289437 L 266.6666666666667,324.4993141289437 L 266.6666666666667,324.4993141289437 L 266.6666666666667,324.4993141289437 L 266.6666666666667,324.4993141289437 L 266.6666666666667,324.4993141289437 L 266.6666666666667,324.4993141289437 L 266.6666666666667,324.4993141289437 L 266.6666666666667,324.4993141289437 L 266.6666666666667,324.4993141289437 L 266.2622567698013,338.69836915104406 L 264.9677386577249,351.8366102728242 L 262.6611796982167,364.1700960219477 L 259.220647259056,375.9548849260783 L 254.52420870802214,387.44703551287904 L 248.44993141289436,398.9026063100137 L 240.87588274145202,410.5776558451455 L 231.68013006147436,422.7282426459381 L 220.74074074074073,435.6104252400548 L 220.74074074074073,435.6104252400548 L 205.91982929431484,450.829649951735 L 190.5136412132297,463.75654117766595 L 175.14403292181072,474.1838134430726 L 160.43286084438347,481.9041812731798 L 147.00198140527357,486.7103591932123 L 135.47325102880657,488.395061728395 L 126.46852613930801,486.7510034039526 L 120.60966316110348,481.57089874510996 L 118.51851851851852,472.64746227709185 L 118.51851851851852,472.64746227709185 L 119.89635726261238,463.7484123355179 L 123.83478128334097,451.2767362698775 L 130.0411522633745,435.8299039780521 L 138.2228318853833,418.005385357923 L 148.0871818320378,398.40065030737185 L 159.3415637860082,377.61316872427983 L 171.6933394299649,356.24041050652846 L 184.84987044657822,334.87984555199915 L 198.5185185185185,314.1289437585733 L 198.5185185185185,314.1289437585733 L 212.17090890616262,294.53640197124423 L 224.44546054971295,280.186963369405 L 235.28120713305898,271.05624142661173 L 244.61718234009044,267.11984961642014 L 252.39241985469695,268.35340141238623 L 258.5459533607682,274.73251028806584 L 263.01681654219374,286.2327897170146 L 265.7440430828633,302.82985317278866 L 266.6666666666667,324.4993141289437 L 266.6666666666667,324.4993141289437 L 266.6666666666667,324.4993141289437 L 266.6666666666667,324.4993141289437 L 266.6666666666667,324.4993141289437 L 266.6666666666667,324.4993141289437 L 266.6666666666667,324.4993141289437 L 266.6666666666667,324.4993141289437 L 266.6666666666667,324.4993141289437 L 266.6666666666667,324.4993141289437 L 266.6666666666667,324.4993141289437 L 337.77777777777777,19.314128943758533 L 327.2427983539094,29.182543311487144 L 319.3415637860083,40.538535792308075 L 314.0740740740741,52.67489711934146 L 311.440329218107,64.8844180257074 L 311.440329218107,76.45988924452577 L 314.0740740740741,86.69410150891626 L 319.34156378600824,94.87984555199908 L 327.24279835390945,100.30991210689426 L 337.77777777777777,102.2770919067215 L 337.77777777777777,102.2770919067215 L 349.66620941929574,101.25489000660477 L 360.56698673982623,98.26957272773454 L 370.37037037037044,93.44307270233179 L 378.9666209419296,86.89732256261743 L 386.2459990855053,78.75425494081178 L 392.0987654320988,69.13580246913574 L 396.4151806127115,58.16389777980997 L 399.0855052583447,45.960473505055134 L 400.0,32.64746227709186 L 400.0,32.64746227709186 L 399.13427831123295,21.069958847736718 L 396.5858862978205,12.016460905349756 L 392.4279835390948,5.486968449931316 L 386.73372961438804,1.4814814814813972 L 379.57628410303306,0.0 L 371.02880658436214,1.0425240054870402 L 361.1644566377077,4.60905349794235 L 350.05639384240203,10.699588477366264 L 337.77777777777777,19.314128943758533 L 337.77777777777777,19.314128943758533 L 337.77777777777777,19.314128943758533 L 337.77777777777777,19.314128943758533 L 337.77777777777777,19.314128943758533 L 337.77777777777777,19.314128943758533 L 337.77777777777777,19.314128943758533 L 337.77777777777777,19.314128943758533 L 337.77777777777777,19.314128943758533 L 337.77777777777777,19.314128943758533 L 337.77777777777777,19.314128943758533"/></svg>
