<?xml version="1.0" encoding="utf-8"?>
<svg xmlns="http://www.w3.org/2000/svg"  viewBox="0,0,400,333.2098765432099" width="100%">
<path d="M180.83333333333334 5.709876543209827 L 180.83333333333334,5.709876543209827 L 177.79721079103788,9.286694101508935 L 175.86534064929128,13.213305898491022 L 174.96913580246917,17.283950617283878 L 175.04000914494742,21.29286694101505 L 176.00937357110197,25.03429355281199 L 177.80864197530863,28.302469135802447 L 180.3692272519433,30.891632373113826 L 183.6225422953818,32.596021947873766 L 187.5,33.20987654320983 L 187.5,33.20987654320983 L 189.6844993141289,32.94010059442158 L 191.7661179698217,32.162780064014584 L 193.70370370370367,30.925925925925863 L 195.45610425240054,29.27754915409234 L 196.98216735253772,27.26566072245083 L 198.24074074074073,24.938271604938226 L 199.19067215363512,22.34339277549154 L 199.79080932784638,19.529035208047535 L 200.0,16.54320987654316 L 200.0,16.54320987654316 L 199.67192501143114,11.425468678555148 L 198.73342478280753,7.206218564243254 L 197.2530864197531,3.919753086419652 L 195.2994970278921,1.6003657978966148 L 192.94124371284866,0.28235025148598925 L 190.2469135802469,0.0 L 187.28509373571103,0.7876085962505406 L 184.1243712848651,2.6794695930497885 L 180.83333333333334,5.709876543209827 L 180.83333333333334,5.709876543209827 L 180.83333333333334,5.709876543209827 L 180.83333333333334,5.709876543209827 L 180.83333333333334,5.709876543209827 L 180.83333333333334,5.709876543209827 L 180.83333333333334,5.709876543209827 L 180.83333333333334,5.709876543209827 L 180.83333333333334,5.709876543209827 L 180.83333333333334,5.709876543209827 L 180.83333333333334,5.709876543209827"/></svg>
