<?xml version="1.0" encoding="utf-8"?>
<svg xmlns="http://www.w3.org/2000/svg"  viewBox="0,0,400,333.2098765432099" width="100%">
<path d="M180.83333333333334 5.709876543209827 L 180.83333333333334,5.709876543209827 L 177.79721079103788,9.286694101508935 L 175.86534064929128,13.213305898491022 L 174.96913580246917,17.283950617283878 L 175.04000914494742,21.29286694101505 L 176.00937357110197,25.03429355281199 L 177.80864197530863,28.302469135802447 L 180.3692272519433,30.891632373113826 L 183.6225422953818,32.596021947873766 L 187.5,33.20987654320983 L 187.5,33.20987654320983 L 189.6844993141289,32.94010059442158 L 191.7661179698217,32.162780064014584 L 193.70370370370367,30.925925925925863 L 195.45610425240054,29.27754915409234 L 196.98216735253772,27.26566072245083 L 198.24074074074073,24.938271604938226 L 199.19067215363512,22.34339277549154 L 199.79080932784638,19.529035208047535 L 200.0,16.54320987654316 L 200.0,16.54320987654316 L 199.67192501143114,11.425468678555148 L 198.73342478280753,7.206218564243254 L 197.2530864197531,3.919753086419652 L 195.2994970278921,1.6003657978966148 L 192.94124371284866,0.28235025148598925 L 190.2469135802469,0.0 L 187.28509373571103,0.7876085962505406 L 184.1243712848651,2.6794695930497885 L 180.83333333333334,5.709876543209827 L 180.83333333333334,5.709876543209827 L 180.83333333333334,5.709876543209827 L 180.83333333333334,5.709876543209827 L 180.83333333333334,5.709876543209827 L 180.83333333333334,5.709876543209827 L 180.83333333333334,5.709876543209827 L 180.83333333333334,5.709876543209827 L 180.83333333333334,5.709876543209827 L 180.83333333333334,5.709876543209827 L 180.83333333333334,5.709876543209827M191.66666666666666 72.3765432098765 L 180.83333333333334,5.709876543209827 L 177.79721079103788,9.286694101508935 L 175.86534064929128,13.213305898491022 L 174.96913580246917,17.283950617283878 L 175.04000914494742,21.29286694101505 L 176.00937357110197,25.03429355281199 L 177.80864197530863,28.302469135802447 L 180.3692272519433,30.891632373113826 L 183.6225422953818,32.596021947873766 L 187.5,33.20987654320983 L 187.5,33.20987654320983 L 189.6844993141289,32.94010059442158 L 191.7661179698217,32.162780064014584 L 193.70370370370367,30.925925925925863 L 195.45610425240054,29.27754915409234 L 196.98216735253772,27.26566072245083 L 198.24074074074073,24.938271604938226 L 199.19067215363512,22.34339277549154 L 199.79080932784638,19.529035208047535 L 200.0,16.54320987654316 L 200.0,16.54320987654316 L 199.67192501143114,11.425468678555148 L 198.73342478280753,7.206218564243254 L 197.2530864197531,3.919753086419652 L 195.2994970278921,1.6003657978966148 L 192.94124371284866,0.28235025148598925 L 190.2469135802469,0.0 L 187.28509373571103,0.7876085962505406 L 184.1243712848651,2.6794695930497885 L 180.83333333333334,5.709876543209827 L 180.83333333333334,5.709876543209827 L 180.83333333333334,5.709876543209827 L 180.83333333333334,5.709876543209827 L 180.83333333333334,5.709876543209827 L 180.83333333333334,5.709876543209827 L 180.83333333333334,5.709876543209827 L 180.83333333333334,5.709876543209827 L 180.83333333333334,5.709876543209827 L 180.83333333333334,5.709876543209827 L 180.83333333333334,5.709876543209827 L 191.66666666666666,72.3765432098765 L 177.7789208962048,78.73799725651575 L 164.0214906264289,86.60150891632371 L 150.5864197530864,95.80246913580241 L 137.665752171925,106.17626886145403 L 125.45153177869229,117.55829903978051 L 114.1358024691358,129.78395061728392 L 103.91060813900322,142.68861454046635 L 94.96799268404204,156.10768175582987 L 87.5,169.87654320987653 L 87.5,169.87654320987653 L 80.61499771376313,184.94284407864652 L 75.5064014631916,198.49336991312296 L 72.1604938271605,210.55555555555551 L 70.56355738454504,221.15683584819388 L 70.7018747142204,230.32464563328756 L 72.56172839506172,238.08641975308646 L 76.12940100594422,244.46959304983994 L 81.39117512574302,249.50160036579786 L 88.33333333333333,253.20987654320984 L 88.33333333333333,253.20987654320984 L 95.86305441243711,254.39986282578874 L 105.85505258344764,253.16186556927298 L 117.74691358024693,249.78395061728392 L 130.97622313671698,244.55418381344305 L 144.98056698673983,237.76063100137173 L 159.19753086419752,229.6913580246913 L 173.0647005029721,220.6344307270233 L 186.01966163694553,210.87791495198906 L 197.5,200.70987654320984 L 197.5,200.70987654320984 L 200.37037037037038,197.7469135802469 L 203.24074074074073,194.78395061728392 L 206.11111111111114,191.820987654321 L 208.98148148148147,188.858024691358 L 211.85185185185185,185.89506172839506 L 214.72222222222223,182.93209876543207 L 217.59259259259258,179.96913580246914 L 220.46296296296296,177.00617283950615 L 223.33333333333334,174.0432098765432 L 223.33333333333334,174.0432098765432 L 223.98148148148147,177.09876543209873 L 224.62962962962962,180.1543209876543 L 225.27777777777777,183.20987654320984 L 225.92592592592592,186.26543209876542 L 226.57407407407408,189.32098765432096 L 227.22222222222223,192.3765432098765 L 227.87037037037038,195.43209876543207 L 228.51851851851853,198.48765432098764 L 229.16666666666666,201.54320987654316 L 229.16666666666666,201.54320987654316 L 232.31252857796065,213.14357567443986 L 236.18541380887058,223.4819387288523 L 240.7716049382716,232.53086419753083 L 246.0573845450389,240.26291723822584 L 252.02903520804756,246.65066300868764 L 258.6728395061728,251.66666666666666 L 265.9750800182899,255.2834933699131 L 273.92203932327385,257.4737082761774 L 282.5,258.2098765432099 L 282.5,258.2098765432099 L 297.06447187928666,255.93507087334248 L 313.460219478738,249.64106081390034 L 330.7407407407407,240.12345679012347 L 347.95953360768175,228.17786922725193 L 364.17009602194787,214.5999085505258 L 378.4259259259259,200.18518518518516 L 389.7805212620027,185.72930955647007 L 397.28737997256513,172.02789208962048 L 400.0,159.87654320987653 L 400.0,159.87654320987653 L 399.86282578875165,154.24782807498858 L 399.2729766803841,150.21719250114307 L 397.962962962963,147.90123456790118 L 395.6652949245542,147.41655235482395 L 392.11248285322364,148.8797439414723 L 387.03703703703707,152.4074074074074 L 380.17146776406037,158.1161408321902 L 371.2482853223594,166.12254229538178 L 360.0,176.5432098765432 L 360.0,176.5432098765432 L 342.9206675811613,192.24394147233653 L 328.18015546410606,204.9885688157293 L 315.52469135802477,214.90740740740736 L 304.7005029721079,222.13077274805664 L 295.45381801554646,226.78898033836302 L 287.53086419753083,229.01234567901236 L 280.67786922725196,228.9311842706904 L 274.6410608139003,226.67581161408322 L 269.1666666666667,222.37654320987653 L 269.1666666666667,222.37654320987653 L 265.42409693644254,218.12071330589848 L 262.49771376314584,212.77434842249653 L 260.33950617283955,205.80246913580243 L 258.9014631915867,196.67009602194787 L 258.13557384545044,184.84224965706443 L 257.9938271604938,169.78395061728395 L 258.4282121627801,150.960219478738 L 259.3907178783722,127.83607681755826 L 260.8333333333333,99.8765432098765 L 260.8333333333333,99.8765432098765 L 261.23456790123447,91.63122999542752 L 261.2037037037037,85.08687700045718 L 260.55555555555554,80.03086419753076 L 259.10493827160496,76.2505715592135 L 256.6666666666667,73.53337905807034 L 253.05555555555554,71.66666666666663 L 248.0864197530864,70.43781435756743 L 241.57407407407408,69.63420210333791 L 233.33333333333334,69.04320987654316 L 233.33333333333334,69.04320987654316 L 227.95381801554635,68.85573845450392 L 222.45770461819845,68.83973479652488 L 216.97530864197532,68.9814814814814 L 211.63694558756285,69.26726108824867 L 206.572930955647,69.68335619570183 L 201.9135802469136,70.21604938271604 L 197.78920896204846,70.85162322816639 L 194.33013260173755,71.57636031092821 L 191.66666666666666,72.3765432098765 L 191.66666666666666,72.3765432098765 L 191.66666666666666,72.3765432098765 L 191.66666666666666,72.3765432098765 L 191.66666666666666,72.3765432098765 L 191.66666666666666,72.3765432098765 L 191.66666666666666,72.3765432098765 L 191.66666666666666,72.3765432098765 L 191.66666666666666,72.3765432098765 L 191.66666666666666,72.3765432098765 L 191.66666666666666,72.3765432098765 L 227.5,116.54320987654317 L 227.5,116.54320987654317 L 227.5,116.54320987654317 L 227.5,116.54320987654317 L 227.5,116.54320987654317 L 227.5,116.54320987654317 L 227.5,116.54320987654317 L 227.5,116.54320987654317 L 227.5,116.54320987654317 L 227.5,116.54320987654317 L 227.5,116.54320987654317 L 222.5400091449474,125.74531321444904 L 212.44970278920897,138.61682670324643 L 198.58024691358028,153.88888888888883 L 182.28280749885693,170.29263831732965 L 164.90855052583447,186.55921353452214 L 147.80864197530863,201.41975308641975 L 132.33424782807498,213.6053955189758 L 119.83653406492913,221.84727937814358 L 111.66666666666667,224.87654320987653 L 111.66666666666667,224.87654320987653 L 104.06149977137629,222.48285322359402 L 100.94878829446729,215.85048010973938 L 101.88271604938272,205.80246913580243 L 106.41746684956563,193.16186556927298 L 114.1072245084591,178.7517146776406 L 124.50617283950616,163.39506172839504 L 137.16849565614996,147.91495198902606 L 151.64837677183354,133.13443072702327 L 167.5,119.8765432098765 L 167.5,119.8765432098765 L 178.96776406035661,112.3822588020119 L 189.8593964334705,106.58893461362592 L 199.90740740740745,102.5308641975308 L 208.84430727023314,100.24234110653856 L 216.4026063100137,99.75765889346133 L 222.3148148148148,101.11111111111111 L 226.3134430727023,104.33699131229993 L 228.1310013717421,109.46959304983993 L 227.5,116.54320987654317 L 227.5,116.54320987654317 L 227.5,116.54320987654317 L 227.5,116.54320987654317 L 227.5,116.54320987654317 L 227.5,116.54320987654317 L 227.5,116.54320987654317 L 227.5,116.54320987654317 L 227.5,116.54320987654317 L 227.5,116.54320987654317 L 227.5,116.54320987654317M247.5 4.876543209876493 L 180.83333333333334,5.709876543209827 L 177.79721079103788,9.286694101508935 L 175.86534064929128,13.213305898491022 L 174.96913580246917,17.283950617283878 L 175.04000914494742,21.29286694101505 L 176.00937357110197,25.03429355281199 L 177.80864197530863,28.302469135802447 L 180.3692272519433,30.891632373113826 L 183.6225422953818,32.596021947873766 L 187.5,33.20987654320983 L 187.5,33.20987654320983 L 189.6844993141289,32.94010059442158 L 191.7661179698217,32.162780064014584 L 193.70370370370367,30.925925925925863 L 195.45610425240054,29.27754915409234 L 196.98216735253772,27.26566072245083 L 198.24074074074073,24.938271604938226 L 199.19067215363512,22.34339277549154 L 199.79080932784638,19.529035208047535 L 200.0,16.54320987654316 L 200.0,16.54320987654316 L 199.67192501143114,11.425468678555148 L 198.73342478280753,7.206218564243254 L 197.2530864197531,3.919753086419652 L 195.2994970278921,1.6003657978966148 L 192.94124371284866,0.28235025148598925 L 190.2469135802469,0.0 L 187.28509373571103,0.7876085962505406 L 184.1243712848651,2.6794695930497885 L 180.83333333333334,5.709876543209827 L 180.83333333333334,5.709876543209827 L 180.83333333333334,5.709876543209827 L 180.83333333333334,5.709876543209827 L 180.83333333333334,5.709876543209827 L 180.83333333333334,5.709876543209827 L 180.83333333333334,5.709876543209827 L 180.83333333333334,5.709876543209827 L 180.83333333333334,5.709876543209827 L 180.83333333333334,5.709876543209827 L 180.83333333333334,5.709876543209827 L 191.66666666666666,72.3765432098765 L 177.7789208962048,78.73799725651575 L 164.0214906264289,86.60150891632371 L 150.5864197530864,95.80246913580241 L 137.665752171925,106.17626886145403 L 125.45153177869229,117.55829903978051 L 114.1358024691358,129.78395061728392 L 103.91060813900322,142.68861454046635 L 94.96799268404204,156.10768175582987 L 87.5,169.87654320987653 L 87.5,169.87654320987653 L 80.61499771376313,184.94284407864652 L 75.5064014631916,198.49336991312296 L 72.1604938271605,210.55555555555551 L 70.56355738454504,221.15683584819388 L 70.7018747142204,230.32464563328756 L 72.56172839506172,238.08641975308646 L 76.12940100594422,244.46959304983994 L 81.39117512574302,249.50160036579786 L 88.33333333333333,253.20987654320984 L 88.33333333333333,253.20987654320984 L 95.86305441243711,254.39986282578874 L 105.85505258344764,253.16186556927298 L 117.74691358024693,249.78395061728392 L 130.97622313671698,244.55418381344305 L 144.98056698673983,237.76063100137173 L 159.19753086419752,229.6913580246913 L 173.0647005029721,220.6344307270233 L 186.01966163694553,210.87791495198906 L 197.5,200.70987654320984 L 197.5,200.70987654320984 L 200.37037037037038,197.7469135802469 L 203.24074074074073,194.78395061728392 L 206.11111111111114,191.820987654321 L 208.98148148148147,188.858024691358 L 211.85185185185185,185.89506172839506 L 214.72222222222223,182.93209876543207 L 217.59259259259258,179.96913580246914 L 220.46296296296296,177.00617283950615 L 223.33333333333334,174.0432098765432 L 223.33333333333334,174.0432098765432 L 223.98148148148147,177.09876543209873 L 224.62962962962962,180.1543209876543 L 225.27777777777777,183.20987654320984 L 225.92592592592592,186.26543209876542 L 226.57407407407408,189.32098765432096 L 227.22222222222223,192.3765432098765 L 227.87037037037038,195.43209876543207 L 228.51851851851853,198.48765432098764 L 229.16666666666666,201.54320987654316 L 229.16666666666666,201.54320987654316 L 232.31252857796065,213.14357567443986 L 236.18541380887058,223.4819387288523 L 240.7716049382716,232.53086419753083 L 246.0573845450389,240.26291723822584 L 252.02903520804756,246.65066300868764 L 258.6728395061728,251.66666666666666 L 265.9750800182899,255.2834933699131 L 273.92203932327385,257.4737082761774 L 282.5,258.2098765432099 L 282.5,258.2098765432099 L 297.06447187928666,255.93507087334248 L 313.460219478738,249.64106081390034 L 330.7407407407407,240.12345679012347 L 347.95953360768175,228.17786922725193 L 364.17009602194787,214.5999085505258 L 378.4259259259259,200.18518518518516 L 389.7805212620027,185.72930955647007 L 397.28737997256513,172.02789208962048 L 400.0,159.87654320987653 L 400.0,159.87654320987653 L 399.86282578875165,154.24782807498858 L 399.2729766803841,150.21719250114307 L 397.962962962963,147.90123456790118 L 395.6652949245542,147.41655235482395 L 392.11248285322364,148.8797439414723 L 387.03703703703707,152.4074074074074 L 380.17146776406037,158.1161408321902 L 371.2482853223594,166.12254229538178 L 360.0,176.5432098765432 L 360.0,176.5432098765432 L 342.9206675811613,192.24394147233653 L 328.18015546410606,204.9885688157293 L 315.52469135802477,214.90740740740736 L 304.7005029721079,222.13077274805664 L 295.45381801554646,226.78898033836302 L 287.53086419753083,229.01234567901236 L 280.67786922725196,228.9311842706904 L 274.6410608139003,226.67581161408322 L 269.1666666666667,222.37654320987653 L 269.1666666666667,222.37654320987653 L 265.42409693644254,218.12071330589848 L 262.49771376314584,212.77434842249653 L 260.33950617283955,205.80246913580243 L 258.9014631915867,196.67009602194787 L 258.13557384545044,184.84224965706443 L 257.9938271604938,169.78395061728395 L 258.4282121627801,150.960219478738 L 259.3907178783722,127.83607681755826 L 260.8333333333333,99.8765432098765 L 260.8333333333333,99.8765432098765 L 261.23456790123447,91.63122999542752 L 261.2037037037037,85.08687700045718 L 260.55555555555554,80.03086419753076 L 259.10493827160496,76.2505715592135 L 256.6666666666667,73.53337905807034 L 253.05555555555554,71.66666666666663 L 248.0864197530864,70.43781435756743 L 241.57407407407408,69.63420210333791 L 233.33333333333334,69.04320987654316 L 233.33333333333334,69.04320987654316 L 227.95381801554635,68.85573845450392 L 222.45770461819845,68.83973479652488 L 216.97530864197532,68.9814814814814 L 211.63694558756285,69.26726108824867 L 206.572930955647,69.68335619570183 L 201.9135802469136,70.21604938271604 L 197.78920896204846,70.85162322816639 L 194.33013260173755,71.57636031092821 L 191.66666666666666,72.3765432098765 L 191.66666666666666,72.3765432098765 L 191.66666666666666,72.3765432098765 L 191.66666666666666,72.3765432098765 L 191.66666666666666,72.3765432098765 L 191.66666666666666,72.3765432098765 L 191.66666666666666,72.3765432098765 L 191.66666666666666,72.3765432098765 L 191.66666666666666,72.3765432098765 L 191.66666666666666,72.3765432098765 L 191.66666666666666,72.3765432098765 L 227.5,116.54320987654317 L 227.5,116.54320987654317 L 227.5,116.54320987654317 L 227.5,116.54320987654317 L 227.5,116.54320987654317 L 227.5,116.54320987654317 L 227.5,116.54320987654317 L 227.5,116.54320987654317 L 227.5,116.54320987654317 L 227.5,116.54320987654317 L 227.5,116.54320987654317 L 222.5400091449474,125.74531321444904 L 212.44970278920897,138.61682670324643 L 198.58024691358028,153.88888888888883 L 182.28280749885693,170.29263831732965 L 164.90855052583447,186.55921353452214 L 147.80864197530863,201.41975308641975 L 132.33424782807498,213.6053955189758 L 119.83653406492913,221.84727937814358 L 111.66666666666667,224.87654320987653 L 111.66666666666667,224.87654320987653 L 104.06149977137629,222.48285322359402 L 100.94878829446729,215.85048010973938 L 101.88271604938272,205.80246913580243 L 106.41746684956563,193.16186556927298 L 114.1072245084591,178.7517146776406 L 124.50617283950616,163.39506172839504 L 137.16849565614996,147.91495198902606 L 151.64837677183354,133.13443072702327 L 167.5,119.8765432098765 L 167.5,119.8765432098765 L 178.96776406035661,112.3822588020119 L 189.8593964334705,106.58893461362592 L 199.90740740740745,102.5308641975308 L 208.84430727023314,100.24234110653856 L 216.4026063100137,99.75765889346133 L 222.3148148148148,101.11111111111111 L 226.3134430727023,104.33699131229993 L 228.1310013717421,109.46959304983993 L 227.5,116.54320987654317 L 227.5,116.54320987654317 L 227.5,116.54320987654317 L 227.5,116.54320987654317 L 227.5,116.54320987654317 L 227.5,116.54320987654317 L 227.5,116.54320987654317 L 227.5,116.54320987654317 L 227.5,116.54320987654317 L 227.5,116.54320987654317 L 227.5,116.54320987654317 L 247.5,4.876543209876493 L 244.24782807498858,8.946044810242363 L 242.2233653406493,13.235025148605267 L 241.35802469135805,17.530864197530796 L 241.58321902149063,21.620941929583875 L 242.83036122542296,25.292638317329622 L 245.03086419753083,28.33333333333329 L 248.1161408321902,30.530406950159996 L 252.01760402377687,31.671239140374897 L 256.6666666666667,31.543209876543163 L 256.6666666666667,31.543209876543163 L 259.1278006401463,30.810470964791964 L 261.4791952446273,29.755372656607147 L 263.6728395061728,28.425925925925906 L 265.6607224508459,26.87014174668486 L 267.3948331047096,25.13603109282116 L 268.82716049382714,23.271604938271608 L 269.90969364426155,21.32487425697297 L 270.5944215820759,19.343850022862295 L 270.8333333333333,17.376543209876495 L 270.8333333333333,17.376543209876495 L 270.30749885688147,13.161865569272969 L 268.84887974394144,9.461591220850448 L 266.63580246913585,6.358024691357922 L 263.84659350708733,3.9334705075444756 L 260.65957933241884,2.27023319615905 L 257.25308641975306,1.4506172839505875 L 253.80544124371283,1.5569272976679829 L 250.4949702789209,2.6714677640603197 L 247.5,4.876543209876493 L 247.5,4.876543209876493 L 247.5,4.876543209876493 L 247.5,4.876543209876493 L 247.5,4.876543209876493 L 247.5,4.876543209876493 L 247.5,4.876543209876493 L 247.5,4.876543209876493 L 247.5,4.876543209876493 L 247.5,4.876543209876493 L 247.5,4.876543209876493"/></svg>
