<?xml version="1.0" encoding="utf-8"?>
<svg xmlns="http://www.w3.org/2000/svg"  viewBox="0,0,400,673.211259812567" width="100%">
<path d="M105.88235294117648 36.65663796382752 L 105.88235294117648,36.65663796382752 L 103.34232458415465,45.573538057198284 L 102.36884877407755,54.49043815056883 L 102.84780578898227,63.127226199121644 L 104.66507590690597,71.20379015803853 L 107.70653940588583,78.44001798250166 L 111.8580765639589,84.55579762769308 L 117.00556765916242,89.27101704879487 L 123.0348929695335,92.30556420098905 L 129.83193277310926,93.37932703945778 L 129.83193277310926,93.37932703945778 L 133.36445689386863,93.06290417401544 L 137.177093059446,92.15513365840158 L 141.1764705882353,90.71826261368743 L 145.2692187986306,88.81453816094346 L 149.36196700902582,86.50620742124015 L 153.3613445378151,83.85551751564834 L 157.17398070339246,80.92471556523853 L 160.7065048241519,77.77604869108141 L 163.8655462184874,74.47176401424768 L 163.8655462184874,74.47176401424768 L 167.6003734827264,69.68911021198615 L 170.4014939309057,65.3421862572189 L 172.26890756302524,61.3064979078051 L 173.202614379085,57.457550921603186 L 173.202614379085,53.67085105647197 L 172.2689075630252,49.82190407027012 L 170.4014939309057,45.78621572085632 L 167.60037348272644,41.43929176608923 L 163.8655462184874,36.65663796382752 L 163.8655462184874,36.65663796382752 L 160.70650482415186,33.35235328699402 L 157.1739807033925,30.20368641283669 L 153.36134453781514,27.272884462426948 L 149.36196700902582,24.622194556835073 L 145.2692187986306,22.313863817131764 L 141.1764705882353,20.41013936438786 L 137.177093059446,18.973268319673636 L 133.36445689386866,18.065497804059927 L 129.83193277310926,17.749074938617444 L 129.83193277310926,17.749074938617444 L 126.81121831448627,18.06549780406007 L 123.68675865407894,18.973268319673636 L 120.5415499533147,20.410139364387717 L 117.45858837362107,22.313863817131907 L 114.52087007642562,24.622194556835073 L 111.81139122315591,27.272884462426948 L 109.41314797523948,30.20368641283683 L 107.40913649410382,33.352353286993875 L 105.88235294117648,36.65663796382752 L 105.88235294117648,36.65663796382752 L 105.88235294117648,36.65663796382752 L 105.88235294117648,36.65663796382752 L 105.88235294117648,36.65663796382752 L 105.88235294117648,36.65663796382752 L 105.88235294117648,36.65663796382752 L 105.88235294117648,36.65663796382752 L 105.88235294117648,36.65663796382752 L 105.88235294117648,36.65663796382752 L 105.88235294117648,36.65663796382752"/></svg>
