<?xml version="1.0" encoding="utf-8"?>
<svg xmlns="http://www.w3.org/2000/svg"  viewBox="0,0,400,673.211259812567" width="100%">
<path d="M105.88235294117648 36.65663796382752 L 105.88235294117648,36.65663796382752 L 103.34232458415465,45.573538057198284 L 102.36884877407755,54.49043815056883 L 102.84780578898227,63.127226199121644 L 104.66507590690597,71.20379015803853 L 107.70653940588583,78.44001798250166 L 111.8580765639589,84.55579762769308 L 117.00556765916242,89.27101704879487 L 123.0348929695335,92.30556420098905 L 129.83193277310926,93.37932703945778 L 129.83193277310926,93.37932703945778 L 133.36445689386863,93.06290417401544 L 137.177093059446,92.15513365840158 L 141.1764705882353,90.71826261368743 L 145.2692187986306,88.81453816094346 L 149.36196700902582,86.50620742124015 L 153.3613445378151,83.85551751564834 L 157.17398070339246,80.92471556523853 L 160.7065048241519,77.77604869108141 L 163.8655462184874,74.47176401424768 L 163.8655462184874,74.47176401424768 L 167.6003734827264,69.68911021198615 L 170.4014939309057,65.3421862572189 L 172.26890756302524,61.3064979078051 L 173.202614379085,57.457550921603186 L 173.202614379085,53.67085105647197 L 172.2689075630252,49.82190407027012 L 170.4014939309057,45.78621572085632 L 167.60037348272644,41.43929176608923 L 163.8655462184874,36.65663796382752 L 163.8655462184874,36.65663796382752 L 160.70650482415186,33.35235328699402 L 157.1739807033925,30.20368641283669 L 153.36134453781514,27.272884462426948 L 149.36196700902582,24.622194556835073 L 145.2692187986306,22.313863817131764 L 141.1764705882353,20.41013936438786 L 137.177093059446,18.973268319673636 L 133.36445689386866,18.065497804059927 L 129.83193277310926,17.749074938617444 L 129.83193277310926,17.749074938617444 L 126.81121831448627,18.06549780406007 L 123.68675865407894,18.973268319673636 L 120.5415499533147,20.410139364387717 L 117.45858837362107,22.313863817131907 L 114.52087007642562,24.622194556835073 L 111.81139122315591,27.272884462426948 L 109.41314797523948,30.20368641283683 L 107.40913649410382,33.352353286993875 L 105.88235294117648,36.65663796382752 L 105.88235294117648,36.65663796382752 L 105.88235294117648,36.65663796382752 L 105.88235294117648,36.65663796382752 L 105.88235294117648,36.65663796382752 L 105.88235294117648,36.65663796382752 L 105.88235294117648,36.65663796382752 L 105.88235294117648,36.65663796382752 L 105.88235294117648,36.65663796382752 L 105.88235294117648,36.65663796382752 L 105.88235294117648,36.65663796382752M170.16806722689077 160.18604972853342 L 105.88235294117648,36.65663796382752 L 103.34232458415465,45.573538057198284 L 102.36884877407755,54.49043815056883 L 102.84780578898227,63.127226199121644 L 104.66507590690597,71.20379015803853 L 107.70653940588583,78.44001798250166 L 111.8580765639589,84.55579762769308 L 117.00556765916242,89.27101704879487 L 123.0348929695335,92.30556420098905 L 129.83193277310926,93.37932703945778 L 129.83193277310926,93.37932703945778 L 133.36445689386863,93.06290417401544 L 137.177093059446,92.15513365840158 L 141.1764705882353,90.71826261368743 L 145.2692187986306,88.81453816094346 L 149.36196700902582,86.50620742124015 L 153.3613445378151,83.85551751564834 L 157.17398070339246,80.92471556523853 L 160.7065048241519,77.77604869108141 L 163.8655462184874,74.47176401424768 L 163.8655462184874,74.47176401424768 L 167.6003734827264,69.68911021198615 L 170.4014939309057,65.3421862572189 L 172.26890756302524,61.3064979078051 L 173.202614379085,57.457550921603186 L 173.202614379085,53.67085105647197 L 172.2689075630252,49.82190407027012 L 170.4014939309057,45.78621572085632 L 167.60037348272644,41.43929176608923 L 163.8655462184874,36.65663796382752 L 163.8655462184874,36.65663796382752 L 160.70650482415186,33.35235328699402 L 157.1739807033925,30.20368641283669 L 153.36134453781514,27.272884462426948 L 149.36196700902582,24.622194556835073 L 145.2692187986306,22.313863817131764 L 141.1764705882353,20.41013936438786 L 137.177093059446,18.973268319673636 L 133.36445689386866,18.065497804059927 L 129.83193277310926,17.749074938617444 L 129.83193277310926,17.749074938617444 L 126.81121831448627,18.06549780406007 L 123.68675865407894,18.973268319673636 L 120.5415499533147,20.410139364387717 L 117.45858837362107,22.313863817131907 L 114.52087007642562,24.622194556835073 L 111.81139122315591,27.272884462426948 L 109.41314797523948,30.20368641283683 L 107.40913649410382,33.352353286993875 L 105.88235294117648,36.65663796382752 L 105.88235294117648,36.65663796382752 L 105.88235294117648,36.65663796382752 L 105.88235294117648,36.65663796382752 L 105.88235294117648,36.65663796382752 L 105.88235294117648,36.65663796382752 L 105.88235294117648,36.65663796382752 L 105.88235294117648,36.65663796382752 L 105.88235294117648,36.65663796382752 L 105.88235294117648,36.65663796382752 L 105.88235294117648,36.65663796382752 L 170.16806722689077,160.18604972853342 L 153.66739288307912,168.39229518968096 L 140.0300861085175,176.72303489296957 L 128.85154061624652,185.95635785178274 L 119.72715011930698,196.87035307950336 L 112.25230833073972,210.24310958951477 L 106.02240896358545,226.8527163952001 L 100.63284573088495,247.4772625099423 L 95.679012345679,272.8948369471246 L 90.75630252100841,303.8835287201301 L 90.75630252100841,303.8835287201301 L 85.85088356330184,337.809938790331 L 82.88549987896394,370.62627520143866 L 81.83940242763772,402.24954179202547 L 82.69184216896636,432.596742400664 L 85.42207006259294,461.5848808659266 L 90.00933706816058,489.1309610263859 L 96.43289414531243,515.1519867206142 L 104.6719922536916,539.564961787184 L 114.70588235294119,562.2868900646679 L 114.70588235294119,562.2868900646679 L 124.3801224193381,579.733374831414 L 134.30335097001765,594.3891136701595 L 144.8179271708684,606.4512224642943 L 156.26621018777882,616.1168170972093 L 168.99055918663768,623.5830134522946 L 183.33333333333334,629.0469274129405 L 199.63689179375453,632.7056748625376 L 218.2435937337898,634.7563716844763 L 239.49579831932775,635.3961337621469 L 239.49579831932775,635.3961337621469 L 283.36445689386863,628.0233080886676 L 321.2573918456271,607.2258533042847 L 352.5210084033614,574.9853027630805 L 376.5017117958294,533.2831898191376 L 392.5459072517897,484.10104782653804 L 400.0,429.42041013936444 L 398.2103952692188,371.22281011169906 L 386.52349828820417,311.48978109762436 L 364.28571428571433,252.2028564512225 L 364.28571428571433,252.2028564512225 L 349.2046201196527,224.0239305598784 L 331.8722550748695,200.06743438115987 L 312.55835667600377,180.44748763703006 L 291.53266244769515,165.2782100494519 L 269.06490991458315,154.67372134038797 L 245.4248366013072,148.74814123180138 L 220.88218003250685,147.61558944565482 L 195.70667773282153,151.39018570391127 L 170.16806722689077,160.18604972853342 L 170.16806722689077,160.18604972853342 L 170.16806722689077,160.18604972853342 L 170.16806722689077,160.18604972853342 L 170.16806722689077,160.18604972853342 L 170.16806722689077,160.18604972853342 L 170.16806722689077,160.18604972853342 L 170.16806722689077,160.18604972853342 L 170.16806722689077,160.18604972853342 L 170.16806722689077,160.18604972853342 L 170.16806722689077,160.18604972853342 L 316.38655462184875,301.3625203167687 L 316.38655462184875,301.3625203167687 L 316.38655462184875,301.3625203167687 L 316.38655462184875,301.3625203167687 L 316.38655462184875,301.3625203167687 L 316.38655462184875,301.3625203167687 L 316.38655462184875,301.3625203167687 L 316.38655462184875,301.3625203167687 L 316.38655462184875,301.3625203167687 L 316.38655462184875,301.3625203167687 L 316.38655462184875,301.3625203167687 L 331.0267316803264,344.1522287927517 L 337.6162810803334,388.77822734031884 L 336.8814192343605,433.15523740360345 L 329.5483625548985,475.19798042673864 L 316.34332745443857,512.8211778538576 L 297.9925303454715,543.9395511290937 L 275.2221876404883,566.4678216965799 L 248.75851575197984,578.3207110004496 L 219.32773109243698,577.412940484836 L 219.32773109243698,577.412940484836 L 191.87156344019087,560.6269668361173 L 170.17325448698,529.1195490541895 L 154.48179271708685,487.2168620534634 L 145.0461666147941,439.24508074834876 L 142.11536466438426,389.53038005325584 L 145.93837535014003,342.39893488259514 L 156.764187156344,302.17692015077637 L 174.84178856727874,273.1905107722102 L 200.4201680672269,259.76588166130654 L 200.4201680672269,259.76588166130654 L 205.86333298751597,258.5641664073038 L 211.19237818584224,256.68810734170205 L 216.2931839402428,254.21032610575094 L 221.05163052875474,251.2034443406993 L 225.35359822941527,247.74008368779607 L 229.0849673202614,243.89286578829064 L 232.13161807933048,239.7344122834319 L 234.37943078465955,235.33734481446905 L 235.71428571428572,230.77428502265104 L 235.71428571428572,230.77428502265104 L 237.66815368122556,223.67465504720423 L 239.48715288584572,218.3283189819138 L 241.40989729225026,214.71452778642322 L 243.6750008645434,212.8125324203756 L 246.5210775668292,212.60158384341398 L 250.18674136321195,214.06093301518152 L 254.9106062177958,217.16983089532116 L 260.93128609468476,221.90752844347617 L 268.4873949579832,228.2532766192897 L 268.4873949579832,228.2532766192897 L 273.3668776152436,233.16734101047837 L 278.6717155998201,239.36784590379372 L 284.26704014939315,246.6473008956669 L 290.0179825016427,254.79821558252925 L 295.7896738942491,263.613099560812 L 301.4472455648926,272.8844624269461 L 306.85582875125357,282.40481377736285 L 311.8805546910122,291.9666632084933 L 316.38655462184875,301.3625203167687 L 316.38655462184875,301.3625203167687 L 316.38655462184875,301.3625203167687 L 316.38655462184875,301.3625203167687 L 316.38655462184875,301.3625203167687 L 316.38655462184875,301.3625203167687 L 316.38655462184875,301.3625203167687 L 316.38655462184875,301.3625203167687 L 316.38655462184875,301.3625203167687 L 316.38655462184875,301.3625203167687 L 316.38655462184875,301.3625203167687M278.5714285714286 3.883528720130045 L 105.88235294117648,36.65663796382752 L 103.34232458415465,45.573538057198284 L 102.36884877407755,54.49043815056883 L 102.84780578898227,63.127226199121644 L 104.66507590690597,71.20379015803853 L 107.70653940588583,78.44001798250166 L 111.8580765639589,84.55579762769308 L 117.00556765916242,89.27101704879487 L 123.0348929695335,92.30556420098905 L 129.83193277310926,93.37932703945778 L 129.83193277310926,93.37932703945778 L 133.36445689386863,93.06290417401544 L 137.177093059446,92.15513365840158 L 141.1764705882353,90.71826261368743 L 145.2692187986306,88.81453816094346 L 149.36196700902582,86.50620742124015 L 153.3613445378151,83.85551751564834 L 157.17398070339246,80.92471556523853 L 160.7065048241519,77.77604869108141 L 163.8655462184874,74.47176401424768 L 163.8655462184874,74.47176401424768 L 167.6003734827264,69.68911021198615 L 170.4014939309057,65.3421862572189 L 172.26890756302524,61.3064979078051 L 173.202614379085,57.457550921603186 L 173.202614379085,53.67085105647197 L 172.2689075630252,49.82190407027012 L 170.4014939309057,45.78621572085632 L 167.60037348272644,41.43929176608923 L 163.8655462184874,36.65663796382752 L 163.8655462184874,36.65663796382752 L 160.70650482415186,33.35235328699402 L 157.1739807033925,30.20368641283669 L 153.36134453781514,27.272884462426948 L 149.36196700902582,24.622194556835073 L 145.2692187986306,22.313863817131764 L 141.1764705882353,20.41013936438786 L 137.177093059446,18.973268319673636 L 133.36445689386866,18.065497804059927 L 129.83193277310926,17.749074938617444 L 129.83193277310926,17.749074938617444 L 126.81121831448627,18.06549780406007 L 123.68675865407894,18.973268319673636 L 120.5415499533147,20.410139364387717 L 117.45858837362107,22.313863817131907 L 114.52087007642562,24.622194556835073 L 111.81139122315591,27.272884462426948 L 109.41314797523948,30.20368641283683 L 107.40913649410382,33.352353286993875 L 105.88235294117648,36.65663796382752 L 105.88235294117648,36.65663796382752 L 105.88235294117648,36.65663796382752 L 105.88235294117648,36.65663796382752 L 105.88235294117648,36.65663796382752 L 105.88235294117648,36.65663796382752 L 105.88235294117648,36.65663796382752 L 105.88235294117648,36.65663796382752 L 105.88235294117648,36.65663796382752 L 105.88235294117648,36.65663796382752 L 105.88235294117648,36.65663796382752 L 170.16806722689077,160.18604972853342 L 153.66739288307912,168.39229518968096 L 140.0300861085175,176.72303489296957 L 128.85154061624652,185.95635785178274 L 119.72715011930698,196.87035307950336 L 112.25230833073972,210.24310958951477 L 106.02240896358545,226.8527163952001 L 100.63284573088495,247.4772625099423 L 95.679012345679,272.8948369471246 L 90.75630252100841,303.8835287201301 L 90.75630252100841,303.8835287201301 L 85.85088356330184,337.809938790331 L 82.88549987896394,370.62627520143866 L 81.83940242763772,402.24954179202547 L 82.69184216896636,432.596742400664 L 85.42207006259294,461.5848808659266 L 90.00933706816058,489.1309610263859 L 96.43289414531243,515.1519867206142 L 104.6719922536916,539.564961787184 L 114.70588235294119,562.2868900646679 L 114.70588235294119,562.2868900646679 L 124.3801224193381,579.733374831414 L 134.30335097001765,594.3891136701595 L 144.8179271708684,606.4512224642943 L 156.26621018777882,616.1168170972093 L 168.99055918663768,623.5830134522946 L 183.33333333333334,629.0469274129405 L 199.63689179375453,632.7056748625376 L 218.2435937337898,634.7563716844763 L 239.49579831932775,635.3961337621469 L 239.49579831932775,635.3961337621469 L 283.36445689386863,628.0233080886676 L 321.2573918456271,607.2258533042847 L 352.5210084033614,574.9853027630805 L 376.5017117958294,533.2831898191376 L 392.5459072517897,484.10104782653804 L 400.0,429.42041013936444 L 398.2103952692188,371.22281011169906 L 386.52349828820417,311.48978109762436 L 364.28571428571433,252.2028564512225 L 364.28571428571433,252.2028564512225 L 349.2046201196527,224.0239305598784 L 331.8722550748695,200.06743438115987 L 312.55835667600377,180.44748763703006 L 291.53266244769515,165.2782100494519 L 269.06490991458315,154.67372134038797 L 245.4248366013072,148.74814123180138 L 220.88218003250685,147.61558944565482 L 195.70667773282153,151.39018570391127 L 170.16806722689077,160.18604972853342 L 170.16806722689077,160.18604972853342 L 170.16806722689077,160.18604972853342 L 170.16806722689077,160.18604972853342 L 170.16806722689077,160.18604972853342 L 170.16806722689077,160.18604972853342 L 170.16806722689077,160.18604972853342 L 170.16806722689077,160.18604972853342 L 170.16806722689077,160.18604972853342 L 170.16806722689077,160.18604972853342 L 170.16806722689077,160.18604972853342 L 316.38655462184875,301.3625203167687 L 316.38655462184875,301.3625203167687 L 316.38655462184875,301.3625203167687 L 316.38655462184875,301.3625203167687 L 316.38655462184875,301.3625203167687 L 316.38655462184875,301.3625203167687 L 316.38655462184875,301.3625203167687 L 316.38655462184875,301.3625203167687 L 316.38655462184875,301.3625203167687 L 316.38655462184875,301.3625203167687 L 316.38655462184875,301.3625203167687 L 331.0267316803264,344.1522287927517 L 337.6162810803334,388.77822734031884 L 336.8814192343605,433.15523740360345 L 329.5483625548985,475.19798042673864 L 316.34332745443857,512.8211778538576 L 297.9925303454715,543.9395511290937 L 275.2221876404883,566.4678216965799 L 248.75851575197984,578.3207110004496 L 219.32773109243698,577.412940484836 L 219.32773109243698,577.412940484836 L 191.87156344019087,560.6269668361173 L 170.17325448698,529.1195490541895 L 154.48179271708685,487.2168620534634 L 145.0461666147941,439.24508074834876 L 142.11536466438426,389.53038005325584 L 145.93837535014003,342.39893488259514 L 156.764187156344,302.17692015077637 L 174.84178856727874,273.1905107722102 L 200.4201680672269,259.76588166130654 L 200.4201680672269,259.76588166130654 L 205.86333298751597,258.5641664073038 L 211.19237818584224,256.68810734170205 L 216.2931839402428,254.21032610575094 L 221.05163052875474,251.2034443406993 L 225.35359822941527,247.74008368779607 L 229.0849673202614,243.89286578829064 L 232.13161807933048,239.7344122834319 L 234.37943078465955,235.33734481446905 L 235.71428571428572,230.77428502265104 L 235.71428571428572,230.77428502265104 L 237.66815368122556,223.67465504720423 L 239.48715288584572,218.3283189819138 L 241.40989729225026,214.71452778642322 L 243.6750008645434,212.8125324203756 L 246.5210775668292,212.60158384341398 L 250.18674136321195,214.06093301518152 L 254.9106062177958,217.16983089532116 L 260.93128609468476,221.90752844347617 L 268.4873949579832,228.2532766192897 L 268.4873949579832,228.2532766192897 L 273.3668776152436,233.16734101047837 L 278.6717155998201,239.36784590379372 L 284.26704014939315,246.6473008956669 L 290.0179825016427,254.79821558252925 L 295.7896738942491,263.613099560812 L 301.4472455648926,272.8844624269461 L 306.85582875125357,282.40481377736285 L 311.8805546910122,291.9666632084933 L 316.38655462184875,301.3625203167687 L 316.38655462184875,301.3625203167687 L 316.38655462184875,301.3625203167687 L 316.38655462184875,301.3625203167687 L 316.38655462184875,301.3625203167687 L 316.38655462184875,301.3625203167687 L 316.38655462184875,301.3625203167687 L 316.38655462184875,301.3625203167687 L 316.38655462184875,301.3625203167687 L 316.38655462184875,301.3625203167687 L 316.38655462184875,301.3625203167687 L 278.5714285714286,3.883528720130045 L 275.77549538333847,6.2956046616179515 L 273.29079780060175,9.267904692741299 L 271.14845938375356,12.707058131894607 L 269.37960369332916,16.519694297472117 L 268.01535428986415,20.61244250786735 L 267.08683473389357,24.89193208147468 L 266.6251685859529,29.264792336687773 L 266.6614794065774,33.63765259190101 L 267.2268907563025,37.917142165508196 L 267.2268907563025,37.917142165508196 L 270.76806031054394,47.29916658021249 L 277.44233495867485,54.42992011619462 L 286.3678804855276,59.29902825327653 L 296.6628626759346,61.89611647127983 L 307.44544731472837,62.210810250025894 L 317.83380018674137,60.23273506933646 L 326.946087076806,55.95151640903277 L 333.9004737697548,49.356779748936724 L 337.8151260504202,40.438150568869546 L 337.8151260504202,40.438150568869546 L 337.8583532178303,32.0883909119205 L 334.9863402150984,24.060241380502923 L 329.73856209150335,16.675312100148584 L 322.654493896324,10.25521319638966 L 314.2736106788395,5.121554794757489 L 305.1353874883287,1.5959470207836821 L 295.77929937407066,0.0 L 286.74482138534427,0.6553238579383446 L 278.5714285714286,3.883528720130045 L 278.5714285714286,3.883528720130045 L 278.5714285714286,3.883528720130045 L 278.5714285714286,3.883528720130045 L 278.5714285714286,3.883528720130045 L 278.5714285714286,3.883528720130045 L 278.5714285714286,3.883528720130045 L 278.5714285714286,3.883528720130045 L 278.5714285714286,3.883528720130045 L 278.5714285714286,3.883528720130045 L 278.5714285714286,3.883528720130045"/></svg>
