<?xml version="1.0" encoding="utf-8"?>
<svg xmlns="http://www.w3.org/2000/svg"  viewBox="0,0,400,650.2833604114163" width="100%">
<path d="M105.6940730980312 28.553518658291615 L 105.6940730980312,28.553518658291615 L 102.70226475115882,36.29060113344176 L 101.83917750856051,45.04087298033749 L 102.83872123220206,54.25168545075398 L 105.43480578404912,63.370389796466526 L 109.36134102606746,71.84433726924989 L 114.35223682022286,79.12087912087918 L 120.14140302848102,84.64736660312906 L 126.46274951280775,87.87115096777491 L 133.0501861351687,88.23958346659158 L 133.0501861351687,88.23958346659158 L 143.28271650739637,85.00556486586761 L 152.27690431415695,79.7758702298865 L 159.8075963617291,73.0417428904041 L 165.64963945639153,65.29442617917587 L 169.57788040442293,57.02516342795727 L 171.36716601210202,48.72519796850419 L 170.79234308570747,40.88577313257167 L 167.62825843151808,33.99813225191573 L 161.64975885581242,28.553518658291615 L 161.64975885581242,28.553518658291615 L 153.5084240555719,23.763896173675167 L 145.70481904591335,20.171679310212426 L 138.3003492433062,17.776868067903955 L 131.35642006421986,16.579462446749897 L 124.93443692512382,16.579462446749968 L 119.09580524248744,17.776868067904168 L 113.90193043278029,20.171679310212426 L 109.41421791247173,23.76389617367503 L 105.6940730980312,28.553518658291615 L 105.6940730980312,28.553518658291615 L 105.6940730980312,28.553518658291615 L 105.6940730980312,28.553518658291615 L 105.6940730980312,28.553518658291615 L 105.6940730980312,28.553518658291615 L 105.6940730980312,28.553518658291615 L 105.6940730980312,28.553518658291615 L 105.6940730980312,28.553518658291615 L 105.6940730980312,28.553518658291615 L 105.6940730980312,28.553518658291615"/></svg>
