<?xml version="1.0" encoding="utf-8"?>
<svg xmlns="http://www.w3.org/2000/svg"  viewBox="0,0,400,650.2833604114163" width="100%">
<path d="M105.6940730980312 28.553518658291615 L 105.6940730980312,28.553518658291615 L 102.70226475115882,36.29060113344176 L 101.83917750856051,45.04087298033749 L 102.83872123220206,54.25168545075398 L 105.43480578404912,63.370389796466526 L 109.36134102606746,71.84433726924989 L 114.35223682022286,79.12087912087918 L 120.14140302848102,84.64736660312906 L 126.46274951280775,87.87115096777491 L 133.0501861351687,88.23958346659158 L 133.0501861351687,88.23958346659158 L 143.28271650739637,85.00556486586761 L 152.27690431415695,79.7758702298865 L 159.8075963617291,73.0417428904041 L 165.64963945639153,65.29442617917587 L 169.57788040442293,57.02516342795727 L 171.36716601210202,48.72519796850419 L 170.79234308570747,40.88577313257167 L 167.62825843151808,33.99813225191573 L 161.64975885581242,28.553518658291615 L 161.64975885581242,28.553518658291615 L 153.5084240555719,23.763896173675167 L 145.70481904591335,20.171679310212426 L 138.3003492433062,17.776868067903955 L 131.35642006421986,16.579462446749897 L 124.93443692512382,16.579462446749968 L 119.09580524248744,17.776868067904168 L 113.90193043278029,20.171679310212426 L 109.41421791247173,23.76389617367503 L 105.6940730980312,28.553518658291615 L 105.6940730980312,28.553518658291615 L 105.6940730980312,28.553518658291615 L 105.6940730980312,28.553518658291615 L 105.6940730980312,28.553518658291615 L 105.6940730980312,28.553518658291615 L 105.6940730980312,28.553518658291615 L 105.6940730980312,28.553518658291615 L 105.6940730980312,28.553518658291615 L 105.6940730980312,28.553518658291615 L 105.6940730980312,28.553518658291615M166.62359758983743 157.87332574294155 L 105.6940730980312,28.553518658291615 L 102.70226475115882,36.29060113344176 L 101.83917750856051,45.04087298033749 L 102.83872123220206,54.25168545075398 L 105.43480578404912,63.370389796466526 L 109.36134102606746,71.84433726924989 L 114.35223682022286,79.12087912087918 L 120.14140302848102,84.64736660312906 L 126.46274951280775,87.87115096777491 L 133.0501861351687,88.23958346659158 L 133.0501861351687,88.23958346659158 L 143.28271650739637,85.00556486586761 L 152.27690431415695,79.7758702298865 L 159.8075963617291,73.0417428904041 L 165.64963945639153,65.29442617917587 L 169.57788040442293,57.02516342795727 L 171.36716601210202,48.72519796850419 L 170.79234308570747,40.88577313257167 L 167.62825843151808,33.99813225191573 L 161.64975885581242,28.553518658291615 L 161.64975885581242,28.553518658291615 L 153.5084240555719,23.763896173675167 L 145.70481904591335,20.171679310212426 L 138.3003492433062,17.776868067903955 L 131.35642006421986,16.579462446749897 L 124.93443692512382,16.579462446749968 L 119.09580524248744,17.776868067904168 L 113.90193043278029,20.171679310212426 L 109.41421791247173,23.76389617367503 L 105.6940730980312,28.553518658291615 L 105.6940730980312,28.553518658291615 L 105.6940730980312,28.553518658291615 L 105.6940730980312,28.553518658291615 L 105.6940730980312,28.553518658291615 L 105.6940730980312,28.553518658291615 L 105.6940730980312,28.553518658291615 L 105.6940730980312,28.553518658291615 L 105.6940730980312,28.553518658291615 L 105.6940730980312,28.553518658291615 L 105.6940730980312,28.553518658291615 L 166.62359758983743,157.87332574294155 L 149.12305389604575,166.07094884161253 L 135.2147270657166,174.3606800649874 L 124.34596835062494,184.40046565774145 L 115.96412900254579,197.84825186454987 L 109.51656027325411,216.36198493008737 L 104.45061341452495,241.59961109902898 L 100.21363967813329,275.2190766160498 L 96.25299031585412,318.87832772582476 L 92.01601657946246,374.23531067302895 L 92.01601657946246,374.23531067302895 L 90.38024451295698,424.4410614608519 L 93.6671400000853,469.62180233425863 L 101.73342373575205,509.54214586344966 L 114.43581641486185,543.9667046186255 L 131.63103873231933,572.6600911699863 L 153.17581138302907,595.386918087733 L 178.9268550618958,611.9117979420656 L 208.74089046382412,621.999343303185 L 242.47463828371863,625.4141667412913 L 242.47463828371863,625.4141667412913 L 263.58104448907704,624.250875240398 L 283.0192702136824,620.7132409693527 L 300.8711893461603,614.729624275608 L 317.21867577513683,606.2283855066161 L 332.1436033892379,595.1378850098291 L 345.7278460770894,581.3864831326997 L 358.0532777273173,564.9025402226799 L 369.20177222854755,545.6144166272222 L 379.25520346940607,523.4504726937789 L 379.25520346940607,523.4504726937789 L 393.281224014635,476.649311107984 L 400.0,427.66825723752385 L 399.84136934078737,378.1038519106039 L 393.23516995228294,329.55263595542993 L 380.61123974977295,283.61115020020713 L 362.3994166485436,241.87593547314157 L 339.0295385638809,205.94353260243835 L 310.9314434110709,177.41048241630313 L 278.53496910539985,157.87332574294155 L 278.53496910539985,157.87332574294155 L 262.9072906139262,151.60997326305838 L 249.5823152400569,146.91245890314568 L 237.9152861108624,143.780782663204 L 227.26144635341382,142.2149445432332 L 216.97603909478184,142.2149445432332 L 206.4143074620374,143.7807826632041 L 194.93149458225133,146.91245890314576 L 181.88284358249436,151.60997326305827 L 166.62359758983743,157.87332574294155 L 166.62359758983743,157.87332574294155 L 166.62359758983743,157.87332574294155 L 166.62359758983743,157.87332574294155 L 166.62359758983743,157.87332574294155 L 166.62359758983743,157.87332574294155 L 166.62359758983743,157.87332574294155 L 166.62359758983743,157.87332574294155 L 166.62359758983743,157.87332574294155 L 166.62359758983743,157.87332574294155 L 166.62359758983743,157.87332574294155 L 309.6214611930561,282.2192940935665 L 309.6214611930561,282.2192940935665 L 309.6214611930561,282.2192940935665 L 309.6214611930561,282.2192940935665 L 309.6214611930561,282.2192940935665 L 309.6214611930561,282.2192940935665 L 309.6214611930561,282.2192940935665 L 309.6214611930561,282.2192940935665 L 309.6214611930561,282.2192940935665 L 309.6214611930561,282.2192940935665 L 309.6214611930561,282.2192940935665 L 321.82578771635815,309.43553923763466 L 331.0826542491269,337.0099826444413 L 337.3920607913623,364.65606570379555 L 340.7540073430644,392.087229805507 L 341.1684939042332,419.01691633938435 L 338.6355204748686,445.1585666952373 L 333.1550870549707,470.2256222628748 L 324.72719364453945,493.93152443210647 L 313.3518402435749,515.9897145927414 L 313.3518402435749,515.9897145927414 L 289.0557637938313,547.7073179052225 L 264.0535250546892,566.263693621086 L 239.29690798142494,572.4059409740435 L 215.73769652931472,566.8811591978065 L 194.32767465363509,550.4364475260866 L 176.0186263096624,523.8189051925956 L 161.76233545267309,487.77563143104476 L 152.51058603794345,443.05372547514577 L 149.21516202074994,390.40028655861016 L 149.21516202074994,390.40028655861016 L 149.90938436805723,361.1047857846462 L 152.00569705808357,335.3707991659097 L 155.52456856298534,313.16762399416643 L 160.48646735491906,294.4645575611815 L 166.91186190604122,279.23089715872015 L 174.82122068850822,267.4359400785478 L 184.23501217447668,259.0489836124295 L 195.17370483610296,254.03932505213058 L 207.65776714554366,252.37626168941648 L 207.65776714554366,252.37626168941648 L 213.22348586609354,252.1033487273302 L 218.28772701880973,251.29825548917512 L 222.8095536593791,249.9814504471081 L 226.7480288434887,248.17340207328567 L 230.06221562682566,245.8945788398641 L 232.71117706507698,243.16544921899987 L 234.65397621392967,240.00648168284954 L 235.8496761290708,236.4381447035696 L 236.2573398661874,232.4809067533165 L 236.2573398661874,232.4809067533165 L 237.74983262759747,222.06927724971965 L 241.93392947758494,216.3346936338787 L 248.36955826478533,214.98036305952488 L 256.6166468378343,217.70949268038908 L 266.2351230453675,224.22528965020234 L 276.78491473602065,234.23096112269573 L 287.82594975842943,247.42971425160013 L 298.91815596122933,263.5247561906467 L 309.6214611930561,282.2192940935665 L 309.6214611930561,282.2192940935665 L 309.6214611930561,282.2192940935665 L 309.6214611930561,282.2192940935665 L 309.6214611930561,282.2192940935665 L 309.6214611930561,282.2192940935665 L 309.6214611930561,282.2192940935665 L 309.6214611930561,282.2192940935665 L 309.6214611930561,282.2192940935665 L 309.6214611930561,282.2192940935665 L 309.6214611930561,282.2192940935665M273.5611303713749 9.901623405697876 L 105.6940730980312,28.553518658291615 L 102.70226475115882,36.29060113344176 L 101.83917750856051,45.04087298033749 L 102.83872123220206,54.25168545075398 L 105.43480578404912,63.370389796466526 L 109.36134102606746,71.84433726924989 L 114.35223682022286,79.12087912087918 L 120.14140302848102,84.64736660312906 L 126.46274951280775,87.87115096777491 L 133.0501861351687,88.23958346659158 L 133.0501861351687,88.23958346659158 L 143.28271650739637,85.00556486586761 L 152.27690431415695,79.7758702298865 L 159.8075963617291,73.0417428904041 L 165.64963945639153,65.29442617917587 L 169.57788040442293,57.02516342795727 L 171.36716601210202,48.72519796850419 L 170.79234308570747,40.88577313257167 L 167.62825843151808,33.99813225191573 L 161.64975885581242,28.553518658291615 L 161.64975885581242,28.553518658291615 L 153.5084240555719,23.763896173675167 L 145.70481904591335,20.171679310212426 L 138.3003492433062,17.776868067903955 L 131.35642006421986,16.579462446749897 L 124.93443692512382,16.579462446749968 L 119.09580524248744,17.776868067904168 L 113.90193043278029,20.171679310212426 L 109.41421791247173,23.76389617367503 L 105.6940730980312,28.553518658291615 L 105.6940730980312,28.553518658291615 L 105.6940730980312,28.553518658291615 L 105.6940730980312,28.553518658291615 L 105.6940730980312,28.553518658291615 L 105.6940730980312,28.553518658291615 L 105.6940730980312,28.553518658291615 L 105.6940730980312,28.553518658291615 L 105.6940730980312,28.553518658291615 L 105.6940730980312,28.553518658291615 L 105.6940730980312,28.553518658291615 L 166.62359758983743,157.87332574294155 L 149.12305389604575,166.07094884161253 L 135.2147270657166,174.3606800649874 L 124.34596835062494,184.40046565774145 L 115.96412900254579,197.84825186454987 L 109.51656027325411,216.36198493008737 L 104.45061341452495,241.59961109902898 L 100.21363967813329,275.2190766160498 L 96.25299031585412,318.87832772582476 L 92.01601657946246,374.23531067302895 L 92.01601657946246,374.23531067302895 L 90.38024451295698,424.4410614608519 L 93.6671400000853,469.62180233425863 L 101.73342373575205,509.54214586344966 L 114.43581641486185,543.9667046186255 L 131.63103873231933,572.6600911699863 L 153.17581138302907,595.386918087733 L 178.9268550618958,611.9117979420656 L 208.74089046382412,621.999343303185 L 242.47463828371863,625.4141667412913 L 242.47463828371863,625.4141667412913 L 263.58104448907704,624.250875240398 L 283.0192702136824,620.7132409693527 L 300.8711893461603,614.729624275608 L 317.21867577513683,606.2283855066161 L 332.1436033892379,595.1378850098291 L 345.7278460770894,581.3864831326997 L 358.0532777273173,564.9025402226799 L 369.20177222854755,545.6144166272222 L 379.25520346940607,523.4504726937789 L 379.25520346940607,523.4504726937789 L 393.281224014635,476.649311107984 L 400.0,427.66825723752385 L 399.84136934078737,378.1038519106039 L 393.23516995228294,329.55263595542993 L 380.61123974977295,283.61115020020713 L 362.3994166485436,241.87593547314157 L 339.0295385638809,205.94353260243835 L 310.9314434110709,177.41048241630313 L 278.53496910539985,157.87332574294155 L 278.53496910539985,157.87332574294155 L 262.9072906139262,151.60997326305838 L 249.5823152400569,146.91245890314568 L 237.9152861108624,143.780782663204 L 227.26144635341382,142.2149445432332 L 216.97603909478184,142.2149445432332 L 206.4143074620374,143.7807826632041 L 194.93149458225133,146.91245890314576 L 181.88284358249436,151.60997326305827 L 166.62359758983743,157.87332574294155 L 166.62359758983743,157.87332574294155 L 166.62359758983743,157.87332574294155 L 166.62359758983743,157.87332574294155 L 166.62359758983743,157.87332574294155 L 166.62359758983743,157.87332574294155 L 166.62359758983743,157.87332574294155 L 166.62359758983743,157.87332574294155 L 166.62359758983743,157.87332574294155 L 166.62359758983743,157.87332574294155 L 166.62359758983743,157.87332574294155 L 309.6214611930561,282.2192940935665 L 309.6214611930561,282.2192940935665 L 309.6214611930561,282.2192940935665 L 309.6214611930561,282.2192940935665 L 309.6214611930561,282.2192940935665 L 309.6214611930561,282.2192940935665 L 309.6214611930561,282.2192940935665 L 309.6214611930561,282.2192940935665 L 309.6214611930561,282.2192940935665 L 309.6214611930561,282.2192940935665 L 309.6214611930561,282.2192940935665 L 321.82578771635815,309.43553923763466 L 331.0826542491269,337.0099826444413 L 337.3920607913623,364.65606570379555 L 340.7540073430644,392.087229805507 L 341.1684939042332,419.01691633938435 L 338.6355204748686,445.1585666952373 L 333.1550870549707,470.2256222628748 L 324.72719364453945,493.93152443210647 L 313.3518402435749,515.9897145927414 L 313.3518402435749,515.9897145927414 L 289.0557637938313,547.7073179052225 L 264.0535250546892,566.263693621086 L 239.29690798142494,572.4059409740435 L 215.73769652931472,566.8811591978065 L 194.32767465363509,550.4364475260866 L 176.0186263096624,523.8189051925956 L 161.76233545267309,487.77563143104476 L 152.51058603794345,443.05372547514577 L 149.21516202074994,390.40028655861016 L 149.21516202074994,390.40028655861016 L 149.90938436805723,361.1047857846462 L 152.00569705808357,335.3707991659097 L 155.52456856298534,313.16762399416643 L 160.48646735491906,294.4645575611815 L 166.91186190604122,279.23089715872015 L 174.82122068850822,267.4359400785478 L 184.23501217447668,259.0489836124295 L 195.17370483610296,254.03932505213058 L 207.65776714554366,252.37626168941648 L 207.65776714554366,252.37626168941648 L 213.22348586609354,252.1033487273302 L 218.28772701880973,251.29825548917512 L 222.8095536593791,249.9814504471081 L 226.7480288434887,248.17340207328567 L 230.06221562682566,245.8945788398641 L 232.71117706507698,243.16544921899987 L 234.65397621392967,240.00648168284954 L 235.8496761290708,236.4381447035696 L 236.2573398661874,232.4809067533165 L 236.2573398661874,232.4809067533165 L 237.74983262759747,222.06927724971965 L 241.93392947758494,216.3346936338787 L 248.36955826478533,214.98036305952488 L 256.6166468378343,217.70949268038908 L 266.2351230453675,224.22528965020234 L 276.78491473602065,234.23096112269573 L 287.82594975842943,247.42971425160013 L 298.91815596122933,263.5247561906467 L 309.6214611930561,282.2192940935665 L 309.6214611930561,282.2192940935665 L 309.6214611930561,282.2192940935665 L 309.6214611930561,282.2192940935665 L 309.6214611930561,282.2192940935665 L 309.6214611930561,282.2192940935665 L 309.6214611930561,282.2192940935665 L 309.6214611930561,282.2192940935665 L 309.6214611930561,282.2192940935665 L 309.6214611930561,282.2192940935665 L 309.6214611930561,282.2192940935665 L 273.5611303713749,9.901623405697876 L 269.87680538320814,14.61960623776705 L 267.1135616420832,18.907751154549704 L 265.2713991479999,22.888868988985315 L 264.3503179009582,26.685770574012654 L 264.35031790095826,30.421266742570506 L 265.2713991479999,34.21816832759785 L 267.1135616420832,38.19928616203353 L 269.8768053832082,42.48743107881639 L 273.5611303713749,47.205413910885355 L 273.5611303713749,47.205413910885355 L 281.5881828687416,55.17958952184797 L 290.4339742523678,60.89199895951924 L 299.6277296626541,64.38357916821238 L 308.6986742400014,65.69526709224021 L 317.17603312481083,64.86799967591583 L 324.58903145748315,61.94271386355208 L 330.4668943784194,56.96034659946187 L 334.3388470280205,49.96183482795827 L 335.73411454668735,40.98811549335411 L 335.73411454668735,40.98811549335411 L 334.25697313939463,30.301867321657845 L 330.1803357682287,20.802790535037225 L 324.0363827092583,12.75697527152705 L 316.35729423855156,6.430511669161134 L 307.6752506321773,2.0894898659741323 L 298.52243216620406,0.0 L 289.4310191167002,0.4281322092731131 L 280.93319175973426,3.639976631827707 L 273.5611303713749,9.901623405697876 L 273.5611303713749,9.901623405697876 L 273.5611303713749,9.901623405697876 L 273.5611303713749,9.901623405697876 L 273.5611303713749,9.901623405697876 L 273.5611303713749,9.901623405697876 L 273.5611303713749,9.901623405697876 L 273.5611303713749,9.901623405697876 L 273.5611303713749,9.901623405697876 L 273.5611303713749,9.901623405697876 L 273.5611303713749,9.901623405697876"/></svg>
