<?xml version="1.0" encoding="utf-8"?>
<svg xmlns="http://www.w3.org/2000/svg"  viewBox="0,0,400,457.2676380083787" width="100%">
<path d="M214.05405405405406 141.59196233270302 L 214.05405405405406,141.59196233270302 L 193.67515663811957,156.35339042746452 L 170.2621139658177,175.8395432469506 L 145.2652652652653,198.52889926963994 L 120.1349497645794,222.89993697401098 L 96.32150669187708,247.43113483854216 L 75.27527527527528,270.60097134171207 L 58.446594742891044,290.887924961999 L 47.28580432284137,306.77047417788157 L 43.24324324324324,316.7270974678382 L 43.24324324324324,316.7270974678382 L 43.400437474511534,320.7073740407073 L 43.860156452749045,325.34608682756823 L 44.60460460460462,330.5008712416119 L 45.61598635672709,336.02936269602935 L 46.8765061357654,341.78919660401135 L 48.36836836836836,347.6380083787491 L 50.07377748118489,353.4334334334334 L 51.97493790086383,359.0331071812552 L 54.054054054054056,364.2946650354057 L 54.054054054054056,364.2946650354057 L 59.94438883327771,376.26960293626956 L 67.54309865420977,384.81889296704105 L 76.87687687687688,389.9603307010714 L 87.97241686130575,391.71171171171164 L 100.85641196752309,390.090831572313 L 115.55555555555556,385.11548585622654 L 132.09654098542987,376.80347013680347 L 150.5060616171727,365.1725799873947 L 170.8108108108108,350.24061098135167 L 170.8108108108108,350.24061098135167 L 176.8168168168168,345.43580617654686 L 182.82282282282284,340.63100137174206 L 188.8288288288288,335.8261965669373 L 194.83483483483485,331.02139176213245 L 200.84084084084083,326.21658695732765 L 206.84684684684683,321.4117821525229 L 212.85285285285283,316.6069773477181 L 218.85885885885887,311.80217254291324 L 224.86486486486487,306.99736773810844 L 224.86486486486487,306.99736773810844 L 225.94594594594594,310.8412115819523 L 227.02702702702703,314.68505542579607 L 228.1081081081081,318.5288992696399 L 229.1891891891892,322.3727431134838 L 230.27027027027026,326.21658695732765 L 231.35135135135135,330.0604308011715 L 232.43243243243242,333.90427464501533 L 233.51351351351352,337.7481184888592 L 234.59459459459458,341.591962332703 L 234.59459459459458,341.591962332703 L 240.30845660475288,357.36477217958696 L 248.0332184035888,370.07674341007663 L 257.6976976976977,379.7100804508211 L 269.2307121936751,386.24698772846915 L 282.56107959811663,389.66966966966964 L 297.61761761761755,389.9603307010714 L 314.32914395877356,387.1011752493233 L 332.62447632818,381.07440774107437 L 352.43243243243245,371.8622326029733 L 352.43243243243245,371.8622326029733 L 363.4597560523486,365.5996737478219 L 372.82319356393435,359.7197197197197 L 380.62062062062074,354.12449486523553 L 386.94991287583883,348.7161235309383 L 391.90894598302003,343.39673006339666 L 395.59559559559557,338.0684388091795 L 398.1077373669967,332.6333741148555 L 399.54324695065435,326.9936603269936 L 400.0,321.0514217921625 L 400.0,321.0514217921625 L 400.0,318.2886590293997 L 400.0,315.525896266637 L 400.0,312.76313350387426 L 400.0,310.0003707411114 L 400.0,307.2376079783487 L 400.0,304.47484521558584 L 400.0,301.71208245282315 L 400.0,298.94931969006035 L 400.0,296.1865569272976 L 400.0,296.1865569272976 L 395.6756756756757,299.0694398101805 L 391.35135135135135,301.9523226930634 L 387.02702702702703,304.83520557594625 L 382.7027027027027,307.71808845882913 L 378.3783783783784,310.6009713417121 L 374.05405405405406,313.4838542245949 L 369.72972972972974,316.3667371074778 L 365.4054054054054,319.24961999036066 L 361.0810810810811,322.13250287324354 L 361.0810810810811,322.13250287324354 L 353.624735846958,327.0455640826011 L 345.7946835724614,331.64720275831377 L 337.77777777777777,335.8662366069773 L 329.76087198309415,339.63148333518694 L 321.9308197085974,342.8717606495384 L 314.47447447447445,345.515886256627 L 307.578689800912,347.49267786304824 L 301.43031920809693,348.7309531753976 L 296.2162162162162,349.1595299002706 L 296.2162162162162,349.1595299002706 L 289.3471249026804,348.92967041115185 L 283.7860082304527,348.1214547881214 L 279.3993993993994,346.556927297668 L 276.05383160938715,344.0581322062803 L 273.6158380602825,340.447113780447 L 271.95195195195197,335.54591628665696 L 270.928706484262,329.17658399139884 L 270.41263485707924,321.1611611611611 L 270.27027027027026,311.32169206243276 L 270.27027027027026,311.32169206243276 L 270.6573239906573,303.87424461498534 L 271.7650984317651,295.3857561264968 L 273.51351351351354,286.09646683720746 L 275.8224891558225,276.24661698735764 L 278.6119452786119,266.0764468171875 L 281.8018018018018,255.82619656693726 L 285.31197864531197,245.73610647684717 L 289.06239572906236,236.04641678715748 L 292.97297297297297,226.9973677381084 L 292.97297297297297,226.9973677381084 L 304.2182923664405,199.0479368257146 L 309.4220146071998,174.6131316501686 L 309.02902902902906,154.1645349052756 L 303.48422496570646,138.1737292848403 L 293.2324917510103,127.11229748266778 L 278.71871871871866,121.45182219256296 L 260.38779520261005,121.66388610833049 L 238.68461053646237,128.22007192377558 L 214.05405405405406,141.59196233270302 L 214.05405405405406,141.59196233270302 L 214.05405405405406,141.59196233270302 L 214.05405405405406,141.59196233270302 L 214.05405405405406,141.59196233270302 L 214.05405405405406,141.59196233270302 L 214.05405405405406,141.59196233270302 L 214.05405405405406,141.59196233270302 L 214.05405405405406,141.59196233270302 L 214.05405405405406,141.59196233270302 L 214.05405405405406,141.59196233270302 L 242.16216216216216,220.51088125162195 L 242.16216216216216,220.51088125162195 L 242.16216216216216,220.51088125162195 L 242.16216216216216,220.51088125162195 L 242.16216216216216,220.51088125162195 L 242.16216216216216,220.51088125162195 L 242.16216216216216,220.51088125162195 L 242.16216216216216,220.51088125162195 L 242.16216216216216,220.51088125162195 L 242.16216216216216,220.51088125162195 L 242.16216216216216,220.51088125162195 L 224.01067734401062,244.56011567122678 L 202.89622956289625,268.44029214399575 L 180.1801801801802,291.10147184221256 L 157.2238905572239,311.49371593816034 L 135.3887220553887,328.5670856041226 L 116.03603603603602,341.2716420123827 L 100.52719386052722,348.5574463352241 L 90.22355689022355,349.37455974493 L 86.48648648648648,342.67304341378406 L 86.48648648648648,342.67304341378406 L 89.43758573388202,333.7455974493011 L 97.60278797315836,320.02224446668885 L 109.94994994994995,302.71308345382414 L 125.44692840989136,283.0282133985837 L 143.06158009861716,262.17773328884437 L 161.76176176176176,241.3717421124828 L 180.5153301449597,221.8203388573759 L 198.29014199384565,204.73362251140026 L 214.05405405405406,191.32169206243276 L 214.05405405405406,191.32169206243276 L 232.1017313609906,178.3353724094465 L 246.5636006376747,169.59329700070433 L 257.3773773773774,165.01538575612648 L 264.48077707336967,164.5215585956326 L 267.81151521892264,168.03173543914275 L 267.30730730730727,175.46583620657694 L 262.90586883179475,186.7437808178548 L 254.54491528565603,201.78548919289656 L 242.16216216216216,220.51088125162195 L 242.16216216216216,220.51088125162195 L 242.16216216216216,220.51088125162195 L 242.16216216216216,220.51088125162195 L 242.16216216216216,220.51088125162195 L 242.16216216216216,220.51088125162195 L 242.16216216216216,220.51088125162195 L 242.16216216216216,220.51088125162195 L 242.16216216216216,220.51088125162195 L 242.16216216216216,220.51088125162195 L 242.16216216216216,220.51088125162195M250.8108108108108 4.294665035405726 L 214.05405405405406,141.59196233270302 L 193.67515663811957,156.35339042746452 L 170.2621139658177,175.8395432469506 L 145.2652652652653,198.52889926963994 L 120.1349497645794,222.89993697401098 L 96.32150669187708,247.43113483854216 L 75.27527527527528,270.60097134171207 L 58.446594742891044,290.887924961999 L 47.28580432284137,306.77047417788157 L 43.24324324324324,316.7270974678382 L 43.24324324324324,316.7270974678382 L 43.400437474511534,320.7073740407073 L 43.860156452749045,325.34608682756823 L 44.60460460460462,330.5008712416119 L 45.61598635672709,336.02936269602935 L 46.8765061357654,341.78919660401135 L 48.36836836836836,347.6380083787491 L 50.07377748118489,353.4334334334334 L 51.97493790086383,359.0331071812552 L 54.054054054054056,364.2946650354057 L 54.054054054054056,364.2946650354057 L 59.94438883327771,376.26960293626956 L 67.54309865420977,384.81889296704105 L 76.87687687687688,389.9603307010714 L 87.97241686130575,391.71171171171164 L 100.85641196752309,390.090831572313 L 115.55555555555556,385.11548585622654 L 132.09654098542987,376.80347013680347 L 150.5060616171727,365.1725799873947 L 170.8108108108108,350.24061098135167 L 170.8108108108108,350.24061098135167 L 176.8168168168168,345.43580617654686 L 182.82282282282284,340.63100137174206 L 188.8288288288288,335.8261965669373 L 194.83483483483485,331.02139176213245 L 200.84084084084083,326.21658695732765 L 206.84684684684683,321.4117821525229 L 212.85285285285283,316.6069773477181 L 218.85885885885887,311.80217254291324 L 224.86486486486487,306.99736773810844 L 224.86486486486487,306.99736773810844 L 225.94594594594594,310.8412115819523 L 227.02702702702703,314.68505542579607 L 228.1081081081081,318.5288992696399 L 229.1891891891892,322.3727431134838 L 230.27027027027026,326.21658695732765 L 231.35135135135135,330.0604308011715 L 232.43243243243242,333.90427464501533 L 233.51351351351352,337.7481184888592 L 234.59459459459458,341.591962332703 L 234.59459459459458,341.591962332703 L 240.30845660475288,357.36477217958696 L 248.0332184035888,370.07674341007663 L 257.6976976976977,379.7100804508211 L 269.2307121936751,386.24698772846915 L 282.56107959811663,389.66966966966964 L 297.61761761761755,389.9603307010714 L 314.32914395877356,387.1011752493233 L 332.62447632818,381.07440774107437 L 352.43243243243245,371.8622326029733 L 352.43243243243245,371.8622326029733 L 363.4597560523486,365.5996737478219 L 372.82319356393435,359.7197197197197 L 380.62062062062074,354.12449486523553 L 386.94991287583883,348.7161235309383 L 391.90894598302003,343.39673006339666 L 395.59559559559557,338.0684388091795 L 398.1077373669967,332.6333741148555 L 399.54324695065435,326.9936603269936 L 400.0,321.0514217921625 L 400.0,321.0514217921625 L 400.0,318.2886590293997 L 400.0,315.525896266637 L 400.0,312.76313350387426 L 400.0,310.0003707411114 L 400.0,307.2376079783487 L 400.0,304.47484521558584 L 400.0,301.71208245282315 L 400.0,298.94931969006035 L 400.0,296.1865569272976 L 400.0,296.1865569272976 L 395.6756756756757,299.0694398101805 L 391.35135135135135,301.9523226930634 L 387.02702702702703,304.83520557594625 L 382.7027027027027,307.71808845882913 L 378.3783783783784,310.6009713417121 L 374.05405405405406,313.4838542245949 L 369.72972972972974,316.3667371074778 L 365.4054054054054,319.24961999036066 L 361.0810810810811,322.13250287324354 L 361.0810810810811,322.13250287324354 L 353.624735846958,327.0455640826011 L 345.7946835724614,331.64720275831377 L 337.77777777777777,335.8662366069773 L 329.76087198309415,339.63148333518694 L 321.9308197085974,342.8717606495384 L 314.47447447447445,345.515886256627 L 307.578689800912,347.49267786304824 L 301.43031920809693,348.7309531753976 L 296.2162162162162,349.1595299002706 L 296.2162162162162,349.1595299002706 L 289.3471249026804,348.92967041115185 L 283.7860082304527,348.1214547881214 L 279.3993993993994,346.556927297668 L 276.05383160938715,344.0581322062803 L 273.6158380602825,340.447113780447 L 271.95195195195197,335.54591628665696 L 270.928706484262,329.17658399139884 L 270.41263485707924,321.1611611611611 L 270.27027027027026,311.32169206243276 L 270.27027027027026,311.32169206243276 L 270.6573239906573,303.87424461498534 L 271.7650984317651,295.3857561264968 L 273.51351351351354,286.09646683720746 L 275.8224891558225,276.24661698735764 L 278.6119452786119,266.0764468171875 L 281.8018018018018,255.82619656693726 L 285.31197864531197,245.73610647684717 L 289.06239572906236,236.04641678715748 L 292.97297297297297,226.9973677381084 L 292.97297297297297,226.9973677381084 L 304.2182923664405,199.0479368257146 L 309.4220146071998,174.6131316501686 L 309.02902902902906,154.1645349052756 L 303.48422496570646,138.1737292848403 L 293.2324917510103,127.11229748266778 L 278.71871871871866,121.45182219256296 L 260.38779520261005,121.66388610833049 L 238.68461053646237,128.22007192377558 L 214.05405405405406,141.59196233270302 L 214.05405405405406,141.59196233270302 L 214.05405405405406,141.59196233270302 L 214.05405405405406,141.59196233270302 L 214.05405405405406,141.59196233270302 L 214.05405405405406,141.59196233270302 L 214.05405405405406,141.59196233270302 L 214.05405405405406,141.59196233270302 L 214.05405405405406,141.59196233270302 L 214.05405405405406,141.59196233270302 L 214.05405405405406,141.59196233270302 L 242.16216216216216,220.51088125162195 L 242.16216216216216,220.51088125162195 L 242.16216216216216,220.51088125162195 L 242.16216216216216,220.51088125162195 L 242.16216216216216,220.51088125162195 L 242.16216216216216,220.51088125162195 L 242.16216216216216,220.51088125162195 L 242.16216216216216,220.51088125162195 L 242.16216216216216,220.51088125162195 L 242.16216216216216,220.51088125162195 L 242.16216216216216,220.51088125162195 L 224.01067734401062,244.56011567122678 L 202.89622956289625,268.44029214399575 L 180.1801801801802,291.10147184221256 L 157.2238905572239,311.49371593816034 L 135.3887220553887,328.5670856041226 L 116.03603603603602,341.2716420123827 L 100.52719386052722,348.5574463352241 L 90.22355689022355,349.37455974493 L 86.48648648648648,342.67304341378406 L 86.48648648648648,342.67304341378406 L 89.43758573388202,333.7455974493011 L 97.60278797315836,320.02224446668885 L 109.94994994994995,302.71308345382414 L 125.44692840989136,283.0282133985837 L 143.06158009861716,262.17773328884437 L 161.76176176176176,241.3717421124828 L 180.5153301449597,221.8203388573759 L 198.29014199384565,204.73362251140026 L 214.05405405405406,191.32169206243276 L 214.05405405405406,191.32169206243276 L 232.1017313609906,178.3353724094465 L 246.5636006376747,169.59329700070433 L 257.3773773773774,165.01538575612648 L 264.48077707336967,164.5215585956326 L 267.81151521892264,168.03173543914275 L 267.30730730730727,175.46583620657694 L 262.90586883179475,186.7437808178548 L 254.54491528565603,201.78548919289656 L 242.16216216216216,220.51088125162195 L 242.16216216216216,220.51088125162195 L 242.16216216216216,220.51088125162195 L 242.16216216216216,220.51088125162195 L 242.16216216216216,220.51088125162195 L 242.16216216216216,220.51088125162195 L 242.16216216216216,220.51088125162195 L 242.16216216216216,220.51088125162195 L 242.16216216216216,220.51088125162195 L 242.16216216216216,220.51088125162195 L 242.16216216216216,220.51088125162195 L 250.8108108108108,4.294665035405726 L 241.20120120120114,8.733177622066558 L 233.2732732732733,14.097060022985888 L 227.02702702702703,20.35072109146178 L 222.46246246246247,27.458569680791857 L 219.57957957957962,35.38501464427389 L 218.3783783783784,44.09446483520555 L 218.85885885885887,53.551329106884545 L 221.021021021021,63.72001631260888 L 224.86486486486487,74.56493530567599 L 224.86486486486487,74.56493530567599 L 227.90642494346196,79.72565157750346 L 231.25940755570383,84.3791940088235 L 234.91491491491493,88.49886923960989 L 238.8640492344196,92.05798390983571 L 243.0979127275424,95.02984465947428 L 247.60760760760758,97.38775812849886 L 252.3842360879398,99.10503095688276 L 257.41890038186335,100.15496978459937 L 262.7027027027027,100.51088125162194 L 262.7027027027027,100.51088125162194 L 273.2717903088273,99.79312645979314 L 282.63077892707526,97.65172579987387 L 290.77077077077087,94.10447484521548 L 297.68286805323845,89.1691691691691 L 303.3581729878026,82.86360434508578 L 307.78778778778775,75.20557594631666 L 310.9628146665184,66.21287954621285 L 312.87435583731883,55.903310718125475 L 313.5135135135135,44.29466503540573 L 313.5135135135135,44.29466503540573 L 312.53772290809326,33.099766433099745 L 309.71119267415565,23.364104845586308 L 305.1851851851852,15.185555926296557 L 299.11096281466655,8.661995328661883 L 291.63978793608425,3.8912987061134903 L 282.9229229229229,0.9713417120824611 L 273.1116301486672,0.0 L 262.3571719868016,1.075149223297312 L 250.8108108108108,4.294665035405726 L 250.8108108108108,4.294665035405726 L 250.8108108108108,4.294665035405726 L 250.8108108108108,4.294665035405726 L 250.8108108108108,4.294665035405726 L 250.8108108108108,4.294665035405726 L 250.8108108108108,4.294665035405726 L 250.8108108108108,4.294665035405726 L 250.8108108108108,4.294665035405726 L 250.8108108108108,4.294665035405726 L 250.8108108108108,4.294665035405726 L 267.02702702702703,54.024394765135455 L 267.02702702702703,54.024394765135455 L 267.02702702702703,54.024394765135455 L 267.02702702702703,54.024394765135455 L 267.02702702702703,54.024394765135455 L 267.02702702702703,54.024394765135455 L 267.02702702702703,54.024394765135455 L 267.02702702702703,54.024394765135455 L 267.02702702702703,54.024394765135455 L 267.02702702702703,54.024394765135455 L 267.02702702702703,54.024394765135455 L 265.62859155451747,54.868201534868234 L 264.32803173543914,55.249323397471464 L 263.14314314314316,55.185555926296615 L 262.0917213509806,54.69469469469472 L 261.1915619323027,53.794535276016745 L 260.46046046046047,52.50287324361395 L 259.91621250880513,50.83750417083747 L 259.5766136506877,48.816223631038405 L 259.4594594594595,46.45682719756789 L 259.4594594594595,46.45682719756789 L 259.5766136506877,44.09743076409744 L 259.91621250880513,42.076150224298246 L 260.46046046046047,40.41078115152188 L 261.19156193230265,39.11911911911903 L 262.0917213509806,38.21895970044112 L 263.1431431431431,37.72809846883922 L 264.32803173543914,37.664330997664315 L 265.62859155451747,38.045452860267666 L 267.02702702702703,38.88925963000032 L 267.02702702702703,38.88925963000032 L 267.987987987988,40.40484929373818 L 268.70870870870874,42.045007970933824 L 269.18918918918916,43.77414451488516 L 269.42942942942943,45.55666777888992 L 269.42942942942943,47.356986616245855 L 269.18918918918916,49.139509880250614 L 268.7087087087087,50.86864642420195 L 267.987987987988,52.50880510139772 L 267.02702702702703,54.024394765135455 L 267.02702702702703,54.024394765135455 L 267.02702702702703,54.024394765135455 L 267.02702702702703,54.024394765135455 L 267.02702702702703,54.024394765135455 L 267.02702702702703,54.024394765135455 L 267.02702702702703,54.024394765135455 L 267.02702702702703,54.024394765135455 L 267.02702702702703,54.024394765135455 L 267.02702702702703,54.024394765135455 L 267.02702702702703,54.024394765135455"/></svg>
