<?xml version="1.0" encoding="utf-8"?>
<svg xmlns="http://www.w3.org/2000/svg"  viewBox="0,0,400,538.9629629629629" width="100%">
<path d="M235.0 179.96296296296293 L 235.0,179.96296296296293 L 213.25102880658432,194.19478737997258 L 191.74897119341568,211.66941015089157 L 171.11111111111114,231.5555555555555 L 151.95473251028807,253.02194787379966 L 134.89711934156378,275.2373113854595 L 120.55555555555554,297.3703703703703 L 109.54732510288066,318.5898491083676 L 102.48971193415639,338.06447187928666 L 100.0,354.96296296296293 L 100.0,354.96296296296293 L 101.64883401920437,374.77229080932784 L 106.52400548696845,390.84499314128936 L 114.51851851851852,403.1481481481481 L 125.52537722908095,411.64883401920434 L 139.43758573388203,416.31412894375853 L 156.14814814814815,417.1111111111111 L 175.55006858710559,414.00685871056237 L 197.5363511659808,406.9684499314129 L 222.0,395.96296296296293 L 222.0,395.96296296296293 L 227.0,393.4074074074074 L 232.0,390.85185185185185 L 237.0,388.2962962962963 L 242.0,385.7407407407407 L 247.0,383.18518518518516 L 252.0,380.62962962962956 L 257.0,378.074074074074 L 262.0,375.5185185185185 L 267.0,372.96296296296293 L 267.0,372.96296296296293 L 268.22222222222223,376.074074074074 L 269.44444444444446,379.18518518518516 L 270.6666666666667,382.2962962962963 L 271.8888888888889,385.4074074074074 L 273.1111111111111,388.5185185185185 L 274.3333333333333,391.62962962962956 L 275.55555555555554,394.7407407407407 L 276.77777777777777,397.85185185185185 L 278.0,400.96296296296293 L 278.0,400.96296296296293 L 280.96570644718787,408.24417009602195 L 284.0219478737997,414.17558299039774 L 287.40740740740745,418.88888888888886 L 291.360768175583,422.51577503429354 L 296.1207133058985,425.1879286694101 L 301.9259259259259,427.037037037037 L 309.0150891632373,428.1947873799725 L 317.6268861454047,428.79286694101506 L 328.0,428.96296296296293 L 328.0,428.96296296296293 L 344.6913580246913,428.65569272976677 L 358.8641975308642,427.68998628257884 L 370.6666666666668,425.99999999999994 L 380.2469135802469,423.519890260631 L 387.7530864197531,420.18381344307267 L 393.33333333333326,415.9259259259259 L 397.1358024691358,410.6803840877915 L 399.30864197530866,404.3813443072702 L 400.0,396.96296296296293 L 400.0,396.96296296296293 L 399.8079561042523,392.1042524005487 L 399.20438957475994,388.1673525377229 L 398.14814814814815,385.1111111111111 L 396.59807956104254,382.8943758573388 L 394.5130315500686,381.47599451303154 L 391.85185185185185,380.8148148148148 L 388.57338820301777,380.8696844993141 L 384.636488340192,381.599451303155 L 380.0,382.96296296296293 L 380.0,382.96296296296293 L 376.09327846364874,384.0658436213992 L 371.7832647462277,385.3415637860082 L 367.1851851851853,386.7407407407407 L 362.4142661179698,388.2139917695473 L 357.58573388203024,389.71193415637856 L 352.8148148148147,391.18518518518516 L 348.2167352537723,392.5843621399177 L 343.9067215363511,393.8600823045267 L 340.0,394.96296296296293 L 340.0,394.96296296296293 L 331.153635116598,396.5651577503429 L 323.96982167352536,395.4101508916323 L 318.48148148148147,391.5555555555555 L 314.721536351166,385.0589849108367 L 312.7229080932785,375.9780521262002 L 312.51851851851853,364.3703703703703 L 314.1412894375857,350.2935528120713 L 317.6241426611797,333.8052126200274 L 323.0,314.96296296296293 L 323.0,314.96296296296293 L 330.5253772290809,290.6666666666667 L 336.46227709190674,270.1481481481481 L 340.8518518518519,252.9629629629629 L 343.73525377229083,238.66666666666657 L 345.1536351165981,226.81481481481478 L 345.14814814814815,216.96296296296293 L 343.7599451303155,208.66666666666663 L 341.0301783264746,201.48148148148147 L 337.0,194.96296296296293 L 337.0,194.96296296296293 L 330.4074074074073,188.42386831275724 L 321.0740740740741,182.87242798353907 L 309.6666666666667,178.4074074074074 L 296.8518518518519,175.12757201646087 L 283.2962962962963,173.1316872427983 L 269.66666666666663,172.51851851851853 L 256.6296296296296,173.38683127572017 L 244.85185185185185,175.835390946502 L 235.0,179.96296296296293 L 235.0,179.96296296296293 L 235.0,179.96296296296293 L 235.0,179.96296296296293 L 235.0,179.96296296296293 L 235.0,179.96296296296293 L 235.0,179.96296296296293 L 235.0,179.96296296296293 L 235.0,179.96296296296293 L 235.0,179.96296296296293 L 235.0,179.96296296296293 L 290.0,222.96296296296293 L 290.0,222.96296296296293 L 290.0,222.96296296296293 L 290.0,222.96296296296293 L 290.0,222.96296296296293 L 290.0,222.96296296296293 L 290.0,222.96296296296293 L 290.0,222.96296296296293 L 290.0,222.96296296296293 L 290.0,222.96296296296293 L 290.0,222.96296296296293 L 294.25240054869676,232.72290809327853 L 294.61179698216733,245.48696844993137 L 291.4814814814815,260.4814814814814 L 285.2647462277092,276.9327846364883 L 276.36488340192045,294.06721536351165 L 265.18518518518516,311.1111111111111 L 252.1289437585734,327.2908093278463 L 237.599451303155,341.83264746227707 L 222.0,353.96296296296293 L 222.0,353.96296296296293 L 206.0823045267489,363.40740740740745 L 191.17695473251032,370.4074074074074 L 177.55555555555557,374.96296296296293 L 165.48971193415636,377.074074074074 L 155.25102880658437,376.7407407407407 L 147.11111111111111,373.96296296296293 L 141.34156378600824,368.7407407407407 L 138.2139917695473,361.0740740740741 L 138.0,350.96296296296293 L 138.0,350.96296296296293 L 140.46227709190666,339.73936899862827 L 145.62414266117972,327.02606310013715 L 153.14814814814815,313.25925925925924 L 162.6968449931413,298.875171467764 L 173.93278463648835,284.3100137174211 L 186.51851851851848,270.0 L 200.11659807956102,256.3813443072702 L 214.3895747599451,243.89026063100133 L 229.0,232.96296296296293 L 229.0,232.96296296296293 L 241.62688614540465,224.62002743484226 L 251.7928669410151,218.21947873799718 L 259.925925925926,213.70370370370364 L 266.4540466392318,211.0150891632373 L 271.8052126200274,210.09602194787374 L 276.4074074074074,210.88888888888886 L 280.6886145404664,213.3360768175583 L 285.076817558299,217.37997256515774 L 290.0,222.96296296296293 L 290.0,222.96296296296293 L 290.0,222.96296296296293 L 290.0,222.96296296296293 L 290.0,222.96296296296293 L 290.0,222.96296296296293 L 290.0,222.96296296296293 L 290.0,222.96296296296293 L 290.0,222.96296296296293 L 290.0,222.96296296296293 L 290.0,222.96296296296293M259.0 27.962962962962933 L 235.0,179.96296296296293 L 213.25102880658432,194.19478737997258 L 191.74897119341568,211.66941015089157 L 171.11111111111114,231.5555555555555 L 151.95473251028807,253.02194787379966 L 134.89711934156378,275.2373113854595 L 120.55555555555554,297.3703703703703 L 109.54732510288066,318.5898491083676 L 102.48971193415639,338.06447187928666 L 100.0,354.96296296296293 L 100.0,354.96296296296293 L 101.64883401920437,374.77229080932784 L 106.52400548696845,390.84499314128936 L 114.51851851851852,403.1481481481481 L 125.52537722908095,411.64883401920434 L 139.43758573388203,416.31412894375853 L 156.14814814814815,417.1111111111111 L 175.55006858710559,414.00685871056237 L 197.5363511659808,406.9684499314129 L 222.0,395.96296296296293 L 222.0,395.96296296296293 L 227.0,393.4074074074074 L 232.0,390.85185185185185 L 237.0,388.2962962962963 L 242.0,385.7407407407407 L 247.0,383.18518518518516 L 252.0,380.62962962962956 L 257.0,378.074074074074 L 262.0,375.5185185185185 L 267.0,372.96296296296293 L 267.0,372.96296296296293 L 268.22222222222223,376.074074074074 L 269.44444444444446,379.18518518518516 L 270.6666666666667,382.2962962962963 L 271.8888888888889,385.4074074074074 L 273.1111111111111,388.5185185185185 L 274.3333333333333,391.62962962962956 L 275.55555555555554,394.7407407407407 L 276.77777777777777,397.85185185185185 L 278.0,400.96296296296293 L 278.0,400.96296296296293 L 280.96570644718787,408.24417009602195 L 284.0219478737997,414.17558299039774 L 287.40740740740745,418.88888888888886 L 291.360768175583,422.51577503429354 L 296.1207133058985,425.1879286694101 L 301.9259259259259,427.037037037037 L 309.0150891632373,428.1947873799725 L 317.6268861454047,428.79286694101506 L 328.0,428.96296296296293 L 328.0,428.96296296296293 L 344.6913580246913,428.65569272976677 L 358.8641975308642,427.68998628257884 L 370.6666666666668,425.99999999999994 L 380.2469135802469,423.519890260631 L 387.7530864197531,420.18381344307267 L 393.33333333333326,415.9259259259259 L 397.1358024691358,410.6803840877915 L 399.30864197530866,404.3813443072702 L 400.0,396.96296296296293 L 400.0,396.96296296296293 L 399.8079561042523,392.1042524005487 L 399.20438957475994,388.1673525377229 L 398.14814814814815,385.1111111111111 L 396.59807956104254,382.8943758573388 L 394.5130315500686,381.47599451303154 L 391.85185185185185,380.8148148148148 L 388.57338820301777,380.8696844993141 L 384.636488340192,381.599451303155 L 380.0,382.96296296296293 L 380.0,382.96296296296293 L 376.09327846364874,384.0658436213992 L 371.7832647462277,385.3415637860082 L 367.1851851851853,386.7407407407407 L 362.4142661179698,388.2139917695473 L 357.58573388203024,389.71193415637856 L 352.8148148148147,391.18518518518516 L 348.2167352537723,392.5843621399177 L 343.9067215363511,393.8600823045267 L 340.0,394.96296296296293 L 340.0,394.96296296296293 L 331.153635116598,396.5651577503429 L 323.96982167352536,395.4101508916323 L 318.48148148148147,391.5555555555555 L 314.721536351166,385.0589849108367 L 312.7229080932785,375.9780521262002 L 312.51851851851853,364.3703703703703 L 314.1412894375857,350.2935528120713 L 317.6241426611797,333.8052126200274 L 323.0,314.96296296296293 L 323.0,314.96296296296293 L 330.5253772290809,290.6666666666667 L 336.46227709190674,270.1481481481481 L 340.8518518518519,252.9629629629629 L 343.73525377229083,238.66666666666657 L 345.1536351165981,226.81481481481478 L 345.14814814814815,216.96296296296293 L 343.7599451303155,208.66666666666663 L 341.0301783264746,201.48148148148147 L 337.0,194.96296296296293 L 337.0,194.96296296296293 L 330.4074074074073,188.42386831275724 L 321.0740740740741,182.87242798353907 L 309.6666666666667,178.4074074074074 L 296.8518518518519,175.12757201646087 L 283.2962962962963,173.1316872427983 L 269.66666666666663,172.51851851851853 L 256.6296296296296,173.38683127572017 L 244.85185185185185,175.835390946502 L 235.0,179.96296296296293 L 235.0,179.96296296296293 L 235.0,179.96296296296293 L 235.0,179.96296296296293 L 235.0,179.96296296296293 L 235.0,179.96296296296293 L 235.0,179.96296296296293 L 235.0,179.96296296296293 L 235.0,179.96296296296293 L 235.0,179.96296296296293 L 235.0,179.96296296296293 L 290.0,222.96296296296293 L 290.0,222.96296296296293 L 290.0,222.96296296296293 L 290.0,222.96296296296293 L 290.0,222.96296296296293 L 290.0,222.96296296296293 L 290.0,222.96296296296293 L 290.0,222.96296296296293 L 290.0,222.96296296296293 L 290.0,222.96296296296293 L 290.0,222.96296296296293 L 294.25240054869676,232.72290809327853 L 294.61179698216733,245.48696844993137 L 291.4814814814815,260.4814814814814 L 285.2647462277092,276.9327846364883 L 276.36488340192045,294.06721536351165 L 265.18518518518516,311.1111111111111 L 252.1289437585734,327.2908093278463 L 237.599451303155,341.83264746227707 L 222.0,353.96296296296293 L 222.0,353.96296296296293 L 206.0823045267489,363.40740740740745 L 191.17695473251032,370.4074074074074 L 177.55555555555557,374.96296296296293 L 165.48971193415636,377.074074074074 L 155.25102880658437,376.7407407407407 L 147.11111111111111,373.96296296296293 L 141.34156378600824,368.7407407407407 L 138.2139917695473,361.0740740740741 L 138.0,350.96296296296293 L 138.0,350.96296296296293 L 140.46227709190666,339.73936899862827 L 145.62414266117972,327.02606310013715 L 153.14814814814815,313.25925925925924 L 162.6968449931413,298.875171467764 L 173.93278463648835,284.3100137174211 L 186.51851851851848,270.0 L 200.11659807956102,256.3813443072702 L 214.3895747599451,243.89026063100133 L 229.0,232.96296296296293 L 229.0,232.96296296296293 L 241.62688614540465,224.62002743484226 L 251.7928669410151,218.21947873799718 L 259.925925925926,213.70370370370364 L 266.4540466392318,211.0150891632373 L 271.8052126200274,210.09602194787374 L 276.4074074074074,210.88888888888886 L 280.6886145404664,213.3360768175583 L 285.076817558299,217.37997256515774 L 290.0,222.96296296296293 L 290.0,222.96296296296293 L 290.0,222.96296296296293 L 290.0,222.96296296296293 L 290.0,222.96296296296293 L 290.0,222.96296296296293 L 290.0,222.96296296296293 L 290.0,222.96296296296293 L 290.0,222.96296296296293 L 290.0,222.96296296296293 L 290.0,222.96296296296293 L 259.0,27.962962962962933 L 249.0754458161865,39.0411522633745 L 241.30727023319616,49.62551440329213 L 235.70370370370372,59.74074074074059 L 232.2729766803841,69.41152263374482 L 231.02331961591221,78.66255144032914 L 231.96296296296293,87.51851851851848 L 235.10013717421123,96.00411522633743 L 240.44307270233196,104.14403292181066 L 248.0,111.96296296296293 L 248.0,111.96296296296293 L 257.6021947873799,118.48285322359402 L 269.85459533607684,123.3813443072702 L 283.9259259259259,126.66666666666659 L 298.98491083676265,128.3470507544581 L 314.2002743484225,128.4307270233196 L 328.7407407407407,126.92592592592591 L 341.77503429355284,123.840877914952 L 352.47187928669405,119.18381344307267 L 360.0,112.96296296296293 L 360.0,112.96296296296293 L 365.5240054869684,104.73525377229089 L 369.4513031550069,94.99314128943757 L 371.81481481481484,84.1481481481481 L 372.64746227709196,72.61179698216728 L 371.9821673525377,60.79561042523994 L 369.85185185185185,49.111111111111086 L 366.2894375857338,37.969821673525416 L 361.3278463648834,27.7832647462277 L 355.0,18.962962962962933 L 355.0,18.962962962962933 L 345.97942386831267,10.777777777777942 L 336.3168724279835,4.8888888888888005 L 326.1111111111112,1.2962962962963047 L 315.4609053497943,0.0 L 304.4650205761317,0.9999999999998863 L 293.22222222222223,4.296296296296305 L 281.8312757201646,9.8888888888888 L 270.3909465020576,17.777777777777715 L 259.0,27.962962962962933 L 259.0,27.962962962962933 L 259.0,27.962962962962933 L 259.0,27.962962962962933 L 259.0,27.962962962962933 L 259.0,27.962962962962933 L 259.0,27.962962962962933 L 259.0,27.962962962962933 L 259.0,27.962962962962933 L 259.0,27.962962962962933 L 259.0,27.962962962962933 L 340.0,66.96296296296293 L 340.0,66.96296296296293 L 340.0,66.96296296296293 L 340.0,66.96296296296293 L 340.0,66.96296296296293 L 340.0,66.96296296296293 L 340.0,66.96296296296293 L 340.0,66.96296296296293 L 340.0,66.96296296296293 L 340.0,66.96296296296293 L 340.0,66.96296296296293 L 339.7846364883401,68.84224965706449 L 339.1659807956104,71.10836762688609 L 338.1851851851853,73.70370370370358 L 336.8834019204389,76.57064471879289 L 335.3017832647463,79.65157750342928 L 333.48148148148147,82.88888888888891 L 331.4636488340192,86.22496570644716 L 329.2894375857339,89.60219478737997 L 327.0,92.96296296296293 L 327.0,92.96296296296293 L 323.49519890260626,97.48285322359408 L 320.22085048010973,101.04801097393681 L 317.0370370370371,103.66666666666663 L 313.803840877915,105.34705075445817 L 310.38134430727024,106.09739368998623 L 306.6296296296296,105.92592592592598 L 302.4087791495199,104.84087791495199 L 297.57887517146776,102.85048010973935 L 292.0,99.96296296296293 L 292.0,99.96296296296293 L 284.22359396433467,95.02194787379972 L 278.23319615912214,89.62002743484214 L 274.03703703703707,83.88888888888886 L 271.64334705075447,77.96021947873794 L 271.0603566529493,71.96570644718787 L 272.2962962962963,66.03703703703707 L 275.3593964334705,60.30589849108367 L 280.25788751714674,54.903978052126206 L 287.0,49.96296296296293 L 287.0,49.96296296296293 L 293.5582990397805,47.68175582990409 L 300.94787379972564,46.750342935528124 L 308.7407407407408,47.03703703703695 L 316.5089163237311,48.41015089163233 L 323.82441700960226,50.73799725651577 L 330.2592592592593,53.888888888888914 L 335.3854595336077,57.7311385459534 L 338.77503429355284,62.1330589849108 L 340.0,66.96296296296293 L 340.0,66.96296296296293 L 340.0,66.96296296296293 L 340.0,66.96296296296293 L 340.0,66.96296296296293 L 340.0,66.96296296296293 L 340.0,66.96296296296293 L 340.0,66.96296296296293 L 340.0,66.96296296296293 L 340.0,66.96296296296293 L 340.0,66.96296296296293"/></svg>
