<?xml version="1.0" encoding="utf-8"?>
<svg xmlns="http://www.w3.org/2000/svg"  viewBox="0,0,400,717.3000411579093" width="100%">
<path d="M185.21059130196187 262.4228289202909 L 185.21059130196187,262.4228289202909 L 173.87336575153836,272.38609167543194 L 167.38972475013088,281.43473422661236 L 165.56454932089454,289.4224173411991 L 168.20272048698448,296.2028017865581 L 175.10911927155584,301.62954833005597 L 186.08862669776374,305.55631773905895 L 200.94612378876337,307.83677078093325 L 219.4864915677098,308.32456822304545 L 241.5146110577583,306.8733708327617 L 241.5146110577583,306.8733708327617 L 265.3658734877009,304.8815312774705 L 284.92451842705657,305.2067295722117 L 300.72712306214845,308.4099327754149 L 313.31026457930017,315.05210794550896 L 323.210520164835,325.6942221409227 L 330.9644670050762,340.89724242008515 L 337.1086822863473,361.2221358414252 L 342.17974319497165,387.22986946337204 L 346.71422691727264,419.4814103443545 L 346.71422691727264,419.4814103443545 L 349.3259757219148,441.2818910280841 L 351.14505368312484,458.558050436223 L 352.03731650432167,471.72451639456716 L 351.8686198889244,481.1959167289117 L 350.50481954035257,487.3868792650519 L 347.8117711620249,490.71203182878315 L 343.6553304573609,491.5860022459009 L 337.9013531297795,490.4234183422001 L 330.4156948827,487.6389079434765 L 330.4156948827,487.6389079434765 L 309.9912094835952,479.78536912547077 L 288.62771400842473,473.9805795643359 L 266.9227603237756,470.18795445191387 L 245.4739002962354,468.370908980046 L 224.8786857923914,468.4928583405741 L 205.73466867883113,470.51721772533966 L 188.639400822142,474.4074023261841 L 174.19043408891127,480.1268273349492 L 162.98532034572645,487.6389079434765 L 162.98532034572645,487.6389079434765 L 150.79444927160662,501.44967302327717 L 141.84743118753272,517.6750354415329 L 136.0954863492935,535.5467142269173 L 133.48983501267764,554.2964284081036 L 133.9816974334741,573.1558970137652 L 137.52229386747155,591.3568390725752 L 144.06284457045876,608.1309736132073 L 153.5545697982246,622.7100196643345 L 165.94868980655784,634.3256962546303 L 165.94868980655784,634.3256962546303 L 183.15371208772223,643.496288166339 L 204.3708683302592,650.2888675477509 L 228.45383454520513,654.7400192070244 L 254.2562867435964,656.8863279523179 L 280.63190093646955,656.7643785917899 L 306.4343531348607,654.4107559335986 L 330.5173193498067,649.8620447859029 L 351.73447559234364,643.1548299568605 L 368.93949787350806,634.3256962546303 L 368.93949787350806,634.3256962546303 L 379.07552222273034,626.8583304116299 L 386.9188985940255,619.366574696524 L 392.7013307723969,610.508986143504 L 396.6545225428475,598.9441217867615 L 399.0101776903808,583.3305386604881 L 400.0,562.326793798875 L 399.8556932567085,534.5914442361143 L 398.8089612455095,498.7830470063974 L 397.09150775140625,453.56015914391554 L 397.09150775140625,453.56015914391554 L 395.132188025589,411.4063301880562 L 393.05091893924384,377.1060400502025 L 390.61599670736734,349.62271916586633 L 387.59571754495613,327.91979797055944 L 383.75837766700715,310.96070689979325 L 378.87227328851696,297.7088763890795 L 372.7057006244824,287.1277368739298 L 365.02695588990014,278.18071878985586 L 355.60433529976683,269.83125257236935 L 355.60433529976683,269.83125257236935 L 340.9317947389014,260.45537923710526 L 323.17393535667657,253.10386528660632 L 303.1965976128413,247.8254904650843 L 281.8656219671449,244.66903451675026 L 260.04684887933627,243.68327718581537 L 238.60611880916454,244.91699821649067 L 218.40927221637887,248.41897735298755 L 200.32214956072826,254.23799433951726 L 185.21059130196187,262.4228289202909 L 185.21059130196187,262.4228289202909 L 185.21059130196187,262.4228289202909 L 185.21059130196187,262.4228289202909 L 185.21059130196187,262.4228289202909 L 185.21059130196187,262.4228289202909 L 185.21059130196187,262.4228289202909 L 185.21059130196187,262.4228289202909 L 185.21059130196187,262.4228289202909 L 185.21059130196187,262.4228289202909 L 185.21059130196187,262.4228289202909 L 296.336946083139,540.9795582384415 L 296.336946083139,540.9795582384415 L 296.336946083139,540.9795582384415 L 296.336946083139,540.9795582384415 L 296.336946083139,540.9795582384415 L 296.336946083139,540.9795582384415 L 296.336946083139,540.9795582384415 L 296.336946083139,540.9795582384415 L 296.336946083139,540.9795582384415 L 296.336946083139,540.9795582384415 L 296.336946083139,540.9795582384415 L 310.4647795003125,549.9286088118577 L 321.3365649913874,557.2557328902508 L 329.0986417889972,563.3145836191522 L 333.8973491257756,568.4588141440934 L 335.8790262343562,573.0420776106057 L 335.1900123473727,577.4180271642201 L 331.9766466974589,581.9403159504683 L 326.3852685172482,586.9625971148815 L 318.56221703937445,592.838523802991 L 318.56221703937445,592.838523802991 L 300.58484880819896,603.6269772310382 L 281.75383505332746,610.4398815058714 L 262.8618466181918,613.4723556043353 L 244.70155434622444,612.919518503275 L 228.06562908085752,608.976489179535 L 213.7467416655234,601.8383866099603 L 202.53756294365436,591.7003297713959 L 195.23076375868254,578.7574376406865 L 192.61901495404035,563.204829194677 L 192.61901495404035,563.204829194677 L 193.68810434800275,544.5404795658604 L 197.00106197568127,530.0102132589443 L 202.71642200576215,519.5774454657703 L 210.99271860693185,513.2055913781802 L 221.98848594787682,510.8580661880155 L 235.86225819728358,512.4982850871177 L 252.77256952383857,518.0896632673283 L 272.8779540962282,527.5956159204891 L 296.336946083139,540.9795582384415 L 296.336946083139,540.9795582384415 L 296.336946083139,540.9795582384415 L 296.336946083139,540.9795582384415 L 296.336946083139,540.9795582384415 L 296.336946083139,540.9795582384415 L 296.336946083139,540.9795582384415 L 296.336946083139,540.9795582384415 L 296.336946083139,540.9795582384415 L 296.336946083139,540.9795582384415 L 296.336946083139,540.9795582384415"/></svg>
