<?xml version="1.0" encoding="utf-8"?>
<svg xmlns="http://www.w3.org/2000/svg"  viewBox="0,0,400,717.3000411579093" width="100%">
<path d="M185.21059130196187 262.4228289202909 L 185.21059130196187,262.4228289202909 L 173.87336575153836,272.38609167543194 L 167.38972475013088,281.43473422661236 L 165.56454932089454,289.4224173411991 L 168.20272048698448,296.2028017865581 L 175.10911927155584,301.62954833005597 L 186.08862669776374,305.55631773905895 L 200.94612378876337,307.83677078093325 L 219.4864915677098,308.32456822304545 L 241.5146110577583,306.8733708327617 L 241.5146110577583,306.8733708327617 L 265.3658734877009,304.8815312774705 L 284.92451842705657,305.2067295722117 L 300.72712306214845,308.4099327754149 L 313.31026457930017,315.05210794550896 L 323.210520164835,325.6942221409227 L 330.9644670050762,340.89724242008515 L 337.1086822863473,361.2221358414252 L 342.17974319497165,387.22986946337204 L 346.71422691727264,419.4814103443545 L 346.71422691727264,419.4814103443545 L 349.3259757219148,441.2818910280841 L 351.14505368312484,458.558050436223 L 352.03731650432167,471.72451639456716 L 351.8686198889244,481.1959167289117 L 350.50481954035257,487.3868792650519 L 347.8117711620249,490.71203182878315 L 343.6553304573609,491.5860022459009 L 337.9013531297795,490.4234183422001 L 330.4156948827,487.6389079434765 L 330.4156948827,487.6389079434765 L 309.9912094835952,479.78536912547077 L 288.62771400842473,473.9805795643359 L 266.9227603237756,470.18795445191387 L 245.4739002962354,468.370908980046 L 224.8786857923914,468.4928583405741 L 205.73466867883113,470.51721772533966 L 188.639400822142,474.4074023261841 L 174.19043408891127,480.1268273349492 L 162.98532034572645,487.6389079434765 L 162.98532034572645,487.6389079434765 L 150.79444927160662,501.44967302327717 L 141.84743118753272,517.6750354415329 L 136.0954863492935,535.5467142269173 L 133.48983501267764,554.2964284081036 L 133.9816974334741,573.1558970137652 L 137.52229386747155,591.3568390725752 L 144.06284457045876,608.1309736132073 L 153.5545697982246,622.7100196643345 L 165.94868980655784,634.3256962546303 L 165.94868980655784,634.3256962546303 L 183.15371208772223,643.496288166339 L 204.3708683302592,650.2888675477509 L 228.45383454520513,654.7400192070244 L 254.2562867435964,656.8863279523179 L 280.63190093646955,656.7643785917899 L 306.4343531348607,654.4107559335986 L 330.5173193498067,649.8620447859029 L 351.73447559234364,643.1548299568605 L 368.93949787350806,634.3256962546303 L 368.93949787350806,634.3256962546303 L 379.07552222273034,626.8583304116299 L 386.9188985940255,619.366574696524 L 392.7013307723969,610.508986143504 L 396.6545225428475,598.9441217867615 L 399.0101776903808,583.3305386604881 L 400.0,562.326793798875 L 399.8556932567085,534.5914442361143 L 398.8089612455095,498.7830470063974 L 397.09150775140625,453.56015914391554 L 397.09150775140625,453.56015914391554 L 395.132188025589,411.4063301880562 L 393.05091893924384,377.1060400502025 L 390.61599670736734,349.62271916586633 L 387.59571754495613,327.91979797055944 L 383.75837766700715,310.96070689979325 L 378.87227328851696,297.7088763890795 L 372.7057006244824,287.1277368739298 L 365.02695588990014,278.18071878985586 L 355.60433529976683,269.83125257236935 L 355.60433529976683,269.83125257236935 L 340.9317947389014,260.45537923710526 L 323.17393535667657,253.10386528660632 L 303.1965976128413,247.8254904650843 L 281.8656219671449,244.66903451675026 L 260.04684887933627,243.68327718581537 L 238.60611880916454,244.91699821649067 L 218.40927221637887,248.41897735298755 L 200.32214956072826,254.23799433951726 L 185.21059130196187,262.4228289202909 L 185.21059130196187,262.4228289202909 L 185.21059130196187,262.4228289202909 L 185.21059130196187,262.4228289202909 L 185.21059130196187,262.4228289202909 L 185.21059130196187,262.4228289202909 L 185.21059130196187,262.4228289202909 L 185.21059130196187,262.4228289202909 L 185.21059130196187,262.4228289202909 L 185.21059130196187,262.4228289202909 L 185.21059130196187,262.4228289202909 L 296.336946083139,540.9795582384415 L 296.336946083139,540.9795582384415 L 296.336946083139,540.9795582384415 L 296.336946083139,540.9795582384415 L 296.336946083139,540.9795582384415 L 296.336946083139,540.9795582384415 L 296.336946083139,540.9795582384415 L 296.336946083139,540.9795582384415 L 296.336946083139,540.9795582384415 L 296.336946083139,540.9795582384415 L 296.336946083139,540.9795582384415 L 310.4647795003125,549.9286088118577 L 321.3365649913874,557.2557328902508 L 329.0986417889972,563.3145836191522 L 333.8973491257756,568.4588141440934 L 335.8790262343562,573.0420776106057 L 335.1900123473727,577.4180271642201 L 331.9766466974589,581.9403159504683 L 326.3852685172482,586.9625971148815 L 318.56221703937445,592.838523802991 L 318.56221703937445,592.838523802991 L 300.58484880819896,603.6269772310382 L 281.75383505332746,610.4398815058714 L 262.8618466181918,613.4723556043353 L 244.70155434622444,612.919518503275 L 228.06562908085752,608.976489179535 L 213.7467416655234,601.8383866099603 L 202.53756294365436,591.7003297713959 L 195.23076375868254,578.7574376406865 L 192.61901495404035,563.204829194677 L 192.61901495404035,563.204829194677 L 193.68810434800275,544.5404795658604 L 197.00106197568127,530.0102132589443 L 202.71642200576215,519.5774454657703 L 210.99271860693185,513.2055913781802 L 221.98848594787682,510.8580661880155 L 235.86225819728358,512.4982850871177 L 252.77256952383857,518.0896632673283 L 272.8779540962282,527.5956159204891 L 296.336946083139,540.9795582384415 L 296.336946083139,540.9795582384415 L 296.336946083139,540.9795582384415 L 296.336946083139,540.9795582384415 L 296.336946083139,540.9795582384415 L 296.336946083139,540.9795582384415 L 296.336946083139,540.9795582384415 L 296.336946083139,540.9795582384415 L 296.336946083139,540.9795582384415 L 296.336946083139,540.9795582384415 L 296.336946083139,540.9795582384415M189.65564549320897 12.01810948003838 L 185.21059130196187,262.4228289202909 L 173.87336575153836,272.38609167543194 L 167.38972475013088,281.43473422661236 L 165.56454932089454,289.4224173411991 L 168.20272048698448,296.2028017865581 L 175.10911927155584,301.62954833005597 L 186.08862669776374,305.55631773905895 L 200.94612378876337,307.83677078093325 L 219.4864915677098,308.32456822304545 L 241.5146110577583,306.8733708327617 L 241.5146110577583,306.8733708327617 L 265.3658734877009,304.8815312774705 L 284.92451842705657,305.2067295722117 L 300.72712306214845,308.4099327754149 L 313.31026457930017,315.05210794550896 L 323.210520164835,325.6942221409227 L 330.9644670050762,340.89724242008515 L 337.1086822863473,361.2221358414252 L 342.17974319497165,387.22986946337204 L 346.71422691727264,419.4814103443545 L 346.71422691727264,419.4814103443545 L 349.3259757219148,441.2818910280841 L 351.14505368312484,458.558050436223 L 352.03731650432167,471.72451639456716 L 351.8686198889244,481.1959167289117 L 350.50481954035257,487.3868792650519 L 347.8117711620249,490.71203182878315 L 343.6553304573609,491.5860022459009 L 337.9013531297795,490.4234183422001 L 330.4156948827,487.6389079434765 L 330.4156948827,487.6389079434765 L 309.9912094835952,479.78536912547077 L 288.62771400842473,473.9805795643359 L 266.9227603237756,470.18795445191387 L 245.4739002962354,468.370908980046 L 224.8786857923914,468.4928583405741 L 205.73466867883113,470.51721772533966 L 188.639400822142,474.4074023261841 L 174.19043408891127,480.1268273349492 L 162.98532034572645,487.6389079434765 L 162.98532034572645,487.6389079434765 L 150.79444927160662,501.44967302327717 L 141.84743118753272,517.6750354415329 L 136.0954863492935,535.5467142269173 L 133.48983501267764,554.2964284081036 L 133.9816974334741,573.1558970137652 L 137.52229386747155,591.3568390725752 L 144.06284457045876,608.1309736132073 L 153.5545697982246,622.7100196643345 L 165.94868980655784,634.3256962546303 L 165.94868980655784,634.3256962546303 L 183.15371208772223,643.496288166339 L 204.3708683302592,650.2888675477509 L 228.45383454520513,654.7400192070244 L 254.2562867435964,656.8863279523179 L 280.63190093646955,656.7643785917899 L 306.4343531348607,654.4107559335986 L 330.5173193498067,649.8620447859029 L 351.73447559234364,643.1548299568605 L 368.93949787350806,634.3256962546303 L 368.93949787350806,634.3256962546303 L 379.07552222273034,626.8583304116299 L 386.9188985940255,619.366574696524 L 392.7013307723969,610.508986143504 L 396.6545225428475,598.9441217867615 L 399.0101776903808,583.3305386604881 L 400.0,562.326793798875 L 399.8556932567085,534.5914442361143 L 398.8089612455095,498.7830470063974 L 397.09150775140625,453.56015914391554 L 397.09150775140625,453.56015914391554 L 395.132188025589,411.4063301880562 L 393.05091893924384,377.1060400502025 L 390.61599670736734,349.62271916586633 L 387.59571754495613,327.91979797055944 L 383.75837766700715,310.96070689979325 L 378.87227328851696,297.7088763890795 L 372.7057006244824,287.1277368739298 L 365.02695588990014,278.18071878985586 L 355.60433529976683,269.83125257236935 L 355.60433529976683,269.83125257236935 L 340.9317947389014,260.45537923710526 L 323.17393535667657,253.10386528660632 L 303.1965976128413,247.8254904650843 L 281.8656219671449,244.66903451675026 L 260.04684887933627,243.68327718581537 L 238.60611880916454,244.91699821649067 L 218.40927221637887,248.41897735298755 L 200.32214956072826,254.23799433951726 L 185.21059130196187,262.4228289202909 L 185.21059130196187,262.4228289202909 L 185.21059130196187,262.4228289202909 L 185.21059130196187,262.4228289202909 L 185.21059130196187,262.4228289202909 L 185.21059130196187,262.4228289202909 L 185.21059130196187,262.4228289202909 L 185.21059130196187,262.4228289202909 L 185.21059130196187,262.4228289202909 L 185.21059130196187,262.4228289202909 L 185.21059130196187,262.4228289202909 L 296.336946083139,540.9795582384415 L 296.336946083139,540.9795582384415 L 296.336946083139,540.9795582384415 L 296.336946083139,540.9795582384415 L 296.336946083139,540.9795582384415 L 296.336946083139,540.9795582384415 L 296.336946083139,540.9795582384415 L 296.336946083139,540.9795582384415 L 296.336946083139,540.9795582384415 L 296.336946083139,540.9795582384415 L 296.336946083139,540.9795582384415 L 310.4647795003125,549.9286088118577 L 321.3365649913874,557.2557328902508 L 329.0986417889972,563.3145836191522 L 333.8973491257756,568.4588141440934 L 335.8790262343562,573.0420776106057 L 335.1900123473727,577.4180271642201 L 331.9766466974589,581.9403159504683 L 326.3852685172482,586.9625971148815 L 318.56221703937445,592.838523802991 L 318.56221703937445,592.838523802991 L 300.58484880819896,603.6269772310382 L 281.75383505332746,610.4398815058714 L 262.8618466181918,613.4723556043353 L 244.70155434622444,612.919518503275 L 228.06562908085752,608.976489179535 L 213.7467416655234,601.8383866099603 L 202.53756294365436,591.7003297713959 L 195.23076375868254,578.7574376406865 L 192.61901495404035,563.204829194677 L 192.61901495404035,563.204829194677 L 193.68810434800275,544.5404795658604 L 197.00106197568127,530.0102132589443 L 202.71642200576215,519.5774454657703 L 210.99271860693185,513.2055913781802 L 221.98848594787682,510.8580661880155 L 235.86225819728358,512.4982850871177 L 252.77256952383857,518.0896632673283 L 272.8779540962282,527.5956159204891 L 296.336946083139,540.9795582384415 L 296.336946083139,540.9795582384415 L 296.336946083139,540.9795582384415 L 296.336946083139,540.9795582384415 L 296.336946083139,540.9795582384415 L 296.336946083139,540.9795582384415 L 296.336946083139,540.9795582384415 L 296.336946083139,540.9795582384415 L 296.336946083139,540.9795582384415 L 296.336946083139,540.9795582384415 L 296.336946083139,540.9795582384415 L 189.65564549320897,12.01810948003838 L 176.60503142736647,20.546434759632866 L 166.13974380471848,31.952764947688852 L 158.3207573055289,45.71271779393598 L 153.20904661006185,61.301911048103925 L 150.86558639858134,78.19596245992182 L 151.35135135135138,95.87048977911923 L 154.72731614863596,113.80111075542547 L 161.0544554706991,131.46344313857003 L 170.39374399780493,148.33310467828233 L 170.39374399780493,148.33310467828233 L 182.98908045100936,163.2597064069147 L 198.4990066208341,174.45465770338873 L 216.106461791741,181.9179585677047 L 234.99438524819237,185.64960899986283 L 254.34571627465033,185.6496089998627 L 273.3433941555769,181.9179585677049 L 291.17035817543433,174.45465770338873 L 307.0095476186847,163.2597064069146 L 320.0439017697901,148.33310467828233 L 320.0439017697901,148.33310467828233 L 326.1881170510612,137.8718820343187 L 330.7835754536262,128.84966184458565 L 333.8180820414324,120.72986692276024 L 335.27944187842667,112.97592008251898 L 335.1554600285565,105.05124413753852 L 333.43394155576897,96.41926190149533 L 330.10269152401133,86.54339618806624 L 325.14951499723077,74.88706981092771 L 318.56221703937445,60.913705583756325 L 318.56221703937445,60.913705583756325 L 308.87334034542147,43.139586286794525 L 297.6844865169739,28.365421258822142 L 285.14199478666495,16.627795307998284 L 271.3922043871283,7.96329324248097 L 256.5814545509977,2.408499870428644 L 240.85608451090687,0.0 L 224.36243349948936,0.7743784393530574 L 207.24684074937883,4.768219996646426 L 189.65564549320897,12.01810948003838 L 189.65564549320897,12.01810948003838 L 189.65564549320897,12.01810948003838 L 189.65564549320897,12.01810948003838 L 189.65564549320897,12.01810948003838 L 189.65564549320897,12.01810948003838 L 189.65564549320897,12.01810948003838 L 189.65564549320897,12.01810948003838 L 189.65564549320897,12.01810948003838 L 189.65564549320897,12.01810948003838 L 189.65564549320897,12.01810948003838 L 278.55672931815064,96.474139113733 L 278.55672931815064,96.474139113733 L 278.55672931815064,96.474139113733 L 278.55672931815064,96.474139113733 L 278.55672931815064,96.474139113733 L 278.55672931815064,96.474139113733 L 278.55672931815064,96.474139113733 L 278.55672931815064,96.474139113733 L 278.55672931815064,96.474139113733 L 278.55672931815064,96.474139113733 L 278.55672931815064,96.474139113733 L 278.5262419780186,104.7646631402978 L 275.78847883416415,112.64055934106696 L 270.81904239264645,119.79695431472067 L 264.093535159525,125.92897465993909 L 256.0875596408591,130.73174697540173 L 247.2767183427082,133.90039785978877 L 238.13661377113155,135.13005391177975 L 229.14284843218854,134.11584173005494 L 220.77102483193858,130.552887913294 L 220.77102483193858,130.552887913294 L 218.3625249615097,128.64844539971457 L 216.10036432371462,125.96352697875538 L 214.0211277267115,122.59569213883923 L 212.16139997865892,118.6425003683887 L 210.55776588771514,114.20151115582591 L 209.24681026203868,109.37028398957338 L 208.265117909788,104.24637835805349 L 207.64927363912136,98.92735374968879 L 207.43586225819732,93.51076965290162 L 207.43586225819732,93.51076965290162 L 207.7732554889915,86.6470531445152 L 208.8179550108484,80.85649100877524 L 210.6187405679792,76.11469337357649 L 213.224391904595,72.39727036681349 L 216.68368876490706,69.67983211638025 L 221.04541089312661,67.9379887501715 L 226.35833803346495,67.14735039608138 L 232.6712499301332,67.28352718200438 L 240.0329263273426,68.3221292358348 L 240.0329263273426,68.3221292358348 L 246.32957830927376,69.62901988282715 L 252.32135688988487,71.53346239640648 L 257.9228975168062,73.97448209630934 L 263.04883563766816,76.89110430227178 L 267.6138067001011,80.2223543340294 L 271.5324461517355,83.9072575113185 L 274.71938944020167,87.88483915387465 L 277.0892720131299,92.09412458143426 L 278.55672931815064,96.474139113733 L 278.55672931815064,96.474139113733 L 278.55672931815064,96.474139113733 L 278.55672931815064,96.474139113733 L 278.55672931815064,96.474139113733 L 278.55672931815064,96.474139113733 L 278.55672931815064,96.474139113733 L 278.55672931815064,96.474139113733 L 278.55672931815064,96.474139113733 L 278.55672931815064,96.474139113733 L 278.55672931815064,96.474139113733"/></svg>
