<?xml version="1.0" encoding="utf-8"?>
<svg xmlns="http://www.w3.org/2000/svg"  viewBox="0,0,400,532.0636244627485" width="100%">
<path d="M87.83234282139505 11.825901597562456 L 87.83234282139505,11.825901597562456 L 84.99982622597571,23.31699857505306 L 85.19097765266046,34.37713597238152 L 87.92618079449483,44.51279556065284 L 92.72581934452437,53.23045911097204 L 99.11027699579466,60.03660839444373 L 106.59993744135126,64.43772518217303 L 114.71518437423971,65.94029124526465 L 122.97640148750563,64.05078835482328 L 130.90397247419455,58.275698281954064 L 130.90397247419455,58.275698281954064 L 133.96934626212072,54.97399182103594 L 136.40913356271503,51.755696891761836 L 138.2233343759775,48.516549079576755 L 139.41194870190805,45.15228396992549 L 139.9749765405067,41.558637148252345 L 139.91241789177352,37.631344200002324 L 139.22427275570848,33.26614071061984 L 137.91054113231152,28.35876226554987 L 135.97122302158272,22.804944450236835 L 135.97122302158272,22.804944450236835 L 132.12386612449166,15.31065003070011 L 127.02533625273695,9.206547805234006 L 121.05098529871753,4.569098344512708 L 114.57616515483265,1.4747622192100112 L 107.97622771348136,0.0 L 101.62652486706286,0.2212722575561832 L 95.90240850797623,2.2150395625527413 L 91.17923052862056,6.057762485663567 L 87.83234282139505,11.825901597562456 L 87.83234282139505,11.825901597562456 L 87.83234282139505,11.825901597562456 L 87.83234282139505,11.825901597562456 L 87.83234282139505,11.825901597562456 L 87.83234282139505,11.825901597562456 L 87.83234282139505,11.825901597562456 L 87.83234282139505,11.825901597562456 L 87.83234282139505,11.825901597562456 L 87.83234282139505,11.825901597562456 L 87.83234282139505,11.825901597562456"/></svg>
