<?xml version="1.0" encoding="utf-8"?>
<svg xmlns="http://www.w3.org/2000/svg"  viewBox="0,0,400,532.0636244627485" width="100%">
<path d="M87.83234282139505 11.825901597562456 L 87.83234282139505,11.825901597562456 L 84.99982622597571,23.31699857505306 L 85.19097765266046,34.37713597238152 L 87.92618079449483,44.51279556065284 L 92.72581934452437,53.23045911097204 L 99.11027699579466,60.03660839444373 L 106.59993744135126,64.43772518217303 L 114.71518437423971,65.94029124526465 L 122.97640148750563,64.05078835482328 L 130.90397247419455,58.275698281954064 L 130.90397247419455,58.275698281954064 L 133.96934626212072,54.97399182103594 L 136.40913356271503,51.755696891761836 L 138.2233343759775,48.516549079576755 L 139.41194870190805,45.15228396992549 L 139.9749765405067,41.558637148252345 L 139.91241789177352,37.631344200002324 L 139.22427275570848,33.26614071061984 L 137.91054113231152,28.35876226554987 L 135.97122302158272,22.804944450236835 L 135.97122302158272,22.804944450236835 L 132.12386612449166,15.31065003070011 L 127.02533625273695,9.206547805234006 L 121.05098529871753,4.569098344512708 L 114.57616515483265,1.4747622192100112 L 107.97622771348136,0.0 L 101.62652486706286,0.2212722575561832 L 95.90240850797623,2.2150395625527413 L 91.17923052862056,6.057762485663567 L 87.83234282139505,11.825901597562456 L 87.83234282139505,11.825901597562456 L 87.83234282139505,11.825901597562456 L 87.83234282139505,11.825901597562456 L 87.83234282139505,11.825901597562456 L 87.83234282139505,11.825901597562456 L 87.83234282139505,11.825901597562456 L 87.83234282139505,11.825901597562456 L 87.83234282139505,11.825901597562456 L 87.83234282139505,11.825901597562456 L 87.83234282139505,11.825901597562456M164.6856427901157 163.84341801920775 L 87.83234282139505,11.825901597562456 L 84.99982622597571,23.31699857505306 L 85.19097765266046,34.37713597238152 L 87.92618079449483,44.51279556065284 L 92.72581934452437,53.23045911097204 L 99.11027699579466,60.03660839444373 L 106.59993744135126,64.43772518217303 L 114.71518437423971,65.94029124526465 L 122.97640148750563,64.05078835482328 L 130.90397247419455,58.275698281954064 L 130.90397247419455,58.275698281954064 L 133.96934626212072,54.97399182103594 L 136.40913356271503,51.755696891761836 L 138.2233343759775,48.516549079576755 L 139.41194870190805,45.15228396992549 L 139.9749765405067,41.558637148252345 L 139.91241789177352,37.631344200002324 L 139.22427275570848,33.26614071061984 L 137.91054113231152,28.35876226554987 L 135.97122302158272,22.804944450236835 L 135.97122302158272,22.804944450236835 L 132.12386612449166,15.31065003070011 L 127.02533625273695,9.206547805234006 L 121.05098529871753,4.569098344512708 L 114.57616515483265,1.4747622192100112 L 107.97622771348136,0.0 L 101.62652486706286,0.2212722575561832 L 95.90240850797623,2.2150395625527413 L 91.17923052862056,6.057762485663567 L 87.83234282139505,11.825901597562456 L 87.83234282139505,11.825901597562456 L 87.83234282139505,11.825901597562456 L 87.83234282139505,11.825901597562456 L 87.83234282139505,11.825901597562456 L 87.83234282139505,11.825901597562456 L 87.83234282139505,11.825901597562456 L 87.83234282139505,11.825901597562456 L 87.83234282139505,11.825901597562456 L 87.83234282139505,11.825901597562456 L 87.83234282139505,11.825901597562456 L 164.6856427901157,163.84341801920775 L 130.51819414033992,187.811489938484 L 100.66729225315399,224.46506562865633 L 76.00875821082265,269.91160694632686 L 57.41841309561047,320.25857574809703 L 45.772077989782076,371.6134338905686 L 41.945573975602116,420.08364323034317 L 46.814722135335195,461.77666562402237 L 61.255343551245936,492.79996292820806 L 86.14325930559899,509.2609969995017 L 86.14325930559899,509.2609969995017 L 99.02802395764546,511.20263209722066 L 111.77376939028487,510.28047127515373 L 124.36659368157648,506.5084164552415 L 136.79259490957955,499.90036955942475 L 149.03787115235346,490.47023250964435 L 161.0885204879574,478.2319072278408 L 172.93064099445075,463.1992956359549 L 184.55033074989277,445.38629965592736 L 195.9336878323428,424.8068212096988 L 195.9336878323428,424.8068212096988 L 199.4056928370347,417.9566491734148 L 202.87769784172662,411.10647713713075 L 206.34970284641852,404.25630510084676 L 209.8217078511104,397.4061330645627 L 213.29371285580228,390.5559610282787 L 216.7657178604942,383.7057889919947 L 220.2377228651861,376.85561695571073 L 223.709727869878,370.0054449194266 L 227.1817328745699,363.1552728831427 L 227.1817328745699,363.1552728831427 L 228.58930247106662,368.12868545743106 L 229.99687206756332,373.10209803171944 L 231.40444166406004,378.0755106060078 L 232.81201126055677,383.04892318029624 L 234.21958085705344,388.0223357545847 L 235.62715045355017,392.995748328873 L 237.0347200500469,397.9691609031614 L 238.4422896465436,402.9425734774498 L 239.84985924304033,407.91598605173823 L 239.84985924304033,407.91598605173823 L 242.5572585409932,416.3648791112037 L 245.55659819970109,424.70950775611385 L 248.76446668751956,432.7830489231802 L 252.09745247280435,440.41867954911424 L 255.4721440239113,447.4495765706275 L 258.8051298091961,453.7089169244314 L 262.0129982970145,459.02987754723745 L 265.01233795572233,463.2456353757573 L 267.7197372536753,466.18936734670217 L 267.7197372536753,466.18936734670217 L 281.0099746289924,476.0261356132484 L 295.2802975011295,482.51254069208386 L 310.13450109477634,485.73894507582327 L 325.17638063462266,485.7957112570812 L 340.00973134535843,482.77320172847215 L 354.23834845167335,476.7617789826109 L 367.46602717825726,467.851805512112 L 379.2965627498001,456.1336438095899 L 389.3337503909915,441.6976563676594 L 389.3337503909915,441.6976563676594 L 396.40171920434653,427.4354429499878 L 399.8343354302066,415.7450850913471 L 400.0,406.8212096989074 L 397.26711384515573,400.85844367983856 L 392.0040778971026,398.0514139413106 L 384.5792930872692,398.59474739049324 L 375.36116034708465,402.6830709345566 L 364.71808060797736,410.5110114806704 L 353.01845480137627,422.27319593600464 L 353.01845480137627,422.27319593600464 L 348.9382407117783,426.7009580741203 L 344.6494977930698,430.9201913831253 L 340.25649045980606,434.8474843313754 L 335.86348312654223,438.39942538722636 L 331.5747402078337,441.49260301903394 L 327.4945261182358,444.043605695154 L 323.72710527230385,445.96902188394205 L 320.37674208459316,447.185440053754 L 317.54770096965905,447.6094486729456 L 317.54770096965905,447.6094486729456 L 306.87913437366035,444.2173797194128 L 296.94736964051947,434.4860343609169 L 287.9261807944949,419.0827048506122 L 279.9893418598455,398.67468344165235 L 273.31062686083015,373.92926238719156 L 268.0638098217078,345.5137339403839 L 264.4226647667373,314.095390354383 L 262.5609657201775,280.3415238823434 L 262.6524867062871,244.91942677741855 L 262.6524867062871,244.91942677741855 L 263.061434910043,232.24782492846296 L 263.17149179207354,220.24351533266133 L 262.9965592743196,209.07332105330212 L 262.55053927872194,198.90406515367405 L 261.8473337272211,189.90257069706547 L 260.9008445417578,182.23566074676486 L 259.72497364427295,176.0701583660607 L 258.3336229567071,171.5728866182416 L 256.7406944010009,168.91066856659592 L 256.7406944010009,168.91066856659592 L 250.46976911224638,164.3160833651919 L 242.10660457141526,160.68073077769654 L 232.12386612449174,158.02546368702124 L 220.99421911745966,156.37113497607703 L 209.19032889630324,155.73859752777474 L 197.18486080700654,156.1487042250257 L 185.4504801955537,157.62230795074075 L 174.4598524079287,160.18026158783113 L 164.6856427901157,163.84341801920775 L 164.6856427901157,163.84341801920775 L 164.6856427901157,163.84341801920775 L 164.6856427901157,163.84341801920775 L 164.6856427901157,163.84341801920775 L 164.6856427901157,163.84341801920775 L 164.6856427901157,163.84341801920775 L 164.6856427901157,163.84341801920775 L 164.6856427901157,163.84341801920775 L 164.6856427901157,163.84341801920775 L 164.6856427901157,163.84341801920775 L 215.35814826399746,201.84779712461906 L 215.35814826399746,201.84779712461906 L 215.35814826399746,201.84779712461906 L 215.35814826399746,201.84779712461906 L 215.35814826399746,201.84779712461906 L 215.35814826399746,201.84779712461906 L 215.35814826399746,201.84779712461906 L 215.35814826399746,201.84779712461906 L 215.35814826399746,201.84779712461906 L 215.35814826399746,201.84779712461906 L 215.35814826399746,201.84779712461906 L 217.06808466270456,210.58978903833457 L 216.21311646335104,225.30265642558408 L 213.10603690960275,244.76303015558557 L 208.05963924512562,267.7475410975567 L 201.38671671358563,293.0328201207149 L 193.40006255864873,319.39549809427814 L 184.4124700239808,345.61220588746386 L 174.73673235324782,370.4595743694898 L 164.6856427901157,392.71423440957363 L 164.6856427901157,392.71423440957363 L 148.84208575168847,423.2138926539927 L 134.15238823434004,446.03273902617025 L 120.89458867688458,461.18467544804724 L 109.34672551813621,468.68360384156426 L 99.78683719690913,468.54342612866225 L 92.4929621520175,460.77804423128157 L 87.7431388222755,445.4013600713631 L 85.81540564649727,422.4272755708476 L 86.98780106349702,391.8696926516757 L 86.98780106349702,391.8696926516757 L 89.96744633278881,367.9595454071525 L 95.31041833200106,343.40990975335666 L 102.69002189552704,318.89502890441264 L 111.77956185776016,295.0891460744447 L 122.25234305309374,272.66650447757723 L 133.78167031592116,252.30134732793465 L 146.04084848063573,234.66791783964123 L 158.7031823816309,220.4404592268214 L 171.44197685329996,210.29321470359935 L 171.44197685329996,210.29321470359935 L 180.7052908397919,204.74866483624695 L 188.36988380310243,200.46918986549875 L 194.65123553331244,197.4061330645627 L 199.764825820503,195.51083770664616 L 203.92613445475504,194.73464706495662 L 207.3506412261495,195.02890441270168 L 210.2538259247674,196.3449530230887 L 212.85116834068972,198.63413616932533 L 215.35814826399746,201.84779712461906 L 215.35814826399746,201.84779712461906 L 215.35814826399746,201.84779712461906 L 215.35814826399746,201.84779712461906 L 215.35814826399746,201.84779712461906 L 215.35814826399746,201.84779712461906 L 215.35814826399746,201.84779712461906 L 215.35814826399746,201.84779712461906 L 215.35814826399746,201.84779712461906 L 215.35814826399746,201.84779712461906 L 215.35814826399746,201.84779712461906"/></svg>
