<?xml version="1.0" encoding="utf-8"?>
<svg xmlns="http://www.w3.org/2000/svg"  viewBox="0,0,400,570.3507740544778" width="100%">
<path d="M225.71428571428572 128.92220262590635 L 225.71428571428572,128.92220262590635 L 220.0411522633744,132.93748775230264 L 212.71017048794826,139.9862825788752 L 203.96825396825398,149.71585341955713 L 194.0623162845385,161.77346658828145 L 183.2392710170488,175.80638839898103 L 171.74603174603172,191.46188516558897 L 159.82951205173427,208.38722320203806 L 147.7366255144033,226.22966882226146 L 135.71428571428572,244.63648834019207 L 135.71428571428572,244.63648834019207 L 116.91749951009209,273.56065059768775 L 102.16539290613365,297.2996276699981 L 91.05820105820106,317.0174407211444 L 83.19615912208504,333.87811091514806 L 78.17950225357633,349.0456594160298 L 75.60846560846561,363.68410738781114 L 75.0832843425436,378.9574759945131 L 76.20419361160101,396.0297864001568 L 78.57142857142857,416.06505976876355 L 78.57142857142857,416.06505976876355 L 84.21908681167939,445.9220066627475 L 91.79502253576327,469.84126984126993 L 101.53439153439156,487.91691162061545 L 113.67234959827552,500.24299431706845 L 128.4440525181266,506.9135802469136 L 146.08465608465605,508.0227317264355 L 166.82931608857533,503.6645110719185 L 190.9131883205957,493.93298059964735 L 218.57142857142858,478.9222026259064 L 218.57142857142858,478.9222026259064 L 244.73446991965508,461.3639035861259 L 272.00274348422494,439.0907309425828 L 299.25925925925935,413.41955712326086 L 325.3870272388791,385.6672545561435 L 349.2690574172056,357.1506956692142 L 369.7883597883598,329.1867528904567 L 385.82794434646286,303.0922986478543 L 396.2708210856359,280.18420536939067 L 400.0,261.7793454830492 L 400.0,261.7793454830492 L 398.9966686262982,241.99294532627874 L 395.99451303155,223.59396433470513 L 391.0052910052911,206.59416029786397 L 384.0407603370566,191.00529100529099 L 375.1126788163825,176.83911424652163 L 364.2328042328042,164.10738781109163 L 351.4128943758573,152.82186948853624 L 336.6647070350774,142.9943170683912 L 320.0,134.63648834019207 L 320.0,134.63648834019207 L 301.9988242210464,127.3858514599257 L 287.5249853027631,121.81657848324514 L 275.8730158730159,117.91691162061528 L 266.3374485596708,115.67509308250058 L 258.21281599059375,115.07936507936508 L 250.79365079365084,116.11796982167358 L 243.37448559670779,118.77914951989031 L 235.2498530276308,123.05114638447981 L 225.71428571428572,128.92220262590635 L 225.71428571428572,128.92220262590635 L 225.71428571428572,128.92220262590635 L 225.71428571428572,128.92220262590635 L 225.71428571428572,128.92220262590635 L 225.71428571428572,128.92220262590635 L 225.71428571428572,128.92220262590635 L 225.71428571428572,128.92220262590635 L 225.71428571428572,128.92220262590635 L 225.71428571428572,128.92220262590635 L 225.71428571428572,128.92220262590635 L 340.0,226.0650597687635 L 340.0,226.0650597687635 L 340.0,226.0650597687635 L 340.0,226.0650597687635 L 340.0,226.0650597687635 L 340.0,226.0650597687635 L 340.0,226.0650597687635 L 340.0,226.0650597687635 L 340.0,226.0650597687635 L 340.0,226.0650597687635 L 340.0,226.0650597687635 L 338.13443072702324,251.2600431118951 L 327.08602782676854,281.5931804820694 L 308.6772486772487,314.9010386047423 L 284.7305506564766,349.02018420536945 L 257.0683911424652,381.78718400940625 L 227.51322751322746,411.03860474230845 L 197.88751714677642,434.61101312953167 L 170.01371742112482,450.3409758965315 L 145.71428571428572,456.06505976876355 L 145.71428571428572,456.06505976876355 L 133.03938859494414,449.9431706839116 L 127.80717225161672,433.1216931216932 L 129.20634920634922,407.9169116206154 L 136.42563198118754,376.64511071918486 L 148.65373309817755,341.6225749559083 L 165.07936507936506,305.16558886929266 L 184.891240446796,269.59043699784445 L 207.27807172251613,237.21340388007064 L 231.42857142857142,210.3507740544778 L 231.42857142857142,210.3507740544778 L 247.7091906721536,197.48579267097796 L 263.89574759945134,188.3833039388595 L 279.5767195767196,182.99627669998043 L 294.34058397021363,181.27767979619836 L 307.7758181461885,183.18048206937098 L 319.47089947089944,188.65765236135616 L 329.01430531060157,197.6621595140114 L 335.99451303155,210.14697236919469 L 340.0,226.0650597687635 L 340.0,226.0650597687635 L 340.0,226.0650597687635 L 340.0,226.0650597687635 L 340.0,226.0650597687635 L 340.0,226.0650597687635 L 340.0,226.0650597687635 L 340.0,226.0650597687635 L 340.0,226.0650597687635 L 340.0,226.0650597687635 L 340.0,226.0650597687635M228.57142857142858 34.63648834019206 L 225.71428571428572,128.92220262590635 L 220.0411522633744,132.93748775230264 L 212.71017048794826,139.9862825788752 L 203.96825396825398,149.71585341955713 L 194.0623162845385,161.77346658828145 L 183.2392710170488,175.80638839898103 L 171.74603174603172,191.46188516558897 L 159.82951205173427,208.38722320203806 L 147.7366255144033,226.22966882226146 L 135.71428571428572,244.63648834019207 L 135.71428571428572,244.63648834019207 L 116.91749951009209,273.56065059768775 L 102.16539290613365,297.2996276699981 L 91.05820105820106,317.0174407211444 L 83.19615912208504,333.87811091514806 L 78.17950225357633,349.0456594160298 L 75.60846560846561,363.68410738781114 L 75.0832843425436,378.9574759945131 L 76.20419361160101,396.0297864001568 L 78.57142857142857,416.06505976876355 L 78.57142857142857,416.06505976876355 L 84.21908681167939,445.9220066627475 L 91.79502253576327,469.84126984126993 L 101.53439153439156,487.91691162061545 L 113.67234959827552,500.24299431706845 L 128.4440525181266,506.9135802469136 L 146.08465608465605,508.0227317264355 L 166.82931608857533,503.6645110719185 L 190.9131883205957,493.93298059964735 L 218.57142857142858,478.9222026259064 L 218.57142857142858,478.9222026259064 L 244.73446991965508,461.3639035861259 L 272.00274348422494,439.0907309425828 L 299.25925925925935,413.41955712326086 L 325.3870272388791,385.6672545561435 L 349.2690574172056,357.1506956692142 L 369.7883597883598,329.1867528904567 L 385.82794434646286,303.0922986478543 L 396.2708210856359,280.18420536939067 L 400.0,261.7793454830492 L 400.0,261.7793454830492 L 398.9966686262982,241.99294532627874 L 395.99451303155,223.59396433470513 L 391.0052910052911,206.59416029786397 L 384.0407603370566,191.00529100529099 L 375.1126788163825,176.83911424652163 L 364.2328042328042,164.10738781109163 L 351.4128943758573,152.82186948853624 L 336.6647070350774,142.9943170683912 L 320.0,134.63648834019207 L 320.0,134.63648834019207 L 301.9988242210464,127.3858514599257 L 287.5249853027631,121.81657848324514 L 275.8730158730159,117.91691162061528 L 266.3374485596708,115.67509308250058 L 258.21281599059375,115.07936507936508 L 250.79365079365084,116.11796982167358 L 243.37448559670779,118.77914951989031 L 235.2498530276308,123.05114638447981 L 225.71428571428572,128.92220262590635 L 225.71428571428572,128.92220262590635 L 225.71428571428572,128.92220262590635 L 225.71428571428572,128.92220262590635 L 225.71428571428572,128.92220262590635 L 225.71428571428572,128.92220262590635 L 225.71428571428572,128.92220262590635 L 225.71428571428572,128.92220262590635 L 225.71428571428572,128.92220262590635 L 225.71428571428572,128.92220262590635 L 225.71428571428572,128.92220262590635 L 340.0,226.0650597687635 L 340.0,226.0650597687635 L 340.0,226.0650597687635 L 340.0,226.0650597687635 L 340.0,226.0650597687635 L 340.0,226.0650597687635 L 340.0,226.0650597687635 L 340.0,226.0650597687635 L 340.0,226.0650597687635 L 340.0,226.0650597687635 L 340.0,226.0650597687635 L 338.13443072702324,251.2600431118951 L 327.08602782676854,281.5931804820694 L 308.6772486772487,314.9010386047423 L 284.7305506564766,349.02018420536945 L 257.0683911424652,381.78718400940625 L 227.51322751322746,411.03860474230845 L 197.88751714677642,434.61101312953167 L 170.01371742112482,450.3409758965315 L 145.71428571428572,456.06505976876355 L 145.71428571428572,456.06505976876355 L 133.03938859494414,449.9431706839116 L 127.80717225161672,433.1216931216932 L 129.20634920634922,407.9169116206154 L 136.42563198118754,376.64511071918486 L 148.65373309817755,341.6225749559083 L 165.07936507936506,305.16558886929266 L 184.891240446796,269.59043699784445 L 207.27807172251613,237.21340388007064 L 231.42857142857142,210.3507740544778 L 231.42857142857142,210.3507740544778 L 247.7091906721536,197.48579267097796 L 263.89574759945134,188.3833039388595 L 279.5767195767196,182.99627669998043 L 294.34058397021363,181.27767979619836 L 307.7758181461885,183.18048206937098 L 319.47089947089944,188.65765236135616 L 329.01430531060157,197.6621595140114 L 335.99451303155,210.14697236919469 L 340.0,226.0650597687635 L 340.0,226.0650597687635 L 340.0,226.0650597687635 L 340.0,226.0650597687635 L 340.0,226.0650597687635 L 340.0,226.0650597687635 L 340.0,226.0650597687635 L 340.0,226.0650597687635 L 340.0,226.0650597687635 L 340.0,226.0650597687635 L 340.0,226.0650597687635 L 228.57142857142858,34.63648834019206 L 228.9300411522633,38.38134430727037 L 229.95884773662553,41.94983343131486 L 231.5873015873016,45.271408975112635 L 233.7448559670782,48.27552420145018 L 236.36096413874193,50.89163237311384 L 239.36507936507937,53.04918675289051 L 242.68665490887713,54.67764060356664 L 246.25514403292178,55.70644718792876 L 250.0,56.0650597687635 L 250.0,56.0650597687635 L 253.74485596707814,55.70644718792876 L 257.31334509112287,54.67764060356656 L 260.6349206349207,53.04918675289051 L 263.63903586125804,50.89163237311384 L 266.25514403292175,48.27552420145018 L 268.4126984126984,45.27140897511272 L 270.04115226337444,41.949833431314936 L 271.06995884773664,38.38134430727028 L 271.42857142857144,34.63648834019206 L 271.42857142857144,34.63648834019206 L 271.06995884773653,30.891632373114007 L 270.0411522633745,27.323143249069116 L 268.4126984126984,24.00156770527141 L 266.2551440329218,20.997452478933955 L 263.6390358612581,18.381344307270282 L 260.63492063492066,16.223789927493694 L 257.31334509112287,14.595336076817572 L 253.7448559670782,13.566529492455453 L 250.0,13.207916911620632 L 250.0,13.207916911620632 L 246.25514403292178,13.566529492455533 L 242.68665490887713,14.595336076817572 L 239.3650793650794,16.223789927493613 L 236.360964138742,18.3813443072702 L 233.7448559670782,20.997452478934036 L 231.5873015873016,24.001567705271494 L 229.95884773662553,27.323143249069197 L 228.93004115226339,30.891632373113925 L 228.57142857142858,34.63648834019206 L 228.57142857142858,34.63648834019206 L 228.57142857142858,34.63648834019206 L 228.57142857142858,34.63648834019206 L 228.57142857142858,34.63648834019206 L 228.57142857142858,34.63648834019206 L 228.57142857142858,34.63648834019206 L 228.57142857142858,34.63648834019206 L 228.57142857142858,34.63648834019206 L 228.57142857142858,34.63648834019206 L 228.57142857142858,34.63648834019206M322.85714285714283 20.350774054477778 L 225.71428571428572,128.92220262590635 L 220.0411522633744,132.93748775230264 L 212.71017048794826,139.9862825788752 L 203.96825396825398,149.71585341955713 L 194.0623162845385,161.77346658828145 L 183.2392710170488,175.80638839898103 L 171.74603174603172,191.46188516558897 L 159.82951205173427,208.38722320203806 L 147.7366255144033,226.22966882226146 L 135.71428571428572,244.63648834019207 L 135.71428571428572,244.63648834019207 L 116.91749951009209,273.56065059768775 L 102.16539290613365,297.2996276699981 L 91.05820105820106,317.0174407211444 L 83.19615912208504,333.87811091514806 L 78.17950225357633,349.0456594160298 L 75.60846560846561,363.68410738781114 L 75.0832843425436,378.9574759945131 L 76.20419361160101,396.0297864001568 L 78.57142857142857,416.06505976876355 L 78.57142857142857,416.06505976876355 L 84.21908681167939,445.9220066627475 L 91.79502253576327,469.84126984126993 L 101.53439153439156,487.91691162061545 L 113.67234959827552,500.24299431706845 L 128.4440525181266,506.9135802469136 L 146.08465608465605,508.0227317264355 L 166.82931608857533,503.6645110719185 L 190.9131883205957,493.93298059964735 L 218.57142857142858,478.9222026259064 L 218.57142857142858,478.9222026259064 L 244.73446991965508,461.3639035861259 L 272.00274348422494,439.0907309425828 L 299.25925925925935,413.41955712326086 L 325.3870272388791,385.6672545561435 L 349.2690574172056,357.1506956692142 L 369.7883597883598,329.1867528904567 L 385.82794434646286,303.0922986478543 L 396.2708210856359,280.18420536939067 L 400.0,261.7793454830492 L 400.0,261.7793454830492 L 398.9966686262982,241.99294532627874 L 395.99451303155,223.59396433470513 L 391.0052910052911,206.59416029786397 L 384.0407603370566,191.00529100529099 L 375.1126788163825,176.83911424652163 L 364.2328042328042,164.10738781109163 L 351.4128943758573,152.82186948853624 L 336.6647070350774,142.9943170683912 L 320.0,134.63648834019207 L 320.0,134.63648834019207 L 301.9988242210464,127.3858514599257 L 287.5249853027631,121.81657848324514 L 275.8730158730159,117.91691162061528 L 266.3374485596708,115.67509308250058 L 258.21281599059375,115.07936507936508 L 250.79365079365084,116.11796982167358 L 243.37448559670779,118.77914951989031 L 235.2498530276308,123.05114638447981 L 225.71428571428572,128.92220262590635 L 225.71428571428572,128.92220262590635 L 225.71428571428572,128.92220262590635 L 225.71428571428572,128.92220262590635 L 225.71428571428572,128.92220262590635 L 225.71428571428572,128.92220262590635 L 225.71428571428572,128.92220262590635 L 225.71428571428572,128.92220262590635 L 225.71428571428572,128.92220262590635 L 225.71428571428572,128.92220262590635 L 225.71428571428572,128.92220262590635 L 340.0,226.0650597687635 L 340.0,226.0650597687635 L 340.0,226.0650597687635 L 340.0,226.0650597687635 L 340.0,226.0650597687635 L 340.0,226.0650597687635 L 340.0,226.0650597687635 L 340.0,226.0650597687635 L 340.0,226.0650597687635 L 340.0,226.0650597687635 L 340.0,226.0650597687635 L 338.13443072702324,251.2600431118951 L 327.08602782676854,281.5931804820694 L 308.6772486772487,314.9010386047423 L 284.7305506564766,349.02018420536945 L 257.0683911424652,381.78718400940625 L 227.51322751322746,411.03860474230845 L 197.88751714677642,434.61101312953167 L 170.01371742112482,450.3409758965315 L 145.71428571428572,456.06505976876355 L 145.71428571428572,456.06505976876355 L 133.03938859494414,449.9431706839116 L 127.80717225161672,433.1216931216932 L 129.20634920634922,407.9169116206154 L 136.42563198118754,376.64511071918486 L 148.65373309817755,341.6225749559083 L 165.07936507936506,305.16558886929266 L 184.891240446796,269.59043699784445 L 207.27807172251613,237.21340388007064 L 231.42857142857142,210.3507740544778 L 231.42857142857142,210.3507740544778 L 247.7091906721536,197.48579267097796 L 263.89574759945134,188.3833039388595 L 279.5767195767196,182.99627669998043 L 294.34058397021363,181.27767979619836 L 307.7758181461885,183.18048206937098 L 319.47089947089944,188.65765236135616 L 329.01430531060157,197.6621595140114 L 335.99451303155,210.14697236919469 L 340.0,226.0650597687635 L 340.0,226.0650597687635 L 340.0,226.0650597687635 L 340.0,226.0650597687635 L 340.0,226.0650597687635 L 340.0,226.0650597687635 L 340.0,226.0650597687635 L 340.0,226.0650597687635 L 340.0,226.0650597687635 L 340.0,226.0650597687635 L 340.0,226.0650597687635 L 228.57142857142858,34.63648834019206 L 228.9300411522633,38.38134430727037 L 229.95884773662553,41.94983343131486 L 231.5873015873016,45.271408975112635 L 233.7448559670782,48.27552420145018 L 236.36096413874193,50.89163237311384 L 239.36507936507937,53.04918675289051 L 242.68665490887713,54.67764060356664 L 246.25514403292178,55.70644718792876 L 250.0,56.0650597687635 L 250.0,56.0650597687635 L 253.74485596707814,55.70644718792876 L 257.31334509112287,54.67764060356656 L 260.6349206349207,53.04918675289051 L 263.63903586125804,50.89163237311384 L 266.25514403292175,48.27552420145018 L 268.4126984126984,45.27140897511272 L 270.04115226337444,41.949833431314936 L 271.06995884773664,38.38134430727028 L 271.42857142857144,34.63648834019206 L 271.42857142857144,34.63648834019206 L 271.06995884773653,30.891632373114007 L 270.0411522633745,27.323143249069116 L 268.4126984126984,24.00156770527141 L 266.2551440329218,20.997452478933955 L 263.6390358612581,18.381344307270282 L 260.63492063492066,16.223789927493694 L 257.31334509112287,14.595336076817572 L 253.7448559670782,13.566529492455453 L 250.0,13.207916911620632 L 250.0,13.207916911620632 L 246.25514403292178,13.566529492455533 L 242.68665490887713,14.595336076817572 L 239.3650793650794,16.223789927493613 L 236.360964138742,18.3813443072702 L 233.7448559670782,20.997452478934036 L 231.5873015873016,24.001567705271494 L 229.95884773662553,27.323143249069197 L 228.93004115226339,30.891632373113925 L 228.57142857142858,34.63648834019206 L 228.57142857142858,34.63648834019206 L 228.57142857142858,34.63648834019206 L 228.57142857142858,34.63648834019206 L 228.57142857142858,34.63648834019206 L 228.57142857142858,34.63648834019206 L 228.57142857142858,34.63648834019206 L 228.57142857142858,34.63648834019206 L 228.57142857142858,34.63648834019206 L 228.57142857142858,34.63648834019206 L 228.57142857142858,34.63648834019206 L 322.85714285714283,20.350774054477778 L 321.4658044287673,28.244170096022085 L 322.7317264354302,35.56143445032336 L 326.2433862433862,42.04389574759944 L 331.5892612188909,47.43288261806787 L 338.35782872819914,51.46972369194593 L 346.1375661375662,53.89574759945139 L 354.5169508132471,54.452282970801534 L 363.0844601214971,52.88065843621407 L 371.42857142857144,48.92220262590635 L 371.42857142857144,48.92220262590635 L 374.81285518322545,46.48246129727625 L 377.33882030178324,43.901626494219144 L 378.994708994709,41.14442484812855 L 379.7687634724671,38.17558299039783 L 379.64922594552223,34.95982755242015 L 378.6243386243386,31.46188516558896 L 376.6823437193807,27.646482461297364 L 373.81148344111307,23.47834607093871 L 370.0,18.922202625906348 L 370.0,18.922202625906348 L 363.11581422692524,11.305114638448117 L 356.72545561434447,5.604546345287126 L 350.79365079365084,1.8322555359592183 L 345.28512639623756,0.0 L 340.164609053498,0.1195375269449122 L 335.39682539682536,2.2026259063296396 L 330.9465020576132,6.261022927689623 L 326.77836566725455,12.30648638056047 L 322.85714285714283,20.350774054477778 L 322.85714285714283,20.350774054477778 L 322.85714285714283,20.350774054477778 L 322.85714285714283,20.350774054477778 L 322.85714285714283,20.350774054477778 L 322.85714285714283,20.350774054477778 L 322.85714285714283,20.350774054477778 L 322.85714285714283,20.350774054477778 L 322.85714285714283,20.350774054477778 L 322.85714285714283,20.350774054477778 L 322.85714285714283,20.350774054477778"/></svg>
