<?xml version="1.0" encoding="utf-8"?>
<svg xmlns="http://www.w3.org/2000/svg"  viewBox="0,0,400,554.5454545454545" width="100%">
<path d="M294.54545454545456 10.0 L 294.54545454545456,10.0 L 293.20613542835764,14.303529118344096 L 293.79723157500933,18.569647088165556 L 295.95959595959596,22.55892255892253 L 299.3340815563038,26.031924180072313 L 303.56154133931915,28.74922060107244 L 308.2828282828283,30.471380471380535 L 313.1387953610175,30.958972440454005 L 317.77029554807336,29.972565157750378 L 321.8181818181818,27.272727272727273 L 321.8181818181818,27.272727272727273 L 323.9556054370869,24.18256640478882 L 324.9781768300287,20.531238309016025 L 324.983164983165,16.565656565656518 L 324.06783888265363,12.532734754956994 L 322.3294675146527,8.679386457164252 L 319.86531986531986,5.252525252525298 L 316.77266492081304,2.499064721286934 L 313.1487716672902,0.6659184436962691 L 309.09090909090907,0.0 L 309.09090909090907,0.0 L 307.5146526998379,0.1633620152139511 L 305.84112732260877,0.6334954483101931 L 304.10774410774417,1.3804713804712387 L 302.3519142037661,2.3743608928793947 L 300.6110487591969,3.585235066716553 L 298.92255892255884,4.983164983165021 L 297.32385584237437,6.538221723407001 L 295.85235066716547,8.220476368624489 L 294.54545454545456,10.0 L 294.54545454545456,10.0 L 294.54545454545456,10.0 L 294.54545454545456,10.0 L 294.54545454545456,10.0 L 294.54545454545456,10.0 L 294.54545454545456,10.0 L 294.54545454545456,10.0 L 294.54545454545456,10.0 L 294.54545454545456,10.0 L 294.54545454545456,10.0"/></svg>
