<?xml version="1.0" encoding="utf-8"?>
<svg xmlns="http://www.w3.org/2000/svg"  viewBox="0,0,400,554.5454545454545" width="100%">
<path d="M294.54545454545456 10.0 L 294.54545454545456,10.0 L 293.20613542835764,14.303529118344096 L 293.79723157500933,18.569647088165556 L 295.95959595959596,22.55892255892253 L 299.3340815563038,26.031924180072313 L 303.56154133931915,28.74922060107244 L 308.2828282828283,30.471380471380535 L 313.1387953610175,30.958972440454005 L 317.77029554807336,29.972565157750378 L 321.8181818181818,27.272727272727273 L 321.8181818181818,27.272727272727273 L 323.9556054370869,24.18256640478882 L 324.9781768300287,20.531238309016025 L 324.983164983165,16.565656565656518 L 324.06783888265363,12.532734754956994 L 322.3294675146527,8.679386457164252 L 319.86531986531986,5.252525252525298 L 316.77266492081304,2.499064721286934 L 313.1487716672902,0.6659184436962691 L 309.09090909090907,0.0 L 309.09090909090907,0.0 L 307.5146526998379,0.1633620152139511 L 305.84112732260877,0.6334954483101931 L 304.10774410774417,1.3804713804712387 L 302.3519142037661,2.3743608928793947 L 300.6110487591969,3.585235066716553 L 298.92255892255884,4.983164983165021 L 297.32385584237437,6.538221723407001 L 295.85235066716547,8.220476368624489 L 294.54545454545456,10.0 L 294.54545454545456,10.0 L 294.54545454545456,10.0 L 294.54545454545456,10.0 L 294.54545454545456,10.0 L 294.54545454545456,10.0 L 294.54545454545456,10.0 L 294.54545454545456,10.0 L 294.54545454545456,10.0 L 294.54545454545456,10.0 L 294.54545454545456,10.0M319.09090909090907 61.81818181818181 L 294.54545454545456,10.0 L 293.20613542835764,14.303529118344096 L 293.79723157500933,18.569647088165556 L 295.95959595959596,22.55892255892253 L 299.3340815563038,26.031924180072313 L 303.56154133931915,28.74922060107244 L 308.2828282828283,30.471380471380535 L 313.1387953610175,30.958972440454005 L 317.77029554807336,29.972565157750378 L 321.8181818181818,27.272727272727273 L 321.8181818181818,27.272727272727273 L 323.9556054370869,24.18256640478882 L 324.9781768300287,20.531238309016025 L 324.983164983165,16.565656565656518 L 324.06783888265363,12.532734754956994 L 322.3294675146527,8.679386457164252 L 319.86531986531986,5.252525252525298 L 316.77266492081304,2.499064721286934 L 313.1487716672902,0.6659184436962691 L 309.09090909090907,0.0 L 309.09090909090907,0.0 L 307.5146526998379,0.1633620152139511 L 305.84112732260877,0.6334954483101931 L 304.10774410774417,1.3804713804712387 L 302.3519142037661,2.3743608928793947 L 300.6110487591969,3.585235066716553 L 298.92255892255884,4.983164983165021 L 297.32385584237437,6.538221723407001 L 295.85235066716547,8.220476368624489 L 294.54545454545456,10.0 L 294.54545454545456,10.0 L 294.54545454545456,10.0 L 294.54545454545456,10.0 L 294.54545454545456,10.0 L 294.54545454545456,10.0 L 294.54545454545456,10.0 L 294.54545454545456,10.0 L 294.54545454545456,10.0 L 294.54545454545456,10.0 L 294.54545454545456,10.0 L 319.09090909090907,61.81818181818181 L 317.38620775657813,66.11298166853719 L 315.35228831525126,72.74223718668168 L 313.06397306397315,81.4141414141414 L 310.596084299788,91.83688739244292 L 308.02344431974063,103.71866816311254 L 305.4208754208754,116.76767676767682 L 302.86319990023696,130.6921062476618 L 300.4252400548697,145.2001496445941 L 298.1818181818182,160.0 L 298.1818181818182,160.0 L 295.16398553435585,179.8603317121836 L 292.08629504925807,197.26649208130686 L 288.82154882154884,212.59259259259258 L 285.2425489462527,226.21274473126329 L 281.2220975183938,238.5010599825414 L 276.63299663299665,249.83164983164986 L 271.3480483850854,260.5786257638109 L 265.2400548696845,271.1160992642474 L 258.1818181818182,281.81818181818176 L 258.1818181818182,281.81818181818176 L 249.66579373986778,293.75607931163495 L 242.51153510412774,303.112607557052 L 236.12794612794616,310.20202020202015 L 229.92393066467142,315.3385708941264 L 223.30839256765182,318.8365132809577 L 215.69023569023565,321.010101010101 L 206.47836388577133,322.17358772914326 L 195.08168100760693,322.6412270856715 L 180.9090909090909,322.7272727272727 L 180.9090909090909,322.7272727272727 L 169.40890385334828,322.8656939768051 L 159.6820052375608,323.29592218481105 L 151.61616161616163,324.040404040404 L 145.09913954358402,325.12158623269727 L 140.0187055742611,326.56191545080435 L 136.26262626262627,328.38383838383834 L 133.7186681631126,330.6098017209128 L 132.27459783015337,333.26225215114096 L 131.8181818181818,336.3636363636364 L 131.8181818181818,336.3636363636364 L 132.1461528868936,338.78039655817435 L 133.09514902107495,341.1522633744855 L 134.6127946127946,343.4343434343434 L 136.64671405412145,345.58174335952106 L 139.1445317371243,347.54956977179194 L 142.05387205387203,349.2929292929293 L 145.32235939643348,350.76692854470633 L 148.8976181568774,351.9266741488963 L 152.72727272727272,352.7272727272727 L 152.72727272727272,352.7272727272727 L 156.28631999002366,353.42935528120717 L 159.65082928045894,354.3035291183439 L 162.7609427609428,355.31986531986524 L 165.55680259383962,356.44843496695347 L 167.9785509415139,357.6593091407906 L 169.96632996632994,358.9225589225589 L 171.46028183065218,360.20825539344054 L 172.40054869684496,361.4864696346178 L 172.72727272727272,362.7272727272727 L 172.72727272727272,362.7272727272727 L 169.7293926923556,367.19042274597825 L 161.53884524254892,372.9779274223718 L 149.3602693602694,379.5959595959595 L 134.39830402793365,386.5506921062476 L 117.85758822795862,393.3482977927422 L 100.94276094276096,399.4949494949495 L 84.85846115475746,404.4968200523756 L 70.8093278463649,407.8600823045267 L 60.0,409.09090909090907 L 60.0,409.09090909090907 L 55.358523506671645,409.28918817807704 L 51.15101633620153,409.86906098017204 L 47.40740740740741,410.8080808080807 L 44.157625639107124,412.0838009726898 L 41.43159995011847,413.6737747848859 L 39.25925925925926,415.5555555555555 L 37.6705324853473,417.70669659558547 L 36.695348547200396,420.10475121586234 L 36.36363636363637,422.7272727272727 L 36.36363636363637,422.7272727272727 L 40.24816061853098,431.4702581369248 L 51.00885397181694,436.1054994388327 L 67.3063973063973,436.96969696969694 L 87.8014715051752,434.39955106621767 L 111.15475745105375,428.7317620650954 L 136.02693602693603,420.3030303030303 L 161.07868811572513,409.4500561167228 L 184.9706946003242,396.50953984287315 L 206.36363636363637,381.81818181818176 L 206.36363636363637,381.81818181818176 L 210.95024317246535,378.5609178201771 L 216.1204638982417,375.49070956478363 L 221.71717171717174,372.6599326599326 L 227.58323980546203,370.1209627135553 L 233.56154133931912,367.92617533358276 L 239.4949494949495,366.12794612794613 L 245.22633744855966,364.7786507045766 L 250.59857837635616,363.93066467140545 L 255.45454545454547,363.63636363636357 L 255.45454545454547,363.63636363636357 L 264.4282329467514,364.1239556054371 L 271.41912956727776,365.9209377727896 L 276.53198653198655,369.5286195286194 L 279.87155505674025,375.44831026312505 L 281.5425863574012,384.18131936650457 L 281.64983164983164,396.2289562289562 L 280.298042149894,412.09253024067834 L 277.5919690734505,432.2733507918693 L 273.6363636363636,457.2727272727272 L 273.6363636363636,457.2727272727272 L 272.0576131687243,467.9349046015712 L 270.9726898615788,476.9809203142536 L 270.4040404040405,484.5454545454545 L 270.37411148522256,490.76318742985404 L 270.9053497942387,495.7687991021324 L 272.02020202020196,499.69696969696963 L 273.74111485222596,502.6823793490459 L 276.0905349794238,504.85970819304157 L 279.09090909090907,506.3636363636364 L 279.09090909090907,506.3636363636364 L 284.8459907719166,508.2716049382715 L 289.5086669160743,508.8327721661055 L 293.26599326599336,507.57575757575756 L 296.3050255642848,504.02918069584734 L 298.8128195535603,497.72166105499434 L 300.97643097643095,488.18181818181813 L 302.9829155755081,474.9382716049382 L 305.01932909340314,457.51964085297413 L 307.27272727272725,435.45454545454544 L 307.27272727272725,435.45454545454544 L 309.23556553186177,415.93091407906223 L 311.05624142661173,400.6122957974809 L 312.996632996633,388.9225589225589 L 315.3186182815812,380.28557176705317 L 318.28407532111237,374.12520264372114 L 322.1548821548821,369.86531986531986 L 327.19291682254647,366.9297917446065 L 333.660057363761,364.74248659433846 L 341.8181818181818,362.7272727272727 L 341.8181818181818,362.7272727272727 L 359.2168599576006,358.63823419378974 L 372.5900985160244,353.8533482977927 L 381.88552188552194,348.68686868686865 L 387.0507544581618,343.4530490086046 L 388.0334206260132,338.46614291058734 L 384.7811447811448,334.040404040404 L 377.2415513156254,330.49008604564165 L 365.3622646215238,328.12944257388705 L 349.09090909090907,327.27272727272725 L 349.09090909090907,327.27272727272725 L 340.36912333208613,327.17171717171715 L 333.45803716174083,326.7340067340067 L 328.14814814814815,325.7575757575757 L 324.2299538595835,324.040404040404 L 321.4939518643223,321.3804713804713 L 319.7306397306397,317.57575757575756 L 318.7305150268113,312.42424242424244 L 318.2840753211123,305.7239057239057 L 318.1818181818182,297.27272727272725 L 318.1818181818182,297.27272727272725 L 318.6394812320738,290.65843621399176 L 319.9576006983414,281.9341563786008 L 322.05387205387206,271.41414141414134 L 324.8459907719167,259.4126449682005 L 328.25165232572635,246.24392068836514 L 332.18855218855214,232.22222222222223 L 336.5743858336451,217.6618032173588 L 341.32684873425603,202.87691732136182 L 346.3636363636364,188.1818181818182 L 346.3636363636364,188.1818181818182 L 355.82366878663174,159.31662302032674 L 362.98665669036035,133.89325352288319 L 367.84511784511784,111.85185185185172 L 370.39157002119964,93.13256016959717 L 370.61853098890134,77.6755206384836 L 368.51851851851853,65.42087542087549 L 364.0840503803467,56.308766679137115 L 357.3076443446814,50.279336575632875 L 348.1818181818182,47.272727272727266 L 348.1818181818182,47.272727272727266 L 344.2511535104127,46.9335328594588 L 340.37286444693854,47.11809452550193 L 336.5993265993266,47.81144781144782 L 332.9829155755081,48.99862825788752 L 329.5760069834144,50.66467140541208 L 326.4309764309764,52.794612794612846 L 323.60019952612544,55.373487966080575 L 321.13605187679264,58.38633246040651 L 319.09090909090907,61.81818181818181 L 319.09090909090907,61.81818181818181 L 319.09090909090907,61.81818181818181 L 319.09090909090907,61.81818181818181 L 319.09090909090907,61.81818181818181 L 319.09090909090907,61.81818181818181 L 319.09090909090907,61.81818181818181 L 319.09090909090907,61.81818181818181 L 319.09090909090907,61.81818181818181 L 319.09090909090907,61.81818181818181 L 319.09090909090907,61.81818181818181 L 281.8181818181818,322.7272727272727 L 281.8181818181818,322.7272727272727 L 281.8181818181818,322.7272727272727 L 281.8181818181818,322.7272727272727 L 281.8181818181818,322.7272727272727 L 281.8181818181818,322.7272727272727 L 281.8181818181818,322.7272727272727 L 281.8181818181818,322.7272727272727 L 281.8181818181818,322.7272727272727 L 281.8181818181818,322.7272727272727 L 281.8181818181818,322.7272727272727 L 281.68599576006983,325.11036288814074 L 281.2994138920065,327.38121960344176 L 280.6734006734007,329.4949494949495 L 279.8229205636613,331.406659184437 L 278.7629380221973,333.07145529367756 L 277.5084175084175,334.44444444444446 L 276.0743234817309,335.480733258511 L 274.4756204015463,336.13542835765054 L 272.72727272727275,336.3636363636364 L 272.72727272727275,336.3636363636364 L 271.31562538969945,336.13542835765054 L 270.1209627135553,335.48073325851095 L 269.1582491582492,334.44444444444434 L 268.44244918319,333.0714552936775 L 267.98852724778646,331.406659184437 L 267.81144781144786,329.4949494949495 L 267.92617533358276,327.3812196034418 L 268.3476742736002,325.1103628881406 L 269.09090909090907,322.7272727272727 L 269.09090909090907,322.7272727272727 L 270.3005362264621,320.34418256640475 L 271.4951989026063,318.0733258511036 L 272.6599326599326,315.95959595959596 L 273.77977303903225,314.04788627010845 L 274.83975558049633,312.3830901608679 L 275.8249158249158,311.010101010101 L 276.7202893128819,309.97381219603443 L 277.51091158498565,309.3191170968949 L 278.1818181818182,309.09090909090907 L 278.1818181818182,309.09090909090907 L 278.7853847113106,309.31911709689496 L 279.3739867813942,309.97381219603443 L 279.93265993265993,311.0101010101009 L 280.446439705699,312.3830901608679 L 280.9003616411024,314.04788627010845 L 281.27946127946126,315.95959595959596 L 281.5687741613667,318.0733258511036 L 281.7533358274099,320.34418256640475 L 281.8181818181818,322.7272727272727 L 281.8181818181818,322.7272727272727 L 281.8181818181818,322.7272727272727 L 281.8181818181818,322.7272727272727 L 281.8181818181818,322.7272727272727 L 281.8181818181818,322.7272727272727 L 281.8181818181818,322.7272727272727 L 281.8181818181818,322.7272727272727 L 281.8181818181818,322.7272727272727 L 281.8181818181818,322.7272727272727 L 281.8181818181818,322.7272727272727"/></svg>
