<?xml version="1.0" encoding="utf-8"?>
<svg xmlns="http://www.w3.org/2000/svg"  viewBox="0,0,400,752.0" width="100%">
<path d="M72.0 16.0 L 72.0,16.0 L 69.02386831275719,24.515775034293714 L 69.40576131687243,33.75582990397806 L 72.71111111111111,43.25925925925922 L 78.50534979423867,52.565157750342955 L 86.35390946502058,61.21262002743487 L 95.82222222222221,68.74074074074078 L 106.47572016460904,74.68861454046638 L 117.87983539094648,78.5953360768176 L 129.6,80.0 L 129.6,80.0 L 140.66831275720165,78.0598079561044 L 149.2872427983539,72.77475994513024 L 155.3777777777778,64.94814814814808 L 158.86090534979422,55.383264746227724 L 159.65761316872425,44.88340192043888 L 157.68888888888887,34.25185185185201 L 152.87572016460902,24.29190672153636 L 145.13909465020575,15.806858710562484 L 134.4,9.6 L 134.4,9.6 L 123.35802469135803,5.447462277092109 L 113.61975308641978,2.5722908093277512 L 105.0666666666667,0.9481481481480841 L 97.58024691358024,0.5486968449931737 L 91.04197530864198,1.3475994513031764 L 85.33333333333333,3.318518518518613 L 80.3358024691358,6.43511659807964 L 75.93086419753085,10.671056241426594 L 72.0,16.0 L 72.0,16.0 L 72.0,16.0 L 72.0,16.0 L 72.0,16.0 L 72.0,16.0 L 72.0,16.0 L 72.0,16.0 L 72.0,16.0 L 72.0,16.0 L 72.0,16.0"/></svg>
