<?xml version="1.0" encoding="utf-8"?>
<svg xmlns="http://www.w3.org/2000/svg"  viewBox="0,0,400,752.0" width="100%">
<path d="M72.0 16.0 L 72.0,16.0 L 69.02386831275719,24.515775034293714 L 69.40576131687243,33.75582990397806 L 72.71111111111111,43.25925925925922 L 78.50534979423867,52.565157750342955 L 86.35390946502058,61.21262002743487 L 95.82222222222221,68.74074074074078 L 106.47572016460904,74.68861454046638 L 117.87983539094648,78.5953360768176 L 129.6,80.0 L 129.6,80.0 L 140.66831275720165,78.0598079561044 L 149.2872427983539,72.77475994513024 L 155.3777777777778,64.94814814814808 L 158.86090534979422,55.383264746227724 L 159.65761316872425,44.88340192043888 L 157.68888888888887,34.25185185185201 L 152.87572016460902,24.29190672153636 L 145.13909465020575,15.806858710562484 L 134.4,9.6 L 134.4,9.6 L 123.35802469135803,5.447462277092109 L 113.61975308641978,2.5722908093277512 L 105.0666666666667,0.9481481481480841 L 97.58024691358024,0.5486968449931737 L 91.04197530864198,1.3475994513031764 L 85.33333333333333,3.318518518518613 L 80.3358024691358,6.43511659807964 L 75.93086419753085,10.671056241426594 L 72.0,16.0 L 72.0,16.0 L 72.0,16.0 L 72.0,16.0 L 72.0,16.0 L 72.0,16.0 L 72.0,16.0 L 72.0,16.0 L 72.0,16.0 L 72.0,16.0 L 72.0,16.0M140.8 219.2 L 72.0,16.0 L 69.02386831275719,24.515775034293714 L 69.40576131687243,33.75582990397806 L 72.71111111111111,43.25925925925922 L 78.50534979423867,52.565157750342955 L 86.35390946502058,61.21262002743487 L 95.82222222222221,68.74074074074078 L 106.47572016460904,74.68861454046638 L 117.87983539094648,78.5953360768176 L 129.6,80.0 L 129.6,80.0 L 140.66831275720165,78.0598079561044 L 149.2872427983539,72.77475994513024 L 155.3777777777778,64.94814814814808 L 158.86090534979422,55.383264746227724 L 159.65761316872425,44.88340192043888 L 157.68888888888887,34.25185185185201 L 152.87572016460902,24.29190672153636 L 145.13909465020575,15.806858710562484 L 134.4,9.6 L 134.4,9.6 L 123.35802469135803,5.447462277092109 L 113.61975308641978,2.5722908093277512 L 105.0666666666667,0.9481481481480841 L 97.58024691358024,0.5486968449931737 L 91.04197530864198,1.3475994513031764 L 85.33333333333333,3.318518518518613 L 80.3358024691358,6.43511659807964 L 75.93086419753085,10.671056241426594 L 72.0,16.0 L 72.0,16.0 L 72.0,16.0 L 72.0,16.0 L 72.0,16.0 L 72.0,16.0 L 72.0,16.0 L 72.0,16.0 L 72.0,16.0 L 72.0,16.0 L 72.0,16.0 L 140.8,219.2 L 117.40137174211247,230.24197530864203 L 99.50727023319618,241.63950617283953 L 87.17037037037039,252.8 L 80.44334705075445,263.1308641975308 L 79.37887517146777,272.03950617283954 L 84.02962962962964,278.9333333333334 L 94.44828532235938,283.2197530864198 L 110.6875171467764,284.3061728395062 L 132.8,281.6 L 132.8,281.6 L 184.5333333333333,271.4074074074074 L 225.4814814814815,264.77037037037036 L 257.06666666666666,262.3999999999999 L 280.7111111111111,265.0074074074074 L 297.8370370370371,273.3037037037037 L 309.8666666666666,288.0 L 318.2222222222222,309.80740740740737 L 324.3259259259259,339.43703703703704 L 329.6,377.6 L 329.6,377.6 L 332.88998628257883,400.4784636488341 L 335.17914951989025,418.16844993141285 L 336.29629629629636,431.05185185185184 L 336.07023319615917,439.51056241426613 L 334.32976680384087,443.9264746227709 L 330.9037037037036,444.68148148148146 L 325.62085048010977,442.157475994513 L 318.3100137174211,436.73635116598086 L 308.8,428.8 L 308.8,428.8 L 291.5006858710562,414.8301783264747 L 272.92400548696844,402.84883401920433 L 253.4518518518519,392.94814814814816 L 233.46611796982165,385.22030178326474 L 213.34869684499316,379.757475994513 L 193.4814814814815,376.65185185185186 L 174.24636488340192,375.99561042524005 L 156.02524005486967,377.88093278463646 L 139.2,382.4 L 139.2,382.4 L 114.61399176954733,396.15692729766806 L 93.38600823045269,416.2480109739369 L 75.91111111111113,441.30370370370366 L 62.58436213991769,469.95445816186555 L 53.800823045267485,500.8307270233197 L 49.955555555555556,532.562962962963 L 51.44362139917695,563.7816186556927 L 58.66008230452674,593.117146776406 L 72.0,619.2 L 72.0,619.2 L 86.25953360768173,634.9519890260631 L 105.83923182441701,649.927023319616 L 129.54074074074074,663.7037037037037 L 156.16570644718792,675.8606310013718 L 184.51577503429357,685.9764060356653 L 213.39259259259256,693.6296296296297 L 241.59780521262002,698.39890260631 L 267.93305898491076,699.8628257887517 L 291.2,697.6 L 291.2,697.6 L 318.10809327846357,691.0968449931412 L 340.42030178326473,682.9080932784636 L 358.51851851851853,672.4148148148147 L 372.7846364883402,658.9980795610425 L 383.600548696845,642.0389574759946 L 391.3481481481481,620.9185185185186 L 396.4093278463649,595.0178326474622 L 399.1659807956103,563.7179698216736 L 400.0,526.4 L 400.0,526.4 L 399.1374485596707,485.64718792866955 L 396.65514403292184,444.9997256515775 L 392.71111111111117,405.27407407407406 L 387.4633744855967,367.28669410150894 L 381.06995884773664,331.8540466392318 L 373.68888888888887,299.79259259259265 L 365.4781893004115,271.91879286694103 L 356.5958847736625,249.04910836762693 L 347.2,232.0 L 347.2,232.0 L 335.3283950617284,220.86803840877928 L 318.47901234567905,212.04060356652946 L 297.6000000000001,205.57037037037034 L 273.63950617283956,201.51001371742112 L 247.5456790123457,199.91220850480101 L 220.26666666666665,200.82962962962966 L 192.75061728395062,204.31495198902613 L 165.94567901234566,210.42085048010978 L 140.8,219.2 L 140.8,219.2 L 140.8,219.2 L 140.8,219.2 L 140.8,219.2 L 140.8,219.2 L 140.8,219.2 L 140.8,219.2 L 140.8,219.2 L 140.8,219.2 L 140.8,219.2 L 249.6,460.8 L 249.6,460.8 L 249.6,460.8 L 249.6,460.8 L 249.6,460.8 L 249.6,460.8 L 249.6,460.8 L 249.6,460.8 L 249.6,460.8 L 249.6,460.8 L 249.6,460.8 L 264.5113854595336,474.49986282578885 L 279.05404663923184,491.4655692729766 L 292.74074074074076,510.6962962962963 L 305.0842249657065,531.1912208504801 L 315.59725651577503,551.9495198902606 L 323.79259259259254,571.9703703703705 L 329.18299039780516,590.2529492455418 L 331.2812071330589,605.7964334705075 L 329.6,617.6 L 329.6,617.6 L 327.18573388203015,622.160768175583 L 323.20438957476,626.2342935528121 L 317.74814814814823,629.8074074074074 L 310.9091906721536,632.8669410150891 L 302.7796982167352,635.3997256515776 L 293.4518518518518,637.3925925925927 L 283.0178326474623,638.8323731138546 L 271.5698216735253,639.7058984910836 L 259.2,640.0 L 259.2,640.0 L 221.6362139917695,636.330315500686 L 188.37860082304528,626.0499314128944 L 160.17777777777778,610.2518518518518 L 137.7843621399177,590.0290809327847 L 121.94897119341562,566.4746227709192 L 113.42222222222222,540.6814814814815 L 112.95473251028807,513.7426611796983 L 121.29711934156379,486.75116598079563 L 139.2,460.8 L 139.2,460.8 L 149.99176954732508,450.3176954732511 L 161.0600823045268,442.3637860082305 L 172.44444444444443,436.9777777777777 L 184.18436213991768,434.19917695473254 L 196.31934156378603,434.0674897119341 L 208.88888888888889,436.62222222222226 L 221.9325102880658,441.9028806584363 L 235.48971193415636,449.9489711934157 L 249.6,460.8 L 249.6,460.8 L 249.6,460.8 L 249.6,460.8 L 249.6,460.8 L 249.6,460.8 L 249.6,460.8 L 249.6,460.8 L 249.6,460.8 L 249.6,460.8 L 249.6,460.8"/></svg>
