<?xml version="1.0" encoding="utf-8"?>
<svg xmlns="http://www.w3.org/2000/svg"  viewBox="0,0,400,524.6176268861454" width="100%">
<path d="M165.0 14.617626886145418 L 165.0,14.617626886145418 L 157.53257887517142,23.588820301783358 L 152.57544581618657,32.776063100137165 L 150.0462962962963,41.83984910836763 L 149.8628257887517,50.44067215363512 L 151.94272976680384,58.23902606310014 L 156.2037037037037,64.89540466392327 L 162.56344307270234,70.07030178326474 L 170.93964334705075,73.42421124828542 L 181.25,74.61762688614542 L 181.25,74.61762688614542 L 190.75102880658432,73.54595336076828 L 199.94341563786008,70.48868312757207 L 208.61111111111114,65.68244170096023 L 216.5380658436214,59.363854595336115 L 223.5082304526749,51.7695473251029 L 229.30555555555551,43.13614540466397 L 233.71399176954733,33.70027434842257 L 236.51748971193416,23.69855967078195 L 237.5,13.367626886145418 L 237.5,13.367626886145418 L 235.631001371742,7.854938271605079 L 230.5109739368999,3.803155006858674 L 222.87037037037038,1.191700960219464 L 213.43964334705078,0.0 L 202.94924554183814,0.20747599451297563 L 192.12962962962962,1.7935528120713684 L 181.71124828532237,4.73765432098773 L 172.42455418381343,9.019204389574755 L 165.0,14.617626886145418 L 165.0,14.617626886145418 L 165.0,14.617626886145418 L 165.0,14.617626886145418 L 165.0,14.617626886145418 L 165.0,14.617626886145418 L 165.0,14.617626886145418 L 165.0,14.617626886145418 L 165.0,14.617626886145418 L 165.0,14.617626886145418 L 165.0,14.617626886145418"/></svg>
