<?xml version="1.0" encoding="utf-8"?>
<svg xmlns="http://www.w3.org/2000/svg"  viewBox="0,0,400,524.6176268861454" width="100%">
<path d="M165.0 14.617626886145418 L 165.0,14.617626886145418 L 157.53257887517142,23.588820301783358 L 152.57544581618657,32.776063100137165 L 150.0462962962963,41.83984910836763 L 149.8628257887517,50.44067215363512 L 151.94272976680384,58.23902606310014 L 156.2037037037037,64.89540466392327 L 162.56344307270234,70.07030178326474 L 170.93964334705075,73.42421124828542 L 181.25,74.61762688614542 L 181.25,74.61762688614542 L 190.75102880658432,73.54595336076828 L 199.94341563786008,70.48868312757207 L 208.61111111111114,65.68244170096023 L 216.5380658436214,59.363854595336115 L 223.5082304526749,51.7695473251029 L 229.30555555555551,43.13614540466397 L 233.71399176954733,33.70027434842257 L 236.51748971193416,23.69855967078195 L 237.5,13.367626886145418 L 237.5,13.367626886145418 L 235.631001371742,7.854938271605079 L 230.5109739368999,3.803155006858674 L 222.87037037037038,1.191700960219464 L 213.43964334705078,0.0 L 202.94924554183814,0.20747599451297563 L 192.12962962962962,1.7935528120713684 L 181.71124828532237,4.73765432098773 L 172.42455418381343,9.019204389574755 L 165.0,14.617626886145418 L 165.0,14.617626886145418 L 165.0,14.617626886145418 L 165.0,14.617626886145418 L 165.0,14.617626886145418 L 165.0,14.617626886145418 L 165.0,14.617626886145418 L 165.0,14.617626886145418 L 165.0,14.617626886145418 L 165.0,14.617626886145418 L 165.0,14.617626886145418M193.75 173.36762688614544 L 165.0,14.617626886145418 L 157.53257887517142,23.588820301783358 L 152.57544581618657,32.776063100137165 L 150.0462962962963,41.83984910836763 L 149.8628257887517,50.44067215363512 L 151.94272976680384,58.23902606310014 L 156.2037037037037,64.89540466392327 L 162.56344307270234,70.07030178326474 L 170.93964334705075,73.42421124828542 L 181.25,74.61762688614542 L 181.25,74.61762688614542 L 190.75102880658432,73.54595336076828 L 199.94341563786008,70.48868312757207 L 208.61111111111114,65.68244170096023 L 216.5380658436214,59.363854595336115 L 223.5082304526749,51.7695473251029 L 229.30555555555551,43.13614540466397 L 233.71399176954733,33.70027434842257 L 236.51748971193416,23.69855967078195 L 237.5,13.367626886145418 L 237.5,13.367626886145418 L 235.631001371742,7.854938271605079 L 230.5109739368999,3.803155006858674 L 222.87037037037038,1.191700960219464 L 213.43964334705078,0.0 L 202.94924554183814,0.20747599451297563 L 192.12962962962962,1.7935528120713684 L 181.71124828532237,4.73765432098773 L 172.42455418381343,9.019204389574755 L 165.0,14.617626886145418 L 165.0,14.617626886145418 L 165.0,14.617626886145418 L 165.0,14.617626886145418 L 165.0,14.617626886145418 L 165.0,14.617626886145418 L 165.0,14.617626886145418 L 165.0,14.617626886145418 L 165.0,14.617626886145418 L 165.0,14.617626886145418 L 165.0,14.617626886145418 L 193.75,173.36762688614544 L 170.18518518518513,183.38477366255162 L 145.2314814814815,199.24554183813441 L 120.00000000000004,219.6639231824417 L 95.60185185185188,243.35390946502056 L 73.14814814814815,269.0294924554184 L 53.75,295.40466392318245 L 38.518518518518526,321.1934156378601 L 28.56481481481482,345.10973936899865 L 25.0,365.86762688614544 L 25.0,365.86762688614544 L 27.762345679012345,383.5270919067216 L 35.617283950617285,398.0692729766804 L 47.91666666666667,409.3398491083676 L 64.01234567901234,417.184499314129 L 83.25617283950616,421.44890260631 L 104.99999999999997,421.9787379972566 L 128.59567901234564,418.61968449931413 L 153.39506172839504,411.2174211248286 L 178.75,399.61762688614544 L 178.75,399.61762688614544 L 186.96673525377224,395.13888888888897 L 194.8542524005487,390.91735253772293 L 202.26851851851853,387.02503429355284 L 209.06550068587103,383.533950617284 L 215.10116598079557,380.51611796982166 L 220.23148148148144,378.0435528120714 L 224.312414266118,376.1882716049383 L 227.1999314128944,375.0222908093279 L 228.75,374.61762688614544 L 228.75,374.61762688614544 L 229.2524005486968,375.24862825788756 L 229.89883401920443,377.07304526748976 L 230.64814814814818,379.9879972565158 L 231.45919067215362,383.8906035665295 L 232.29080932784638,388.67798353909467 L 233.10185185185182,394.24725651577506 L 233.85116598079563,400.49554183813444 L 234.49759945130313,407.3199588477367 L 235.0,414.61762688614544 L 235.0,414.61762688614544 L 236.89814814814812,431.00994513031554 L 240.0925925925926,445.2006172839507 L 244.58333333333334,457.21021947873805 L 250.37037037037038,467.0593278463649 L 257.4537037037037,474.7685185185186 L 265.8333333333333,480.3583676268862 L 275.50925925925924,483.84945130315504 L 286.4814814814814,485.26234567901236 L 298.75,484.61762688614544 L 298.75,484.61762688614544 L 312.3405349794238,481.67181069958855 L 323.0298353909465,476.6066529492456 L 330.69444444444446,470.08058984910843 L 335.2109053497942,462.75205761316874 L 336.45576131687244,455.27949245541845 L 334.30555555555554,448.32133058984914 L 328.63683127572017,442.5360082304527 L 319.32613168724276,438.5819615912209 L 306.25,437.11762688614544 L 306.25,437.11762688614544 L 302.6388888888889,437.11762688614544 L 299.02777777777777,437.11762688614544 L 295.4166666666667,437.11762688614544 L 291.80555555555554,437.11762688614544 L 288.19444444444446,437.11762688614544 L 284.5833333333333,437.11762688614544 L 280.97222222222223,437.11762688614544 L 277.3611111111111,437.11762688614544 L 273.75,437.11762688614544 L 273.75,437.11762688614544 L 274.72222222222223,426.0065157750343 L 275.69444444444446,414.8954046639232 L 276.6666666666667,403.78429355281213 L 277.6388888888889,392.673182441701 L 278.6111111111111,381.56207133058984 L 279.5833333333333,370.45096021947876 L 280.55555555555554,359.3398491083676 L 281.52777777777777,348.22873799725653 L 282.5,337.1176268861454 L 282.5,337.1176268861454 L 284.6227709190672,311.25000000000006 L 285.9636488340192,289.991426611797 L 286.4814814814815,272.85836762688615 L 286.1351165980796,259.3672839506173 L 284.883401920439,249.0346364883402 L 282.68518518518516,241.37688614540474 L 279.49931412894375,235.9104938271605 L 275.2846364883402,232.1519204389575 L 270.0,229.61762688614544 L 270.0,229.61762688614544 L 266.35116598079554,228.0126886145405 L 262.93895747599447,225.75960219478736 L 259.81481481481484,222.95096021947876 L 257.0301783264746,219.67935528120714 L 254.63648834019205,216.03737997256516 L 252.68518518518516,212.11762688614544 L 251.22770919067216,208.01268861454048 L 250.31550068587103,203.81515775034302 L 250.0,199.61762688614544 L 250.0,199.61762688614544 L 249.22325102880654,191.47462277091918 L 246.9341563786008,184.5661865569273 L 243.19444444444449,178.92318244170093 L 238.0658436213992,174.57647462277097 L 231.61008230452677,171.55692729766807 L 223.8888888888889,169.8954046639233 L 214.96399176954733,169.62277091906728 L 204.8971193415638,170.76989026063103 L 193.75,173.36762688614544 L 193.75,173.36762688614544 L 193.75,173.36762688614544 L 193.75,173.36762688614544 L 193.75,173.36762688614544 L 193.75,173.36762688614544 L 193.75,173.36762688614544 L 193.75,173.36762688614544 L 193.75,173.36762688614544 L 193.75,173.36762688614544 L 193.75,173.36762688614544 L 200.0,243.36762688614544 L 200.0,243.36762688614544 L 200.0,243.36762688614544 L 200.0,243.36762688614544 L 200.0,243.36762688614544 L 200.0,243.36762688614544 L 200.0,243.36762688614544 L 200.0,243.36762688614544 L 200.0,243.36762688614544 L 200.0,243.36762688614544 L 200.0,243.36762688614544 L 200.22290809327842,246.6443758573389 L 200.85733882030178,249.76680384087788 L 201.85185185185188,252.673182441701 L 203.15500685871055,255.3017832647463 L 204.71536351165986,257.59087791495205 L 206.48148148148144,259.4787379972566 L 208.4019204389575,260.90363511659814 L 210.42524005486968,261.803840877915 L 212.5,262.11762688614544 L 212.5,262.11762688614544 L 214.90397805212615,262.38854595336085 L 217.10219478738,263.1738683127572 L 219.07407407407408,264.4324417009602 L 220.79903978052124,266.1231138545953 L 222.25651577503427,268.2047325102881 L 223.42592592592592,270.636145404664 L 224.28669410150889,273.3762002743485 L 224.81824417009597,276.3837448559671 L 225.0,279.61762688614544 L 225.0,279.61762688614544 L 222.037037037037,290.1183127572017 L 213.8888888888889,302.69718792866945 L 201.66666666666669,316.4694787379972 L 186.48148148148147,330.55041152263374 L 169.44444444444443,344.05521262002753 L 151.66666666666666,356.09910836762697 L 134.25925925925927,365.79732510288073 L 118.33333333333334,372.26508916323735 L 105.0,374.61762688614544 L 105.0,374.61762688614544 L 96.73696844993138,374.45473251028807 L 90.19204389574762,373.87002743484226 L 85.2314814814815,372.7194787379973 L 81.721536351166,370.8590534979424 L 79.52846364883403,368.144718792867 L 78.5185185185185,364.4324417009603 L 78.5579561042524,359.57818930041157 L 79.51303155006858,353.4379286694102 L 81.25,345.8676268861454 L 81.25,345.8676268861454 L 86.70781893004113,334.1375171467764 L 96.48662551440331,318.97119341563786 L 109.44444444444446,301.65466392318245 L 124.43930041152262,283.4739368998629 L 140.32921810699588,265.71502057613174 L 155.9722222222222,249.66392318244178 L 170.22633744855966,236.60665294924556 L 181.94958847736623,227.82921810699594 L 190.0,224.61762688614544 L 190.0,224.61762688614544 L 191.65980795610423,224.93141289437594 L 193.278463648834,225.8316186556927 L 194.81481481481484,227.2565157750343 L 196.22770919067213,229.14437585733882 L 197.47599451303157,231.43347050754457 L 198.51851851851853,234.0620713305899 L 199.3141289437586,236.96844993141292 L 199.8216735253772,240.09087791495202 L 200.0,243.36762688614544 L 200.0,243.36762688614544 L 200.0,243.36762688614544 L 200.0,243.36762688614544 L 200.0,243.36762688614544 L 200.0,243.36762688614544 L 200.0,243.36762688614544 L 200.0,243.36762688614544 L 200.0,243.36762688614544 L 200.0,243.36762688614544 L 200.0,243.36762688614544M327.5 44.617626886145416 L 165.0,14.617626886145418 L 157.53257887517142,23.588820301783358 L 152.57544581618657,32.776063100137165 L 150.0462962962963,41.83984910836763 L 149.8628257887517,50.44067215363512 L 151.94272976680384,58.23902606310014 L 156.2037037037037,64.89540466392327 L 162.56344307270234,70.07030178326474 L 170.93964334705075,73.42421124828542 L 181.25,74.61762688614542 L 181.25,74.61762688614542 L 190.75102880658432,73.54595336076828 L 199.94341563786008,70.48868312757207 L 208.61111111111114,65.68244170096023 L 216.5380658436214,59.363854595336115 L 223.5082304526749,51.7695473251029 L 229.30555555555551,43.13614540466397 L 233.71399176954733,33.70027434842257 L 236.51748971193416,23.69855967078195 L 237.5,13.367626886145418 L 237.5,13.367626886145418 L 235.631001371742,7.854938271605079 L 230.5109739368999,3.803155006858674 L 222.87037037037038,1.191700960219464 L 213.43964334705078,0.0 L 202.94924554183814,0.20747599451297563 L 192.12962962962962,1.7935528120713684 L 181.71124828532237,4.73765432098773 L 172.42455418381343,9.019204389574755 L 165.0,14.617626886145418 L 165.0,14.617626886145418 L 165.0,14.617626886145418 L 165.0,14.617626886145418 L 165.0,14.617626886145418 L 165.0,14.617626886145418 L 165.0,14.617626886145418 L 165.0,14.617626886145418 L 165.0,14.617626886145418 L 165.0,14.617626886145418 L 165.0,14.617626886145418 L 193.75,173.36762688614544 L 170.18518518518513,183.38477366255162 L 145.2314814814815,199.24554183813441 L 120.00000000000004,219.6639231824417 L 95.60185185185188,243.35390946502056 L 73.14814814814815,269.0294924554184 L 53.75,295.40466392318245 L 38.518518518518526,321.1934156378601 L 28.56481481481482,345.10973936899865 L 25.0,365.86762688614544 L 25.0,365.86762688614544 L 27.762345679012345,383.5270919067216 L 35.617283950617285,398.0692729766804 L 47.91666666666667,409.3398491083676 L 64.01234567901234,417.184499314129 L 83.25617283950616,421.44890260631 L 104.99999999999997,421.9787379972566 L 128.59567901234564,418.61968449931413 L 153.39506172839504,411.2174211248286 L 178.75,399.61762688614544 L 178.75,399.61762688614544 L 186.96673525377224,395.13888888888897 L 194.8542524005487,390.91735253772293 L 202.26851851851853,387.02503429355284 L 209.06550068587103,383.533950617284 L 215.10116598079557,380.51611796982166 L 220.23148148148144,378.0435528120714 L 224.312414266118,376.1882716049383 L 227.1999314128944,375.0222908093279 L 228.75,374.61762688614544 L 228.75,374.61762688614544 L 229.2524005486968,375.24862825788756 L 229.89883401920443,377.07304526748976 L 230.64814814814818,379.9879972565158 L 231.45919067215362,383.8906035665295 L 232.29080932784638,388.67798353909467 L 233.10185185185182,394.24725651577506 L 233.85116598079563,400.49554183813444 L 234.49759945130313,407.3199588477367 L 235.0,414.61762688614544 L 235.0,414.61762688614544 L 236.89814814814812,431.00994513031554 L 240.0925925925926,445.2006172839507 L 244.58333333333334,457.21021947873805 L 250.37037037037038,467.0593278463649 L 257.4537037037037,474.7685185185186 L 265.8333333333333,480.3583676268862 L 275.50925925925924,483.84945130315504 L 286.4814814814814,485.26234567901236 L 298.75,484.61762688614544 L 298.75,484.61762688614544 L 312.3405349794238,481.67181069958855 L 323.0298353909465,476.6066529492456 L 330.69444444444446,470.08058984910843 L 335.2109053497942,462.75205761316874 L 336.45576131687244,455.27949245541845 L 334.30555555555554,448.32133058984914 L 328.63683127572017,442.5360082304527 L 319.32613168724276,438.5819615912209 L 306.25,437.11762688614544 L 306.25,437.11762688614544 L 302.6388888888889,437.11762688614544 L 299.02777777777777,437.11762688614544 L 295.4166666666667,437.11762688614544 L 291.80555555555554,437.11762688614544 L 288.19444444444446,437.11762688614544 L 284.5833333333333,437.11762688614544 L 280.97222222222223,437.11762688614544 L 277.3611111111111,437.11762688614544 L 273.75,437.11762688614544 L 273.75,437.11762688614544 L 274.72222222222223,426.0065157750343 L 275.69444444444446,414.8954046639232 L 276.6666666666667,403.78429355281213 L 277.6388888888889,392.673182441701 L 278.6111111111111,381.56207133058984 L 279.5833333333333,370.45096021947876 L 280.55555555555554,359.3398491083676 L 281.52777777777777,348.22873799725653 L 282.5,337.1176268861454 L 282.5,337.1176268861454 L 284.6227709190672,311.25000000000006 L 285.9636488340192,289.991426611797 L 286.4814814814815,272.85836762688615 L 286.1351165980796,259.3672839506173 L 284.883401920439,249.0346364883402 L 282.68518518518516,241.37688614540474 L 279.49931412894375,235.9104938271605 L 275.2846364883402,232.1519204389575 L 270.0,229.61762688614544 L 270.0,229.61762688614544 L 266.35116598079554,228.0126886145405 L 262.93895747599447,225.75960219478736 L 259.81481481481484,222.95096021947876 L 257.0301783264746,219.67935528120714 L 254.63648834019205,216.03737997256516 L 252.68518518518516,212.11762688614544 L 251.22770919067216,208.01268861454048 L 250.31550068587103,203.81515775034302 L 250.0,199.61762688614544 L 250.0,199.61762688614544 L 249.22325102880654,191.47462277091918 L 246.9341563786008,184.5661865569273 L 243.19444444444449,178.92318244170093 L 238.0658436213992,174.57647462277097 L 231.61008230452677,171.55692729766807 L 223.8888888888889,169.8954046639233 L 214.96399176954733,169.62277091906728 L 204.8971193415638,170.76989026063103 L 193.75,173.36762688614544 L 193.75,173.36762688614544 L 193.75,173.36762688614544 L 193.75,173.36762688614544 L 193.75,173.36762688614544 L 193.75,173.36762688614544 L 193.75,173.36762688614544 L 193.75,173.36762688614544 L 193.75,173.36762688614544 L 193.75,173.36762688614544 L 193.75,173.36762688614544 L 200.0,243.36762688614544 L 200.0,243.36762688614544 L 200.0,243.36762688614544 L 200.0,243.36762688614544 L 200.0,243.36762688614544 L 200.0,243.36762688614544 L 200.0,243.36762688614544 L 200.0,243.36762688614544 L 200.0,243.36762688614544 L 200.0,243.36762688614544 L 200.0,243.36762688614544 L 200.22290809327842,246.6443758573389 L 200.85733882030178,249.76680384087788 L 201.85185185185188,252.673182441701 L 203.15500685871055,255.3017832647463 L 204.71536351165986,257.59087791495205 L 206.48148148148144,259.4787379972566 L 208.4019204389575,260.90363511659814 L 210.42524005486968,261.803840877915 L 212.5,262.11762688614544 L 212.5,262.11762688614544 L 214.90397805212615,262.38854595336085 L 217.10219478738,263.1738683127572 L 219.07407407407408,264.4324417009602 L 220.79903978052124,266.1231138545953 L 222.25651577503427,268.2047325102881 L 223.42592592592592,270.636145404664 L 224.28669410150889,273.3762002743485 L 224.81824417009597,276.3837448559671 L 225.0,279.61762688614544 L 225.0,279.61762688614544 L 222.037037037037,290.1183127572017 L 213.8888888888889,302.69718792866945 L 201.66666666666669,316.4694787379972 L 186.48148148148147,330.55041152263374 L 169.44444444444443,344.05521262002753 L 151.66666666666666,356.09910836762697 L 134.25925925925927,365.79732510288073 L 118.33333333333334,372.26508916323735 L 105.0,374.61762688614544 L 105.0,374.61762688614544 L 96.73696844993138,374.45473251028807 L 90.19204389574762,373.87002743484226 L 85.2314814814815,372.7194787379973 L 81.721536351166,370.8590534979424 L 79.52846364883403,368.144718792867 L 78.5185185185185,364.4324417009603 L 78.5579561042524,359.57818930041157 L 79.51303155006858,353.4379286694102 L 81.25,345.8676268861454 L 81.25,345.8676268861454 L 86.70781893004113,334.1375171467764 L 96.48662551440331,318.97119341563786 L 109.44444444444446,301.65466392318245 L 124.43930041152262,283.4739368998629 L 140.32921810699588,265.71502057613174 L 155.9722222222222,249.66392318244178 L 170.22633744855966,236.60665294924556 L 181.94958847736623,227.82921810699594 L 190.0,224.61762688614544 L 190.0,224.61762688614544 L 191.65980795610423,224.93141289437594 L 193.278463648834,225.8316186556927 L 194.81481481481484,227.2565157750343 L 196.22770919067213,229.14437585733882 L 197.47599451303157,231.43347050754457 L 198.51851851851853,234.0620713305899 L 199.3141289437586,236.96844993141292 L 199.8216735253772,240.09087791495202 L 200.0,243.36762688614544 L 200.0,243.36762688614544 L 200.0,243.36762688614544 L 200.0,243.36762688614544 L 200.0,243.36762688614544 L 200.0,243.36762688614544 L 200.0,243.36762688614544 L 200.0,243.36762688614544 L 200.0,243.36762688614544 L 200.0,243.36762688614544 L 200.0,243.36762688614544 L 327.5,44.617626886145416 L 317.7366255144033,52.23079561042539 L 310.1337448559671,59.96742112482856 L 304.72222222222223,67.67318244170085 L 301.5329218106996,75.19375857338822 L 300.59670781893004,82.37482853223597 L 301.94444444444446,89.06207133058992 L 305.60699588477365,95.10116598079564 L 311.6152263374485,100.33779149519894 L 320.0,104.61762688614542 L 320.0,104.61762688614542 L 331.96159122085044,107.32167352537729 L 344.2112482853224,106.52777777777779 L 356.29629629629636,102.62688614540465 L 367.76406035665303,96.00994513031551 L 378.161865569273,87.06790123456798 L 387.03703703703707,76.1917009602196 L 393.9368998628258,63.77229080932793 L 398.4087791495199,50.200617283950635 L 400.0,35.867626886145416 L 400.0,35.867626886145416 L 398.5425240054869,30.817901234567987 L 394.45130315500694,27.32167352537715 L 388.14814814814815,25.35836762688611 L 380.0548696844993,24.907407407407476 L 370.5932784636488,25.948216735253737 L 360.1851851851851,28.460219478738082 L 349.2524005486968,32.42283950617292 L 338.2167352537723,37.815500685871086 L 327.5,44.617626886145416 L 327.5,44.617626886145416 L 327.5,44.617626886145416 L 327.5,44.617626886145416 L 327.5,44.617626886145416 L 327.5,44.617626886145416 L 327.5,44.617626886145416 L 327.5,44.617626886145416 L 327.5,44.617626886145416 L 327.5,44.617626886145416 L 327.5,44.617626886145416"/></svg>
