<?xml version="1.0" encoding="utf-8"?>
<svg xmlns="http://www.w3.org/2000/svg"  viewBox="0,0,400,471.96864589457175" width="100%">
<path d="M209.14285714285714 162.25436018028606 L 209.14285714285714,162.25436018028606 L 193.11150303742895,174.8869292572996 L 175.87615128355867,190.25671173819316 L 158.01058201058206,207.7146776406035 L 140.08857534783465,226.61179698216728 L 122.68391142465218,246.29903978052118 L 106.37037037037037,266.12737605330193 L 91.72173231432492,285.4477758181461 L 79.31177738585146,303.6112090926905 L 69.71428571428571,319.96864589457175 L 69.71428571428571,319.96864589457175 L 67.47717029198509,324.8975112678816 L 65.36233588085439,330.44718792866934 L 63.40740740740741,336.47658240250826 L 61.650009798157946,342.84460121497153 L 60.12776797961983,349.4101508916323 L 58.87830687830687,356.0321379580638 L 57.939251420732894,362.56946893983934 L 57.34822653341171,368.8810503625318 L 57.142857142857146,374.82578875171464 L 57.142857142857146,374.82578875171464 L 59.31726435430137,391.59239662943355 L 65.56456986086616,403.8157946306094 L 75.47089947089948,411.5242014501273 L 88.62237899274935,414.7458357828727 L 104.60513423476387,413.50891632373106 L 123.00529100529099,407.84166176758765 L 143.4089751126788,397.7722908093278 L 165.4023123652753,383.32902214383694 L 188.57142857142858,364.5400744660003 L 188.57142857142858,364.5400744660003 L 193.65079365079367,360.22261414854 L 198.7301587301587,355.90515383107976 L 203.80952380952382,351.5876935136194 L 208.88888888888889,347.2702331961591 L 213.96825396825398,342.95277287869874 L 219.047619047619,338.63531256123844 L 224.12698412698415,334.3178522437781 L 229.2063492063492,330.0003919263178 L 234.28571428571428,325.6829316088575 L 234.28571428571428,325.6829316088575 L 235.6825396825397,329.6194395453654 L 237.0793650793651,333.5559474818734 L 238.47619047619045,337.49245541838127 L 239.87301587301585,341.4289633548892 L 241.2698412698413,345.3654712913971 L 242.66666666666669,349.30197922790506 L 244.06349206349205,353.23848716441296 L 245.46031746031747,357.17499510092097 L 246.85714285714286,361.1115030374289 L 246.85714285714286,361.1115030374289 L 253.48383303938854,376.5157750342935 L 261.86008230452677,389.19223985890653 L 271.87301587301585,399.1220850480109 L 283.40975896531455,406.2864981383499 L 296.35743680188125,410.6666666666665 L 310.6031746031745,412.24377816970406 L 326.03409758965313,410.9990201842053 L 342.5373309817754,406.9135802469135 L 360.0,399.9686458945718 L 360.0,399.9686458945718 L 368.2947285910248,395.69664902998227 L 375.64883401920434,391.27415245933753 L 382.05291005291,386.7199686458945 L 387.4975504605134,382.05291005291 L 391.9733490103861,377.2917891436409 L 395.47089947089944,372.45541838134426 L 397.98079561042516,367.5626102292768 L 399.4936311973349,362.6321771506956 L 400.0,357.6829316088575 L 400.0,357.6829316088575 L 399.9153439153439,351.20360572212417 L 399.4920634920635,346.22927689594354 L 398.47619047619054,342.74113266705854 L 396.61375661375666,340.7203605722123 L 393.65079365079356,340.1481481481481 L 389.3333333333333,341.00568293160876 L 383.4074074074074,343.2741524593376 L 375.61904761904765,346.93474426807757 L 365.7142857142857,351.96864589457175 L 365.7142857142857,351.96864589457175 L 359.3901626494218,354.9645306682343 L 352.7086027826769,357.81932196747005 L 345.8201058201059,360.47658240250826 L 338.87517146776406,362.8798745835782 L 332.0242994317068,364.9727611209093 L 325.4179894179895,366.6988046247305 L 319.20674113266705,368.0015677052713 L 313.54105428179497,368.82461297276103 L 308.57142857142856,369.1115030374289 L 308.57142857142856,369.1115030374289 L 302.97158534195563,368.83088379384674 L 298.31236527532826,367.8824221046443 L 294.5185185185185,366.10621203213793 L 291.51479521849893,363.34234763864384 L 289.22594552224183,359.4309229864785 L 287.5767195767196,354.212032137958 L 286.49186752890455,347.5257691553987 L 285.8961395257691,339.212228101117 L 285.7142857142857,329.1115030374289 L 285.7142857142857,329.1115030374289 L 286.1234567901234,321.2384871644131 L 287.294532627866,312.26494219086806 L 289.14285714285717,302.44483637076223 L 291.5837742504409,292.0321379580638 L 294.5326278659612,281.28081520674107 L 297.90476190476187,270.44483637076223 L 301.61552028218694,259.7781697040956 L 305.5802469135802,249.53478346070935 L 309.7142857142857,239.96864589457178 L 309.7142857142857,239.96864589457178 L 322.63217715069567,207.9561042524005 L 328.23202038016854,180.77836566725446 L 327.06878306878303,158.86811679404272 L 319.6974328826181,142.6580442876738 L 306.6729374877523,132.58083480305692 L 288.5502645502645,129.06917499510084 L 265.8843817362336,132.55575151871446 L 239.23025671173824,143.47325102880652 L 209.14285714285714,162.25436018028606 L 209.14285714285714,162.25436018028606 L 209.14285714285714,162.25436018028606 L 209.14285714285714,162.25436018028606 L 209.14285714285714,162.25436018028606 L 209.14285714285714,162.25436018028606 L 209.14285714285714,162.25436018028606 L 209.14285714285714,162.25436018028606 L 209.14285714285714,162.25436018028606 L 209.14285714285714,162.25436018028606 L 209.14285714285714,162.25436018028606 L 256.0,233.1115030374289 L 256.0,233.1115030374289 L 256.0,233.1115030374289 L 256.0,233.1115030374289 L 256.0,233.1115030374289 L 256.0,233.1115030374289 L 256.0,233.1115030374289 L 256.0,233.1115030374289 L 256.0,233.1115030374289 L 256.0,233.1115030374289 L 256.0,233.1115030374289 L 236.8112874779541,258.23398001175775 L 214.4902998236332,283.31883205957274 L 190.47619047619048,307.227905153831 L 166.20811287477957,328.82304526748965 L 143.1252204585538,346.9660983735057 L 122.66666666666666,360.51891044483637 L 106.27160493827164,368.3433274544385 L 95.37918871252204,369.3011953752694 L 91.42857142857143,362.2543601802861 L 91.42857142857143,362.2543601802861 L 94.2018420536939,352.8246129727611 L 101.93219674701156,338.9645306682343 L 113.73544973544976,321.7464236723495 L 128.72741524593374,302.2426023907505 L 146.02390750538902,281.52537722908085 L 164.7407407407407,260.66705859298446 L 183.99372917891435,240.73995688810504 L 202.89868704683516,222.81638252008617 L 220.57142857142858,207.96864589457175 L 220.57142857142858,207.96864589457175 L 241.0879874583578,192.46404076033704 L 257.6351165980796,181.7095825984714 L 270.1375661375662,175.63002155594742 L 278.5200862237899,174.15010777973734 L 282.7074270037233,177.19459141681355 L 282.6243386243386,184.68822261414846 L 278.19557123260824,196.55575151871443 L 269.34587497550456,212.72192827748376 L 256.0,233.1115030374289 L 256.0,233.1115030374289 L 256.0,233.1115030374289 L 256.0,233.1115030374289 L 256.0,233.1115030374289 L 256.0,233.1115030374289 L 256.0,233.1115030374289 L 256.0,233.1115030374289 L 256.0,233.1115030374289 L 256.0,233.1115030374289 L 256.0,233.1115030374289M265.14285714285717 4.540074466000338 L 209.14285714285714,162.25436018028606 L 193.11150303742895,174.8869292572996 L 175.87615128355867,190.25671173819316 L 158.01058201058206,207.7146776406035 L 140.08857534783465,226.61179698216728 L 122.68391142465218,246.29903978052118 L 106.37037037037037,266.12737605330193 L 91.72173231432492,285.4477758181461 L 79.31177738585146,303.6112090926905 L 69.71428571428571,319.96864589457175 L 69.71428571428571,319.96864589457175 L 67.47717029198509,324.8975112678816 L 65.36233588085439,330.44718792866934 L 63.40740740740741,336.47658240250826 L 61.650009798157946,342.84460121497153 L 60.12776797961983,349.4101508916323 L 58.87830687830687,356.0321379580638 L 57.939251420732894,362.56946893983934 L 57.34822653341171,368.8810503625318 L 57.142857142857146,374.82578875171464 L 57.142857142857146,374.82578875171464 L 59.31726435430137,391.59239662943355 L 65.56456986086616,403.8157946306094 L 75.47089947089948,411.5242014501273 L 88.62237899274935,414.7458357828727 L 104.60513423476387,413.50891632373106 L 123.00529100529099,407.84166176758765 L 143.4089751126788,397.7722908093278 L 165.4023123652753,383.32902214383694 L 188.57142857142858,364.5400744660003 L 188.57142857142858,364.5400744660003 L 193.65079365079367,360.22261414854 L 198.7301587301587,355.90515383107976 L 203.80952380952382,351.5876935136194 L 208.88888888888889,347.2702331961591 L 213.96825396825398,342.95277287869874 L 219.047619047619,338.63531256123844 L 224.12698412698415,334.3178522437781 L 229.2063492063492,330.0003919263178 L 234.28571428571428,325.6829316088575 L 234.28571428571428,325.6829316088575 L 235.6825396825397,329.6194395453654 L 237.0793650793651,333.5559474818734 L 238.47619047619045,337.49245541838127 L 239.87301587301585,341.4289633548892 L 241.2698412698413,345.3654712913971 L 242.66666666666669,349.30197922790506 L 244.06349206349205,353.23848716441296 L 245.46031746031747,357.17499510092097 L 246.85714285714286,361.1115030374289 L 246.85714285714286,361.1115030374289 L 253.48383303938854,376.5157750342935 L 261.86008230452677,389.19223985890653 L 271.87301587301585,399.1220850480109 L 283.40975896531455,406.2864981383499 L 296.35743680188125,410.6666666666665 L 310.6031746031745,412.24377816970406 L 326.03409758965313,410.9990201842053 L 342.5373309817754,406.9135802469135 L 360.0,399.9686458945718 L 360.0,399.9686458945718 L 368.2947285910248,395.69664902998227 L 375.64883401920434,391.27415245933753 L 382.05291005291,386.7199686458945 L 387.4975504605134,382.05291005291 L 391.9733490103861,377.2917891436409 L 395.47089947089944,372.45541838134426 L 397.98079561042516,367.5626102292768 L 399.4936311973349,362.6321771506956 L 400.0,357.6829316088575 L 400.0,357.6829316088575 L 399.9153439153439,351.20360572212417 L 399.4920634920635,346.22927689594354 L 398.47619047619054,342.74113266705854 L 396.61375661375666,340.7203605722123 L 393.65079365079356,340.1481481481481 L 389.3333333333333,341.00568293160876 L 383.4074074074074,343.2741524593376 L 375.61904761904765,346.93474426807757 L 365.7142857142857,351.96864589457175 L 365.7142857142857,351.96864589457175 L 359.3901626494218,354.9645306682343 L 352.7086027826769,357.81932196747005 L 345.8201058201059,360.47658240250826 L 338.87517146776406,362.8798745835782 L 332.0242994317068,364.9727611209093 L 325.4179894179895,366.6988046247305 L 319.20674113266705,368.0015677052713 L 313.54105428179497,368.82461297276103 L 308.57142857142856,369.1115030374289 L 308.57142857142856,369.1115030374289 L 302.97158534195563,368.83088379384674 L 298.31236527532826,367.8824221046443 L 294.5185185185185,366.10621203213793 L 291.51479521849893,363.34234763864384 L 289.22594552224183,359.4309229864785 L 287.5767195767196,354.212032137958 L 286.49186752890455,347.5257691553987 L 285.8961395257691,339.212228101117 L 285.7142857142857,329.1115030374289 L 285.7142857142857,329.1115030374289 L 286.1234567901234,321.2384871644131 L 287.294532627866,312.26494219086806 L 289.14285714285717,302.44483637076223 L 291.5837742504409,292.0321379580638 L 294.5326278659612,281.28081520674107 L 297.90476190476187,270.44483637076223 L 301.61552028218694,259.7781697040956 L 305.5802469135802,249.53478346070935 L 309.7142857142857,239.96864589457178 L 309.7142857142857,239.96864589457178 L 322.63217715069567,207.9561042524005 L 328.23202038016854,180.77836566725446 L 327.06878306878303,158.86811679404272 L 319.6974328826181,142.6580442876738 L 306.6729374877523,132.58083480305692 L 288.5502645502645,129.06917499510084 L 265.8843817362336,132.55575151871446 L 239.23025671173824,143.47325102880652 L 209.14285714285714,162.25436018028606 L 209.14285714285714,162.25436018028606 L 209.14285714285714,162.25436018028606 L 209.14285714285714,162.25436018028606 L 209.14285714285714,162.25436018028606 L 209.14285714285714,162.25436018028606 L 209.14285714285714,162.25436018028606 L 209.14285714285714,162.25436018028606 L 209.14285714285714,162.25436018028606 L 209.14285714285714,162.25436018028606 L 209.14285714285714,162.25436018028606 L 256.0,233.1115030374289 L 256.0,233.1115030374289 L 256.0,233.1115030374289 L 256.0,233.1115030374289 L 256.0,233.1115030374289 L 256.0,233.1115030374289 L 256.0,233.1115030374289 L 256.0,233.1115030374289 L 256.0,233.1115030374289 L 256.0,233.1115030374289 L 256.0,233.1115030374289 L 236.8112874779541,258.23398001175775 L 214.4902998236332,283.31883205957274 L 190.47619047619048,307.227905153831 L 166.20811287477957,328.82304526748965 L 143.1252204585538,346.9660983735057 L 122.66666666666666,360.51891044483637 L 106.27160493827164,368.3433274544385 L 95.37918871252204,369.3011953752694 L 91.42857142857143,362.2543601802861 L 91.42857142857143,362.2543601802861 L 94.2018420536939,352.8246129727611 L 101.93219674701156,338.9645306682343 L 113.73544973544976,321.7464236723495 L 128.72741524593374,302.2426023907505 L 146.02390750538902,281.52537722908085 L 164.7407407407407,260.66705859298446 L 183.99372917891435,240.73995688810504 L 202.89868704683516,222.81638252008617 L 220.57142857142858,207.96864589457175 L 220.57142857142858,207.96864589457175 L 241.0879874583578,192.46404076033704 L 257.6351165980796,181.7095825984714 L 270.1375661375662,175.63002155594742 L 278.5200862237899,174.15010777973734 L 282.7074270037233,177.19459141681355 L 282.6243386243386,184.68822261414846 L 278.19557123260824,196.55575151871443 L 269.34587497550456,212.72192827748376 L 256.0,233.1115030374289 L 256.0,233.1115030374289 L 256.0,233.1115030374289 L 256.0,233.1115030374289 L 256.0,233.1115030374289 L 256.0,233.1115030374289 L 256.0,233.1115030374289 L 256.0,233.1115030374289 L 256.0,233.1115030374289 L 256.0,233.1115030374289 L 256.0,233.1115030374289 L 265.14285714285717,4.540074466000338 L 254.98412698412693,9.232216343327504 L 246.60317460317464,14.902606310013587 L 240.0,21.51361943954524 L 235.17460317460316,29.02763080540853 L 232.12698412698415,37.40701548108953 L 230.85714285714286,46.6141485400745 L 231.36507936507937,56.61140505584944 L 233.65079365079362,67.36116010190082 L 237.71428571428572,78.82578875171463 L 237.71428571428572,78.82578875171463 L 240.9296492259455,84.28140309621793 L 244.4742308446012,89.2008622378992 L 248.33862433862436,93.55594748187332 L 252.51342347638644,97.31844013325488 L 256.9892220262591,100.46012149715853 L 261.7566137566137,102.95277287869878 L 266.8061924358221,104.76817558299034 L 272.12855183225554,105.8781109151479 L 277.7142857142857,106.25436018028604 L 277.7142857142857,106.25436018028604 L 288.8873211836174,105.49559082892418 L 298.78110915147954,103.23182441700958 L 307.3862433862435,99.48187340779927 L 314.6933176562806,94.26455026455017 L 320.6929257299628,87.59866745051917 L 325.37566137566137,79.50303742896331 L 328.73211836174806,69.99647266313929 L 330.7528904565942,59.09778561630407 L 331.42857142857144,46.82578875171462 L 331.42857142857144,46.82578875171462 L 330.39702135998425,34.991181657848365 L 327.40897511267883,24.69919655104838 L 322.62433862433863,16.05330197922779 L 316.2030178326475,9.156966490299705 L 308.30491867528906,4.113658632177054 L 299.0899470899471,1.0268469527728223 L 288.7180090143053,0.0 L 277.3490103860474,1.136586321771509 L 265.14285714285717,4.540074466000338 L 265.14285714285717,4.540074466000338 L 265.14285714285717,4.540074466000338 L 265.14285714285717,4.540074466000338 L 265.14285714285717,4.540074466000338 L 265.14285714285717,4.540074466000338 L 265.14285714285717,4.540074466000338 L 265.14285714285717,4.540074466000338 L 265.14285714285717,4.540074466000338 L 265.14285714285717,4.540074466000338 L 265.14285714285717,4.540074466000338 L 282.2857142857143,57.1115030374289 L 282.2857142857143,57.1115030374289 L 282.2857142857143,57.1115030374289 L 282.2857142857143,57.1115030374289 L 282.2857142857143,57.1115030374289 L 282.2857142857143,57.1115030374289 L 282.2857142857143,57.1115030374289 L 282.2857142857143,57.1115030374289 L 282.2857142857143,57.1115030374289 L 282.2857142857143,57.1115030374289 L 282.2857142857143,57.1115030374289 L 280.8073682147756,58.00352733686064 L 279.43249069175,58.406427591612754 L 278.1798941798942,58.339016264942074 L 277.0683911424652,57.82010582010577 L 276.11679404272,56.86850872036056 L 275.34391534391534,55.503037428963324 L 274.76856750930824,53.74250440917096 L 274.4095630021556,51.60572212424059 L 274.2857142857143,49.11150303742891 L 274.2857142857143,49.11150303742891 L 274.4095630021556,46.61728395061735 L 274.76856750930824,44.480501665686724 L 275.3439153439154,42.7199686458945 L 276.11679404271996,41.35449735449726 L 277.0683911424652,40.40290025475205 L 278.1798941798941,39.883989809915676 L 279.43249069174993,39.81657848324513 L 280.8073682147756,40.21947873799724 L 282.2857142857143,41.1115030374289 L 282.2857142857143,41.1115030374289 L 283.3015873015873,42.713697824808925 L 284.0634920634921,44.4475798549872 L 284.57142857142856,46.275524201450025 L 284.8253968253968,48.15990593768362 L 284.8253968253968,50.06310013717419 L 284.57142857142856,51.947481873407725 L 284.06349206349205,53.775426219870624 L 283.3015873015873,55.50930825004895 L 282.2857142857143,57.1115030374289 L 282.2857142857143,57.1115030374289 L 282.2857142857143,57.1115030374289 L 282.2857142857143,57.1115030374289 L 282.2857142857143,57.1115030374289 L 282.2857142857143,57.1115030374289 L 282.2857142857143,57.1115030374289 L 282.2857142857143,57.1115030374289 L 282.2857142857143,57.1115030374289 L 282.2857142857143,57.1115030374289 L 282.2857142857143,57.1115030374289"/></svg>
