<?xml version="1.0" encoding="utf-8"?>
<svg xmlns="http://www.w3.org/2000/svg"  viewBox="0,0,400,758.0282543245506" width="100%">
<path d="M126.75324675324676 43.223059519355814 L 126.75324675324676,43.223059519355814 L 128.50195072417293,55.42550727735931 L 131.0459088236866,65.03696577770647 L 134.48773448773449,72.0830883793846 L 138.93004115226339,76.58952844138031 L 144.47544225322005,78.58193932267993 L 151.2265512265512,78.08597438227066 L 159.28598150820372,75.12728697913886 L 168.7563465341243,69.73153047227125 L 179.74025974025975,61.92435822065452 L 179.74025974025975,61.92435822065452 L 189.8704861667824,52.75470756952254 L 196.75128712165747,44.05536849981301 L 200.44252044252042,35.988812285108615 L 201.00404396700694,28.717510198991725 L 198.49571553275257,22.4039335150447 L 192.97739297739295,17.21055350684989 L 184.50893413856377,13.299841447989655 L 173.15019685390058,10.834268612046468 L 158.96103896103895,9.976306272602567 L 158.96103896103895,9.976306272602567 L 148.72392353873832,10.09032120143239 L 140.71009922861776,10.580585395400114 L 134.6801346801347,11.669427965724191 L 130.3945985427467,13.579178023622369 L 127.61405946591132,16.53216468031286 L 126.0990860990861,20.750717047013413 L 125.61024709172857,26.457164234942002 L 125.90811109329627,33.87383535531686 L 126.75324675324676,43.223059519355814 L 126.75324675324676,43.223059519355814 L 126.75324675324676,43.223059519355814 L 126.75324675324676,43.223059519355814 L 126.75324675324676,43.223059519355814 L 126.75324675324676,43.223059519355814 L 126.75324675324676,43.223059519355814 L 126.75324675324676,43.223059519355814 L 126.75324675324676,43.223059519355814 L 126.75324675324676,43.223059519355814 L 126.75324675324676,43.223059519355814"/></svg>
