<?xml version="1.0" encoding="utf-8"?>
<svg xmlns="http://www.w3.org/2000/svg"  viewBox="0,0,400,758.0282543245506" width="100%">
<path d="M126.75324675324676 43.223059519355814 L 126.75324675324676,43.223059519355814 L 128.50195072417293,55.42550727735931 L 131.0459088236866,65.03696577770647 L 134.48773448773449,72.0830883793846 L 138.93004115226339,76.58952844138031 L 144.47544225322005,78.58193932267993 L 151.2265512265512,78.08597438227066 L 159.28598150820372,75.12728697913886 L 168.7563465341243,69.73153047227125 L 179.74025974025975,61.92435822065452 L 179.74025974025975,61.92435822065452 L 189.8704861667824,52.75470756952254 L 196.75128712165747,44.05536849981301 L 200.44252044252042,35.988812285108615 L 201.00404396700694,28.717510198991725 L 198.49571553275257,22.4039335150447 L 192.97739297739295,17.21055350684989 L 184.50893413856377,13.299841447989655 L 173.15019685390058,10.834268612046468 L 158.96103896103895,9.976306272602567 L 158.96103896103895,9.976306272602567 L 148.72392353873832,10.09032120143239 L 140.71009922861776,10.580585395400114 L 134.6801346801347,11.669427965724191 L 130.3945985427467,13.579178023622369 L 127.61405946591132,16.53216468031286 L 126.0990860990861,20.750717047013413 L 125.61024709172857,26.457164234942002 L 125.90811109329627,33.87383535531686 L 126.75324675324676,43.223059519355814 L 126.75324675324676,43.223059519355814 L 126.75324675324676,43.223059519355814 L 126.75324675324676,43.223059519355814 L 126.75324675324676,43.223059519355814 L 126.75324675324676,43.223059519355814 L 126.75324675324676,43.223059519355814 L 126.75324675324676,43.223059519355814 L 126.75324675324676,43.223059519355814 L 126.75324675324676,43.223059519355814 L 126.75324675324676,43.223059519355814M150.64935064935065 210.4957867920831 L 126.75324675324676,43.223059519355814 L 128.50195072417293,55.42550727735931 L 131.0459088236866,65.03696577770647 L 134.48773448773449,72.0830883793846 L 138.93004115226339,76.58952844138031 L 144.47544225322005,78.58193932267993 L 151.2265512265512,78.08597438227066 L 159.28598150820372,75.12728697913886 L 168.7563465341243,69.73153047227125 L 179.74025974025975,61.92435822065452 L 179.74025974025975,61.92435822065452 L 189.8704861667824,52.75470756952254 L 196.75128712165747,44.05536849981301 L 200.44252044252042,35.988812285108615 L 201.00404396700694,28.717510198991725 L 198.49571553275257,22.4039335150447 L 192.97739297739295,17.21055350684989 L 184.50893413856377,13.299841447989655 L 173.15019685390058,10.834268612046468 L 158.96103896103895,9.976306272602567 L 158.96103896103895,9.976306272602567 L 148.72392353873832,10.09032120143239 L 140.71009922861776,10.580585395400114 L 134.6801346801347,11.669427965724191 L 130.3945985427467,13.579178023622369 L 127.61405946591132,16.53216468031286 L 126.0990860990861,20.750717047013413 L 125.61024709172857,26.457164234942002 L 125.90811109329627,33.87383535531686 L 126.75324675324676,43.223059519355814 L 126.75324675324676,43.223059519355814 L 126.75324675324676,43.223059519355814 L 126.75324675324676,43.223059519355814 L 126.75324675324676,43.223059519355814 L 126.75324675324676,43.223059519355814 L 126.75324675324676,43.223059519355814 L 126.75324675324676,43.223059519355814 L 126.75324675324676,43.223059519355814 L 126.75324675324676,43.223059519355814 L 126.75324675324676,43.223059519355814 L 150.64935064935065,210.4957867920831 L 137.71578216022658,247.41239556054376 L 122.52471808027364,299.42173053284165 L 106.20490620490622,361.5299378262341 L 89.88509432953879,428.7431635579784 L 74.6940302495858,496.06755384533164 L 61.76046176046176,558.5092548055511 L 52.21313665758111,611.074412555894 L 47.18080273635829,648.7691732136176 L 47.79220779220779,666.5996828959792 L 47.79220779220779,666.5996828959792 L 49.12618245951579,667.9792635348191 L 50.998877665544335,669.3246396950101 L 53.33333333333334,670.6016068979033 L 56.052589385922715,671.7759606648495 L 59.0796857463524,672.8134965172003 L 62.33766233766234,673.6800099763062 L 65.74955908289242,674.3412965635188 L 69.23841590508258,674.7631518001889 L 72.72727272727273,674.9113712076675 L 72.72727272727273,674.9113712076675 L 77.27789357418986,674.5080433969323 L 81.272691643062,673.2239502609873 L 84.77152477152477,670.9479272442236 L 87.83425079721377,667.5688097910321 L 90.5207275577646,662.9754333458037 L 92.8908128908129,657.0566333529296 L 95.00436463399424,649.7012452568008 L 96.92124062494432,640.7981045018081 L 98.7012987012987,630.2360465323428 L 98.7012987012987,630.2360465323428 L 102.36402828995419,606.5608465608466 L 105.68471309212052,588.3669142928403 L 109.62962962962965,574.9017511980475 L 115.16505442431368,565.4128587461921 L 123.25726399800475,559.1477384069976 L 134.87253487253483,555.3538916501881 L 150.97714356973614,553.2788199454867 L 172.53736661144063,552.1700247626173 L 200.5194805194805,551.275007571304 L 200.5194805194805,551.275007571304 L 210.21645021645026,551.0441273404236 L 219.9134199134199,550.8132471095433 L 229.6103896103896,550.5823668786633 L 239.3073593073593,550.351486647783 L 249.004329004329,550.1206064169028 L 258.7012987012987,549.8897261860225 L 268.3982683982684,549.6588459551423 L 278.0952380952381,549.4279657242621 L 287.7922077922078,549.1970854933818 L 287.7922077922078,549.1970854933818 L 289.87012987012986,556.2389325352287 L 291.94805194805195,563.2807795770759 L 294.02597402597405,570.322626618923 L 296.1038961038961,577.3644736607699 L 298.1818181818182,584.406320702617 L 300.2597402597403,591.4481677444641 L 302.3376623376623,598.4900147863111 L 304.4155844155844,605.5318618281582 L 306.4935064935065,612.5737088700052 L 306.4935064935065,612.5737088700052 L 313.66076995706624,635.1785936971123 L 320.6570110273814,653.8841679582421 L 327.5420875420876,668.7930450893414 L 334.3758573388203,680.007838526357 L 341.2181782552153,687.6311617052359 L 348.12890812890805,691.7656280619244 L 355.1679047975344,692.5138510323695 L 362.39502609872983,689.9784440525182 L 369.87012987012986,684.2620205583169 L 369.87012987012986,684.2620205583169 L 373.82929827374267,679.846792439385 L 376.6853722409278,675.3375020041686 L 378.41269841269843,670.332246628543 L 378.9856234300679,664.4291236883829 L 378.3784939340495,657.226230559564 L 376.5656565656566,648.3216646179609 L 373.5214579659024,637.3135232394492 L 369.2202447758003,623.7999037999039 L 363.6363636363636,607.3789036751999 L 363.6363636363636,607.3789036751999 L 359.9137762100724,596.5175565175565 L 356.40496677533724,586.2120321379581 L 353.16979316979325,576.6333529296493 L 350.26811323107626,567.9525412858745 L 347.7597847968218,560.3406195998788 L 345.7046657046657,553.9686102649066 L 344.1626137922434,549.0075356742024 L 343.19348689719055,545.628418221011 L 342.85714285714283,544.0022802985766 L 342.85714285714283,544.0022802985766 L 343.30750182602026,543.5832754351273 L 344.61297276112094,543.0360037767446 L 346.7051467051467,542.386118682415 L 349.5156147007999,541.6592735111254 L 352.9759677907826,540.8811216218623 L 357.017797017797,540.0773163736127 L 361.57269342454526,539.273511125363 L 366.5722480537295,538.4953592361001 L 371.94805194805195,537.7685140648103 L 371.94805194805195,537.7685140648103 L 378.1091336646891,536.8806228065487 L 383.4493078937523,535.5908289241623 L 387.994227994228,533.8820301783264 L 391.7695473251029,531.7371243297168 L 394.8009192453638,529.1390091390092 L 397.1139971139971,526.0705823668787 L 398.7344342899898,522.514741774001 L 399.6878841323285,518.4543851210518 L 400.0,513.8724101687064 L 400.0,513.8724101687064 L 399.6750574528352,508.7431635579784 L 398.6318208540431,504.39206883651326 L 396.7676767676768,500.75071704701327 L 393.98001175778955,497.75069923218064 L 390.16621238843464,495.32360643471753 L 385.2236652236652,493.401029697326 L 379.0497568275346,491.91456006270823 L 371.54187376409595,490.7957885735663 L 362.5974025974026,489.9763062726025 L 362.5974025974026,489.9763062726025 L 358.55699855699856,489.6299859262823 L 354.5165945165946,489.2836655799619 L 350.4761904761904,488.93734523364157 L 346.43578643578644,488.5910248873212 L 342.3953823953824,488.24470454100083 L 338.35497835497836,487.8983841946805 L 334.3145743145743,487.55206384836015 L 330.2741702741703,487.20574350203975 L 326.23376623376623,486.8594231557195 L 326.23376623376623,486.8594231557195 L 321.26984126984127,471.0441273404236 L 316.3059163059163,455.2288315251278 L 311.34199134199133,439.413535709832 L 306.3780663780664,423.59823989453616 L 301.4141414141414,407.7829440792404 L 296.45021645021643,391.96764826394457 L 291.48629148629146,376.15235244864874 L 286.5223665223665,360.337056633353 L 281.5584415584416,344.52176081805715 L 281.5584415584416,344.52176081805715 L 273.3080362709992,318.8940551903516 L 265.2714089751127,294.26683056312686 L 257.5853775853776,271.1018473981436 L 250.38676001638964,249.8608661571625 L 243.81237418274455,231.0056473019436 L 237.99903799903797,214.9979512942476 L 233.08356937986565,202.2995385958349 L 229.20278623982327,193.37216966846594 L 226.4935064935065,188.67760497390128 L 226.4935064935065,188.67760497390128 L 224.08351593536776,186.6082340156415 L 221.06639588121072,184.59016977535495 L 217.5276575276575,182.6747189710152 L 213.5528120713306,180.91318832059568 L 209.2273707088522,179.35688454206968 L 204.63684463684464,178.0571143534107 L 199.86674505193025,177.06518447259194 L 195.00258315073128,176.43240161758678 L 190.12987012987014,176.2100725063688 L 190.12987012987014,176.2100725063688 L 184.1925427110612,176.5649439723515 L 178.80248695063509,177.66376284894804 L 173.8912938912939,179.5578358541321 L 169.39055457573977,182.29846970587707 L 165.23186004667488,185.9369711221563 L 161.34680134680136,190.52464682094308 L 157.66696951882136,196.11280352021092 L 154.12395560543706,202.75274793793315 L 150.64935064935065,210.4957867920831 L 150.64935064935065,210.4957867920831 L 150.64935064935065,210.4957867920831 L 150.64935064935065,210.4957867920831 L 150.64935064935065,210.4957867920831 L 150.64935064935065,210.4957867920831 L 150.64935064935065,210.4957867920831 L 150.64935064935065,210.4957867920831 L 150.64935064935065,210.4957867920831 L 150.64935064935065,210.4957867920831 L 150.64935064935065,210.4957867920831 L 237.92207792207793,378.8074751037714 L 237.92207792207793,378.8074751037714 L 237.92207792207793,378.8074751037714 L 237.92207792207793,378.8074751037714 L 237.92207792207793,378.8074751037714 L 237.92207792207793,378.8074751037714 L 237.92207792207793,378.8074751037714 L 237.92207792207793,378.8074751037714 L 237.92207792207793,378.8074751037714 L 237.92207792207793,378.8074751037714 L 237.92207792207793,378.8074751037714 L 243.29645662978996,399.18194288564666 L 248.28603495270164,418.5131740687296 L 252.81385281385283,436.45057274686894 L 256.80295013628347,452.6435430139134 L 260.17636684303346,466.74148896371116 L 262.85714285714283,478.39381469011096 L 264.7683181016514,487.24992428696135 L 265.83293249959917,492.95922184811076 L 265.97402597402595,495.1711114674078 L 265.97402597402595,495.1711114674078 L 259.74311011348044,497.7777777777778 L 247.68033064329362,500.01674594267183 L 231.41895141895145,501.8281581244544 L 212.59223629594,503.1521564854898 L 192.83344912974542,503.92888318814244 L 173.77585377585376,504.0984803947767 L 157.05271408975113,503.601090267757 L 144.29729392692354,502.3768549694476 L 137.14285714285714,500.36591666221295 L 137.14285714285714,500.36591666221295 L 134.1513904476867,497.25900985160257 L 132.1433025136729,492.51883918550584 L 131.17845117845118,485.74350203979833 L 131.31669427965724,476.53109579035504 L 132.6178896549267,464.47971781305114 L 135.14189514189513,449.1874654837618 L 138.9485685781982,430.25243617836213 L 144.0977678014715,407.2727272727273 L 150.64935064935065,379.84643614273244 L 150.64935064935065,379.84643614273244 L 155.48215844512137,359.4292127625461 L 160.22090392460763,339.9526125452051 L 164.77152477152475,321.74157803787426 L 169.0399586695883,305.12105178771844 L 172.93214330251368,290.4159763419023 L 176.35401635401635,277.95129424759057 L 179.2115155078118,268.05194805194805 L 181.41057844761548,261.0428803021396 L 182.85714285714286,257.24903354532984 L 182.85714285714286,257.24903354532984 L 187.00301070671438,252.72976680384096 L 191.2429408725705,251.8789303974489 L 195.74795574795576,255.05567135196762 L 200.68907772611476,262.61913669321075 L 206.2373292002922,274.928473446992 L 212.56373256373251,292.342828639125 L 219.83931020968058,315.2213492954234 L 228.23508453138078,343.923182441701 L 237.92207792207793,378.8074751037714 L 237.92207792207793,378.8074751037714 L 237.92207792207793,378.8074751037714 L 237.92207792207793,378.8074751037714 L 237.92207792207793,378.8074751037714 L 237.92207792207793,378.8074751037714 L 237.92207792207793,378.8074751037714 L 237.92207792207793,378.8074751037714 L 237.92207792207793,378.8074751037714 L 237.92207792207793,378.8074751037714 L 237.92207792207793,378.8074751037714M290.90909090909093 15.171111467407764 L 126.75324675324676,43.223059519355814 L 128.50195072417293,55.42550727735931 L 131.0459088236866,65.03696577770647 L 134.48773448773449,72.0830883793846 L 138.93004115226339,76.58952844138031 L 144.47544225322005,78.58193932267993 L 151.2265512265512,78.08597438227066 L 159.28598150820372,75.12728697913886 L 168.7563465341243,69.73153047227125 L 179.74025974025975,61.92435822065452 L 179.74025974025975,61.92435822065452 L 189.8704861667824,52.75470756952254 L 196.75128712165747,44.05536849981301 L 200.44252044252042,35.988812285108615 L 201.00404396700694,28.717510198991725 L 198.49571553275257,22.4039335150447 L 192.97739297739295,17.21055350684989 L 184.50893413856377,13.299841447989655 L 173.15019685390058,10.834268612046468 L 158.96103896103895,9.976306272602567 L 158.96103896103895,9.976306272602567 L 148.72392353873832,10.09032120143239 L 140.71009922861776,10.580585395400114 L 134.6801346801347,11.669427965724191 L 130.3945985427467,13.579178023622369 L 127.61405946591132,16.53216468031286 L 126.0990860990861,20.750717047013413 L 125.61024709172857,26.457164234942002 L 125.90811109329627,33.87383535531686 L 126.75324675324676,43.223059519355814 L 126.75324675324676,43.223059519355814 L 126.75324675324676,43.223059519355814 L 126.75324675324676,43.223059519355814 L 126.75324675324676,43.223059519355814 L 126.75324675324676,43.223059519355814 L 126.75324675324676,43.223059519355814 L 126.75324675324676,43.223059519355814 L 126.75324675324676,43.223059519355814 L 126.75324675324676,43.223059519355814 L 126.75324675324676,43.223059519355814 L 150.64935064935065,210.4957867920831 L 137.71578216022658,247.41239556054376 L 122.52471808027364,299.42173053284165 L 106.20490620490622,361.5299378262341 L 89.88509432953879,428.7431635579784 L 74.6940302495858,496.06755384533164 L 61.76046176046176,558.5092548055511 L 52.21313665758111,611.074412555894 L 47.18080273635829,648.7691732136176 L 47.79220779220779,666.5996828959792 L 47.79220779220779,666.5996828959792 L 49.12618245951579,667.9792635348191 L 50.998877665544335,669.3246396950101 L 53.33333333333334,670.6016068979033 L 56.052589385922715,671.7759606648495 L 59.0796857463524,672.8134965172003 L 62.33766233766234,673.6800099763062 L 65.74955908289242,674.3412965635188 L 69.23841590508258,674.7631518001889 L 72.72727272727273,674.9113712076675 L 72.72727272727273,674.9113712076675 L 77.27789357418986,674.5080433969323 L 81.272691643062,673.2239502609873 L 84.77152477152477,670.9479272442236 L 87.83425079721377,667.5688097910321 L 90.5207275577646,662.9754333458037 L 92.8908128908129,657.0566333529296 L 95.00436463399424,649.7012452568008 L 96.92124062494432,640.7981045018081 L 98.7012987012987,630.2360465323428 L 98.7012987012987,630.2360465323428 L 102.36402828995419,606.5608465608466 L 105.68471309212052,588.3669142928403 L 109.62962962962965,574.9017511980475 L 115.16505442431368,565.4128587461921 L 123.25726399800475,559.1477384069976 L 134.87253487253483,555.3538916501881 L 150.97714356973614,553.2788199454867 L 172.53736661144063,552.1700247626173 L 200.5194805194805,551.275007571304 L 200.5194805194805,551.275007571304 L 210.21645021645026,551.0441273404236 L 219.9134199134199,550.8132471095433 L 229.6103896103896,550.5823668786633 L 239.3073593073593,550.351486647783 L 249.004329004329,550.1206064169028 L 258.7012987012987,549.8897261860225 L 268.3982683982684,549.6588459551423 L 278.0952380952381,549.4279657242621 L 287.7922077922078,549.1970854933818 L 287.7922077922078,549.1970854933818 L 289.87012987012986,556.2389325352287 L 291.94805194805195,563.2807795770759 L 294.02597402597405,570.322626618923 L 296.1038961038961,577.3644736607699 L 298.1818181818182,584.406320702617 L 300.2597402597403,591.4481677444641 L 302.3376623376623,598.4900147863111 L 304.4155844155844,605.5318618281582 L 306.4935064935065,612.5737088700052 L 306.4935064935065,612.5737088700052 L 313.66076995706624,635.1785936971123 L 320.6570110273814,653.8841679582421 L 327.5420875420876,668.7930450893414 L 334.3758573388203,680.007838526357 L 341.2181782552153,687.6311617052359 L 348.12890812890805,691.7656280619244 L 355.1679047975344,692.5138510323695 L 362.39502609872983,689.9784440525182 L 369.87012987012986,684.2620205583169 L 369.87012987012986,684.2620205583169 L 373.82929827374267,679.846792439385 L 376.6853722409278,675.3375020041686 L 378.41269841269843,670.332246628543 L 378.9856234300679,664.4291236883829 L 378.3784939340495,657.226230559564 L 376.5656565656566,648.3216646179609 L 373.5214579659024,637.3135232394492 L 369.2202447758003,623.7999037999039 L 363.6363636363636,607.3789036751999 L 363.6363636363636,607.3789036751999 L 359.9137762100724,596.5175565175565 L 356.40496677533724,586.2120321379581 L 353.16979316979325,576.6333529296493 L 350.26811323107626,567.9525412858745 L 347.7597847968218,560.3406195998788 L 345.7046657046657,553.9686102649066 L 344.1626137922434,549.0075356742024 L 343.19348689719055,545.628418221011 L 342.85714285714283,544.0022802985766 L 342.85714285714283,544.0022802985766 L 343.30750182602026,543.5832754351273 L 344.61297276112094,543.0360037767446 L 346.7051467051467,542.386118682415 L 349.5156147007999,541.6592735111254 L 352.9759677907826,540.8811216218623 L 357.017797017797,540.0773163736127 L 361.57269342454526,539.273511125363 L 366.5722480537295,538.4953592361001 L 371.94805194805195,537.7685140648103 L 371.94805194805195,537.7685140648103 L 378.1091336646891,536.8806228065487 L 383.4493078937523,535.5908289241623 L 387.994227994228,533.8820301783264 L 391.7695473251029,531.7371243297168 L 394.8009192453638,529.1390091390092 L 397.1139971139971,526.0705823668787 L 398.7344342899898,522.514741774001 L 399.6878841323285,518.4543851210518 L 400.0,513.8724101687064 L 400.0,513.8724101687064 L 399.6750574528352,508.7431635579784 L 398.6318208540431,504.39206883651326 L 396.7676767676768,500.75071704701327 L 393.98001175778955,497.75069923218064 L 390.16621238843464,495.32360643471753 L 385.2236652236652,493.401029697326 L 379.0497568275346,491.91456006270823 L 371.54187376409595,490.7957885735663 L 362.5974025974026,489.9763062726025 L 362.5974025974026,489.9763062726025 L 358.55699855699856,489.6299859262823 L 354.5165945165946,489.2836655799619 L 350.4761904761904,488.93734523364157 L 346.43578643578644,488.5910248873212 L 342.3953823953824,488.24470454100083 L 338.35497835497836,487.8983841946805 L 334.3145743145743,487.55206384836015 L 330.2741702741703,487.20574350203975 L 326.23376623376623,486.8594231557195 L 326.23376623376623,486.8594231557195 L 321.26984126984127,471.0441273404236 L 316.3059163059163,455.2288315251278 L 311.34199134199133,439.413535709832 L 306.3780663780664,423.59823989453616 L 301.4141414141414,407.7829440792404 L 296.45021645021643,391.96764826394457 L 291.48629148629146,376.15235244864874 L 286.5223665223665,360.337056633353 L 281.5584415584416,344.52176081805715 L 281.5584415584416,344.52176081805715 L 273.3080362709992,318.8940551903516 L 265.2714089751127,294.26683056312686 L 257.5853775853776,271.1018473981436 L 250.38676001638964,249.8608661571625 L 243.81237418274455,231.0056473019436 L 237.99903799903797,214.9979512942476 L 233.08356937986565,202.2995385958349 L 229.20278623982327,193.37216966846594 L 226.4935064935065,188.67760497390128 L 226.4935064935065,188.67760497390128 L 224.08351593536776,186.6082340156415 L 221.06639588121072,184.59016977535495 L 217.5276575276575,182.6747189710152 L 213.5528120713306,180.91318832059568 L 209.2273707088522,179.35688454206968 L 204.63684463684464,178.0571143534107 L 199.86674505193025,177.06518447259194 L 195.00258315073128,176.43240161758678 L 190.12987012987014,176.2100725063688 L 190.12987012987014,176.2100725063688 L 184.1925427110612,176.5649439723515 L 178.80248695063509,177.66376284894804 L 173.8912938912939,179.5578358541321 L 169.39055457573977,182.29846970587707 L 165.23186004667488,185.9369711221563 L 161.34680134680136,190.52464682094308 L 157.66696951882136,196.11280352021092 L 154.12395560543706,202.75274793793315 L 150.64935064935065,210.4957867920831 L 150.64935064935065,210.4957867920831 L 150.64935064935065,210.4957867920831 L 150.64935064935065,210.4957867920831 L 150.64935064935065,210.4957867920831 L 150.64935064935065,210.4957867920831 L 150.64935064935065,210.4957867920831 L 150.64935064935065,210.4957867920831 L 150.64935064935065,210.4957867920831 L 150.64935064935065,210.4957867920831 L 150.64935064935065,210.4957867920831 L 237.92207792207793,378.8074751037714 L 237.92207792207793,378.8074751037714 L 237.92207792207793,378.8074751037714 L 237.92207792207793,378.8074751037714 L 237.92207792207793,378.8074751037714 L 237.92207792207793,378.8074751037714 L 237.92207792207793,378.8074751037714 L 237.92207792207793,378.8074751037714 L 237.92207792207793,378.8074751037714 L 237.92207792207793,378.8074751037714 L 237.92207792207793,378.8074751037714 L 243.29645662978996,399.18194288564666 L 248.28603495270164,418.5131740687296 L 252.81385281385283,436.45057274686894 L 256.80295013628347,452.6435430139134 L 260.17636684303346,466.74148896371116 L 262.85714285714283,478.39381469011096 L 264.7683181016514,487.24992428696135 L 265.83293249959917,492.95922184811076 L 265.97402597402595,495.1711114674078 L 265.97402597402595,495.1711114674078 L 259.74311011348044,497.7777777777778 L 247.68033064329362,500.01674594267183 L 231.41895141895145,501.8281581244544 L 212.59223629594,503.1521564854898 L 192.83344912974542,503.92888318814244 L 173.77585377585376,504.0984803947767 L 157.05271408975113,503.601090267757 L 144.29729392692354,502.3768549694476 L 137.14285714285714,500.36591666221295 L 137.14285714285714,500.36591666221295 L 134.1513904476867,497.25900985160257 L 132.1433025136729,492.51883918550584 L 131.17845117845118,485.74350203979833 L 131.31669427965724,476.53109579035504 L 132.6178896549267,464.47971781305114 L 135.14189514189513,449.1874654837618 L 138.9485685781982,430.25243617836213 L 144.0977678014715,407.2727272727273 L 150.64935064935065,379.84643614273244 L 150.64935064935065,379.84643614273244 L 155.48215844512137,359.4292127625461 L 160.22090392460763,339.9526125452051 L 164.77152477152475,321.74157803787426 L 169.0399586695883,305.12105178771844 L 172.93214330251368,290.4159763419023 L 176.35401635401635,277.95129424759057 L 179.2115155078118,268.05194805194805 L 181.41057844761548,261.0428803021396 L 182.85714285714286,257.24903354532984 L 182.85714285714286,257.24903354532984 L 187.00301070671438,252.72976680384096 L 191.2429408725705,251.8789303974489 L 195.74795574795576,255.05567135196762 L 200.68907772611476,262.61913669321075 L 206.2373292002922,274.928473446992 L 212.56373256373251,292.342828639125 L 219.83931020968058,315.2213492954234 L 228.23508453138078,343.923182441701 L 237.92207792207793,378.8074751037714 L 237.92207792207793,378.8074751037714 L 237.92207792207793,378.8074751037714 L 237.92207792207793,378.8074751037714 L 237.92207792207793,378.8074751037714 L 237.92207792207793,378.8074751037714 L 237.92207792207793,378.8074751037714 L 237.92207792207793,378.8074751037714 L 237.92207792207793,378.8074751037714 L 237.92207792207793,378.8074751037714 L 237.92207792207793,378.8074751037714 L 290.90909090909093,15.171111467407764 L 286.06060606060606,23.655247358951133 L 283.8287638287638,33.48190903746446 L 283.982683982684,44.06962036591663 L 286.2914862914863,54.836905207275535 L 290.5242905242905,65.2022874245096 L 296.45021645021643,74.5842908805872 L 303.83838383838383,82.40143943847653 L 312.45791245791247,88.07225696114594 L 322.0779220779221,91.0152673115636 L 322.0779220779221,91.0152673115636 L 335.0029394473839,90.56205796946557 L 345.901341456897,85.696470881656 L 354.5165945165946,77.3933336896299 L 360.5921650366095,66.62747403488149 L 363.87151942707493,54.3737195589048 L 364.0981240981241,41.606897903194216 L 361.01544545988986,29.30183670924422 L 354.3669499225055,18.43336361854884 L 343.8961038961039,9.976306272602567 L 343.8961038961039,9.976306272602567 L 335.47752658863766,5.707872374539213 L 328.11073699962594,2.610941870200911 L 321.61616161616166,0.7026169989131194 L 315.81422692533806,0.0 L 310.5253594142483,0.5201931127855944 L 305.56998556998553,2.2802985765948893 L 300.76853187964304,5.2974186307519275 L 295.94142483031374,9.58865551458146 L 290.90909090909093,15.171111467407764 L 290.90909090909093,15.171111467407764 L 290.90909090909093,15.171111467407764 L 290.90909090909093,15.171111467407764 L 290.90909090909093,15.171111467407764 L 290.90909090909093,15.171111467407764 L 290.90909090909093,15.171111467407764 L 290.90909090909093,15.171111467407764 L 290.90909090909093,15.171111467407764 L 290.90909090909093,15.171111467407764 L 290.90909090909093,15.171111467407764"/></svg>
