<?xml version="1.0" encoding="utf-8"?>
<svg xmlns="http://www.w3.org/2000/svg"  viewBox="0,0,400,729.4939401856602" width="100%">
<path d="M82.40494382741393 23.610081739510683 L 82.40494382741393,23.610081739510683 L 80.2380203362357,32.793912992476656 L 80.84800076780753,41.568246892778916 L 84.01733965352685,49.753928348627284 L 89.52849152479112,57.171802268231495 L 97.16391091299782,63.642713559801116 L 106.70605234954436,68.9875071315458 L 117.9373703658283,73.0270278916752 L 130.64031949324703,75.58212074839922 L 144.59735426319804,76.47363060992717 L 144.59735426319804,76.47363060992717 L 154.78573370941683,74.53704937962239 L 162.5299258319248,69.27330215892555 L 167.80433704618045,61.50138365316426 L 170.58337376764226,52.04028856766578 L 170.84144241176878,41.709011607757105 L 168.55294939401858,31.32654747876551 L 163.6923011298501,21.71189088601797 L 156.23390403472195,13.68403653484202 L 146.15216452409263,8.061979130564659 L 146.15216452409263,8.061979130564659 L 134.08692221149894,4.03952076012975 L 123.68526289410124,1.335131993580288 L 114.768031480109,0.0 L 107.15607287773199,0.08531194847164121 L 100.67023199517988,1.6422550080780547 L 95.13135374066233,4.722016347902261 L 90.36028302238905,9.375783137027101 L 86.17786474856969,15.654742544535509 L 82.40494382741393,23.610081739510683 L 82.40494382741393,23.610081739510683 L 82.40494382741393,23.610081739510683 L 82.40494382741393,23.610081739510683 L 82.40494382741393,23.610081739510683 L 82.40494382741393,23.610081739510683 L 82.40494382741393,23.610081739510683 L 82.40494382741393,23.610081739510683 L 82.40494382741393,23.610081739510683 L 82.40494382741393,23.610081739510683 L 82.40494382741393,23.610081739510683"/></svg>
