<?xml version="1.0" encoding="utf-8"?>
<svg xmlns="http://www.w3.org/2000/svg"  viewBox="0,0,400,729.4939401856602" width="100%">
<path d="M82.40494382741393 23.610081739510683 L 82.40494382741393,23.610081739510683 L 80.2380203362357,32.793912992476656 L 80.84800076780753,41.568246892778916 L 84.01733965352685,49.753928348627284 L 89.52849152479112,57.171802268231495 L 97.16391091299782,63.642713559801116 L 106.70605234954436,68.9875071315458 L 117.9373703658283,73.0270278916752 L 130.64031949324703,75.58212074839922 L 144.59735426319804,76.47363060992717 L 144.59735426319804,76.47363060992717 L 154.78573370941683,74.53704937962239 L 162.5299258319248,69.27330215892555 L 167.80433704618045,61.50138365316426 L 170.58337376764226,52.04028856766578 L 170.84144241176878,41.709011607757105 L 168.55294939401858,31.32654747876551 L 163.6923011298501,21.71189088601797 L 156.23390403472195,13.68403653484202 L 146.15216452409263,8.061979130564659 L 146.15216452409263,8.061979130564659 L 134.08692221149894,4.03952076012975 L 123.68526289410124,1.335131993580288 L 114.768031480109,0.0 L 107.15607287773199,0.08531194847164121 L 100.67023199517988,1.6422550080780547 L 95.13135374066233,4.722016347902261 L 90.36028302238905,9.375783137027101 L 86.17786474856969,15.654742544535509 L 82.40494382741393,23.610081739510683 L 82.40494382741393,23.610081739510683 L 82.40494382741393,23.610081739510683 L 82.40494382741393,23.610081739510683 L 82.40494382741393,23.610081739510683 L 82.40494382741393,23.610081739510683 L 82.40494382741393,23.610081739510683 L 82.40494382741393,23.610081739510683 L 82.40494382741393,23.610081739510683 L 82.40494382741393,23.610081739510683 L 82.40494382741393,23.610081739510683M152.37140556767105 211.7421233077576 L 82.40494382741393,23.610081739510683 L 80.2380203362357,32.793912992476656 L 80.84800076780753,41.568246892778916 L 84.01733965352685,49.753928348627284 L 89.52849152479112,57.171802268231495 L 97.16391091299782,63.642713559801116 L 106.70605234954436,68.9875071315458 L 117.9373703658283,73.0270278916752 L 130.64031949324703,75.58212074839922 L 144.59735426319804,76.47363060992717 L 144.59735426319804,76.47363060992717 L 154.78573370941683,74.53704937962239 L 162.5299258319248,69.27330215892555 L 167.80433704618045,61.50138365316426 L 170.58337376764226,52.04028856766578 L 170.84144241176878,41.709011607757105 L 168.55294939401858,31.32654747876551 L 163.6923011298501,21.71189088601797 L 156.23390403472195,13.68403653484202 L 146.15216452409263,8.061979130564659 L 146.15216452409263,8.061979130564659 L 134.08692221149894,4.03952076012975 L 123.68526289410124,1.335131993580288 L 114.768031480109,0.0 L 107.15607287773199,0.08531194847164121 L 100.67023199517988,1.6422550080780547 L 95.13135374066233,4.722016347902261 L 90.36028302238905,9.375783137027101 L 86.17786474856969,15.654742544535509 L 82.40494382741393,23.610081739510683 L 82.40494382741393,23.610081739510683 L 82.40494382741393,23.610081739510683 L 82.40494382741393,23.610081739510683 L 82.40494382741393,23.610081739510683 L 82.40494382741393,23.610081739510683 L 82.40494382741393,23.610081739510683 L 82.40494382741393,23.610081739510683 L 82.40494382741393,23.610081739510683 L 82.40494382741393,23.610081739510683 L 82.40494382741393,23.610081739510683 L 152.37140556767105,211.7421233077576 L 129.63363850128232,222.47223362677101 L 112.24493060406195,233.54785733709426 L 100.25646904509273,244.39313878654423 L 93.71944099345764,254.43222232293772 L 92.6850336182397,263.0892522940917 L 97.20443408852181,269.7883730478228 L 107.32882957338693,273.9537289319478 L 123.10940724191802,275.0094642942837 L 144.59735426319804,272.3797234826471 L 144.59735426319804,272.3797234826471 L 186.54097372925185,263.6309831668864 L 219.85955520482867,257.09608791396295 L 245.71760678656554,252.80063130841864 L 265.2796365710995,250.77020693479508 L 279.71015265506776,251.03040837763345 L 290.17366313510746,253.6068292214752 L 297.83467610785567,258.52506305086195 L 303.8576996699494,265.8107034503352 L 309.4072419180259,275.4893440044363 L 309.4072419180259,275.4893440044363 L 312.56591681018625,282.12448079681366 L 315.78857566370027,290.4487941689283 L 319.02403130948517,300.19355148309495 L 322.2210965784577,311.0900201016279 L 325.3285843015351,322.8694673868418 L 328.2953073096344,335.26316070105105 L 331.0700784336726,348.0023674065701 L 333.6017105045668,360.81835486571373 L 335.8390163532341,373.44239044079626 L 335.8390163532341,373.44239044079626 L 337.0483132228188,380.87092835395936 L 338.2576100924035,388.2994662671224 L 339.46690696198823,395.7280041802856 L 340.67620383157293,403.1565420934486 L 341.8855007011576,410.5850800066118 L 343.09479757074223,418.0136179197748 L 344.304094440327,425.442155832938 L 345.51339130991164,432.8706937461011 L 346.72268817949634,440.29923165926414 L 346.72268817949634,440.29923165926414 L 341.3672306141927,436.4985843548551 L 336.0117730488891,432.69793705044606 L 330.65631548358544,428.897289746037 L 325.30085791828185,425.09664244162803 L 319.9454003529782,421.295995137219 L 314.5899427876746,417.49534783281 L 309.2344852223709,413.694700528401 L 303.8790276570673,409.894053223992 L 298.5235700917637,406.0934059195829 L 298.5235700917637,406.0934059195829 L 289.5892762880771,399.84004009661584 L 279.56725514137787,393.6122678581903 L 268.75183287389297,387.55085391928424 L 257.43733570784923,381.796562994876 L 245.91808986547372,376.49015979994357 L 234.48842156899337,371.772409049465 L 223.44265704063514,367.78407545841856 L 213.07512250262602,364.66592374178214 L 203.68014417719291,362.55871861453403 L 203.68014417719291,362.55871861453403 L 191.46987155219756,360.51123185121605 L 180.51368456973452,359.65384676907667 L 170.45327304622313,360.1401248753646 L 160.93032679808263,362.12362767732895 L 151.5865356417325,365.75791668221837 L 142.063589393592,371.19655339728183 L 132.00317787008058,378.5930993297681 L 121.04699088761751,388.10111598692606 L 108.83671826262217,399.8741648760045 L 108.83671826262217,399.8741648760045 L 91.56531429455016,420.1741430148178 L 78.12015121542866,442.3808432019707 L 68.52682260979917,465.9823937466342 L 62.810922062203076,490.46692295797857 L 60.99804315718194,515.3225591451744 L 63.1137794792772,540.037430617392 L 69.18372461303032,564.099665683802 L 79.23347214298283,586.9973926535748 L 93.28861565367615,608.2187398358811 L 93.28861565367615,608.2187398358811 L 107.91748201784083,623.3082907217926 L 127.28116152217846,637.2589270956082 L 150.3559107850299,649.7379323582888 L 176.11798642473622,660.4125899107958 L 203.54364505963838,668.9501831540896 L 231.60914330807742,675.0179954891307 L 259.2907377883944,678.2833103168806 L 285.56468511893013,678.4134110382997 L 309.4072419180259,675.0755810543492 L 309.4072419180259,675.0755810543492 L 334.5060171583656,668.1674460268626 L 355.0619311425936,658.392829530731 L 371.3693100929368,645.0735015756051 L 383.72248023162194,627.5312321711358 L 392.41576778087625,605.0877913269741 L 397.74349896292665,577.0649490527709 L 400.0,542.784475358177 L 399.4795971143234,501.5681402528434 L 396.47661652812366,452.737713746421 L 396.47661652812366,452.737713746421 L 388.15656875343245,376.7013068724108 L 376.33019989655924,314.11432867494545 L 360.4856382666745,264.49050104773744 L 340.1110121729487,227.34354588449827 L 314.69444992455226,202.18718507894025 L 283.7240798306558,188.53514052477527 L 246.6880302004298,185.90113411571514 L 203.07442934304473,193.79888774547186 L 152.37140556767105,211.7421233077576 L 152.37140556767105,211.7421233077576 L 152.37140556767105,211.7421233077576 L 152.37140556767105,211.7421233077576 L 152.37140556767105,211.7421233077576 L 152.37140556767105,211.7421233077576 L 152.37140556767105,211.7421233077576 L 152.37140556767105,211.7421233077576 L 152.37140556767105,211.7421233077576 L 152.37140556767105,211.7421233077576 L 152.37140556767105,211.7421233077576 L 279.86584696102847,474.5050573989454 L 279.86584696102847,474.5050573989454 L 279.86584696102847,474.5050573989454 L 279.86584696102847,474.5050573989454 L 279.86584696102847,474.5050573989454 L 279.86584696102847,474.5050573989454 L 279.86584696102847,474.5050573989454 L 279.86584696102847,474.5050573989454 L 279.86584696102847,474.5050573989454 L 279.86584696102847,474.5050573989454 L 279.86584696102847,474.5050573989454 L 299.04610577615205,498.86161868758245 L 313.06925730616865,521.9385007491455 L 321.96089513561935,543.3773934000544 L 325.74661284904585,562.8199864567283 L 324.4520040309896,579.9079697355864 L 318.102662265992,594.2830330530481 L 306.72418113859464,605.586866225533 L 290.3421542333389,613.46115906946 L 268.98217513476624,617.5476014012488 L 268.98217513476624,617.5476014012488 L 248.24710605874793,618.0104187217073 L 226.91058774600504,615.4915834430838 L 205.63805339461578,610.3494057489589 L 185.09493620265854,602.9421958229138 L 165.9466693682117,593.6282638485287 L 148.8586860893536,582.7659200093844 L 134.49641956416258,570.7134744890616 L 123.525302990717,557.8292374711407 L 116.61076956709519,544.4715191392025 L 116.61076956709519,544.4715191392025 L 115.45479266530522,538.1179117767814 L 115.07942009203028,530.6125931099938 L 115.45905826272883,522.1859053997131 L 116.56811359285939,513.0681909068128 L 118.38099249788054,503.4897918921658 L 120.87210139325074,493.68105061664556 L 124.0158466944286,483.87230934112523 L 127.78663481687256,474.2939103264782 L 132.1588721760412,465.1761958335778 L 132.1588721760412,465.1761958335778 L 144.13453694273963,445.94261705065946 L 157.2491162215338,431.776568006953 L 171.48981322015285,422.6780487024586 L 186.84383114632598,418.6470591371763 L 203.29837320778256,419.68359931110604 L 220.84064261225183,425.7876692242479 L 239.4578425674631,436.95926887660164 L 259.1371762811455,453.1983982681675 L 279.86584696102847,474.5050573989454 L 279.86584696102847,474.5050573989454 L 279.86584696102847,474.5050573989454 L 279.86584696102847,474.5050573989454 L 279.86584696102847,474.5050573989454 L 279.86584696102847,474.5050573989454 L 279.86584696102847,474.5050573989454 L 279.86584696102847,474.5050573989454 L 279.86584696102847,474.5050573989454 L 279.86584696102847,474.5050573989454 L 279.86584696102847,474.5050573989454M286.08508800460686 22.055271478616078 L 82.40494382741393,23.610081739510683 L 80.2380203362357,32.793912992476656 L 80.84800076780753,41.568246892778916 L 84.01733965352685,49.753928348627284 L 89.52849152479112,57.171802268231495 L 97.16391091299782,63.642713559801116 L 106.70605234954436,68.9875071315458 L 117.9373703658283,73.0270278916752 L 130.64031949324703,75.58212074839922 L 144.59735426319804,76.47363060992717 L 144.59735426319804,76.47363060992717 L 154.78573370941683,74.53704937962239 L 162.5299258319248,69.27330215892555 L 167.80433704618045,61.50138365316426 L 170.58337376764226,52.04028856766578 L 170.84144241176878,41.709011607757105 L 168.55294939401858,31.32654747876551 L 163.6923011298501,21.71189088601797 L 156.23390403472195,13.68403653484202 L 146.15216452409263,8.061979130564659 L 146.15216452409263,8.061979130564659 L 134.08692221149894,4.03952076012975 L 123.68526289410124,1.335131993580288 L 114.768031480109,0.0 L 107.15607287773199,0.08531194847164121 L 100.67023199517988,1.6422550080780547 L 95.13135374066233,4.722016347902261 L 90.36028302238905,9.375783137027101 L 86.17786474856969,15.654742544535509 L 82.40494382741393,23.610081739510683 L 82.40494382741393,23.610081739510683 L 82.40494382741393,23.610081739510683 L 82.40494382741393,23.610081739510683 L 82.40494382741393,23.610081739510683 L 82.40494382741393,23.610081739510683 L 82.40494382741393,23.610081739510683 L 82.40494382741393,23.610081739510683 L 82.40494382741393,23.610081739510683 L 82.40494382741393,23.610081739510683 L 82.40494382741393,23.610081739510683 L 152.37140556767105,211.7421233077576 L 129.63363850128232,222.47223362677101 L 112.24493060406195,233.54785733709426 L 100.25646904509273,244.39313878654423 L 93.71944099345764,254.43222232293772 L 92.6850336182397,263.0892522940917 L 97.20443408852181,269.7883730478228 L 107.32882957338693,273.9537289319478 L 123.10940724191802,275.0094642942837 L 144.59735426319804,272.3797234826471 L 144.59735426319804,272.3797234826471 L 186.54097372925185,263.6309831668864 L 219.85955520482867,257.09608791396295 L 245.71760678656554,252.80063130841864 L 265.2796365710995,250.77020693479508 L 279.71015265506776,251.03040837763345 L 290.17366313510746,253.6068292214752 L 297.83467610785567,258.52506305086195 L 303.8576996699494,265.8107034503352 L 309.4072419180259,275.4893440044363 L 309.4072419180259,275.4893440044363 L 312.56591681018625,282.12448079681366 L 315.78857566370027,290.4487941689283 L 319.02403130948517,300.19355148309495 L 322.2210965784577,311.0900201016279 L 325.3285843015351,322.8694673868418 L 328.2953073096344,335.26316070105105 L 331.0700784336726,348.0023674065701 L 333.6017105045668,360.81835486571373 L 335.8390163532341,373.44239044079626 L 335.8390163532341,373.44239044079626 L 337.0483132228188,380.87092835395936 L 338.2576100924035,388.2994662671224 L 339.46690696198823,395.7280041802856 L 340.67620383157293,403.1565420934486 L 341.8855007011576,410.5850800066118 L 343.09479757074223,418.0136179197748 L 344.304094440327,425.442155832938 L 345.51339130991164,432.8706937461011 L 346.72268817949634,440.29923165926414 L 346.72268817949634,440.29923165926414 L 341.3672306141927,436.4985843548551 L 336.0117730488891,432.69793705044606 L 330.65631548358544,428.897289746037 L 325.30085791828185,425.09664244162803 L 319.9454003529782,421.295995137219 L 314.5899427876746,417.49534783281 L 309.2344852223709,413.694700528401 L 303.8790276570673,409.894053223992 L 298.5235700917637,406.0934059195829 L 298.5235700917637,406.0934059195829 L 289.5892762880771,399.84004009661584 L 279.56725514137787,393.6122678581903 L 268.75183287389297,387.55085391928424 L 257.43733570784923,381.796562994876 L 245.91808986547372,376.49015979994357 L 234.48842156899337,371.772409049465 L 223.44265704063514,367.78407545841856 L 213.07512250262602,364.66592374178214 L 203.68014417719291,362.55871861453403 L 203.68014417719291,362.55871861453403 L 191.46987155219756,360.51123185121605 L 180.51368456973452,359.65384676907667 L 170.45327304622313,360.1401248753646 L 160.93032679808263,362.12362767732895 L 151.5865356417325,365.75791668221837 L 142.063589393592,371.19655339728183 L 132.00317787008058,378.5930993297681 L 121.04699088761751,388.10111598692606 L 108.83671826262217,399.8741648760045 L 108.83671826262217,399.8741648760045 L 91.56531429455016,420.1741430148178 L 78.12015121542866,442.3808432019707 L 68.52682260979917,465.9823937466342 L 62.810922062203076,490.46692295797857 L 60.99804315718194,515.3225591451744 L 63.1137794792772,540.037430617392 L 69.18372461303032,564.099665683802 L 79.23347214298283,586.9973926535748 L 93.28861565367615,608.2187398358811 L 93.28861565367615,608.2187398358811 L 107.91748201784083,623.3082907217926 L 127.28116152217846,637.2589270956082 L 150.3559107850299,649.7379323582888 L 176.11798642473622,660.4125899107958 L 203.54364505963838,668.9501831540896 L 231.60914330807742,675.0179954891307 L 259.2907377883944,678.2833103168806 L 285.56468511893013,678.4134110382997 L 309.4072419180259,675.0755810543492 L 309.4072419180259,675.0755810543492 L 334.5060171583656,668.1674460268626 L 355.0619311425936,658.392829530731 L 371.3693100929368,645.0735015756051 L 383.72248023162194,627.5312321711358 L 392.41576778087625,605.0877913269741 L 397.74349896292665,577.0649490527709 L 400.0,542.784475358177 L 399.4795971143234,501.5681402528434 L 396.47661652812366,452.737713746421 L 396.47661652812366,452.737713746421 L 388.15656875343245,376.7013068724108 L 376.33019989655924,314.11432867494545 L 360.4856382666745,264.49050104773744 L 340.1110121729487,227.34354588449827 L 314.69444992455226,202.18718507894025 L 283.7240798306558,188.53514052477527 L 246.6880302004298,185.90113411571514 L 203.07442934304473,193.79888774547186 L 152.37140556767105,211.7421233077576 L 152.37140556767105,211.7421233077576 L 152.37140556767105,211.7421233077576 L 152.37140556767105,211.7421233077576 L 152.37140556767105,211.7421233077576 L 152.37140556767105,211.7421233077576 L 152.37140556767105,211.7421233077576 L 152.37140556767105,211.7421233077576 L 152.37140556767105,211.7421233077576 L 152.37140556767105,211.7421233077576 L 152.37140556767105,211.7421233077576 L 279.86584696102847,474.5050573989454 L 279.86584696102847,474.5050573989454 L 279.86584696102847,474.5050573989454 L 279.86584696102847,474.5050573989454 L 279.86584696102847,474.5050573989454 L 279.86584696102847,474.5050573989454 L 279.86584696102847,474.5050573989454 L 279.86584696102847,474.5050573989454 L 279.86584696102847,474.5050573989454 L 279.86584696102847,474.5050573989454 L 279.86584696102847,474.5050573989454 L 299.04610577615205,498.86161868758245 L 313.06925730616865,521.9385007491455 L 321.96089513561935,543.3773934000544 L 325.74661284904585,562.8199864567283 L 324.4520040309896,579.9079697355864 L 318.102662265992,594.2830330530481 L 306.72418113859464,605.586866225533 L 290.3421542333389,613.46115906946 L 268.98217513476624,617.5476014012488 L 268.98217513476624,617.5476014012488 L 248.24710605874793,618.0104187217073 L 226.91058774600504,615.4915834430838 L 205.63805339461578,610.3494057489589 L 185.09493620265854,602.9421958229138 L 165.9466693682117,593.6282638485287 L 148.8586860893536,582.7659200093844 L 134.49641956416258,570.7134744890616 L 123.525302990717,557.8292374711407 L 116.61076956709519,544.4715191392025 L 116.61076956709519,544.4715191392025 L 115.45479266530522,538.1179117767814 L 115.07942009203028,530.6125931099938 L 115.45905826272883,522.1859053997131 L 116.56811359285939,513.0681909068128 L 118.38099249788054,503.4897918921658 L 120.87210139325074,493.68105061664556 L 124.0158466944286,483.87230934112523 L 127.78663481687256,474.2939103264782 L 132.1588721760412,465.1761958335778 L 132.1588721760412,465.1761958335778 L 144.13453694273963,445.94261705065946 L 157.2491162215338,431.776568006953 L 171.48981322015285,422.6780487024586 L 186.84383114632598,418.6470591371763 L 203.29837320778256,419.68359931110604 L 220.84064261225183,425.7876692242479 L 239.4578425674631,436.95926887660164 L 259.1371762811455,453.1983982681675 L 279.86584696102847,474.5050573989454 L 279.86584696102847,474.5050573989454 L 279.86584696102847,474.5050573989454 L 279.86584696102847,474.5050573989454 L 279.86584696102847,474.5050573989454 L 279.86584696102847,474.5050573989454 L 279.86584696102847,474.5050573989454 L 279.86584696102847,474.5050573989454 L 279.86584696102847,474.5050573989454 L 279.86584696102847,474.5050573989454 L 279.86584696102847,474.5050573989454 L 286.08508800460686,22.055271478616078 L 283.80299338299193,30.882925346713254 L 284.067460423254,39.58261129210275 L 286.6609436567901,47.91119026164112 L 291.36589761499783,55.62552320218405 L 297.96477682927474,62.48247106058756 L 306.24003583101836,68.23889478370768 L 315.974129151626,72.65165531840019 L 326.94951132249514,75.47761361152155 L 338.94863687502334,76.47363060992717 L 338.94863687502334,76.47363060992717 L 347.6269948332951,74.1190208321117 L 353.0933579316118,67.77181186582568 L 355.5908652231174,58.50693426181169 L 355.362655760956,47.39931857081162 L 352.6518685982714,35.52389534356723 L 347.7016427882078,23.955595130820694 L 340.75511738390907,13.769348483313575 L 332.0554314385194,6.040085951788149 L 321.8457240051827,1.842738086986248 L 321.8457240051827,1.842738086986248 L 317.08745007918014,1.2562184412443445 L 312.2268018150117,1.5270838776414142 L 307.3917471353847,2.591350434824278 L 302.7102539630066,4.385034151439406 L 298.31029022058476,6.844151066132822 L 294.3198238308264,9.904717217550907 L 290.86682271643906,13.502748644339862 L 288.0792548001301,17.574261385146244 L 286.08508800460686,22.055271478616078 L 286.08508800460686,22.055271478616078 L 286.08508800460686,22.055271478616078 L 286.08508800460686,22.055271478616078 L 286.08508800460686,22.055271478616078 L 286.08508800460686,22.055271478616078 L 286.08508800460686,22.055271478616078 L 286.08508800460686,22.055271478616078 L 286.08508800460686,22.055271478616078 L 286.08508800460686,22.055271478616078 L 286.08508800460686,22.055271478616078"/></svg>
