<?xml version="1.0" encoding="utf-8"?>
<svg xmlns="http://www.w3.org/2000/svg"  viewBox="0,0,400,654.7381817175786" width="100%">
<path d="M232.80148921622492 28.94011912148888 L 232.80148921622492,28.94011912148888 L 235.31987716337508,36.267632075061734 L 239.46027768665599,42.05850153545762 L 244.71047628834208,46.2273584197234 L 250.55825847070778,48.688833644904115 L 256.4914097360278,49.3575581280457 L 261.99771558657653,48.14816278619386 L 266.56496152462864,44.97527853639453 L 269.68093305245856,39.753536295693145 L 270.8334156723409,32.39756698113578 L 270.8334156723409,32.39756698113578 L 270.5014247941854,29.333765448444698 L 269.5433939743657,26.326876637722897 L 268.01623593485084,23.433813270940043 L 265.97686339761054,20.71148807006582 L 263.4821890846143,18.21681375706963 L 260.58912571783156,16.006703053920884 L 257.3545860192318,14.138068682588997 L 253.83548271078462,12.667823365043771 L 250.08872851445946,11.652879823254352 L 250.08872851445946,11.652879823254352 L 245.13257897628242,10.803931720542854 L 241.00166390666325,10.581023559495394 L 237.66752694461687,11.012611701097402 L 235.10171172915878,12.127152506333518 L 233.27576189930411,13.953102336188117 L 232.1612210940681,16.518917551646236 L 231.7296329524661,19.85305451369264 L 231.95254111351323,23.98396958331198 L 232.80148921622492,28.94011912148888 L 232.80148921622492,28.94011912148888 L 232.80148921622492,28.94011912148888 L 232.80148921622492,28.94011912148888 L 232.80148921622492,28.94011912148888 L 232.80148921622492,28.94011912148888 L 232.80148921622492,28.94011912148888 L 232.80148921622492,28.94011912148888 L 232.80148921622492,28.94011912148888 L 232.80148921622492,28.94011912148888 L 232.80148921622492,28.94011912148888"/></svg>
