<?xml version="1.0" encoding="utf-8"?>
<svg xmlns="http://www.w3.org/2000/svg"  viewBox="0,0,400,654.7381817175786" width="100%">
<path d="M232.80148921622492 28.94011912148888 L 232.80148921622492,28.94011912148888 L 235.31987716337508,36.267632075061734 L 239.46027768665599,42.05850153545762 L 244.71047628834208,46.2273584197234 L 250.55825847070778,48.688833644904115 L 256.4914097360278,49.3575581280457 L 261.99771558657653,48.14816278619386 L 266.56496152462864,44.97527853639453 L 269.68093305245856,39.753536295693145 L 270.8334156723409,32.39756698113578 L 270.8334156723409,32.39756698113578 L 270.5014247941854,29.333765448444698 L 269.5433939743657,26.326876637722897 L 268.01623593485084,23.433813270940043 L 265.97686339761054,20.71148807006582 L 263.4821890846143,18.21681375706963 L 260.58912571783156,16.006703053920884 L 257.3545860192318,14.138068682588997 L 253.83548271078462,12.667823365043771 L 250.08872851445946,11.652879823254352 L 250.08872851445946,11.652879823254352 L 245.13257897628242,10.803931720542854 L 241.00166390666325,10.581023559495394 L 237.66752694461687,11.012611701097402 L 235.10171172915878,12.127152506333518 L 233.27576189930411,13.953102336188117 L 232.1612210940681,16.518917551646236 L 231.7296329524661,19.85305451369264 L 231.95254111351323,23.98396958331198 L 232.80148921622492,28.94011912148888 L 232.80148921622492,28.94011912148888 L 232.80148921622492,28.94011912148888 L 232.80148921622492,28.94011912148888 L 232.80148921622492,28.94011912148888 L 232.80148921622492,28.94011912148888 L 232.80148921622492,28.94011912148888 L 232.80148921622492,28.94011912148888 L 232.80148921622492,28.94011912148888 L 232.80148921622492,28.94011912148888 L 232.80148921622492,28.94011912148888M233.95397183610723 68.12452819748712 L 232.80148921622492,28.94011912148888 L 235.31987716337508,36.267632075061734 L 239.46027768665599,42.05850153545762 L 244.71047628834208,46.2273584197234 L 250.55825847070778,48.688833644904115 L 256.4914097360278,49.3575581280457 L 261.99771558657653,48.14816278619386 L 266.56496152462864,44.97527853639453 L 269.68093305245856,39.753536295693145 L 270.8334156723409,32.39756698113578 L 270.8334156723409,32.39756698113578 L 270.5014247941854,29.333765448444698 L 269.5433939743657,26.326876637722897 L 268.01623593485084,23.433813270940043 L 265.97686339761054,20.71148807006582 L 263.4821890846143,18.21681375706963 L 260.58912571783156,16.006703053920884 L 257.3545860192318,14.138068682588997 L 253.83548271078462,12.667823365043771 L 250.08872851445946,11.652879823254352 L 250.08872851445946,11.652879823254352 L 245.13257897628242,10.803931720542854 L 241.00166390666325,10.581023559495394 L 237.66752694461687,11.012611701097402 L 235.10171172915878,12.127152506333518 L 233.27576189930411,13.953102336188117 L 232.1612210940681,16.518917551646236 L 231.7296329524661,19.85305451369264 L 231.95254111351323,23.98396958331198 L 232.80148921622492,28.94011912148888 L 232.80148921622492,28.94011912148888 L 232.80148921622492,28.94011912148888 L 232.80148921622492,28.94011912148888 L 232.80148921622492,28.94011912148888 L 232.80148921622492,28.94011912148888 L 232.80148921622492,28.94011912148888 L 232.80148921622492,28.94011912148888 L 232.80148921622492,28.94011912148888 L 232.80148921622492,28.94011912148888 L 232.80148921622492,28.94011912148888 L 233.95397183610723,68.12452819748712 L 221.75093570048102,72.55423505744636 L 209.91783225765658,78.71977993747504 L 198.73922511748134,86.30814286674122 L 188.4996778898028,95.00630387441252 L 179.4837541844684,104.50124298965692 L 171.97601761132566,114.479940241642 L 166.26103178022208,124.62937565953546 L 162.6233603010051,134.63652927250533 L 161.3475667835222,144.18838110971905 L 161.3475667835222,144.18838110971905 L 160.68358502721142,147.60156351894537 L 158.7675233875717,153.05411846541168 L 155.71320730854208,160.2804532465941 L 151.63446223406152,169.01497515996817 L 146.645113608069,178.99209150300968 L 140.85898687450353,189.9462095731941 L 134.38990747730412,201.61173666799723 L 127.35170086040971,213.72308008489483 L 119.85819246775937,226.01464712136246 L 119.85819246775937,226.01464712136246 L 93.75896671791446,273.32650907639356 L 71.64363150593435,320.31586560693074 L 53.65446863674272,366.3187349566634 L 39.933759915263295,410.6711353692806 L 30.62378714641984,452.7090850884717 L 25.8668321351361,491.76860235792583 L 25.80517668633581,527.185705421332 L 30.581102604942718,558.2964125223798 L 40.33689169588055,584.4367419047582 L 40.33689169588055,584.4367419047582 L 46.56883475154041,595.770278121406 L 53.14225413901724,605.2731217813683 L 60.31325710717379,613.0780692359073 L 68.33795090487278,619.3179168362851 L 77.47244278097695,624.1254609337641 L 87.972839984349,627.6334978796061 L 100.09524976385174,629.9748240250733 L 114.09577936834783,631.2822357214282 L 130.23053604670008,631.6885293199326 L 130.23053604670008,631.6885293199326 L 159.162750623471,624.1222991158769 L 191.88914666487506,602.915986546465 L 226.82565340942782,570.3081586758308 L 262.38820009564506,528.5373825681077 L 296.99271596204244,479.8422252874291 L 329.0551302471356,426.46125389792866 L 356.99137218944037,370.63303546374 L 379.2173710274723,314.5961370489964 L 394.14905599974713,260.5891257178315 L 394.14905599974713,260.5891257178315 L 400.0,216.76791071026295 L 398.69891193941976,177.1392662211138 L 390.77697722305453,142.3102612847256 L 376.7653812559532,112.88796493543963 L 357.1953094431645,89.479446207597 L 332.5979471897369,72.69177413553925 L 303.50447990071905,63.1320177536074 L 270.44609298115955,61.40724609614298 L 233.95397183610723,68.12452819748712 L 233.95397183610723,68.12452819748712 L 233.95397183610723,68.12452819748712 L 233.95397183610723,68.12452819748712 L 233.95397183610723,68.12452819748712 L 233.95397183610723,68.12452819748712 L 233.95397183610723,68.12452819748712 L 233.95397183610723,68.12452819748712 L 233.95397183610723,68.12452819748712 L 233.95397183610723,68.12452819748712 L 233.95397183610723,68.12452819748712 L 322.6951335670444,113.0713503728969 L 322.6951335670444,113.0713503728969 L 322.6951335670444,113.0713503728969 L 322.6951335670444,113.0713503728969 L 322.6951335670444,113.0713503728969 L 322.6951335670444,113.0713503728969 L 322.6951335670444,113.0713503728969 L 322.6951335670444,113.0713503728969 L 322.6951335670444,113.0713503728969 L 322.6951335670444,113.0713503728969 L 322.6951335670444,113.0713503728969 L 339.7768547026113,126.43477367312342 L 351.8692272121858,145.45152735565313 L 359.01967836407556,169.62836783008387 L 361.2756354265886,198.47205150601337 L 358.68452566803296,231.48933479303926 L 351.29377635671636,268.1869741007593 L 339.15081476094684,308.071725838771 L 322.30306814903236,350.6503464166723 L 300.79796378928074,395.4295922440608 L 300.79796378928074,395.4295922440608 L 282.97953908599754,427.23589928029133 L 262.4008473671938,458.9947790482138 L 239.97249218438148,489.7197443670239 L 216.60507708907247,518.4243080559168 L 193.2092056327786,544.121982934088 L 170.69548136701198,565.8262818207329 L 149.97450784328453,582.5507175350468 L 131.95688861310816,593.3088028962252 L 117.55322722799477,597.1140507234636 L 117.55322722799477,597.1140507234636 L 105.63949742904684,594.9782427406639 L 94.6363711816109,588.9059714883074 L 84.77149937356488,579.3999660104578 L 76.27253289278674,566.9629553511792 L 69.36712262715449,552.0976685545355 L 64.28291946454615,535.3068346645905 L 61.24757429283969,517.093182725408 L 60.48873799991306,497.9594417810521 L 62.23406147364429,478.4083408755865 L 62.23406147364429,478.4083408755865 L 67.78937550144457,453.0616277828939 L 76.455918330244,423.83536414261386 L 87.75941727696342,391.8014062185054 L 101.22559965852368,358.03161027432725 L 116.3801927918457,323.59783257383833 L 132.74892399385027,289.57192938079754 L 149.85752058145835,257.02575695896365 L 167.23170987159068,227.03117157209547 L 184.39721918116825,200.6600294839518 L 184.39721918116825,200.6600294839518 L 192.61636477892966,188.87277240049187 L 200.29483951798088,177.47441891715647 L 207.31881795438295,166.68313446816242 L 213.57447464419673,156.71708448772625 L 218.94798414348332,147.7944344100641 L 223.32552100830378,140.13334966939246 L 226.59325979471902,133.95199569992766 L 228.63737505879013,129.46853793588625 L 229.34404135657803,126.90114181148451 L 229.34404135657803,126.90114181148451 L 229.00256502476097,125.28387196218479 L 228.74645777589828,123.52432030796108 L 228.57571960998985,121.65094320979843 L 228.4903505270356,119.69219702868163 L 228.4903505270356,117.67653812559527 L 228.57571960998982,115.63242286152419 L 228.74645777589828,113.58830759745322 L 229.00256502476103,111.57264869436683 L 229.34404135657803,109.61390251324998 L 229.34404135657803,109.61390251324998 L 232.3177310794842,106.2418237365574 L 239.1330295353314,103.80880487236138 L 248.93624589457724,102.31484592066204 L 260.873689327679,101.7599468814594 L 274.0916690050945,102.14410775475353 L 287.73649409728125,103.4673285405444 L 300.95447377469685,105.72960923883186 L 312.8919172077987,108.93094984961601 L 322.6951335670444,113.0713503728969 L 322.6951335670444,113.0713503728969 L 322.6951335670444,113.0713503728969 L 322.6951335670444,113.0713503728969 L 322.6951335670444,113.0713503728969 L 322.6951335670444,113.0713503728969 L 322.6951335670444,113.0713503728969 L 322.6951335670444,113.0713503728969 L 322.6951335670444,113.0713503728969 L 322.6951335670444,113.0713503728969 L 322.6951335670444,113.0713503728969"/></svg>
