<?xml version="1.0" encoding="utf-8"?>
<svg xmlns="http://www.w3.org/2000/svg"  viewBox="0,0,400,587.5110501447949" width="100%">
<path d="M193.33333333333334 188.6221612559061 L 193.33333333333334,188.6221612559061 L 190.0685871056241,191.5165371132449 L 185.5692729766804,195.64548087181825 L 180.00000000000003,200.84438347812832 L 173.52537722908096,206.948635878677 L 166.31001371742113,213.79362901996643 L 158.5185185185185,221.2147538484987 L 150.31550068587106,229.0474013107757 L 141.8655692729767,237.12696235329977 L 133.33333333333334,245.28882792257272 L 133.33333333333334,245.28882792257272 L 114.35147081237614,264.68830970888587 L 97.52781588172537,284.84682213077275 L 83.04526748971195,305.37113244932164 L 71.08672458466697,325.86800792562104 L 61.835086114921516,345.9442158207589 L 55.47325102880658,365.20652339582375 L 52.18411827465326,383.26169791190364 L 52.15058680079256,399.7165066300868 L 55.55555555555556,414.1777168114616 L 55.55555555555556,414.1777168114616 L 62.934003962810536,428.33104709647915 L 73.26627038561196,438.92699283645777 L 86.62551440329219,445.9472641365645 L 103.08489559518367,449.3735711019661 L 122.71757354061882,449.1876238378295 L 145.59670781893,445.3711324493217 L 171.79545800944973,437.9058070416095 L 201.3869836915104,426.77335771985975 L 234.44444444444446,411.9554945892394 L 234.44444444444446,411.9554945892394 L 235.7506477671086,412.02713001066917 L 237.40435909160192,412.9401005944215 L 239.34156378600827,414.63039170858093 L 241.49824721841185,417.0339887212315 L 243.8103947568968,420.0868770004572 L 246.21399176954733,423.7250419143423 L 248.64502362444748,427.88446883097083 L 251.0394756896814,432.501143118427 L 253.33333333333334,437.511050144795 L 253.33333333333334,437.511050144795 L 258.388965096784,446.28257887517145 L 264.80719402530104,453.36229233348564 L 272.79835390946505,458.786770309404 L 282.5727785398567,462.5925925925925 L 294.3408017070568,464.8163389727175 L 308.3127572016461,465.49458923944513 L 324.69897881420513,464.66392318244164 L 343.7098003353147,462.36092059137326 L 365.55555555555554,458.622161255906 L 365.55555555555554,458.622161255906 L 373.1748209114463,456.6803840877915 L 379.76070720926685,454.5282731290961 L 385.3497942386831,452.1201036427373 L 389.97866178936135,449.4101508916323 L 393.6838896509678,446.3526901386983 L 396.5020576131687,442.9019966468525 L 398.4697454656302,439.0123456790123 L 399.62353299801856,434.6380124980947 L 400.0,429.73327236701715 L 400.0,429.73327236701715 L 399.8125285779606,424.0420667581161 L 399.1586648376772,419.5122694711171 L 397.9012345679012,416.0707209266879 L 395.90306355738454,413.644261545496 L 393.0269775948789,412.1597317482091 L 389.13580246913574,411.5439719554945 L 384.0923639689072,411.7238225880201 L 377.75948788294465,412.6261240664532 L 370.0,414.1777168114616 L 370.0,414.1777168114616 L 350.4313366864807,418.9818625209571 L 334.43834781283346,422.2405121170553 L 321.64609053497946,423.88965096784017 L 311.6796220088401,423.8652644413961 L 304.1639993903368,422.10333790580694 L 298.724279835391,418.53985672915707 L 294.9855204999238,413.1108062795305 L 292.5727785398567,405.7521719250114 L 291.1111111111111,396.39993903368384 L 291.1111111111111,396.39993903368384 L 290.6904435299497,390.4602956866331 L 290.87334247828073,383.8622161255906 L 291.60493827160496,376.7703094040543 L 292.8303612254229,369.3491845755219 L 294.4947416552355,361.76345069349185 L 296.5432098765432,354.17771681146166 L 298.9208962048468,346.7565919829294 L 301.57293095564694,339.664685261393 L 304.44444444444446,333.0666057003505 L 304.44444444444446,333.0666057003505 L 310.7788446883097,318.12985825331504 L 315.69577808260937,300.65081542447797 L 319.17695473251035,281.62627648224344 L 321.2040847431794,262.05304069501597 L 321.75887821978364,242.92790733119946 L 320.82304526748976,225.24767565919828 L 318.37829599146465,210.00914494741647 L 314.4063404968755,198.20911446425848 L 308.8888888888889,190.8443834781283 L 308.8888888888889,190.8443834781283 L 300.13412589544265,186.19570187471427 L 287.90428288370674,182.6261240664532 L 273.2510288065844,180.144795000762 L 257.2260326169791,178.76085962505707 L 240.88096326779456,178.48346288675504 L 225.2674897119341,179.32174973327238 L 211.43728090230147,181.28486511202556 L 200.44200579180006,184.38195397043134 L 193.33333333333334,188.6221612559061 L 193.33333333333334,188.6221612559061 L 193.33333333333334,188.6221612559061 L 193.33333333333334,188.6221612559061 L 193.33333333333334,188.6221612559061 L 193.33333333333334,188.6221612559061 L 193.33333333333334,188.6221612559061 L 193.33333333333334,188.6221612559061 L 193.33333333333334,188.6221612559061 L 193.33333333333334,188.6221612559061 L 193.33333333333334,188.6221612559061 L 263.3333333333333,233.06660570035052 L 263.3333333333333,233.06660570035052 L 263.3333333333333,233.06660570035052 L 263.3333333333333,233.06660570035052 L 263.3333333333333,233.06660570035052 L 263.3333333333333,233.06660570035052 L 263.3333333333333,233.06660570035052 L 263.3333333333333,233.06660570035052 L 263.3333333333333,233.06660570035052 L 263.3333333333333,233.06660570035052 L 263.3333333333333,233.06660570035052 L 267.0035055631763,238.4666971498247 L 269.15561652187165,245.65005334552654 L 269.83539094650206,254.4246303917085 L 269.0885535741503,264.598384392623 L 266.9608291418991,275.9792714525225 L 263.49794238683126,288.3752476756592 L 258.74561804602956,301.59426916628564 L 252.74958085657673,315.44429202865416 L 245.55555555555554,329.7332723670172 L 245.55555555555554,329.7332723670172 L 237.78082609358324,340.9632677945435 L 226.81450998323425,352.82426459381185 L 213.4156378600823,364.7950007620789 L 198.34324035970127,376.35421429660107 L 182.356348117665,386.98064319463487 L 166.21399176954733,396.1530254534369 L 150.67520195092212,403.35009907026364 L 136.49900929736322,408.05060204237145 L 124.44444444444444,409.7332723670172 L 124.44444444444444,409.7332723670172 L 108.31732967535434,407.0035055631763 L 98.30818472793783,399.2531626276482 L 94.19753086419755,387.14067977442454 L 95.76588934613628,371.32449321749726 L 102.79378143575674,352.46303917085805 L 115.06172839506172,331.2147538484987 L 132.35025148605393,308.2380734644109 L 154.43987197073616,284.19143423258646 L 181.11111111111111,259.7332723670172 L 181.11111111111111,259.7332723670172 L 195.85581466239898,247.3327236701723 L 208.45145557079712,237.4836153025453 L 219.2181069958848,230.10364273738753 L 228.47584209724127,225.11050144794996 L 236.54473403444595,222.42188690748358 L 243.7448559670782,221.95549458923946 L 250.39628105471726,223.6290199664685 L 256.8190824569425,227.36015851242183 L 263.3333333333333,233.06660570035052 L 263.3333333333333,233.06660570035052 L 263.3333333333333,233.06660570035052 L 263.3333333333333,233.06660570035052 L 263.3333333333333,233.06660570035052 L 263.3333333333333,233.06660570035052 L 263.3333333333333,233.06660570035052 L 263.3333333333333,233.06660570035052 L 263.3333333333333,233.06660570035052 L 263.3333333333333,233.06660570035052 L 263.3333333333333,233.06660570035052M234.44444444444446 27.511050144794982 L 193.33333333333334,188.6221612559061 L 190.0685871056241,191.5165371132449 L 185.5692729766804,195.64548087181825 L 180.00000000000003,200.84438347812832 L 173.52537722908096,206.948635878677 L 166.31001371742113,213.79362901996643 L 158.5185185185185,221.2147538484987 L 150.31550068587106,229.0474013107757 L 141.8655692729767,237.12696235329977 L 133.33333333333334,245.28882792257272 L 133.33333333333334,245.28882792257272 L 114.35147081237614,264.68830970888587 L 97.52781588172537,284.84682213077275 L 83.04526748971195,305.37113244932164 L 71.08672458466697,325.86800792562104 L 61.835086114921516,345.9442158207589 L 55.47325102880658,365.20652339582375 L 52.18411827465326,383.26169791190364 L 52.15058680079256,399.7165066300868 L 55.55555555555556,414.1777168114616 L 55.55555555555556,414.1777168114616 L 62.934003962810536,428.33104709647915 L 73.26627038561196,438.92699283645777 L 86.62551440329219,445.9472641365645 L 103.08489559518367,449.3735711019661 L 122.71757354061882,449.1876238378295 L 145.59670781893,445.3711324493217 L 171.79545800944973,437.9058070416095 L 201.3869836915104,426.77335771985975 L 234.44444444444446,411.9554945892394 L 234.44444444444446,411.9554945892394 L 235.7506477671086,412.02713001066917 L 237.40435909160192,412.9401005944215 L 239.34156378600827,414.63039170858093 L 241.49824721841185,417.0339887212315 L 243.8103947568968,420.0868770004572 L 246.21399176954733,423.7250419143423 L 248.64502362444748,427.88446883097083 L 251.0394756896814,432.501143118427 L 253.33333333333334,437.511050144795 L 253.33333333333334,437.511050144795 L 258.388965096784,446.28257887517145 L 264.80719402530104,453.36229233348564 L 272.79835390946505,458.786770309404 L 282.5727785398567,462.5925925925925 L 294.3408017070568,464.8163389727175 L 308.3127572016461,465.49458923944513 L 324.69897881420513,464.66392318244164 L 343.7098003353147,462.36092059137326 L 365.55555555555554,458.622161255906 L 365.55555555555554,458.622161255906 L 373.1748209114463,456.6803840877915 L 379.76070720926685,454.5282731290961 L 385.3497942386831,452.1201036427373 L 389.97866178936135,449.4101508916323 L 393.6838896509678,446.3526901386983 L 396.5020576131687,442.9019966468525 L 398.4697454656302,439.0123456790123 L 399.62353299801856,434.6380124980947 L 400.0,429.73327236701715 L 400.0,429.73327236701715 L 399.8125285779606,424.0420667581161 L 399.1586648376772,419.5122694711171 L 397.9012345679012,416.0707209266879 L 395.90306355738454,413.644261545496 L 393.0269775948789,412.1597317482091 L 389.13580246913574,411.5439719554945 L 384.0923639689072,411.7238225880201 L 377.75948788294465,412.6261240664532 L 370.0,414.1777168114616 L 370.0,414.1777168114616 L 350.4313366864807,418.9818625209571 L 334.43834781283346,422.2405121170553 L 321.64609053497946,423.88965096784017 L 311.6796220088401,423.8652644413961 L 304.1639993903368,422.10333790580694 L 298.724279835391,418.53985672915707 L 294.9855204999238,413.1108062795305 L 292.5727785398567,405.7521719250114 L 291.1111111111111,396.39993903368384 L 291.1111111111111,396.39993903368384 L 290.6904435299497,390.4602956866331 L 290.87334247828073,383.8622161255906 L 291.60493827160496,376.7703094040543 L 292.8303612254229,369.3491845755219 L 294.4947416552355,361.76345069349185 L 296.5432098765432,354.17771681146166 L 298.9208962048468,346.7565919829294 L 301.57293095564694,339.664685261393 L 304.44444444444446,333.0666057003505 L 304.44444444444446,333.0666057003505 L 310.7788446883097,318.12985825331504 L 315.69577808260937,300.65081542447797 L 319.17695473251035,281.62627648224344 L 321.2040847431794,262.05304069501597 L 321.75887821978364,242.92790733119946 L 320.82304526748976,225.24767565919828 L 318.37829599146465,210.00914494741647 L 314.4063404968755,198.20911446425848 L 308.8888888888889,190.8443834781283 L 308.8888888888889,190.8443834781283 L 300.13412589544265,186.19570187471427 L 287.90428288370674,182.6261240664532 L 273.2510288065844,180.144795000762 L 257.2260326169791,178.76085962505707 L 240.88096326779456,178.48346288675504 L 225.2674897119341,179.32174973327238 L 211.43728090230147,181.28486511202556 L 200.44200579180006,184.38195397043134 L 193.33333333333334,188.6221612559061 L 193.33333333333334,188.6221612559061 L 193.33333333333334,188.6221612559061 L 193.33333333333334,188.6221612559061 L 193.33333333333334,188.6221612559061 L 193.33333333333334,188.6221612559061 L 193.33333333333334,188.6221612559061 L 193.33333333333334,188.6221612559061 L 193.33333333333334,188.6221612559061 L 193.33333333333334,188.6221612559061 L 193.33333333333334,188.6221612559061 L 263.3333333333333,233.06660570035052 L 263.3333333333333,233.06660570035052 L 263.3333333333333,233.06660570035052 L 263.3333333333333,233.06660570035052 L 263.3333333333333,233.06660570035052 L 263.3333333333333,233.06660570035052 L 263.3333333333333,233.06660570035052 L 263.3333333333333,233.06660570035052 L 263.3333333333333,233.06660570035052 L 263.3333333333333,233.06660570035052 L 263.3333333333333,233.06660570035052 L 267.0035055631763,238.4666971498247 L 269.15561652187165,245.65005334552654 L 269.83539094650206,254.4246303917085 L 269.0885535741503,264.598384392623 L 266.9608291418991,275.9792714525225 L 263.49794238683126,288.3752476756592 L 258.74561804602956,301.59426916628564 L 252.74958085657673,315.44429202865416 L 245.55555555555554,329.7332723670172 L 245.55555555555554,329.7332723670172 L 237.78082609358324,340.9632677945435 L 226.81450998323425,352.82426459381185 L 213.4156378600823,364.7950007620789 L 198.34324035970127,376.35421429660107 L 182.356348117665,386.98064319463487 L 166.21399176954733,396.1530254534369 L 150.67520195092212,403.35009907026364 L 136.49900929736322,408.05060204237145 L 124.44444444444444,409.7332723670172 L 124.44444444444444,409.7332723670172 L 108.31732967535434,407.0035055631763 L 98.30818472793783,399.2531626276482 L 94.19753086419755,387.14067977442454 L 95.76588934613628,371.32449321749726 L 102.79378143575674,352.46303917085805 L 115.06172839506172,331.2147538484987 L 132.35025148605393,308.2380734644109 L 154.43987197073616,284.19143423258646 L 181.11111111111111,259.7332723670172 L 181.11111111111111,259.7332723670172 L 195.85581466239898,247.3327236701723 L 208.45145557079712,237.4836153025453 L 219.2181069958848,230.10364273738753 L 228.47584209724127,225.11050144794996 L 236.54473403444595,222.42188690748358 L 243.7448559670782,221.95549458923946 L 250.39628105471726,223.6290199664685 L 256.8190824569425,227.36015851242183 L 263.3333333333333,233.06660570035052 L 263.3333333333333,233.06660570035052 L 263.3333333333333,233.06660570035052 L 263.3333333333333,233.06660570035052 L 263.3333333333333,233.06660570035052 L 263.3333333333333,233.06660570035052 L 263.3333333333333,233.06660570035052 L 263.3333333333333,233.06660570035052 L 263.3333333333333,233.06660570035052 L 263.3333333333333,233.06660570035052 L 263.3333333333333,233.06660570035052 L 234.44444444444446,27.511050144794982 L 223.2586495960981,38.11309251638476 L 214.1761926535589,49.693644261545394 L 207.24279835390948,61.91434232586491 L 202.50419143423258,74.43682365493063 L 200.006096631611,86.9227251943301 L 199.79423868312753,99.03368388965102 L 201.914342325865,110.43133668648073 L 206.41213229690595,120.77732053040695 L 213.33333333333334,129.73327236701718 L 213.33333333333334,129.73327236701718 L 216.68038408779142,132.23898795915264 L 221.4266117969822,134.5526596555403 L 227.40740740740745,136.64685261393063 L 234.45816186556928,138.49413199207433 L 242.41426611796985,140.06706294772133 L 251.11111111111111,141.33821063862214 L 260.3840877914952,142.28014022252702 L 270.06858710562415,142.86541685718637 L 280.0,143.06660570035052 L 280.0,143.06660570035052 L 292.7450083828684,142.89132754153337 L 303.68846212467605,142.3228166438043 L 313.0041152263375,141.29705837524756 L 320.86572168876705,139.75003810394747 L 327.44703551287915,137.617741197988 L 332.9218106995885,134.83615302545343 L 337.4638012498095,131.3412589544277 L 341.24676116445664,127.06904435299494 L 344.44444444444446,121.95549458923942 L 344.44444444444446,121.95549458923942 L 350.13260173753997,109.0077732053041 L 353.90032007315955,95.57536960829135 L 355.8024691358025,81.99664685261388 L 355.89391860996795,68.60996799268403 L 354.22953818015554,55.75369608291408 L 350.8641975308642,43.76619417771684 L 345.8527663465935,32.9858253315044 L 339.25011431184265,23.75095259868923 L 331.1111111111111,16.39993903368387 L 331.1111111111111,16.39993903368387 L 320.0045724737082,9.245541838134587 L 309.50160036579786,4.1030330742264844 L 299.3827160493828,1.0089925316262651 L 289.4284407864655,0.0 L 279.41929583904897,1.112635269013885 L 269.13580246913574,4.383478128334116 L 258.35848193872886,9.849108367626892 L 246.8678555098308,17.54610577655853 L 234.44444444444446,27.511050144794982 L 234.44444444444446,27.511050144794982 L 234.44444444444446,27.511050144794982 L 234.44444444444446,27.511050144794982 L 234.44444444444446,27.511050144794982 L 234.44444444444446,27.511050144794982 L 234.44444444444446,27.511050144794982 L 234.44444444444446,27.511050144794982 L 234.44444444444446,27.511050144794982 L 234.44444444444446,27.511050144794982 L 234.44444444444446,27.511050144794982 L 322.22222222222223,74.17771681146165 L 322.22222222222223,74.17771681146165 L 322.22222222222223,74.17771681146165 L 322.22222222222223,74.17771681146165 L 322.22222222222223,74.17771681146165 L 322.22222222222223,74.17771681146165 L 322.22222222222223,74.17771681146165 L 322.22222222222223,74.17771681146165 L 322.22222222222223,74.17771681146165 L 322.22222222222223,74.17771681146165 L 322.22222222222223,74.17771681146165 L 321.98292943148897,76.26581313824114 L 321.29553421734494,78.78372199359849 L 320.2057613168724,81.66742874561798 L 318.7593354671544,84.85291876238377 L 317.00198140527357,88.2761774119798 L 314.97942386831267,91.87319006249051 L 312.73738759335464,95.57994208199968 L 310.3215973174821,99.33241883859169 L 307.77777777777777,103.06660570035052 L 307.77777777777777,103.06660570035052 L 303.8835543362292,108.08870598994062 L 300.2453894223442,112.04999237921045 L 296.7078189300412,114.95960981557685 L 293.1153787532389,116.82670324645635 L 289.3126047858558,117.6604176192653 L 285.1440329218107,117.46989788142052 L 280.4541990550221,116.26428898033836 L 275.08763907940863,114.05273586343544 L 268.8888888888889,110.8443834781283 L 268.8888888888889,110.8443834781283 L 260.2484377381496,105.35436671239147 L 253.5924401768023,99.35223289132749 L 248.93004115226339,92.9843011736015 L 246.2703856119494,86.3968907178783 L 245.62261850327695,79.7363206828227 L 246.99588477366254,73.14891022709958 L 250.3993293705228,66.78097850937357 L 255.84209724127416,60.778844688309725 L 263.3333333333333,55.28882792257276 L 263.3333333333333,55.28882792257276 L 270.62033226642274,52.754153330285156 L 278.8309708885841,51.719250114311855 L 287.48971193415645,52.037799115988335 L 296.1210181374791,53.56348117664986 L 304.2493522328914,56.14997713763147 L 311.39917695473247,59.65096784026823 L 317.0949550373419,63.920134125895494 L 320.8611492150586,68.81115683584817 L 322.22222222222223,74.17771681146165 L 322.22222222222223,74.17771681146165 L 322.22222222222223,74.17771681146165 L 322.22222222222223,74.17771681146165 L 322.22222222222223,74.17771681146165 L 322.22222222222223,74.17771681146165 L 322.22222222222223,74.17771681146165 L 322.22222222222223,74.17771681146165 L 322.22222222222223,74.17771681146165 L 322.22222222222223,74.17771681146165 L 322.22222222222223,74.17771681146165"/></svg>
