<?xml version="1.0" encoding="utf-8"?>
<svg xmlns="http://www.w3.org/2000/svg"  viewBox="0,0,400,510.77122389879594" width="100%">
<path d="M191.11111111111111 12.993446121018149 L 191.11111111111111,12.993446121018149 L 184.47340344459684,20.967840268251937 L 180.06706294772138,29.134278311233036 L 177.81893004115227,37.19097698521555 L 177.6558451455571,44.83615302545344 L 179.5046486816034,51.76802316720013 L 183.29218106995884,57.68480414570958 L 188.94528273129097,62.284712696235324 L 196.39079408626733,65.26596555403141 L 205.55555555555554,66.32677945435148 L 205.55555555555554,66.32677945435148 L 214.00091449474164,65.37418076512735 L 222.1719250114312,62.65660722450851 L 229.87654320987656,58.38439262307569 L 236.9227251943301,52.76787075140987 L 243.11842706904434,46.01737540009146 L 248.27160493827162,38.343240359701305 L 252.1902149062643,29.95579942082006 L 254.6822130772748,21.065386374028396 L 255.55555555555554,11.882335009907036 L 255.55555555555554,11.882335009907036 L 253.8942234415485,6.982167352537784 L 249.343087943911,3.3805822283188847 L 242.55144032921814,1.0592897424173013 L 234.1685718640451,0.0 L 224.84377381496728,0.1844231062337561 L 215.22633744855966,1.594269166285661 L 205.96555403139763,4.211248285322363 L 197.71071483005636,8.017070568510956 L 191.11111111111111,12.993446121018149 L 191.11111111111111,12.993446121018149 L 191.11111111111111,12.993446121018149 L 191.11111111111111,12.993446121018149 L 191.11111111111111,12.993446121018149 L 191.11111111111111,12.993446121018149 L 191.11111111111111,12.993446121018149 L 191.11111111111111,12.993446121018149 L 191.11111111111111,12.993446121018149 L 191.11111111111111,12.993446121018149 L 191.11111111111111,12.993446121018149"/></svg>
