<?xml version="1.0" encoding="utf-8"?>
<svg xmlns="http://www.w3.org/2000/svg"  viewBox="0,0,400,510.77122389879594" width="100%">
<path d="M191.11111111111111 12.993446121018149 L 191.11111111111111,12.993446121018149 L 184.47340344459684,20.967840268251937 L 180.06706294772138,29.134278311233036 L 177.81893004115227,37.19097698521555 L 177.6558451455571,44.83615302545344 L 179.5046486816034,51.76802316720013 L 183.29218106995884,57.68480414570958 L 188.94528273129097,62.284712696235324 L 196.39079408626733,65.26596555403141 L 205.55555555555554,66.32677945435148 L 205.55555555555554,66.32677945435148 L 214.00091449474164,65.37418076512735 L 222.1719250114312,62.65660722450851 L 229.87654320987656,58.38439262307569 L 236.9227251943301,52.76787075140987 L 243.11842706904434,46.01737540009146 L 248.27160493827162,38.343240359701305 L 252.1902149062643,29.95579942082006 L 254.6822130772748,21.065386374028396 L 255.55555555555554,11.882335009907036 L 255.55555555555554,11.882335009907036 L 253.8942234415485,6.982167352537784 L 249.343087943911,3.3805822283188847 L 242.55144032921814,1.0592897424173013 L 234.1685718640451,0.0 L 224.84377381496728,0.1844231062337561 L 215.22633744855966,1.594269166285661 L 205.96555403139763,4.211248285322363 L 197.71071483005636,8.017070568510956 L 191.11111111111111,12.993446121018149 L 191.11111111111111,12.993446121018149 L 191.11111111111111,12.993446121018149 L 191.11111111111111,12.993446121018149 L 191.11111111111111,12.993446121018149 L 191.11111111111111,12.993446121018149 L 191.11111111111111,12.993446121018149 L 191.11111111111111,12.993446121018149 L 191.11111111111111,12.993446121018149 L 191.11111111111111,12.993446121018149 L 191.11111111111111,12.993446121018149M216.66666666666666 154.10455723212925 L 191.11111111111111,12.993446121018149 L 184.47340344459684,20.967840268251937 L 180.06706294772138,29.134278311233036 L 177.81893004115227,37.19097698521555 L 177.6558451455571,44.83615302545344 L 179.5046486816034,51.76802316720013 L 183.29218106995884,57.68480414570958 L 188.94528273129097,62.284712696235324 L 196.39079408626733,65.26596555403141 L 205.55555555555554,66.32677945435148 L 205.55555555555554,66.32677945435148 L 214.00091449474164,65.37418076512735 L 222.1719250114312,62.65660722450851 L 229.87654320987656,58.38439262307569 L 236.9227251943301,52.76787075140987 L 243.11842706904434,46.01737540009146 L 248.27160493827162,38.343240359701305 L 252.1902149062643,29.95579942082006 L 254.6822130772748,21.065386374028396 L 255.55555555555554,11.882335009907036 L 255.55555555555554,11.882335009907036 L 253.8942234415485,6.982167352537784 L 249.343087943911,3.3805822283188847 L 242.55144032921814,1.0592897424173013 L 234.1685718640451,0.0 L 224.84377381496728,0.1844231062337561 L 215.22633744855966,1.594269166285661 L 205.96555403139763,4.211248285322363 L 197.71071483005636,8.017070568510956 L 191.11111111111111,12.993446121018149 L 191.11111111111111,12.993446121018149 L 191.11111111111111,12.993446121018149 L 191.11111111111111,12.993446121018149 L 191.11111111111111,12.993446121018149 L 191.11111111111111,12.993446121018149 L 191.11111111111111,12.993446121018149 L 191.11111111111111,12.993446121018149 L 191.11111111111111,12.993446121018149 L 191.11111111111111,12.993446121018149 L 191.11111111111111,12.993446121018149 L 216.66666666666666,154.10455723212925 L 186.82822740435904,166.7931717725957 L 158.69989330894683,185.98384392623075 L 133.2510288065844,210.0304831580551 L 111.45099832342632,237.28699893308945 L 94.26916628562722,266.10730071635425 L 82.67489711934157,294.84529797287 L 77.63755525072398,321.8549001676574 L 80.12650510592897,345.4900167657369 L 91.11111111111111,364.1045572321293 L 91.11111111111111,364.1045572321293 L 98.65416857186402,369.90855052583447 L 107.83417162017984,373.9932937052279 L 118.47736625514406,376.367931717726 L 130.40999847584212,377.04160951074533 L 143.45831428135958,376.0234720317025 L 157.44855967078186,373.32266422801405 L 172.2069806431946,368.94833104709653 L 187.55982319768327,362.9096174363665 L 203.33333333333334,355.21566834324034 L 203.33333333333334,355.21566834324034 L 210.6370980033531,351.2345679012345 L 217.64822435604327,347.48209114464265 L 224.23868312757207,344.02225270538025 L 230.28044505410762,340.9190672153635 L 235.64548087181834,338.2365493065082 L 240.20576131687238,336.0387136107301 L 243.83325712543822,334.38957475994516 L 246.3999390336839,333.3531473860692 L 247.77777777777777,332.99344612101817 L 247.77777777777777,332.99344612101817 L 248.22435604328598,333.55433622923346 L 248.79896357262612,335.17604023776863 L 249.4650205761317,337.7671086724585 L 250.18594726413656,341.2360920591373 L 250.92516384697456,345.49154092363966 L 251.6460905349794,350.44200579180006 L 252.312147538485,355.9960371894528 L 252.886755067825,362.0621856424326 L 253.33333333333334,368.5490016765737 L 253.33333333333334,368.5490016765737 L 254.9428440786465,382.4645633287609 L 257.56744398719707,394.6060051821368 L 261.2345679012346,405.0099070263679 L 265.97165066300875,413.7128486511203 L 271.8061271147691,420.75140984606 L 278.7654320987654,426.16217040085354 L 286.87700045724733,429.9817101051669 L 296.1682670324645,432.24660874866635 L 306.6666666666667,432.99344612101817 L 306.6666666666667,432.99344612101817 L 312.5560128029264,432.74348422496575 L 317.6497485139461,431.98140527358635 L 321.9753086419753,430.68891937204694 L 325.56012802926386,428.8477366255144 L 328.4316415180613,426.43956713915566 L 330.61728395061726,423.4461210181375 L 332.1444901691815,419.84910836762685 L 333.04069501600367,415.63023929279075 L 333.3333333333333,410.77122389879594 L 333.3333333333333,410.77122389879594 L 333.0452674897119,405.91220850480113 L 332.1810699588478,401.69333942996496 L 330.74074074074076,398.0963267794544 L 328.724279835391,395.1028806584362 L 326.13168724279836,392.69471117207746 L 322.96296296296293,390.8535284255449 L 319.2181069958848,389.56104252400553 L 314.8971193415637,388.7989635726261 L 310.0,388.5490016765737 L 310.0,388.5490016765737 L 303.68846212467605,388.28074988568824 L 298.7669562566682,387.0614235634812 L 295.1440329218107,384.26916628562725 L 292.7282426459381,379.2821216278006 L 291.42813595488497,371.478433165676 L 291.1522633744856,360.2362444749277 L 291.8091754305746,344.93369913123 L 293.3074226489864,324.9489407102576 L 295.55555555555554,299.6601127876848 L 295.55555555555554,299.6601127876848 L 297.4424630391708,276.6666666666667 L 298.63435451912824,257.770156988264 L 299.09465020576135,242.5407712238988 L 298.78677030940406,230.54869684499315 L 297.6741350403902,221.36412132296908 L 295.7201646090535,214.55723212924858 L 292.88827922572773,209.6982167352538 L 289.14189910074685,206.3572626124067 L 284.44444444444446,204.10455723212925 L 284.44444444444446,204.10455723212925 L 281.2010364273738,202.6779454351471 L 278.16796220088406,200.67520195092203 L 275.3909465020576,198.1786313062033 L 272.9157140679775,195.2705380277396 L 270.78798963572626,192.03322664228014 L 269.0534979423868,188.5490016765737 L 267.7579637250419,184.9001676573693 L 266.9471117207743,181.16902911141594 L 266.6666666666667,177.4378905654626 L 266.6666666666667,177.4378905654626 L 265.97622313671695,170.1996646852615 L 263.9414723365341,164.0588324950465 L 260.6172839506173,159.04282883706753 L 256.0585276634659,155.1790885535742 L 250.32007315957935,152.49504648681605 L 243.45679012345678,151.01813747904293 L 235.52354823959763,150.77579637250426 L 226.57521719250116,151.79545800944982 L 216.66666666666666,154.10455723212925 L 216.66666666666666,154.10455723212925 L 216.66666666666666,154.10455723212925 L 216.66666666666666,154.10455723212925 L 216.66666666666666,154.10455723212925 L 216.66666666666666,154.10455723212925 L 216.66666666666666,154.10455723212925 L 216.66666666666666,154.10455723212925 L 216.66666666666666,154.10455723212925 L 216.66666666666666,154.10455723212925 L 216.66666666666666,154.10455723212925 L 222.22222222222223,216.32677945435148 L 222.22222222222223,216.32677945435148 L 222.22222222222223,216.32677945435148 L 222.22222222222223,216.32677945435148 L 222.22222222222223,216.32677945435148 L 222.22222222222223,216.32677945435148 L 222.22222222222223,216.32677945435148 L 222.22222222222223,216.32677945435148 L 222.22222222222223,216.32677945435148 L 222.22222222222223,216.32677945435148 L 222.22222222222223,216.32677945435148 L 222.42036274958082,219.23944520652344 L 222.98430117360158,222.01493674744705 L 223.86831275720166,224.5983843926231 L 225.02667276329828,226.9349184575522 L 226.4136564548087,228.96966925773515 L 227.98353909465015,230.6477671086725 L 229.69059594574,231.914342325865 L 231.48910227099526,232.71452522481337 L 233.33333333333334,232.99344612101817 L 233.33333333333334,232.99344612101817 L 239.76985215668336,234.14418533760104 L 243.59091601889958,237.42569730224054 L 244.89711934156378,242.58192348727326 L 243.7890565462582,249.35680536503583 L 240.36732205456485,257.49428440786465 L 234.73251028806587,266.73830208809636 L 226.98521566834327,276.8327998780674 L 217.2260326169791,287.52171925011436 L 205.55555555555554,298.5490016765737 L 205.55555555555554,298.5490016765737 L 191.19646395366556,309.76680384087797 L 176.60874866636186,318.9087029416247 L 162.30452674897123,325.8741045572322 L 148.79591525682062,330.56241426611797 L 136.595031245237,332.8730376467002 L 126.2139917695473,332.7053802773968 L 118.1649138850785,329.95884773662556 L 112.95991464715745,324.53284560280446 L 111.11111111111111,316.3267794543515 L 111.11111111111111,316.3267794543515 L 114.06645328456028,307.35101356500536 L 122.07895137936288,293.9856729157141 L 133.86831275720166,277.68480414570945 L 148.15424477975918,259.90245389422347 L 163.6564548087182,242.09266880048776 L 179.0946502057613,225.70949550373422 L 193.18853833257123,212.20698064319467 L 204.65782655083066,203.03917085810093 L 212.22222222222223,199.66011278768482 L 212.22222222222223,199.66011278768482 L 214.02834933699128,199.93903368388976 L 215.72473708276178,200.739216582838 L 217.28395061728398,202.0057918000304 L 218.67855509830818,203.68388965096787 L 219.88111568358485,205.71864045115072 L 220.8641975308642,208.05517451607986 L 221.60036579789661,210.6386221612559 L 222.06218564243258,213.4141137021796 L 222.22222222222223,216.32677945435148 L 222.22222222222223,216.32677945435148 L 222.22222222222223,216.32677945435148 L 222.22222222222223,216.32677945435148 L 222.22222222222223,216.32677945435148 L 222.22222222222223,216.32677945435148 L 222.22222222222223,216.32677945435148 L 222.22222222222223,216.32677945435148 L 222.22222222222223,216.32677945435148 L 222.22222222222223,216.32677945435148 L 222.22222222222223,216.32677945435148"/></svg>
