<?xml version="1.0" encoding="utf-8"?>
<svg xmlns="http://www.w3.org/2000/svg"  viewBox="0,0,400,631.333551754212" width="100%">
<path d="M125.14039694149241 20.433119373162885 L 125.14039694149241,20.433119373162885 L 123.26505373615062,28.381178272967738 L 123.79295546521337,35.97484160640868 L 126.53582948404988,43.059061313201695 L 131.30540314802934,49.478789333062664 L 137.91340381252104,55.07897760570734 L 146.17155883289414,59.70457807085152 L 155.89159556451796,63.20054266821103 L 166.88524136276166,65.41182333750191 L 178.96422358299452,66.1833720184397 L 178.96422358299452,66.1833720184397 L 187.78165910653547,64.50737631917768 L 194.4837960933426,59.95191664320953 L 199.048484820518,53.22578412326319 L 201.453575565164,45.03776989206631 L 201.67691860438285,36.09666508234631 L 199.6963642152768,27.111260826830858 L 195.48976267494817,18.790348258247363 L 189.03496426049915,11.842718509323724 L 180.30981924903207,6.977162712787357 L 180.30981924903207,6.977162712787357 L 169.8680707129903,3.495964597359818 L 160.86605416530153,1.1554772111653164 L 153.14872154568147,0.0 L 146.56102479384606,0.07383240965917524 L 140.94791584951108,1.4212738859382248 L 136.15434665239238,4.086623874632685 L 132.02526914220581,8.114181821537937 L 128.40563525866722,13.548247172449441 L 125.14039694149241,20.433119373162885 L 125.14039694149241,20.433119373162885 L 125.14039694149241,20.433119373162885 L 125.14039694149241,20.433119373162885 L 125.14039694149241,20.433119373162885 L 125.14039694149241,20.433119373162885 L 125.14039694149241,20.433119373162885 L 125.14039694149241,20.433119373162885 L 125.14039694149241,20.433119373162885 L 125.14039694149241,20.433119373162885 L 125.14039694149241,20.433119373162885"/></svg>
