<?xml version="1.0" encoding="utf-8"?>
<svg xmlns="http://www.w3.org/2000/svg"  viewBox="0,0,400,805.2192043895747" width="100%">
<path d="M167.99999999999997 282.01920438957467 L 167.99999999999997,282.01920438957467 L 155.755281207133,292.8307270233197 L 148.73854595336078,302.7336076817557 L 146.7259259259259,311.53031550068584 L 149.49355281207133,319.02331961591204 L 156.8175582990398,325.0150891632372 L 168.47407407407403,329.3080932784637 L 184.23923182441695,331.70480109739367 L 203.88916323731132,332.0076817558298 L 227.19999999999996,330.01920438957467 L 227.19999999999996,330.01920438957467 L 252.84389574759936,327.4030178326474 L 274.4844993141289,328.28971193415623 L 292.38518518518515,332.9821673525376 L 306.80932784636485,341.78326474622753 L 318.0203017832647,354.9958847736625 L 326.2814814814814,372.9229080932784 L 331.85624142661175,395.8672153635115 L 335.00795610425234,424.1316872427982 L 335.99999999999994,458.01920438957467 L 335.99999999999994,458.01920438957467 L 335.85733882030166,478.7577503429355 L 335.3327846364883,495.3349794238682 L 334.28148148148153,508.09327846364863 L 332.558573388203,517.3750342935527 L 330.0192043895747,523.5226337448559 L 326.5185185185184,526.878463648834 L 321.9116598079561,527.7849108367626 L 316.05377229080926,526.5843621399176 L 308.79999999999995,523.6192043895747 L 308.79999999999995,523.6192043895747 L 287.81344307270217,516.0362139917695 L 265.82606310013716,510.3626886145404 L 243.49629629629632,506.6117969821673 L 221.48257887517147,504.7967078189299 L 200.44334705075445,504.93058984910823 L 181.03703703703704,507.0266117969821 L 163.92208504801096,511.09794238683116 L 149.756927297668,517.1577503429355 L 139.2,525.2192043895747 L 139.2,525.2192043895747 L 126.68093278463641,540.6639231824416 L 117.86227709190672,558.7028806584361 L 112.65185185185186,578.4932784636486 L 110.95747599451302,599.19231824417 L 112.6869684499314,619.9572016460904 L 117.74814814814812,639.9451303155006 L 126.04883401920436,658.313305898491 L 137.49684499314125,674.2189300411521 L 151.99999999999997,686.8192043895747 L 151.99999999999997,686.8192043895747 L 170.5327846364883,695.6027434842249 L 194.1882030178326,701.7393689986282 L 221.4518518518518,705.3080932784636 L 250.80932784636485,706.38792866941 L 280.74622770919063,705.0578875171467 L 309.7481481481481,701.3969821673525 L 336.3006858710562,695.4842249657063 L 358.88943758573384,687.3986282578875 L 375.99999999999994,677.2192043895747 L 375.99999999999994,677.2192043895747 L 388.85925925925915,654.8696844993141 L 396.7407407407407,616.467489711934 L 400.0,566.5821673525376 L 398.99259259259253,509.78326474622753 L 394.0740740740741,450.64032921810684 L 385.59999999999997,393.72290809327836 L 373.92592592592587,343.6005486968449 L 359.4074074074074,304.8427983539094 L 342.4,282.01920438957467 L 342.4,282.01920438957467 L 327.99122085048,273.95994513031553 L 309.97421124828526,267.91550068587105 L 289.36296296296297,263.88587105624134 L 267.1714677640603,261.87105624142646 L 244.41371742112483,261.87105624142646 L 222.10370370370367,263.88587105624134 L 201.2554183813443,267.91550068587105 L 182.88285322359394,273.9599451303155 L 167.99999999999997,282.01920438957467 L 167.99999999999997,282.01920438957467 L 167.99999999999997,282.01920438957467 L 167.99999999999997,282.01920438957467 L 167.99999999999997,282.01920438957467 L 167.99999999999997,282.01920438957467 L 167.99999999999997,282.01920438957467 L 167.99999999999997,282.01920438957467 L 167.99999999999997,282.01920438957467 L 167.99999999999997,282.01920438957467 L 167.99999999999997,282.01920438957467 L 287.99999999999994,582.8192043895746 L 287.99999999999994,582.8192043895746 L 287.99999999999994,582.8192043895746 L 287.99999999999994,582.8192043895746 L 287.99999999999994,582.8192043895746 L 287.99999999999994,582.8192043895746 L 287.99999999999994,582.8192043895746 L 287.99999999999994,582.8192043895746 L 287.99999999999994,582.8192043895746 L 287.99999999999994,582.8192043895746 L 287.99999999999994,582.8192043895746 L 303.2559670781892,592.4828532235939 L 314.99588477366257,600.395061728395 L 323.3777777777778,606.9377229080932 L 328.559670781893,612.4927297668037 L 330.69958847736626,617.4419753086419 L 329.9555555555555,622.1673525377228 L 326.4855967078189,627.0507544581618 L 320.4477366255144,632.4740740740739 L 311.99999999999994,638.8192043895747 L 311.99999999999994,638.8192043895747 L 298.76323731138535,647.3547325102879 L 284.80219478737996,653.7700960219477 L 270.3407407407408,658.0784636488338 L 255.60274348422493,660.2930041152263 L 240.8120713305898,660.4268861454045 L 226.19259259259252,658.4932784636488 L 211.96817558299043,654.5053497942386 L 198.36268861454042,648.476268861454 L 185.59999999999997,640.4192043895747 L 185.59999999999997,640.4192043895747 L 178.36817558299032,634.8115226337449 L 172.66392318244172,629.5725651577503 L 168.47407407407408,624.4784636488339 L 165.78545953360768,619.3053497942386 L 164.58491083676265,613.829355281207 L 164.85925925925926,607.8266117969821 L 166.59533607681755,601.0732510288065 L 169.77997256515772,593.3454046639232 L 174.39999999999998,584.4192043895747 L 174.39999999999998,584.4192043895747 L 182.2990397805212,571.6170096021948 L 190.3034293552812,562.0016460905348 L 198.8740740740741,555.5599451303154 L 208.47187928669408,552.2787379972564 L 219.55775034293552,552.144855967078 L 232.59259259259252,555.1451303155006 L 248.03731138545953,561.2663923182441 L 266.3528120713305,570.4954732510287 L 287.99999999999994,582.8192043895746 L 287.99999999999994,582.8192043895746 L 287.99999999999994,582.8192043895746 L 287.99999999999994,582.8192043895746 L 287.99999999999994,582.8192043895746 L 287.99999999999994,582.8192043895746 L 287.99999999999994,582.8192043895746 L 287.99999999999994,582.8192043895746 L 287.99999999999994,582.8192043895746 L 287.99999999999994,582.8192043895746 L 287.99999999999994,582.8192043895746M174.39999999999998 11.619204389574678 L 167.99999999999997,282.01920438957467 L 155.755281207133,292.8307270233197 L 148.73854595336078,302.7336076817557 L 146.7259259259259,311.53031550068584 L 149.49355281207133,319.02331961591204 L 156.8175582990398,325.0150891632372 L 168.47407407407403,329.3080932784637 L 184.23923182441695,331.70480109739367 L 203.88916323731132,332.0076817558298 L 227.19999999999996,330.01920438957467 L 227.19999999999996,330.01920438957467 L 252.84389574759936,327.4030178326474 L 274.4844993141289,328.28971193415623 L 292.38518518518515,332.9821673525376 L 306.80932784636485,341.78326474622753 L 318.0203017832647,354.9958847736625 L 326.2814814814814,372.9229080932784 L 331.85624142661175,395.8672153635115 L 335.00795610425234,424.1316872427982 L 335.99999999999994,458.01920438957467 L 335.99999999999994,458.01920438957467 L 335.85733882030166,478.7577503429355 L 335.3327846364883,495.3349794238682 L 334.28148148148153,508.09327846364863 L 332.558573388203,517.3750342935527 L 330.0192043895747,523.5226337448559 L 326.5185185185184,526.878463648834 L 321.9116598079561,527.7849108367626 L 316.05377229080926,526.5843621399176 L 308.79999999999995,523.6192043895747 L 308.79999999999995,523.6192043895747 L 287.81344307270217,516.0362139917695 L 265.82606310013716,510.3626886145404 L 243.49629629629632,506.6117969821673 L 221.48257887517147,504.7967078189299 L 200.44334705075445,504.93058984910823 L 181.03703703703704,507.0266117969821 L 163.92208504801096,511.09794238683116 L 149.756927297668,517.1577503429355 L 139.2,525.2192043895747 L 139.2,525.2192043895747 L 126.68093278463641,540.6639231824416 L 117.86227709190672,558.7028806584361 L 112.65185185185186,578.4932784636486 L 110.95747599451302,599.19231824417 L 112.6869684499314,619.9572016460904 L 117.74814814814812,639.9451303155006 L 126.04883401920436,658.313305898491 L 137.49684499314125,674.2189300411521 L 151.99999999999997,686.8192043895747 L 151.99999999999997,686.8192043895747 L 170.5327846364883,695.6027434842249 L 194.1882030178326,701.7393689986282 L 221.4518518518518,705.3080932784636 L 250.80932784636485,706.38792866941 L 280.74622770919063,705.0578875171467 L 309.7481481481481,701.3969821673525 L 336.3006858710562,695.4842249657063 L 358.88943758573384,687.3986282578875 L 375.99999999999994,677.2192043895747 L 375.99999999999994,677.2192043895747 L 388.85925925925915,654.8696844993141 L 396.7407407407407,616.467489711934 L 400.0,566.5821673525376 L 398.99259259259253,509.78326474622753 L 394.0740740740741,450.64032921810684 L 385.59999999999997,393.72290809327836 L 373.92592592592587,343.6005486968449 L 359.4074074074074,304.8427983539094 L 342.4,282.01920438957467 L 342.4,282.01920438957467 L 327.99122085048,273.95994513031553 L 309.97421124828526,267.91550068587105 L 289.36296296296297,263.88587105624134 L 267.1714677640603,261.87105624142646 L 244.41371742112483,261.87105624142646 L 222.10370370370367,263.88587105624134 L 201.2554183813443,267.91550068587105 L 182.88285322359394,273.9599451303155 L 167.99999999999997,282.01920438957467 L 167.99999999999997,282.01920438957467 L 167.99999999999997,282.01920438957467 L 167.99999999999997,282.01920438957467 L 167.99999999999997,282.01920438957467 L 167.99999999999997,282.01920438957467 L 167.99999999999997,282.01920438957467 L 167.99999999999997,282.01920438957467 L 167.99999999999997,282.01920438957467 L 167.99999999999997,282.01920438957467 L 167.99999999999997,282.01920438957467 L 287.99999999999994,582.8192043895746 L 287.99999999999994,582.8192043895746 L 287.99999999999994,582.8192043895746 L 287.99999999999994,582.8192043895746 L 287.99999999999994,582.8192043895746 L 287.99999999999994,582.8192043895746 L 287.99999999999994,582.8192043895746 L 287.99999999999994,582.8192043895746 L 287.99999999999994,582.8192043895746 L 287.99999999999994,582.8192043895746 L 287.99999999999994,582.8192043895746 L 303.2559670781892,592.4828532235939 L 314.99588477366257,600.395061728395 L 323.3777777777778,606.9377229080932 L 328.559670781893,612.4927297668037 L 330.69958847736626,617.4419753086419 L 329.9555555555555,622.1673525377228 L 326.4855967078189,627.0507544581618 L 320.4477366255144,632.4740740740739 L 311.99999999999994,638.8192043895747 L 311.99999999999994,638.8192043895747 L 298.76323731138535,647.3547325102879 L 284.80219478737996,653.7700960219477 L 270.3407407407408,658.0784636488338 L 255.60274348422493,660.2930041152263 L 240.8120713305898,660.4268861454045 L 226.19259259259252,658.4932784636488 L 211.96817558299043,654.5053497942386 L 198.36268861454042,648.476268861454 L 185.59999999999997,640.4192043895747 L 185.59999999999997,640.4192043895747 L 178.36817558299032,634.8115226337449 L 172.66392318244172,629.5725651577503 L 168.47407407407408,624.4784636488339 L 165.78545953360768,619.3053497942386 L 164.58491083676265,613.829355281207 L 164.85925925925926,607.8266117969821 L 166.59533607681755,601.0732510288065 L 169.77997256515772,593.3454046639232 L 174.39999999999998,584.4192043895747 L 174.39999999999998,584.4192043895747 L 182.2990397805212,571.6170096021948 L 190.3034293552812,562.0016460905348 L 198.8740740740741,555.5599451303154 L 208.47187928669408,552.2787379972564 L 219.55775034293552,552.144855967078 L 232.59259259259252,555.1451303155006 L 248.03731138545953,561.2663923182441 L 266.3528120713305,570.4954732510287 L 287.99999999999994,582.8192043895746 L 287.99999999999994,582.8192043895746 L 287.99999999999994,582.8192043895746 L 287.99999999999994,582.8192043895746 L 287.99999999999994,582.8192043895746 L 287.99999999999994,582.8192043895746 L 287.99999999999994,582.8192043895746 L 287.99999999999994,582.8192043895746 L 287.99999999999994,582.8192043895746 L 287.99999999999994,582.8192043895746 L 287.99999999999994,582.8192043895746 L 174.39999999999998,11.619204389574678 L 159.77832647462273,20.775857338820423 L 147.9747599451303,32.961316872427865 L 139.08148148148146,47.64883401920433 L 133.19067215363512,64.31165980795603 L 130.39451303155005,82.42304526748967 L 130.78518518518516,101.45624142661171 L 134.45486968449927,120.88449931412877 L 141.49574759945128,140.18106995884773 L 151.99999999999997,158.81920438957468 L 151.99999999999997,158.81920438957468 L 163.74430727023315,173.15555555555557 L 178.28038408779148,184.1470507544581 L 194.96296296296296,191.76735253772276 L 213.14677640603566,195.99012345679003 L 232.18655692729772,196.78902606310004 L 251.43703703703696,194.13772290809328 L 270.2529492455418,188.0098765432098 L 287.9890260631001,178.37914951989012 L 303.99999999999994,165.21920438957468 L 303.99999999999994,165.21920438957468 L 311.71028806584354,157.10507544581614 L 317.80082304526746,149.60987654320977 L 322.31111111111113,142.4043895747597 L 325.2806584362139,135.1593964334704 L 326.7489711934156,127.54567901234559 L 326.75555555555553,119.23401920438954 L 325.3399176954732,109.89519890260625 L 322.5415637860081,99.1999999999999 L 318.4,86.81920438957468 L 318.4,86.81920438957468 L 308.2995884773661,63.01234567901238 L 296.26337448559667,42.85322359396423 L 282.4888888888889,26.43401920438937 L 267.1736625514403,13.846913580246746 L 250.5152263374485,5.18408779149513 L 232.7111111111111,0.5377229080932011 L 213.95884773662553,0.0 L 194.45596707818927,3.663100137174206 L 174.39999999999998,11.619204389574678 L 174.39999999999998,11.619204389574678 L 174.39999999999998,11.619204389574678 L 174.39999999999998,11.619204389574678 L 174.39999999999998,11.619204389574678 L 174.39999999999998,11.619204389574678 L 174.39999999999998,11.619204389574678 L 174.39999999999998,11.619204389574678 L 174.39999999999998,11.619204389574678 L 174.39999999999998,11.619204389574678 L 174.39999999999998,11.619204389574678 L 262.4,96.41920438957467 L 262.4,96.41920438957467 L 262.4,96.41920438957467 L 262.4,96.41920438957467 L 262.4,96.41920438957467 L 262.4,96.41920438957467 L 262.4,96.41920438957467 L 262.4,96.41920438957467 L 262.4,96.41920438957467 L 262.4,96.41920438957467 L 262.4,96.41920438957467 L 264.70891632373105,105.07105624142669 L 264.39725651577504,113.72290809327833 L 261.8074074074074,122.01920438957467 L 257.28175582990394,129.6043895747599 L 251.1626886145404,136.1229080932783 L 243.79259259259254,141.21920438957477 L 235.51385459533606,144.53772290809317 L 226.66886145404658,145.72290809327833 L 217.59999999999997,144.41920438957467 L 217.59999999999997,144.41920438957467 L 214.77091906721532,142.83676268861456 L 211.67846364883394,140.29300411522615 L 208.4148148148148,136.89327846364867 L 205.07215363511656,132.7429355281206 L 201.74266117969822,127.94732510288058 L 198.51851851851848,122.61179698216738 L 195.4919067215363,116.84170096021944 L 192.75500685871054,110.74238683127568 L 190.39999999999998,104.41920438957467 L 190.39999999999998,104.41920438957467 L 187.2197530864197,95.20548696844999 L 185.22469135802467,87.71687242798343 L 184.53333333333333,81.78216735253764 L 185.26419753086418,77.23017832647447 L 187.5358024691358,73.88971193415628 L 191.46666666666664,71.58957475994512 L 197.17530864197525,70.15857338820297 L 204.7802469135802,69.42551440329215 L 214.39999999999998,69.21920438957467 L 214.39999999999998,69.21920438957467 L 221.36625514403283,69.67791495198907 L 228.29300411522627,70.99259259259243 L 235.0222222222222,73.0710562414265 L 241.39588477366252,75.82112482853218 L 247.2559670781893,79.15061728395048 L 252.4444444444444,82.96735253772286 L 256.8032921810699,87.17914951989023 L 260.1744855967078,91.69382716049375 L 262.4,96.41920438957467 L 262.4,96.41920438957467 L 262.4,96.41920438957467 L 262.4,96.41920438957467 L 262.4,96.41920438957467 L 262.4,96.41920438957467 L 262.4,96.41920438957467 L 262.4,96.41920438957467 L 262.4,96.41920438957467 L 262.4,96.41920438957467 L 262.4,96.41920438957467"/></svg>
