<?xml version="1.0" encoding="utf-8"?>
<svg xmlns="http://www.w3.org/2000/svg"  viewBox="0,0,400,732.8597959417631" width="100%">
<path d="M167.14433107875732 30.853605410982386 L 167.14433107875732,30.853605410982386 L 154.8127937636134,44.61951163590515 L 145.452711223203,58.968703427719795 L 139.0640834575261,73.59302992089859 L 135.6469104665826,88.18434024991387 L 135.20119225037257,102.43448354923756 L 137.726928808896,116.03530895334174 L 143.22412014215294,128.6786655966983 L 151.69276625014328,140.05640261377954 L 163.13286713286712,149.86036913905758 L 163.13286713286712,149.86036913905758 L 188.75707898658715,163.0925140433337 L 215.69093201880085,169.34724292101328 L 242.5697581107417,169.27387366731617 L 268.02888914364326,163.52172417746172 L 290.70365699873895,152.74011234666963 L 309.22939355726237,137.5783560701594 L 322.24143070044704,118.68577324315027 L 328.37510030952654,96.71168176086205 L 326.26573426573424,72.30539951851419 L 326.26573426573424,72.30539951851419 L 317.6833658145133,49.31330964117855 L 304.95196606672016,30.404218732087426 L 288.87492835033817,15.798234552332717 L 270.2556459933509,5.7154648630057165 L 249.89751232374184,0.3760174251977145 L 228.6039206694944,0.0 L 207.17826435859223,4.807520348503862 L 186.42393671901866,15.018686231800896 L 167.14433107875732,30.853605410982386 L 167.14433107875732,30.853605410982386 L 167.14433107875732,30.853605410982386 L 167.14433107875732,30.853605410982386 L 167.14433107875732,30.853605410982386 L 167.14433107875732,30.853605410982386 L 167.14433107875732,30.853605410982386 L 167.14433107875732,30.853605410982386 L 167.14433107875732,30.853605410982386 L 167.14433107875732,30.853605410982386 L 167.14433107875732,30.853605410982386 L 255.39653788834116,65.6196262753639 L 255.39653788834116,65.6196262753639 L 255.39653788834116,65.6196262753639 L 255.39653788834116,65.6196262753639 L 255.39653788834116,65.6196262753639 L 255.39653788834116,65.6196262753639 L 255.39653788834116,65.6196262753639 L 255.39653788834116,65.6196262753639 L 255.39653788834116,65.6196262753639 L 255.39653788834116,65.6196262753639 L 255.39653788834116,65.6196262753639 L 261.83835836294844,69.05514157973175 L 266.9155107187894,72.30356528717176 L 270.650005731973,75.47495127822982 L 273.06385417860827,78.67935343345172 L 274.17906683480453,82.0268256333829 L 274.0176544766708,85.62742175856926 L 272.60162788031636,89.59119568955629 L 269.95299782185026,94.02820130688986 L 266.0937750773816,99.04849249111537 L 266.0937750773816,99.04849249111537 L 259.4355153043677,105.52699759257135 L 251.3575604723146,110.66284535136984 L 242.32213687951398,114.40100882723824 L 232.79147082425771,116.6864610799036 L 223.2277886048378,117.46417516909312 L 214.09331651954602,116.67912415453395 L 205.85028086667432,114.27628109595318 L 198.96090794451447,110.20061905307799 L 193.88742405135847,104.39711108563561 L 193.88742405135847,104.39711108563561 L 192.44388398486754,101.48985440788731 L 191.64966181359623,98.17539837211953 L 191.46073598532615,94.54178608276952 L 191.833084947839,90.6770606442737 L 192.72268714891666,86.66926516106842 L 194.0855210363407,82.60644273759027 L 195.87756505789292,78.57663647827579 L 198.05479766135502,74.66788948756161 L 200.57319729450876,70.96824486988415 L 200.57319729450876,70.96824486988415 L 206.63533188123347,63.829416485154304 L 211.72899231915625,58.42943941304586 L 216.2723833543506,54.72429210134113 L 220.68370973289007,52.669952997821746 L 225.38117620084833,52.2224005502693 L 230.78298750429897,53.33761320646555 L 237.3073483893156,55.971569414192295 L 245.37246360197182,60.080247621231216 L 255.39653788834116,65.6196262753639 L 255.39653788834116,65.6196262753639 L 255.39653788834116,65.6196262753639 L 255.39653788834116,65.6196262753639 L 255.39653788834116,65.6196262753639 L 255.39653788834116,65.6196262753639 L 255.39653788834116,65.6196262753639 L 255.39653788834116,65.6196262753639 L 255.39653788834116,65.6196262753639 L 255.39653788834116,65.6196262753639 L 255.39653788834116,65.6196262753639"/></svg>
