<?xml version="1.0" encoding="utf-8"?>
<svg xmlns="http://www.w3.org/2000/svg"  viewBox="0,0,400,732.8597959417631" width="100%">
<path d="M167.14433107875732 30.853605410982386 L 167.14433107875732,30.853605410982386 L 154.8127937636134,44.61951163590515 L 145.452711223203,58.968703427719795 L 139.0640834575261,73.59302992089859 L 135.6469104665826,88.18434024991387 L 135.20119225037257,102.43448354923756 L 137.726928808896,116.03530895334174 L 143.22412014215294,128.6786655966983 L 151.69276625014328,140.05640261377954 L 163.13286713286712,149.86036913905758 L 163.13286713286712,149.86036913905758 L 188.75707898658715,163.0925140433337 L 215.69093201880085,169.34724292101328 L 242.5697581107417,169.27387366731617 L 268.02888914364326,163.52172417746172 L 290.70365699873895,152.74011234666963 L 309.22939355726237,137.5783560701594 L 322.24143070044704,118.68577324315027 L 328.37510030952654,96.71168176086205 L 326.26573426573424,72.30539951851419 L 326.26573426573424,72.30539951851419 L 317.6833658145133,49.31330964117855 L 304.95196606672016,30.404218732087426 L 288.87492835033817,15.798234552332717 L 270.2556459933509,5.7154648630057165 L 249.89751232374184,0.3760174251977145 L 228.6039206694944,0.0 L 207.17826435859223,4.807520348503862 L 186.42393671901866,15.018686231800896 L 167.14433107875732,30.853605410982386 L 167.14433107875732,30.853605410982386 L 167.14433107875732,30.853605410982386 L 167.14433107875732,30.853605410982386 L 167.14433107875732,30.853605410982386 L 167.14433107875732,30.853605410982386 L 167.14433107875732,30.853605410982386 L 167.14433107875732,30.853605410982386 L 167.14433107875732,30.853605410982386 L 167.14433107875732,30.853605410982386 L 167.14433107875732,30.853605410982386 L 255.39653788834116,65.6196262753639 L 255.39653788834116,65.6196262753639 L 255.39653788834116,65.6196262753639 L 255.39653788834116,65.6196262753639 L 255.39653788834116,65.6196262753639 L 255.39653788834116,65.6196262753639 L 255.39653788834116,65.6196262753639 L 255.39653788834116,65.6196262753639 L 255.39653788834116,65.6196262753639 L 255.39653788834116,65.6196262753639 L 255.39653788834116,65.6196262753639 L 261.83835836294844,69.05514157973175 L 266.9155107187894,72.30356528717176 L 270.650005731973,75.47495127822982 L 273.06385417860827,78.67935343345172 L 274.17906683480453,82.0268256333829 L 274.0176544766708,85.62742175856926 L 272.60162788031636,89.59119568955629 L 269.95299782185026,94.02820130688986 L 266.0937750773816,99.04849249111537 L 266.0937750773816,99.04849249111537 L 259.4355153043677,105.52699759257135 L 251.3575604723146,110.66284535136984 L 242.32213687951398,114.40100882723824 L 232.79147082425771,116.6864610799036 L 223.2277886048378,117.46417516909312 L 214.09331651954602,116.67912415453395 L 205.85028086667432,114.27628109595318 L 198.96090794451447,110.20061905307799 L 193.88742405135847,104.39711108563561 L 193.88742405135847,104.39711108563561 L 192.44388398486754,101.48985440788731 L 191.64966181359623,98.17539837211953 L 191.46073598532615,94.54178608276952 L 191.833084947839,90.6770606442737 L 192.72268714891666,86.66926516106842 L 194.0855210363407,82.60644273759027 L 195.87756505789292,78.57663647827579 L 198.05479766135502,74.66788948756161 L 200.57319729450876,70.96824486988415 L 200.57319729450876,70.96824486988415 L 206.63533188123347,63.829416485154304 L 211.72899231915625,58.42943941304586 L 216.2723833543506,54.72429210134113 L 220.68370973289007,52.669952997821746 L 225.38117620084833,52.2224005502693 L 230.78298750429897,53.33761320646555 L 237.3073483893156,55.971569414192295 L 245.37246360197182,60.080247621231216 L 255.39653788834116,65.6196262753639 L 255.39653788834116,65.6196262753639 L 255.39653788834116,65.6196262753639 L 255.39653788834116,65.6196262753639 L 255.39653788834116,65.6196262753639 L 255.39653788834116,65.6196262753639 L 255.39653788834116,65.6196262753639 L 255.39653788834116,65.6196262753639 L 255.39653788834116,65.6196262753639 L 255.39653788834116,65.6196262753639 L 255.39653788834116,65.6196262753639M185.86449615957812 247.47265848905187 L 167.14433107875732,30.853605410982386 L 154.8127937636134,44.61951163590515 L 145.452711223203,58.968703427719795 L 139.0640834575261,73.59302992089859 L 135.6469104665826,88.18434024991387 L 135.20119225037257,102.43448354923756 L 137.726928808896,116.03530895334174 L 143.22412014215294,128.6786655966983 L 151.69276625014328,140.05640261377954 L 163.13286713286712,149.86036913905758 L 163.13286713286712,149.86036913905758 L 188.75707898658715,163.0925140433337 L 215.69093201880085,169.34724292101328 L 242.5697581107417,169.27387366731617 L 268.02888914364326,163.52172417746172 L 290.70365699873895,152.74011234666963 L 309.22939355726237,137.5783560701594 L 322.24143070044704,118.68577324315027 L 328.37510030952654,96.71168176086205 L 326.26573426573424,72.30539951851419 L 326.26573426573424,72.30539951851419 L 317.6833658145133,49.31330964117855 L 304.95196606672016,30.404218732087426 L 288.87492835033817,15.798234552332717 L 270.2556459933509,5.7154648630057165 L 249.89751232374184,0.3760174251977145 L 228.6039206694944,0.0 L 207.17826435859223,4.807520348503862 L 186.42393671901866,15.018686231800896 L 167.14433107875732,30.853605410982386 L 167.14433107875732,30.853605410982386 L 167.14433107875732,30.853605410982386 L 167.14433107875732,30.853605410982386 L 167.14433107875732,30.853605410982386 L 167.14433107875732,30.853605410982386 L 167.14433107875732,30.853605410982386 L 167.14433107875732,30.853605410982386 L 167.14433107875732,30.853605410982386 L 167.14433107875732,30.853605410982386 L 167.14433107875732,30.853605410982386 L 255.39653788834116,65.6196262753639 L 255.39653788834116,65.6196262753639 L 255.39653788834116,65.6196262753639 L 255.39653788834116,65.6196262753639 L 255.39653788834116,65.6196262753639 L 255.39653788834116,65.6196262753639 L 255.39653788834116,65.6196262753639 L 255.39653788834116,65.6196262753639 L 255.39653788834116,65.6196262753639 L 255.39653788834116,65.6196262753639 L 255.39653788834116,65.6196262753639 L 261.83835836294844,69.05514157973175 L 266.9155107187894,72.30356528717176 L 270.650005731973,75.47495127822982 L 273.06385417860827,78.67935343345172 L 274.17906683480453,82.0268256333829 L 274.0176544766708,85.62742175856926 L 272.60162788031636,89.59119568955629 L 269.95299782185026,94.02820130688986 L 266.0937750773816,99.04849249111537 L 266.0937750773816,99.04849249111537 L 259.4355153043677,105.52699759257135 L 251.3575604723146,110.66284535136984 L 242.32213687951398,114.40100882723824 L 232.79147082425771,116.6864610799036 L 223.2277886048378,117.46417516909312 L 214.09331651954602,116.67912415453395 L 205.85028086667432,114.27628109595318 L 198.96090794451447,110.20061905307799 L 193.88742405135847,104.39711108563561 L 193.88742405135847,104.39711108563561 L 192.44388398486754,101.48985440788731 L 191.64966181359623,98.17539837211953 L 191.46073598532615,94.54178608276952 L 191.833084947839,90.6770606442737 L 192.72268714891666,86.66926516106842 L 194.0855210363407,82.60644273759027 L 195.87756505789292,78.57663647827579 L 198.05479766135502,74.66788948756161 L 200.57319729450876,70.96824486988415 L 200.57319729450876,70.96824486988415 L 206.63533188123347,63.829416485154304 L 211.72899231915625,58.42943941304586 L 216.2723833543506,54.72429210134113 L 220.68370973289007,52.669952997821746 L 225.38117620084833,52.2224005502693 L 230.78298750429897,53.33761320646555 L 237.3073483893156,55.971569414192295 L 245.37246360197182,60.080247621231216 L 255.39653788834116,65.6196262753639 L 255.39653788834116,65.6196262753639 L 255.39653788834116,65.6196262753639 L 255.39653788834116,65.6196262753639 L 255.39653788834116,65.6196262753639 L 255.39653788834116,65.6196262753639 L 255.39653788834116,65.6196262753639 L 255.39653788834116,65.6196262753639 L 255.39653788834116,65.6196262753639 L 255.39653788834116,65.6196262753639 L 255.39653788834116,65.6196262753639 L 185.86449615957812,247.47265848905187 L 157.06339562077264,286.8114180901067 L 132.45534793075777,334.470251060415 L 112.46956322366161,387.873896595208 L 97.53525163361228,444.44709388971677 L 88.08162329473805,501.61458213917234 L 84.53788834116702,556.8011005388055 L 87.33325690702739,607.4313882838471 L 96.89693912644732,650.9301845695288 L 113.65814513355497,684.7222285910809 L 113.65814513355497,684.7222285910809 L 128.57594864152236,699.6858878826091 L 146.03599679009514,708.2554167144331 L 165.21288547518057,710.7719821162444 L 185.28121059268602,707.5767511177347 L 205.41556803851887,699.0108907485957 L 224.79055370858651,685.4155680385187 L 242.58076349879624,667.1319500171959 L 257.9607933050556,644.5012037143184 L 270.1052390232718,617.864496159578 L 270.1052390232718,617.864496159578 L 271.8881118881119,612.9615957812678 L 273.67098475295194,608.0586954029577 L 275.45385761779204,603.1557950246474 L 277.23673048263214,598.2528946463372 L 279.0196033474722,593.349994268027 L 280.8024762123123,588.4470938897167 L 282.5853490771524,583.5441935114065 L 284.3682219419924,578.6412931330964 L 286.15109480683253,573.7383927547861 L 286.15109480683253,573.7383927547861 L 288.8254041040926,578.0470021781496 L 291.4997134013527,582.3556116015133 L 294.1740226986129,586.6642210248767 L 296.84833199587297,590.9728304482403 L 299.52264129313306,595.2814398716037 L 302.1969505903932,599.5900492949672 L 304.8712598876533,603.8986587183307 L 307.54556918491346,608.2072681416943 L 310.21987848217356,612.5158775650578 L 310.21987848217356,612.5158775650578 L 315.6693798005272,621.2871718445489 L 321.32798349191796,628.9029003783102 L 327.2066949443999,635.3960793305055 L 333.31651954602773,640.7997248652986 L 339.66846268485614,645.146853146853 L 346.2735297489395,648.4704803393328 L 353.14272612633266,650.8036226069012 L 360.28705720509,652.1792961137223 L 367.7175283732661,652.6305170239596 L 367.7175283732661,652.6305170239596 L 379.74274905422436,651.586839390118 L 389.0386334976499,648.6392296228361 L 395.5501547632696,644.0628224234781 L 399.22228591081046,638.1327524934081 L 400.0,631.1241545339906 L 397.82827009056507,623.3121632465894 L 392.65206924223315,614.971913332569 L 384.41637051473117,606.3785394932936 L 373.0661469677863,597.8071764301271 L 373.0661469677863,597.8071764301271 L 366.0557147770262,591.9981657686576 L 360.068783675341,584.8134816003667 L 354.9402728419122,575.5707898658717 L 350.5051014559212,563.5877565057892 L 346.59818869654936,548.1820474607359 L 343.0544537429783,528.6713286713285 L 339.70881577438956,504.3732660781841 L 336.3961939699645,474.60552562191896 L 332.95150750888456,438.6857732431502 L 332.95150750888456,438.6857732431502 L 330.18732087584544,413.2523214490427 L 327.280064198097,388.9414192365011 L 324.28476441591204,366.18227673965373 L 321.2564484695632,345.4041040926286 L 318.2501432993236,327.0361114295539 L 315.32087584546605,311.50750888455804 L 312.5236730482632,299.24750659176885 L 309.9135618479881,290.68531468531467 L 307.54556918491346,286.25014329932355 L 307.54556918491346,286.25014329932355 L 300.30952653903466,280.6135503840422 L 293.7338071764301,278.894875616187 L 287.78539493293596,281.14914593603106 L 282.43127364438845,287.4313882838472 L 277.63842714662394,297.7966295999082 L 273.3738392754786,312.299896824487 L 269.60449386678897,330.9962168978562 L 266.29737475639115,353.9406167602889 L 263.4194657801215,381.18812335205774 L 263.4194657801215,381.18812335205774 L 259.0521609538002,417.2876304023846 L 253.24315029233068,453.6622721540753 L 246.234552332913,489.3986013986013 L 238.26848561274792,523.5831709274331 L 229.58706866903592,555.3025335320416 L 220.43242003897743,583.6432420038976 L 211.046658259773,607.691849134472 L 201.67190186862314,626.5349077152356 L 192.55026940272842,639.258970537659 L 192.55026940272842,639.258970537659 L 182.31342428063732,647.7532958844433 L 173.05605869540298,651.0530780694714 L 164.86621575146168,649.3123925255072 L 157.83193855325,642.6853146853146 L 152.04127020520463,631.3259199816575 L 147.58225381176197,615.3882838473002 L 144.5429324773587,595.0264817150063 L 143.0113493064313,570.3945890175398 L 143.07554740341627,541.6466811876647 L 143.07554740341627,541.6466811876647 L 145.44720852917573,507.4345981886965 L 150.55921128052276,472.2870572050899 L 158.08139401582028,437.1505216095379 L 167.68359509343114,402.9714547747334 L 179.03565287171844,370.6963200733692 L 191.80740570904507,341.27158087813825 L 205.6686919637739,315.64370056173334 L 220.289349994268,294.75914249684735 L 235.33921815889028,279.56437005617323 L 235.33921815889028,279.56437005617323 L 241.01799839504747,274.8338874240514 L 246.39963315373154,269.65218388169194 L 251.38507394245104,264.1623294738048 L 255.8752722687149,258.5073942450991 L 259.77117964003213,252.83044824028417 L 262.97374756391145,247.27456150406968 L 265.3839275478619,241.9828040811647 L 266.9026710993924,237.09824601627875 L 267.4309297260117,232.7639573541212 L 267.4309297260117,232.7639573541212 L 265.8223088387022,223.1434139630861 L 261.2972601169322,216.51633612289345 L 254.30700447093895,212.8056861171614 L 245.30276281095954,211.93442622950806 L 234.73575604723143,213.8255187435514 L 223.05720508999198,218.40192594290946 L 210.71833084947838,225.58661011120023 L 198.170354235928,235.30253353204165 L 185.86449615957812,247.47265848905187 L 185.86449615957812,247.47265848905187 L 185.86449615957812,247.47265848905187 L 185.86449615957812,247.47265848905187 L 185.86449615957812,247.47265848905187 L 185.86449615957812,247.47265848905187 L 185.86449615957812,247.47265848905187 L 185.86449615957812,247.47265848905187 L 185.86449615957812,247.47265848905187 L 185.86449615957812,247.47265848905187 L 185.86449615957812,247.47265848905187"/></svg>
