<?xml version="1.0" encoding="utf-8"?>
<svg xmlns="http://www.w3.org/2000/svg"  viewBox="0,0,400,733.3333333333334" width="100%">
<path d="M52.22222222222222 15.555555555555557 L 52.22222222222222,15.555555555555557 L 50.91449474165522,21.6095107453134 L 51.30772748056698,27.77320530406946 L 53.20987654320987,33.82716049382705 L 56.42889803383631,39.55189757658887 L 60.77274805669867,44.7279378143575 L 66.04938271604938,49.135802469135875 L 72.06675811614082,52.556012802926446 L 78.63283036122542,54.76909007773202 L 85.55555555555556,55.555555555555564 L 85.55555555555556,55.555555555555564 L 88.09937509525986,55.11507392165843 L 90.51516537113245,53.84240207285466 L 92.75720164609054,51.81069958847729 L 94.77975918305137,49.09312604785858 L 96.53711324493217,45.76284103033068 L 97.9835390946502,41.89300411522633 L 99.07331199512268,37.55677488187783 L 99.76070720926687,32.827312909617426 L 100.0,27.777777777777782 L 100.0,27.777777777777782 L 99.78814205151652,21.557689376619592 L 99.128181679622,16.20637098003335 L 97.9835390946502,11.687242798353862 L 96.31763450693492,7.963725041914309 L 94.09388812680993,4.999237921048613 L 91.27572016460907,2.7572016460905817 L 87.82655083066606,1.2010364273738914 L 83.70980033531474,0.2941624752324717 L 78.88888888888889,0.0 L 78.88888888888889,0.0 L 75.15775034293553,0.24081694863614053 L 71.42661179698217,0.9388812680994206 L 67.77777777777779,2.057613168724149 L 64.29355281207133,3.5604328608443816 L 61.05624142661179,5.410760554793417 L 58.148148148148145,7.572016460905439 L 55.65157750342936,10.00762078951387 L 53.64883401920439,12.680993750952643 L 52.22222222222222,15.555555555555557 L 52.22222222222222,15.555555555555557 L 52.22222222222222,15.555555555555557 L 52.22222222222222,15.555555555555557 L 52.22222222222222,15.555555555555557 L 52.22222222222222,15.555555555555557 L 52.22222222222222,15.555555555555557 L 52.22222222222222,15.555555555555557 L 52.22222222222222,15.555555555555557 L 52.22222222222222,15.555555555555557 L 52.22222222222222,15.555555555555557"/></svg>
