<?xml version="1.0" encoding="utf-8"?>
<svg xmlns="http://www.w3.org/2000/svg"  viewBox="0,0,400,733.3333333333334" width="100%">
<path d="M52.22222222222222 15.555555555555557 L 52.22222222222222,15.555555555555557 L 50.91449474165522,21.6095107453134 L 51.30772748056698,27.77320530406946 L 53.20987654320987,33.82716049382705 L 56.42889803383631,39.55189757658887 L 60.77274805669867,44.7279378143575 L 66.04938271604938,49.135802469135875 L 72.06675811614082,52.556012802926446 L 78.63283036122542,54.76909007773202 L 85.55555555555556,55.555555555555564 L 85.55555555555556,55.555555555555564 L 88.09937509525986,55.11507392165843 L 90.51516537113245,53.84240207285466 L 92.75720164609054,51.81069958847729 L 94.77975918305137,49.09312604785858 L 96.53711324493217,45.76284103033068 L 97.9835390946502,41.89300411522633 L 99.07331199512268,37.55677488187783 L 99.76070720926687,32.827312909617426 L 100.0,27.777777777777782 L 100.0,27.777777777777782 L 99.78814205151652,21.557689376619592 L 99.128181679622,16.20637098003335 L 97.9835390946502,11.687242798353862 L 96.31763450693492,7.963725041914309 L 94.09388812680993,4.999237921048613 L 91.27572016460907,2.7572016460905817 L 87.82655083066606,1.2010364273738914 L 83.70980033531474,0.2941624752324717 L 78.88888888888889,0.0 L 78.88888888888889,0.0 L 75.15775034293553,0.24081694863614053 L 71.42661179698217,0.9388812680994206 L 67.77777777777779,2.057613168724149 L 64.29355281207133,3.5604328608443816 L 61.05624142661179,5.410760554793417 L 58.148148148148145,7.572016460905439 L 55.65157750342936,10.00762078951387 L 53.64883401920439,12.680993750952643 L 52.22222222222222,15.555555555555557 L 52.22222222222222,15.555555555555557 L 52.22222222222222,15.555555555555557 L 52.22222222222222,15.555555555555557 L 52.22222222222222,15.555555555555557 L 52.22222222222222,15.555555555555557 L 52.22222222222222,15.555555555555557 L 52.22222222222222,15.555555555555557 L 52.22222222222222,15.555555555555557 L 52.22222222222222,15.555555555555557 L 52.22222222222222,15.555555555555557M143.33333333333334 130.0 L 52.22222222222222,15.555555555555557 L 50.91449474165522,21.6095107453134 L 51.30772748056698,27.77320530406946 L 53.20987654320987,33.82716049382705 L 56.42889803383631,39.55189757658887 L 60.77274805669867,44.7279378143575 L 66.04938271604938,49.135802469135875 L 72.06675811614082,52.556012802926446 L 78.63283036122542,54.76909007773202 L 85.55555555555556,55.555555555555564 L 85.55555555555556,55.555555555555564 L 88.09937509525986,55.11507392165843 L 90.51516537113245,53.84240207285466 L 92.75720164609054,51.81069958847729 L 94.77975918305137,49.09312604785858 L 96.53711324493217,45.76284103033068 L 97.9835390946502,41.89300411522633 L 99.07331199512268,37.55677488187783 L 99.76070720926687,32.827312909617426 L 100.0,27.777777777777782 L 100.0,27.777777777777782 L 99.78814205151652,21.557689376619592 L 99.128181679622,16.20637098003335 L 97.9835390946502,11.687242798353862 L 96.31763450693492,7.963725041914309 L 94.09388812680993,4.999237921048613 L 91.27572016460907,2.7572016460905817 L 87.82655083066606,1.2010364273738914 L 83.70980033531474,0.2941624752324717 L 78.88888888888889,0.0 L 78.88888888888889,0.0 L 75.15775034293553,0.24081694863614053 L 71.42661179698217,0.9388812680994206 L 67.77777777777779,2.057613168724149 L 64.29355281207133,3.5604328608443816 L 61.05624142661179,5.410760554793417 L 58.148148148148145,7.572016460905439 L 55.65157750342936,10.00762078951387 L 53.64883401920439,12.680993750952643 L 52.22222222222222,15.555555555555557 L 52.22222222222222,15.555555555555557 L 52.22222222222222,15.555555555555557 L 52.22222222222222,15.555555555555557 L 52.22222222222222,15.555555555555557 L 52.22222222222222,15.555555555555557 L 52.22222222222222,15.555555555555557 L 52.22222222222222,15.555555555555557 L 52.22222222222222,15.555555555555557 L 52.22222222222222,15.555555555555557 L 52.22222222222222,15.555555555555557 L 143.33333333333334,130.0 L 136.34202103337904,155.20957171162942 L 124.52217649748513,204.68068891937193 L 109.38271604938275,271.3991769547325 L 92.43255601280293,348.350861149215 L 75.1806127114769,428.5215668343241 L 59.1358024691358,504.8971193415638 L 45.807041609510755,570.4633440024386 L 36.70324645633288,618.2060661484529 L 33.333333333333336,641.1111111111112 L 33.333333333333336,641.1111111111112 L 33.61225422953817,643.6549306508156 L 34.41243712848651,646.070720926688 L 35.67901234567901,648.3127572016461 L 37.35711019661637,650.3353147386068 L 39.391860996799274,652.0926688004877 L 41.72839506172839,653.5390946502058 L 44.311842706904436,654.6288675506784 L 47.08733424782807,655.3162627648225 L 50.0,655.5555555555555 L 50.0,655.5555555555555 L 55.38027739673829,654.2661179698217 L 60.53193110806279,650.0137174211249 L 65.63786008230454,642.2222222222223 L 70.88096326779454,630.315500685871 L 76.4441396128639,613.7174211248287 L 82.51028806584361,591.8518518518518 L 89.26230757506475,564.1426611796983 L 96.88309708885839,530.0137174211249 L 105.55555555555556,488.8888888888889 L 105.55555555555556,488.8888888888889 L 114.27221460143268,445.6881572930956 L 121.05014479500076,412.912665752172 L 126.83127572016461,389.13580246913574 L 132.55753696082914,372.9309556470051 L 139.17085810089927,362.87151348879735 L 147.61316872427983,357.53086419753083 L 158.82639841487577,355.4823959762232 L 173.75247675659196,355.29949702789213 L 193.33333333333334,355.5555555555556 L 193.33333333333334,355.5555555555556 L 199.87654320987653,355.5555555555556 L 206.41975308641975,355.5555555555556 L 212.96296296296293,355.5555555555556 L 219.50617283950618,355.5555555555556 L 226.0493827160494,355.5555555555556 L 232.59259259259258,355.5555555555556 L 239.1358024691358,355.5555555555556 L 245.67901234567904,355.5555555555556 L 252.22222222222223,355.5555555555556 L 252.22222222222223,355.5555555555556 L 258.2716049382716,371.60493827160496 L 264.32098765432096,387.6543209876544 L 270.3703703703704,403.7037037037037 L 276.41975308641975,419.75308641975306 L 282.46913580246917,435.80246913580254 L 288.51851851851853,451.8518518518518 L 294.5679012345679,467.90123456790127 L 300.61728395061726,483.95061728395063 L 306.6666666666667,500.0 L 306.6666666666667,500.0 L 319.53360768175577,533.9247065996038 L 330.8367626886145,562.5910684346899 L 340.74074074074076,586.3374485596709 L 349.41015089163244,605.502210028959 L 357.0096021947874,620.4237158969669 L 363.7037037037037,631.440329218107 L 369.65706447187927,638.8904130467917 L 375.034293552812,643.1123304374335 L 380.0,644.4444444444445 L 380.0,644.4444444444445 L 383.6122542295381,644.3255601280293 L 387.0050297210791,643.9871970736168 L 390.1234567901235,643.4567901234568 L 392.9126657521719,642.7617741197988 L 395.31778692272525,641.9295839048925 L 397.28395061728395,640.9876543209878 L 398.75628715134883,639.9634202103339 L 399.6799268404206,638.8843164151806 L 400.0,637.7777777777778 L 400.0,637.7777777777778 L 394.52065233958234,619.3461362597166 L 379.70431336686477,577.2382258802011 L 357.98353909465027,517.9012345679013 L 331.7908855357415,447.78235025148604 L 303.5589087029416,373.32876085962505 L 275.7201646090535,300.9876543209877 L 250.70720926688006,237.20621856424333 L 230.9525986892242,188.43164151806138 L 218.88888888888889,161.11111111111111 L 218.88888888888889,161.11111111111111 L 207.81130925163845,140.36427373875958 L 197.511050144795,124.02530102118577 L 187.94238683127574,112.05761316872427 L 179.05959457399788,104.42463039170852 L 170.81694863587867,101.0897729004724 L 163.16872427983537,102.01646090534976 L 156.06919676878528,107.16811461667426 L 149.47264136564547,116.50815424477969 L 143.33333333333334,130.0 L 143.33333333333334,130.0 L 143.33333333333334,130.0 L 143.33333333333334,130.0 L 143.33333333333334,130.0 L 143.33333333333334,130.0 L 143.33333333333334,130.0 L 143.33333333333334,130.0 L 143.33333333333334,130.0 L 143.33333333333334,130.0 L 143.33333333333334,130.0 L 207.77777777777777,241.11111111111111 L 207.77777777777777,241.11111111111111 L 207.77777777777777,241.11111111111111 L 207.77777777777777,241.11111111111111 L 207.77777777777777,241.11111111111111 L 207.77777777777777,241.11111111111111 L 207.77777777777777,241.11111111111111 L 207.77777777777777,241.11111111111111 L 207.77777777777777,241.11111111111111 L 207.77777777777777,241.11111111111111 L 207.77777777777777,241.11111111111111 L 215.81771071483004,262.32891327541546 L 221.3153482700808,279.57780826093585 L 224.11522633744858,293.2510288065843 L 224.06188081085202,303.74180765127267 L 220.99984758420973,311.44337753391255 L 214.77366255144034,316.7489711934156 L 205.22786160646243,320.0518213686938 L 192.2069806431946,321.7451607986588 L 175.55555555555554,322.22222222222223 L 175.55555555555554,322.22222222222223 L 169.22115531169024,322.0179850632527 L 163.5634811766499,321.4113702179546 L 158.60082304526753,320.4115226337448 L 154.3514708123762,319.02758725803994 L 150.83371437280903,317.26870903825636 L 148.06584362139915,315.1440329218108 L 146.06614845297972,312.6627038561195 L 144.85291876238378,309.8338667885993 L 144.44444444444446,306.6666666666667 L 144.44444444444446,306.6666666666667 L 145.32998018594722,295.2232891327543 L 147.74272214601433,279.64639536656 L 151.31687242798353,261.3991769547325 L 155.68663313519278,241.94482548392014 L 160.48620637098003,222.74653254077126 L 165.34979423868313,205.2674897119342 L 169.91159884164,190.97088858405732 L 173.80582228318855,181.31992074378914 L 176.66666666666666,177.7777777777778 L 176.66666666666666,177.7777777777778 L 178.17253467459224,178.81572930955656 L 180.40085352842559,181.80155464106085 L 183.25102880658434,186.5432098765432 L 186.62246608748666,192.84865112025608 L 190.4145709495504,200.5258344764518 L 194.5267489711934,209.38271604938274 L 198.85840573083368,219.22725194330135 L 203.3089468068892,229.86739826246009 L 207.77777777777777,241.11111111111111 L 207.77777777777777,241.11111111111111 L 207.77777777777777,241.11111111111111 L 207.77777777777777,241.11111111111111 L 207.77777777777777,241.11111111111111 L 207.77777777777777,241.11111111111111 L 207.77777777777777,241.11111111111111 L 207.77777777777777,241.11111111111111 L 207.77777777777777,241.11111111111111 L 207.77777777777777,241.11111111111111 L 207.77777777777777,241.11111111111111M215.55555555555554 16.666666666666668 L 52.22222222222222,15.555555555555557 L 50.91449474165522,21.6095107453134 L 51.30772748056698,27.77320530406946 L 53.20987654320987,33.82716049382705 L 56.42889803383631,39.55189757658887 L 60.77274805669867,44.7279378143575 L 66.04938271604938,49.135802469135875 L 72.06675811614082,52.556012802926446 L 78.63283036122542,54.76909007773202 L 85.55555555555556,55.555555555555564 L 85.55555555555556,55.555555555555564 L 88.09937509525986,55.11507392165843 L 90.51516537113245,53.84240207285466 L 92.75720164609054,51.81069958847729 L 94.77975918305137,49.09312604785858 L 96.53711324493217,45.76284103033068 L 97.9835390946502,41.89300411522633 L 99.07331199512268,37.55677488187783 L 99.76070720926687,32.827312909617426 L 100.0,27.777777777777782 L 100.0,27.777777777777782 L 99.78814205151652,21.557689376619592 L 99.128181679622,16.20637098003335 L 97.9835390946502,11.687242798353862 L 96.31763450693492,7.963725041914309 L 94.09388812680993,4.999237921048613 L 91.27572016460907,2.7572016460905817 L 87.82655083066606,1.2010364273738914 L 83.70980033531474,0.2941624752324717 L 78.88888888888889,0.0 L 78.88888888888889,0.0 L 75.15775034293553,0.24081694863614053 L 71.42661179698217,0.9388812680994206 L 67.77777777777779,2.057613168724149 L 64.29355281207133,3.5604328608443816 L 61.05624142661179,5.410760554793417 L 58.148148148148145,7.572016460905439 L 55.65157750342936,10.00762078951387 L 53.64883401920439,12.680993750952643 L 52.22222222222222,15.555555555555557 L 52.22222222222222,15.555555555555557 L 52.22222222222222,15.555555555555557 L 52.22222222222222,15.555555555555557 L 52.22222222222222,15.555555555555557 L 52.22222222222222,15.555555555555557 L 52.22222222222222,15.555555555555557 L 52.22222222222222,15.555555555555557 L 52.22222222222222,15.555555555555557 L 52.22222222222222,15.555555555555557 L 52.22222222222222,15.555555555555557 L 143.33333333333334,130.0 L 136.34202103337904,155.20957171162942 L 124.52217649748513,204.68068891937193 L 109.38271604938275,271.3991769547325 L 92.43255601280293,348.350861149215 L 75.1806127114769,428.5215668343241 L 59.1358024691358,504.8971193415638 L 45.807041609510755,570.4633440024386 L 36.70324645633288,618.2060661484529 L 33.333333333333336,641.1111111111112 L 33.333333333333336,641.1111111111112 L 33.61225422953817,643.6549306508156 L 34.41243712848651,646.070720926688 L 35.67901234567901,648.3127572016461 L 37.35711019661637,650.3353147386068 L 39.391860996799274,652.0926688004877 L 41.72839506172839,653.5390946502058 L 44.311842706904436,654.6288675506784 L 47.08733424782807,655.3162627648225 L 50.0,655.5555555555555 L 50.0,655.5555555555555 L 55.38027739673829,654.2661179698217 L 60.53193110806279,650.0137174211249 L 65.63786008230454,642.2222222222223 L 70.88096326779454,630.315500685871 L 76.4441396128639,613.7174211248287 L 82.51028806584361,591.8518518518518 L 89.26230757506475,564.1426611796983 L 96.88309708885839,530.0137174211249 L 105.55555555555556,488.8888888888889 L 105.55555555555556,488.8888888888889 L 114.27221460143268,445.6881572930956 L 121.05014479500076,412.912665752172 L 126.83127572016461,389.13580246913574 L 132.55753696082914,372.9309556470051 L 139.17085810089927,362.87151348879735 L 147.61316872427983,357.53086419753083 L 158.82639841487577,355.4823959762232 L 173.75247675659196,355.29949702789213 L 193.33333333333334,355.5555555555556 L 193.33333333333334,355.5555555555556 L 199.87654320987653,355.5555555555556 L 206.41975308641975,355.5555555555556 L 212.96296296296293,355.5555555555556 L 219.50617283950618,355.5555555555556 L 226.0493827160494,355.5555555555556 L 232.59259259259258,355.5555555555556 L 239.1358024691358,355.5555555555556 L 245.67901234567904,355.5555555555556 L 252.22222222222223,355.5555555555556 L 252.22222222222223,355.5555555555556 L 258.2716049382716,371.60493827160496 L 264.32098765432096,387.6543209876544 L 270.3703703703704,403.7037037037037 L 276.41975308641975,419.75308641975306 L 282.46913580246917,435.80246913580254 L 288.51851851851853,451.8518518518518 L 294.5679012345679,467.90123456790127 L 300.61728395061726,483.95061728395063 L 306.6666666666667,500.0 L 306.6666666666667,500.0 L 319.53360768175577,533.9247065996038 L 330.8367626886145,562.5910684346899 L 340.74074074074076,586.3374485596709 L 349.41015089163244,605.502210028959 L 357.0096021947874,620.4237158969669 L 363.7037037037037,631.440329218107 L 369.65706447187927,638.8904130467917 L 375.034293552812,643.1123304374335 L 380.0,644.4444444444445 L 380.0,644.4444444444445 L 383.6122542295381,644.3255601280293 L 387.0050297210791,643.9871970736168 L 390.1234567901235,643.4567901234568 L 392.9126657521719,642.7617741197988 L 395.31778692272525,641.9295839048925 L 397.28395061728395,640.9876543209878 L 398.75628715134883,639.9634202103339 L 399.6799268404206,638.8843164151806 L 400.0,637.7777777777778 L 400.0,637.7777777777778 L 394.52065233958234,619.3461362597166 L 379.70431336686477,577.2382258802011 L 357.98353909465027,517.9012345679013 L 331.7908855357415,447.78235025148604 L 303.5589087029416,373.32876085962505 L 275.7201646090535,300.9876543209877 L 250.70720926688006,237.20621856424333 L 230.9525986892242,188.43164151806138 L 218.88888888888889,161.11111111111111 L 218.88888888888889,161.11111111111111 L 207.81130925163845,140.36427373875958 L 197.511050144795,124.02530102118577 L 187.94238683127574,112.05761316872427 L 179.05959457399788,104.42463039170852 L 170.81694863587867,101.0897729004724 L 163.16872427983537,102.01646090534976 L 156.06919676878528,107.16811461667426 L 149.47264136564547,116.50815424477969 L 143.33333333333334,130.0 L 143.33333333333334,130.0 L 143.33333333333334,130.0 L 143.33333333333334,130.0 L 143.33333333333334,130.0 L 143.33333333333334,130.0 L 143.33333333333334,130.0 L 143.33333333333334,130.0 L 143.33333333333334,130.0 L 143.33333333333334,130.0 L 143.33333333333334,130.0 L 207.77777777777777,241.11111111111111 L 207.77777777777777,241.11111111111111 L 207.77777777777777,241.11111111111111 L 207.77777777777777,241.11111111111111 L 207.77777777777777,241.11111111111111 L 207.77777777777777,241.11111111111111 L 207.77777777777777,241.11111111111111 L 207.77777777777777,241.11111111111111 L 207.77777777777777,241.11111111111111 L 207.77777777777777,241.11111111111111 L 207.77777777777777,241.11111111111111 L 215.81771071483004,262.32891327541546 L 221.3153482700808,279.57780826093585 L 224.11522633744858,293.2510288065843 L 224.06188081085202,303.74180765127267 L 220.99984758420973,311.44337753391255 L 214.77366255144034,316.7489711934156 L 205.22786160646243,320.0518213686938 L 192.2069806431946,321.7451607986588 L 175.55555555555554,322.22222222222223 L 175.55555555555554,322.22222222222223 L 169.22115531169024,322.0179850632527 L 163.5634811766499,321.4113702179546 L 158.60082304526753,320.4115226337448 L 154.3514708123762,319.02758725803994 L 150.83371437280903,317.26870903825636 L 148.06584362139915,315.1440329218108 L 146.06614845297972,312.6627038561195 L 144.85291876238378,309.8338667885993 L 144.44444444444446,306.6666666666667 L 144.44444444444446,306.6666666666667 L 145.32998018594722,295.2232891327543 L 147.74272214601433,279.64639536656 L 151.31687242798353,261.3991769547325 L 155.68663313519278,241.94482548392014 L 160.48620637098003,222.74653254077126 L 165.34979423868313,205.2674897119342 L 169.91159884164,190.97088858405732 L 173.80582228318855,181.31992074378914 L 176.66666666666666,177.7777777777778 L 176.66666666666666,177.7777777777778 L 178.17253467459224,178.81572930955656 L 180.40085352842559,181.80155464106085 L 183.25102880658434,186.5432098765432 L 186.62246608748666,192.84865112025608 L 190.4145709495504,200.5258344764518 L 194.5267489711934,209.38271604938274 L 198.85840573083368,219.22725194330135 L 203.3089468068892,229.86739826246009 L 207.77777777777777,241.11111111111111 L 207.77777777777777,241.11111111111111 L 207.77777777777777,241.11111111111111 L 207.77777777777777,241.11111111111111 L 207.77777777777777,241.11111111111111 L 207.77777777777777,241.11111111111111 L 207.77777777777777,241.11111111111111 L 207.77777777777777,241.11111111111111 L 207.77777777777777,241.11111111111111 L 207.77777777777777,241.11111111111111 L 207.77777777777777,241.11111111111111 L 215.55555555555554,16.666666666666668 L 213.70370370370364,23.586343545191287 L 213.90946502057616,30.13107757963717 L 215.92592592592595,36.09053497942379 L 219.5061728395062,41.25438195397048 L 224.40329218106996,45.41228471269619 L 230.37037037037035,48.353909465020664 L 237.16049382716045,49.86892242036271 L 244.52674897119343,49.746989788142045 L 252.22222222222223,47.77777777777778 L 252.22222222222223,47.77777777777778 L 258.2060661484529,44.31336686480728 L 262.15058680079255,39.40405426002131 L 264.1563786008231,33.49794238683128 L 264.3240359701265,27.043133668648178 L 262.754153330285,20.487730528882874 L 259.5473251028807,14.279835390946625 L 254.80414570949551,8.867550678250305 L 248.62520957171165,4.698978814205172 L 241.11111111111111,2.2222222222222223 L 241.11111111111111,2.2222222222222223 L 237.71071483005633,1.8030787989638004 L 234.23715896966928,1.9966468526138215 L 230.78189300411526,2.7572016460903295 L 227.43636640755983,4.03901844231061 L 224.29202865416858,5.796372504191317 L 221.44032921810702,7.983539094650244 L 218.97271757354065,10.55479347660417 L 216.98064319463495,13.464410912970633 L 215.55555555555554,16.666666666666668 L 215.55555555555554,16.666666666666668 L 215.55555555555554,16.666666666666668 L 215.55555555555554,16.666666666666668 L 215.55555555555554,16.666666666666668 L 215.55555555555554,16.666666666666668 L 215.55555555555554,16.666666666666668 L 215.55555555555554,16.666666666666668 L 215.55555555555554,16.666666666666668 L 215.55555555555554,16.666666666666668 L 215.55555555555554,16.666666666666668"/></svg>
