<?xml version="1.0" encoding="utf-8"?>
<svg xmlns="http://www.w3.org/2000/svg"  viewBox="0,0,400,579.785276433151" width="100%">
<path d="M316.1429458854418 128.64074825068266 L 316.1429458854418,128.64074825068266 L 313.08149415722175,135.67083533562274 L 310.19585320971896,142.98221966971005 L 307.5352500615339,150.41315533468506 L 305.1489117312675,157.80189641228793 L 303.08606523752053,164.98669698425905 L 301.3959375988937,171.80581113233865 L 300.1277558339878,178.09749293826695 L 299.33074696140375,183.69999648378436 L 299.05413799974224,188.45157585063114 L 299.05413799974224,188.45157585063114 L 298.526705657591,199.923815328356 L 296.8600194563931,211.1780494379915 L 293.9274956340324,222.50260785991395 L 289.60255042839236,234.18582027449924 L 283.7586000773568,246.51601636212334 L 276.2690608188094,259.78152580316225 L 267.00734889063403,274.27067827799203 L 255.84688053071423,290.2718034669886 L 242.6610719769337,308.073231050528 L 242.6610719769337,308.073231050528 L 231.30721175822507,322.625675406416 L 221.9575944396912,334.04868786553993 L 214.08478767918058,342.69388998933414 L 207.1613591345422,348.9129033392328 L 200.6598764636248,353.05734947666997 L 194.05290732427721,355.4788499630798 L 186.8130193743481,356.5290263598964 L 178.41278027168633,356.55950022855404 L 168.32475767414064,355.92189313048675 L 168.32475767414064,355.92189313048675 L 156.5337146473822,355.8152345901852 L 146.402325390593,357.03067312087575 L 138.1978222904629,359.30800876709765 L 132.18743773368186,362.38704157338935 L 128.6384041069399,366.00757158428956 L 127.81795379692686,369.9093988443372 L 129.9933191903328,373.8323233980708 L 135.4317326738476,377.5161452900292 L 144.40042663416125,380.70066456475115 L 144.40042663416125,380.70066456475115 L 147.7162179584852,381.6441824212661 L 150.79993905226277,382.7424137648121 L 153.6093953281216,383.96019643924564 L 156.1023921986897,385.2623682884235 L 158.23673507659495,386.6137671562021 L 159.97022937446528,387.9792308864381 L 161.26068050492862,389.3235973229879 L 162.0658938806128,390.61170430970833 L 162.3436749141458,391.8083896904559 L 162.3436749141458,391.8083896904559 L 160.60549232878964,396.088796164981 L 155.6534886719254,402.4437698519674 L 147.88148009235934,410.54278648366716 L 137.6832827388976,420.0553217923324 L 125.45271276034651,430.6508515102147 L 111.58358630551231,441.99885136956607 L 96.4697195232012,453.76879710263836 L 80.50492856221948,465.63016444168363 L 64.08302957137334,477.25242911895367 L 64.08302957137334,477.25242911895367 L 55.15184191094599,483.46323796575206 L 47.69746480854208,489.02706313951177 L 41.67770367678948,493.9931316588334 L 37.0503639283161,498.4106705423178 L 33.773250975749846,502.32890680856553 L 31.80417023171862,505.7970674761777 L 31.100927108850325,508.8643795637549 L 31.62132701977286,511.58007008989796 L 33.32317537711413,513.9933660732077 L 33.32317537711413,513.9933660732077 L 39.28667705903727,517.3290826193463 L 47.42319999062344,517.7041456182094 L 57.627257703442396,515.1959118133125 L 69.7933637290639,509.881737948171 L 83.81603159905768,501.8389807663007 L 99.58977484499353,491.14499701121684 L 117.00910699844117,477.877143426435 L 135.9685415909704,462.1127767554708 L 156.36259215415095,443.9292537418395 L 156.36259215415095,443.9292537418395 L 173.76199908578397,428.2551366049767 L 189.6072387158781,415.37289466590096 L 204.0530245314644,405.22626847478296 L 217.25407001957367,397.75899858179304 L 229.3650886672372,392.91482553710205 L 240.54079396148575,390.63748989088015 L 250.93589938935062,390.8707321932981 L 260.70511843786267,393.55829299452654 L 270.003164594053,398.64391284473567 L 270.003164594053,398.64391284473567 L 271.79877870111,400.8544403942851 L 273.73504143274073,405.0621784127803 L 275.76272577034433,411.0491215321324 L 277.83260469532,418.5972643842521 L 279.895451189067,427.4886016010502 L 281.9020382329845,437.50512781443774 L 283.80313880847183,448.4288376563251 L 285.54952589692806,460.04172575862356 L 287.09197247975254,472.1257867532438 L 287.09197247975254,472.1257867532438 L 288.86180100563774,485.75463847443143 L 290.74414843118194,498.117652574456 L 292.7249498939276,509.1515371722595 L 294.7901405314175,518.7930003867838 L 296.92565548119416,526.9787503369707 L 299.11742988080033,533.6454951417622 L 301.35139886777864,538.7299429200999 L 303.6134975796717,542.168801790926 L 305.88966115402206,543.8987798731819 L 305.88966115402206,543.8987798731819 L 308.51861836167797,544.0534933602129 L 310.71859726438436,542.6681044081624 L 312.5036627245984,539.5316400801698 L 313.8878796047774,534.4331274393747 L 314.885312767379,527.1615935489166 L 315.5100270748604,517.5060654719348 L 315.7760873896788,505.2555702715692 L 315.6975585742919,490.19913501095897 L 315.28850549115685,472.1257867532438 L 315.28850549115685,472.1257867532438 L 314.85601097059276,452.4115378755027 L 314.7399758553195,436.3119586493044 L 315.0036920263952,423.4543302195291 L 315.7104513648779,413.46593373105645 L 316.92354575182566,405.9740503287662 L 318.70626706829677,400.6059611575382 L 321.1219071953493,396.9889473622523 L 324.2337580140415,394.75029008778824 L 328.1051114054315,393.5172704790258 L 328.1051114054315,393.5172704790258 L 333.1977636868693,391.6794617845967 L 337.07380536574516,388.68833436866356 L 339.71917157960144,384.90957465511786 L 341.1197974659807,380.7088690678513 L 341.2616181624258,376.45190403075526 L 340.1305688064793,372.50436596772124 L 337.71258453568385,369.2319413026407 L 333.993600487582,367.0003164594053 L 328.95955179971645,366.17517786190655 L 328.95955179971645,366.17517786190655 L 322.1134799985935,362.8300847407964 L 317.48262403450593,353.4652304879335 L 315.0036920263952,339.0862527690198 L 314.6133920932033,320.6987892497568 L 316.2484323538721,299.30847759584617 L 319.84552092734333,275.92095547298965 L 325.34136593255914,251.54186054688873 L 332.67267548846104,227.17683048324525 L 341.77615771399115,203.83150294776073 L 341.77615771399115,203.83150294776073 L 351.01442820473756,181.3441320221757 L 358.21329363916607,161.2126255581992 L 363.3586891548191,143.5143402993471 L 366.43654988923936,128.3266329891348 L 367.4328109799694,115.72686037107789 L 366.333407564552,105.79237918869187 L 363.1242747805296,98.60054618549204 L 357.7913477654451,94.22871810499421 L 350.32056165684094,92.7542516907136 L 350.32056165684094,92.7542516907136 L 346.1386092195175,93.16916513320606 L 342.1184027004537,94.42797032314019 L 338.2318123747349,96.5517645542024 L 334.4507085174464,99.56164512007871 L 330.7469614036734,103.47870931445505 L 327.09244130850107,108.3240544310176 L 323.459018507015,114.11877776345244 L 319.81856327430006,120.8839766054454 L 316.1429458854418,128.64074825068266 L 316.1429458854418,128.64074825068266 L 316.1429458854418,128.64074825068266 L 316.1429458854418,128.64074825068266 L 316.1429458854418,128.64074825068266 L 316.1429458854418,128.64074825068266 L 316.1429458854418,128.64074825068266 L 316.1429458854418,128.64074825068266 L 316.1429458854418,128.64074825068266 L 316.1429458854418,128.64074825068266 L 316.1429458854418,128.64074825068266 L 283.67421090261263,336.2697640619323 L 283.67421090261263,336.2697640619323 L 283.67421090261263,336.2697640619323 L 283.67421090261263,336.2697640619323 L 283.67421090261263,336.2697640619323 L 283.67421090261263,336.2697640619323 L 283.67421090261263,336.2697640619323 L 283.67421090261263,336.2697640619323 L 283.67421090261263,336.2697640619323 L 283.67421090261263,336.2697640619323 L 283.67421090261263,336.2697640619323 L 282.51503182175134,343.8214231296664 L 281.23630141000257,350.0369202639506 L 279.71846833647857,355.0358067956727 L 277.84198127029157,358.9376340557203 L 275.4872888805542,361.861953374981 L 272.53483983637886,363.9283160843423 L 268.8650828068778,365.256273514692 L 264.35846646116346,365.96537699691754 L 258.8954394683483,366.17517786190655 L 258.8954394683483,366.17517786190655 L 254.4321897818775,366.04742202791886 L 250.7214102368758,365.6594662384698 L 247.75606840211452,365.00427806233074 L 245.52913184636492,364.07482506827324 L 244.03356813839832,362.8640748250683 L 243.26234484698608,361.36499490148736 L 243.20842954089952,359.5705528663018 L 243.86478978890995,357.47371628828284 L 245.22439315978863,355.0674527362018 L 245.22439315978863,355.0674527362018 L 256.61341553464064,337.71375660755524 L 265.8294166598297,324.34041655434316 L 273.04117488484405,314.8771082642788 L 278.41746855917216,309.2535074250753 L 282.1270760323024,307.3992897244459 L 284.33877565372313,309.2441308501037 L 285.2213457729229,314.717706489762 L 284.9435647393899,323.74969233113376 L 283.67421090261263,336.2697640619323 L 283.67421090261263,336.2697640619323 L 283.67421090261263,336.2697640619323 L 283.67421090261263,336.2697640619323 L 283.67421090261263,336.2697640619323 L 283.67421090261263,336.2697640619323 L 283.67421090261263,336.2697640619323 L 283.67421090261263,336.2697640619323 L 283.67421090261263,336.2697640619323 L 283.67421090261263,336.2697640619323 L 283.67421090261263,336.2697640619323M338.35839613685124 11.582414233640703 L 316.1429458854418,128.64074825068266 L 313.08149415722175,135.67083533562274 L 310.19585320971896,142.98221966971005 L 307.5352500615339,150.41315533468506 L 305.1489117312675,157.80189641228793 L 303.08606523752053,164.98669698425905 L 301.3959375988937,171.80581113233865 L 300.1277558339878,178.09749293826695 L 299.33074696140375,183.69999648378436 L 299.05413799974224,188.45157585063114 L 299.05413799974224,188.45157585063114 L 298.526705657591,199.923815328356 L 296.8600194563931,211.1780494379915 L 293.9274956340324,222.50260785991395 L 289.60255042839236,234.18582027449924 L 283.7586000773568,246.51601636212334 L 276.2690608188094,259.78152580316225 L 267.00734889063403,274.27067827799203 L 255.84688053071423,290.2718034669886 L 242.6610719769337,308.073231050528 L 242.6610719769337,308.073231050528 L 231.30721175822507,322.625675406416 L 221.9575944396912,334.04868786553993 L 214.08478767918058,342.69388998933414 L 207.1613591345422,348.9129033392328 L 200.6598764636248,353.05734947666997 L 194.05290732427721,355.4788499630798 L 186.8130193743481,356.5290263598964 L 178.41278027168633,356.55950022855404 L 168.32475767414064,355.92189313048675 L 168.32475767414064,355.92189313048675 L 156.5337146473822,355.8152345901852 L 146.402325390593,357.03067312087575 L 138.1978222904629,359.30800876709765 L 132.18743773368186,362.38704157338935 L 128.6384041069399,366.00757158428956 L 127.81795379692686,369.9093988443372 L 129.9933191903328,373.8323233980708 L 135.4317326738476,377.5161452900292 L 144.40042663416125,380.70066456475115 L 144.40042663416125,380.70066456475115 L 147.7162179584852,381.6441824212661 L 150.79993905226277,382.7424137648121 L 153.6093953281216,383.96019643924564 L 156.1023921986897,385.2623682884235 L 158.23673507659495,386.6137671562021 L 159.97022937446528,387.9792308864381 L 161.26068050492862,389.3235973229879 L 162.0658938806128,390.61170430970833 L 162.3436749141458,391.8083896904559 L 162.3436749141458,391.8083896904559 L 160.60549232878964,396.088796164981 L 155.6534886719254,402.4437698519674 L 147.88148009235934,410.54278648366716 L 137.6832827388976,420.0553217923324 L 125.45271276034651,430.6508515102147 L 111.58358630551231,441.99885136956607 L 96.4697195232012,453.76879710263836 L 80.50492856221948,465.63016444168363 L 64.08302957137334,477.25242911895367 L 64.08302957137334,477.25242911895367 L 55.15184191094599,483.46323796575206 L 47.69746480854208,489.02706313951177 L 41.67770367678948,493.9931316588334 L 37.0503639283161,498.4106705423178 L 33.773250975749846,502.32890680856553 L 31.80417023171862,505.7970674761777 L 31.100927108850325,508.8643795637549 L 31.62132701977286,511.58007008989796 L 33.32317537711413,513.9933660732077 L 33.32317537711413,513.9933660732077 L 39.28667705903727,517.3290826193463 L 47.42319999062344,517.7041456182094 L 57.627257703442396,515.1959118133125 L 69.7933637290639,509.881737948171 L 83.81603159905768,501.8389807663007 L 99.58977484499353,491.14499701121684 L 117.00910699844117,477.877143426435 L 135.9685415909704,462.1127767554708 L 156.36259215415095,443.9292537418395 L 156.36259215415095,443.9292537418395 L 173.76199908578397,428.2551366049767 L 189.6072387158781,415.37289466590096 L 204.0530245314644,405.22626847478296 L 217.25407001957367,397.75899858179304 L 229.3650886672372,392.91482553710205 L 240.54079396148575,390.63748989088015 L 250.93589938935062,390.8707321932981 L 260.70511843786267,393.55829299452654 L 270.003164594053,398.64391284473567 L 270.003164594053,398.64391284473567 L 271.79877870111,400.8544403942851 L 273.73504143274073,405.0621784127803 L 275.76272577034433,411.0491215321324 L 277.83260469532,418.5972643842521 L 279.895451189067,427.4886016010502 L 281.9020382329845,437.50512781443774 L 283.80313880847183,448.4288376563251 L 285.54952589692806,460.04172575862356 L 287.09197247975254,472.1257867532438 L 287.09197247975254,472.1257867532438 L 288.86180100563774,485.75463847443143 L 290.74414843118194,498.117652574456 L 292.7249498939276,509.1515371722595 L 294.7901405314175,518.7930003867838 L 296.92565548119416,526.9787503369707 L 299.11742988080033,533.6454951417622 L 301.35139886777864,538.7299429200999 L 303.6134975796717,542.168801790926 L 305.88966115402206,543.8987798731819 L 305.88966115402206,543.8987798731819 L 308.51861836167797,544.0534933602129 L 310.71859726438436,542.6681044081624 L 312.5036627245984,539.5316400801698 L 313.8878796047774,534.4331274393747 L 314.885312767379,527.1615935489166 L 315.5100270748604,517.5060654719348 L 315.7760873896788,505.2555702715692 L 315.6975585742919,490.19913501095897 L 315.28850549115685,472.1257867532438 L 315.28850549115685,472.1257867532438 L 314.85601097059276,452.4115378755027 L 314.7399758553195,436.3119586493044 L 315.0036920263952,423.4543302195291 L 315.7104513648779,413.46593373105645 L 316.92354575182566,405.9740503287662 L 318.70626706829677,400.6059611575382 L 321.1219071953493,396.9889473622523 L 324.2337580140415,394.75029008778824 L 328.1051114054315,393.5172704790258 L 328.1051114054315,393.5172704790258 L 333.1977636868693,391.6794617845967 L 337.07380536574516,388.68833436866356 L 339.71917157960144,384.90957465511786 L 341.1197974659807,380.7088690678513 L 341.2616181624258,376.45190403075526 L 340.1305688064793,372.50436596772124 L 337.71258453568385,369.2319413026407 L 333.993600487582,367.0003164594053 L 328.95955179971645,366.17517786190655 L 328.95955179971645,366.17517786190655 L 322.1134799985935,362.8300847407964 L 317.48262403450593,353.4652304879335 L 315.0036920263952,339.0862527690198 L 314.6133920932033,320.6987892497568 L 316.2484323538721,299.30847759584617 L 319.84552092734333,275.92095547298965 L 325.34136593255914,251.54186054688873 L 332.67267548846104,227.17683048324525 L 341.77615771399115,203.83150294776073 L 341.77615771399115,203.83150294776073 L 351.01442820473756,181.3441320221757 L 358.21329363916607,161.2126255581992 L 363.3586891548191,143.5143402993471 L 366.43654988923936,128.3266329891348 L 367.4328109799694,115.72686037107789 L 366.333407564552,105.79237918869187 L 363.1242747805296,98.60054618549204 L 357.7913477654451,94.22871810499421 L 350.32056165684094,92.7542516907136 L 350.32056165684094,92.7542516907136 L 346.1386092195175,93.16916513320606 L 342.1184027004537,94.42797032314019 L 338.2318123747349,96.5517645542024 L 334.4507085174464,99.56164512007871 L 330.7469614036734,103.47870931445505 L 327.09244130850107,108.3240544310176 L 323.459018507015,114.11877776345244 L 319.81856327430006,120.8839766054454 L 316.1429458854418,128.64074825068266 L 316.1429458854418,128.64074825068266 L 316.1429458854418,128.64074825068266 L 316.1429458854418,128.64074825068266 L 316.1429458854418,128.64074825068266 L 316.1429458854418,128.64074825068266 L 316.1429458854418,128.64074825068266 L 316.1429458854418,128.64074825068266 L 316.1429458854418,128.64074825068266 L 316.1429458854418,128.64074825068266 L 316.1429458854418,128.64074825068266 L 283.67421090261263,336.2697640619323 L 283.67421090261263,336.2697640619323 L 283.67421090261263,336.2697640619323 L 283.67421090261263,336.2697640619323 L 283.67421090261263,336.2697640619323 L 283.67421090261263,336.2697640619323 L 283.67421090261263,336.2697640619323 L 283.67421090261263,336.2697640619323 L 283.67421090261263,336.2697640619323 L 283.67421090261263,336.2697640619323 L 283.67421090261263,336.2697640619323 L 282.51503182175134,343.8214231296664 L 281.23630141000257,350.0369202639506 L 279.71846833647857,355.0358067956727 L 277.84198127029157,358.9376340557203 L 275.4872888805542,361.861953374981 L 272.53483983637886,363.9283160843423 L 268.8650828068778,365.256273514692 L 264.35846646116346,365.96537699691754 L 258.8954394683483,366.17517786190655 L 258.8954394683483,366.17517786190655 L 254.4321897818775,366.04742202791886 L 250.7214102368758,365.6594662384698 L 247.75606840211452,365.00427806233074 L 245.52913184636492,364.07482506827324 L 244.03356813839832,362.8640748250683 L 243.26234484698608,361.36499490148736 L 243.20842954089952,359.5705528663018 L 243.86478978890995,357.47371628828284 L 245.22439315978863,355.0674527362018 L 245.22439315978863,355.0674527362018 L 256.61341553464064,337.71375660755524 L 265.8294166598297,324.34041655434316 L 273.04117488484405,314.8771082642788 L 278.41746855917216,309.2535074250753 L 282.1270760323024,307.3992897244459 L 284.33877565372313,309.2441308501037 L 285.2213457729229,314.717706489762 L 284.9435647393899,323.74969233113376 L 283.67421090261263,336.2697640619323 L 283.67421090261263,336.2697640619323 L 283.67421090261263,336.2697640619323 L 283.67421090261263,336.2697640619323 L 283.67421090261263,336.2697640619323 L 283.67421090261263,336.2697640619323 L 283.67421090261263,336.2697640619323 L 283.67421090261263,336.2697640619323 L 283.67421090261263,336.2697640619323 L 283.67421090261263,336.2697640619323 L 283.67421090261263,336.2697640619323 L 338.35839613685124,11.582414233640703 L 333.07352406849594,17.9643455736706 L 329.18107338341997,24.536152556874704 L 326.6810440816232,31.234543302195195 L 325.57343616310567,37.99622592857389 L 325.8582496278673,44.75790855495248 L 327.5354844759082,51.456299300273066 L 330.60514070722826,58.02810628347717 L 335.06721832182757,64.41003762350707 L 340.92171731970615,70.53880143930418 L 340.92171731970615,70.53880143930418 L 348.5108826873264,76.05574373820608 L 356.3180534230361,79.54734584324702 L 364.1181917275169,81.07689963548552 L 371.68625980145123,80.70769699597976 L 378.79721984552106,78.50302980578763 L 385.2260340604087,74.52618994596747 L 390.74766464679624,68.84046929757726 L 395.13707380536584,61.50915974167528 L 398.16922373679967,52.595553159319635 L 398.16922373679967,52.595553159319635 L 400.0,39.20580409990731 L 398.4481768422041,27.187379130088082 L 394.05525146802023,16.89893224252487 L 387.3627210820569,8.6991174298807 L 378.91208288892284,2.946588684818006 L 369.24483409322676,0.0 L 358.902471899577,0.21800536808902102 L 348.42649351258234,3.959258781748476 L 338.35839613685124,11.582414233640703 L 338.35839613685124,11.582414233640703 L 338.35839613685124,11.582414233640703 L 338.35839613685124,11.582414233640703 L 338.35839613685124,11.582414233640703 L 338.35839613685124,11.582414233640703 L 338.35839613685124,11.582414233640703 L 338.35839613685124,11.582414233640703 L 338.35839613685124,11.582414233640703 L 338.35839613685124,11.582414233640703 L 338.35839613685124,11.582414233640703 L 364.84604835968554,47.46891079360977 L 364.84604835968554,47.46891079360977 L 364.84604835968554,47.46891079360977 L 364.84604835968554,47.46891079360977 L 364.84604835968554,47.46891079360977 L 364.84604835968554,47.46891079360977 L 364.84604835968554,47.46891079360977 L 364.84604835968554,47.46891079360977 L 364.84604835968554,47.46891079360977 L 364.84604835968554,47.46891079360977 L 364.84604835968554,47.46891079360977 L 363.7407845849108,48.13581968846337 L 362.7128775536517,48.437042159425104 L 361.77639212836544,48.38664306895276 L 360.94539317150935,47.99868727950385 L 360.233945545541,47.2872396535354 L 359.65611411291746,46.266365053505005 L 359.22596373609645,44.95012834186989 L 358.957559277535,43.352594381087364 L 358.8649655996907,41.48782803361493 L 358.8649655996907,41.48782803361493 L 358.9575592775349,39.62306168614259 L 359.22596373609645,38.025527725360064 L 359.65611411291763,36.70929101372486 L 360.233945545541,35.68841641369436 L 360.94539317150935,34.976968787726015 L 361.7763921283654,34.589012998276914 L 362.7128775536517,34.53861390780476 L 363.74078458491084,34.839836378766684 L 364.84604835968554,35.50674527362008 L 364.84604835968554,35.50674527362008 L 365.6055509323832,36.70460272623921 L 366.17517786190666,38.00091421605972 L 366.55492914825555,39.36755001816708 L 366.74480479143,40.77638040764648 L 366.74480479143,42.19927565958328 L 366.5549291482555,43.608106049062876 L 366.1751778619066,44.974741851170236 L 365.60555093238327,46.27105334099084 L 364.84604835968554,47.46891079360977 L 364.84604835968554,47.46891079360977 L 364.84604835968554,47.46891079360977 L 364.84604835968554,47.46891079360977 L 364.84604835968554,47.46891079360977 L 364.84604835968554,47.46891079360977 L 364.84604835968554,47.46891079360977 L 364.84604835968554,47.46891079360977 L 364.84604835968554,47.46891079360977 L 364.84604835968554,47.46891079360977 L 364.84604835968554,47.46891079360977"/></svg>
