<?xml version="1.0" encoding="utf-8"?>
<svg xmlns="http://www.w3.org/2000/svg"  viewBox="0,0,400,486.6973936899863" width="100%">
<path d="M104.8 5.897393689986346 L 104.8,5.897393689986346 L 100.65953360768174,10.025788751714936 L 98.28367626886146,15.694924554183943 L 97.54074074074074,22.430727023319648 L 98.29903978052127,29.759122085048055 L 100.42688614540467,37.206035665294976 L 103.79259259259258,44.29739368998634 L 108.26447187928667,50.55912208504805 L 113.7108367626886,55.517146776406115 L 120.0,58.69739368998634 L 120.0,58.69739368998634 L 126.57558299039778,60.32482853223609 L 132.42688614540467,60.93168724279839 L 137.54074074074077,60.50480109739374 L 141.90397805212618,59.03100137174215 L 145.5034293552812,56.49711934156384 L 148.3259259259259,52.88998628257895 L 150.35829903978052,48.19643347050759 L 151.58737997256515,42.40329218107008 L 152.0,35.497393689986346 L 152.0,35.497393689986346 L 151.17146776406034,25.975308641975516 L 148.8087791495199,17.75034293552817 L 145.0962962962963,10.9344307270233 L 140.21838134430726,5.639506172839537 L 134.35939643347052,1.9775034293553289 L 127.7037037037037,0.060356652949303674 L 120.43566529492455,0.0 L 112.73964334705076,1.908367626886229 L 104.8,5.897393689986346 L 104.8,5.897393689986346 L 104.8,5.897393689986346 L 104.8,5.897393689986346 L 104.8,5.897393689986346 L 104.8,5.897393689986346 L 104.8,5.897393689986346 L 104.8,5.897393689986346 L 104.8,5.897393689986346 L 104.8,5.897393689986346 L 104.8,5.897393689986346"/></svg>
