<?xml version="1.0" encoding="utf-8"?>
<svg xmlns="http://www.w3.org/2000/svg"  viewBox="0,0,400,486.6973936899863" width="100%">
<path d="M104.8 5.897393689986346 L 104.8,5.897393689986346 L 100.65953360768174,10.025788751714936 L 98.28367626886146,15.694924554183943 L 97.54074074074074,22.430727023319648 L 98.29903978052127,29.759122085048055 L 100.42688614540467,37.206035665294976 L 103.79259259259258,44.29739368998634 L 108.26447187928667,50.55912208504805 L 113.7108367626886,55.517146776406115 L 120.0,58.69739368998634 L 120.0,58.69739368998634 L 126.57558299039778,60.32482853223609 L 132.42688614540467,60.93168724279839 L 137.54074074074077,60.50480109739374 L 141.90397805212618,59.03100137174215 L 145.5034293552812,56.49711934156384 L 148.3259259259259,52.88998628257895 L 150.35829903978052,48.19643347050759 L 151.58737997256515,42.40329218107008 L 152.0,35.497393689986346 L 152.0,35.497393689986346 L 151.17146776406034,25.975308641975516 L 148.8087791495199,17.75034293552817 L 145.0962962962963,10.9344307270233 L 140.21838134430726,5.639506172839537 L 134.35939643347052,1.9775034293553289 L 127.7037037037037,0.060356652949303674 L 120.43566529492455,0.0 L 112.73964334705076,1.908367626886229 L 104.8,5.897393689986346 L 104.8,5.897393689986346 L 104.8,5.897393689986346 L 104.8,5.897393689986346 L 104.8,5.897393689986346 L 104.8,5.897393689986346 L 104.8,5.897393689986346 L 104.8,5.897393689986346 L 104.8,5.897393689986346 L 104.8,5.897393689986346 L 104.8,5.897393689986346M179.2 153.89739368998633 L 104.8,5.897393689986346 L 100.65953360768174,10.025788751714936 L 98.28367626886146,15.694924554183943 L 97.54074074074074,22.430727023319648 L 98.29903978052127,29.759122085048055 L 100.42688614540467,37.206035665294976 L 103.79259259259258,44.29739368998634 L 108.26447187928667,50.55912208504805 L 113.7108367626886,55.517146776406115 L 120.0,58.69739368998634 L 120.0,58.69739368998634 L 126.57558299039778,60.32482853223609 L 132.42688614540467,60.93168724279839 L 137.54074074074077,60.50480109739374 L 141.90397805212618,59.03100137174215 L 145.5034293552812,56.49711934156384 L 148.3259259259259,52.88998628257895 L 150.35829903978052,48.19643347050759 L 151.58737997256515,42.40329218107008 L 152.0,35.497393689986346 L 152.0,35.497393689986346 L 151.17146776406034,25.975308641975516 L 148.8087791495199,17.75034293552817 L 145.0962962962963,10.9344307270233 L 140.21838134430726,5.639506172839537 L 134.35939643347052,1.9775034293553289 L 127.7037037037037,0.060356652949303674 L 120.43566529492455,0.0 L 112.73964334705076,1.908367626886229 L 104.8,5.897393689986346 L 104.8,5.897393689986346 L 104.8,5.897393689986346 L 104.8,5.897393689986346 L 104.8,5.897393689986346 L 104.8,5.897393689986346 L 104.8,5.897393689986346 L 104.8,5.897393689986346 L 104.8,5.897393689986346 L 104.8,5.897393689986346 L 104.8,5.897393689986346 L 179.2,153.89739368998633 L 161.23347050754452,164.30068587105637 L 143.79368998628254,179.16817558299041 L 127.1703703703704,197.98628257887518 L 111.65322359396434,220.241426611797 L 97.53196159122085,245.42002743484227 L 85.09629629629627,273.0085048010975 L 74.63593964334706,302.49327846364883 L 66.44060356652949,333.360768175583 L 60.8,365.09739368998635 L 60.8,365.09739368998635 L 58.94650205761316,388.2513031550069 L 60.13497942386831,409.94348422496574 L 64.0888888888889,429.7196159122085 L 70.53168724279834,447.125377229081 L 79.18683127572017,461.70644718792875 L 89.77777777777777,473.00850480109744 L 102.02798353909463,480.5772290809328 L 115.6609053497942,483.95829903978057 L 130.4,482.69739368998626 L 130.4,482.69739368998626 L 139.49629629629626,479.37887517146777 L 148.65185185185186,474.22331961591226 L 157.86666666666667,467.2307270233197 L 167.14074074074074,458.40109739369 L 176.47407407407408,447.7344307270234 L 185.86666666666665,435.2307270233196 L 195.31851851851852,420.88998628257895 L 204.8296296296296,404.71220850480114 L 214.4,386.6973936899863 L 214.4,386.6973936899863 L 219.4655692729767,377.041426611797 L 223.99122085048012,368.88669410150897 L 227.9703703703704,362.2529492455419 L 231.3964334705075,357.1599451303155 L 234.2628257887517,353.6274348422497 L 236.56296296296296,351.67517146776413 L 238.2902606310014,351.3229080932785 L 239.438134430727,352.59039780521266 L 240.0,355.4973936899863 L 240.0,355.4973936899863 L 241.99615912208503,374.07626886145414 L 247.1396433470508,392.1283950617284 L 254.96296296296302,409.127023319616 L 264.9986282578875,424.54540466392325 L 276.77914951989027,437.8567901234568 L 289.837037037037,448.5344307270234 L 303.70480109739367,456.05157750342937 L 317.91495198902606,459.88148148148156 L 332.0,459.4973936899863 L 332.0,459.4973936899863 L 341.07434842249654,456.643072702332 L 350.90589849108363,451.59615912208506 L 361.0074074074074,444.83072702331964 L 370.8916323731139,436.8208504801097 L 380.07133058984914,428.0406035665295 L 388.0592592592592,418.964060356653 L 394.3681755829904,410.0652949245543 L 398.51083676268854,401.81838134430734 L 400.0,394.6973936899863 L 400.0,394.6973936899863 L 399.11769547325093,387.22414266117977 L 396.6156378600823,381.84471879286696 L 392.71111111111117,378.5196159122085 L 387.6213991769547,377.20932784636494 L 381.56378600823047,377.8743484224966 L 374.7555555555556,380.4751714677641 L 367.4139917695473,384.9722908093279 L 359.756378600823,391.3262002743485 L 352.0,399.4973936899863 L 352.0,399.4973936899863 L 346.0488340192043,406.26502057613175 L 340.89437585733884,411.68285322359407 L 336.3851851851852,415.8233196159122 L 332.36982167352545,418.7588477366255 L 328.69684499314127,420.56186556927304 L 325.21481481481476,421.3048010973937 L 321.77229080932784,421.06008230452676 L 318.2178326474623,419.9001371742113 L 314.4,417.89739368998636 L 314.4,417.89739368998636 L 311.6543209876542,416.0153635116598 L 308.7901234567902,413.6263374485597 L 305.86666666666673,410.81591220850487 L 302.9432098765432,407.66968449931414 L 300.07901234567896,404.2732510288066 L 297.3333333333333,400.71220850480114 L 294.7654320987655,397.07215363511665 L 292.4345679012346,393.43868312757206 L 290.4,389.89739368998636 L 290.4,389.89739368998636 L 285.8666666666666,377.14567901234574 L 281.45185185185187,358.57997256515785 L 277.33333333333337,335.7344307270234 L 273.68888888888887,310.14320987654327 L 270.6962962962962,283.34046639231826 L 268.5333333333333,256.8603566529493 L 267.3777777777778,232.23703703703714 L 267.4074074074074,211.0046639231825 L 268.8,194.69739368998634 L 268.8,194.69739368998634 L 269.48148148148147,188.61344307270247 L 269.9259259259259,182.70727023319623 L 270.1333333333334,177.09739368998635 L 270.10370370370373,171.90233196159133 L 269.8370370370371,167.24060356652953 L 269.3333333333333,163.23072702331973 L 268.5925925925926,159.9912208504802 L 267.6148148148148,157.64060356652953 L 266.4,156.29739368998634 L 266.4,156.29739368998634 L 259.5116598079561,152.92290809327855 L 250.87846364883404,150.27928669410153 L 240.94814814814816,148.3862825788752 L 230.1684499314129,147.26364883401928 L 218.98710562414266,146.9311385459534 L 207.85185185185182,147.40850480109745 L 197.21042524005486,148.71550068587112 L 187.5105624142661,150.87187928669417 L 179.2,153.89739368998633 L 179.2,153.89739368998633 L 179.2,153.89739368998633 L 179.2,153.89739368998633 L 179.2,153.89739368998633 L 179.2,153.89739368998633 L 179.2,153.89739368998633 L 179.2,153.89739368998633 L 179.2,153.89739368998633 L 179.2,153.89739368998633 L 179.2,153.89739368998633 L 224.0,208.29739368998634 L 224.0,208.29739368998634 L 224.0,208.29739368998634 L 224.0,208.29739368998634 L 224.0,208.29739368998634 L 224.0,208.29739368998634 L 224.0,208.29739368998634 L 224.0,208.29739368998634 L 224.0,208.29739368998634 L 224.0,208.29739368998634 L 224.0,208.29739368998634 L 222.22331961591215,230.886145404664 L 217.25322359396432,257.2148148148149 L 209.62962962962968,285.92702331961584 L 199.8924554183814,315.66639231824416 L 188.58161865569272,345.07654320987655 L 176.23703703703706,372.80109739369004 L 163.39862825788754,397.4836762688615 L 150.60631001371746,417.76790123456794 L 138.4,432.29739368998634 L 138.4,432.29739368998634 L 132.64087791495197,437.7525377229082 L 128.00109739368997,441.8644718792868 L 124.23703703703706,444.65294924554195 L 121.1050754458162,446.13772290809334 L 118.36159122085049,446.33854595336084 L 115.76296296296294,445.27517146776404 L 113.06556927297667,442.96735253772295 L 110.02578875171469,439.43484224965704 L 106.4,434.69739368998637 L 106.4,434.69739368998637 L 98.64691358024689,415.11001371742117 L 97.23456790123458,388.2798353909465 L 101.33333333333334,356.50480109739374 L 110.11358024691359,322.08285322359404 L 122.74567901234568,287.3119341563787 L 138.4,254.48998628257894 L 156.24691358024688,225.9149519890261 L 175.45679012345676,203.8847736625515 L 195.2,190.6973936899863 L 195.2,190.6973936899863 L 203.1407407407407,187.4556927297669 L 209.4814814814815,185.2674897119342 L 214.40000000000006,184.23813443072703 L 218.0740740740741,184.4729766803841 L 220.68148148148148,186.07736625514406 L 222.4,189.1566529492456 L 223.4074074074074,193.81618655692733 L 223.8814814814815,200.16131687242805 L 224.0,208.29739368998634 L 224.0,208.29739368998634 L 224.0,208.29739368998634 L 224.0,208.29739368998634 L 224.0,208.29739368998634 L 224.0,208.29739368998634 L 224.0,208.29739368998634 L 224.0,208.29739368998634 L 224.0,208.29739368998634 L 224.0,208.29739368998634 L 224.0,208.29739368998634"/></svg>
