<?xml version="1.0" encoding="utf-8"?>
<svg xmlns="http://www.w3.org/2000/svg"  viewBox="0,0,400,390.0599828620394" width="100%">
<path d="M179.94858611825194 102.14224507283637 L 179.94858611825194,102.14224507283637 L 158.32231355415206,114.01892228322787 L 138.71028030791908,126.3187590141794 L 121.14633914119777,139.00790250404646 L 105.66434281563292,152.0524999911842 L 92.2981440928694,165.4186987139477 L 81.08159573455202,179.0726459106922 L 72.04855050232563,192.98048881977286 L 65.23286115783498,207.10837467954485 L 60.66838046272493,221.42245072836334 L 60.66838046272493,221.42245072836334 L 56.790828722657714,239.68601563574433 L 54.098123640159244,254.95361113755857 L 52.63258116728555,267.5806912310768 L 52.43651725609261,277.9227099135697 L 53.552247858636505,286.3351211823078 L 56.02208892697324,293.17337903456155 L 59.888356413158846,298.79293746760186 L 65.19336626924935,303.5492504786992 L 71.97943444730078,307.79777206512426 L 71.97943444730078,307.79777206512426 L 81.74031405489082,311.27614332412963 L 93.09227345978752,312.1647783173061 L 105.87451204417786,310.5398457583547 L 119.926229190249,306.4775143609762 L 135.08662428018806,300.0539528388714 L 151.19489669618204,291.3453299057412 L 168.09024582041812,280.4278142752865 L 185.6118710350834,267.3775746612079 L 203.59897172236504,252.27077977720654 L 203.59897172236504,252.27077977720654 L 208.05484147386463,248.15766923736078 L 212.51071122536416,244.04455869751501 L 216.96658097686375,239.93144815766925 L 221.42245072836334,235.8183376178235 L 225.87832047986288,231.70522707797772 L 230.33419023136247,227.59211653813196 L 234.79005998286203,223.47900599828623 L 239.2459297343616,219.36589545844046 L 243.7017994858612,215.25278491859473 L 243.7017994858612,215.25278491859473 L 244.50157097972007,218.90888317623538 L 245.30134247357896,222.56498143387608 L 246.1011139674379,226.22107969151674 L 246.90088546129678,229.87717794915739 L 247.70065695515564,233.53327620679806 L 248.50042844901455,237.18937446443874 L 249.30019994287346,240.84547272207942 L 250.09997143673237,244.5015709797201 L 250.89974293059126,248.15766923736078 L 250.89974293059126,248.15766923736078 L 254.27514537292691,261.93010109986216 L 258.86078404406504,274.39920163903787 L 264.5720270398934,285.480338950776 L 271.3242424563,295.08888113096435 L 279.0327983891728,303.14019627549095 L 287.6130629343997,309.54965248024376 L 296.98040418786866,314.23261784111065 L 307.0501902454678,317.10446045397964 L 317.73778920308484,318.08054841473864 L 317.73778920308484,318.08054841473864 L 329.90221488745715,316.6375744496282 L 342.69291666225877,312.63025378992245 L 355.5174711987051,306.54098828906024 L 367.783455168012,298.85217980048026 L 378.8984452413949,290.0462301776212 L 388.27001809006947,280.60554127392174 L 395.30575038525143,271.0125149428206 L 399.4132187981564,261.74955303775647 L 400.0,253.29905741216794 L 400.0,253.29905741216794 L 398.59228932826943,248.4693967508402 L 396.96453570584765,244.9769201744828 L 394.8966961820433,242.86394363515186 L 392.1687278061647,242.17278308490344 L 388.56058762752093,242.94575447579354 L 383.85223269542035,245.22517375987815 L 377.82362005917184,249.05335688921332 L 370.25470676808385,254.4726198158551 L 360.9254498714653,261.52527849185947 L 360.9254498714653,261.52527849185947 L 346.1317930326784,271.7939495241219 L 333.75014546108514,279.2359149590416 L 323.45044273064843,283.7665428925069 L 314.90262041533106,285.30120142040545 L 307.77661408909626,283.7552586386253 L 301.7423593259069,279.0440826430544 L 296.469791699726,271.0830415295806 L 291.6288467845166,259.787503394092 L 286.88946015424165,245.07283633247647 L 286.88946015424165,245.07283633247647 L 283.84271160620773,234.58835394472837 L 281.55765019518236,224.87402188439987 L 280.0342759211654,215.63362848709892 L 279.27258878415694,206.57096208843333 L 279.27258878415694,197.3898110240108 L 280.0342759211654,187.79396362943922 L 281.5576501951823,177.48720824032645 L 283.8427116062078,166.1733331922802 L 286.88946015424165,153.55612682090833 L 286.88946015424165,153.55612682090833 L 289.13220561321094,144.33124927269463 L 291.0448866461434,135.2840987231162 L 292.60211368180524,126.59240217080837 L 293.77849714896274,118.43388661440652 L 294.5486474763824,110.98627905254584 L 294.88717509283055,104.42730648386178 L 294.7686904270738,98.93469590698956 L 294.1678039078782,94.6861743205645 L 293.05912596401026,91.85946872322197 L 293.05912596401026,91.85946872322197 L 287.9276115113494,86.89721807878537 L 279.7324221298324,83.61914232617842 L 268.98981243454256,81.95753594211176 L 256.2160370405634,81.84469340329574 L 241.9273505629785,83.21290918644058 L 226.64000761687134,85.99447776825673 L 210.87026281732554,90.12169362545453 L 195.1343707794246,95.52685123474423 L 179.94858611825194,102.14224507283637 L 179.94858611825194,102.14224507283637 L 179.94858611825194,102.14224507283637 L 179.94858611825194,102.14224507283637 L 179.94858611825194,102.14224507283637 L 179.94858611825194,102.14224507283637 L 179.94858611825194,102.14224507283637 L 179.94858611825194,102.14224507283637 L 179.94858611825194,102.14224507283637 L 179.94858611825194,102.14224507283637 L 179.94858611825194,102.14224507283637 L 246.7866323907455,137.1036846615253 L 246.7866323907455,137.1036846615253 L 246.7866323907455,137.1036846615253 L 246.7866323907455,137.1036846615253 L 246.7866323907455,137.1036846615253 L 246.7866323907455,137.1036846615253 L 246.7866323907455,137.1036846615253 L 246.7866323907455,137.1036846615253 L 246.7866323907455,137.1036846615253 L 246.7866323907455,137.1036846615253 L 246.7866323907455,137.1036846615253 L 242.75533269154135,150.29497744912396 L 231.75036409350417,167.6078439669795 L 215.4051223459964,187.52737313148623 L 195.3530031983807,208.5386538590385 L 173.22740240001977,229.12677506603052 L 150.6617157002761,247.77682566885656 L 129.28933884851244,262.9738945839108 L 110.74366759409128,273.20307072758754 L 96.65809768637533,276.94944301628107 L 96.65809768637533,276.94944301628107 L 91.95820594468596,275.5473744714914 L 89.45028051949883,271.5217168992281 L 89.04122631629058,265.1432923926497 L 90.63794824053798,256.68292304491484 L 94.14735119771777,246.41143094918206 L 99.47634009330666,234.59963819860994 L 106.53181983278145,221.518366886357 L 115.22069532161886,207.43843910558186 L 125.44987146529563,192.63067694944303 L 125.44987146529563,192.63067694944303 L 139.63135753100525,175.4588636051076 L 156.1063681981515,159.91198281972345 L 173.8170046653337,146.4724364467295 L 191.7053681311512,135.62262633956436 L 208.7135597942034,127.84495435166677 L 223.7836808530896,123.62182233647535 L 235.85783250640912,123.43563214742883 L 243.8781159527613,127.76878563796592 L 246.7866323907455,137.1036846615253 L 246.7866323907455,137.1036846615253 L 246.7866323907455,137.1036846615253 L 246.7866323907455,137.1036846615253 L 246.7866323907455,137.1036846615253 L 246.7866323907455,137.1036846615253 L 246.7866323907455,137.1036846615253 L 246.7866323907455,137.1036846615253 L 246.7866323907455,137.1036846615253 L 246.7866323907455,137.1036846615253 L 246.7866323907455,137.1036846615253"/></svg>
