<?xml version="1.0" encoding="utf-8"?>
<svg xmlns="http://www.w3.org/2000/svg"  viewBox="0,0,400,762.0516490725831" width="100%">
<path d="M196.52173913043478 24.66034472475693 L 196.52173913043478,24.66034472475693 L 194.0072761972923,35.66768056301084 L 194.31263791972324,46.374425955746425 L 197.03703703703707,56.35116598079549 L 201.77968628854296,65.16848571598966 L 208.13979841355044,72.39697023916013 L 215.71658615136874,77.6072046281386 L 224.1092622413073,80.3697739607562 L 232.91703942267546,80.25526331484463 L 241.7391304347826,76.83425776823519 L 241.7391304347826,76.83425776823519 L 249.8025884177253,70.26898073596959 L 255.48995049800206,62.444086598675916 L 258.8727858293076,53.774676447784245 L 260.0226635653367,44.67585137472408 L 259.0111528597841,35.56271247092493 L 255.90982286634463,26.850360827816576 L 250.79024273871295,18.953897536828308 L 243.72398163058386,12.288423689389836 L 234.7826086956522,7.269040376930841 L 234.7826086956522,7.269040376930841 L 229.57714558358674,5.976024333512333 L 224.4432516252162,5.556151965169608 L 219.45249597423518,5.980795610425068 L 214.6764477843383,7.22132760780092 L 210.1866762092205,9.249120295819072 L 206.05475040257645,12.035546013001731 L 202.35223951810102,15.551977097870807 L 199.1507127094889,19.769785888948604 L 196.52173913043478,24.66034472475693 L 196.52173913043478,24.66034472475693 L 196.52173913043478,24.66034472475693 L 196.52173913043478,24.66034472475693 L 196.52173913043478,24.66034472475693 L 196.52173913043478,24.66034472475693 L 196.52173913043478,24.66034472475693 L 196.52173913043478,24.66034472475693 L 196.52173913043478,24.66034472475693 L 196.52173913043478,24.66034472475693 L 196.52173913043478,24.66034472475693"/></svg>
