<?xml version="1.0" encoding="utf-8"?>
<svg xmlns="http://www.w3.org/2000/svg"  viewBox="0,0,400,762.0516490725831" width="100%">
<path d="M196.52173913043478 24.66034472475693 L 196.52173913043478,24.66034472475693 L 194.0072761972923,35.66768056301084 L 194.31263791972324,46.374425955746425 L 197.03703703703707,56.35116598079549 L 201.77968628854296,65.16848571598966 L 208.13979841355044,72.39697023916013 L 215.71658615136874,77.6072046281386 L 224.1092622413073,80.3697739607562 L 232.91703942267546,80.25526331484463 L 241.7391304347826,76.83425776823519 L 241.7391304347826,76.83425776823519 L 249.8025884177253,70.26898073596959 L 255.48995049800206,62.444086598675916 L 258.8727858293076,53.774676447784245 L 260.0226635653367,44.67585137472408 L 259.0111528597841,35.56271247092493 L 255.90982286634463,26.850360827816576 L 250.79024273871295,18.953897536828308 L 243.72398163058386,12.288423689389836 L 234.7826086956522,7.269040376930841 L 234.7826086956522,7.269040376930841 L 229.57714558358674,5.976024333512333 L 224.4432516252162,5.556151965169608 L 219.45249597423518,5.980795610425068 L 214.6764477843383,7.22132760780092 L 210.1866762092205,9.249120295819072 L 206.05475040257645,12.035546013001731 L 202.35223951810102,15.551977097870807 L 199.1507127094889,19.769785888948604 L 196.52173913043478,24.66034472475693 L 196.52173913043478,24.66034472475693 L 196.52173913043478,24.66034472475693 L 196.52173913043478,24.66034472475693 L 196.52173913043478,24.66034472475693 L 196.52173913043478,24.66034472475693 L 196.52173913043478,24.66034472475693 L 196.52173913043478,24.66034472475693 L 196.52173913043478,24.66034472475693 L 196.52173913043478,24.66034472475693 L 196.52173913043478,24.66034472475693M205.2173913043478 146.39947515953955 L 196.52173913043478,24.66034472475693 L 194.0072761972923,35.66768056301084 L 194.31263791972324,46.374425955746425 L 197.03703703703707,56.35116598079549 L 201.77968628854296,65.16848571598966 L 208.13979841355044,72.39697023916013 L 215.71658615136874,77.6072046281386 L 224.1092622413073,80.3697739607562 L 232.91703942267546,80.25526331484463 L 241.7391304347826,76.83425776823519 L 241.7391304347826,76.83425776823519 L 249.8025884177253,70.26898073596959 L 255.48995049800206,62.444086598675916 L 258.8727858293076,53.774676447784245 L 260.0226635653367,44.67585137472408 L 259.0111528597841,35.56271247092493 L 255.90982286634463,26.850360827816576 L 250.79024273871295,18.953897536828308 L 243.72398163058386,12.288423689389836 L 234.7826086956522,7.269040376930841 L 234.7826086956522,7.269040376930841 L 229.57714558358674,5.976024333512333 L 224.4432516252162,5.556151965169608 L 219.45249597423518,5.980795610425068 L 214.6764477843383,7.22132760780092 L 210.1866762092205,9.249120295819072 L 206.05475040257645,12.035546013001731 L 202.35223951810102,15.551977097870807 L 199.1507127094889,19.769785888948604 L 196.52173913043478,24.66034472475693 L 196.52173913043478,24.66034472475693 L 196.52173913043478,24.66034472475693 L 196.52173913043478,24.66034472475693 L 196.52173913043478,24.66034472475693 L 196.52173913043478,24.66034472475693 L 196.52173913043478,24.66034472475693 L 196.52173913043478,24.66034472475693 L 196.52173913043478,24.66034472475693 L 196.52173913043478,24.66034472475693 L 196.52173913043478,24.66034472475693 L 205.2173913043478,146.39947515953955 L 196.37860082304525,151.81726009423284 L 186.29450706745394,159.72565157750336 L 175.26570048309182,169.78111767161676 L 163.59277151547684,181.6401264388381 L 151.57631061012708,194.9591459414326 L 139.5169082125604,209.39464424166528 L 127.71515476829487,224.60308940180116 L 116.47164072284845,240.24094948410576 L 106.08695652173913,255.96469255084392 L 106.08695652173913,255.96469255084392 L 95.49710741337148,271.6287946561699 L 84.74980616687542,287.1068169618894 L 74.07407407407408,302.0838551917456 L 63.69893242679071,316.24500506948175 L 53.85340251684857,329.27536231884056 L 44.76650563607085,340.86002266356536 L 36.66726307628079,350.6840818273991 L 29.784696129301604,358.43263553408485 L 24.347826086956523,363.7907795073657 L 24.347826086956523,363.7907795073657 L 18.030655454165917,369.9648118327668 L 12.973101926403055,377.1121846484166 L 9.14653784219002,385.56211606131086 L 6.522335540048907,395.64382417844575 L 5.071867358501819,407.686527106817 L 4.766505636070852,422.0194429534204 L 5.577622711278105,438.971789825252 L 7.47659092264567,458.87278582930765 L 10.434782608695652,482.0516490725831 L 10.434782608695652,482.0516490725831 L 12.476889127452733,499.96302260392446 L 15.048607383551024,517.5165503667919 L 18.035426731078907,534.3543865927119 L 21.322836524124767,550.1186855132106 L 24.796326116777006,564.4516013598139 L 28.341384863123995,576.9952883640485 L 31.843502117254122,587.3919007574403 L 35.18816723325579,595.2835927715155 L 38.26086956521739,600.3125186378005 L 38.26086956521739,600.3125186378005 L 69.90397805212618,619.0707938211965 L 113.37031072940897,616.2724399117315 L 164.50885668276973,595.4816007634043 L 219.16860499791258,560.2624202302142 L 273.19854476054155,514.1790421661597 L 322.4476650563606,460.79561042524006 L 362.76495497107413,403.6762688614541 L 389.99940359038584,346.3851613288007 L 400.0,292.4864316812787 L 400.0,292.4864316812787 L 399.28430846305235,272.4232122621817 L 396.8509572374307,254.75040257648953 L 392.2705314009662,238.8954493946442 L 385.1136160314904,224.28579948708764 L 374.9507962068349,210.34889962426192 L 361.35265700483086,196.51219657660883 L 343.8897835033101,182.2031371145703 L 322.13276078010375,166.84916800858835 L 295.6521739130435,149.87773602910477 L 295.6521739130435,149.87773602910477 L 283.7907795073656,142.65879405976037 L 273.4180234985388,137.2147671020456 L 264.09017713365546,133.51702749448313 L 255.36351165980795,131.5369475755949 L 246.794298324089,131.24589968390282 L 237.93880837359097,132.61525615792925 L 228.35331305540643,135.61638933619605 L 217.5940836166279,140.22067155722556 L 205.2173913043478,146.39947515953955 L 205.2173913043478,146.39947515953955 L 205.2173913043478,146.39947515953955 L 205.2173913043478,146.39947515953955 L 205.2173913043478,146.39947515953955 L 205.2173913043478,146.39947515953955 L 205.2173913043478,146.39947515953955 L 205.2173913043478,146.39947515953955 L 205.2173913043478,146.39947515953955 L 205.2173913043478,146.39947515953955 L 205.2173913043478,146.39947515953955 L 328.69565217391306,255.96469255084392 L 328.69565217391306,255.96469255084392 L 328.69565217391306,255.96469255084392 L 328.69565217391306,255.96469255084392 L 328.69565217391306,255.96469255084392 L 328.69565217391306,255.96469255084392 L 328.69565217391306,255.96469255084392 L 328.69565217391306,255.96469255084392 L 328.69565217391306,255.96469255084392 L 328.69565217391306,255.96469255084392 L 328.69565217391306,255.96469255084392 L 332.61048488101625,264.6508021709311 L 335.02236536052965,273.53730542136344 L 335.84541062801935,282.9534204091369 L 334.9937376990517,293.22836524124773 L 332.38146358919306,304.69135802469134 L 327.92270531400965,317.671616866464 L 321.5315798890678,332.4983598735611 L 313.12220432993377,349.50080515297907 L 302.60869565217394,369.0081708117135 L 302.60869565217394,369.0081708117135 L 285.42971312697557,395.94202898550736 L 263.7275600882686,423.8349138188108 L 238.7761674718197,451.5846603447247 L 211.84946621339535,478.08910359634996 L 184.22138724876245,502.24607860678714 L 157.16586151368756,522.953420409137 L 131.95681994393752,539.1089640365003 L 109.86819347527883,549.6105445219778 L 92.17391304347827,553.35599689867 L 92.17391304347827,553.35599689867 L 79.9355877616747,546.6022544283414 L 75.16908212560385,527.9250909524662 L 77.10144927536233,499.70060237371035 L 84.95974235104669,464.30488459473975 L 97.97101449275364,424.1140335182203 L 115.3623188405797,381.5041450468183 L 136.36070853462155,338.85131508319915 L 160.19323671497585,298.5316395300292 L 186.08695652173913,262.92121428997433 L 186.08695652173913,262.92121428997433 L 200.71092026003456,248.3688197053738 L 217.41038945547803,237.19448917516544 L 235.42673107890502,229.42685036082773 L 254.00131210115106,225.0945309238384 L 272.37549949305185,224.22615852567546 L 289.7906602254428,226.8503608278165 L 305.48816126915966,232.99576549173966 L 318.7093695950378,242.69100017892293 L 328.69565217391306,255.96469255084392 L 328.69565217391306,255.96469255084392 L 328.69565217391306,255.96469255084392 L 328.69565217391306,255.96469255084392 L 328.69565217391306,255.96469255084392 L 328.69565217391306,255.96469255084392 L 328.69565217391306,255.96469255084392 L 328.69565217391306,255.96469255084392 L 328.69565217391306,255.96469255084392 L 328.69565217391306,255.96469255084392 L 328.69565217391306,255.96469255084392M313.04347826086956 29.87773602910476 L 196.52173913043478,24.66034472475693 L 194.0072761972923,35.66768056301084 L 194.31263791972324,46.374425955746425 L 197.03703703703707,56.35116598079549 L 201.77968628854296,65.16848571598966 L 208.13979841355044,72.39697023916013 L 215.71658615136874,77.6072046281386 L 224.1092622413073,80.3697739607562 L 232.91703942267546,80.25526331484463 L 241.7391304347826,76.83425776823519 L 241.7391304347826,76.83425776823519 L 249.8025884177253,70.26898073596959 L 255.48995049800206,62.444086598675916 L 258.8727858293076,53.774676447784245 L 260.0226635653367,44.67585137472408 L 259.0111528597841,35.56271247092493 L 255.90982286634463,26.850360827816576 L 250.79024273871295,18.953897536828308 L 243.72398163058386,12.288423689389836 L 234.7826086956522,7.269040376930841 L 234.7826086956522,7.269040376930841 L 229.57714558358674,5.976024333512333 L 224.4432516252162,5.556151965169608 L 219.45249597423518,5.980795610425068 L 214.6764477843383,7.22132760780092 L 210.1866762092205,9.249120295819072 L 206.05475040257645,12.035546013001731 L 202.35223951810102,15.551977097870807 L 199.1507127094889,19.769785888948604 L 196.52173913043478,24.66034472475693 L 196.52173913043478,24.66034472475693 L 196.52173913043478,24.66034472475693 L 196.52173913043478,24.66034472475693 L 196.52173913043478,24.66034472475693 L 196.52173913043478,24.66034472475693 L 196.52173913043478,24.66034472475693 L 196.52173913043478,24.66034472475693 L 196.52173913043478,24.66034472475693 L 196.52173913043478,24.66034472475693 L 196.52173913043478,24.66034472475693 L 205.2173913043478,146.39947515953955 L 196.37860082304525,151.81726009423284 L 186.29450706745394,159.72565157750336 L 175.26570048309182,169.78111767161676 L 163.59277151547684,181.6401264388381 L 151.57631061012708,194.9591459414326 L 139.5169082125604,209.39464424166528 L 127.71515476829487,224.60308940180116 L 116.47164072284845,240.24094948410576 L 106.08695652173913,255.96469255084392 L 106.08695652173913,255.96469255084392 L 95.49710741337148,271.6287946561699 L 84.74980616687542,287.1068169618894 L 74.07407407407408,302.0838551917456 L 63.69893242679071,316.24500506948175 L 53.85340251684857,329.27536231884056 L 44.76650563607085,340.86002266356536 L 36.66726307628079,350.6840818273991 L 29.784696129301604,358.43263553408485 L 24.347826086956523,363.7907795073657 L 24.347826086956523,363.7907795073657 L 18.030655454165917,369.9648118327668 L 12.973101926403055,377.1121846484166 L 9.14653784219002,385.56211606131086 L 6.522335540048907,395.64382417844575 L 5.071867358501819,407.686527106817 L 4.766505636070852,422.0194429534204 L 5.577622711278105,438.971789825252 L 7.47659092264567,458.87278582930765 L 10.434782608695652,482.0516490725831 L 10.434782608695652,482.0516490725831 L 12.476889127452733,499.96302260392446 L 15.048607383551024,517.5165503667919 L 18.035426731078907,534.3543865927119 L 21.322836524124767,550.1186855132106 L 24.796326116777006,564.4516013598139 L 28.341384863123995,576.9952883640485 L 31.843502117254122,587.3919007574403 L 35.18816723325579,595.2835927715155 L 38.26086956521739,600.3125186378005 L 38.26086956521739,600.3125186378005 L 69.90397805212618,619.0707938211965 L 113.37031072940897,616.2724399117315 L 164.50885668276973,595.4816007634043 L 219.16860499791258,560.2624202302142 L 273.19854476054155,514.1790421661597 L 322.4476650563606,460.79561042524006 L 362.76495497107413,403.6762688614541 L 389.99940359038584,346.3851613288007 L 400.0,292.4864316812787 L 400.0,292.4864316812787 L 399.28430846305235,272.4232122621817 L 396.8509572374307,254.75040257648953 L 392.2705314009662,238.8954493946442 L 385.1136160314904,224.28579948708764 L 374.9507962068349,210.34889962426192 L 361.35265700483086,196.51219657660883 L 343.8897835033101,182.2031371145703 L 322.13276078010375,166.84916800858835 L 295.6521739130435,149.87773602910477 L 295.6521739130435,149.87773602910477 L 283.7907795073656,142.65879405976037 L 273.4180234985388,137.2147671020456 L 264.09017713365546,133.51702749448313 L 255.36351165980795,131.5369475755949 L 246.794298324089,131.24589968390282 L 237.93880837359097,132.61525615792925 L 228.35331305540643,135.61638933619605 L 217.5940836166279,140.22067155722556 L 205.2173913043478,146.39947515953955 L 205.2173913043478,146.39947515953955 L 205.2173913043478,146.39947515953955 L 205.2173913043478,146.39947515953955 L 205.2173913043478,146.39947515953955 L 205.2173913043478,146.39947515953955 L 205.2173913043478,146.39947515953955 L 205.2173913043478,146.39947515953955 L 205.2173913043478,146.39947515953955 L 205.2173913043478,146.39947515953955 L 205.2173913043478,146.39947515953955 L 328.69565217391306,255.96469255084392 L 328.69565217391306,255.96469255084392 L 328.69565217391306,255.96469255084392 L 328.69565217391306,255.96469255084392 L 328.69565217391306,255.96469255084392 L 328.69565217391306,255.96469255084392 L 328.69565217391306,255.96469255084392 L 328.69565217391306,255.96469255084392 L 328.69565217391306,255.96469255084392 L 328.69565217391306,255.96469255084392 L 328.69565217391306,255.96469255084392 L 332.61048488101625,264.6508021709311 L 335.02236536052965,273.53730542136344 L 335.84541062801935,282.9534204091369 L 334.9937376990517,293.22836524124773 L 332.38146358919306,304.69135802469134 L 327.92270531400965,317.671616866464 L 321.5315798890678,332.4983598735611 L 313.12220432993377,349.50080515297907 L 302.60869565217394,369.0081708117135 L 302.60869565217394,369.0081708117135 L 285.42971312697557,395.94202898550736 L 263.7275600882686,423.8349138188108 L 238.7761674718197,451.5846603447247 L 211.84946621339535,478.08910359634996 L 184.22138724876245,502.24607860678714 L 157.16586151368756,522.953420409137 L 131.95681994393752,539.1089640365003 L 109.86819347527883,549.6105445219778 L 92.17391304347827,553.35599689867 L 92.17391304347827,553.35599689867 L 79.9355877616747,546.6022544283414 L 75.16908212560385,527.9250909524662 L 77.10144927536233,499.70060237371035 L 84.95974235104669,464.30488459473975 L 97.97101449275364,424.1140335182203 L 115.3623188405797,381.5041450468183 L 136.36070853462155,338.85131508319915 L 160.19323671497585,298.5316395300292 L 186.08695652173913,262.92121428997433 L 186.08695652173913,262.92121428997433 L 200.71092026003456,248.3688197053738 L 217.41038945547803,237.19448917516544 L 235.42673107890502,229.42685036082773 L 254.00131210115106,225.0945309238384 L 272.37549949305185,224.22615852567546 L 289.7906602254428,226.8503608278165 L 305.48816126915966,232.99576549173966 L 318.7093695950378,242.69100017892293 L 328.69565217391306,255.96469255084392 L 328.69565217391306,255.96469255084392 L 328.69565217391306,255.96469255084392 L 328.69565217391306,255.96469255084392 L 328.69565217391306,255.96469255084392 L 328.69565217391306,255.96469255084392 L 328.69565217391306,255.96469255084392 L 328.69565217391306,255.96469255084392 L 328.69565217391306,255.96469255084392 L 328.69565217391306,255.96469255084392 L 328.69565217391306,255.96469255084392 L 313.04347826086956,29.87773602910476 L 313.4371086061907,38.000834973459945 L 314.64662730363216,45.00745512017652 L 316.71497584541066,50.94053796147177 L 319.6850957237431,55.84302498956278 L 323.5999284308463,59.75785769666593 L 328.50241545893715,62.72797757499852 L 334.43549830023255,64.79632611677695 L 341.44211844694934,66.00584481421839 L 349.5652173913044,66.39947515953955 L 349.5652173913044,66.39947515953955 L 357.10622055227515,66.07264269100034 L 363.51643108486917,65.07306017773001 L 368.8244766505636,63.37209995825117 L 373.0589849108368,60.941134371085894 L 376.2485835271665,57.75153575475622 L 378.4219001610306,53.774676447784344 L 379.6075624739071,48.98192878869218 L 379.83419812727385,43.34466511600173 L 379.1304347826087,36.8342577682352 L 379.1304347826087,36.8342577682352 L 374.5738653307091,23.25520367388337 L 367.2833542076698,12.710681696188876 L 358.1320450885669,5.272260988846998 L 347.99308164847616,1.011510705552511 L 337.7396075624739,0.0 L 328.24476650563605,2.309298025884247 L 320.38170215303865,8.010973936899836 L 315.0235581797578,17.176596886741844 L 313.04347826086956,29.87773602910476 L 313.04347826086956,29.87773602910476 L 313.04347826086956,29.87773602910476 L 313.04347826086956,29.87773602910476 L 313.04347826086956,29.87773602910476 L 313.04347826086956,29.87773602910476 L 313.04347826086956,29.87773602910476 L 313.04347826086956,29.87773602910476 L 313.04347826086956,29.87773602910476 L 313.04347826086956,29.87773602910476 L 313.04347826086956,29.87773602910476"/></svg>
