<?xml version="1.0" encoding="utf-8"?>
<svg xmlns="http://www.w3.org/2000/svg"  viewBox="0,0,400,387.54709450347434" width="100%">
<path d="M238.94556691803894 129.20373248507798 L 238.94556691803894,129.20373248507798 L 224.45104288245568,137.70160680700786 L 210.05085904002806,148.72489553033103 L 196.1659177909881,161.72932830991968 L 183.21712153556805,176.17063480064593 L 171.62537267400026,191.5045446573819 L 161.8115736065167,207.18678753499967 L 154.1966267333499,222.67309308837144 L 149.2014344547318,237.41919097236928 L 147.24689917089484,250.88081084186535 L 147.24689917089484,250.88081084186535 L 148.13708355759283,266.45299016080173 L 151.886501490696,279.0570818643074 L 158.3500142115035,288.6640582006423 L 167.38248296131448,295.24489141806623 L 178.8387689814283,298.770553764839 L 192.5737335131441,299.2120174892205 L 208.4422377977612,296.54025483947055 L 226.29914307657882,290.72623806384905 L 245.99931059089616,281.74093941061574 L 245.99931059089616,281.74093941061574 L 249.82008841369384,279.87953483027843 L 253.64086623649152,278.0181302499411 L 257.4616440592892,276.1567256696038 L 261.28242188208685,274.29532108926645 L 265.1031997048845,272.43391650892914 L 268.9239775276822,270.5725119285918 L 272.74475535047986,268.7111073482545 L 276.5655331732775,266.84970276791717 L 280.3863109960752,264.9882981875798 L 280.3863109960752,264.9882981875798 L 280.97412296881333,268.2212640376394 L 281.5619349415514,271.45422988769894 L 282.1497469142895,274.68719573775854 L 282.7375588870276,277.92016158781814 L 283.3253708597657,281.15312743787763 L 283.9131828325038,284.38609328793723 L 284.50099480524193,287.6190591379968 L 285.08880677798004,290.85202498805637 L 285.67661875071815,294.08499083811597 L 285.67661875071815,294.08499083811597 L 287.0082668617976,299.6849279446539 L 288.6229355523437,305.24858036151653 L 290.47708319474606,310.6743509576135 L 292.52716816139434,315.86064260185424 L 294.72964882467846,320.7058581631481 L 297.0409835569881,325.10840051040475 L 299.41763073071314,328.9666725125334 L 301.81604871824334,332.1790770384437 L 304.19269589196836,334.64401695704504 L 304.19269589196836,334.64401695704504 L 310.62597137137976,338.60630506957597 L 317.9083085891908,341.1317194709693 L 325.6478328969091,342.2855726026404 L 333.4526696460429,342.1331769060046 L 340.93094418809983,340.73984482247727 L 347.69078187458797,338.1708887934737 L 353.3403080570153,334.49162126040926 L 357.48764808688975,329.7673546646993 L 359.74092731571915,324.06340144775925 L 359.74092731571915,324.06340144775925 L 360.3214823505221,320.2680229077342 L 360.27068378497694,317.08222715425234 L 359.54498999147313,314.46247255970354 L 358.1008593424005,312.36521749647744 L 355.89475021014886,310.74692033696385 L 352.8831209671079,309.56403945355265 L 349.0224299856675,308.77303321863343 L 344.2691356382174,308.3303600045962 L 338.5796962971474,308.1924781838304 L 338.5796962971474,308.1924781838304 L 335.93454241982596,308.1924781838304 L 333.28938854250447,308.1924781838304 L 330.64423466518303,308.1924781838304 L 327.99908078786154,308.1924781838304 L 325.3539269105401,308.1924781838304 L 322.7087730332186,308.1924781838304 L 320.0636191558972,308.1924781838304 L 317.4184652785757,308.1924781838304 L 314.77331140125426,308.1924781838304 L 314.77331140125426,308.1924781838304 L 315.4590920361153,300.94279718672715 L 316.1448726709765,293.6931161896239 L 316.83065330583753,286.44343519252055 L 317.5164339406987,279.19375419541734 L 318.2022145755599,271.944073198314 L 318.887995210421,264.6943922012108 L 319.57377584528206,257.44471120410753 L 320.25955648014326,250.19503020700424 L 320.9453371150043,242.94534920990097 L 320.9453371150043,242.94534920990097 L 322.21167278466845,226.6692469112659 L 323.0425921782304,212.92581595195912 L 323.39455366807977,201.43929269044935 L 323.2240156266064,191.93391348520498 L 322.4874364262,184.13391469469462 L 321.1412744392503,177.76353267738688 L 319.1419880381473,172.54700379175014 L 316.4460355952806,168.20856439625308 L 313.00987548303993,164.4724508493642 L 313.00987548303993,164.4724508493642 L 310.69854075073016,161.77045095821828 L 308.4960600874461,158.98862474978688 L 306.4459751207978,156.17777078961538 L 304.59182747839543,153.38868764324897 L 302.9771587878495,150.67217387623302 L 301.6455106767699,148.07902805411268 L 300.6404247727671,145.66004874243325 L 300.00544270345125,143.46603450673996 L 299.7841060964326,141.54778391257818 L 299.7841060964326,141.54778391257818 L 298.6846799992743,135.31891218500365 L 295.56056821824035,130.18583808561985 L 290.6730205189921,126.19936017997215 L 284.2832866671908,123.41027703360572 L 276.65261642849805,121.86938721206594 L 268.04225956857505,121.62748928089803 L 258.7134658530833,122.73538180564718 L 248.92748504768414,125.24386335185875 L 238.94556691803894,129.20373248507798 L 238.94556691803894,129.20373248507798 L 238.94556691803894,129.20373248507798 L 238.94556691803894,129.20373248507798 L 238.94556691803894,129.20373248507798 L 238.94556691803894,129.20373248507798 L 238.94556691803894,129.20373248507798 L 238.94556691803894,129.20373248507798 L 238.94556691803894,129.20373248507798 L 238.94556691803894,129.20373248507798 L 238.94556691803894,129.20373248507798 L 274.21428528232514,184.75196390882874 L 274.21428528232514,184.75196390882874 L 274.21428528232514,184.75196390882874 L 274.21428528232514,184.75196390882874 L 274.21428528232514,184.75196390882874 L 274.21428528232514,184.75196390882874 L 274.21428528232514,184.75196390882874 L 274.21428528232514,184.75196390882874 L 274.21428528232514,184.75196390882874 L 274.21428528232514,184.75196390882874 L 274.21428528232514,184.75196390882874 L 279.2602761264884,185.72318410246808 L 282.1219286522052,188.47235409019171 L 282.900839990566,192.75273798220846 L 281.6986072726613,198.31759988872702 L 278.61682762958173,204.92020391995604 L 273.7570981924177,212.31381418610425 L 267.22101609225984,220.2516947973803 L 259.1101784601987,228.48710986399297 L 249.52618242732478,236.77332349615088 L 249.52618242732478,236.77332349615088 L 238.19205486245076,245.18411456286032 L 226.77810098029136,252.13626110462698 L 215.66168155346855,257.5426798662305 L 205.22015735460423,261.31628759245046 L 195.83088915632052,263.37000102806627 L 187.87123773123932,263.6167369178576 L 181.71856385198262,261.96941200660393 L 177.75022829117253,258.3409430390848 L 176.34359182143095,252.64424676007965 L 176.34359182143095,252.64424676007965 L 177.44059893927755,246.1746865909931 L 180.54777786512977,238.18116945554831 L 185.38936495745625,229.03379918843254 L 191.6895965747253,219.10267962433258 L 199.17270907540563,208.75791459793547 L 207.56293881796572,198.36960794392812 L 216.58452216087417,188.30786349699756 L 225.96169546259958,178.94278509183061 L 235.4186950816103,170.64447656311427 L 235.4186950816103,170.64447656311427 L 242.53896068553868,165.1255752635177 L 248.16429707484926,160.91292279222787 L 252.49789851172298,158.006519149245 L 255.74295925834093,156.4063643345691 L 258.10267357688423,156.1124583482 L 259.7802357295339,157.12480119013793 L 260.97883997847106,159.44339286038263 L 261.90168058587676,163.06823335893426 L 262.7519518139321,167.9993226857928 L 262.7519518139321,167.9993226857928 L 263.4643412212217,170.89605041152896 L 264.40169570449746,173.66941019236938 L 265.52773057408433,176.26134652483393 L 266.8061611403069,178.61380390544215 L 268.20070271349005,180.66872683071384 L 269.67507060395866,182.36805979716866 L 271.1929801220375,183.6537473013263 L 272.71814657805135,184.4677338397064 L 274.21428528232514,184.75196390882874 L 274.21428528232514,184.75196390882874 L 274.21428528232514,184.75196390882874 L 274.21428528232514,184.75196390882874 L 274.21428528232514,184.75196390882874 L 274.21428528232514,184.75196390882874 L 274.21428528232514,184.75196390882874 L 274.21428528232514,184.75196390882874 L 274.21428528232514,184.75196390882874 L 274.21428528232514,184.75196390882874 L 274.21428528232514,184.75196390882874M239.8272848771461 10.171808005612101 L 238.94556691803894,129.20373248507798 L 224.45104288245568,137.70160680700786 L 210.05085904002806,148.72489553033103 L 196.1659177909881,161.72932830991968 L 183.21712153556805,176.17063480064593 L 171.62537267400026,191.5045446573819 L 161.8115736065167,207.18678753499967 L 154.1966267333499,222.67309308837144 L 149.2014344547318,237.41919097236928 L 147.24689917089484,250.88081084186535 L 147.24689917089484,250.88081084186535 L 148.13708355759283,266.45299016080173 L 151.886501490696,279.0570818643074 L 158.3500142115035,288.6640582006423 L 167.38248296131448,295.24489141806623 L 178.8387689814283,298.770553764839 L 192.5737335131441,299.2120174892205 L 208.4422377977612,296.54025483947055 L 226.29914307657882,290.72623806384905 L 245.99931059089616,281.74093941061574 L 245.99931059089616,281.74093941061574 L 249.82008841369384,279.87953483027843 L 253.64086623649152,278.0181302499411 L 257.4616440592892,276.1567256696038 L 261.28242188208685,274.29532108926645 L 265.1031997048845,272.43391650892914 L 268.9239775276822,270.5725119285918 L 272.74475535047986,268.7111073482545 L 276.5655331732775,266.84970276791717 L 280.3863109960752,264.9882981875798 L 280.3863109960752,264.9882981875798 L 280.97412296881333,268.2212640376394 L 281.5619349415514,271.45422988769894 L 282.1497469142895,274.68719573775854 L 282.7375588870276,277.92016158781814 L 283.3253708597657,281.15312743787763 L 283.9131828325038,284.38609328793723 L 284.50099480524193,287.6190591379968 L 285.08880677798004,290.85202498805637 L 285.67661875071815,294.08499083811597 L 285.67661875071815,294.08499083811597 L 287.0082668617976,299.6849279446539 L 288.6229355523437,305.24858036151653 L 290.47708319474606,310.6743509576135 L 292.52716816139434,315.86064260185424 L 294.72964882467846,320.7058581631481 L 297.0409835569881,325.10840051040475 L 299.41763073071314,328.9666725125334 L 301.81604871824334,332.1790770384437 L 304.19269589196836,334.64401695704504 L 304.19269589196836,334.64401695704504 L 310.62597137137976,338.60630506957597 L 317.9083085891908,341.1317194709693 L 325.6478328969091,342.2855726026404 L 333.4526696460429,342.1331769060046 L 340.93094418809983,340.73984482247727 L 347.69078187458797,338.1708887934737 L 353.3403080570153,334.49162126040926 L 357.48764808688975,329.7673546646993 L 359.74092731571915,324.06340144775925 L 359.74092731571915,324.06340144775925 L 360.3214823505221,320.2680229077342 L 360.27068378497694,317.08222715425234 L 359.54498999147313,314.46247255970354 L 358.1008593424005,312.36521749647744 L 355.89475021014886,310.74692033696385 L 352.8831209671079,309.56403945355265 L 349.0224299856675,308.77303321863343 L 344.2691356382174,308.3303600045962 L 338.5796962971474,308.1924781838304 L 338.5796962971474,308.1924781838304 L 335.93454241982596,308.1924781838304 L 333.28938854250447,308.1924781838304 L 330.64423466518303,308.1924781838304 L 327.99908078786154,308.1924781838304 L 325.3539269105401,308.1924781838304 L 322.7087730332186,308.1924781838304 L 320.0636191558972,308.1924781838304 L 317.4184652785757,308.1924781838304 L 314.77331140125426,308.1924781838304 L 314.77331140125426,308.1924781838304 L 315.4590920361153,300.94279718672715 L 316.1448726709765,293.6931161896239 L 316.83065330583753,286.44343519252055 L 317.5164339406987,279.19375419541734 L 318.2022145755599,271.944073198314 L 318.887995210421,264.6943922012108 L 319.57377584528206,257.44471120410753 L 320.25955648014326,250.19503020700424 L 320.9453371150043,242.94534920990097 L 320.9453371150043,242.94534920990097 L 322.21167278466845,226.6692469112659 L 323.0425921782304,212.92581595195912 L 323.39455366807977,201.43929269044935 L 323.2240156266064,191.93391348520498 L 322.4874364262,184.13391469469462 L 321.1412744392503,177.76353267738688 L 319.1419880381473,172.54700379175014 L 316.4460355952806,168.20856439625308 L 313.00987548303993,164.4724508493642 L 313.00987548303993,164.4724508493642 L 310.69854075073016,161.77045095821828 L 308.4960600874461,158.98862474978688 L 306.4459751207978,156.17777078961538 L 304.59182747839543,153.38868764324897 L 302.9771587878495,150.67217387623302 L 301.6455106767699,148.07902805411268 L 300.6404247727671,145.66004874243325 L 300.00544270345125,143.46603450673996 L 299.7841060964326,141.54778391257818 L 299.7841060964326,141.54778391257818 L 298.6846799992743,135.31891218500365 L 295.56056821824035,130.18583808561985 L 290.6730205189921,126.19936017997215 L 284.2832866671908,123.41027703360572 L 276.65261642849805,121.86938721206594 L 268.04225956857505,121.62748928089803 L 258.7134658530833,122.73538180564718 L 248.92748504768414,125.24386335185875 L 238.94556691803894,129.20373248507798 L 238.94556691803894,129.20373248507798 L 238.94556691803894,129.20373248507798 L 238.94556691803894,129.20373248507798 L 238.94556691803894,129.20373248507798 L 238.94556691803894,129.20373248507798 L 238.94556691803894,129.20373248507798 L 238.94556691803894,129.20373248507798 L 238.94556691803894,129.20373248507798 L 238.94556691803894,129.20373248507798 L 238.94556691803894,129.20373248507798 L 274.21428528232514,184.75196390882874 L 274.21428528232514,184.75196390882874 L 274.21428528232514,184.75196390882874 L 274.21428528232514,184.75196390882874 L 274.21428528232514,184.75196390882874 L 274.21428528232514,184.75196390882874 L 274.21428528232514,184.75196390882874 L 274.21428528232514,184.75196390882874 L 274.21428528232514,184.75196390882874 L 274.21428528232514,184.75196390882874 L 274.21428528232514,184.75196390882874 L 279.2602761264884,185.72318410246808 L 282.1219286522052,188.47235409019171 L 282.900839990566,192.75273798220846 L 281.6986072726613,198.31759988872702 L 278.61682762958173,204.92020391995604 L 273.7570981924177,212.31381418610425 L 267.22101609225984,220.2516947973803 L 259.1101784601987,228.48710986399297 L 249.52618242732478,236.77332349615088 L 249.52618242732478,236.77332349615088 L 238.19205486245076,245.18411456286032 L 226.77810098029136,252.13626110462698 L 215.66168155346855,257.5426798662305 L 205.22015735460423,261.31628759245046 L 195.83088915632052,263.37000102806627 L 187.87123773123932,263.6167369178576 L 181.71856385198262,261.96941200660393 L 177.75022829117253,258.3409430390848 L 176.34359182143095,252.64424676007965 L 176.34359182143095,252.64424676007965 L 177.44059893927755,246.1746865909931 L 180.54777786512977,238.18116945554831 L 185.38936495745625,229.03379918843254 L 191.6895965747253,219.10267962433258 L 199.17270907540563,208.75791459793547 L 207.56293881796572,198.36960794392812 L 216.58452216087417,188.30786349699756 L 225.96169546259958,178.94278509183061 L 235.4186950816103,170.64447656311427 L 235.4186950816103,170.64447656311427 L 242.53896068553868,165.1255752635177 L 248.16429707484926,160.91292279222787 L 252.49789851172298,158.006519149245 L 255.74295925834093,156.4063643345691 L 258.10267357688423,156.1124583482 L 259.7802357295339,157.12480119013793 L 260.97883997847106,159.44339286038263 L 261.90168058587676,163.06823335893426 L 262.7519518139321,167.9993226857928 L 262.7519518139321,167.9993226857928 L 263.4643412212217,170.89605041152896 L 264.40169570449746,173.66941019236938 L 265.52773057408433,176.26134652483393 L 266.8061611403069,178.61380390544215 L 268.20070271349005,180.66872683071384 L 269.67507060395866,182.36805979716866 L 271.1929801220375,183.6537473013263 L 272.71814657805135,184.4677338397064 L 274.21428528232514,184.75196390882874 L 274.21428528232514,184.75196390882874 L 274.21428528232514,184.75196390882874 L 274.21428528232514,184.75196390882874 L 274.21428528232514,184.75196390882874 L 274.21428528232514,184.75196390882874 L 274.21428528232514,184.75196390882874 L 274.21428528232514,184.75196390882874 L 274.21428528232514,184.75196390882874 L 274.21428528232514,184.75196390882874 L 274.21428528232514,184.75196390882874 L 239.8272848771461,10.171808005612101 L 234.55995742596406,16.499857884965568 L 231.0633228309315,22.980303460954655 L 229.27932558856793,29.373665781723417 L 229.14991019539303,35.44046589541549 L 230.6170211479266,40.94122485017453 L 233.6226029426883,45.63646369414433 L 238.10860007619783,49.286703475468634 L 244.01695704497482,51.652465242291086 L 251.28961834553908,52.49427004275553 L 251.28961834553908,52.49427004275553 L 258.6239636185511,51.50490750427872 L 265.7478576914471,48.7593659855225 L 272.38553692269545,44.59146463149879 L 278.26123767076484,39.335022587219356 L 283.09919629412366,33.323858997695964 L 286.62364915124056,26.891793007940347 L 288.55883260058414,20.372643762964298 L 288.62898300062284,14.100230407779517 L 286.5583367098253,8.408372087397792 L 286.5583367098253,8.408372087397792 L 283.5043753288299,4.81134985093057 L 279.2385053126833,2.230298925368501 L 274.0510041787868,0.6361915589717415 L 268.2321494445419,0.0 L 262.0722186273502,0.2926964967132833 L 255.8614892446132,1.485253297371248 L 249.89023881373257,3.5486426502338015 L 244.44874485210963,6.4538368035608 L 239.8272848771461,10.171808005612101 L 239.8272848771461,10.171808005612101 L 239.8272848771461,10.171808005612101 L 239.8272848771461,10.171808005612101 L 239.8272848771461,10.171808005612101 L 239.8272848771461,10.171808005612101 L 239.8272848771461,10.171808005612101 L 239.8272848771461,10.171808005612101 L 239.8272848771461,10.171808005612101 L 239.8272848771461,10.171808005612101 L 239.8272848771461,10.171808005612101M354.4506195610762 31.33303902418382 L 238.94556691803894,129.20373248507798 L 224.45104288245568,137.70160680700786 L 210.05085904002806,148.72489553033103 L 196.1659177909881,161.72932830991968 L 183.21712153556805,176.17063480064593 L 171.62537267400026,191.5045446573819 L 161.8115736065167,207.18678753499967 L 154.1966267333499,222.67309308837144 L 149.2014344547318,237.41919097236928 L 147.24689917089484,250.88081084186535 L 147.24689917089484,250.88081084186535 L 148.13708355759283,266.45299016080173 L 151.886501490696,279.0570818643074 L 158.3500142115035,288.6640582006423 L 167.38248296131448,295.24489141806623 L 178.8387689814283,298.770553764839 L 192.5737335131441,299.2120174892205 L 208.4422377977612,296.54025483947055 L 226.29914307657882,290.72623806384905 L 245.99931059089616,281.74093941061574 L 245.99931059089616,281.74093941061574 L 249.82008841369384,279.87953483027843 L 253.64086623649152,278.0181302499411 L 257.4616440592892,276.1567256696038 L 261.28242188208685,274.29532108926645 L 265.1031997048845,272.43391650892914 L 268.9239775276822,270.5725119285918 L 272.74475535047986,268.7111073482545 L 276.5655331732775,266.84970276791717 L 280.3863109960752,264.9882981875798 L 280.3863109960752,264.9882981875798 L 280.97412296881333,268.2212640376394 L 281.5619349415514,271.45422988769894 L 282.1497469142895,274.68719573775854 L 282.7375588870276,277.92016158781814 L 283.3253708597657,281.15312743787763 L 283.9131828325038,284.38609328793723 L 284.50099480524193,287.6190591379968 L 285.08880677798004,290.85202498805637 L 285.67661875071815,294.08499083811597 L 285.67661875071815,294.08499083811597 L 287.0082668617976,299.6849279446539 L 288.6229355523437,305.24858036151653 L 290.47708319474606,310.6743509576135 L 292.52716816139434,315.86064260185424 L 294.72964882467846,320.7058581631481 L 297.0409835569881,325.10840051040475 L 299.41763073071314,328.9666725125334 L 301.81604871824334,332.1790770384437 L 304.19269589196836,334.64401695704504 L 304.19269589196836,334.64401695704504 L 310.62597137137976,338.60630506957597 L 317.9083085891908,341.1317194709693 L 325.6478328969091,342.2855726026404 L 333.4526696460429,342.1331769060046 L 340.93094418809983,340.73984482247727 L 347.69078187458797,338.1708887934737 L 353.3403080570153,334.49162126040926 L 357.48764808688975,329.7673546646993 L 359.74092731571915,324.06340144775925 L 359.74092731571915,324.06340144775925 L 360.3214823505221,320.2680229077342 L 360.27068378497694,317.08222715425234 L 359.54498999147313,314.46247255970354 L 358.1008593424005,312.36521749647744 L 355.89475021014886,310.74692033696385 L 352.8831209671079,309.56403945355265 L 349.0224299856675,308.77303321863343 L 344.2691356382174,308.3303600045962 L 338.5796962971474,308.1924781838304 L 338.5796962971474,308.1924781838304 L 335.93454241982596,308.1924781838304 L 333.28938854250447,308.1924781838304 L 330.64423466518303,308.1924781838304 L 327.99908078786154,308.1924781838304 L 325.3539269105401,308.1924781838304 L 322.7087730332186,308.1924781838304 L 320.0636191558972,308.1924781838304 L 317.4184652785757,308.1924781838304 L 314.77331140125426,308.1924781838304 L 314.77331140125426,308.1924781838304 L 315.4590920361153,300.94279718672715 L 316.1448726709765,293.6931161896239 L 316.83065330583753,286.44343519252055 L 317.5164339406987,279.19375419541734 L 318.2022145755599,271.944073198314 L 318.887995210421,264.6943922012108 L 319.57377584528206,257.44471120410753 L 320.25955648014326,250.19503020700424 L 320.9453371150043,242.94534920990097 L 320.9453371150043,242.94534920990097 L 322.21167278466845,226.6692469112659 L 323.0425921782304,212.92581595195912 L 323.39455366807977,201.43929269044935 L 323.2240156266064,191.93391348520498 L 322.4874364262,184.13391469469462 L 321.1412744392503,177.76353267738688 L 319.1419880381473,172.54700379175014 L 316.4460355952806,168.20856439625308 L 313.00987548303993,164.4724508493642 L 313.00987548303993,164.4724508493642 L 310.69854075073016,161.77045095821828 L 308.4960600874461,158.98862474978688 L 306.4459751207978,156.17777078961538 L 304.59182747839543,153.38868764324897 L 302.9771587878495,150.67217387623302 L 301.6455106767699,148.07902805411268 L 300.6404247727671,145.66004874243325 L 300.00544270345125,143.46603450673996 L 299.7841060964326,141.54778391257818 L 299.7841060964326,141.54778391257818 L 298.6846799992743,135.31891218500365 L 295.56056821824035,130.18583808561985 L 290.6730205189921,126.19936017997215 L 284.2832866671908,123.41027703360572 L 276.65261642849805,121.86938721206594 L 268.04225956857505,121.62748928089803 L 258.7134658530833,122.73538180564718 L 248.92748504768414,125.24386335185875 L 238.94556691803894,129.20373248507798 L 238.94556691803894,129.20373248507798 L 238.94556691803894,129.20373248507798 L 238.94556691803894,129.20373248507798 L 238.94556691803894,129.20373248507798 L 238.94556691803894,129.20373248507798 L 238.94556691803894,129.20373248507798 L 238.94556691803894,129.20373248507798 L 238.94556691803894,129.20373248507798 L 238.94556691803894,129.20373248507798 L 238.94556691803894,129.20373248507798 L 274.21428528232514,184.75196390882874 L 274.21428528232514,184.75196390882874 L 274.21428528232514,184.75196390882874 L 274.21428528232514,184.75196390882874 L 274.21428528232514,184.75196390882874 L 274.21428528232514,184.75196390882874 L 274.21428528232514,184.75196390882874 L 274.21428528232514,184.75196390882874 L 274.21428528232514,184.75196390882874 L 274.21428528232514,184.75196390882874 L 274.21428528232514,184.75196390882874 L 279.2602761264884,185.72318410246808 L 282.1219286522052,188.47235409019171 L 282.900839990566,192.75273798220846 L 281.6986072726613,198.31759988872702 L 278.61682762958173,204.92020391995604 L 273.7570981924177,212.31381418610425 L 267.22101609225984,220.2516947973803 L 259.1101784601987,228.48710986399297 L 249.52618242732478,236.77332349615088 L 249.52618242732478,236.77332349615088 L 238.19205486245076,245.18411456286032 L 226.77810098029136,252.13626110462698 L 215.66168155346855,257.5426798662305 L 205.22015735460423,261.31628759245046 L 195.83088915632052,263.37000102806627 L 187.87123773123932,263.6167369178576 L 181.71856385198262,261.96941200660393 L 177.75022829117253,258.3409430390848 L 176.34359182143095,252.64424676007965 L 176.34359182143095,252.64424676007965 L 177.44059893927755,246.1746865909931 L 180.54777786512977,238.18116945554831 L 185.38936495745625,229.03379918843254 L 191.6895965747253,219.10267962433258 L 199.17270907540563,208.75791459793547 L 207.56293881796572,198.36960794392812 L 216.58452216087417,188.30786349699756 L 225.96169546259958,178.94278509183061 L 235.4186950816103,170.64447656311427 L 235.4186950816103,170.64447656311427 L 242.53896068553868,165.1255752635177 L 248.16429707484926,160.91292279222787 L 252.49789851172298,158.006519149245 L 255.74295925834093,156.4063643345691 L 258.10267357688423,156.1124583482 L 259.7802357295339,157.12480119013793 L 260.97883997847106,159.44339286038263 L 261.90168058587676,163.06823335893426 L 262.7519518139321,167.9993226857928 L 262.7519518139321,167.9993226857928 L 263.4643412212217,170.89605041152896 L 264.40169570449746,173.66941019236938 L 265.52773057408433,176.26134652483393 L 266.8061611403069,178.61380390544215 L 268.20070271349005,180.66872683071384 L 269.67507060395866,182.36805979716866 L 271.1929801220375,183.6537473013263 L 272.71814657805135,184.4677338397064 L 274.21428528232514,184.75196390882874 L 274.21428528232514,184.75196390882874 L 274.21428528232514,184.75196390882874 L 274.21428528232514,184.75196390882874 L 274.21428528232514,184.75196390882874 L 274.21428528232514,184.75196390882874 L 274.21428528232514,184.75196390882874 L 274.21428528232514,184.75196390882874 L 274.21428528232514,184.75196390882874 L 274.21428528232514,184.75196390882874 L 274.21428528232514,184.75196390882874 L 239.8272848771461,10.171808005612101 L 234.55995742596406,16.499857884965568 L 231.0633228309315,22.980303460954655 L 229.27932558856793,29.373665781723417 L 229.14991019539303,35.44046589541549 L 230.6170211479266,40.94122485017453 L 233.6226029426883,45.63646369414433 L 238.10860007619783,49.286703475468634 L 244.01695704497482,51.652465242291086 L 251.28961834553908,52.49427004275553 L 251.28961834553908,52.49427004275553 L 258.6239636185511,51.50490750427872 L 265.7478576914471,48.7593659855225 L 272.38553692269545,44.59146463149879 L 278.26123767076484,39.335022587219356 L 283.09919629412366,33.323858997695964 L 286.62364915124056,26.891793007940347 L 288.55883260058414,20.372643762964298 L 288.62898300062284,14.100230407779517 L 286.5583367098253,8.408372087397792 L 286.5583367098253,8.408372087397792 L 283.5043753288299,4.81134985093057 L 279.2385053126833,2.230298925368501 L 274.0510041787868,0.6361915589717415 L 268.2321494445419,0.0 L 262.0722186273502,0.2926964967132833 L 255.8614892446132,1.485253297371248 L 249.89023881373257,3.5486426502338015 L 244.44874485210963,6.4538368035608 L 239.8272848771461,10.171808005612101 L 239.8272848771461,10.171808005612101 L 239.8272848771461,10.171808005612101 L 239.8272848771461,10.171808005612101 L 239.8272848771461,10.171808005612101 L 239.8272848771461,10.171808005612101 L 239.8272848771461,10.171808005612101 L 239.8272848771461,10.171808005612101 L 239.8272848771461,10.171808005612101 L 239.8272848771461,10.171808005612101 L 239.8272848771461,10.171808005612101 L 354.4506195610762,31.33303902418382 L 347.7947979849901,36.703173096112266 L 342.5468223683017,42.160390423260935 L 338.74297740068585,47.59583693660468 L 336.4195477718177,52.90065856711769 L 335.61281817137257,57.96600124577437 L 336.3590732890257,62.68301090354936 L 338.6945978144522,66.9428334714168 L 342.65567643732726,70.63661488035133 L 348.27859384732614,73.65550106132724 L 348.27859384732614,73.65550106132724 L 354.64171892669884,75.42014646919746 L 360.7798789300855,76.01642486952639 L 366.6640461057458,75.4515932002492 L 372.2651927019394,73.73290839930097 L 377.5542909669265,70.86762740461667 L 382.5023131489667,66.8630071541314 L 387.08023149632015,61.72630458578014 L 391.25901825724634,55.464776637497934 L 395.0096456800053,48.085680247219756 L 395.0096456800053,48.085680247219756 L 398.7276168820565,38.106181096886296 L 400.0,29.96994418205245 L 398.99370460634145,23.756795820003806 L 395.8756402735866,19.546562328025725 L 390.8127165742415,17.419070023403727 L 383.97184308081205,17.45414522342303 L 375.51992936580405,19.731614245369247 L 365.62388500172347,24.331303406527706 L 354.4506195610762,31.33303902418382 L 354.4506195610762,31.33303902418382 L 354.4506195610762,31.33303902418382 L 354.4506195610762,31.33303902418382 L 354.4506195610762,31.33303902418382 L 354.4506195610762,31.33303902418382 L 354.4506195610762,31.33303902418382 L 354.4506195610762,31.33303902418382 L 354.4506195610762,31.33303902418382 L 354.4506195610762,31.33303902418382 L 354.4506195610762,31.33303902418382"/></svg>
