<?xml version="1.0" encoding="utf-8"?>
<svg xmlns="http://www.w3.org/2000/svg"  viewBox="0,0,400,624.9167213324588" width="100%">
<path d="M149.29681125102002 36.127421961248636 L 149.29681125102002,36.127421961248636 L 149.7601638373786,47.155725508392 L 151.2065406953489,55.995264075774784 L 153.72042047327247,62.66907729476321 L 157.3862818194909,67.20020479672333 L 162.2886033823459,69.6116862130206 L 168.51186381017905,69.92656117502118 L 176.14054175133202,68.16786931409096 L 185.25911585414636,64.35865026159588 L 195.95206476696376,58.52194364890163 L 195.95206476696376,58.52194364890163 L 207.08660661429414,51.11470216476543 L 215.01095982464287,43.91481736292215 L 219.76352378361952,37.06052703156752 L 221.382697876834,30.6900689588967 L 219.90688148989622,24.941680933104994 L 215.3744740084159,19.95360074238821 L 207.82387481800296,15.864066174941323 L 197.29348330426717,12.81131501895983 L 183.82169885281837,10.933585062639015 L 183.82169885281837,10.933585062639015 L 174.03625541991326,10.16943728900349 L 166.2936593014512,9.866082142685555 L 160.35583430665113,10.207836674613281 L 155.98470424473214,11.379017935713044 L 152.94219292491323,13.563942976912285 L 150.99022415641352,16.946928849138445 L 149.89072174845205,21.71229260331842 L 149.40560951024787,28.04435129037934 L 149.29681125102002,36.127421961248636 L 149.29681125102002,36.127421961248636 L 149.29681125102002,36.127421961248636 L 149.29681125102002,36.127421961248636 L 149.29681125102002,36.127421961248636 L 149.29681125102002,36.127421961248636 L 149.29681125102002,36.127421961248636 L 149.29681125102002,36.127421961248636 L 149.29681125102002,36.127421961248636 L 149.29681125102002,36.127421961248636 L 149.29681125102002,36.127421961248636"/></svg>
