<?xml version="1.0" encoding="utf-8"?>
<svg xmlns="http://www.w3.org/2000/svg"  viewBox="0,0,400,624.9167213324588" width="100%">
<path d="M149.29681125102002 36.127421961248636 L 149.29681125102002,36.127421961248636 L 149.7601638373786,47.155725508392 L 151.2065406953489,55.995264075774784 L 153.72042047327247,62.66907729476321 L 157.3862818194909,67.20020479672333 L 162.2886033823459,69.6116862130206 L 168.51186381017905,69.92656117502118 L 176.14054175133202,68.16786931409096 L 185.25911585414636,64.35865026159588 L 195.95206476696376,58.52194364890163 L 195.95206476696376,58.52194364890163 L 207.08660661429414,51.11470216476543 L 215.01095982464287,43.91481736292215 L 219.76352378361952,37.06052703156752 L 221.382697876834,30.6900689588967 L 219.90688148989622,24.941680933104994 L 215.3744740084159,19.95360074238821 L 207.82387481800296,15.864066174941323 L 197.29348330426717,12.81131501895983 L 183.82169885281837,10.933585062639015 L 183.82169885281837,10.933585062639015 L 174.03625541991326,10.16943728900349 L 166.2936593014512,9.866082142685555 L 160.35583430665113,10.207836674613281 L 155.98470424473214,11.379017935713044 L 152.94219292491323,13.563942976912285 L 150.99022415641352,16.946928849138445 L 149.89072174845205,21.71229260331842 L 149.40560951024787,28.04435129037934 L 149.29681125102002,36.127421961248636 L 149.29681125102002,36.127421961248636 L 149.29681125102002,36.127421961248636 L 149.29681125102002,36.127421961248636 L 149.29681125102002,36.127421961248636 L 149.29681125102002,36.127421961248636 L 149.29681125102002,36.127421961248636 L 149.29681125102002,36.127421961248636 L 149.29681125102002,36.127421961248636 L 149.29681125102002,36.127421961248636 L 149.29681125102002,36.127421961248636M174.49064814962964 192.88907377481965 L 149.29681125102002,36.127421961248636 L 149.7601638373786,47.155725508392 L 151.2065406953489,55.995264075774784 L 153.72042047327247,62.66907729476321 L 157.3862818194909,67.20020479672333 L 162.2886033823459,69.6116862130206 L 168.51186381017905,69.92656117502118 L 176.14054175133202,68.16786931409096 L 185.25911585414636,64.35865026159588 L 195.95206476696376,58.52194364890163 L 195.95206476696376,58.52194364890163 L 207.08660661429414,51.11470216476543 L 215.01095982464287,43.91481736292215 L 219.76352378361952,37.06052703156752 L 221.382697876834,30.6900689588967 L 219.90688148989622,24.941680933104994 L 215.3744740084159,19.95360074238821 L 207.82387481800296,15.864066174941323 L 197.29348330426717,12.81131501895983 L 183.82169885281837,10.933585062639015 L 183.82169885281837,10.933585062639015 L 174.03625541991326,10.16943728900349 L 166.2936593014512,9.866082142685555 L 160.35583430665113,10.207836674613281 L 155.98470424473214,11.379017935713044 L 152.94219292491323,13.563942976912285 L 150.99022415641352,16.946928849138445 L 149.89072174845205,21.71229260331842 L 149.40560951024787,28.04435129037934 L 149.29681125102002,36.127421961248636 L 149.29681125102002,36.127421961248636 L 149.29681125102002,36.127421961248636 L 149.29681125102002,36.127421961248636 L 149.29681125102002,36.127421961248636 L 149.29681125102002,36.127421961248636 L 149.29681125102002,36.127421961248636 L 149.29681125102002,36.127421961248636 L 149.29681125102002,36.127421961248636 L 149.29681125102002,36.127421961248636 L 149.29681125102002,36.127421961248636 L 174.49064814962964,192.88907377481965 L 165.83158669461292,216.81317098926428 L 155.26023583622666,251.2279803523144 L 143.49082414681368,293.2842674517208 L 131.23758019871684,340.1327978752341 L 119.21473256427898,388.9243372106047 L 108.13650981584296,436.80965104558334 L 98.7171405257516,480.9395049679205 L 91.67085326634775,518.464664565367 L 87.71187660997425,546.5358954256733 L 87.71187660997425,546.5358954256733 L 86.07094286491416,563.5749828002753 L 84.95224076414779,577.0275675589191 L 84.46328858738264,587.316042943313 L 84.71160461432619,594.8628021951649 L 85.80470712468602,600.0902385561832 L 87.85011439816964,603.4207452680757 L 90.95534471448458,605.2767155725509 L 95.22791635333836,606.0805427113166 L 100.7753475944385,606.2546199260813 L 100.7753475944385,606.2546199260813 L 105.20279675525191,605.9730244316092 L 109.16945328874739,605.1077582758677 L 112.6983568262908,603.628101950369 L 115.81254699924803,601.5033359466249 L 118.535063438985,598.7027407561479 L 120.88894577686757,595.1955968704502 L 122.89723364426168,590.9511847810436 L 124.58296667253326,585.9387849794405 L 125.96918449304813,580.1276779571529 L 125.96918449304813,580.1276779571529 L 131.38349786403415,554.2388121790053 L 135.83014671765255,534.4784883441865 L 140.2767955712709,519.9942400921586 L 145.69110894225693,509.9336010623831 L 153.04075134797847,503.4441048943218 L 163.2933873058031,499.6732852274364 L 177.4166813330987,497.76867570118884 L 196.37829794723282,496.8778099550408 L 221.14590166557338,496.148221628454 L 221.14590166557338,496.148221628454 L 229.54384729844327,495.8371866050144 L 237.94179293131313,495.5261515815748 L 246.339738564183,495.2151165581352 L 254.7376841970529,494.90408153469554 L 263.1356298299228,494.5930465112559 L 271.5335754627926,494.2820114878163 L 279.9315210956625,493.97097646437663 L 288.3294667285324,493.65994144093713 L 296.72741236140223,493.3489064174974 L 296.72741236140223,493.3489064174974 L 298.48994416089346,499.05121518055716 L 300.2524759603847,504.75352394361704 L 302.0150077598759,510.4558327066768 L 303.7775395593671,516.1581414697366 L 305.5400713588583,521.8604502327964 L 307.3026031583495,527.5627589958561 L 309.06513495784077,533.265067758916 L 310.8276667573319,538.9673765219758 L 312.5901985568231,544.6696852850355 L 312.5901985568231,544.6696852850355 L 319.17697316842924,564.7090446552855 L 325.3336746612055,581.3999776003585 L 331.183181069103,594.9191212940593 L 336.84837042607336,605.4431129101936 L 342.4521207660678,613.1485896225662 L 348.11731012303807,618.2121886049824 L 353.96681653093555,620.8105470312476 L 360.12351802371165,621.1203020751669 L 366.7102926353179,619.3180909105455 L 366.7102926353179,619.3180909105455 L 372.5188396985648,616.6736532215485 L 376.8912497400042,613.5069838882579 L 379.84288251387983,609.503207948673 L 381.38909777443575,604.3474504407931 L 381.5452552759156,597.7248364026176 L 380.32671477256366,589.3204908721461 L 377.7488360186237,578.8195388873779 L 373.8269787683398,565.9071054863123 L 368.57650277595565,550.2683157069488 L 368.57650277595565,550.2683157069488 L 363.0879505927905,534.0791347338444 L 359.0892945712869,520.7699076814772 L 356.61893409705453,510.04111934209067 L 355.7152685557031,501.59325450792807 L 356.41669733284266,495.1267979712325 L 358.761619814083,490.34223452424766 L 362.7884353850339,486.9400489592168 L 368.53554343130514,484.62072606838296 L 376.04134333850664,483.0847506439898 L 376.04134333850664,483.0847506439898 L 380.22047647237645,482.2233244268092 L 384.038655381514,480.8934257051888 L 387.4805203116751,479.11041423337235 L 390.5307115086159,476.8896497656038 L 393.1738692180926,474.2464920561272 L 395.3946336858611,471.19630085918635 L 397.17764515767755,467.7544359290252 L 398.50754387929794,463.93625701988776 L 399.3689700964785,459.7571238860179 L 399.3689700964785,459.7571238860179 L 400.0,454.3799299211214 L 399.9244812083008,449.98576022783635 L 398.98881617894125,446.45173677221175 L 397.0394073694822,443.65498152029573 L 393.9226572374843,441.4726164381371 L 389.4849682405081,439.7817634917842 L 383.5727428361147,438.4595446472857 L 376.03238348186426,437.38308187069015 L 366.7102926353179,436.4294971280461 L 366.7102926353179,436.4294971280461 L 362.8741940128958,436.11846210460635 L 359.03809539047376,435.8074270811668 L 355.2019967680518,435.4963920577272 L 351.3658981456297,435.1853570342875 L 347.52979952320766,434.87432201084795 L 343.6937009007856,434.5632869874083 L 339.85760227836363,434.2522519639686 L 336.02150365594156,433.9412169405291 L 332.1854050335195,433.6301819170894 L 332.1854050335195,433.6301819170894 L 327.8309147053647,419.8409625445994 L 323.47642437721004,406.0517431721093 L 319.12193404905526,392.2625237996193 L 314.7674437209005,378.4733044271293 L 310.4129533927458,364.6840850546392 L 306.058463064591,350.8948656821492 L 301.70397273643624,337.1056463096591 L 297.3494824082815,323.31642693716907 L 292.99499208012674,309.52720756467903 L 292.99499208012674,309.52720756467903 L 279.88672181245096,268.7086606614296 L 268.8596982448281,235.88486584214655 L 259.43776899569616,210.20335674629203 L 251.1447816834931,190.81166701332782 L 243.50458392665723,176.85733028271548 L 236.04102334362653,167.487880193917 L 228.27794755283918,161.8508503863939 L 219.73920417273325,159.09377449960814 L 209.9486408217469,158.36418617302127 L 209.9486408217469,158.36418617302127 L 205.1691972928433,158.71874050015214 L 200.74302811155025,159.81824290811346 L 196.6086942608919,161.71645253675936 L 192.70475672389244,164.46712852594362 L 188.96977648357628,168.12403001551974 L 185.34231452296765,172.74091614534177 L 181.7609318250908,178.37154605526314 L 178.16418937297004,185.0696788851379 L 174.49064814962964,192.88907377481965 L 174.49064814962964,192.88907377481965 L 174.49064814962964,192.88907377481965 L 174.49064814962964,192.88907377481965 L 174.49064814962964,192.88907377481965 L 174.49064814962964,192.88907377481965 L 174.49064814962964,192.88907377481965 L 174.49064814962964,192.88907377481965 L 174.49064814962964,192.88907377481965 L 174.49064814962964,192.88907377481965 L 174.49064814962964,192.88907377481965 L 252.87147405641514,337.5203596742453 L 252.87147405641514,337.5203596742453 L 252.87147405641514,337.5203596742453 L 252.87147405641514,337.5203596742453 L 252.87147405641514,337.5203596742453 L 252.87147405641514,337.5203596742453 L 252.87147405641514,337.5203596742453 L 252.87147405641514,337.5203596742453 L 252.87147405641514,337.5203596742453 L 252.87147405641514,337.5203596742453 L 252.87147405641514,337.5203596742453 L 257.4550807187086,354.92552119166106 L 261.8236508215869,371.4935761027824 L 265.90038559383055,386.9403689540968 L 269.6084862642199,400.98174429209143 L 272.87115406153504,413.33354666325346 L 275.61159021455654,423.7116206140702 L 277.7529959520648,431.8318106910291 L 279.21857250283995,437.409961440617 L 279.9315210956625,440.1619174093215 L 279.9315210956625,440.1619174093215 L 276.8314106974288,443.03675141197755 L 268.40146557655083,445.94998480024327 L 255.94726484376258,448.7326602774357 L 240.7743876097983,451.2158205468713 L 224.18841298539226,453.23050831186697 L 207.49492008127874,454.60776627573966 L 191.9994880081919,455.17863714180584 L 179.007695876866,454.77416361338226 L 169.82512279803527,453.22538839378575 L 169.82512279803527,453.22538839378575 L 164.29433129069938,451.1390217756517 L 160.13823778819543,448.7684997040048 L 157.34916241340142,445.41495336074627 L 155.91942528919537,440.3795139277772 L 155.84134653845544,432.9633125869987 L 157.10724628405947,422.46748052031177 L 159.70944464888564,408.1931489096175 L 163.64026175581193,389.4414489368171 L 168.89201772771636,365.5135117838115 L 168.89201772771636,365.5135117838115 L 176.7907713476584,330.8004671925251 L 183.76793971296462,301.73213228588344 L 189.93872098046435,278.0089918561303 L 195.4183133069871,259.33153069550895 L 200.32191484936243,245.4002335962625 L 204.76472376441976,235.91558535063444 L 208.86193820898868,230.5780707508681 L 212.72875633989858,229.0881745892067 L 216.480376313979,231.14638165789353 L 216.480376313979,231.14638165789353 L 218.7113806179101,234.51784771443667 L 221.61053423145233,240.70014879761925 L 225.08567862914197,249.39376969968484 L 229.0446552855155,260.29919521287667 L 233.39530567510926,273.11691012943794 L 238.04547127245965,287.5473992416122 L 242.9029935521032,303.2911473416426 L 247.8757139885762,320.04863922177253 L 252.87147405641514,337.5203596742453 L 252.87147405641514,337.5203596742453 L 252.87147405641514,337.5203596742453 L 252.87147405641514,337.5203596742453 L 252.87147405641514,337.5203596742453 L 252.87147405641514,337.5203596742453 L 252.87147405641514,337.5203596742453 L 252.87147405641514,337.5203596742453 L 252.87147405641514,337.5203596742453 L 252.87147405641514,337.5203596742453 L 252.87147405641514,337.5203596742453M302.32604278331553 12.799795203276766 L 149.29681125102002,36.127421961248636 L 149.7601638373786,47.155725508392 L 151.2065406953489,55.995264075774784 L 153.72042047327247,62.66907729476321 L 157.3862818194909,67.20020479672333 L 162.2886033823459,69.6116862130206 L 168.51186381017905,69.92656117502118 L 176.14054175133202,68.16786931409096 L 185.25911585414636,64.35865026159588 L 195.95206476696376,58.52194364890163 L 195.95206476696376,58.52194364890163 L 207.08660661429414,51.11470216476543 L 215.01095982464287,43.91481736292215 L 219.76352378361952,37.06052703156752 L 221.382697876834,30.6900689588967 L 219.90688148989622,24.941680933104994 L 215.3744740084159,19.95360074238821 L 207.82387481800296,15.864066174941323 L 197.29348330426717,12.81131501895983 L 183.82169885281837,10.933585062639015 L 183.82169885281837,10.933585062639015 L 174.03625541991326,10.16943728900349 L 166.2936593014512,9.866082142685555 L 160.35583430665113,10.207836674613281 L 155.98470424473214,11.379017935713044 L 152.94219292491323,13.563942976912285 L 150.99022415641352,16.946928849138445 L 149.89072174845205,21.71229260331842 L 149.40560951024787,28.04435129037934 L 149.29681125102002,36.127421961248636 L 149.29681125102002,36.127421961248636 L 149.29681125102002,36.127421961248636 L 149.29681125102002,36.127421961248636 L 149.29681125102002,36.127421961248636 L 149.29681125102002,36.127421961248636 L 149.29681125102002,36.127421961248636 L 149.29681125102002,36.127421961248636 L 149.29681125102002,36.127421961248636 L 149.29681125102002,36.127421961248636 L 149.29681125102002,36.127421961248636 L 174.49064814962964,192.88907377481965 L 165.83158669461292,216.81317098926428 L 155.26023583622666,251.2279803523144 L 143.49082414681368,293.2842674517208 L 131.23758019871684,340.1327978752341 L 119.21473256427898,388.9243372106047 L 108.13650981584296,436.80965104558334 L 98.7171405257516,480.9395049679205 L 91.67085326634775,518.464664565367 L 87.71187660997425,546.5358954256733 L 87.71187660997425,546.5358954256733 L 86.07094286491416,563.5749828002753 L 84.95224076414779,577.0275675589191 L 84.46328858738264,587.316042943313 L 84.71160461432619,594.8628021951649 L 85.80470712468602,600.0902385561832 L 87.85011439816964,603.4207452680757 L 90.95534471448458,605.2767155725509 L 95.22791635333836,606.0805427113166 L 100.7753475944385,606.2546199260813 L 100.7753475944385,606.2546199260813 L 105.20279675525191,605.9730244316092 L 109.16945328874739,605.1077582758677 L 112.6983568262908,603.628101950369 L 115.81254699924803,601.5033359466249 L 118.535063438985,598.7027407561479 L 120.88894577686757,595.1955968704502 L 122.89723364426168,590.9511847810436 L 124.58296667253326,585.9387849794405 L 125.96918449304813,580.1276779571529 L 125.96918449304813,580.1276779571529 L 131.38349786403415,554.2388121790053 L 135.83014671765255,534.4784883441865 L 140.2767955712709,519.9942400921586 L 145.69110894225693,509.9336010623831 L 153.04075134797847,503.4441048943218 L 163.2933873058031,499.6732852274364 L 177.4166813330987,497.76867570118884 L 196.37829794723282,496.8778099550408 L 221.14590166557338,496.148221628454 L 221.14590166557338,496.148221628454 L 229.54384729844327,495.8371866050144 L 237.94179293131313,495.5261515815748 L 246.339738564183,495.2151165581352 L 254.7376841970529,494.90408153469554 L 263.1356298299228,494.5930465112559 L 271.5335754627926,494.2820114878163 L 279.9315210956625,493.97097646437663 L 288.3294667285324,493.65994144093713 L 296.72741236140223,493.3489064174974 L 296.72741236140223,493.3489064174974 L 298.48994416089346,499.05121518055716 L 300.2524759603847,504.75352394361704 L 302.0150077598759,510.4558327066768 L 303.7775395593671,516.1581414697366 L 305.5400713588583,521.8604502327964 L 307.3026031583495,527.5627589958561 L 309.06513495784077,533.265067758916 L 310.8276667573319,538.9673765219758 L 312.5901985568231,544.6696852850355 L 312.5901985568231,544.6696852850355 L 319.17697316842924,564.7090446552855 L 325.3336746612055,581.3999776003585 L 331.183181069103,594.9191212940593 L 336.84837042607336,605.4431129101936 L 342.4521207660678,613.1485896225662 L 348.11731012303807,618.2121886049824 L 353.96681653093555,620.8105470312476 L 360.12351802371165,621.1203020751669 L 366.7102926353179,619.3180909105455 L 366.7102926353179,619.3180909105455 L 372.5188396985648,616.6736532215485 L 376.8912497400042,613.5069838882579 L 379.84288251387983,609.503207948673 L 381.38909777443575,604.3474504407931 L 381.5452552759156,597.7248364026176 L 380.32671477256366,589.3204908721461 L 377.7488360186237,578.8195388873779 L 373.8269787683398,565.9071054863123 L 368.57650277595565,550.2683157069488 L 368.57650277595565,550.2683157069488 L 363.0879505927905,534.0791347338444 L 359.0892945712869,520.7699076814772 L 356.61893409705453,510.04111934209067 L 355.7152685557031,501.59325450792807 L 356.41669733284266,495.1267979712325 L 358.761619814083,490.34223452424766 L 362.7884353850339,486.9400489592168 L 368.53554343130514,484.62072606838296 L 376.04134333850664,483.0847506439898 L 376.04134333850664,483.0847506439898 L 380.22047647237645,482.2233244268092 L 384.038655381514,480.8934257051888 L 387.4805203116751,479.11041423337235 L 390.5307115086159,476.8896497656038 L 393.1738692180926,474.2464920561272 L 395.3946336858611,471.19630085918635 L 397.17764515767755,467.7544359290252 L 398.50754387929794,463.93625701988776 L 399.3689700964785,459.7571238860179 L 399.3689700964785,459.7571238860179 L 400.0,454.3799299211214 L 399.9244812083008,449.98576022783635 L 398.98881617894125,446.45173677221175 L 397.0394073694822,443.65498152029573 L 393.9226572374843,441.4726164381371 L 389.4849682405081,439.7817634917842 L 383.5727428361147,438.4595446472857 L 376.03238348186426,437.38308187069015 L 366.7102926353179,436.4294971280461 L 366.7102926353179,436.4294971280461 L 362.8741940128958,436.11846210460635 L 359.03809539047376,435.8074270811668 L 355.2019967680518,435.4963920577272 L 351.3658981456297,435.1853570342875 L 347.52979952320766,434.87432201084795 L 343.6937009007856,434.5632869874083 L 339.85760227836363,434.2522519639686 L 336.02150365594156,433.9412169405291 L 332.1854050335195,433.6301819170894 L 332.1854050335195,433.6301819170894 L 327.8309147053647,419.8409625445994 L 323.47642437721004,406.0517431721093 L 319.12193404905526,392.2625237996193 L 314.7674437209005,378.4733044271293 L 310.4129533927458,364.6840850546392 L 306.058463064591,350.8948656821492 L 301.70397273643624,337.1056463096591 L 297.3494824082815,323.31642693716907 L 292.99499208012674,309.52720756467903 L 292.99499208012674,309.52720756467903 L 279.88672181245096,268.7086606614296 L 268.8596982448281,235.88486584214655 L 259.43776899569616,210.20335674629203 L 251.1447816834931,190.81166701332782 L 243.50458392665723,176.85733028271548 L 236.04102334362653,167.487880193917 L 228.27794755283918,161.8508503863939 L 219.73920417273325,159.09377449960814 L 209.9486408217469,158.36418617302127 L 209.9486408217469,158.36418617302127 L 205.1691972928433,158.71874050015214 L 200.74302811155025,159.81824290811346 L 196.6086942608919,161.71645253675936 L 192.70475672389244,164.46712852594362 L 188.96977648357628,168.12403001551974 L 185.34231452296765,172.74091614534177 L 181.7609318250908,178.37154605526314 L 178.16418937297004,185.0696788851379 L 174.49064814962964,192.88907377481965 L 174.49064814962964,192.88907377481965 L 174.49064814962964,192.88907377481965 L 174.49064814962964,192.88907377481965 L 174.49064814962964,192.88907377481965 L 174.49064814962964,192.88907377481965 L 174.49064814962964,192.88907377481965 L 174.49064814962964,192.88907377481965 L 174.49064814962964,192.88907377481965 L 174.49064814962964,192.88907377481965 L 174.49064814962964,192.88907377481965 L 252.87147405641514,337.5203596742453 L 252.87147405641514,337.5203596742453 L 252.87147405641514,337.5203596742453 L 252.87147405641514,337.5203596742453 L 252.87147405641514,337.5203596742453 L 252.87147405641514,337.5203596742453 L 252.87147405641514,337.5203596742453 L 252.87147405641514,337.5203596742453 L 252.87147405641514,337.5203596742453 L 252.87147405641514,337.5203596742453 L 252.87147405641514,337.5203596742453 L 257.4550807187086,354.92552119166106 L 261.8236508215869,371.4935761027824 L 265.90038559383055,386.9403689540968 L 269.6084862642199,400.98174429209143 L 272.87115406153504,413.33354666325346 L 275.61159021455654,423.7116206140702 L 277.7529959520648,431.8318106910291 L 279.21857250283995,437.409961440617 L 279.9315210956625,440.1619174093215 L 279.9315210956625,440.1619174093215 L 276.8314106974288,443.03675141197755 L 268.40146557655083,445.94998480024327 L 255.94726484376258,448.7326602774357 L 240.7743876097983,451.2158205468713 L 224.18841298539226,453.23050831186697 L 207.49492008127874,454.60776627573966 L 191.9994880081919,455.17863714180584 L 179.007695876866,454.77416361338226 L 169.82512279803527,453.22538839378575 L 169.82512279803527,453.22538839378575 L 164.29433129069938,451.1390217756517 L 160.13823778819543,448.7684997040048 L 157.34916241340142,445.41495336074627 L 155.91942528919537,440.3795139277772 L 155.84134653845544,432.9633125869987 L 157.10724628405947,422.46748052031177 L 159.70944464888564,408.1931489096175 L 163.64026175581193,389.4414489368171 L 168.89201772771636,365.5135117838115 L 168.89201772771636,365.5135117838115 L 176.7907713476584,330.8004671925251 L 183.76793971296462,301.73213228588344 L 189.93872098046435,278.0089918561303 L 195.4183133069871,259.33153069550895 L 200.32191484936243,245.4002335962625 L 204.76472376441976,235.91558535063444 L 208.86193820898868,230.5780707508681 L 212.72875633989858,229.0881745892067 L 216.480376313979,231.14638165789353 L 216.480376313979,231.14638165789353 L 218.7113806179101,234.51784771443667 L 221.61053423145233,240.70014879761925 L 225.08567862914197,249.39376969968484 L 229.0446552855155,260.29919521287667 L 233.39530567510926,273.11691012943794 L 238.04547127245965,287.5473992416122 L 242.9029935521032,303.2911473416426 L 247.8757139885762,320.04863922177253 L 252.87147405641514,337.5203596742453 L 252.87147405641514,337.5203596742453 L 252.87147405641514,337.5203596742453 L 252.87147405641514,337.5203596742453 L 252.87147405641514,337.5203596742453 L 252.87147405641514,337.5203596742453 L 252.87147405641514,337.5203596742453 L 252.87147405641514,337.5203596742453 L 252.87147405641514,337.5203596742453 L 252.87147405641514,337.5203596742453 L 252.87147405641514,337.5203596742453 L 302.32604278331553,12.799795203276766 L 299.195212876594,25.365354154333552 L 298.9136173821219,37.846434457048716 L 301.1510215836547,49.74384409849436 L 305.57719076494783,60.55839106574298 L 311.8618902097567,69.79088334586646 L 319.6748852018368,76.94212892593734 L 328.68594102494365,81.51293579302737 L 338.56482296283264,83.00411193420918 L 348.98129629925927,80.91646533655465 L 348.98129629925927,80.91646533655465 L 355.06375897985623,76.3584582646679 L 359.6256059903042,68.85137837794589 L 362.6668373306028,59.24769203692727 L 364.18745300075204,48.39986560215032 L 364.18745300075204,37.160365434153114 L 362.66683733060273,26.381657893473818 L 359.62560599030417,16.91620934065059 L 355.0637589798564,9.616486136221814 L 348.98129629925927,5.334954640725763 L 348.98129629925927,5.334954640725763 L 341.17598118430107,2.6725972384442964 L 333.95433673061234,0.9011055823106813 L 327.3470824466809,0.012799795203192639 L 321.3849378409946,0.0 L 316.0986224220413,0.8550263195788483 L 311.51885569830887,2.570198876818013 L 307.67635717828523,5.137837794595344 L 304.60184637045813,8.550263195788908 L 302.32604278331553,12.799795203276766 L 302.32604278331553,12.799795203276766 L 302.32604278331553,12.799795203276766 L 302.32604278331553,12.799795203276766 L 302.32604278331553,12.799795203276766 L 302.32604278331553,12.799795203276766 L 302.32604278331553,12.799795203276766 L 302.32604278331553,12.799795203276766 L 302.32604278331553,12.799795203276766 L 302.32604278331553,12.799795203276766 L 302.32604278331553,12.799795203276766"/></svg>
