<?xml version="1.0" encoding="utf-8"?>
<svg xmlns="http://www.w3.org/2000/svg"  viewBox="0,0,400,516.2575328682824" width="100%">
<path d="M144.63107102241526 19.346495998412824 L 144.63107102241526,19.346495998412824 L 144.87198109564483,24.443869724335183 L 145.64005909382382,28.75049156283319 L 147.00332668468772,32.31737776470879 L 149.02980553597178,35.19554458076333 L 151.78751731541155,37.43600826179838 L 155.34448369074235,39.08978505861551 L 159.7687263296996,40.20789122201635 L 165.1282669000188,40.84134300280235 L 171.49112706943524,41.04115665177512 L 171.49112706943524,41.04115665177512 L 181.48464375422924,39.864948647183745 L 188.76579643807372,36.68210144439756 L 193.37709866330337,32.01128025989943 L 195.36106397225288,26.3711503101717 L 194.7602059072567,20.280376811696836 L 191.61703801064962,14.257624980957534 L 185.9740738247663,8.821560034436022 L 177.8738268919412,4.490847188614878 L 167.3588107545091,1.7841516599766858 L 167.3588107545091,1.7841516599766858 L 161.95392240569964,1.0600043222101718 L 157.40780761204977,0.9650574109960932 L 153.66094741429094,1.5163163432684137 L 150.6538228531547,2.730786535961097 L 148.32691496937255,4.625473406007873 L 146.620704803676,7.2173823703425874 L 145.4756733967966,10.523518845899085 L 144.83230178946584,14.560888249611216 L 144.63107102241526,19.346495998412824 L 144.63107102241526,19.346495998412824 L 144.63107102241526,19.346495998412824 L 144.63107102241526,19.346495998412824 L 144.63107102241526,19.346495998412824 L 144.63107102241526,19.346495998412824 L 144.63107102241526,19.346495998412824 L 144.63107102241526,19.346495998412824 L 144.63107102241526,19.346495998412824 L 144.63107102241526,19.346495998412824 L 144.63107102241526,19.346495998412824"/></svg>
