<?xml version="1.0" encoding="utf-8"?>
<svg xmlns="http://www.w3.org/2000/svg"  viewBox="0,0,400,516.2575328682824" width="100%">
<path d="M144.63107102241526 19.346495998412824 L 144.63107102241526,19.346495998412824 L 144.87198109564483,24.443869724335183 L 145.64005909382382,28.75049156283319 L 147.00332668468772,32.31737776470879 L 149.02980553597178,35.19554458076333 L 151.78751731541155,37.43600826179838 L 155.34448369074235,39.08978505861551 L 159.7687263296996,40.20789122201635 L 165.1282669000188,40.84134300280235 L 171.49112706943524,41.04115665177512 L 171.49112706943524,41.04115665177512 L 181.48464375422924,39.864948647183745 L 188.76579643807372,36.68210144439756 L 193.37709866330337,32.01128025989943 L 195.36106397225288,26.3711503101717 L 194.7602059072567,20.280376811696836 L 191.61703801064962,14.257624980957534 L 185.9740738247663,8.821560034436022 L 177.8738268919412,4.490847188614878 L 167.3588107545091,1.7841516599766858 L 167.3588107545091,1.7841516599766858 L 161.95392240569964,1.0600043222101718 L 157.40780761204977,0.9650574109960932 L 153.66094741429094,1.5163163432684137 L 150.6538228531547,2.730786535961097 L 148.32691496937255,4.625473406007873 L 146.620704803676,7.2173823703425874 L 145.4756733967966,10.523518845899085 L 144.83230178946584,14.560888249611216 L 144.63107102241526,19.346495998412824 L 144.63107102241526,19.346495998412824 L 144.63107102241526,19.346495998412824 L 144.63107102241526,19.346495998412824 L 144.63107102241526,19.346495998412824 L 144.63107102241526,19.346495998412824 L 144.63107102241526,19.346495998412824 L 144.63107102241526,19.346495998412824 L 144.63107102241526,19.346495998412824 L 144.63107102241526,19.346495998412824 L 144.63107102241526,19.346495998412824M190.08655048660293 134.0182737376135 L 144.63107102241526,19.346495998412824 L 144.87198109564483,24.443869724335183 L 145.64005909382382,28.75049156283319 L 147.00332668468772,32.31737776470879 L 149.02980553597178,35.19554458076333 L 151.78751731541155,37.43600826179838 L 155.34448369074235,39.08978505861551 L 159.7687263296996,40.20789122201635 L 165.1282669000188,40.84134300280235 L 171.49112706943524,41.04115665177512 L 171.49112706943524,41.04115665177512 L 181.48464375422924,39.864948647183745 L 188.76579643807372,36.68210144439756 L 193.37709866330337,32.01128025989943 L 195.36106397225288,26.3711503101717 L 194.7602059072567,20.280376811696836 L 191.61703801064962,14.257624980957534 L 185.9740738247663,8.821560034436022 L 177.8738268919412,4.490847188614878 L 167.3588107545091,1.7841516599766858 L 167.3588107545091,1.7841516599766858 L 161.95392240569964,1.0600043222101718 L 157.40780761204977,0.9650574109960932 L 153.66094741429094,1.5163163432684137 L 150.6538228531547,2.730786535961097 L 148.32691496937255,4.625473406007873 L 146.620704803676,7.2173823703425874 L 145.4756733967966,10.523518845899085 L 144.83230178946584,14.560888249611216 L 144.63107102241526,19.346495998412824 L 144.63107102241526,19.346495998412824 L 144.63107102241526,19.346495998412824 L 144.63107102241526,19.346495998412824 L 144.63107102241526,19.346495998412824 L 144.63107102241526,19.346495998412824 L 144.63107102241526,19.346495998412824 L 144.63107102241526,19.346495998412824 L 144.63107102241526,19.346495998412824 L 144.63107102241526,19.346495998412824 L 144.63107102241526,19.346495998412824 L 190.08655048660293,134.0182737376135 L 172.52278903008892,143.50021079631415 L 156.4810123891548,157.14847500380847 L 142.18229098394053,174.46140656054814 L 129.84769523458618,194.93734566698436 L 119.69829556123189,218.07463252356845 L 111.95516238401774,243.3716073307518 L 106.83936612308379,270.3266102889858 L 104.57197719857012,298.4379815987217 L 105.37406603061685,327.204061460411 L 105.37406603061685,327.204061460411 L 106.85920577617328,341.88682186471476 L 108.68445386040679,354.5204295284894 L 111.03686986958971,365.5045117496802 L 114.10351338999445,375.2386958262329 L 118.07144400789335,384.12260905609304 L 123.12772130955882,392.555878737206 L 129.45940488126323,400.9381321675175 L 137.25355430927894,409.66899664497294 L 146.69722917987835,419.14809946751785 L 146.69722917987835,419.14809946751785 L 177.1695192072641,444.18574166646005 L 209.3423509280352,460.2785345581957 L 242.16138849229264,467.74107835600125 L 274.57229605013765,466.8879732731531 L 305.52073775167133,458.0338195229272 L 333.9523777469948,441.49321731860005 L 358.81288018620927,417.58076687344777 L 379.0479092194159,386.6110684007469 L 393.60312899671584,348.89872211377326 L 393.60312899671584,348.89872211377326 L 398.77419286268474,321.12745914271443 L 399.99999999999994,292.7099903281691 L 397.5441343711362,264.37754859829306 L 391.6701799385679,236.86136688124193 L 382.64172066477005,210.8926781051714 L 370.72234051221733,187.20271519823714 L 356.1756234433844,166.52271108859463 L 339.2651534207459,149.58389870439976 L 320.25451440677665,137.11751097380812 L 320.25451440677665,137.11751097380812 L 309.22650152517326,132.75987288450844 L 295.8517411066984,129.34603543503752 L 280.76793628637125,126.90150675079622 L 264.6127901992114,125.4517949571853 L 248.0240059802383,125.02240817960556 L 231.6392867644714,125.63885454345773 L 216.0963356869303,127.32664217414255 L 202.0328558826343,130.1112791970609 L 190.08655048660293,134.0182737376135 L 190.08655048660293,134.0182737376135 L 190.08655048660293,134.0182737376135 L 190.08655048660293,134.0182737376135 L 190.08655048660293,134.0182737376135 L 190.08655048660293,134.0182737376135 L 190.08655048660293,134.0182737376135 L 190.08655048660293,134.0182737376135 L 190.08655048660293,134.0182737376135 L 190.08655048660293,134.0182737376135 L 190.08655048660293,134.0182737376135 L 303.7252491470721,176.37451596560655 L 303.7252491470721,176.37451596560655 L 303.7252491470721,176.37451596560655 L 303.7252491470721,176.37451596560655 L 303.7252491470721,176.37451596560655 L 303.7252491470721,176.37451596560655 L 303.7252491470721,176.37451596560655 L 303.7252491470721,176.37451596560655 L 303.7252491470721,176.37451596560655 L 303.7252491470721,176.37451596560655 L 303.7252491470721,176.37451596560655 L 325.8393767514694,198.19955148212844 L 342.5882953132362,224.25043310671256 L 353.9635021239058,253.24325186085315 L 359.9564944750109,283.8940987660444 L 360.5587696580848,314.91906484378046 L 355.76182496466055,345.03424111555535 L 345.55715768627135,372.9557186028632 L 329.93626511444995,397.39958832719833 L 308.89064454072974,417.0819413100548 L 308.89064454072974,417.0819413100548 L 285.4897737216709,428.42455440493444 L 260.1927989144876,431.98718925257646 L 234.2411155553509,428.56059774040517 L 208.87611908043212,418.9355317558447 L 185.33920492590246,403.90274318631907 L 164.87176852793314,384.25298391925264 L 148.71520532269554,360.7770058420693 L 138.11091074636067,334.2655608421932 L 134.3002802350999,305.50940080704873 L 134.3002802350999,305.50940080704873 L 135.62811987401815,288.7987444333831 L 139.41324225987822,271.38236325696244 L 145.35805259633744,253.77892249426947 L 153.16495608705358,236.50708736178666 L 162.5363579356841,220.08552307599646 L 173.17466334588664,205.03289485338144 L 184.78227752131875,191.867867910424 L 197.06160566563807,181.10910746360665 L 209.71505298250213,173.27527872941192 L 209.71505298250213,173.27527872941192 L 224.12856095201988,166.57939581170754 L 236.63746222494626,161.6435735466568 L 247.6328813907597,158.46781193425986 L 257.5059430389389,157.05211097451667 L 266.6477717589624,157.3964706674271 L 275.44949214030885,159.50089101299142 L 284.3022287724569,163.3653720112094 L 293.5971062448851,168.98991366208108 L 303.7252491470721,176.37451596560655 L 303.7252491470721,176.37451596560655 L 303.7252491470721,176.37451596560655 L 303.7252491470721,176.37451596560655 L 303.7252491470721,176.37451596560655 L 303.7252491470721,176.37451596560655 L 303.7252491470721,176.37451596560655 L 303.7252491470721,176.37451596560655 L 303.7252491470721,176.37451596560655 L 303.7252491470721,176.37451596560655 L 303.7252491470721,176.37451596560655"/></svg>
