<?xml version="1.0" encoding="utf-8"?>
<svg xmlns="http://www.w3.org/2000/svg"  viewBox="0,0,400,888.6814814814813" width="100%">
<path d="M158.4 307.2814814814814 L 158.4,307.2814814814814 L 152.54814814814813,308.99506172839517 L 147.05185185185186,311.6567901234567 L 142.0,315.148148148148 L 137.4814814814815,319.35061728395056 L 133.58518518518517,324.1456790123457 L 130.4,329.41481481481475 L 128.01481481481483,335.0395061728394 L 126.51851851851852,340.90123456790116 L 126.0,346.8814814814814 L 126.0,346.8814814814814 L 126.53580246913576,355.5061728395062 L 128.41975308641977,362.27901234567884 L 132.0666666666667,367.34814814814797 L 137.89135802469136,370.86172839506156 L 146.30864197530866,372.96790123456776 L 157.7333333333333,373.8148148148148 L 172.5802469135802,373.5506172839505 L 191.26419753086418,372.3234567901233 L 214.2,370.28148148148136 L 214.2,370.28148148148136 L 229.68148148148143,369.3456790123456 L 244.71851851851852,368.92839506172834 L 259.0,369.01481481481477 L 272.2148148148149,369.59012345678997 L 284.05185185185184,370.6395061728394 L 294.2,372.1481481481481 L 302.34814814814814,374.1012345679011 L 308.18518518518516,376.4839506172839 L 311.4,379.28148148148136 L 311.4,379.28148148148136 L 313.92098765432087,384.42716049382716 L 316.6345679012347,392.44691358024676 L 319.4666666666667,403.01481481481477 L 322.3432098765432,415.80493827160484 L 325.19012345679016,430.49135802469124 L 327.9333333333333,446.74814814814806 L 330.4987654320988,464.24938271604924 L 332.8123456790123,482.66913580246904 L 334.8,501.6814814814814 L 334.8,501.6814814814814 L 338.44444444444434,531.3160493827161 L 340.8888888888889,554.6246913580246 L 342.0,572.2148148148148 L 341.6444444444445,584.6938271604937 L 339.68888888888887,592.6691358024691 L 335.99999999999994,596.7481481481481 L 330.4444444444444,597.5382716049381 L 322.8888888888889,595.6469135802467 L 313.2,591.6814814814813 L 313.2,591.6814814814813 L 306.0592592592592,588.6864197530864 L 296.8740740740741,585.7209876543209 L 286.0,582.8148148148148 L 273.7925925925926,579.9975308641974 L 260.6074074074075,577.2987654320987 L 246.79999999999998,574.7481481481481 L 232.7259259259259,572.3753086419752 L 218.7407407407407,570.2098765432098 L 205.2,568.2814814814814 L 205.2,568.2814814814814 L 185.85679012345673,566.9061728395062 L 169.52098765432098,566.4790123456788 L 155.73333333333338,567.1481481481479 L 144.0345679012346,569.0617283950617 L 133.9654320987654,572.3679012345677 L 125.06666666666663,577.2148148148148 L 116.87901234567903,583.7506172839505 L 108.9432098765432,592.1234567901234 L 100.8,602.4814814814813 L 100.8,602.4814814814813 L 82.18765432098763,635.7580246913578 L 72.83456790123458,667.8938271604937 L 72.26666666666667,698.148148148148 L 80.00987654320987,725.7802469135801 L 95.59012345679012,750.0493827160494 L 118.53333333333332,770.2148148148148 L 148.3654320987654,785.5358024691357 L 184.61234567901232,795.2716049382715 L 226.79999999999998,798.6814814814813 L 226.79999999999998,798.6814814814813 L 251.80246913580243,797.8345679012344 L 276.1530864197531,795.3728395061728 L 299.46666666666664,791.4148148148146 L 321.358024691358,786.0790123456788 L 341.44197530864204,779.4839506172838 L 359.3333333333333,771.7481481481481 L 374.64691358024686,762.99012345679 L 386.9975308641975,753.3283950617282 L 396.0,742.8814814814813 L 396.0,742.8814814814813 L 397.59999999999997,737.5753086419752 L 398.79999999999995,726.832098765432 L 399.59999999999997,711.2148148148146 L 399.99999999999994,691.2864197530863 L 400.0,667.6098765432098 L 399.59999999999997,640.748148148148 L 398.79999999999995,611.2641975308642 L 397.59999999999997,579.7209876543209 L 396.0,546.6814814814813 L 396.0,546.6814814814813 L 393.0839506172839,496.60493827160485 L 390.1382716049382,455.93580246913564 L 386.8666666666667,423.41481481481463 L 382.9728395061729,397.7827160493825 L 378.16049382716045,377.7802469135801 L 372.1333333333333,362.1481481481481 L 364.5950617283951,349.6271604938271 L 355.2493827160494,338.95802469135793 L 343.8,328.8814814814814 L 343.8,328.8814814814814 L 329.3827160493827,318.9555555555555 L 312.7283950617284,310.80740740740737 L 294.1333333333334,304.4814814814814 L 273.8938271604938,300.0222222222222 L 252.30617283950616,297.474074074074 L 229.66666666666663,296.8814814814814 L 206.27160493827162,298.2888888888889 L 182.41728395061727,301.74074074074065 L 158.4,307.2814814814814 L 158.4,307.2814814814814 L 158.4,307.2814814814814 L 158.4,307.2814814814814 L 158.4,307.2814814814814 L 158.4,307.2814814814814 L 158.4,307.2814814814814 L 158.4,307.2814814814814 L 158.4,307.2814814814814 L 158.4,307.2814814814814 L 158.4,307.2814814814814 L 271.8,656.4814814814813 L 271.8,656.4814814814813 L 271.8,656.4814814814813 L 271.8,656.4814814814813 L 271.8,656.4814814814813 L 271.8,656.4814814814813 L 271.8,656.4814814814813 L 271.8,656.4814814814813 L 271.8,656.4814814814813 L 271.8,656.4814814814813 L 271.8,656.4814814814813 L 291.00987654320977,670.5135802469135 L 305.47901234567905,682.7382716049381 L 315.26666666666665,693.3481481481481 L 320.4320987654321,702.5358024691357 L 321.03456790123454,710.4938271604937 L 317.13333333333327,717.4148148148147 L 308.7876543209876,723.4913580246912 L 296.0567901234568,728.916049382716 L 279.0,733.8814814814814 L 279.0,733.8814814814814 L 255.4074074074073,738.3753086419753 L 232.92592592592592,739.9654320987653 L 212.00000000000003,738.8148148148148 L 193.0740740740741,735.0864197530863 L 176.59259259259258,728.9432098765432 L 162.99999999999997,720.548148148148 L 152.74074074074076,710.064197530864 L 146.25925925925924,697.6543209876542 L 144.0,683.4814814814814 L 144.0,683.4814814814814 L 145.716049382716,660.7481481481482 L 150.79506172839504,642.948148148148 L 159.13333333333335,630.0814814814813 L 170.62716049382712,622.148148148148 L 185.17283950617286,619.1481481481479 L 202.66666666666663,621.0814814814813 L 223.0049382716049,627.948148148148 L 246.08395061728396,639.748148148148 L 271.8,656.4814814814813 L 271.8,656.4814814814813 L 271.8,656.4814814814813 L 271.8,656.4814814814813 L 271.8,656.4814814814813 L 271.8,656.4814814814813 L 271.8,656.4814814814813 L 271.8,656.4814814814813 L 271.8,656.4814814814813 L 271.8,656.4814814814813 L 271.8,656.4814814814813"/></svg>
