<?xml version="1.0" encoding="utf-8"?>
<svg xmlns="http://www.w3.org/2000/svg"  viewBox="0,0,400,593.5483870967741" width="100%">
<path d="M135.48387096774192 12.903225806451612 L 135.48387096774192,12.903225806451612 L 133.08376476835255,19.7707863179788 L 133.39174299747776,27.22244347095005 L 136.05734767025092,34.886499402628395 L 140.73012080180538,42.3912562502765 L 147.05960440727466,49.36501615115715 L 154.69534050179212,55.436081242532886 L 163.28687110049114,60.23275366166642 L 172.48373821850524,63.383335545820565 L 181.93548387096774,64.51612903225806 L 181.93548387096774,64.51612903225806 L 190.86154254613032,62.951458029116374 L 197.81229257931764,58.68932253639543 L 202.7240143369176,52.37753882915175 L 205.53298818531795,44.663923182441636 L 206.17549449090666,36.19629187132175 L 204.58781362007167,27.622461170848315 L 200.70622593920083,19.59024735607771 L 194.46701181468205,12.747466702066518 L 185.80645161290323,7.741935483870967 L 185.80645161290323,7.741935483870967 L 176.90163281561126,4.393114739590336 L 169.04818797291912,2.0744280720385087 L 162.1505376344086,0.7646356033451557 L 156.1131023496615,0.44249745563958287 L 150.84030266825965,1.0867737510509488 L 146.23655913978493,2.676224611708485 L 142.20629231381918,5.18961015974157 L 138.65392273994422,8.605690517279513 L 135.48387096774192,12.903225806451612 L 135.48387096774192,12.903225806451612 L 135.48387096774192,12.903225806451612 L 135.48387096774192,12.903225806451612 L 135.48387096774192,12.903225806451612 L 135.48387096774192,12.903225806451612 L 135.48387096774192,12.903225806451612 L 135.48387096774192,12.903225806451612 L 135.48387096774192,12.903225806451612 L 135.48387096774192,12.903225806451612 L 135.48387096774192,12.903225806451612"/></svg>
