<?xml version="1.0" encoding="utf-8"?>
<svg xmlns="http://www.w3.org/2000/svg"  viewBox="0,0,400,593.5483870967741" width="100%">
<path d="M135.48387096774192 12.903225806451612 L 135.48387096774192,12.903225806451612 L 133.08376476835255,19.7707863179788 L 133.39174299747776,27.22244347095005 L 136.05734767025092,34.886499402628395 L 140.73012080180538,42.3912562502765 L 147.05960440727466,49.36501615115715 L 154.69534050179212,55.436081242532886 L 163.28687110049114,60.23275366166642 L 172.48373821850524,63.383335545820565 L 181.93548387096774,64.51612903225806 L 181.93548387096774,64.51612903225806 L 190.86154254613032,62.951458029116374 L 197.81229257931764,58.68932253639543 L 202.7240143369176,52.37753882915175 L 205.53298818531795,44.663923182441636 L 206.17549449090666,36.19629187132175 L 204.58781362007167,27.622461170848315 L 200.70622593920083,19.59024735607771 L 194.46701181468205,12.747466702066518 L 185.80645161290323,7.741935483870967 L 185.80645161290323,7.741935483870967 L 176.90163281561126,4.393114739590336 L 169.04818797291912,2.0744280720385087 L 162.1505376344086,0.7646356033451557 L 156.1131023496615,0.44249745563958287 L 150.84030266825965,1.0867737510509488 L 146.23655913978493,2.676224611708485 L 142.20629231381918,5.18961015974157 L 138.65392273994422,8.605690517279513 L 135.48387096774192,12.903225806451612 L 135.48387096774192,12.903225806451612 L 135.48387096774192,12.903225806451612 L 135.48387096774192,12.903225806451612 L 135.48387096774192,12.903225806451612 L 135.48387096774192,12.903225806451612 L 135.48387096774192,12.903225806451612 L 135.48387096774192,12.903225806451612 L 135.48387096774192,12.903225806451612 L 135.48387096774192,12.903225806451612 L 135.48387096774192,12.903225806451612M190.96774193548387 176.77419354838707 L 135.48387096774192,12.903225806451612 L 133.08376476835255,19.7707863179788 L 133.39174299747776,27.22244347095005 L 136.05734767025092,34.886499402628395 L 140.73012080180538,42.3912562502765 L 147.05960440727466,49.36501615115715 L 154.69534050179212,55.436081242532886 L 163.28687110049114,60.23275366166642 L 172.48373821850524,63.383335545820565 L 181.93548387096774,64.51612903225806 L 181.93548387096774,64.51612903225806 L 190.86154254613032,62.951458029116374 L 197.81229257931764,58.68932253639543 L 202.7240143369176,52.37753882915175 L 205.53298818531795,44.663923182441636 L 206.17549449090666,36.19629187132175 L 204.58781362007167,27.622461170848315 L 200.70622593920083,19.59024735607771 L 194.46701181468205,12.747466702066518 L 185.80645161290323,7.741935483870967 L 185.80645161290323,7.741935483870967 L 176.90163281561126,4.393114739590336 L 169.04818797291912,2.0744280720385087 L 162.1505376344086,0.7646356033451557 L 156.1131023496615,0.44249745563958287 L 150.84030266825965,1.0867737510509488 L 146.23655913978493,2.676224611708485 L 142.20629231381918,5.18961015974157 L 138.65392273994422,8.605690517279513 L 135.48387096774192,12.903225806451612 L 135.48387096774192,12.903225806451612 L 135.48387096774192,12.903225806451612 L 135.48387096774192,12.903225806451612 L 135.48387096774192,12.903225806451612 L 135.48387096774192,12.903225806451612 L 135.48387096774192,12.903225806451612 L 135.48387096774192,12.903225806451612 L 135.48387096774192,12.903225806451612 L 135.48387096774192,12.903225806451612 L 135.48387096774192,12.903225806451612 L 190.96774193548387,176.77419354838707 L 172.09788043718746,185.67901234567904 L 157.66715341386788,194.87056949422544 L 147.71804062126645,203.87096774193537 L 142.29302181512458,212.20230983671837 L 141.4345767511837,219.38669852648346 L 145.18518518518516,224.9462365591398 L 153.58732687287048,228.40302668259656 L 166.68348156998096,229.27917164476298 L 184.51612903225808,227.09677419354836 L 184.51612903225808,227.09677419354836 L 226.23832912960742,218.8769414575866 L 259.27341917783974,213.52449223416963 L 284.778972520908,211.61290322580635 L 303.91256250276564,213.71565113500594 L 317.8317624673659,220.40621266427712 L 327.6941457586618,232.25806451612902 L 334.65728572060704,249.84468339307045 L 339.8787556971547,273.7395459976105 L 344.51612903225805,304.51612903225805 L 344.51612903225805,304.51612903225805 L 345.3763440860215,311.39784946236557 L 346.23655913978496,318.2795698924731 L 347.0967741935484,325.1612903225806 L 347.95698924731187,332.04301075268825 L 348.81720430107526,338.92473118279565 L 349.6774193548387,345.80645161290323 L 350.5376344086022,352.6881720430107 L 351.39784946236557,359.5698924731182 L 352.258064516129,366.45161290322574 L 352.258064516129,366.45161290322574 L 348.38709677419354,363.44086021505365 L 344.51612903225805,360.4301075268818 L 340.64516129032256,357.41935483870964 L 336.7741935483871,354.40860215053755 L 332.9032258064516,351.3978494623656 L 329.03225806451616,348.38709677419354 L 325.16129032258067,345.37634408602145 L 321.2903225806452,342.36559139784947 L 317.4193548387097,339.3548387096774 L 317.4193548387097,339.3548387096774 L 301.98327359617673,328.22691269525205 L 285.97371565113497,318.95747599451306 L 269.6774193548388,311.58900836320186 L 253.3811230585424,306.16398955706006 L 237.3715651135006,302.7248993318288 L 221.93548387096774,301.31421744324973 L 207.3596176821983,301.97442364706404 L 193.93070489844686,304.74799769901324 L 181.93548387096774,309.67741935483866 L 181.93548387096774,309.67741935483866 L 163.8178680472587,322.554095313952 L 148.34461701845217,339.85928580910655 L 135.77060931899643,360.5734767025089 L 126.35072348333999,383.6771538563653 L 120.33983804593123,408.15080313288195 L 117.99283154121862,432.9749103942652 L 119.56458250365061,457.1299615027213 L 125.30996946767554,479.5964423204566 L 135.48387096774192,499.3548387096774 L 135.48387096774192,499.3548387096774 L 146.9834948449046,512.0580556661799 L 162.7735740519492,524.1346962254967 L 181.88769414575864,535.2449223416965 L 203.35944068321604,545.0488959688481 L 226.22239922120445,553.2067790610204 L 249.51015531660687,559.3787335722819 L 272.2562945263065,563.2249214567015 L 293.4944024071861,564.4055046683482 L 312.258064516129,562.5806451612902 L 312.258064516129,562.5806451612902 L 333.95813974069637,557.3361653170493 L 351.95185627682633,550.7323332890835 L 366.547192353644,542.2700119474313 L 378.05212620027436,531.4500641621311 L 386.7746360458427,517.7733528032213 L 393.0227001194743,500.7407407407407 L 397.10429665029426,479.8530908447276 L 399.3274038674278,454.61126598522054 L 400.0,424.51612903225805 L 400.0,424.51612903225805 L 399.30439399973443,391.65095800699146 L 397.3025355104209,358.8707464932076 L 394.1218637992832,326.83393070489836 L 389.8898181335458,296.19894685605556 L 384.73383778043285,267.62423116067083 L 378.78136200716847,241.76821983273604 L 372.1598300809771,219.28934908624282 L 364.99668126908267,200.84605513518298 L 357.4193548387097,187.09677419354838 L 357.4193548387097,187.09677419354838 L 347.84547988849056,178.11938581353166 L 334.25726802070886,171.00048674720125 L 317.41935483870975,165.78255675029865 L 298.0963759458383,162.50807557856544 L 277.05296694544006,161.21952298774278 L 255.0537634408602,161.9593787335723 L 232.8634010354441,164.77012257179524 L 211.24651533253683,169.69423425815302 L 190.96774193548387,176.77419354838707 L 190.96774193548387,176.77419354838707 L 190.96774193548387,176.77419354838707 L 190.96774193548387,176.77419354838707 L 190.96774193548387,176.77419354838707 L 190.96774193548387,176.77419354838707 L 190.96774193548387,176.77419354838707 L 190.96774193548387,176.77419354838707 L 190.96774193548387,176.77419354838707 L 190.96774193548387,176.77419354838707 L 190.96774193548387,176.77419354838707 L 289.03225806451616,380.6451612903225 L 289.03225806451616,380.6451612903225 L 289.03225806451616,380.6451612903225 L 289.03225806451616,380.6451612903225 L 289.03225806451616,380.6451612903225 L 289.03225806451616,380.6451612903225 L 289.03225806451616,380.6451612903225 L 289.03225806451616,380.6451612903225 L 289.03225806451616,380.6451612903225 L 289.03225806451616,380.6451612903225 L 289.03225806451616,380.6451612903225 L 301.0858887561396,392.99969025178103 L 312.15186512677553,406.55427231293413 L 322.0071684587814,420.88410991636795 L 330.42878003451483,435.56440550466834 L 337.1936811363335,450.17036152042124 L 342.078853046595,464.27718040621266 L 344.861277047657,477.4600646046284 L 345.317934421877,489.29421655825473 L 343.2258064516129,499.3548387096774 L 343.2258064516129,499.3548387096774 L 337.25917075976804,506.4843577149431 L 326.8427806540113,511.56422850568606 L 312.87933094384715,514.647550776583 L 296.27151643878045,515.7874242223106 L 277.92203194831626,515.0369485375459 L 258.7335722819593,512.4492234169653 L 239.6088322492146,508.07734855524575 L 221.4505066595867,501.974423647064 L 205.16129032258064,494.1935483870967 L 205.16129032258064,494.1935483870967 L 191.8863666533917,484.4674543121377 L 181.3513872295234,472.77667153413864 L 173.62007168458788,459.5459976105137 L 168.756139652197,445.2002300986769 L 166.8233107659631,430.1641665560423 L 167.8853046594982,414.8626045400239 L 172.0058409664144,399.7203416080357 L 179.2486393203239,385.1621753174919 L 189.67741935483872,371.61290322580646 L 189.67741935483872,371.61290322580646 L 199.20173459002606,362.15230762423124 L 208.90658878711452,355.2829771228815 L 218.87694145758664,351.01553166069294 L 229.19775211292534,349.3605911766007 L 239.95398026461345,350.3287756095403 L 251.23058542413375,353.9307048984468 L 263.1125271029691,360.17699898225584 L 275.6847648126023,369.07827779990265 L 289.03225806451616,380.6451612903225 L 289.03225806451616,380.6451612903225 L 289.03225806451616,380.6451612903225 L 289.03225806451616,380.6451612903225 L 289.03225806451616,380.6451612903225 L 289.03225806451616,380.6451612903225 L 289.03225806451616,380.6451612903225 L 289.03225806451616,380.6451612903225 L 289.03225806451616,380.6451612903225 L 289.03225806451616,380.6451612903225 L 289.03225806451616,380.6451612903225M305.80645161290323 18.064516129032256 L 135.48387096774192,12.903225806451612 L 133.08376476835255,19.7707863179788 L 133.39174299747776,27.22244347095005 L 136.05734767025092,34.886499402628395 L 140.73012080180538,42.3912562502765 L 147.05960440727466,49.36501615115715 L 154.69534050179212,55.436081242532886 L 163.28687110049114,60.23275366166642 L 172.48373821850524,63.383335545820565 L 181.93548387096774,64.51612903225806 L 181.93548387096774,64.51612903225806 L 190.86154254613032,62.951458029116374 L 197.81229257931764,58.68932253639543 L 202.7240143369176,52.37753882915175 L 205.53298818531795,44.663923182441636 L 206.17549449090666,36.19629187132175 L 204.58781362007167,27.622461170848315 L 200.70622593920083,19.59024735607771 L 194.46701181468205,12.747466702066518 L 185.80645161290323,7.741935483870967 L 185.80645161290323,7.741935483870967 L 176.90163281561126,4.393114739590336 L 169.04818797291912,2.0744280720385087 L 162.1505376344086,0.7646356033451557 L 156.1131023496615,0.44249745563958287 L 150.84030266825965,1.0867737510509488 L 146.23655913978493,2.676224611708485 L 142.20629231381918,5.18961015974157 L 138.65392273994422,8.605690517279513 L 135.48387096774192,12.903225806451612 L 135.48387096774192,12.903225806451612 L 135.48387096774192,12.903225806451612 L 135.48387096774192,12.903225806451612 L 135.48387096774192,12.903225806451612 L 135.48387096774192,12.903225806451612 L 135.48387096774192,12.903225806451612 L 135.48387096774192,12.903225806451612 L 135.48387096774192,12.903225806451612 L 135.48387096774192,12.903225806451612 L 135.48387096774192,12.903225806451612 L 190.96774193548387,176.77419354838707 L 172.09788043718746,185.67901234567904 L 157.66715341386788,194.87056949422544 L 147.71804062126645,203.87096774193537 L 142.29302181512458,212.20230983671837 L 141.4345767511837,219.38669852648346 L 145.18518518518516,224.9462365591398 L 153.58732687287048,228.40302668259656 L 166.68348156998096,229.27917164476298 L 184.51612903225808,227.09677419354836 L 184.51612903225808,227.09677419354836 L 226.23832912960742,218.8769414575866 L 259.27341917783974,213.52449223416963 L 284.778972520908,211.61290322580635 L 303.91256250276564,213.71565113500594 L 317.8317624673659,220.40621266427712 L 327.6941457586618,232.25806451612902 L 334.65728572060704,249.84468339307045 L 339.8787556971547,273.7395459976105 L 344.51612903225805,304.51612903225805 L 344.51612903225805,304.51612903225805 L 345.3763440860215,311.39784946236557 L 346.23655913978496,318.2795698924731 L 347.0967741935484,325.1612903225806 L 347.95698924731187,332.04301075268825 L 348.81720430107526,338.92473118279565 L 349.6774193548387,345.80645161290323 L 350.5376344086022,352.6881720430107 L 351.39784946236557,359.5698924731182 L 352.258064516129,366.45161290322574 L 352.258064516129,366.45161290322574 L 348.38709677419354,363.44086021505365 L 344.51612903225805,360.4301075268818 L 340.64516129032256,357.41935483870964 L 336.7741935483871,354.40860215053755 L 332.9032258064516,351.3978494623656 L 329.03225806451616,348.38709677419354 L 325.16129032258067,345.37634408602145 L 321.2903225806452,342.36559139784947 L 317.4193548387097,339.3548387096774 L 317.4193548387097,339.3548387096774 L 301.98327359617673,328.22691269525205 L 285.97371565113497,318.95747599451306 L 269.6774193548388,311.58900836320186 L 253.3811230585424,306.16398955706006 L 237.3715651135006,302.7248993318288 L 221.93548387096774,301.31421744324973 L 207.3596176821983,301.97442364706404 L 193.93070489844686,304.74799769901324 L 181.93548387096774,309.67741935483866 L 181.93548387096774,309.67741935483866 L 163.8178680472587,322.554095313952 L 148.34461701845217,339.85928580910655 L 135.77060931899643,360.5734767025089 L 126.35072348333999,383.6771538563653 L 120.33983804593123,408.15080313288195 L 117.99283154121862,432.9749103942652 L 119.56458250365061,457.1299615027213 L 125.30996946767554,479.5964423204566 L 135.48387096774192,499.3548387096774 L 135.48387096774192,499.3548387096774 L 146.9834948449046,512.0580556661799 L 162.7735740519492,524.1346962254967 L 181.88769414575864,535.2449223416965 L 203.35944068321604,545.0488959688481 L 226.22239922120445,553.2067790610204 L 249.51015531660687,559.3787335722819 L 272.2562945263065,563.2249214567015 L 293.4944024071861,564.4055046683482 L 312.258064516129,562.5806451612902 L 312.258064516129,562.5806451612902 L 333.95813974069637,557.3361653170493 L 351.95185627682633,550.7323332890835 L 366.547192353644,542.2700119474313 L 378.05212620027436,531.4500641621311 L 386.7746360458427,517.7733528032213 L 393.0227001194743,500.7407407407407 L 397.10429665029426,479.8530908447276 L 399.3274038674278,454.61126598522054 L 400.0,424.51612903225805 L 400.0,424.51612903225805 L 399.30439399973443,391.65095800699146 L 397.3025355104209,358.8707464932076 L 394.1218637992832,326.83393070489836 L 389.8898181335458,296.19894685605556 L 384.73383778043285,267.62423116067083 L 378.78136200716847,241.76821983273604 L 372.1598300809771,219.28934908624282 L 364.99668126908267,200.84605513518298 L 357.4193548387097,187.09677419354838 L 357.4193548387097,187.09677419354838 L 347.84547988849056,178.11938581353166 L 334.25726802070886,171.00048674720125 L 317.41935483870975,165.78255675029865 L 298.0963759458383,162.50807557856544 L 277.05296694544006,161.21952298774278 L 255.0537634408602,161.9593787335723 L 232.8634010354441,164.77012257179524 L 211.24651533253683,169.69423425815302 L 190.96774193548387,176.77419354838707 L 190.96774193548387,176.77419354838707 L 190.96774193548387,176.77419354838707 L 190.96774193548387,176.77419354838707 L 190.96774193548387,176.77419354838707 L 190.96774193548387,176.77419354838707 L 190.96774193548387,176.77419354838707 L 190.96774193548387,176.77419354838707 L 190.96774193548387,176.77419354838707 L 190.96774193548387,176.77419354838707 L 190.96774193548387,176.77419354838707 L 289.03225806451616,380.6451612903225 L 289.03225806451616,380.6451612903225 L 289.03225806451616,380.6451612903225 L 289.03225806451616,380.6451612903225 L 289.03225806451616,380.6451612903225 L 289.03225806451616,380.6451612903225 L 289.03225806451616,380.6451612903225 L 289.03225806451616,380.6451612903225 L 289.03225806451616,380.6451612903225 L 289.03225806451616,380.6451612903225 L 289.03225806451616,380.6451612903225 L 301.0858887561396,392.99969025178103 L 312.15186512677553,406.55427231293413 L 322.0071684587814,420.88410991636795 L 330.42878003451483,435.56440550466834 L 337.1936811363335,450.17036152042124 L 342.078853046595,464.27718040621266 L 344.861277047657,477.4600646046284 L 345.317934421877,489.29421655825473 L 343.2258064516129,499.3548387096774 L 343.2258064516129,499.3548387096774 L 337.25917075976804,506.4843577149431 L 326.8427806540113,511.56422850568606 L 312.87933094384715,514.647550776583 L 296.27151643878045,515.7874242223106 L 277.92203194831626,515.0369485375459 L 258.7335722819593,512.4492234169653 L 239.6088322492146,508.07734855524575 L 221.4505066595867,501.974423647064 L 205.16129032258064,494.1935483870967 L 205.16129032258064,494.1935483870967 L 191.8863666533917,484.4674543121377 L 181.3513872295234,472.77667153413864 L 173.62007168458788,459.5459976105137 L 168.756139652197,445.2002300986769 L 166.8233107659631,430.1641665560423 L 167.8853046594982,414.8626045400239 L 172.0058409664144,399.7203416080357 L 179.2486393203239,385.1621753174919 L 189.67741935483872,371.61290322580646 L 189.67741935483872,371.61290322580646 L 199.20173459002606,362.15230762423124 L 208.90658878711452,355.2829771228815 L 218.87694145758664,351.01553166069294 L 229.19775211292534,349.3605911766007 L 239.95398026461345,350.3287756095403 L 251.23058542413375,353.9307048984468 L 263.1125271029691,360.17699898225584 L 275.6847648126023,369.07827779990265 L 289.03225806451616,380.6451612903225 L 289.03225806451616,380.6451612903225 L 289.03225806451616,380.6451612903225 L 289.03225806451616,380.6451612903225 L 289.03225806451616,380.6451612903225 L 289.03225806451616,380.6451612903225 L 289.03225806451616,380.6451612903225 L 289.03225806451616,380.6451612903225 L 289.03225806451616,380.6451612903225 L 289.03225806451616,380.6451612903225 L 289.03225806451616,380.6451612903225 L 305.80645161290323,18.064516129032256 L 304.28780034514796,25.094915704234843 L 304.74445771936814,32.25275454666138 L 306.95340501792117,39.28315412186382 L 310.69162352316476,45.931235895393606 L 315.73609451745654,51.94212133280233 L 321.8637992831541,57.06093189964158 L 328.85171910261516,61.032789061462886 L 336.4768352581972,63.60281428381782 L 344.51612903225805,64.51612903225806 L 344.51612903225805,64.51612903225806 L 347.4702420461082,64.00460197353867 L 350.2756759148635,62.52666047170226 L 352.87933094384715,60.167264038231764 L 355.2281074383822,57.01137218460996 L 357.26890570379226,53.14394442231956 L 358.9486260454002,48.64994026284355 L 360.21416876852953,43.61431921766457 L 361.01243417850344,38.122040798265466 L 361.2903225806452,32.25806451612903 L 361.2903225806452,32.25806451612903 L 361.0442939953095,25.034736050267764 L 360.2778884021417,18.820301783264675 L 358.94862604540026,13.572281959378678 L 357.01402716934376,9.248196822868227 L 354.43161201823096,5.8055666179919365 L 351.1589008363202,3.2019115890084175 L 347.15341386787026,1.3947519801761317 L 342.37267135713967,0.341608035753838 L 336.7741935483871,0.0 L 336.7741935483871,0.0 L 332.44125846276376,0.27965839196440356 L 328.1083233771406,1.0903137306959545 L 323.8709677419355,2.3894862604539235 L 319.8247710075667,4.134696225496701 L 316.0653126244524,6.283463870082678 L 312.6881720430107,8.793309438470684 L 309.7889287136599,11.621753174919258 L 307.463162086818,14.726315323686936 L 305.80645161290323,18.064516129032256 L 305.80645161290323,18.064516129032256 L 305.80645161290323,18.064516129032256 L 305.80645161290323,18.064516129032256 L 305.80645161290323,18.064516129032256 L 305.80645161290323,18.064516129032256 L 305.80645161290323,18.064516129032256 L 305.80645161290323,18.064516129032256 L 305.80645161290323,18.064516129032256 L 305.80645161290323,18.064516129032256 L 305.80645161290323,18.064516129032256"/></svg>
