<?xml version="1.0" encoding="utf-8"?>
<svg xmlns="http://www.w3.org/2000/svg"  viewBox="0,0,400,370.79365079365084" width="100%">
<path d="M147.61904761904762 93.65079365079369 L 147.61904761904762,93.65079365079369 L 126.47200992880003,105.31190802795751 L 105.42687308119407,120.62577568750406 L 85.2204585537919,138.65961199294534 L 66.58958782415573,158.48063230779283 L 50.271082369847804,179.15605199555822 L 37.00176366843033,199.75308641975315 L 27.51845319746555,219.33895094388922 L 22.557972434515644,236.98086093147828 L 22.857142857142858,251.7460317460318 L 22.857142857142858,251.7460317460318 L 29.235090469658363,267.83721993598544 L 38.67790188777843,279.3115161016396 L 50.9347442680776,286.20811287477954 L 65.75478476713045,288.5662028871906 L 82.88719054151153,286.4249787706579 L 102.08112874779539,279.8236331569666 L 123.08576654255666,268.80135867790193 L 145.65027108236984,253.39734796524922 L 169.52380952380952,233.6507936507937 L 169.52380952380952,233.6507936507937 L 173.65079365079367,229.8412698412699 L 177.77777777777774,226.03174603174605 L 181.9047619047619,222.22222222222226 L 186.03174603174605,218.41269841269846 L 190.15873015873012,214.60317460317464 L 194.28571428571428,210.79365079365084 L 198.4126984126984,206.98412698412702 L 202.53968253968253,203.1746031746032 L 206.66666666666666,199.3650793650794 L 206.66666666666666,199.3650793650794 L 207.4074074074074,202.7513227513228 L 208.14814814814815,206.13756613756618 L 208.8888888888889,209.52380952380955 L 209.62962962962965,212.91005291005294 L 210.37037037037035,216.29629629629633 L 211.1111111111111,219.68253968253975 L 211.85185185185185,223.0687830687831 L 212.5925925925926,226.4550264550265 L 213.33333333333334,229.8412698412699 L 213.33333333333334,229.8412698412699 L 218.4388268338885,249.34221699653807 L 225.46475929191982,265.2844731857078 L 234.3562610229277,277.636684303351 L 245.05846234241295,286.3674962440395 L 257.51649356587626,291.4455549023451 L 271.6754850088183,292.83950617283955 L 287.48056698673986,290.51799595009476 L 304.8768698151414,284.4496701286825 L 323.8095238095238,274.60317460317464 L 323.8095238095238,274.60317460317464 L 340.2181723169377,264.3294793912078 L 354.5496113397348,254.42419491802212 L 366.84303350970026,244.83245149911824 L 377.13763145861907,235.4993794499968 L 385.4725978182769,226.3701090861585 L 391.88712522045853,217.3897707231041 L 396.4204062969495,208.5034946763342 L 399.1116336795349,199.65641126134958 L 400.0,190.79365079365084 L 400.0,190.79365079365084 L 400.0,188.1481481481482 L 400.0,185.50264550264558 L 400.0,182.8571428571429 L 400.0,180.21164021164026 L 400.0,177.5661375661376 L 400.0,174.92063492063497 L 400.0,172.27513227513228 L 400.0,169.62962962962965 L 400.0,166.98412698412702 L 400.0,166.98412698412702 L 396.6137566137566,170.1587301587302 L 393.22751322751327,173.33333333333337 L 389.8412698412698,176.50793650793656 L 386.4550264550264,179.68253968253973 L 383.0687830687831,182.8571428571429 L 379.68253968253975,186.03174603174608 L 376.2962962962963,189.20634920634922 L 372.9100529100529,192.38095238095244 L 369.5238095238095,195.5555555555556 L 369.5238095238095,195.5555555555556 L 354.30661702266633,209.25991246978907 L 339.84976157815663,221.7336207459665 L 326.278659611993,232.87477954144623 L 313.71872754588804,242.58148801358683 L 302.29538180155464,250.7518453197466 L 292.13403880070547,257.28395061728395 L 283.36011496505324,262.0759030635574 L 276.0990267163107,265.0258018159253 L 270.4761904761905,266.0317460317461 L 270.4761904761905,266.0317460317461 L 268.09197204258925,265.4138088705991 L 265.4412437128487,263.6279312822523 L 262.61022927689595,260.7760141093475 L 259.6851525246587,256.9599581945261 L 256.7522372460644,252.28166438042985 L 253.89770723104053,246.8430335097002 L 251.20778626951463,240.74596642497883 L 248.76869815141416,234.09236396890722 L 246.66666666666666,226.98412698412702 L 246.66666666666666,226.98412698412702 L 243.84479717813042,217.27349924880795 L 241.72839506172843,208.2761774119799 L 240.31746031746033,199.7178130511464 L 239.6119929453263,191.32405774381087 L 239.6119929453263,182.8205630674767 L 240.3174603174603,173.93298059964732 L 241.7283950617284,164.38696191782614 L 243.84479717813048,153.90815859951667 L 246.66666666666666,142.22222222222226 L 246.66666666666666,142.22222222222226 L 248.74387615128347,133.6782284930434 L 250.5153831079757,125.29884381736235 L 251.95767195767198,117.24867724867728 L 253.0472271213012,109.69233784048606 L 253.7605330197923,102.79443464628652 L 254.074074074074,96.71957671957678 L 253.96433470507543,91.6323731138547 L 253.40779933372525,87.6974328826181 L 252.38095238095238,85.07936507936512 L 252.38095238095238,85.07936507936512 L 247.65954667189231,80.73290221438377 L 240.14762557972438,77.82088967274154 L 230.299823633157,76.29629629629632 L 218.57077536089884,76.11209092690572 L 205.4151152916585,77.22124240642762 L 191.28747795414463,79.57671957671963 L 176.6424978770658,83.13149127963948 L 161.93480958913057,87.83852635704491 L 147.61904761904762,93.65079365079369 L 147.61904761904762,93.65079365079369 L 147.61904761904762,93.65079365079369 L 147.61904761904762,93.65079365079369 L 147.61904761904762,93.65079365079369 L 147.61904761904762,93.65079365079369 L 147.61904761904762,93.65079365079369 L 147.61904761904762,93.65079365079369 L 147.61904761904762,93.65079365079369 L 147.61904761904762,93.65079365079369 L 147.61904761904762,93.65079365079369 L 209.52380952380952,126.98412698412702 L 209.52380952380952,126.98412698412702 L 209.52380952380952,126.98412698412702 L 209.52380952380952,126.98412698412702 L 209.52380952380952,126.98412698412702 L 209.52380952380952,126.98412698412702 L 209.52380952380952,126.98412698412702 L 209.52380952380952,126.98412698412702 L 209.52380952380952,126.98412698412702 L 209.52380952380952,126.98412698412702 L 209.52380952380952,126.98412698412702 L 205.7900581357371,139.20177673264104 L 195.5973610294598,155.23678881703577 L 180.45855379188714,173.68606701940038 L 161.88647200992878,193.1465151218238 L 141.3939512704945,212.21503690639497 L 120.49382716049384,229.4885361552029 L 100.69893526683651,243.56391665033647 L 83.52211117643216,253.03808217388467 L 70.47619047619048,256.50793650793656 L 70.47619047619048,256.50793650793656 L 64.06950160036578,252.88000522568433 L 63.8787641256777,243.00476843686724 L 68.92416225749561,228.3950617283951 L 78.22588020118883,210.56372068717752 L 90.80410216212687,191.02358090012416 L 105.67901234567901,171.2874779541447 L 121.8707949572147,152.86824743614875 L 138.39963420210333,137.278724933046 L 154.28571428571428,126.03174603174608 L 154.28571428571428,126.03174603174608 L 163.95584296818865,121.26722842772237 L 173.16349859559736,117.75687504082565 L 181.72839506172843,115.48500881834218 L 189.47024626036975,114.43595270755769 L 196.2087660853093,114.59402965575812 L 201.76366843033512,115.9435626102293 L 205.95466718923507,118.4688745182573 L 208.60147625579722,122.1542883271279 L 209.52380952380952,126.98412698412702 L 209.52380952380952,126.98412698412702 L 209.52380952380952,126.98412698412702 L 209.52380952380952,126.98412698412702 L 209.52380952380952,126.98412698412702 L 209.52380952380952,126.98412698412702 L 209.52380952380952,126.98412698412702 L 209.52380952380952,126.98412698412702 L 209.52380952380952,126.98412698412702 L 209.52380952380952,126.98412698412702 L 209.52380952380952,126.98412698412702"/></svg>
