<?xml version="1.0" encoding="utf-8"?>
<svg xmlns="http://www.w3.org/2000/svg"  viewBox="0,0,400,595.2114824400186" width="100%">
<path d="M105.72746708675594 8.241751372166629 L 105.72746708675594,8.241751372166629 L 100.47801824554381,15.978395409024632 L 99.6495088539648,24.22514784391686 L 102.53178800495107,32.4118875260993 L 108.41470479143484,39.96849330482731 L 116.58810830634842,46.324844029356235 L 126.34184764262405,50.910818548941734 L 136.96577189319393,53.156295712839004 L 147.74973015099042,52.49115437030377 L 157.98357150894566,48.3452733705913 L 157.98357150894566,48.3452733705913 L 161.94608020871098,45.624695247740256 L 164.92838061421386,43.054149006664005 L 166.94047485090584,40.513609141942695 L 167.99236504423857,37.883050148156585 L 168.09405331966374,35.04244651988548 L 167.25554180263305,31.871772751709866 L 165.4868326185981,28.2510033382094 L 162.7979278930106,24.060112773964573 L 159.19882975132217,19.179075553555172 L 159.19882975132217,19.179075553555172 L 153.32424806938138,12.88273758173631 L 147.12959837298757,7.786654664116105 L 140.7449082930123,3.9208331770500426 L 134.30020546032702,1.3152794968931234 L 127.92551750580333,0.0 L 121.75087206031282,0.005001062725879272 L 115.90629675472707,1.3602890614255532 L 110.52181921991756,4.09587037245416 L 105.72746708675594,8.241751372166629 L 105.72746708675594,8.241751372166629 L 105.72746708675594,8.241751372166629 L 105.72746708675594,8.241751372166629 L 105.72746708675594,8.241751372166629 L 105.72746708675594,8.241751372166629 L 105.72746708675594,8.241751372166629 L 105.72746708675594,8.241751372166629 L 105.72746708675594,8.241751372166629 L 105.72746708675594,8.241751372166629 L 105.72746708675594,8.241751372166629"/></svg>
