<?xml version="1.0" encoding="utf-8"?>
<svg xmlns="http://www.w3.org/2000/svg"  viewBox="0,0,400,595.2114824400186" width="100%">
<path d="M105.72746708675594 8.241751372166629 L 105.72746708675594,8.241751372166629 L 100.47801824554381,15.978395409024632 L 99.6495088539648,24.22514784391686 L 102.53178800495107,32.4118875260993 L 108.41470479143484,39.96849330482731 L 116.58810830634842,46.324844029356235 L 126.34184764262405,50.910818548941734 L 136.96577189319393,53.156295712839004 L 147.74973015099042,52.49115437030377 L 157.98357150894566,48.3452733705913 L 157.98357150894566,48.3452733705913 L 161.94608020871098,45.624695247740256 L 164.92838061421386,43.054149006664005 L 166.94047485090584,40.513609141942695 L 167.99236504423857,37.883050148156585 L 168.09405331966374,35.04244651988548 L 167.25554180263305,31.871772751709866 L 165.4868326185981,28.2510033382094 L 162.7979278930106,24.060112773964573 L 159.19882975132217,19.179075553555172 L 159.19882975132217,19.179075553555172 L 153.32424806938138,12.88273758173631 L 147.12959837298757,7.786654664116105 L 140.7449082930123,3.9208331770500426 L 134.30020546032702,1.3152794968931234 L 127.92551750580333,0.0 L 121.75087206031282,0.005001062725879272 L 115.90629675472707,1.3602890614255532 L 110.52181921991756,4.09587037245416 L 105.72746708675594,8.241751372166629 L 105.72746708675594,8.241751372166629 L 105.72746708675594,8.241751372166629 L 105.72746708675594,8.241751372166629 L 105.72746708675594,8.241751372166629 L 105.72746708675594,8.241751372166629 L 105.72746708675594,8.241751372166629 L 105.72746708675594,8.241751372166629 L 105.72746708675594,8.241751372166629 L 105.72746708675594,8.241751372166629 L 105.72746708675594,8.241751372166629M121.5258242376505 191.7457459710189 L 105.72746708675594,8.241751372166629 L 100.47801824554381,15.978395409024632 L 99.6495088539648,24.22514784391686 L 102.53178800495107,32.4118875260993 L 108.41470479143484,39.96849330482731 L 116.58810830634842,46.324844029356235 L 126.34184764262405,50.910818548941734 L 136.96577189319393,53.156295712839004 L 147.74973015099042,52.49115437030377 L 157.98357150894566,48.3452733705913 L 157.98357150894566,48.3452733705913 L 161.94608020871098,45.624695247740256 L 164.92838061421386,43.054149006664005 L 166.94047485090584,40.513609141942695 L 167.99236504423857,37.883050148156585 L 168.09405331966374,35.04244651988548 L 167.25554180263305,31.871772751709866 L 165.4868326185981,28.2510033382094 L 162.7979278930106,24.060112773964573 L 159.19882975132217,19.179075553555172 L 159.19882975132217,19.179075553555172 L 153.32424806938138,12.88273758173631 L 147.12959837298757,7.786654664116105 L 140.7449082930123,3.9208331770500426 L 134.30020546032702,1.3152794968931234 L 127.92551750580333,0.0 L 121.75087206031282,0.005001062725879272 L 115.90629675472707,1.3602890614255532 L 110.52181921991756,4.09587037245416 L 105.72746708675594,8.241751372166629 L 105.72746708675594,8.241751372166629 L 105.72746708675594,8.241751372166629 L 105.72746708675594,8.241751372166629 L 105.72746708675594,8.241751372166629 L 105.72746708675594,8.241751372166629 L 105.72746708675594,8.241751372166629 L 105.72746708675594,8.241751372166629 L 105.72746708675594,8.241751372166629 L 105.72746708675594,8.241751372166629 L 105.72746708675594,8.241751372166629 L 121.5258242376505,191.7457459710189 L 91.07602032098484,228.53689742403608 L 69.30806129635882,269.0388374196184 L 56.08191740744909,311.7412450145656 L 51.257558897932476,355.13379926567734 L 54.69495601148577,397.706179229753 L 66.25407899178575,437.9480639635923 L 85.79489808250919,474.3491325239947 L 113.17738352733286,505.3990639677599 L 148.2615055699336,529.5875373516873 L 148.2615055699336,529.5875373516873 L 166.71042596551766,537.4208686012446 L 186.8397034369804,543.1037428786951 L 208.07921683357714,546.6461623094908 L 229.85884500456345,548.0581290190834 L 251.60846679919484,547.3496451329243 L 272.75796106672664,544.5307127764651 L 292.73720665641446,539.6113340751577 L 310.9760824175137,532.6015111544538 L 326.90446719927985,523.5112461398048 L 326.90446719927985,523.5112461398048 L 348.697431537535,503.35362931289575 L 366.93964134045154,477.6548349857678 L 381.4110498480927,447.53510120900694 L 391.8916103005222,414.1146660331987 L 398.16127593780345,378.51376750892905 L 400.0,341.8526436867835 L 397.1877357271753,305.25153261734795 L 389.504436359393,269.8306723512081 L 376.73005513671654,236.7103009389496 L 376.73005513671654,236.7103009389496 L 365.91942454438225,217.26116799819974 L 353.70849638881595,200.2125451658479 L 340.04726004275915,185.53442606553892 L 324.8857048789534,173.19680432091823 L 308.17382027014077,163.1696735556306 L 289.86159558906263,155.42302739332118 L 269.89902020846097,149.92685945763478 L 248.2360835010773,146.65116337221667 L 224.82277483965342,145.5659327607117 L 224.82277483965342,145.5659327607117 L 209.4778473759007,145.82932206427213 L 196.31338326060958,146.77285589854515 L 184.80927197029368,148.62658314891917 L 174.4454029814669,151.62055270078227 L 164.7016657706429,155.9848134395226 L 155.05794981433553,161.94941425052832 L 144.99414458905852,169.74440401918744 L 133.99013957132559,179.59983163088827 L 121.5258242376505,191.7457459710189 L 121.5258242376505,191.7457459710189 L 121.5258242376505,191.7457459710189 L 121.5258242376505,191.7457459710189 L 121.5258242376505,191.7457459710189 L 121.5258242376505,191.7457459710189 L 121.5258242376505,191.7457459710189 L 121.5258242376505,191.7457459710189 L 121.5258242376505,191.7457459710189 L 121.5258242376505,191.7457459710189 L 121.5258242376505,191.7457459710189 L 301.38404410937324,212.40513609141948 L 301.38404410937324,212.40513609141948 L 301.38404410937324,212.40513609141948 L 301.38404410937324,212.40513609141948 L 301.38404410937324,212.40513609141948 L 301.38404410937324,212.40513609141948 L 301.38404410937324,212.40513609141948 L 301.38404410937324,212.40513609141948 L 301.38404410937324,212.40513609141948 L 301.38404410937324,212.40513609141948 L 301.38404410937324,212.40513609141948 L 323.34704458030654,235.8584532546501 L 339.8088760528279,264.01276938016 L 350.7595364014854,295.5378017828789 L 356.1890235008272,329.1032677777361 L 356.0873352254021,363.37888467966116 L 350.444469449758,397.0343698035833 L 339.2504240484436,428.73944046443205 L 322.49519689600703,457.1638139771369 L 300.16878586699676,480.9772076566271 L 300.16878586699676,480.9772076566271 L 285.6040241884733,491.73449357988585 L 270.3391137283339,499.7011865021318 L 254.48407786654664,504.87728642336504 L 238.1489399830797,507.2627933435856 L 221.44372345790148,506.85770726279344 L 204.47845167098004,503.66202818098856 L 187.3631480022838,497.67575609817095 L 170.2078358317809,488.8988910143407 L 153.12253853943963,477.3314329294976 L 153.12253853943963,477.3314329294976 L 127.52043142501113,452.02772255771026 L 109.70998003742463,421.0928155566392 L 99.47113761674356,386.3671030093896 L 96.58385740303149,349.69097599906655 L 100.82809263635188,312.90482560877524 L 111.9837965567683,277.8490429216209 L 129.83092240434425,246.36401902070864 L 154.1494234191432,220.29014498914356 L 184.71925284122875,201.46781191003095 L 184.71925284122875,201.46781191003095 L 202.44301914156753,194.00122526036793 L 217.85629446257332,188.63508495555308 L 231.43918082592555,185.39939737194152 L 243.67178025330384,184.32416888588824 L 255.03419476638788,185.4394058737482 L 266.00652638685716,188.7751147118764 L 277.06887713639145,194.36130177662756 L 288.7013490366703,202.227973444357 L 301.38404410937324,212.40513609141948 L 301.38404410937324,212.40513609141948 L 301.38404410937324,212.40513609141948 L 301.38404410937324,212.40513609141948 L 301.38404410937324,212.40513609141948 L 301.38404410937324,212.40513609141948 L 301.38404410937324,212.40513609141948 L 301.38404410937324,212.40513609141948 L 301.38404410937324,212.40513609141948 L 301.38404410937324,212.40513609141948 L 301.38404410937324,212.40513609141948M251.55845617193654 7.026493129790123 L 105.72746708675594,8.241751372166629 L 100.47801824554381,15.978395409024632 L 99.6495088539648,24.22514784391686 L 102.53178800495107,32.4118875260993 L 108.41470479143484,39.96849330482731 L 116.58810830634842,46.324844029356235 L 126.34184764262405,50.910818548941734 L 136.96577189319393,53.156295712839004 L 147.74973015099042,52.49115437030377 L 157.98357150894566,48.3452733705913 L 157.98357150894566,48.3452733705913 L 161.94608020871098,45.624695247740256 L 164.92838061421386,43.054149006664005 L 166.94047485090584,40.513609141942695 L 167.99236504423857,37.883050148156585 L 168.09405331966374,35.04244651988548 L 167.25554180263305,31.871772751709866 L 165.4868326185981,28.2510033382094 L 162.7979278930106,24.060112773964573 L 159.19882975132217,19.179075553555172 L 159.19882975132217,19.179075553555172 L 153.32424806938138,12.88273758173631 L 147.12959837298757,7.786654664116105 L 140.7449082930123,3.9208331770500426 L 134.30020546032702,1.3152794968931234 L 127.92551750580333,0.0 L 121.75087206031282,0.005001062725879272 L 115.90629675472707,1.3602890614255532 L 110.52181921991756,4.09587037245416 L 105.72746708675594,8.241751372166629 L 105.72746708675594,8.241751372166629 L 105.72746708675594,8.241751372166629 L 105.72746708675594,8.241751372166629 L 105.72746708675594,8.241751372166629 L 105.72746708675594,8.241751372166629 L 105.72746708675594,8.241751372166629 L 105.72746708675594,8.241751372166629 L 105.72746708675594,8.241751372166629 L 105.72746708675594,8.241751372166629 L 105.72746708675594,8.241751372166629 L 121.5258242376505,191.7457459710189 L 91.07602032098484,228.53689742403608 L 69.30806129635882,269.0388374196184 L 56.08191740744909,311.7412450145656 L 51.257558897932476,355.13379926567734 L 54.69495601148577,397.706179229753 L 66.25407899178575,437.9480639635923 L 85.79489808250919,474.3491325239947 L 113.17738352733286,505.3990639677599 L 148.2615055699336,529.5875373516873 L 148.2615055699336,529.5875373516873 L 166.71042596551766,537.4208686012446 L 186.8397034369804,543.1037428786951 L 208.07921683357714,546.6461623094908 L 229.85884500456345,548.0581290190834 L 251.60846679919484,547.3496451329243 L 272.75796106672664,544.5307127764651 L 292.73720665641446,539.6113340751577 L 310.9760824175137,532.6015111544538 L 326.90446719927985,523.5112461398048 L 326.90446719927985,523.5112461398048 L 348.697431537535,503.35362931289575 L 366.93964134045154,477.6548349857678 L 381.4110498480927,447.53510120900694 L 391.8916103005222,414.1146660331987 L 398.16127593780345,378.51376750892905 L 400.0,341.8526436867835 L 397.1877357271753,305.25153261734795 L 389.504436359393,269.8306723512081 L 376.73005513671654,236.7103009389496 L 376.73005513671654,236.7103009389496 L 365.91942454438225,217.26116799819974 L 353.70849638881595,200.2125451658479 L 340.04726004275915,185.53442606553892 L 324.8857048789534,173.19680432091823 L 308.17382027014077,163.1696735556306 L 289.86159558906263,155.42302739332118 L 269.89902020846097,149.92685945763478 L 248.2360835010773,146.65116337221667 L 224.82277483965342,145.5659327607117 L 224.82277483965342,145.5659327607117 L 209.4778473759007,145.82932206427213 L 196.31338326060958,146.77285589854515 L 184.80927197029368,148.62658314891917 L 174.4454029814669,151.62055270078227 L 164.7016657706429,155.9848134395226 L 155.05794981433553,161.94941425052832 L 144.99414458905852,169.74440401918744 L 133.99013957132559,179.59983163088827 L 121.5258242376505,191.7457459710189 L 121.5258242376505,191.7457459710189 L 121.5258242376505,191.7457459710189 L 121.5258242376505,191.7457459710189 L 121.5258242376505,191.7457459710189 L 121.5258242376505,191.7457459710189 L 121.5258242376505,191.7457459710189 L 121.5258242376505,191.7457459710189 L 121.5258242376505,191.7457459710189 L 121.5258242376505,191.7457459710189 L 121.5258242376505,191.7457459710189 L 301.38404410937324,212.40513609141948 L 301.38404410937324,212.40513609141948 L 301.38404410937324,212.40513609141948 L 301.38404410937324,212.40513609141948 L 301.38404410937324,212.40513609141948 L 301.38404410937324,212.40513609141948 L 301.38404410937324,212.40513609141948 L 301.38404410937324,212.40513609141948 L 301.38404410937324,212.40513609141948 L 301.38404410937324,212.40513609141948 L 301.38404410937324,212.40513609141948 L 323.34704458030654,235.8584532546501 L 339.8088760528279,264.01276938016 L 350.7595364014854,295.5378017828789 L 356.1890235008272,329.1032677777361 L 356.0873352254021,363.37888467966116 L 350.444469449758,397.0343698035833 L 339.2504240484436,428.73944046443205 L 322.49519689600703,457.1638139771369 L 300.16878586699676,480.9772076566271 L 300.16878586699676,480.9772076566271 L 285.6040241884733,491.73449357988585 L 270.3391137283339,499.7011865021318 L 254.48407786654664,504.87728642336504 L 238.1489399830797,507.2627933435856 L 221.44372345790148,506.85770726279344 L 204.47845167098004,503.66202818098856 L 187.3631480022838,497.67575609817095 L 170.2078358317809,488.8988910143407 L 153.12253853943963,477.3314329294976 L 153.12253853943963,477.3314329294976 L 127.52043142501113,452.02772255771026 L 109.70998003742463,421.0928155566392 L 99.47113761674356,386.3671030093896 L 96.58385740303149,349.69097599906655 L 100.82809263635188,312.90482560877524 L 111.9837965567683,277.8490429216209 L 129.83092240434425,246.36401902070864 L 154.1494234191432,220.29014498914356 L 184.71925284122875,201.46781191003095 L 184.71925284122875,201.46781191003095 L 202.44301914156753,194.00122526036793 L 217.85629446257332,188.63508495555308 L 231.43918082592555,185.39939737194152 L 243.67178025330384,184.32416888588824 L 255.03419476638788,185.4394058737482 L 266.00652638685716,188.7751147118764 L 277.06887713639145,194.36130177662756 L 288.7013490366703,202.227973444357 L 301.38404410937324,212.40513609141948 L 301.38404410937324,212.40513609141948 L 301.38404410937324,212.40513609141948 L 301.38404410937324,212.40513609141948 L 301.38404410937324,212.40513609141948 L 301.38404410937324,212.40513609141948 L 301.38404410937324,212.40513609141948 L 301.38404410937324,212.40513609141948 L 301.38404410937324,212.40513609141948 L 301.38404410937324,212.40513609141948 L 301.38404410937324,212.40513609141948 L 251.55845617193654,7.026493129790123 L 249.98645545511746,8.99024376013257 L 248.5244781182668,11.574126168477553 L 247.1925284122876,14.67811910030887 L 246.01061058808327,18.2022013011099 L 244.9987288965572,22.046351516363885 L 244.17688758861257,26.11054849155449 L 243.5650909151528,30.29477097216495 L 243.18334312708117,34.498997703678796 L 243.051648475301,38.62320743157925 L 243.051648475301,38.62320743157925 L 243.37505053157125,43.534251028343654 L 244.37859711855432,47.75514796894341 L 246.11229886350856,51.31590462973381 L 248.62616639369202,54.24652738706977 L 251.97021033636318,56.57702261730624 L 256.1944413187802,58.337396696798194 L 261.34886996820154,59.55765600190044 L 267.4835069118854,60.267806908968254 L 274.64836277709014,60.49785579435635 L 274.64836277709014,60.49785579435635 L 282.40667808575984,60.30114732714057 L 288.73468945484245,59.64434108914812 L 293.73241813885454,58.42741582586306 L 297.49988539231254,56.55035028276842 L 300.1371124697332,53.9131232053478 L 301.74412062563295,50.41571333908466 L 302.4209311145285,45.95809942946216 L 302.2675651909364,40.44026022196389 L 301.38404410937324,33.76217446207323 L 301.38404410937324,33.76217446207323 L 299.2752626599819,24.963638106431116 L 295.58614538922853,17.295341926826104 L 290.62675818611456,10.897315679581856 L 284.70716693964135,5.909589121021679 L 278.13743753881033,2.4721920074682564 L 271.2276358726229,0.7251540952453792 L 264.2878278300805,0.8085051406758025 L 257.62807930018465,2.86227490008304 L 251.55845617193654,7.026493129790123 L 251.55845617193654,7.026493129790123 L 251.55845617193654,7.026493129790123 L 251.55845617193654,7.026493129790123 L 251.55845617193654,7.026493129790123 L 251.55845617193654,7.026493129790123 L 251.55845617193654,7.026493129790123 L 251.55845617193654,7.026493129790123 L 251.55845617193654,7.026493129790123 L 251.55845617193654,7.026493129790123 L 251.55845617193654,7.026493129790123"/></svg>
