<?xml version="1.0" encoding="utf-8"?>
<svg xmlns="http://www.w3.org/2000/svg"  viewBox="0,0,400,524.2552576586188" width="100%">
<path d="M107.77310924369746 3.216842292472483 L 107.77310924369746,3.216842292472483 L 103.50806989462448,6.062424969988028 L 100.42350273442709,10.555333244408715 L 98.49939975990395,16.302076386109846 L 97.71575296785379,22.909163665466078 L 98.05255435507534,29.983104352852255 L 99.48979591836732,37.130407718642935 L 102.00746965452844,43.95758303321325 L 105.58556756035745,50.071139566937845 L 110.20408163265304,55.077586590191565 L 110.20408163265304,55.077586590191565 L 116.28429149437548,58.8568760837668 L 122.47121070650479,60.58201058201049 L 128.5114045618247,60.41972344493337 L 134.151438353119,58.53674803254625 L 139.13787737317145,55.099817704859596 L 143.21728691476585,50.27566582188428 L 146.136232270686,44.231025743630724 L 147.64127873371567,37.13263083010977 L 147.47899159663862,29.14721444133202 L 147.47899159663862,29.14721444133202 L 146.19736783602323,21.34853941576643 L 144.00871459694986,14.716997910275147 L 140.96638655462183,9.279267262460511 L 137.12373838424256,5.062024809923943 L 132.5341247610155,2.0919478902671425 L 127.25090036014403,0.3957138410919898 L 121.3274198568316,0.0 L 114.8170379262816,0.9314837045928704 L 107.77310924369746,3.216842292472483 L 107.77310924369746,3.216842292472483 L 107.77310924369746,3.216842292472483 L 107.77310924369746,3.216842292472483 L 107.77310924369746,3.216842292472483 L 107.77310924369746,3.216842292472483 L 107.77310924369746,3.216842292472483 L 107.77310924369746,3.216842292472483 L 107.77310924369746,3.216842292472483 L 107.77310924369746,3.216842292472483 L 107.77310924369746,3.216842292472483"/></svg>
