<?xml version="1.0" encoding="utf-8"?>
<svg xmlns="http://www.w3.org/2000/svg"  viewBox="0,0,400,524.2552576586188" width="100%">
<path d="M107.77310924369746 3.216842292472483 L 107.77310924369746,3.216842292472483 L 103.50806989462448,6.062424969988028 L 100.42350273442709,10.555333244408715 L 98.49939975990395,16.302076386109846 L 97.71575296785379,22.909163665466078 L 98.05255435507534,29.983104352852255 L 99.48979591836732,37.130407718642935 L 102.00746965452844,43.95758303321325 L 105.58556756035745,50.071139566937845 L 110.20408163265304,55.077586590191565 L 110.20408163265304,55.077586590191565 L 116.28429149437548,58.8568760837668 L 122.47121070650479,60.58201058201049 L 128.5114045618247,60.41972344493337 L 134.151438353119,58.53674803254625 L 139.13787737317145,55.099817704859596 L 143.21728691476585,50.27566582188428 L 146.136232270686,44.231025743630724 L 147.64127873371567,37.13263083010977 L 147.47899159663862,29.14721444133202 L 147.47899159663862,29.14721444133202 L 146.19736783602323,21.34853941576643 L 144.00871459694986,14.716997910275147 L 140.96638655462183,9.279267262460511 L 137.12373838424256,5.062024809923943 L 132.5341247610155,2.0919478902671425 L 127.25090036014403,0.3957138410919898 L 121.3274198568316,0.0 L 114.8170379262816,0.9314837045928704 L 107.77310924369746,3.216842292472483 L 107.77310924369746,3.216842292472483 L 107.77310924369746,3.216842292472483 L 107.77310924369746,3.216842292472483 L 107.77310924369746,3.216842292472483 L 107.77310924369746,3.216842292472483 L 107.77310924369746,3.216842292472483 L 107.77310924369746,3.216842292472483 L 107.77310924369746,3.216842292472483 L 107.77310924369746,3.216842292472483 L 107.77310924369746,3.216842292472483M174.21968787515002 154.7474545373704 L 107.77310924369746,3.216842292472483 L 103.50806989462448,6.062424969988028 L 100.42350273442709,10.555333244408715 L 98.49939975990395,16.302076386109846 L 97.71575296785379,22.909163665466078 L 98.05255435507534,29.983104352852255 L 99.48979591836732,37.130407718642935 L 102.00746965452844,43.95758303321325 L 105.58556756035745,50.071139566937845 L 110.20408163265304,55.077586590191565 L 110.20408163265304,55.077586590191565 L 116.28429149437548,58.8568760837668 L 122.47121070650479,60.58201058201049 L 128.5114045618247,60.41972344493337 L 134.151438353119,58.53674803254625 L 139.13787737317145,55.099817704859596 L 143.21728691476585,50.27566582188428 L 146.136232270686,44.231025743630724 L 147.64127873371567,37.13263083010977 L 147.47899159663862,29.14721444133202 L 147.47899159663862,29.14721444133202 L 146.19736783602323,21.34853941576643 L 144.00871459694986,14.716997910275147 L 140.96638655462183,9.279267262460511 L 137.12373838424256,5.062024809923943 L 132.5341247610155,2.0919478902671425 L 127.25090036014403,0.3957138410919898 L 121.3274198568316,0.0 L 114.8170379262816,0.9314837045928704 L 107.77310924369746,3.216842292472483 L 107.77310924369746,3.216842292472483 L 107.77310924369746,3.216842292472483 L 107.77310924369746,3.216842292472483 L 107.77310924369746,3.216842292472483 L 107.77310924369746,3.216842292472483 L 107.77310924369746,3.216842292472483 L 107.77310924369746,3.216842292472483 L 107.77310924369746,3.216842292472483 L 107.77310924369746,3.216842292472483 L 107.77310924369746,3.216842292472483 L 174.21968787515002,154.7474545373704 L 141.43657462985186,177.74443110577562 L 112.79511804721888,212.91294295495962 L 89.13565426170469,256.51816282068364 L 71.2985194077631,304.82526343870865 L 60.12404961984793,354.0994175447956 L 56.45258103241295,400.6057978747053 L 61.12444977991194,440.60957716419887 L 74.97999199679869,470.37592814903724 L 98.85954381752698,486.1700235649813 L 98.85954381752698,486.1700235649813 L 111.22226668445153,488.03299097416726 L 123.45160286336755,487.14819261037735 L 135.5342136854742,483.5289671424123 L 147.45676048197055,477.18865323907323 L 159.20590458405582,468.1405895691608 L 170.7683073229291,456.39811480147597 L 182.13063002978961,441.9745676048195 L 193.2795340358365,424.8832866479924 L 204.20168067226888,405.1376105997953 L 204.20168067226888,405.1376105997953 L 207.53301320528206,398.56498154817467 L 210.86434573829527,391.992352496554 L 214.19567827130848,385.4197234449333 L 217.5270108043217,378.8470943933127 L 220.85834333733487,372.27446534169206 L 224.1896758703481,365.70183629007147 L 227.5210084033613,359.12920723845076 L 230.8523409363745,352.5565781868301 L 234.1836734693877,345.98394913520946 L 234.1836734693877,345.98394913520946 L 235.53421368547416,350.7558578987149 L 236.88475390156057,355.5277666622203 L 238.23529411764702,360.2996754257257 L 239.58583433373346,365.0715841892311 L 240.93637454981987,369.8434929527365 L 242.28691476590632,374.6154017162419 L 243.63745498199276,379.38731047974727 L 244.98799519807918,384.15921924325266 L 246.33853541416562,388.93112800675806 L 246.33853541416562,388.93112800675806 L 248.9362411631318,397.0377039704769 L 251.81405895691606,405.0442399181893 L 254.89195678271307,412.7906718242851 L 258.0899026277177,420.116935663154 L 261.3278644791249,426.8629674091857 L 264.5258103241296,432.8687030367701 L 267.60370814992655,437.9740785202968 L 270.4815259437107,442.01902983415573 L 273.079231692677,444.8434929527365 L 273.079231692677,444.8434929527365 L 285.83099906629303,454.28171268507384 L 299.52314259036945,460.50531323640547 L 313.7755102040816,463.60099595393694 L 328.20794984660523,463.6554621848738 L 342.44030945711614,460.75541327642145 L 356.0924369747898,454.98755057578563 L 368.78418033880206,446.4385754301719 L 380.1353874883286,435.1951891867856 L 389.7659063625449,421.34409319283253 L 389.7659063625449,421.34409319283253 L 396.54750789204553,407.65973055889003 L 399.84104753012303,396.4430216531055 L 400.0,387.88070783869085 L 397.3778400248987,382.1595304788581 L 392.3280423280423,379.466230936819 L 385.2040816326529,379.9875505757857 L 376.35943266195363,383.91023075897004 L 366.14757013916665,391.4210128495841 L 354.9219687875149,402.70663821083974 L 354.9219687875149,402.70663821083974 L 351.0070694944643,406.95500422391166 L 346.892090169401,411.00329020497077 L 342.67707082833135,414.7714641412118 L 338.4620514872615,418.17949401983 L 334.3470721621982,421.14734782801986 L 330.43217286914756,423.5949935529766 L 326.8173936241162,425.44239918189487 L 323.6027744431105,426.6095327019695 L 320.8883553421368,427.01636210039555 L 320.8883553421368,427.01636210039555 L 310.6520385932149,423.76172691298734 L 301.1226712907385,414.4246587523897 L 292.46698679471785,399.6454137210438 L 284.85171846516386,380.06424792139063 L 278.443599662087,356.3214174558711 L 273.4093637454981,329.0571784269262 L 269.9157440754079,298.9117869369969 L 268.12947401182686,266.5254990885242 L 268.21728691476585,232.538570983949 L 268.21728691476585,232.538570983949 L 268.60966608865755,220.380374371971 L 268.7152638833311,208.86243386243368 L 268.547418967587,198.14481348094776 L 268.1194700102263,188.38757725312334 L 267.44475568004975,179.7507892045706 L 266.5366146458582,172.3945133608998 L 265.40838557645276,166.4788137477212 L 264.07340714063395,162.1637543906451 L 262.5450180072028,159.60939931528156 L 262.5450180072028,159.60939931528156 L 256.5281668222844,155.2009692765995 L 248.50384598283756,151.71290738517618 L 238.9255702280912,149.16522164421312 L 228.24685429727447,147.57792005691155 L 216.92121292961627,146.97101062647272 L 205.4021608643457,147.36450135609792 L 194.1432128406918,148.77840024898836 L 183.59788359788354,151.2327153083455 L 174.21968787515002,154.7474545373704 L 174.21968787515002,154.7474545373704 L 174.21968787515002,154.7474545373704 L 174.21968787515002,154.7474545373704 L 174.21968787515002,154.7474545373704 L 174.21968787515002,154.7474545373704 L 174.21968787515002,154.7474545373704 L 174.21968787515002,154.7474545373704 L 174.21968787515002,154.7474545373704 L 174.21968787515002,154.7474545373704 L 174.21968787515002,154.7474545373704 L 222.83913565426167,191.21204037170412 L 222.83913565426167,191.21204037170412 L 222.83913565426167,191.21204037170412 L 222.83913565426167,191.21204037170412 L 222.83913565426167,191.21204037170412 L 222.83913565426167,191.21204037170412 L 222.83913565426167,191.21204037170412 L 222.83913565426167,191.21204037170412 L 222.83913565426167,191.21204037170412 L 222.83913565426167,191.21204037170412 L 222.83913565426167,191.21204037170412 L 224.47979191676663,199.59983993597436 L 223.65946378551416,213.71659775021104 L 220.67827130852336,232.3885109599394 L 215.8363345338135,254.44177671068417 L 209.43377350940375,278.7025921479701 L 201.7707082833133,303.99715441732235 L 193.1472589035614,329.15166066426553 L 183.86354541816723,352.9923080343247 L 174.21968787515002,374.3452936730246 L 174.21968787515002,374.3452936730246 L 159.01805166511042,403.6092214663642 L 144.92352496554176,425.50353474723204 L 132.20288115246098,440.04157218442907 L 121.12289360188517,447.23667244675624 L 111.95033568983145,447.1021742030144 L 104.95198079231689,439.65141612200415 L 100.39460228535856,424.8977368725266 L 98.5449735449735,402.85447512338254 L 99.66986794717884,373.53496954337277 L 99.66986794717884,373.53496954337277 L 102.52878929349514,350.59357076163786 L 107.65528433595658,327.03859321506366 L 114.73589435774309,303.5169623404916 L 123.45716064203454,280.6756035747631 L 133.505624472011,259.1614423547195 L 144.5678271308523,239.62140411720233 L 156.33030990173842,222.7024142990529 L 168.4796140678493,209.05139833711252 L 180.7022809123649,199.31528166822272 L 180.7022809123649,199.31528166822272 L 189.59028055666698,193.99537592814897 L 196.94433328887106,189.88928904895278 L 202.97118847539016,186.95033568983135 L 207.87759548263747,185.13183050998168 L 211.87030367702633,184.38708816860066 L 215.1560624249699,184.66942332488546 L 217.94162109288155,185.9321506380329 L 220.43372904717438,188.12858476724014 L 222.83913565426167,191.21204037170412 L 222.83913565426167,191.21204037170412 L 222.83913565426167,191.21204037170412 L 222.83913565426167,191.21204037170412 L 222.83913565426167,191.21204037170412 L 222.83913565426167,191.21204037170412 L 222.83913565426167,191.21204037170412 L 222.83913565426167,191.21204037170412 L 222.83913565426167,191.21204037170412 L 222.83913565426167,191.21204037170412 L 222.83913565426167,191.21204037170412M256.8727490996398 15.371704237250391 L 107.77310924369746,3.216842292472483 L 103.50806989462448,6.062424969988028 L 100.42350273442709,10.555333244408715 L 98.49939975990395,16.302076386109846 L 97.71575296785379,22.909163665466078 L 98.05255435507534,29.983104352852255 L 99.48979591836732,37.130407718642935 L 102.00746965452844,43.95758303321325 L 105.58556756035745,50.071139566937845 L 110.20408163265304,55.077586590191565 L 110.20408163265304,55.077586590191565 L 116.28429149437548,58.8568760837668 L 122.47121070650479,60.58201058201049 L 128.5114045618247,60.41972344493337 L 134.151438353119,58.53674803254625 L 139.13787737317145,55.099817704859596 L 143.21728691476585,50.27566582188428 L 146.136232270686,44.231025743630724 L 147.64127873371567,37.13263083010977 L 147.47899159663862,29.14721444133202 L 147.47899159663862,29.14721444133202 L 146.19736783602323,21.34853941576643 L 144.00871459694986,14.716997910275147 L 140.96638655462183,9.279267262460511 L 137.12373838424256,5.062024809923943 L 132.5341247610155,2.0919478902671425 L 127.25090036014403,0.3957138410919898 L 121.3274198568316,0.0 L 114.8170379262816,0.9314837045928704 L 107.77310924369746,3.216842292472483 L 107.77310924369746,3.216842292472483 L 107.77310924369746,3.216842292472483 L 107.77310924369746,3.216842292472483 L 107.77310924369746,3.216842292472483 L 107.77310924369746,3.216842292472483 L 107.77310924369746,3.216842292472483 L 107.77310924369746,3.216842292472483 L 107.77310924369746,3.216842292472483 L 107.77310924369746,3.216842292472483 L 107.77310924369746,3.216842292472483 L 174.21968787515002,154.7474545373704 L 141.43657462985186,177.74443110577562 L 112.79511804721888,212.91294295495962 L 89.13565426170469,256.51816282068364 L 71.2985194077631,304.82526343870865 L 60.12404961984793,354.0994175447956 L 56.45258103241295,400.6057978747053 L 61.12444977991194,440.60957716419887 L 74.97999199679869,470.37592814903724 L 98.85954381752698,486.1700235649813 L 98.85954381752698,486.1700235649813 L 111.22226668445153,488.03299097416726 L 123.45160286336755,487.14819261037735 L 135.5342136854742,483.5289671424123 L 147.45676048197055,477.18865323907323 L 159.20590458405582,468.1405895691608 L 170.7683073229291,456.39811480147597 L 182.13063002978961,441.9745676048195 L 193.2795340358365,424.8832866479924 L 204.20168067226888,405.1376105997953 L 204.20168067226888,405.1376105997953 L 207.53301320528206,398.56498154817467 L 210.86434573829527,391.992352496554 L 214.19567827130848,385.4197234449333 L 217.5270108043217,378.8470943933127 L 220.85834333733487,372.27446534169206 L 224.1896758703481,365.70183629007147 L 227.5210084033613,359.12920723845076 L 230.8523409363745,352.5565781868301 L 234.1836734693877,345.98394913520946 L 234.1836734693877,345.98394913520946 L 235.53421368547416,350.7558578987149 L 236.88475390156057,355.5277666622203 L 238.23529411764702,360.2996754257257 L 239.58583433373346,365.0715841892311 L 240.93637454981987,369.8434929527365 L 242.28691476590632,374.6154017162419 L 243.63745498199276,379.38731047974727 L 244.98799519807918,384.15921924325266 L 246.33853541416562,388.93112800675806 L 246.33853541416562,388.93112800675806 L 248.9362411631318,397.0377039704769 L 251.81405895691606,405.0442399181893 L 254.89195678271307,412.7906718242851 L 258.0899026277177,420.116935663154 L 261.3278644791249,426.8629674091857 L 264.5258103241296,432.8687030367701 L 267.60370814992655,437.9740785202968 L 270.4815259437107,442.01902983415573 L 273.079231692677,444.8434929527365 L 273.079231692677,444.8434929527365 L 285.83099906629303,454.28171268507384 L 299.52314259036945,460.50531323640547 L 313.7755102040816,463.60099595393694 L 328.20794984660523,463.6554621848738 L 342.44030945711614,460.75541327642145 L 356.0924369747898,454.98755057578563 L 368.78418033880206,446.4385754301719 L 380.1353874883286,435.1951891867856 L 389.7659063625449,421.34409319283253 L 389.7659063625449,421.34409319283253 L 396.54750789204553,407.65973055889003 L 399.84104753012303,396.4430216531055 L 400.0,387.88070783869085 L 397.3778400248987,382.1595304788581 L 392.3280423280423,379.466230936819 L 385.2040816326529,379.9875505757857 L 376.35943266195363,383.91023075897004 L 366.14757013916665,391.4210128495841 L 354.9219687875149,402.70663821083974 L 354.9219687875149,402.70663821083974 L 351.0070694944643,406.95500422391166 L 346.892090169401,411.00329020497077 L 342.67707082833135,414.7714641412118 L 338.4620514872615,418.17949401983 L 334.3470721621982,421.14734782801986 L 330.43217286914756,423.5949935529766 L 326.8173936241162,425.44239918189487 L 323.6027744431105,426.6095327019695 L 320.8883553421368,427.01636210039555 L 320.8883553421368,427.01636210039555 L 310.6520385932149,423.76172691298734 L 301.1226712907385,414.4246587523897 L 292.46698679471785,399.6454137210438 L 284.85171846516386,380.06424792139063 L 278.443599662087,356.3214174558711 L 273.4093637454981,329.0571784269262 L 269.9157440754079,298.9117869369969 L 268.12947401182686,266.5254990885242 L 268.21728691476585,232.538570983949 L 268.21728691476585,232.538570983949 L 268.60966608865755,220.380374371971 L 268.7152638833311,208.86243386243368 L 268.547418967587,198.14481348094776 L 268.1194700102263,188.38757725312334 L 267.44475568004975,179.7507892045706 L 266.5366146458582,172.3945133608998 L 265.40838557645276,166.4788137477212 L 264.07340714063395,162.1637543906451 L 262.5450180072028,159.60939931528156 L 262.5450180072028,159.60939931528156 L 256.5281668222844,155.2009692765995 L 248.50384598283756,151.71290738517618 L 238.9255702280912,149.16522164421312 L 228.24685429727447,147.57792005691155 L 216.92121292961627,146.97101062647272 L 205.4021608643457,147.36450135609792 L 194.1432128406918,148.77840024898836 L 183.59788359788354,151.2327153083455 L 174.21968787515002,154.7474545373704 L 174.21968787515002,154.7474545373704 L 174.21968787515002,154.7474545373704 L 174.21968787515002,154.7474545373704 L 174.21968787515002,154.7474545373704 L 174.21968787515002,154.7474545373704 L 174.21968787515002,154.7474545373704 L 174.21968787515002,154.7474545373704 L 174.21968787515002,154.7474545373704 L 174.21968787515002,154.7474545373704 L 174.21968787515002,154.7474545373704 L 222.83913565426167,191.21204037170412 L 222.83913565426167,191.21204037170412 L 222.83913565426167,191.21204037170412 L 222.83913565426167,191.21204037170412 L 222.83913565426167,191.21204037170412 L 222.83913565426167,191.21204037170412 L 222.83913565426167,191.21204037170412 L 222.83913565426167,191.21204037170412 L 222.83913565426167,191.21204037170412 L 222.83913565426167,191.21204037170412 L 222.83913565426167,191.21204037170412 L 224.47979191676663,199.59983993597436 L 223.65946378551416,213.71659775021104 L 220.67827130852336,232.3885109599394 L 215.8363345338135,254.44177671068417 L 209.43377350940375,278.7025921479701 L 201.7707082833133,303.99715441732235 L 193.1472589035614,329.15166066426553 L 183.86354541816723,352.9923080343247 L 174.21968787515002,374.3452936730246 L 174.21968787515002,374.3452936730246 L 159.01805166511042,403.6092214663642 L 144.92352496554176,425.50353474723204 L 132.20288115246098,440.04157218442907 L 121.12289360188517,447.23667244675624 L 111.95033568983145,447.1021742030144 L 104.95198079231689,439.65141612200415 L 100.39460228535856,424.8977368725266 L 98.5449735449735,402.85447512338254 L 99.66986794717884,373.53496954337277 L 99.66986794717884,373.53496954337277 L 102.52878929349514,350.59357076163786 L 107.65528433595658,327.03859321506366 L 114.73589435774309,303.5169623404916 L 123.45716064203454,280.6756035747631 L 133.505624472011,259.1614423547195 L 144.5678271308523,239.62140411720233 L 156.33030990173842,222.7024142990529 L 168.4796140678493,209.05139833711252 L 180.7022809123649,199.31528166822272 L 180.7022809123649,199.31528166822272 L 189.59028055666698,193.99537592814897 L 196.94433328887106,189.88928904895278 L 202.97118847539016,186.95033568983135 L 207.87759548263747,185.13183050998168 L 211.87030367702633,184.38708816860066 L 215.1560624249699,184.66942332488546 L 217.94162109288155,185.9321506380329 L 220.43372904717438,188.12858476724014 L 222.83913565426167,191.21204037170412 L 222.83913565426167,191.21204037170412 L 222.83913565426167,191.21204037170412 L 222.83913565426167,191.21204037170412 L 222.83913565426167,191.21204037170412 L 222.83913565426167,191.21204037170412 L 222.83913565426167,191.21204037170412 L 222.83913565426167,191.21204037170412 L 222.83913565426167,191.21204037170412 L 222.83913565426167,191.21204037170412 L 222.83913565426167,191.21204037170412 L 256.8727490996398,15.371704237250391 L 249.69654528478048,20.889466897870307 L 245.32146191810048,27.881152460984282 L 243.54741896758696,35.77986750255644 L 244.1743364012271,44.01871859855037 L 247.0021341870081,52.03081232492991 L 251.83073229291705,59.24925525765855 L 258.4600506869414,65.10715397270013 L 266.6900093370681,69.03761504601833 L 276.32052821128445,70.4737450535769 L 276.32052821128445,70.4737450535769 L 282.1106220265884,69.99799919967991 L 287.04704103863764,68.58854652972295 L 291.11644657863144,66.27206438130797 L 294.3054999777689,63.07523009203669 L 296.60086256724907,59.024720999510805 L 297.98919567827124,54.14721444133201 L 298.4571606420345,48.469387755102 L 297.9914187897381,42.017918278422385 L 296.57863145258096,34.81948334889504 L 296.57863145258096,34.81948334889504 L 294.3366235383041,27.83002089724781 L 291.42768218398464,22.001022631274658 L 287.9051620648259,17.35249655417708 L 283.8224178560313,13.904450669156457 L 279.2328042328042,11.6768929794139 L 274.1896758703481,10.689831488150803 L 268.7463874438664,10.963274198568277 L 262.95629362856243,12.517229113867707 L 256.8727490996398,15.371704237250391 L 256.8727490996398,15.371704237250391 L 256.8727490996398,15.371704237250391 L 256.8727490996398,15.371704237250391 L 256.8727490996398,15.371704237250391 L 256.8727490996398,15.371704237250391 L 256.8727490996398,15.371704237250391 L 256.8727490996398,15.371704237250391 L 256.8727490996398,15.371704237250391 L 256.8727490996398,15.371704237250391 L 256.8727490996398,15.371704237250391"/></svg>
