<?xml version="1.0" encoding="utf-8"?>
<svg xmlns="http://www.w3.org/2000/svg"  viewBox="0,0,400,738.4615384615385" width="100%">
<path d="M84.61538461538461 15.384615384615385 L 84.61538461538461,15.384615384615385 L 81.7537195314973,23.5728606098978 L 82.12092434314657,32.457528753825066 L 85.2991452991453,41.59544159544156 L 90.87052864830642,50.54342091379121 L 98.41722063944285,58.85828848791807 L 107.52136752136752,66.09686609686605 L 117.76511554289331,71.8159755196792 L 128.73061095283316,75.57243853540153 L 140.0,76.92307692307692 L 140.0,76.92307692307692 L 150.64260842038615,75.05750765010029 L 158.93004115226339,69.97573071647139 L 164.78632478632483,62.45014245014239 L 168.13548591326366,53.253139179065116 L 168.90155112377334,43.157117231191236 L 167.00854700854703,32.934472934473 L 162.3805001582779,23.357602616861886 L 154.94143716365937,15.19890260631008 L 144.6153846153846,9.23076923076923 L 144.6153846153846,9.23076923076923 L 133.99810066476732,5.237944497203864 L 124.63437796771132,2.473356547430617 L 116.41025641025641,0.9116809116807627 L 109.21177587844255,0.527593120185744 L 102.92497625830958,1.2957687031761311 L 97.43589743589743,3.190883190883194 L 92.63057929724596,6.1876121135380275 L 88.39506172839505,10.260631001371726 L 84.61538461538461,15.384615384615385 L 84.61538461538461,15.384615384615385 L 84.61538461538461,15.384615384615385 L 84.61538461538461,15.384615384615385 L 84.61538461538461,15.384615384615385 L 84.61538461538461,15.384615384615385 L 84.61538461538461,15.384615384615385 L 84.61538461538461,15.384615384615385 L 84.61538461538461,15.384615384615385 L 84.61538461538461,15.384615384615385 L 84.61538461538461,15.384615384615385"/></svg>
