<?xml version="1.0" encoding="utf-8"?>
<svg xmlns="http://www.w3.org/2000/svg"  viewBox="0,0,400,738.4615384615385" width="100%">
<path d="M84.61538461538461 15.384615384615385 L 84.61538461538461,15.384615384615385 L 81.7537195314973,23.5728606098978 L 82.12092434314657,32.457528753825066 L 85.2991452991453,41.59544159544156 L 90.87052864830642,50.54342091379121 L 98.41722063944285,58.85828848791807 L 107.52136752136752,66.09686609686605 L 117.76511554289331,71.8159755196792 L 128.73061095283316,75.57243853540153 L 140.0,76.92307692307692 L 140.0,76.92307692307692 L 150.64260842038615,75.05750765010029 L 158.93004115226339,69.97573071647139 L 164.78632478632483,62.45014245014239 L 168.13548591326366,53.253139179065116 L 168.90155112377334,43.157117231191236 L 167.00854700854703,32.934472934473 L 162.3805001582779,23.357602616861886 L 154.94143716365937,15.19890260631008 L 144.6153846153846,9.23076923076923 L 144.6153846153846,9.23076923076923 L 133.99810066476732,5.237944497203864 L 124.63437796771132,2.473356547430617 L 116.41025641025641,0.9116809116807627 L 109.21177587844255,0.527593120185744 L 102.92497625830958,1.2957687031761311 L 97.43589743589743,3.190883190883194 L 92.63057929724596,6.1876121135380275 L 88.39506172839505,10.260631001371726 L 84.61538461538461,15.384615384615385 L 84.61538461538461,15.384615384615385 L 84.61538461538461,15.384615384615385 L 84.61538461538461,15.384615384615385 L 84.61538461538461,15.384615384615385 L 84.61538461538461,15.384615384615385 L 84.61538461538461,15.384615384615385 L 84.61538461538461,15.384615384615385 L 84.61538461538461,15.384615384615385 L 84.61538461538461,15.384615384615385 L 84.61538461538461,15.384615384615385M150.76923076923077 210.76923076923077 L 84.61538461538461,15.384615384615385 L 81.7537195314973,23.5728606098978 L 82.12092434314657,32.457528753825066 L 85.2991452991453,41.59544159544156 L 90.87052864830642,50.54342091379121 L 98.41722063944285,58.85828848791807 L 107.52136752136752,66.09686609686605 L 117.76511554289331,71.8159755196792 L 128.73061095283316,75.57243853540153 L 140.0,76.92307692307692 L 140.0,76.92307692307692 L 150.64260842038615,75.05750765010029 L 158.93004115226339,69.97573071647139 L 164.78632478632483,62.45014245014239 L 168.13548591326366,53.253139179065116 L 168.90155112377334,43.157117231191236 L 167.00854700854703,32.934472934473 L 162.3805001582779,23.357602616861886 L 154.94143716365937,15.19890260631008 L 144.6153846153846,9.23076923076923 L 144.6153846153846,9.23076923076923 L 133.99810066476732,5.237944497203864 L 124.63437796771132,2.473356547430617 L 116.41025641025641,0.9116809116807627 L 109.21177587844255,0.527593120185744 L 102.92497625830958,1.2957687031761311 L 97.43589743589743,3.190883190883194 L 92.63057929724596,6.1876121135380275 L 88.39506172839505,10.260631001371726 L 84.61538461538461,15.384615384615385 L 84.61538461538461,15.384615384615385 L 84.61538461538461,15.384615384615385 L 84.61538461538461,15.384615384615385 L 84.61538461538461,15.384615384615385 L 84.61538461538461,15.384615384615385 L 84.61538461538461,15.384615384615385 L 84.61538461538461,15.384615384615385 L 84.61538461538461,15.384615384615385 L 84.61538461538461,15.384615384615385 L 84.61538461538461,15.384615384615385 L 150.76923076923077,210.76923076923077 L 128.2705497520312,221.3865147198481 L 111.0646829165348,232.3456790123456 L 99.20227920227923,243.07692307692307 L 92.73398754880236,253.01044634377962 L 91.71045689564208,261.57644824311495 L 96.18233618233617,268.20512820512823 L 106.20027434842248,272.326685660019 L 121.81492033343885,273.3713200379868 L 143.07692307692307,270.7692307692308 L 143.07692307692307,270.7692307692308 L 192.82051282051276,260.968660968661 L 232.1937321937322,254.58689458689466 L 262.5641025641026,252.30769230769232 L 285.29914529914527,254.81481481481478 L 301.76638176638176,262.79202279202275 L 313.33333333333337,276.9230769230769 L 321.36752136752136,297.8917378917379 L 327.2364672364672,326.3817663817664 L 332.3076923076923,363.07692307692304 L 332.3076923076923,363.07692307692304 L 335.4711406563258,385.0754458161866 L 337.67225915374064,402.0850480109739 L 338.74643874643874,414.47293447293447 L 338.52907038092224,422.6063100137174 L 336.8555450036931,426.85237944497203 L 333.5612535612535,427.57834757834763 L 328.48158700010555,425.1514192254933 L 321.4519362667511,419.93879919805846 L 312.3076923076923,412.3076923076923 L 312.3076923076923,412.3076923076923 L 295.6737364144771,398.87517146776406 L 277.81154373746966,387.3546480953888 L 259.0883190883191,377.83475783475774 L 239.8712672786747,370.4041363300623 L 220.52759312018574,365.1514192254933 L 201.42450142450144,362.1652421652422 L 182.9291970032711,361.5342407935001 L 165.4088846681439,363.34705075445817 L 149.23076923076923,367.6923076923077 L 149.23076923076923,367.6923076923077 L 125.5903767014878,380.920122401604 L 105.17885406774296,400.23847209032385 L 88.3760683760684,424.33048433048424 L 75.56188667299779,451.8792866941015 L 67.1161760050649,481.56800675319187 L 63.418803418803414,512.079772079772 L 64.84963596074707,542.0977102458584 L 71.78854067742955,570.3049488234673 L 84.61538461538461,595.3846153846154 L 84.61538461538461,595.3846153846154 L 98.3264746227709,610.5307586789069 L 117.1531075234779,624.9298301150153 L 139.94301994301992,638.1766381766381 L 165.54394850691148,649.8659913474728 L 192.80362984066687,659.5926981112166 L 220.56980056980052,666.951566951567 L 247.69019731982692,671.5374063522212 L 273.01255671626035,672.9450247968766 L 295.38461538461536,670.7692307692307 L 295.38461538461536,670.7692307692307 L 321.2577819985226,664.5161971087897 L 342.7118286377546,656.6423973831381 L 360.11396011396016,646.5527065527065 L 373.8313812387886,633.6519995779255 L 384.2312968238894,617.3451514192255 L 391.6809116809116,597.037037037037 L 396.5474306215047,572.1325313917907 L 399.19805845731776,542.0365094439169 L 400.0,506.15384615384613 L 400.0,506.15384615384613 L 399.1706236150679,466.968449931413 L 396.7837923393479,427.88435158805527 L 392.991452991453,389.6866096866097 L 387.94555238999686,353.1602827899124 L 381.7980373535929,319.09042946079984 L 374.7008547008547,288.26210826210837 L 366.8059512503957,261.46037775667406 L 358.26527382082935,239.47029650733356 L 349.2307692307692,223.07692307692307 L 349.2307692307692,223.07692307692307 L 337.8157644824311,212.37311385459554 L 321.6144349477683,203.88519573704752 L 301.53846153846155,197.66381766381755 L 278.49952516619186,193.7596285744434 L 253.40930674264007,192.2232774084625 L 227.17948717948718,193.1054131054131 L 200.72174738841406,196.45668460483273 L 174.94776828110162,202.3277408462594 L 150.76923076923077,210.76923076923077 L 150.76923076923077,210.76923076923077 L 150.76923076923077,210.76923076923077 L 150.76923076923077,210.76923076923077 L 150.76923076923077,210.76923076923077 L 150.76923076923077,210.76923076923077 L 150.76923076923077,210.76923076923077 L 150.76923076923077,210.76923076923077 L 150.76923076923077,210.76923076923077 L 150.76923076923077,210.76923076923077 L 150.76923076923077,210.76923076923077 L 267.6923076923077,453.84615384615387 L 267.6923076923077,453.84615384615387 L 267.6923076923077,453.84615384615387 L 267.6923076923077,453.84615384615387 L 267.6923076923077,453.84615384615387 L 267.6923076923077,453.84615384615387 L 267.6923076923077,453.84615384615387 L 267.6923076923077,453.84615384615387 L 267.6923076923077,453.84615384615387 L 267.6923076923077,453.84615384615387 L 267.6923076923077,453.84615384615387 L 282.0639442861665,468.57655376173904 L 295.2579930357708,484.7377862192677 L 307.00854700854705,501.82336182336167 L 317.0496992719215,519.326791178643 L 325.1155428933207,536.7415848897331 L 330.9401709401709,553.5612535612535 L 334.25767647989875,569.2793077978263 L 334.80215257993035,583.389258204073 L 332.3076923076923,595.3846153846154 L 332.3076923076923,595.3846153846154 L 329.9356336393373,599.3120185712778 L 325.9807956104252,602.872216946291 L 320.5698005698006,606.039886039886 L 313.829270866308,608.7897013822939 L 305.8858288487918,611.096338503746 L 296.8660968660968,612.9344729344729 L 286.8966972670676,614.2787802047061 L 276.10425240054866,615.1039358446766 L 264.61538461538464,615.3846153846154 L 264.61538461538464,615.3846153846154 L 228.49635960747068,611.8560725968133 L 196.51788540677433,601.9710878970138 L 169.40170940170944,586.7806267806267 L 147.8695789806901,567.3356547430623 L 132.64324153213042,544.6871372797299 L 124.44444444444444,519.8860398860398 L 123.99493510604623,493.9833280574021 L 132.0164609053498,468.02996728922665 L 149.23076923076923,443.07692307692304 L 149.23076923076923,443.07692307692304 L 160.58668354964647,431.79698216735267 L 172.15785586155957,423.6066265695896 L 184.0455840455841,418.5185185185185 L 196.35116598079563,416.545320249024 L 209.17589954626993,417.69969399599023 L 222.6210826210826,421.994301994302 L 236.78801308430934,429.4418064788435 L 251.77798881502585,440.0548696844993 L 267.6923076923077,453.84615384615387 L 267.6923076923077,453.84615384615387 L 267.6923076923077,453.84615384615387 L 267.6923076923077,453.84615384615387 L 267.6923076923077,453.84615384615387 L 267.6923076923077,453.84615384615387 L 267.6923076923077,453.84615384615387 L 267.6923076923077,453.84615384615387 L 267.6923076923077,453.84615384615387 L 267.6923076923077,453.84615384615387 L 267.6923076923077,453.84615384615387M287.6923076923077 21.53846153846154 L 84.61538461538461,15.384615384615385 L 81.7537195314973,23.5728606098978 L 82.12092434314657,32.457528753825066 L 85.2991452991453,41.59544159544156 L 90.87052864830642,50.54342091379121 L 98.41722063944285,58.85828848791807 L 107.52136752136752,66.09686609686605 L 117.76511554289331,71.8159755196792 L 128.73061095283316,75.57243853540153 L 140.0,76.92307692307692 L 140.0,76.92307692307692 L 150.64260842038615,75.05750765010029 L 158.93004115226339,69.97573071647139 L 164.78632478632483,62.45014245014239 L 168.13548591326366,53.253139179065116 L 168.90155112377334,43.157117231191236 L 167.00854700854703,32.934472934473 L 162.3805001582779,23.357602616861886 L 154.94143716365937,15.19890260631008 L 144.6153846153846,9.23076923076923 L 144.6153846153846,9.23076923076923 L 133.99810066476732,5.237944497203864 L 124.63437796771132,2.473356547430617 L 116.41025641025641,0.9116809116807627 L 109.21177587844255,0.527593120185744 L 102.92497625830958,1.2957687031761311 L 97.43589743589743,3.190883190883194 L 92.63057929724596,6.1876121135380275 L 88.39506172839505,10.260631001371726 L 84.61538461538461,15.384615384615385 L 84.61538461538461,15.384615384615385 L 84.61538461538461,15.384615384615385 L 84.61538461538461,15.384615384615385 L 84.61538461538461,15.384615384615385 L 84.61538461538461,15.384615384615385 L 84.61538461538461,15.384615384615385 L 84.61538461538461,15.384615384615385 L 84.61538461538461,15.384615384615385 L 84.61538461538461,15.384615384615385 L 84.61538461538461,15.384615384615385 L 150.76923076923077,210.76923076923077 L 128.2705497520312,221.3865147198481 L 111.0646829165348,232.3456790123456 L 99.20227920227923,243.07692307692307 L 92.73398754880236,253.01044634377962 L 91.71045689564208,261.57644824311495 L 96.18233618233617,268.20512820512823 L 106.20027434842248,272.326685660019 L 121.81492033343885,273.3713200379868 L 143.07692307692307,270.7692307692308 L 143.07692307692307,270.7692307692308 L 192.82051282051276,260.968660968661 L 232.1937321937322,254.58689458689466 L 262.5641025641026,252.30769230769232 L 285.29914529914527,254.81481481481478 L 301.76638176638176,262.79202279202275 L 313.33333333333337,276.9230769230769 L 321.36752136752136,297.8917378917379 L 327.2364672364672,326.3817663817664 L 332.3076923076923,363.07692307692304 L 332.3076923076923,363.07692307692304 L 335.4711406563258,385.0754458161866 L 337.67225915374064,402.0850480109739 L 338.74643874643874,414.47293447293447 L 338.52907038092224,422.6063100137174 L 336.8555450036931,426.85237944497203 L 333.5612535612535,427.57834757834763 L 328.48158700010555,425.1514192254933 L 321.4519362667511,419.93879919805846 L 312.3076923076923,412.3076923076923 L 312.3076923076923,412.3076923076923 L 295.6737364144771,398.87517146776406 L 277.81154373746966,387.3546480953888 L 259.0883190883191,377.83475783475774 L 239.8712672786747,370.4041363300623 L 220.52759312018574,365.1514192254933 L 201.42450142450144,362.1652421652422 L 182.9291970032711,361.5342407935001 L 165.4088846681439,363.34705075445817 L 149.23076923076923,367.6923076923077 L 149.23076923076923,367.6923076923077 L 125.5903767014878,380.920122401604 L 105.17885406774296,400.23847209032385 L 88.3760683760684,424.33048433048424 L 75.56188667299779,451.8792866941015 L 67.1161760050649,481.56800675319187 L 63.418803418803414,512.079772079772 L 64.84963596074707,542.0977102458584 L 71.78854067742955,570.3049488234673 L 84.61538461538461,595.3846153846154 L 84.61538461538461,595.3846153846154 L 98.3264746227709,610.5307586789069 L 117.1531075234779,624.9298301150153 L 139.94301994301992,638.1766381766381 L 165.54394850691148,649.8659913474728 L 192.80362984066687,659.5926981112166 L 220.56980056980052,666.951566951567 L 247.69019731982692,671.5374063522212 L 273.01255671626035,672.9450247968766 L 295.38461538461536,670.7692307692307 L 295.38461538461536,670.7692307692307 L 321.2577819985226,664.5161971087897 L 342.7118286377546,656.6423973831381 L 360.11396011396016,646.5527065527065 L 373.8313812387886,633.6519995779255 L 384.2312968238894,617.3451514192255 L 391.6809116809116,597.037037037037 L 396.5474306215047,572.1325313917907 L 399.19805845731776,542.0365094439169 L 400.0,506.15384615384613 L 400.0,506.15384615384613 L 399.1706236150679,466.968449931413 L 396.7837923393479,427.88435158805527 L 392.991452991453,389.6866096866097 L 387.94555238999686,353.1602827899124 L 381.7980373535929,319.09042946079984 L 374.7008547008547,288.26210826210837 L 366.8059512503957,261.46037775667406 L 358.26527382082935,239.47029650733356 L 349.2307692307692,223.07692307692307 L 349.2307692307692,223.07692307692307 L 337.8157644824311,212.37311385459554 L 321.6144349477683,203.88519573704752 L 301.53846153846155,197.66381766381755 L 278.49952516619186,193.7596285744434 L 253.40930674264007,192.2232774084625 L 227.17948717948718,193.1054131054131 L 200.72174738841406,196.45668460483273 L 174.94776828110162,202.3277408462594 L 150.76923076923077,210.76923076923077 L 150.76923076923077,210.76923076923077 L 150.76923076923077,210.76923076923077 L 150.76923076923077,210.76923076923077 L 150.76923076923077,210.76923076923077 L 150.76923076923077,210.76923076923077 L 150.76923076923077,210.76923076923077 L 150.76923076923077,210.76923076923077 L 150.76923076923077,210.76923076923077 L 150.76923076923077,210.76923076923077 L 150.76923076923077,210.76923076923077 L 267.6923076923077,453.84615384615387 L 267.6923076923077,453.84615384615387 L 267.6923076923077,453.84615384615387 L 267.6923076923077,453.84615384615387 L 267.6923076923077,453.84615384615387 L 267.6923076923077,453.84615384615387 L 267.6923076923077,453.84615384615387 L 267.6923076923077,453.84615384615387 L 267.6923076923077,453.84615384615387 L 267.6923076923077,453.84615384615387 L 267.6923076923077,453.84615384615387 L 282.0639442861665,468.57655376173904 L 295.2579930357708,484.7377862192677 L 307.00854700854705,501.82336182336167 L 317.0496992719215,519.326791178643 L 325.1155428933207,536.7415848897331 L 330.9401709401709,553.5612535612535 L 334.25767647989875,569.2793077978263 L 334.80215257993035,583.389258204073 L 332.3076923076923,595.3846153846154 L 332.3076923076923,595.3846153846154 L 329.9356336393373,599.3120185712778 L 325.9807956104252,602.872216946291 L 320.5698005698006,606.039886039886 L 313.829270866308,608.7897013822939 L 305.8858288487918,611.096338503746 L 296.8660968660968,612.9344729344729 L 286.8966972670676,614.2787802047061 L 276.10425240054866,615.1039358446766 L 264.61538461538464,615.3846153846154 L 264.61538461538464,615.3846153846154 L 228.49635960747068,611.8560725968133 L 196.51788540677433,601.9710878970138 L 169.40170940170944,586.7806267806267 L 147.8695789806901,567.3356547430623 L 132.64324153213042,544.6871372797299 L 124.44444444444444,519.8860398860398 L 123.99493510604623,493.9833280574021 L 132.0164609053498,468.02996728922665 L 149.23076923076923,443.07692307692304 L 149.23076923076923,443.07692307692304 L 160.58668354964647,431.79698216735267 L 172.15785586155957,423.6066265695896 L 184.0455840455841,418.5185185185185 L 196.35116598079563,416.545320249024 L 209.17589954626993,417.69969399599023 L 222.6210826210826,421.994301994302 L 236.78801308430934,429.4418064788435 L 251.77798881502585,440.0548696844993 L 267.6923076923077,453.84615384615387 L 267.6923076923077,453.84615384615387 L 267.6923076923077,453.84615384615387 L 267.6923076923077,453.84615384615387 L 267.6923076923077,453.84615384615387 L 267.6923076923077,453.84615384615387 L 267.6923076923077,453.84615384615387 L 267.6923076923077,453.84615384615387 L 267.6923076923077,453.84615384615387 L 267.6923076923077,453.84615384615387 L 267.6923076923077,453.84615384615387 L 287.6923076923077,21.53846153846154 L 285.8816081038303,29.9208610319724 L 286.42608420386205,38.45520734409626 L 289.0598290598291,46.83760683760677 L 293.516935739158,54.7641658752769 L 299.5314973092751,61.93099081987961 L 306.8376068376068,68.03418803418805 L 315.1693573915796,72.76986388097507 L 324.2608420386198,75.83412472301364 L 333.84615384615387,76.92307692307692 L 333.84615384615387,76.92307692307692 L 337.3683655165136,76.31317927614235 L 340.7133058984911,74.55101825472184 L 343.81766381766386,71.73789173789163 L 346.6181280996096,67.97509760472727 L 349.05138756990607,63.36393373430409 L 351.054131054131,58.005698005697994 L 352.5630473778622,52.00168829798459 L 353.5148253666772,45.45320249023951 L 353.84615384615387,38.46153846153846 L 353.84615384615387,38.46153846153846 L 353.55281207133055,29.849108367627036 L 352.63902078716893,22.439590587738742 L 351.05413105413106,16.182336182336204 L 348.7474939326791,11.026696211881436 L 345.66846048327534,6.922021736836454 L 341.76638176638176,3.8176638176638824 L 336.9906088424607,1.6629735148253881 L 331.2904927719742,0.40730188878342233 L 324.61538461538464,0.0 L 324.61538461538464,0.0 L 319.44919278252604,0.33343885195747064 L 314.28300094966767,1.2999894481375718 L 309.2307692307693,2.8490028490028427 L 304.40645773979105,4.929830115015298 L 299.9240265906933,7.491822306637127 L 295.89743589743586,10.484330484330608 L 292.4406457739791,13.856705708557579 L 289.667616334283,17.55829903978058 L 287.6923076923077,21.53846153846154 L 287.6923076923077,21.53846153846154 L 287.6923076923077,21.53846153846154 L 287.6923076923077,21.53846153846154 L 287.6923076923077,21.53846153846154 L 287.6923076923077,21.53846153846154 L 287.6923076923077,21.53846153846154 L 287.6923076923077,21.53846153846154 L 287.6923076923077,21.53846153846154 L 287.6923076923077,21.53846153846154 L 287.6923076923077,21.53846153846154"/></svg>
