<?xml version="1.0" encoding="utf-8"?>
<svg xmlns="http://www.w3.org/2000/svg"  viewBox="0,0,400,718.0786018444926" width="100%">
<path d="M86.75064717087531 35.72649648551805 L 86.75064717087531,35.72649648551805 L 85.73826322870552,39.79024115163134 L 85.26936961338478,44.16302933693301 L 85.31199630568668,48.77026432989503 L 85.83417328638478,53.53734941898926 L 86.80393053625268,58.389687892687306 L 88.18929803606395,63.25268303946084 L 89.95830576659222,68.05173814778144 L 92.07898370861102,72.71225650612107 L 94.519361842894,77.15964140295105 L 94.519361842894,77.15964140295105 L 102.48522496680889,85.01183334739443 L 111.34624862906342,89.72030673457341 L 120.55894250280848,91.49819502599787 L 129.57981626119505,90.55863168317708 L 137.8653795773741,87.11475016762056 L 144.87214212449658,81.37968394083778 L 150.05661357571344,73.56656646433788 L 152.87530360417566,63.888531199630606 L 152.78472188303414,52.5587116082252 L 152.78472188303414,52.5587116082252 L 149.49713823925117,42.56097615125396 L 143.55604299967587,34.24699504020683 L 135.66477658728928,27.765961698140874 L 126.52667942507249,23.267069548112566 L 116.84509193600667,20.89951201317882 L 107.32335454307294,20.812482516395814 L 98.66480766925238,23.155174480820172 L 91.57279173752615,28.07678132950881 L 86.75064717087531,35.72649648551805 L 86.75064717087531,35.72649648551805 L 86.75064717087531,35.72649648551805 L 86.75064717087531,35.72649648551805 L 86.75064717087531,35.72649648551805 L 86.75064717087531,35.72649648551805 L 86.75064717087531,35.72649648551805 L 86.75064717087531,35.72649648551805 L 86.75064717087531,35.72649648551805 L 86.75064717087531,35.72649648551805 L 86.75064717087531,35.72649648551805"/></svg>
