<?xml version="1.0" encoding="utf-8"?>
<svg xmlns="http://www.w3.org/2000/svg"  viewBox="0,0,400,718.0786018444926" width="100%">
<path d="M86.75064717087531 35.72649648551805 L 86.75064717087531,35.72649648551805 L 85.73826322870552,39.79024115163134 L 85.26936961338478,44.16302933693301 L 85.31199630568668,48.77026432989503 L 85.83417328638478,53.53734941898926 L 86.80393053625268,58.389687892687306 L 88.18929803606395,63.25268303946084 L 89.95830576659222,68.05173814778144 L 92.07898370861102,72.71225650612107 L 94.519361842894,77.15964140295105 L 94.519361842894,77.15964140295105 L 102.48522496680889,85.01183334739443 L 111.34624862906342,89.72030673457341 L 120.55894250280848,91.49819502599787 L 129.57981626119505,90.55863168317708 L 137.8653795773741,87.11475016762056 L 144.87214212449658,81.37968394083778 L 150.05661357571344,73.56656646433788 L 152.87530360417566,63.888531199630606 L 152.78472188303414,52.5587116082252 L 152.78472188303414,52.5587116082252 L 149.49713823925117,42.56097615125396 L 143.55604299967587,34.24699504020683 L 135.66477658728928,27.765961698140874 L 126.52667942507249,23.267069548112566 L 116.84509193600667,20.89951201317882 L 107.32335454307294,20.812482516395814 L 98.66480766925238,23.155174480820172 L 91.57279173752615,28.07678132950881 L 86.75064717087531,35.72649648551805 L 86.75064717087531,35.72649648551805 L 86.75064717087531,35.72649648551805 L 86.75064717087531,35.72649648551805 L 86.75064717087531,35.72649648551805 L 86.75064717087531,35.72649648551805 L 86.75064717087531,35.72649648551805 L 86.75064717087531,35.72649648551805 L 86.75064717087531,35.72649648551805 L 86.75064717087531,35.72649648551805 L 86.75064717087531,35.72649648551805M174.7960801204204 157.43635968047744 L 86.75064717087531,35.72649648551805 L 85.73826322870552,39.79024115163134 L 85.26936961338478,44.16302933693301 L 85.31199630568668,48.77026432989503 L 85.83417328638478,53.53734941898926 L 86.80393053625268,58.389687892687306 L 88.18929803606395,63.25268303946084 L 89.95830576659222,68.05173814778144 L 92.07898370861102,72.71225650612107 L 94.519361842894,77.15964140295105 L 94.519361842894,77.15964140295105 L 102.48522496680889,85.01183334739443 L 111.34624862906342,89.72030673457341 L 120.55894250280848,91.49819502599787 L 129.57981626119505,90.55863168317708 L 137.8653795773741,87.11475016762056 L 144.87214212449658,81.37968394083778 L 150.05661357571344,73.56656646433788 L 152.87530360417566,63.888531199630606 L 152.78472188303414,52.5587116082252 L 152.78472188303414,52.5587116082252 L 149.49713823925117,42.56097615125396 L 143.55604299967587,34.24699504020683 L 135.66477658728928,27.765961698140874 L 126.52667942507249,23.267069548112566 L 116.84509193600667,20.89951201317882 L 107.32335454307294,20.812482516395814 L 98.66480766925238,23.155174480820172 L 91.57279173752615,28.07678132950881 L 86.75064717087531,35.72649648551805 L 86.75064717087531,35.72649648551805 L 86.75064717087531,35.72649648551805 L 86.75064717087531,35.72649648551805 L 86.75064717087531,35.72649648551805 L 86.75064717087531,35.72649648551805 L 86.75064717087531,35.72649648551805 L 86.75064717087531,35.72649648551805 L 86.75064717087531,35.72649648551805 L 86.75064717087531,35.72649648551805 L 86.75064717087531,35.72649648551805 L 174.7960801204204,157.43635968047744 L 157.69744817082645,162.84639737845865 L 142.54898739404382,170.60090315304308 L 129.19084769394036,180.93432381189194 L 117.46317897438405,194.08110616266526 L 107.20613113924273,210.27569701302335 L 98.25985409238447,229.75254317062678 L 90.46449773767712,252.74609144313553 L 83.66021197898858,279.49078863821046 L 77.68714672018685,310.22108156351163 L 77.68714672018685,310.22108156351163 L 70.95923378520587,359.6414029510105 L 67.98246977279085,406.6320028773017 L 68.671601298338,450.7772710924423 L 72.94137497724357,491.66159734648846 L 80.70653742490376,528.869371389497 L 91.88183525671482,561.9849829715246 L 106.38201508807295,590.5928218426276 L 124.12182353437443,614.2772777528629 L 145.01600721101545,632.6227404522871 L 145.01600721101545,632.6227404522871 L 151.01571415250584,636.402307169721 L 158.48604197841138,639.936770406419 L 167.1712305349206,643.1728467970038 L 176.81551966822224,646.0572529760981 L 187.16314922450502,648.5367055783244 L 197.9583590499576,650.5579212383054 L 208.94538899076866,652.067616590664 L 219.86847889312688,653.0125082700224 L 230.47186860322097,653.3393129110036 L 230.47186860322097,653.3393129110036 L 255.6233931735128,651.2541572125697 L 279.18707345555947,645.0981523993056 L 301.0137160263042,635.020491894268 L 320.95412746269056,621.1703691205137 L 338.85911434166184,603.6969775010991 L 354.57948324016144,582.7495104590807 L 367.9660407351328,558.4771614175153 L 378.86959340351933,531.0291237994593 L 387.1409478222645,500.55459102796937 L 387.1409478222645,500.55459102796937 L 392.5030304914057,473.79035659892287 L 396.4690889876605,451.4060148038951 L 398.985839945651,432.21867493150876 L 400.0,415.04544627038655 L 399.4582857853302,398.703438109151 L 397.30741393626425,382.00975973642505 L 393.49410108742467,363.7815204408311 L 387.96506387343425,342.83582951099197 L 380.6670189289156,317.9897962355303 L 380.6670189289156,317.9897962355303 L 367.55398270954777,281.7926300225124 L 350.9562143945012,249.3892394243621 L 331.32129425294505,221.1206379794948 L 309.0968025540493,197.3278392263256 L 284.7303195669839,178.35185670326942 L 258.6694255609184,164.5337039487415 L 231.36170080502285,156.2143945011568 L 203.2547255684669,153.73494189893043 L 174.7960801204204,157.43635968047744 L 174.7960801204204,157.43635968047744 L 174.7960801204204,157.43635968047744 L 174.7960801204204,157.43635968047744 L 174.7960801204204,157.43635968047744 L 174.7960801204204,157.43635968047744 L 174.7960801204204,157.43635968047744 L 174.7960801204204,157.43635968047744 L 174.7960801204204,157.43635968047744 L 174.7960801204204,157.43635968047744 L 174.7960801204204,157.43635968047744 L 323.6964446674452,349.064654923605 L 323.6964446674452,349.064654923605 L 323.6964446674452,349.064654923605 L 323.6964446674452,349.064654923605 L 323.6964446674452,349.064654923605 L 323.6964446674452,349.064654923605 L 323.6964446674452,349.064654923605 L 323.6964446674452,349.064654923605 L 323.6964446674452,349.064654923605 L 323.6964446674452,349.064654923605 L 323.6964446674452,349.064654923605 L 329.69615160893557,375.9141427372554 L 333.04234695463373,402.73166053167927 L 333.7670007237657,429.19750811461245 L 331.90208293555827,454.9919852937912 L 327.4795636092376,479.79539187695104 L 320.53141276403016,503.2880276718278 L 311.0896004191625,525.1501924861575 L 299.18609659386084,545.0621861276759 L 284.8528713073518,562.7043084041189 L 284.8528713073518,562.7043084041189 L 270.8073761938803,576.950504193845 L 257.8488617341072,587.7652512532692 L 245.72156777422066,595.1698629285427 L 234.1697341604096,599.1856525658161 L 222.9376007388627,599.8339335112406 L 211.76940735576858,597.1360191109671 L 200.40939385731602,591.1132227111465 L 188.60180008969363,581.7868576579297 L 176.09086589909018,569.1782372974678 L 176.09086589909018,569.1782372974678 L 155.35120398204347,539.0535986252893 L 140.515338948808,501.49060214643157 L 131.44473404940257,459.3132662258949 L 128.00085253384606,415.34560922867894 L 130.04515765215731,372.4116495197837 L 137.43911265435523,333.3354054642092 L 150.0441807904587,300.9408954269553 L 167.72182531048657,278.0521377730218 L 190.3335094644578,267.4931508674088 L 190.3335094644578,267.4931508674088 L 195.54284648618403,266.21257398617314 L 200.74152683483493,264.1540599704277 L 205.82298377965552,261.40286220477674 L 210.6806505898913,258.0442340738241 L 215.2079605347874,254.16342896217333 L 219.29834688358918,249.8457002544281 L 222.84524290554194,245.1763013351924 L 225.74208186989094,240.2404855890699 L 227.88229704588142,235.1235064006643 L 227.88229704588142,235.1235064006643 L 230.32977962888137,227.4720151324759 L 232.69200882727756,221.86660509477775 L 235.26737148718317,218.435156364476 L 238.35425445471137,217.30554901847606 L 242.2510445759754,218.60566313368355 L 247.25612869708846,222.46337878700425 L 253.6678936641638,229.00657605534374 L 261.7847263233145,238.36313501560767 L 271.905013520654,250.66093574470167 L 271.905013520654,250.66093574470167 L 278.49794193001225,259.150751961494 L 285.22940708935175,268.89805560119174 L 291.9502155756158,279.625773163833 L 298.5111739657477,291.05683114945543 L 304.76308883669094,302.91415605809675 L 310.55676676538894,314.9206743897946 L 315.743014328785,326.7993126445866 L 320.17263810382264,338.27299732251106 L 323.6964446674452,349.064654923605 L 323.6964446674452,349.064654923605 L 323.6964446674452,349.064654923605 L 323.6964446674452,349.064654923605 L 323.6964446674452,349.064654923605 L 323.6964446674452,349.064654923605 L 323.6964446674452,349.064654923605 L 323.6964446674452,349.064654923605 L 323.6964446674452,349.064654923605 L 323.6964446674452,349.064654923605 L 323.6964446674452,349.064654923605M273.19979929932373 5.946423576113089 L 86.75064717087531,35.72649648551805 L 85.73826322870552,39.79024115163134 L 85.26936961338478,44.16302933693301 L 85.31199630568668,48.77026432989503 L 85.83417328638478,53.53734941898926 L 86.80393053625268,58.389687892687306 L 88.18929803606395,63.25268303946084 L 89.95830576659222,68.05173814778144 L 92.07898370861102,72.71225650612107 L 94.519361842894,77.15964140295105 L 94.519361842894,77.15964140295105 L 102.48522496680889,85.01183334739443 L 111.34624862906342,89.72030673457341 L 120.55894250280848,91.49819502599787 L 129.57981626119505,90.55863168317708 L 137.8653795773741,87.11475016762056 L 144.87214212449658,81.37968394083778 L 150.05661357571344,73.56656646433788 L 152.87530360417566,63.888531199630606 L 152.78472188303414,52.5587116082252 L 152.78472188303414,52.5587116082252 L 149.49713823925117,42.56097615125396 L 143.55604299967587,34.24699504020683 L 135.66477658728928,27.765961698140874 L 126.52667942507249,23.267069548112566 L 116.84509193600667,20.89951201317882 L 107.32335454307294,20.812482516395814 L 98.66480766925238,23.155174480820172 L 91.57279173752615,28.07678132950881 L 86.75064717087531,35.72649648551805 L 86.75064717087531,35.72649648551805 L 86.75064717087531,35.72649648551805 L 86.75064717087531,35.72649648551805 L 86.75064717087531,35.72649648551805 L 86.75064717087531,35.72649648551805 L 86.75064717087531,35.72649648551805 L 86.75064717087531,35.72649648551805 L 86.75064717087531,35.72649648551805 L 86.75064717087531,35.72649648551805 L 86.75064717087531,35.72649648551805 L 174.7960801204204,157.43635968047744 L 157.69744817082645,162.84639737845865 L 142.54898739404382,170.60090315304308 L 129.19084769394036,180.93432381189194 L 117.46317897438405,194.08110616266526 L 107.20613113924273,210.27569701302335 L 98.25985409238447,229.75254317062678 L 90.46449773767712,252.74609144313553 L 83.66021197898858,279.49078863821046 L 77.68714672018685,310.22108156351163 L 77.68714672018685,310.22108156351163 L 70.95923378520587,359.6414029510105 L 67.98246977279085,406.6320028773017 L 68.671601298338,450.7772710924423 L 72.94137497724357,491.66159734648846 L 80.70653742490376,528.869371389497 L 91.88183525671482,561.9849829715246 L 106.38201508807295,590.5928218426276 L 124.12182353437443,614.2772777528629 L 145.01600721101545,632.6227404522871 L 145.01600721101545,632.6227404522871 L 151.01571415250584,636.402307169721 L 158.48604197841138,639.936770406419 L 167.1712305349206,643.1728467970038 L 176.81551966822224,646.0572529760981 L 187.16314922450502,648.5367055783244 L 197.9583590499576,650.5579212383054 L 208.94538899076866,652.067616590664 L 219.86847889312688,653.0125082700224 L 230.47186860322097,653.3393129110036 L 230.47186860322097,653.3393129110036 L 255.6233931735128,651.2541572125697 L 279.18707345555947,645.0981523993056 L 301.0137160263042,635.020491894268 L 320.95412746269056,621.1703691205137 L 338.85911434166184,603.6969775010991 L 354.57948324016144,582.7495104590807 L 367.9660407351328,558.4771614175153 L 378.86959340351933,531.0291237994593 L 387.1409478222645,500.55459102796937 L 387.1409478222645,500.55459102796937 L 392.5030304914057,473.79035659892287 L 396.4690889876605,451.4060148038951 L 398.985839945651,432.21867493150876 L 400.0,415.04544627038655 L 399.4582857853302,398.703438109151 L 397.30741393626425,382.00975973642505 L 393.49410108742467,363.7815204408311 L 387.96506387343425,342.83582951099197 L 380.6670189289156,317.9897962355303 L 380.6670189289156,317.9897962355303 L 367.55398270954777,281.7926300225124 L 350.9562143945012,249.3892394243621 L 331.32129425294505,221.1206379794948 L 309.0968025540493,197.3278392263256 L 284.7303195669839,178.35185670326942 L 258.6694255609184,164.5337039487415 L 231.36170080502285,156.2143945011568 L 203.2547255684669,153.73494189893043 L 174.7960801204204,157.43635968047744 L 174.7960801204204,157.43635968047744 L 174.7960801204204,157.43635968047744 L 174.7960801204204,157.43635968047744 L 174.7960801204204,157.43635968047744 L 174.7960801204204,157.43635968047744 L 174.7960801204204,157.43635968047744 L 174.7960801204204,157.43635968047744 L 174.7960801204204,157.43635968047744 L 174.7960801204204,157.43635968047744 L 174.7960801204204,157.43635968047744 L 323.6964446674452,349.064654923605 L 323.6964446674452,349.064654923605 L 323.6964446674452,349.064654923605 L 323.6964446674452,349.064654923605 L 323.6964446674452,349.064654923605 L 323.6964446674452,349.064654923605 L 323.6964446674452,349.064654923605 L 323.6964446674452,349.064654923605 L 323.6964446674452,349.064654923605 L 323.6964446674452,349.064654923605 L 323.6964446674452,349.064654923605 L 329.69615160893557,375.9141427372554 L 333.04234695463373,402.73166053167927 L 333.7670007237657,429.19750811461245 L 331.90208293555827,454.9919852937912 L 327.4795636092376,479.79539187695104 L 320.53141276403016,503.2880276718278 L 311.0896004191625,525.1501924861575 L 299.18609659386084,545.0621861276759 L 284.8528713073518,562.7043084041189 L 284.8528713073518,562.7043084041189 L 270.8073761938803,576.950504193845 L 257.8488617341072,587.7652512532692 L 245.72156777422066,595.1698629285427 L 234.1697341604096,599.1856525658161 L 222.9376007388627,599.8339335112406 L 211.76940735576858,597.1360191109671 L 200.40939385731602,591.1132227111465 L 188.60180008969363,581.7868576579297 L 176.09086589909018,569.1782372974678 L 176.09086589909018,569.1782372974678 L 155.35120398204347,539.0535986252893 L 140.515338948808,501.49060214643157 L 131.44473404940257,459.3132662258949 L 128.00085253384606,415.34560922867894 L 130.04515765215731,372.4116495197837 L 137.43911265435523,333.3354054642092 L 150.0441807904587,300.9408954269553 L 167.72182531048657,278.0521377730218 L 190.3335094644578,267.4931508674088 L 190.3335094644578,267.4931508674088 L 195.54284648618403,266.21257398617314 L 200.74152683483493,264.1540599704277 L 205.82298377965552,261.40286220477674 L 210.6806505898913,258.0442340738241 L 215.2079605347874,254.16342896217333 L 219.29834688358918,249.8457002544281 L 222.84524290554194,245.1763013351924 L 225.74208186989094,240.2404855890699 L 227.88229704588142,235.1235064006643 L 227.88229704588142,235.1235064006643 L 230.32977962888137,227.4720151324759 L 232.69200882727756,221.86660509477775 L 235.26737148718317,218.435156364476 L 238.35425445471137,217.30554901847606 L 242.2510445759754,218.60566313368355 L 247.25612869708846,222.46337878700425 L 253.6678936641638,229.00657605534374 L 261.7847263233145,238.36313501560767 L 271.905013520654,250.66093574470167 L 271.905013520654,250.66093574470167 L 278.49794193001225,259.150751961494 L 285.22940708935175,268.89805560119174 L 291.9502155756158,279.625773163833 L 298.5111739657477,291.05683114945543 L 304.76308883669094,302.91415605809675 L 310.55676676538894,314.9206743897946 L 315.743014328785,326.7993126445866 L 320.17263810382264,338.27299732251106 L 323.6964446674452,349.064654923605 L 323.6964446674452,349.064654923605 L 323.6964446674452,349.064654923605 L 323.6964446674452,349.064654923605 L 323.6964446674452,349.064654923605 L 323.6964446674452,349.064654923605 L 323.6964446674452,349.064654923605 L 323.6964446674452,349.064654923605 L 323.6964446674452,349.064654923605 L 323.6964446674452,349.064654923605 L 323.6964446674452,349.064654923605 L 273.19979929932373,5.946423576113089 L 266.70100483546537,11.658400344565965 L 262.64258850589005,18.93690805511277 L 260.8753568875411,27.238456380904914 L 261.2501165573618,36.0195549950935 L 263.6176740922956,44.73671357082922 L 267.8288360692861,52.84644178126287 L 273.73440906527657,59.80524929954579 L 281.1851996572103,65.06964579882873 L 290.0320144220309,68.09614095226257 L 290.0320144220309,68.09614095226257 L 298.8219935971155,68.80303359960226 L 306.9299456953702,67.61303843950782 L 314.1533939283606,64.73928893348905 L 320.2898615076528,60.39491854305514 L 325.1368716448131,54.79306072971569 L 328.49194755140735,48.146848954980044 L 330.15261243900164,40.66941668035755 L 329.916389519162,32.57389736735786 L 327.58080200345455,24.073424477490022 L 327.58080200345455,24.073424477490022 L 324.3092033692848,17.228288138678973 L 319.8227440045113,11.416849088188401 L 314.34521404371907,6.713704037547056 L 308.1004036214927,3.1934496982829503 L 301.3121028724174,0.9306827819245439 L 294.2041019310779,0.0 L 287.0001909320593,0.47599806403777634 L 279.92416000994626,2.433273685566036 L 273.19979929932373,5.946423576113089 L 273.19979929932373,5.946423576113089 L 273.19979929932373,5.946423576113089 L 273.19979929932373,5.946423576113089 L 273.19979929932373,5.946423576113089 L 273.19979929932373,5.946423576113089 L 273.19979929932373,5.946423576113089 L 273.19979929932373,5.946423576113089 L 273.19979929932373,5.946423576113089 L 273.19979929932373,5.946423576113089 L 273.19979929932373,5.946423576113089"/></svg>
