<?xml version="1.0" encoding="utf-8"?>
<svg xmlns="http://www.w3.org/2000/svg"  viewBox="0,0,400,528.6873947005666" width="100%">
<path d="M100.90366059120845 6.8004288558737525 L 100.90366059120845,6.8004288558737525 L 96.69451960767627,10.658997180669727 L 93.9421271478248,15.919856140410577 L 92.57160361464236,22.20860775003819 L 92.50806941111735,29.15085402449467 L 93.67664494023813,36.37219697872161 L 96.0024506049931,43.498238627661124 L 99.4106068083706,50.15458098625499 L 103.82623395335906,55.96682606944513 L 109.17445244294684,60.56057589217333 L 109.17445244294684,60.56057589217333 L 116.73388812307478,63.85641270003349 L 123.82362451285715,64.56549979294654 L 130.219022821259,62.980548322867115 L 135.69544425724544,59.39426944174986 L 140.02825002978165,54.09937430154922 L 142.9928013478327,47.38857405421964 L 144.36445942036383,39.554579851715665 L 143.91858545634008,30.890102845991922 L 141.43054066472658,21.68785418900287 L 141.43054066472658,21.68785418900287 L 138.2708485787058,14.66959377818629 L 134.8388670490064,9.040009530130419 L 131.10736713126053,4.778679736559911 L 127.04911988110027,1.8651826891985666 L 122.6368963541578,0.2790966797704735 L 117.84346760606522,0.0 L 112.64160469245475,1.0074709416108565 L 107.00407866895844,3.281087796327412 L 100.90366059120845,6.8004288558737525 L 100.90366059120845,6.8004288558737525 L 100.90366059120845,6.8004288558737525 L 100.90366059120845,6.8004288558737525 L 100.90366059120845,6.8004288558737525 L 100.90366059120845,6.8004288558737525 L 100.90366059120845,6.8004288558737525 L 100.90366059120845,6.8004288558737525 L 100.90366059120845,6.8004288558737525 L 100.90366059120845,6.8004288558737525 L 100.90366059120845,6.8004288558737525"/></svg>
