<?xml version="1.0" encoding="utf-8"?>
<svg xmlns="http://www.w3.org/2000/svg"  viewBox="0,0,400,528.6873947005666" width="100%">
<path d="M100.90366059120845 6.8004288558737525 L 100.90366059120845,6.8004288558737525 L 96.69451960767627,10.658997180669727 L 93.9421271478248,15.919856140410577 L 92.57160361464236,22.20860775003819 L 92.50806941111735,29.15085402449467 L 93.67664494023813,36.37219697872161 L 96.0024506049931,43.498238627661124 L 99.4106068083706,50.15458098625499 L 103.82623395335906,55.96682606944513 L 109.17445244294684,60.56057589217333 L 109.17445244294684,60.56057589217333 L 116.73388812307478,63.85641270003349 L 123.82362451285715,64.56549979294654 L 130.219022821259,62.980548322867115 L 135.69544425724544,59.39426944174986 L 140.02825002978165,54.09937430154922 L 142.9928013478327,47.38857405421964 L 144.36445942036383,39.554579851715665 L 143.91858545634008,30.890102845991922 L 141.43054066472658,21.68785418900287 L 141.43054066472658,21.68785418900287 L 138.2708485787058,14.66959377818629 L 134.8388670490064,9.040009530130419 L 131.10736713126053,4.778679736559911 L 127.04911988110027,1.8651826891985666 L 122.6368963541578,0.2790966797704735 L 117.84346760606522,0.0 L 112.64160469245475,1.0074709416108565 L 107.00407866895844,3.281087796327412 L 100.90366059120845,6.8004288558737525 L 100.90366059120845,6.8004288558737525 L 100.90366059120845,6.8004288558737525 L 100.90366059120845,6.8004288558737525 L 100.90366059120845,6.8004288558737525 L 100.90366059120845,6.8004288558737525 L 100.90366059120845,6.8004288558737525 L 100.90366059120845,6.8004288558737525 L 100.90366059120845,6.8004288558737525 L 100.90366059120845,6.8004288558737525 L 100.90366059120845,6.8004288558737525M169.55123296063715 159.8100781130341 L 100.90366059120845,6.8004288558737525 L 96.69451960767627,10.658997180669727 L 93.9421271478248,15.919856140410577 L 92.57160361464236,22.20860775003819 L 92.50806941111735,29.15085402449467 L 93.67664494023813,36.37219697872161 L 96.0024506049931,43.498238627661124 L 99.4106068083706,50.15458098625499 L 103.82623395335906,55.96682606944513 L 109.17445244294684,60.56057589217333 L 109.17445244294684,60.56057589217333 L 116.73388812307478,63.85641270003349 L 123.82362451285715,64.56549979294654 L 130.219022821259,62.980548322867115 L 135.69544425724544,59.39426944174986 L 140.02825002978165,54.09937430154922 L 142.9928013478327,47.38857405421964 L 144.36445942036383,39.554579851715665 L 143.91858545634008,30.890102845991922 L 141.43054066472658,21.68785418900287 L 141.43054066472658,21.68785418900287 L 138.2708485787058,14.66959377818629 L 134.8388670490064,9.040009530130419 L 131.10736713126053,4.778679736559911 L 127.04911988110027,1.8651826891985666 L 122.6368963541578,0.2790966797704735 L 117.84346760606522,0.0 L 112.64160469245475,1.0074709416108565 L 107.00407866895844,3.281087796327412 L 100.90366059120845,6.8004288558737525 L 100.90366059120845,6.8004288558737525 L 100.90366059120845,6.8004288558737525 L 100.90366059120845,6.8004288558737525 L 100.90366059120845,6.8004288558737525 L 100.90366059120845,6.8004288558737525 L 100.90366059120845,6.8004288558737525 L 100.90366059120845,6.8004288558737525 L 100.90366059120845,6.8004288558737525 L 100.90366059120845,6.8004288558737525 L 100.90366059120845,6.8004288558737525 L 169.55123296063715,159.8100781130341 L 136.09026395057944,183.28256269748084 L 106.8565885536325,219.17825314976477 L 82.707918517384,263.6850972583856 L 64.50196558942157,312.99104281184225 L 53.09644151733292,363.284037598634 L 49.349058048705764,410.7520294072599 L 54.11752693112777,451.5829660262192 L 68.25955991218663,481.964795244011 L 92.63286873947004,498.08546484913455 L 92.63286873947004,498.08546484913455 L 105.25121537527721,499.98695279749035 L 117.73341728924511,499.0838594759563 L 130.06586000918978,495.3897993567162 L 142.2349290629272,488.918386911954 L 154.22700997827354,479.6832366138538 L 166.02848828304482,467.6979629345994 L 177.62574950505717,452.9761803463748 L 189.0051791721266,435.53150332136397 L 200.1531628120692,415.3775463317506 L 200.1531628120692,415.3775463317506 L 203.5533772400061,408.66901516311833 L 206.95359166794302,401.9604839944861 L 210.35380609587992,395.25195282585383 L 213.7540205238168,388.5434216572216 L 217.1542349517537,381.83489048858934 L 220.5544493796906,375.1263593199571 L 223.9546638076275,368.41782815132484 L 227.3548782355644,361.70929698269254 L 230.75509266350127,355.0007658140603 L 230.75509266350127,355.0007658140603 L 232.13355797212435,359.8713432378618 L 233.5120232807474,364.7419206616633 L 234.89048858937048,369.6124980854648 L 236.26895389799355,374.4830755092663 L 237.6474192066166,379.3536529330678 L 239.02588451523968,384.22423035686927 L 240.40434982386276,389.0948077806708 L 241.7828151324858,393.9653852044723 L 243.1612804411089,398.8359626282738 L 243.1612804411089,398.8359626282738 L 245.81269889892945,407.11015809805815 L 248.75002127261277,415.2822450264631 L 251.89156072905496,423.1888497472813 L 255.15563043515252,430.66659859430564 L 258.46054355780194,437.55211790132904 L 261.72461326389947,443.6820340021442 L 264.86615272034174,448.892973230544 L 267.8034750940249,453.02156192032123 L 270.4548935518456,455.9044264052687 L 270.4548935518456,455.9044264052687 L 283.470328959684,465.53780001474894 L 297.4455846564898,471.8900858279016 L 311.9926481850207,475.0497779139224 L 326.7235070880345,475.1053703420068 L 341.2501489082895,472.14535718135033 L 355.1845611885434,466.2582325011486 L 368.1387314715542,457.5324903705972 L 379.72464730007994,446.0566248588916 L 389.5542962168785,431.9191300352274 L 389.5542962168785,431.9191300352274 L 396.476120783059,417.9518161138624 L 399.8377608731414,406.5031795465245 L 400.0,397.7638229437892 L 397.3236216765088,391.9243489162312 L 392.169409415542,389.1753600744257 L 384.89814672997386,389.7074590289477 L 375.8706171326787,393.71124839037225 L 365.44760413653046,401.37733076927435 L 353.9898912544034,412.8963087762291 L 353.9898912544034,412.8963087762291 L 349.9940436684194,417.2325181668113 L 345.7939789996766,421.36451047463447 L 341.4918057895543,425.21059886659515 L 337.189632579432,428.68909650958966 L 332.98956791068906,431.7183165705144 L 328.9937203247051,434.2165722162659 L 325.30419836285967,436.10217661374037 L 322.0231105665322,437.2934429298343 L 319.2525654771021,437.70868433144426 L 319.2525654771021,437.70868433144426 L 308.80459261528324,434.3867531185651 L 299.07818677921296,424.856622589813 L 290.2435288711901,409.77178741001677 L 282.47079979351383,389.7857422440053 L 275.9301804484834,365.5519817566072 L 270.79185173839784,337.72400061265125 L 267.2259945655565,306.955293476966 L 265.40278983225835,273.8993550143803 L 265.49241844080257,239.20967988972274 L 265.49241844080257,239.20967988972274 L 265.8929108308798,226.8000884940692 L 266.00069206900264,215.04399176324424 L 265.82937662735486,204.10476336345525 L 265.3925789781204,194.14577696090942 L 264.7039135934832,185.33040622181366 L 263.77699494562717,177.82202481237553 L 262.6254375067363,171.78400639880186 L 261.26285574899447,167.37972464730007 L 259.70286414458565,164.77255322407714 L 259.70286414458565,164.77255322407714 L 253.56160265028387,160.27297016728784 L 245.37136309230044,156.71278569118962 L 235.59503752488897,154.1124215040587 L 224.69551800230312,152.49229931417096 L 213.1356965787966,151.872840829802 L 201.37846530862305,152.27446775922803 L 189.88671624603617,153.71760181072474 L 179.12334144528964,156.2226646925682 L 169.55123296063715,159.8100781130341 L 169.55123296063715,159.8100781130341 L 169.55123296063715,159.8100781130341 L 169.55123296063715,159.8100781130341 L 169.55123296063715,159.8100781130341 L 169.55123296063715,159.8100781130341 L 169.55123296063715,159.8100781130341 L 169.55123296063715,159.8100781130341 L 169.55123296063715,159.8100781130341 L 169.55123296063715,159.8100781130341 L 169.55123296063715,159.8100781130341 L 219.17598407106752,197.0286414458569 L 219.17598407106752,197.0286414458569 L 219.17598407106752,197.0286414458569 L 219.17598407106752,197.0286414458569 L 219.17598407106752,197.0286414458569 L 219.17598407106752,197.0286414458569 L 219.17598407106752,197.0286414458569 L 219.17598407106752,197.0286414458569 L 219.17598407106752,197.0286414458569 L 219.17598407106752,197.0286414458569 L 219.17598407106752,197.0286414458569 L 220.85056414969114,205.58987537085255 L 220.0132741103793,219.99852509884664 L 216.97043957727064,239.05651707765347 L 212.02838617450348,261.56577775508697 L 205.49343952621635,286.32823357896103 L 197.67192525654767,312.1458109970898 L 188.87016898963597,337.82043645728737 L 179.39449634961963,362.15403640736764 L 169.55123296063715,383.94853729514466 L 169.55123296063715,383.94853729514466 L 154.03527282834983,413.81755472734176 L 139.64931388732884,436.1645762779167 L 126.66564558125289,451.0032164190534 L 115.35655735380041,458.34708962293575 L 105.99433864865019,458.2098103617479 L 98.85127890948075,450.6049931076734 L 94.19966757997085,435.5462523328965 L 92.31179410379899,413.047202509601 L 93.45994792464388,383.12145810997083 L 93.45994792464388,383.12145810997083 L 96.37798312939985,359.70570049295736 L 101.61047860542422,335.66367715548284 L 108.83749425639455,311.6556899984683 L 117.73908998598843,288.34204092283426 L 127.9953256978835,266.3830318295014 L 139.28626129575736,246.43896461939036 L 151.29195668328762,229.1701411934219 L 163.69247176415195,215.2368634525167 L 176.16786644202787,205.2994332975953 L 176.16786644202787,205.2994332975953 L 185.23964307392083,199.86952797490406 L 192.7457554046618,195.67853962095035 L 198.89722775310153,192.67881758309076 L 203.905084438091,190.8227112086814 L 207.98034977848118,190.06256984507854 L 211.33404809312296,190.35074283963854 L 214.17720370086732,191.63957953971735 L 216.7208409205652,193.8814292926714 L 219.17598407106752,197.0286414458569 L 219.17598407106752,197.0286414458569 L 219.17598407106752,197.0286414458569 L 219.17598407106752,197.0286414458569 L 219.17598407106752,197.0286414458569 L 219.17598407106752,197.0286414458569 L 219.17598407106752,197.0286414458569 L 219.17598407106752,197.0286414458569 L 219.17598407106752,197.0286414458569 L 219.17598407106752,197.0286414458569 L 219.17598407106752,197.0286414458569"/></svg>
