<?xml version="1.0" encoding="utf-8"?>
<svg xmlns="http://www.w3.org/2000/svg"  viewBox="0,0,400,525.071078009652" width="100%">
<path d="M180.38492736523855 175.05264279101027 L 180.38492736523855,175.05264279101027 L 160.3519897745987,186.68731411154556 L 140.46653393309245,201.94020434415697 L 121.31848683725393,220.00507992691473 L 103.49777548361726,240.07570729788864 L 87.59432686871666,261.3458528951487 L 74.19806798908634,283.00928315676504 L 63.898925841260485,304.2597645208073 L 57.28682742177322,324.2910634253456 L 54.95169972715877,342.29694630844995 L 54.95169972715877,342.29694630844995 L 56.86896246589484,362.6838400970103 L 62.502765282796254,379.20671205827176 L 71.67613007890274,391.806569492581 L 84.21207875525403,400.4244197002844 L 99.93363321288993,405.0012699817288 L 118.66381535285008,405.4781276372605 L 140.22564707617428,401.79599996722635 L 164.44215028390235,393.89589427197285 L 191.13634687707398,381.7188178518465 L 191.13634687707398,381.7188178518465 L 196.4456898458816,379.0641463674427 L 201.75503281468917,376.40947488303885 L 207.06437578349684,373.7548033986351 L 212.3737187523044,371.1001319142313 L 217.68306172111204,368.4454604298274 L 222.9924046899196,365.7907889454237 L 228.30174765872727,363.13611746101986 L 233.61109062753485,360.48144597661604 L 238.92043359634246,357.8267744922122 L 238.92043359634246,357.8267744922122 L 238.92043359634246,360.8796466992766 L 238.92043359634246,363.932518906341 L 238.92043359634246,366.9853911134054 L 238.92043359634246,370.03826332046975 L 238.92043359634246,373.0911355275341 L 238.92043359634246,376.14400773459846 L 238.92043359634246,379.19687994166287 L 238.92043359634246,382.2497521487273 L 238.92043359634246,385.30262435579164 L 238.92043359634246,385.30262435579164 L 240.1166744504256,399.7640292013864 L 243.5349736581209,413.4781931847046 L 248.9196961875968,426.1403206908701 L 256.0152070070218,437.4456161050071 L 264.56587108456444,447.08928381223944 L 274.3160533883932,454.7665281976912 L 285.01011888667665,460.1725536464863 L 296.3924325475834,463.002564543749 L 308.20735933928177,462.9517652746029 L 308.20735933928177,462.9517652746029 L 321.86416930904795,460.1365025522537 L 332.51235159648996,455.29582380847046 L 340.06341715212744,449.058984506223 L 344.42887692648037,442.05524010848114 L 345.5202418700686,434.91384607821465 L 343.249022933412,428.26405787839326 L 337.5267310670304,422.73513097198673 L 328.2648772214439,418.95632082196505 L 315.37497234717205,417.55688289129785 L 315.37497234717205,417.55688289129785 L 311.7911658432269,417.55688289129785 L 308.20735933928177,417.55688289129785 L 304.6235528353366,417.55688289129785 L 301.0397463313915,417.55688289129785 L 297.45593982744634,417.55688289129785 L 293.8721333235012,417.55688289129785 L 290.2883268195561,417.55688289129785 L 286.704520315611,417.55688289129785 L 283.12071381166584,417.55688289129785 L 283.12071381166584,417.55688289129785 L 284.04984883120716,407.7345983990038 L 284.9789838507485,397.91231390670964 L 285.90811887028985,388.0900294144156 L 286.8372538898312,378.2677449221216 L 287.76638890937244,368.4454604298274 L 288.69552392891376,358.6231759375334 L 289.62465894845514,348.8008914452393 L 290.55379396799646,338.97860695294526 L 291.48292898753783,329.15632246065115 L 291.48292898753783,329.15632246065115 L 293.1986333357913,307.10452359298324 L 294.32441068751075,288.4841334218225 L 294.8012683430426,272.92153151603054 L 294.5702136027333,260.0430974444691 L 293.5722537669297,249.47521077599987 L 291.74839613597817,240.8442510794846 L 289.03964801022545,233.7765979237848 L 285.38701669001796,227.89863087776232 L 280.7315094757024,222.83672951027876 L 280.7315094757024,222.83672951027876 L 277.59998033576676,219.1759047595639 L 274.6159329449648,215.40692672615103 L 271.8383600029497,211.59862022630261 L 269.32625420937495,207.8198100762809 L 267.13860826389407,204.13932109234827 L 265.33441486616033,200.62597809076695 L 263.97266671582724,197.3486058877993 L 263.1123565125482,194.3760292997076 L 262.8124769559767,191.77707314275423 L 262.8124769559767,191.77707314275423 L 261.3229112897278,183.33783972011256 L 257.0901850895952,176.38325590541515 L 250.46825455349904,170.98214651492444 L 241.81107587935995,167.20333636490267 L 231.47260526509842,165.1156502716123 L 219.80679890863507,164.7879130513156 L 207.16761300789025,166.28894952027474 L 193.9090037607846,169.68758449475217 L 180.38492736523855,175.05264279101027 L 180.38492736523855,175.05264279101027 L 180.38492736523855,175.05264279101027 L 180.38492736523855,175.05264279101027 L 180.38492736523855,175.05264279101027 L 180.38492736523855,175.05264279101027 L 180.38492736523855,175.05264279101027 L 180.38492736523855,175.05264279101027 L 180.38492736523855,175.05264279101027 L 180.38492736523855,175.05264279101027 L 180.38492736523855,175.05264279101027 L 228.16901408450704,250.31257937385814 L 228.16901408450704,250.31257937385814 L 228.16901408450704,250.31257937385814 L 228.16901408450704,250.31257937385814 L 228.16901408450704,250.31257937385814 L 228.16901408450704,250.31257937385814 L 228.16901408450704,250.31257937385814 L 228.16901408450704,250.31257937385814 L 228.16901408450704,250.31257937385814 L 228.16901408450704,250.31257937385814 L 228.16901408450704,250.31257937385814 L 235.00561249989755,251.62844431334972 L 238.88274381600834,255.3531778220224 L 239.93805766536394,261.15248793517367 L 238.30920368048902,268.69208268810075 L 234.1338314939082,277.637670116101 L 227.54959073814615,287.65495825447164 L 218.69413104572754,298.40965513851 L 207.705102049177,309.5674688035134 L 194.72015338101912,320.79410728477916 L 194.72015338101912,320.79410728477916 L 179.3640259240141,332.1895304344978 L 163.89974518431126,341.60869814582674 L 148.83858122557336,348.9336250194595 L 134.69180411146345,354.04632565608904 L 121.97068390564448,356.82881465640855 L 111.18649067177937,357.1631066211113 L 102.85049447353114,354.93121615089035 L 97.47396537456268,350.01515784643885 L 95.56817343853699,342.29694630844995 L 95.56817343853699,342.29694630844995 L 97.05446173258281,333.53161435161303 L 101.26424632729477,322.7015379069063 L 107.82390679153457,310.30815492138413 L 116.35982269416381,296.8529033421004 L 126.49837360404427,282.8372211161092 L 137.86593909003759,268.7625461904646 L 150.0888987210055,255.13031651222062 L 162.79363206580962,242.44197002843134 L 175.6065186933117,231.19894468615075 L 175.6065186933117,231.19894468615075 L 185.25346377274695,223.7216200050801 L 192.8749928307483,218.01407631361178 L 198.74640513236488,214.07631361174614 L 203.142999942646,211.9083318994831 L 206.34007652664098,211.51013117682245 L 208.61293414939902,212.88171144376452 L 210.2368720759695,216.02307270030897 L 211.48718957140164,220.93421494645602 L 212.6391859007448,227.61513818220558 L 212.6391859007448,227.61513818220558 L 213.60437201451873,231.53979139525939 L 214.87435374316877,235.29729862596176 L 216.39997050365017,238.8090029414416 L 218.1320617129186,241.99624740882768 L 220.02146678792946,244.7803750952487 L 222.0190251456382,247.08272906783353 L 224.07557620300042,248.82465239371083 L 226.14195937697153,249.92748814000944 L 228.16901408450704,250.31257937385814 L 228.16901408450704,250.31257937385814 L 228.16901408450704,250.31257937385814 L 228.16901408450704,250.31257937385814 L 228.16901408450704,250.31257937385814 L 228.16901408450704,250.31257937385814 L 228.16901408450704,250.31257937385814 L 228.16901408450704,250.31257937385814 L 228.16901408450704,250.31257937385814 L 228.16901408450704,250.31257937385814 L 228.16901408450704,250.31257937385814M181.57952953322027 13.781350113479107 L 180.38492736523855,175.05264279101027 L 160.3519897745987,186.68731411154556 L 140.46653393309245,201.94020434415697 L 121.31848683725393,220.00507992691473 L 103.49777548361726,240.07570729788864 L 87.59432686871666,261.3458528951487 L 74.19806798908634,283.00928315676504 L 63.898925841260485,304.2597645208073 L 57.28682742177322,324.2910634253456 L 54.95169972715877,342.29694630844995 L 54.95169972715877,342.29694630844995 L 56.86896246589484,362.6838400970103 L 62.502765282796254,379.20671205827176 L 71.67613007890274,391.806569492581 L 84.21207875525403,400.4244197002844 L 99.93363321288993,405.0012699817288 L 118.66381535285008,405.4781276372605 L 140.22564707617428,401.79599996722635 L 164.44215028390235,393.89589427197285 L 191.13634687707398,381.7188178518465 L 191.13634687707398,381.7188178518465 L 196.4456898458816,379.0641463674427 L 201.75503281468917,376.40947488303885 L 207.06437578349684,373.7548033986351 L 212.3737187523044,371.1001319142313 L 217.68306172111204,368.4454604298274 L 222.9924046899196,365.7907889454237 L 228.30174765872727,363.13611746101986 L 233.61109062753485,360.48144597661604 L 238.92043359634246,357.8267744922122 L 238.92043359634246,357.8267744922122 L 238.92043359634246,360.8796466992766 L 238.92043359634246,363.932518906341 L 238.92043359634246,366.9853911134054 L 238.92043359634246,370.03826332046975 L 238.92043359634246,373.0911355275341 L 238.92043359634246,376.14400773459846 L 238.92043359634246,379.19687994166287 L 238.92043359634246,382.2497521487273 L 238.92043359634246,385.30262435579164 L 238.92043359634246,385.30262435579164 L 240.1166744504256,399.7640292013864 L 243.5349736581209,413.4781931847046 L 248.9196961875968,426.1403206908701 L 256.0152070070218,437.4456161050071 L 264.56587108456444,447.08928381223944 L 274.3160533883932,454.7665281976912 L 285.01011888667665,460.1725536464863 L 296.3924325475834,463.002564543749 L 308.20735933928177,462.9517652746029 L 308.20735933928177,462.9517652746029 L 321.86416930904795,460.1365025522537 L 332.51235159648996,455.29582380847046 L 340.06341715212744,449.058984506223 L 344.42887692648037,442.05524010848114 L 345.5202418700686,434.91384607821465 L 343.249022933412,428.26405787839326 L 337.5267310670304,422.73513097198673 L 328.2648772214439,418.95632082196505 L 315.37497234717205,417.55688289129785 L 315.37497234717205,417.55688289129785 L 311.7911658432269,417.55688289129785 L 308.20735933928177,417.55688289129785 L 304.6235528353366,417.55688289129785 L 301.0397463313915,417.55688289129785 L 297.45593982744634,417.55688289129785 L 293.8721333235012,417.55688289129785 L 290.2883268195561,417.55688289129785 L 286.704520315611,417.55688289129785 L 283.12071381166584,417.55688289129785 L 283.12071381166584,417.55688289129785 L 284.04984883120716,407.7345983990038 L 284.9789838507485,397.91231390670964 L 285.90811887028985,388.0900294144156 L 286.8372538898312,378.2677449221216 L 287.76638890937244,368.4454604298274 L 288.69552392891376,358.6231759375334 L 289.62465894845514,348.8008914452393 L 290.55379396799646,338.97860695294526 L 291.48292898753783,329.15632246065115 L 291.48292898753783,329.15632246065115 L 293.1986333357913,307.10452359298324 L 294.32441068751075,288.4841334218225 L 294.8012683430426,272.92153151603054 L 294.5702136027333,260.0430974444691 L 293.5722537669297,249.47521077599987 L 291.74839613597817,240.8442510794846 L 289.03964801022545,233.7765979237848 L 285.38701669001796,227.89863087776232 L 280.7315094757024,222.83672951027876 L 280.7315094757024,222.83672951027876 L 277.59998033576676,219.1759047595639 L 274.6159329449648,215.40692672615103 L 271.8383600029497,211.59862022630261 L 269.32625420937495,207.8198100762809 L 267.13860826389407,204.13932109234827 L 265.33441486616033,200.62597809076695 L 263.97266671582724,197.3486058877993 L 263.1123565125482,194.3760292997076 L 262.8124769559767,191.77707314275423 L 262.8124769559767,191.77707314275423 L 261.3229112897278,183.33783972011256 L 257.0901850895952,176.38325590541515 L 250.46825455349904,170.98214651492444 L 241.81107587935995,167.20333636490267 L 231.47260526509842,165.1156502716123 L 219.80679890863507,164.7879130513156 L 207.16761300789025,166.28894952027474 L 193.9090037607846,169.68758449475217 L 180.38492736523855,175.05264279101027 L 180.38492736523855,175.05264279101027 L 180.38492736523855,175.05264279101027 L 180.38492736523855,175.05264279101027 L 180.38492736523855,175.05264279101027 L 180.38492736523855,175.05264279101027 L 180.38492736523855,175.05264279101027 L 180.38492736523855,175.05264279101027 L 180.38492736523855,175.05264279101027 L 180.38492736523855,175.05264279101027 L 180.38492736523855,175.05264279101027 L 228.16901408450704,250.31257937385814 L 228.16901408450704,250.31257937385814 L 228.16901408450704,250.31257937385814 L 228.16901408450704,250.31257937385814 L 228.16901408450704,250.31257937385814 L 228.16901408450704,250.31257937385814 L 228.16901408450704,250.31257937385814 L 228.16901408450704,250.31257937385814 L 228.16901408450704,250.31257937385814 L 228.16901408450704,250.31257937385814 L 228.16901408450704,250.31257937385814 L 235.00561249989755,251.62844431334972 L 238.88274381600834,255.3531778220224 L 239.93805766536394,261.15248793517367 L 238.30920368048902,268.69208268810075 L 234.1338314939082,277.637670116101 L 227.54959073814615,287.65495825447164 L 218.69413104572754,298.40965513851 L 207.705102049177,309.5674688035134 L 194.72015338101912,320.79410728477916 L 194.72015338101912,320.79410728477916 L 179.3640259240141,332.1895304344978 L 163.89974518431126,341.60869814582674 L 148.83858122557336,348.9336250194595 L 134.69180411146345,354.04632565608904 L 121.97068390564448,356.82881465640855 L 111.18649067177937,357.1631066211113 L 102.85049447353114,354.93121615089035 L 97.47396537456268,350.01515784643885 L 95.56817343853699,342.29694630844995 L 95.56817343853699,342.29694630844995 L 97.05446173258281,333.53161435161303 L 101.26424632729477,322.7015379069063 L 107.82390679153457,310.30815492138413 L 116.35982269416381,296.8529033421004 L 126.49837360404427,282.8372211161092 L 137.86593909003759,268.7625461904646 L 150.0888987210055,255.13031651222062 L 162.79363206580962,242.44197002843134 L 175.6065186933117,231.19894468615075 L 175.6065186933117,231.19894468615075 L 185.25346377274695,223.7216200050801 L 192.8749928307483,218.01407631361178 L 198.74640513236488,214.07631361174614 L 203.142999942646,211.9083318994831 L 206.34007652664098,211.51013117682245 L 208.61293414939902,212.88171144376452 L 210.2368720759695,216.02307270030897 L 211.48718957140164,220.93421494645602 L 212.6391859007448,227.61513818220558 L 212.6391859007448,227.61513818220558 L 213.60437201451873,231.53979139525939 L 214.87435374316877,235.29729862596176 L 216.39997050365017,238.8090029414416 L 218.1320617129186,241.99624740882768 L 220.02146678792946,244.7803750952487 L 222.0190251456382,247.08272906783353 L 224.07557620300042,248.82465239371083 L 226.14195937697153,249.92748814000944 L 228.16901408450704,250.31257937385814 L 228.16901408450704,250.31257937385814 L 228.16901408450704,250.31257937385814 L 228.16901408450704,250.31257937385814 L 228.16901408450704,250.31257937385814 L 228.16901408450704,250.31257937385814 L 228.16901408450704,250.31257937385814 L 228.16901408450704,250.31257937385814 L 228.16901408450704,250.31257937385814 L 228.16901408450704,250.31257937385814 L 228.16901408450704,250.31257937385814 L 181.57952953322027,13.781350113479107 L 174.44305156125813,22.354955796442585 L 169.70561004186845,31.13503592819278 L 167.28854804217983,39.79713066063633 L 167.11320862932104,48.016780145679284 L 169.1009348704209,55.46952453522774 L 173.1730698326082,61.83090398118798 L 179.25095658301174,66.77645863546623 L 187.25593818876024,69.98172864996855 L 197.10935771698254,71.1222541766013 L 197.10935771698254,71.1222541766013 L 207.04635023638045,69.78180894558763 L 216.69821137412026,66.06199149521926 L 225.69132069906354,60.41507918950592 L 233.65205778007197,53.29334939245717 L 240.20680218600728,45.14907946808255 L 244.98193348573116,36.43454678039154 L 247.6038312481053,27.602028693393745 L 247.69887504199139,19.103802571098598 L 244.89344443625103,11.392145777515683 L 244.89344443625103,11.392145777515683 L 240.75576203000432,6.518693311702908 L 234.97611615007088,3.0217371711362637 L 227.94779146080674,0.861948889380562 L 220.06407262656805,0.0 L 211.7182443117109,0.3965620365591837 L 203.30359118059135,2.0123065326222433 L 195.21339789756573,4.807905021753649 L 187.84094912698998,8.744029037517803 L 181.57952953322027,13.781350113479107 L 181.57952953322027,13.781350113479107 L 181.57952953322027,13.781350113479107 L 181.57952953322027,13.781350113479107 L 181.57952953322027,13.781350113479107 L 181.57952953322027,13.781350113479107 L 181.57952953322027,13.781350113479107 L 181.57952953322027,13.781350113479107 L 181.57952953322027,13.781350113479107 L 181.57952953322027,13.781350113479107 L 181.57952953322027,13.781350113479107M336.8778113708429 42.451802145040205 L 180.38492736523855,175.05264279101027 L 160.3519897745987,186.68731411154556 L 140.46653393309245,201.94020434415697 L 121.31848683725393,220.00507992691473 L 103.49777548361726,240.07570729788864 L 87.59432686871666,261.3458528951487 L 74.19806798908634,283.00928315676504 L 63.898925841260485,304.2597645208073 L 57.28682742177322,324.2910634253456 L 54.95169972715877,342.29694630844995 L 54.95169972715877,342.29694630844995 L 56.86896246589484,362.6838400970103 L 62.502765282796254,379.20671205827176 L 71.67613007890274,391.806569492581 L 84.21207875525403,400.4244197002844 L 99.93363321288993,405.0012699817288 L 118.66381535285008,405.4781276372605 L 140.22564707617428,401.79599996722635 L 164.44215028390235,393.89589427197285 L 191.13634687707398,381.7188178518465 L 191.13634687707398,381.7188178518465 L 196.4456898458816,379.0641463674427 L 201.75503281468917,376.40947488303885 L 207.06437578349684,373.7548033986351 L 212.3737187523044,371.1001319142313 L 217.68306172111204,368.4454604298274 L 222.9924046899196,365.7907889454237 L 228.30174765872727,363.13611746101986 L 233.61109062753485,360.48144597661604 L 238.92043359634246,357.8267744922122 L 238.92043359634246,357.8267744922122 L 238.92043359634246,360.8796466992766 L 238.92043359634246,363.932518906341 L 238.92043359634246,366.9853911134054 L 238.92043359634246,370.03826332046975 L 238.92043359634246,373.0911355275341 L 238.92043359634246,376.14400773459846 L 238.92043359634246,379.19687994166287 L 238.92043359634246,382.2497521487273 L 238.92043359634246,385.30262435579164 L 238.92043359634246,385.30262435579164 L 240.1166744504256,399.7640292013864 L 243.5349736581209,413.4781931847046 L 248.9196961875968,426.1403206908701 L 256.0152070070218,437.4456161050071 L 264.56587108456444,447.08928381223944 L 274.3160533883932,454.7665281976912 L 285.01011888667665,460.1725536464863 L 296.3924325475834,463.002564543749 L 308.20735933928177,462.9517652746029 L 308.20735933928177,462.9517652746029 L 321.86416930904795,460.1365025522537 L 332.51235159648996,455.29582380847046 L 340.06341715212744,449.058984506223 L 344.42887692648037,442.05524010848114 L 345.5202418700686,434.91384607821465 L 343.249022933412,428.26405787839326 L 337.5267310670304,422.73513097198673 L 328.2648772214439,418.95632082196505 L 315.37497234717205,417.55688289129785 L 315.37497234717205,417.55688289129785 L 311.7911658432269,417.55688289129785 L 308.20735933928177,417.55688289129785 L 304.6235528353366,417.55688289129785 L 301.0397463313915,417.55688289129785 L 297.45593982744634,417.55688289129785 L 293.8721333235012,417.55688289129785 L 290.2883268195561,417.55688289129785 L 286.704520315611,417.55688289129785 L 283.12071381166584,417.55688289129785 L 283.12071381166584,417.55688289129785 L 284.04984883120716,407.7345983990038 L 284.9789838507485,397.91231390670964 L 285.90811887028985,388.0900294144156 L 286.8372538898312,378.2677449221216 L 287.76638890937244,368.4454604298274 L 288.69552392891376,358.6231759375334 L 289.62465894845514,348.8008914452393 L 290.55379396799646,338.97860695294526 L 291.48292898753783,329.15632246065115 L 291.48292898753783,329.15632246065115 L 293.1986333357913,307.10452359298324 L 294.32441068751075,288.4841334218225 L 294.8012683430426,272.92153151603054 L 294.5702136027333,260.0430974444691 L 293.5722537669297,249.47521077599987 L 291.74839613597817,240.8442510794846 L 289.03964801022545,233.7765979237848 L 285.38701669001796,227.89863087776232 L 280.7315094757024,222.83672951027876 L 280.7315094757024,222.83672951027876 L 277.59998033576676,219.1759047595639 L 274.6159329449648,215.40692672615103 L 271.8383600029497,211.59862022630261 L 269.32625420937495,207.8198100762809 L 267.13860826389407,204.13932109234827 L 265.33441486616033,200.62597809076695 L 263.97266671582724,197.3486058877993 L 263.1123565125482,194.3760292997076 L 262.8124769559767,191.77707314275423 L 262.8124769559767,191.77707314275423 L 261.3229112897278,183.33783972011256 L 257.0901850895952,176.38325590541515 L 250.46825455349904,170.98214651492444 L 241.81107587935995,167.20333636490267 L 231.47260526509842,165.1156502716123 L 219.80679890863507,164.7879130513156 L 207.16761300789025,166.28894952027474 L 193.9090037607846,169.68758449475217 L 180.38492736523855,175.05264279101027 L 180.38492736523855,175.05264279101027 L 180.38492736523855,175.05264279101027 L 180.38492736523855,175.05264279101027 L 180.38492736523855,175.05264279101027 L 180.38492736523855,175.05264279101027 L 180.38492736523855,175.05264279101027 L 180.38492736523855,175.05264279101027 L 180.38492736523855,175.05264279101027 L 180.38492736523855,175.05264279101027 L 180.38492736523855,175.05264279101027 L 228.16901408450704,250.31257937385814 L 228.16901408450704,250.31257937385814 L 228.16901408450704,250.31257937385814 L 228.16901408450704,250.31257937385814 L 228.16901408450704,250.31257937385814 L 228.16901408450704,250.31257937385814 L 228.16901408450704,250.31257937385814 L 228.16901408450704,250.31257937385814 L 228.16901408450704,250.31257937385814 L 228.16901408450704,250.31257937385814 L 228.16901408450704,250.31257937385814 L 235.00561249989755,251.62844431334972 L 238.88274381600834,255.3531778220224 L 239.93805766536394,261.15248793517367 L 238.30920368048902,268.69208268810075 L 234.1338314939082,277.637670116101 L 227.54959073814615,287.65495825447164 L 218.69413104572754,298.40965513851 L 207.705102049177,309.5674688035134 L 194.72015338101912,320.79410728477916 L 194.72015338101912,320.79410728477916 L 179.3640259240141,332.1895304344978 L 163.89974518431126,341.60869814582674 L 148.83858122557336,348.9336250194595 L 134.69180411146345,354.04632565608904 L 121.97068390564448,356.82881465640855 L 111.18649067177937,357.1631066211113 L 102.85049447353114,354.93121615089035 L 97.47396537456268,350.01515784643885 L 95.56817343853699,342.29694630844995 L 95.56817343853699,342.29694630844995 L 97.05446173258281,333.53161435161303 L 101.26424632729477,322.7015379069063 L 107.82390679153457,310.30815492138413 L 116.35982269416381,296.8529033421004 L 126.49837360404427,282.8372211161092 L 137.86593909003759,268.7625461904646 L 150.0888987210055,255.13031651222062 L 162.79363206580962,242.44197002843134 L 175.6065186933117,231.19894468615075 L 175.6065186933117,231.19894468615075 L 185.25346377274695,223.7216200050801 L 192.8749928307483,218.01407631361178 L 198.74640513236488,214.07631361174614 L 203.142999942646,211.9083318994831 L 206.34007652664098,211.51013117682245 L 208.61293414939902,212.88171144376452 L 210.2368720759695,216.02307270030897 L 211.48718957140164,220.93421494645602 L 212.6391859007448,227.61513818220558 L 212.6391859007448,227.61513818220558 L 213.60437201451873,231.53979139525939 L 214.87435374316877,235.29729862596176 L 216.39997050365017,238.8090029414416 L 218.1320617129186,241.99624740882768 L 220.02146678792946,244.7803750952487 L 222.0190251456382,247.08272906783353 L 224.07557620300042,248.82465239371083 L 226.14195937697153,249.92748814000944 L 228.16901408450704,250.31257937385814 L 228.16901408450704,250.31257937385814 L 228.16901408450704,250.31257937385814 L 228.16901408450704,250.31257937385814 L 228.16901408450704,250.31257937385814 L 228.16901408450704,250.31257937385814 L 228.16901408450704,250.31257937385814 L 228.16901408450704,250.31257937385814 L 228.16901408450704,250.31257937385814 L 228.16901408450704,250.31257937385814 L 228.16901408450704,250.31257937385814 L 181.57952953322027,13.781350113479107 L 174.44305156125813,22.354955796442585 L 169.70561004186845,31.13503592819278 L 167.28854804217983,39.79713066063633 L 167.11320862932104,48.016780145679284 L 169.1009348704209,55.46952453522774 L 173.1730698326082,61.83090398118798 L 179.25095658301174,66.77645863546623 L 187.25593818876024,69.98172864996855 L 197.10935771698254,71.1222541766013 L 197.10935771698254,71.1222541766013 L 207.04635023638045,69.78180894558763 L 216.69821137412026,66.06199149521926 L 225.69132069906354,60.41507918950592 L 233.65205778007197,53.29334939245717 L 240.20680218600728,45.14907946808255 L 244.98193348573116,36.43454678039154 L 247.6038312481053,27.602028693393745 L 247.69887504199139,19.103802571098598 L 244.89344443625103,11.392145777515683 L 244.89344443625103,11.392145777515683 L 240.75576203000432,6.518693311702908 L 234.97611615007088,3.0217371711362637 L 227.94779146080674,0.861948889380562 L 220.06407262656805,0.0 L 211.7182443117109,0.3965620365591837 L 203.30359118059135,2.0123065326222433 L 195.21339789756573,4.807905021753649 L 187.84094912698998,8.744029037517803 L 181.57952953322027,13.781350113479107 L 181.57952953322027,13.781350113479107 L 181.57952953322027,13.781350113479107 L 181.57952953322027,13.781350113479107 L 181.57952953322027,13.781350113479107 L 181.57952953322027,13.781350113479107 L 181.57952953322027,13.781350113479107 L 181.57952953322027,13.781350113479107 L 181.57952953322027,13.781350113479107 L 181.57952953322027,13.781350113479107 L 181.57952953322027,13.781350113479107 L 336.8778113708429,42.451802145040205 L 327.54713270899384,49.727568435628534 L 320.2811985350146,57.1213201255234 L 315.1095051987317,64.4855754655918 L 312.0615490499717,71.67285270669987 L 311.1668264385616,78.5356700997141 L 312.45483371432783,84.92654589550115 L 315.9550672270973,90.69799834492714 L 321.69702332669664,95.70254569885878 L 329.7101983629526,99.79270620816239 L 329.7101983629526,99.79270620816239 L 338.3772091537005,101.9016952207722 L 347.45716884202255,101.97543609533884 L 356.65511392965124,100.19090693082293 L 365.67608091831977,96.72508582618467 L 374.22510630976086,91.75495088038419 L 382.00722660570756,85.45748019238185 L 388.72747830789274,78.00965186113788 L 394.09089791804934,69.5884439856125 L 397.8025219379102,60.37083466476589 L 397.8025219379102,60.37083466476589 L 399.99999999999994,48.036444378897286 L 399.54280657768606,38.1502511286451 L 396.6079197699285,30.771247613663466 L 391.37231767568767,25.958426533605454 L 384.0129783939238,23.770780588124516 L 374.7068800235971,24.26730247687413 L 363.6310006636679,27.50698489950768 L 350.9623184130964,33.548820555678574 L 336.8778113708429,42.451802145040205 L 336.8778113708429,42.451802145040205 L 336.8778113708429,42.451802145040205 L 336.8778113708429,42.451802145040205 L 336.8778113708429,42.451802145040205 L 336.8778113708429,42.451802145040205 L 336.8778113708429,42.451802145040205 L 336.8778113708429,42.451802145040205 L 336.8778113708429,42.451802145040205 L 336.8778113708429,42.451802145040205 L 336.8778113708429,42.451802145040205"/></svg>
