<?xml version="1.0" encoding="utf-8"?>
<svg xmlns="http://www.w3.org/2000/svg"  viewBox="0,0,2000.0,3059.0997401026266" width="100%">
<path d="M635.2876043818595 144.25073176233013 L 627.4933543192633 153.01611525087844 L 620.0705120264814 161.82625981691834 L 613.0168940363194 170.6743967121447 L 606.3303168815821 179.55375718825545 L 600.008597095076 188.45757249694594 L 594.049551209605 197.37907388991368 L 588.4509957579752 206.31149261885523 L 583.2107472729919 215.2480599354664 L 578.32662228746 224.18200709144423 L 573.7964373341856 233.10656533848407 L 569.6180089459733 242.01496592828343 L 565.7891536556286 250.90044011254017 L 562.3076879959573 259.75621914294754 L 559.1714284997638 268.5755342712052 L 556.3781916998544 277.3516167490071 L 553.9257941290336 286.07769782805076 L 551.8120523201072 294.74700876003413 L 550.0347828058805 303.35278079665295 L 548.5918021191587 311.8882451896013 L 547.4809267927474 320.3466331905775 L 546.6999733594514 328.7211760512791 L 546.2467583520763 337.00510502340177 L 546.1190983034276 345.19165135864216 L 546.3148097463105 353.2740463086952 L 546.8317092135303 361.2455211252597 L 547.6676132378923 369.09930706003007 L 548.8203383522016 376.8286353647052 L 550.2877010892638 384.42673729098027 L 552.0675179818843 391.8868440905507 L 554.1576055628683 399.2021870151149 L 556.5557803650213 406.36599731636807 L 559.2598589211483 413.37150624600736 L 562.2676577640548 420.2119450557294 L 565.5769934265459 426.8805449972299 L 569.1856824414273 433.3705373222065 L 573.0915413415042 439.67515328235476 L 577.2923866595819 445.787624129371 L 581.7860349284656 451.7011811149522 L 586.5703026809607 457.40905549079633 L 591.6430064498725 462.9044785085975 L 597.0019627680066 468.1806814200536 L 602.6449881681679 473.23089547685976 L 608.5698991831619 478.0483519307142 L 614.7745123457939 482.6262820333121 L 621.2566441888694 486.957917036351 L 628.0141112451936 491.0364881915266 L 635.0447300475716 494.855226750536 L 642.3463171288091 498.407363965075 L 649.9166890217114 501.686131086841 L 657.7536622590833 504.6847593675299 L 665.8550533737309 507.3964800588382 L 674.2186788984588 509.8145244124626 L 682.8423553660728 511.93212368010006 L 691.7238993093782 513.7425091134453 L 700.86112726118 515.2389119641972 L 710.2518557542838 516.414563484051 L 719.8939013214948 517.2626949247025 L 729.7850804956184 517.77653753785 L 739.9232098094599 517.9493225751886 L 739.9232098094599 517.9493225751886 L 748.6564599391268 517.7319948070783 L 757.3704955574804 517.0867074688123 L 766.0589846096565 516.0235045094838 L 774.7155950407899 514.5524298781914 L 783.333994796017 512.6835275240272 L 791.9078518204725 510.42684139608934 L 800.4308340592918 507.792415443473 L 808.8966094576109 504.79029361527193 L 817.2988459605648 501.4305198605848 L 825.6312115132893 497.72313812850365 L 833.8873740609193 493.6781923681255 L 842.0610015485903 489.30572652854613 L 850.1457619214384 484.61578455886087 L 858.1353231245984 479.618410408166 L 866.0233531032061 474.32364802555514 L 873.8035198023969 468.74154136012487 L 881.4694911673056 462.8821343609719 L 889.0149351430686 456.75547097719027 L 896.4335196748206 450.37159515787494 L 903.718912707698 443.74055085212206 L 910.8647821868351 436.8723820090279 L 917.8647960573677 429.7771325776878 L 924.7126222644314 422.46484650719697 L 931.4019287531618 414.9455677466497 L 937.926383468694 407.2293402451426 L 944.279654356164 399.3262079517714 L 950.4554093607062 391.24621481563224 L 956.4473164274567 382.9994047858201 L 962.2490435015513 374.5958218114291 L 967.8542585281247 366.0455098415563 L 973.2566294523128 357.35851282529654 L 978.4498242192508 348.5448747117461 L 983.4275107740743 339.6146394499995 L 988.1833570619187 330.577850989153 L 992.7110310279196 321.44455327830127 L 997.0042006172122 312.22479026654037 L 1001.056533774932 302.92860590296596 L 1004.8616984462144 293.56604413667344 L 1008.4133625761947 284.1471489167585 L 1011.7051941100087 274.68196419231623 L 1014.7308609927916 265.18053391244223 L 1017.4840311696788 255.65290202623243 L 1019.9583725858059 246.10911248278168 L 1022.1475531863083 236.55920923118623 L 1024.0452409163215 227.01323622054096 L 1025.6451037209806 217.4812373999417 L 1026.9408095454219 207.9732567184838 L 1027.9260263347794 198.4993381252626 L 1028.59442203419 189.0695255693743 L 1028.939664588788 179.6938629999138 L 1028.9554219437098 170.38239436597695 L 1028.63536204409 161.14516361665866 L 1027.9731528350646 151.9922147010551 L 1026.962462261769 142.93359156826128 L 1025.5969582693383 133.97933816737373 L 1023.870308802908 125.13949844748659 L 1021.7761818076139 116.42411635769606 L 1019.308245228591 107.84323584709793 L 1016.4601670109752 99.4069008647871 L 1016.4601670109752 99.4069008647871 L 1013.3302759607666 91.95429063591776 L 1010.0233057210694 84.79732186520744 L 1006.5425314926761 77.93533951249793 L 1002.8912284763787 71.36768853763184 L 999.072671872969 65.09371390044839 L 995.0901368832391 59.112760560790214 L 990.9468987079808 53.42417347850122 L 986.646232547987 48.0272976134189 L 982.1914136040482 42.92147792538845 L 977.5857170769578 38.10605937424909 L 972.8324181675071 33.58038691984302 L 967.9347920764884 29.343805522012858 L 962.8961140046936 25.39566014059911 L 957.7196591529147 21.735295735444392 L 952.4087027219438 18.362057266388355 L 946.9665199125728 15.27528969327405 L 941.3963859255936 12.4743379759441 L 935.7015759617982 9.958547074238577 L 929.8853652219793 7.727261947997979 L 923.9510289069284 5.779827557065357 L 917.9018422174375 4.115588861283755 L 911.7410803542984 2.7338908204924017 L 905.4720185183032 1.6340783945347672 L 899.0979319102445 0.8154965432496523 L 892.6220957309139 0.27749022648222854 L 886.0477851811031 0.019404404070446035 L 879.3782754616044 0.04058403585905211 L 872.61684177321 0.34037408168897054 L 865.7667593167116 0.9181195013998507 L 858.8313032929016 1.7731652548351649 L 851.8137489025714 2.9048563018354128 L 844.7173713465137 4.312537602243642 L 837.5454458255201 5.995554115899926 L 830.3012475403826 7.95325080264689 L 822.9880516918934 10.184972622325029 L 815.6091334808445 12.690064534777822 L 808.167768108028 15.467871499844913 L 800.6672307742356 18.5177384773685 L 793.1107966802593 21.839010427190786 L 785.5017410268915 25.431032309153114 L 777.843339014924 29.29314908309641 L 770.1388658451489 33.424705708862874 L 762.3915967183581 37.82504714629428 L 754.6048068353438 42.49351835523155 L 746.7817713968975 47.42946429551688 L 738.9257656038118 52.63222992699162 L 731.0400646568785 58.10116020949755 L 723.1279437568896 63.835600102876015 L 715.1926781046373 69.83489456696877 L 707.2375429009132 76.0983885616172 L 699.2658133465096 82.62542704666348 L 691.2807646422185 89.4153549819481 L 683.2856719888318 96.46751732731413 L 675.2838105871418 103.78125904260163 L 667.2784556379404 111.35592508765323 L 659.2728823420193 119.19086042231069 L 651.2703659001708 127.28541000641411 L 643.2741815131868 135.63891879980736 L 635.2876043818595 144.25073176233013 L 635.2876043818595 144.25073176233013 L 635.2876043818595 144.25073176233013 L 635.2876043818595 144.25073176233013 L 635.2876043818595 144.25073176233013 L 635.2876043818595 144.25073176233013 L 635.2876043818595 144.25073176233013 L 635.2876043818595 144.25073176233013 L 635.2876043818595 144.25073176233013 L 635.2876043818595 144.25073176233013 L 635.2876043818595 144.25073176233013 L 635.2876043818595 144.25073176233013 L 635.2876043818595 144.25073176233013 L 635.2876043818595 144.25073176233013 L 635.2876043818595 144.25073176233013 L 635.2876043818595 144.25073176233013 L 635.2876043818595 144.25073176233013 L 635.2876043818595 144.25073176233013 L 635.2876043818595 144.25073176233013 L 635.2876043818595 144.25073176233013 L 635.2876043818595 144.25073176233013 L 635.2876043818595 144.25073176233013 L 635.2876043818595 144.25073176233013 L 635.2876043818595 144.25073176233013 L 635.2876043818595 144.25073176233013 L 635.2876043818595 144.25073176233013 L 635.2876043818595 144.25073176233013 L 635.2876043818595 144.25073176233013 L 635.2876043818595 144.25073176233013 L 635.2876043818595 144.25073176233013 L 635.2876043818595 144.25073176233013 L 635.2876043818595 144.25073176233013 L 635.2876043818595 144.25073176233013 L 635.2876043818595 144.25073176233013 L 635.2876043818595 144.25073176233013 L 635.2876043818595 144.25073176233013 L 635.2876043818595 144.25073176233013 L 635.2876043818595 144.25073176233013 L 635.2876043818595 144.25073176233013 L 635.2876043818595 144.25073176233013 L 635.2876043818595 144.25073176233013 L 635.2876043818595 144.25073176233013 L 635.2876043818595 144.25073176233013 L 635.2876043818595 144.25073176233013 L 635.2876043818595 144.25073176233013 L 635.2876043818595 144.25073176233013 L 635.2876043818595 144.25073176233013 L 635.2876043818595 144.25073176233013 L 635.2876043818595 144.25073176233013 L 635.2876043818595 144.25073176233013 L 635.2876043818595 144.25073176233013 L 635.2876043818595 144.25073176233013 L 635.2876043818595 144.25073176233013 L 635.2876043818595 144.25073176233013 L 635.2876043818595 144.25073176233013 L 635.2876043818595 144.25073176233013 L 635.2876043818595 144.25073176233013 L 635.2876043818595 144.25073176233013 L 635.2876043818595 144.25073176233013 L 635.2876043818595 144.25073176233013 L 635.2876043818595 144.25073176233013 "/></svg>
