<?xml version="1.0" encoding="utf-8"?>
<svg xmlns="http://www.w3.org/2000/svg"  viewBox="0,0,2000.0,3059.0997401026266" width="100%">
<path d="M635.2876043818595 144.25073176233013 L 627.4933543192633 153.01611525087844 L 620.0705120264814 161.82625981691834 L 613.0168940363194 170.6743967121447 L 606.3303168815821 179.55375718825545 L 600.008597095076 188.45757249694594 L 594.049551209605 197.37907388991368 L 588.4509957579752 206.31149261885523 L 583.2107472729919 215.2480599354664 L 578.32662228746 224.18200709144423 L 573.7964373341856 233.10656533848407 L 569.6180089459733 242.01496592828343 L 565.7891536556286 250.90044011254017 L 562.3076879959573 259.75621914294754 L 559.1714284997638 268.5755342712052 L 556.3781916998544 277.3516167490071 L 553.9257941290336 286.07769782805076 L 551.8120523201072 294.74700876003413 L 550.0347828058805 303.35278079665295 L 548.5918021191587 311.8882451896013 L 547.4809267927474 320.3466331905775 L 546.6999733594514 328.7211760512791 L 546.2467583520763 337.00510502340177 L 546.1190983034276 345.19165135864216 L 546.3148097463105 353.2740463086952 L 546.8317092135303 361.2455211252597 L 547.6676132378923 369.09930706003007 L 548.8203383522016 376.8286353647052 L 550.2877010892638 384.42673729098027 L 552.0675179818843 391.8868440905507 L 554.1576055628683 399.2021870151149 L 556.5557803650213 406.36599731636807 L 559.2598589211483 413.37150624600736 L 562.2676577640548 420.2119450557294 L 565.5769934265459 426.8805449972299 L 569.1856824414273 433.3705373222065 L 573.0915413415042 439.67515328235476 L 577.2923866595819 445.787624129371 L 581.7860349284656 451.7011811149522 L 586.5703026809607 457.40905549079633 L 591.6430064498725 462.9044785085975 L 597.0019627680066 468.1806814200536 L 602.6449881681679 473.23089547685976 L 608.5698991831619 478.0483519307142 L 614.7745123457939 482.6262820333121 L 621.2566441888694 486.957917036351 L 628.0141112451936 491.0364881915266 L 635.0447300475716 494.855226750536 L 642.3463171288091 498.407363965075 L 649.9166890217114 501.686131086841 L 657.7536622590833 504.6847593675299 L 665.8550533737309 507.3964800588382 L 674.2186788984588 509.8145244124626 L 682.8423553660728 511.93212368010006 L 691.7238993093782 513.7425091134453 L 700.86112726118 515.2389119641972 L 710.2518557542838 516.414563484051 L 719.8939013214948 517.2626949247025 L 729.7850804956184 517.77653753785 L 739.9232098094599 517.9493225751886 L 739.9232098094599 517.9493225751886 L 748.6564599391268 517.7319948070783 L 757.3704955574804 517.0867074688123 L 766.0589846096565 516.0235045094838 L 774.7155950407899 514.5524298781914 L 783.333994796017 512.6835275240272 L 791.9078518204725 510.42684139608934 L 800.4308340592918 507.792415443473 L 808.8966094576109 504.79029361527193 L 817.2988459605648 501.4305198605848 L 825.6312115132893 497.72313812850365 L 833.8873740609193 493.6781923681255 L 842.0610015485903 489.30572652854613 L 850.1457619214384 484.61578455886087 L 858.1353231245984 479.618410408166 L 866.0233531032061 474.32364802555514 L 873.8035198023969 468.74154136012487 L 881.4694911673056 462.8821343609719 L 889.0149351430686 456.75547097719027 L 896.4335196748206 450.37159515787494 L 903.718912707698 443.74055085212206 L 910.8647821868351 436.8723820090279 L 917.8647960573677 429.7771325776878 L 924.7126222644314 422.46484650719697 L 931.4019287531618 414.9455677466497 L 937.926383468694 407.2293402451426 L 944.279654356164 399.3262079517714 L 950.4554093607062 391.24621481563224 L 956.4473164274567 382.9994047858201 L 962.2490435015513 374.5958218114291 L 967.8542585281247 366.0455098415563 L 973.2566294523128 357.35851282529654 L 978.4498242192508 348.5448747117461 L 983.4275107740743 339.6146394499995 L 988.1833570619187 330.577850989153 L 992.7110310279196 321.44455327830127 L 997.0042006172122 312.22479026654037 L 1001.056533774932 302.92860590296596 L 1004.8616984462144 293.56604413667344 L 1008.4133625761947 284.1471489167585 L 1011.7051941100087 274.68196419231623 L 1014.7308609927916 265.18053391244223 L 1017.4840311696788 255.65290202623243 L 1019.9583725858059 246.10911248278168 L 1022.1475531863083 236.55920923118623 L 1024.0452409163215 227.01323622054096 L 1025.6451037209806 217.4812373999417 L 1026.9408095454219 207.9732567184838 L 1027.9260263347794 198.4993381252626 L 1028.59442203419 189.0695255693743 L 1028.939664588788 179.6938629999138 L 1028.9554219437098 170.38239436597695 L 1028.63536204409 161.14516361665866 L 1027.9731528350646 151.9922147010551 L 1026.962462261769 142.93359156826128 L 1025.5969582693383 133.97933816737373 L 1023.870308802908 125.13949844748659 L 1021.7761818076139 116.42411635769606 L 1019.308245228591 107.84323584709793 L 1016.4601670109752 99.4069008647871 L 1016.4601670109752 99.4069008647871 L 1013.3302759607666 91.95429063591776 L 1010.0233057210694 84.79732186520744 L 1006.5425314926761 77.93533951249793 L 1002.8912284763787 71.36768853763184 L 999.072671872969 65.09371390044839 L 995.0901368832391 59.112760560790214 L 990.9468987079808 53.42417347850122 L 986.646232547987 48.0272976134189 L 982.1914136040482 42.92147792538845 L 977.5857170769578 38.10605937424909 L 972.8324181675071 33.58038691984302 L 967.9347920764884 29.343805522012858 L 962.8961140046936 25.39566014059911 L 957.7196591529147 21.735295735444392 L 952.4087027219438 18.362057266388355 L 946.9665199125728 15.27528969327405 L 941.3963859255936 12.4743379759441 L 935.7015759617982 9.958547074238577 L 929.8853652219793 7.727261947997979 L 923.9510289069284 5.779827557065357 L 917.9018422174375 4.115588861283755 L 911.7410803542984 2.7338908204924017 L 905.4720185183032 1.6340783945347672 L 899.0979319102445 0.8154965432496523 L 892.6220957309139 0.27749022648222854 L 886.0477851811031 0.019404404070446035 L 879.3782754616044 0.04058403585905211 L 872.61684177321 0.34037408168897054 L 865.7667593167116 0.9181195013998507 L 858.8313032929016 1.7731652548351649 L 851.8137489025714 2.9048563018354128 L 844.7173713465137 4.312537602243642 L 837.5454458255201 5.995554115899926 L 830.3012475403826 7.95325080264689 L 822.9880516918934 10.184972622325029 L 815.6091334808445 12.690064534777822 L 808.167768108028 15.467871499844913 L 800.6672307742356 18.5177384773685 L 793.1107966802593 21.839010427190786 L 785.5017410268915 25.431032309153114 L 777.843339014924 29.29314908309641 L 770.1388658451489 33.424705708862874 L 762.3915967183581 37.82504714629428 L 754.6048068353438 42.49351835523155 L 746.7817713968975 47.42946429551688 L 738.9257656038118 52.63222992699162 L 731.0400646568785 58.10116020949755 L 723.1279437568896 63.835600102876015 L 715.1926781046373 69.83489456696877 L 707.2375429009132 76.0983885616172 L 699.2658133465096 82.62542704666348 L 691.2807646422185 89.4153549819481 L 683.2856719888318 96.46751732731413 L 675.2838105871418 103.78125904260163 L 667.2784556379404 111.35592508765323 L 659.2728823420193 119.19086042231069 L 651.2703659001708 127.28541000641411 L 643.2741815131868 135.63891879980736 L 635.2876043818595 144.25073176233013 L 635.2876043818595 144.25073176233013 L 635.2876043818595 144.25073176233013 L 635.2876043818595 144.25073176233013 L 635.2876043818595 144.25073176233013 L 635.2876043818595 144.25073176233013 L 635.2876043818595 144.25073176233013 L 635.2876043818595 144.25073176233013 L 635.2876043818595 144.25073176233013 L 635.2876043818595 144.25073176233013 L 635.2876043818595 144.25073176233013 L 635.2876043818595 144.25073176233013 L 635.2876043818595 144.25073176233013 L 635.2876043818595 144.25073176233013 L 635.2876043818595 144.25073176233013 L 635.2876043818595 144.25073176233013 L 635.2876043818595 144.25073176233013 L 635.2876043818595 144.25073176233013 L 635.2876043818595 144.25073176233013 L 635.2876043818595 144.25073176233013 L 635.2876043818595 144.25073176233013 L 635.2876043818595 144.25073176233013 L 635.2876043818595 144.25073176233013 L 635.2876043818595 144.25073176233013 L 635.2876043818595 144.25073176233013 L 635.2876043818595 144.25073176233013 L 635.2876043818595 144.25073176233013 L 635.2876043818595 144.25073176233013 L 635.2876043818595 144.25073176233013 L 635.2876043818595 144.25073176233013 L 635.2876043818595 144.25073176233013 L 635.2876043818595 144.25073176233013 L 635.2876043818595 144.25073176233013 L 635.2876043818595 144.25073176233013 L 635.2876043818595 144.25073176233013 L 635.2876043818595 144.25073176233013 L 635.2876043818595 144.25073176233013 L 635.2876043818595 144.25073176233013 L 635.2876043818595 144.25073176233013 L 635.2876043818595 144.25073176233013 L 635.2876043818595 144.25073176233013 L 635.2876043818595 144.25073176233013 L 635.2876043818595 144.25073176233013 L 635.2876043818595 144.25073176233013 L 635.2876043818595 144.25073176233013 L 635.2876043818595 144.25073176233013 L 635.2876043818595 144.25073176233013 L 635.2876043818595 144.25073176233013 L 635.2876043818595 144.25073176233013 L 635.2876043818595 144.25073176233013 L 635.2876043818595 144.25073176233013 L 635.2876043818595 144.25073176233013 L 635.2876043818595 144.25073176233013 L 635.2876043818595 144.25073176233013 L 635.2876043818595 144.25073176233013 L 635.2876043818595 144.25073176233013 L 635.2876043818595 144.25073176233013 L 635.2876043818595 144.25073176233013 L 635.2876043818595 144.25073176233013 L 635.2876043818595 144.25073176233013 L 635.2876043818595 144.25073176233013 M762.3451252582314 1362.5081378122488 L 739.0669631490678 1396.277277533914 L 716.3582492842753 1429.9300384541027 L 694.2216038244882 1463.4531014229274 L 672.65964693034 1496.833147290501 L 651.6749987624643 1530.0568569069362 L 631.2702794814945 1563.1109111223448 L 611.4481092480643 1595.981990786839 L 592.2111082228075 1628.6567767505326 L 573.5618965663574 1661.1219498635373 L 555.5030944393478 1693.3641909759644 L 538.0373220024126 1725.3701809379281 L 521.1671994161846 1757.1266005995412 L 504.89534684129825 1788.6201308109144 L 489.2243844383866 1819.8374524221617 L 474.15693236808386 1850.7652462833942 L 459.6956107910231 1881.390193244725 L 445.84303986783794 1911.698974156267 L 432.60183975916215 1941.6782698681327 L 419.9746306256296 1971.3147612304338 L 407.9640326278735 2000.5951290932833 L 396.5726659265277 2029.5060543067934 L 385.8031506822256 2058.0342177210764 L 375.6581070556008 2086.166300186246 L 366.14015520728725 2113.8889825524134 L 357.25191529791834 2141.1889456696913 L 348.99600748812776 2168.052870388192 L 341.3750519385489 2194.467437558029 L 334.3916688098155 2220.419328029314 L 328.0484782625614 2245.895222652159 L 322.34810045741983 2270.8818022766777 L 317.2931555550246 2295.3657477529814 L 312.88626371600947 2319.3337399311836 L 309.13004510100774 2342.772459661396 L 306.02711987065317 2365.668587793731 L 303.58010818557943 2388.008805178302 L 301.7916302064201 2409.7797926652206 L 300.6643060938087 2430.9682311045995 L 300.20075600837896 2451.5608013465508 L 300.40360011076433 2471.5441842411883 L 301.27545856159855 2490.905060638623 L 302.8189515215153 2509.630111388968 L 305.03669915114807 2527.706017342336 L 307.93132161113044 2545.119459348839 L 311.5054390620962 2561.8571182585897 L 315.7616716646787 2577.9056749217 L 320.7026395795118 2593.2518101882843 L 326.3309629672289 2607.882204908453 L 332.649261988464 2621.783539932319 L 339.66015680385004 2634.9424961099953 L 347.3662675740212 2647.3457542915935 L 355.770214459611 2658.9799953272277 L 364.87461762125287 2669.8319000670085 L 374.68209721958056 2679.88814936105 L 385.19527341522763 2689.1354240594633 L 396.4167663688277 2697.5604050123616 L 408.3491962410144 2705.1497730698575 L 420.9951831924213 2711.890209082063 L 434.35734738368205 2717.768393899091 L 448.43830897543023 2722.771008371054 L 448.43830897543023 2722.771008371054 L 462.15768839974004 2726.777525108805 L 475.95174240210775 2730.4366522158834 L 489.8178508218998 2733.748826385728 L 503.7533934984824 2736.7144843117776 L 517.7557502712223 2739.3340626874706 L 531.8223009794857 2741.607998206246 L 545.9504254626388 2743.536727561543 L 560.1375035600485 2745.120687446801 L 574.3809151110805 2746.360314555459 L 588.6780399551017 2747.256045580955 L 603.0262579314784 2747.808317216729 L 617.4229488795767 2748.017566156218 L 631.8654926387632 2747.8842290928637 L 646.3512690484043 2747.408742720103 L 660.8776579478665 2746.591543731375 L 675.4420391765162 2745.43306882012 L 690.0417925737192 2743.933754679775 L 704.6742979788426 2742.094038003781 L 719.3369352312525 2739.9143554855755 L 734.0270841703158 2737.3951438185977 L 748.742124635398 2734.5368396962867 L 763.4794364658658 2731.3398798120816 L 778.2363995010857 2727.804700859421 L 793.0103935804243 2723.931739531744 L 807.7987985432474 2719.721432522489 L 822.5989942289223 2715.1742165250957 L 837.4083604768144 2710.2905282330034 L 852.2242771262904 2705.0708043396503 L 867.0441240167172 2699.515481538475 L 881.8652809874607 2693.6249965229167 L 896.6851278778876 2687.3997859864153 L 911.5010445273637 2680.8402866224083 L 926.3104107752558 2673.9469351243356 L 941.1106064609304 2666.7201681856354 L 955.8990114237537 2659.1604224997477 L 970.6730055030921 2651.26813476011 L 985.429968538312 2643.043741660162 L 1000.1672803687802 2634.4876798933437 L 1014.8823208338623 2625.6003861530926 L 1029.5724697729252 2616.3822971328477 L 1044.235107025335 2606.833849526049 L 1058.8676124304586 2596.9554800261335 L 1073.4673658276615 2586.7476253265427 L 1088.0317470563114 2576.210722120713 L 1102.5581359557737 2565.3452071020856 L 1117.0439123654146 2554.151516964097 L 1131.486456124601 2542.6300884001885 L 1145.8831470726996 2530.7813581037976 L 1160.2313650490764 2518.605762768364 L 1174.5284898930975 2506.103739087326 L 1188.7719014441295 2493.2757237541227 L 1202.9589795415393 2480.1221534621936 L 1217.087104024692 2466.643464904977 L 1231.1536547329556 2452.840094775912 L 1245.1560115056955 2438.712479768438 L 1259.0915541822783 2424.2610565759924 L 1272.95766260207 2409.486261892016 L 1286.751716604438 2394.388532409947 L 1300.4710960287478 2378.968304823224 L 1300.4710960287478 2378.968304823224 L 1312.08539473067 2366.186942905747 L 1323.3693348460374 2353.6772043072883 L 1334.32750165596 2341.4272983049955 L 1344.9644804415452 2329.425434176018 L 1355.2848564839023 2317.6598211975047 L 1365.2932150641404 2306.118668646604 L 1374.9941414633677 2294.790185800465 L 1384.3922209626937 2283.6625819362357 L 1393.4920388432265 2272.724066331066 L 1402.2981803860757 2261.9628482621033 L 1410.8152308723502 2251.367137006497 L 1419.0477755831573 2240.925141841397 L 1427.0003997996073 2230.6250720439502 L 1434.677688802809 2220.4551368913067 L 1442.0842278738705 2210.403545660614 L 1449.2246022939014 2200.4585076290214 L 1456.1033973440094 2190.608232073678 L 1462.725198305304 2180.840928271733 L 1469.0945904588943 2171.144805500334 L 1475.2161590858893 2161.5080730366294 L 1481.094489467397 2151.9189401577696 L 1486.7341668845263 2142.365616140902 L 1492.139776618386 2132.8363102631765 L 1497.315903950086 2123.3192318017404 L 1502.2671341607343 2113.802590033744 L 1506.9980525314397 2104.274594236335 L 1511.5132443433108 2094.723453686662 L 1515.8172948774566 2085.1373776618743 L 1519.914789414986 2075.504575439121 L 1523.8103132370081 2065.8132562955498 L 1527.5084516246316 2056.0516295083103 L 1531.0137898589649 2046.2079043545511 L 1534.330913221117 2036.270290111421 L 1537.4644069921974 2026.226996056068 L 1540.4188564533135 2016.0662314656417 L 1543.198846885576 2005.7762056172905 L 1545.808963570092 1995.3451277881634 L 1548.253791787971 1984.761207255409 L 1550.537916820322 1974.0126532961758 L 1552.665923948253 1963.0876751876124 L 1554.6423984528742 1951.9744822068687 L 1556.471925615294 1940.6612836310917 L 1558.15909071662 1929.136288737432 L 1559.7084790379624 1917.3877068030374 L 1561.1246758604293 1905.403747105056 L 1562.41226646513 1893.1726189206374 L 1563.575836133173 1880.6825315269307 L 1564.6199701456674 1867.9216942010833 L 1565.5492537837215 1854.8783162202456 L 1566.3682723284446 1841.5406068615653 L 1567.0816110609455 1827.8967754021912 L 1567.6938552623326 1813.9350311192723 L 1568.2095902137148 1799.6435832899574 L 1568.6334011962017 1785.010641191395 L 1568.9698734909016 1770.0244141007342 L 1569.2235923789228 1754.6731112951231 L 1569.399143141375 1738.9449420517112 L 1569.5011110593662 1722.8281156476469 L 1569.5340814140059 1706.3108413600787 L 1569.5340814140059 1706.3108413600787 L 1569.4499451447712 1681.5049436459196 L 1569.19593512779 1657.248624624661 L 1568.7696495491496 1633.5375173619125 L 1568.168686594935 1610.367254923286 L 1567.390644451232 1587.7334703743907 L 1566.4331213041264 1565.6317967808384 L 1565.2937153397047 1544.0578672082397 L 1563.9700247440521 1523.0073147222042 L 1562.4596477032544 1502.475772388344 L 1560.7601824033982 1482.4588732722682 L 1558.869227030569 1462.9522504395886 L 1556.7843797708517 1443.9515369559158 L 1554.5032388103336 1425.4523658868598 L 1552.0234023350995 1407.450370298032 L 1549.3424685312364 1389.9411832550427 L 1546.4580355848293 1372.9204378235015 L 1543.367701681964 1356.3837670690214 L 1540.0690650087263 1340.3268040572111 L 1536.5597237512027 1324.745181853682 L 1532.8372760954792 1309.6345335240437 L 1528.8993202276406 1294.9904921339084 L 1524.7434543337731 1280.8086907488864 L 1520.3672765999627 1267.0847624345877 L 1515.7683852122957 1253.8143402566232 L 1510.944378356858 1240.9930572806036 L 1505.892854219734 1228.6165465721394 L 1500.6114109870111 1216.6804411968417 L 1495.0976468447743 1205.1803742203215 L 1489.3491599791105 1194.1119787081882 L 1483.3635485761042 1183.4708877260525 L 1477.1384108218424 1173.2527343395261 L 1470.67134490241 1163.4531516142192 L 1463.9599490038934 1154.0677726157428 L 1457.001821312379 1145.0922304097062 L 1449.7945600139515 1136.5221580617217 L 1442.3357632946972 1128.353188637399 L 1434.6230293407023 1120.580955202349 L 1426.6539563380525 1113.201090822182 L 1418.4261424728331 1106.2092285625095 L 1409.9371859311304 1099.6010014889416 L 1401.1846848990308 1093.372042667089 L 1392.1662375626192 1087.5179851625624 L 1382.8794421079817 1082.034462040972 L 1373.321896721205 1076.9171063679294 L 1363.491199588374 1072.1615512090439 L 1353.3849488955746 1067.763429629927 L 1343.000742828893 1063.7183746961898 L 1332.3361795744152 1060.0220194734422 L 1321.3888573182264 1056.6699970272948 L 1310.1563742464132 1053.657940423359 L 1298.6363285450611 1050.9814827272446 L 1286.826318400256 1048.6362570045626 L 1274.7239419980835 1046.6178963209236 L 1262.3267975246301 1044.9220337419383 L 1249.6324831659813 1043.5443023332175 L 1236.6385971082223 1042.4803351603719 L 1223.34273753744 1041.7257652890114 L 1209.7425026397195 1041.2762257847476 L 1195.8354906011473 1041.1273497131906 L 1195.8354906011473 1041.1273497131906 L 1187.1647968066081 1041.1859030251276 L 1178.6310064051747 1041.363891992614 L 1170.2293157690196 1041.6648101631604 L 1161.9549212703141 1042.0921510842784 L 1153.8030192812298 1042.6494083034795 L 1145.7688061739386 1043.3400753682752 L 1137.847478320612 1044.1676458261777 L 1130.0342320934221 1045.1356132246974 L 1122.3242638645404 1046.247471111347 L 1114.7127700061385 1047.5067130336363 L 1107.1949468903886 1048.916832539078 L 1099.7659908894611 1050.4813231751841 L 1092.4210983755295 1052.2036784894642 L 1085.1554657207641 1054.0873920294318 L 1077.9642892973377 1056.1359573425968 L 1070.8427654774212 1058.352867976471 L 1063.7860906331864 1060.7416174785676 L 1056.7894611368051 1063.3056993963964 L 1049.8480733604495 1066.0486072774686 L 1042.9571236762913 1068.973834669296 L 1036.1118084565012 1072.0848751193903 L 1029.3073240732515 1075.385222175264 L 1022.5388668987141 1078.8783693844275 L 1015.8016333050609 1082.5678102943916 L 1009.090819664463 1086.457038452669 L 1002.4016223490923 1090.5495474067702 L 995.7292377311207 1094.8488307042085 L 989.06886218272 1099.3583818924938 L 982.4156920760614 1104.0816945191373 L 975.7649237833172 1109.0222621316511 L 969.1117536766589 1114.183578277547 L 962.4513781282579 1119.569136504336 L 955.7789935102865 1125.18243035953 L 949.0897961949158 1131.02695339064 L 942.3789825543178 1137.1061991451777 L 935.6417489606645 1143.4236611706544 L 928.8732917861271 1149.9828330145822 L 922.0688074028777 1156.7872082244717 L 915.2234921830877 1163.8402803478352 L 908.3325424989289 1171.1455429321836 L 901.3911547225733 1178.706489525029 L 894.3945252261922 1186.5266136738821 L 887.3378503819577 1194.609408926255 L 880.2163265620411 1202.9583688296586 L 873.0251501386145 1211.576986931605 L 865.7595174838493 1220.4687567796054 L 858.4146249699176 1229.637171921171 L 850.9856689689905 1239.085725903814 L 843.4678458532402 1248.8179122750453 L 835.8563519948384 1258.8372245823764 L 828.1463837659566 1269.147156373319 L 820.3331375387667 1279.7512011953845 L 812.4118096854402 1290.6528525960846 L 804.377596578149 1301.8556041229301 L 796.2256945890648 1313.362949323433 L 787.951300090359 1325.1783817451055 L 779.5496094542038 1337.3053949354573 L 771.0158190527708 1349.7474824420017 L 762.3451252582314 1362.5081378122488 L 762.3451252582314 1362.5081378122488 L 762.3451252582314 1362.5081378122488 L 762.3451252582314 1362.5081378122488 L 762.3451252582314 1362.5081378122488 L 762.3451252582314 1362.5081378122488 L 762.3451252582314 1362.5081378122488 L 762.3451252582314 1362.5081378122488 L 762.3451252582314 1362.5081378122488 L 762.3451252582314 1362.5081378122488 L 762.3451252582314 1362.5081378122488 L 762.3451252582314 1362.5081378122488 L 762.3451252582314 1362.5081378122488 L 762.3451252582314 1362.5081378122488 L 762.3451252582314 1362.5081378122488 L 762.3451252582314 1362.5081378122488 L 762.3451252582314 1362.5081378122488 L 762.3451252582314 1362.5081378122488 L 762.3451252582314 1362.5081378122488 L 762.3451252582314 1362.5081378122488 L 762.3451252582314 1362.5081378122488 L 762.3451252582314 1362.5081378122488 L 762.3451252582314 1362.5081378122488 L 762.3451252582314 1362.5081378122488 L 762.3451252582314 1362.5081378122488 L 762.3451252582314 1362.5081378122488 L 762.3451252582314 1362.5081378122488 L 762.3451252582314 1362.5081378122488 L 762.3451252582314 1362.5081378122488 L 762.3451252582314 1362.5081378122488 L 762.3451252582314 1362.5081378122488 L 762.3451252582314 1362.5081378122488 L 762.3451252582314 1362.5081378122488 L 762.3451252582314 1362.5081378122488 L 762.3451252582314 1362.5081378122488 L 762.3451252582314 1362.5081378122488 L 762.3451252582314 1362.5081378122488 L 762.3451252582314 1362.5081378122488 L 762.3451252582314 1362.5081378122488 L 762.3451252582314 1362.5081378122488 L 762.3451252582314 1362.5081378122488 L 762.3451252582314 1362.5081378122488 L 762.3451252582314 1362.5081378122488 L 762.3451252582314 1362.5081378122488 L 762.3451252582314 1362.5081378122488 L 762.3451252582314 1362.5081378122488 L 762.3451252582314 1362.5081378122488 L 762.3451252582314 1362.5081378122488 L 762.3451252582314 1362.5081378122488 L 762.3451252582314 1362.5081378122488 L 762.3451252582314 1362.5081378122488 L 762.3451252582314 1362.5081378122488 L 762.3451252582314 1362.5081378122488 L 762.3451252582314 1362.5081378122488 L 762.3451252582314 1362.5081378122488 L 762.3451252582314 1362.5081378122488 L 762.3451252582314 1362.5081378122488 L 762.3451252582314 1362.5081378122488 L 762.3451252582314 1362.5081378122488 L 762.3451252582314 1362.5081378122488 L 762.3451252582314 1362.5081378122488 L 1315.419039661262 1526.9355177699067 L 1315.419039661262 1526.9355177699067 L 1315.419039661262 1526.9355177699067 L 1315.419039661262 1526.9355177699067 L 1315.419039661262 1526.9355177699067 L 1315.419039661262 1526.9355177699067 L 1315.419039661262 1526.9355177699067 L 1315.419039661262 1526.9355177699067 L 1315.419039661262 1526.9355177699067 L 1315.419039661262 1526.9355177699067 L 1315.419039661262 1526.9355177699067 L 1315.419039661262 1526.9355177699067 L 1315.419039661262 1526.9355177699067 L 1315.419039661262 1526.9355177699067 L 1315.419039661262 1526.9355177699067 L 1315.419039661262 1526.9355177699067 L 1315.419039661262 1526.9355177699067 L 1315.419039661262 1526.9355177699067 L 1315.419039661262 1526.9355177699067 L 1315.419039661262 1526.9355177699067 L 1315.419039661262 1526.9355177699067 L 1315.419039661262 1526.9355177699067 L 1315.419039661262 1526.9355177699067 L 1315.419039661262 1526.9355177699067 L 1315.419039661262 1526.9355177699067 L 1315.419039661262 1526.9355177699067 L 1315.419039661262 1526.9355177699067 L 1315.419039661262 1526.9355177699067 L 1315.419039661262 1526.9355177699067 L 1315.419039661262 1526.9355177699067 L 1315.419039661262 1526.9355177699067 L 1315.419039661262 1526.9355177699067 L 1315.419039661262 1526.9355177699067 L 1315.419039661262 1526.9355177699067 L 1315.419039661262 1526.9355177699067 L 1315.419039661262 1526.9355177699067 L 1315.419039661262 1526.9355177699067 L 1315.419039661262 1526.9355177699067 L 1315.419039661262 1526.9355177699067 L 1315.419039661262 1526.9355177699067 L 1315.419039661262 1526.9355177699067 L 1315.419039661262 1526.9355177699067 L 1315.419039661262 1526.9355177699067 L 1315.419039661262 1526.9355177699067 L 1315.419039661262 1526.9355177699067 L 1315.419039661262 1526.9355177699067 L 1315.419039661262 1526.9355177699067 L 1315.419039661262 1526.9355177699067 L 1315.419039661262 1526.9355177699067 L 1315.419039661262 1526.9355177699067 L 1315.419039661262 1526.9355177699067 L 1315.419039661262 1526.9355177699067 L 1315.419039661262 1526.9355177699067 L 1315.419039661262 1526.9355177699067 L 1315.419039661262 1526.9355177699067 L 1315.419039661262 1526.9355177699067 L 1315.419039661262 1526.9355177699067 L 1315.419039661262 1526.9355177699067 L 1315.419039661262 1526.9355177699067 L 1315.419039661262 1526.9355177699067 L 1315.419039661262 1526.9355177699067 L 1319.5633695701174 1545.727273443049 L 1322.8860607736162 1564.8443657281985 L 1325.4028342355598 1584.264304913249 L 1327.1294109197502 1603.9646012860965 L 1328.081511789989 1623.922765134635 L 1328.2748578100775 1644.1163067467594 L 1327.7251699438177 1664.5227364103653 L 1326.4481691550113 1685.1195644133468 L 1324.4595764074593 1705.884301043599 L 1321.7751126649648 1726.7944565890161 L 1318.4104988913284 1747.8275413374936 L 1314.3814560503517 1768.9610655769266 L 1309.703705105837 1790.1725395952094 L 1304.3929670215853 1811.4394736802371 L 1298.464962761399 1832.7393781199044 L 1291.9354132890796 1854.0497632021054 L 1284.8200395684278 1875.3481392147364 L 1277.134562563246 1896.612016445692 L 1268.894703237336 1917.8189051828658 L 1260.1161825545 1938.9463157141531 L 1250.8147214785388 1959.9717583274496 L 1241.0060409732537 1980.8727433106492 L 1230.7058620024468 2001.626780951648 L 1219.929905529921 2022.211381538339 L 1208.6938925194763 2042.6040553586179 L 1197.013543934915 2062.7823127003794 L 1184.9045807400387 2082.7236638515196 L 1172.382723898649 2102.4056190999313 L 1159.4636943745477 2121.805688733511 L 1146.163213131537 2140.901383040152 L 1132.4970011334176 2159.6702123077503 L 1118.4807793439913 2178.0896868242003 L 1104.1302687270604 2196.137316877398 L 1089.4611902464262 2213.790612755236 L 1074.4892648658904 2231.02708474561 L 1059.2302135492544 2247.8242431364156 L 1043.6997572603207 2264.1595982155472 L 1027.9136169628898 2280.0106602708993 L 1011.8875136207643 2295.354939590368 L 995.6371681977454 2310.1699464618464 L 979.1783016576347 2324.43319117323 L 962.5266349642345 2338.122184012414 L 945.6978890813459 2351.214435267293 L 928.7077849727707 2363.687455225762 L 911.5720436023105 2375.5187541757145 L 894.306385933767 2386.6858424050474 L 876.9265329309421 2397.1662302016543 L 859.4482055576373 2406.9374278534306 L 841.8871247776543 2415.9769456482704 L 824.2590115547947 2424.262293874069 L 806.5795868528602 2431.7709828187217 L 788.8645716356525 2438.480522770123 L 771.1296868669731 2444.3684240161674 L 753.3906535106239 2449.41219684475 L 735.6631925304067 2453.589351543765 L 717.9630248901226 2456.877398401108 L 700.3058715535739 2459.253847704674 L 682.7074534845617 2460.696209742357 L 665.1834916468882 2461.181994802053 L 665.1834916468882 2461.181994802053 L 658.4587038162445 2461.167947829767 L 651.9649268147973 2461.121148849561 L 645.7012872556693 2461.0346107664122 L 639.666911751982 2460.9013464852974 L 633.860926916858 2460.714368911193 L 628.2824593634193 2460.4666909490766 L 622.930635704788 2460.151325503926 L 617.8045825540862 2459.7612854807167 L 612.9034265244359 2459.289583784427 L 608.2262942289597 2458.729233320033 L 603.7723122807793 2458.0732469925124 L 599.5406072930168 2457.3146377068424 L 595.5303058787947 2456.446418367999 L 591.7405346512346 2455.4616018809606 L 588.1704202234594 2454.3532011507023 L 584.8190892085905 2453.114229082203 L 581.6856682197503 2451.73769858044 L 578.7692838700608 2450.216622550389 L 576.0690627726444 2448.5440138970266 L 573.5841315406233 2446.712885525331 L 571.313616787119 2444.716250340279 L 569.2566451252543 2442.547121246848 L 567.412343168151 2440.198511150015 L 565.7798375289315 2437.6634329547555 L 564.3582548207174 2434.934899566048 L 563.1467216566316 2432.0059238888693 L 562.1443646497952 2428.8695188281963 L 561.3503104133314 2425.518697289006 L 560.7636855603616 2421.946472176276 L 560.3836167040083 2418.1458563949827 L 560.2092304573936 2414.1098628501036 L 560.2396534336393 2409.8315044466144 L 560.4740122458679 2405.303794089494 L 560.9114335072014 2400.519744683718 L 561.551043830762 2395.4723691342647 L 562.3919698296717 2390.1546803461097 L 563.4333381170526 2384.5596912242313 L 564.6742753060271 2378.680414673606 L 566.113908009717 2372.509863599211 L 567.7513628412445 2366.041050906023 L 569.5857664137319 2359.266989499019 L 571.6162453403012 2352.180692283177 L 573.8419262340747 2344.7751721634727 L 576.2619357081743 2337.043442044884 L 578.8754003757222 2328.978514832388 L 581.6814468498405 2320.5734034309608 L 584.6792017436514 2311.82112074558 L 587.8677916702773 2302.7146796812235 L 591.2463432428397 2293.247093142867 L 594.8139830744611 2283.4113740354887 L 598.5698377782637 2273.200535264064 L 602.5130339673696 2262.6075897335713 L 606.6426982549006 2251.6255503489874 L 610.9579572539795 2240.2474300152894 L 615.4579375777275 2228.466241637454 L 620.1417658392677 2216.2749981204583 L 625.0085686517216 2203.6667123692796 L 630.0574726282115 2190.6343972888944 L 635.2876043818595 2177.1710657842805 L 635.2876043818595 2177.1710657842805 L 643.4016959973561 2158.462099908936 L 651.7751835155799 2139.5895923407106 L 660.3969312538388 2120.570355777003 L 669.255803529439 2101.4212029152122 L 678.3406646596889 2082.158946452736 L 687.6403789618944 2062.800399086976 L 697.1438107533635 2043.3623735153287 L 706.8398243514029 2023.8616824351955 L 716.7172840733199 2004.3151385439733 L 726.7650542364217 1984.7395545390616 L 736.9719991580155 1965.15174311786 L 747.3269831554082 1945.5685169777673 L 757.8188705459073 1926.0066888161823 L 768.4365256468194 1906.4830713305046 L 779.1688127754524 1887.014477218132 L 790.004596249113 1867.6177191764643 L 800.9327403851083 1848.3096099029012 L 811.9421095007452 1829.1069620948408 L 823.0215679133316 1810.0265884496823 L 834.1599799401746 1791.0853016648239 L 845.3462098985806 1772.2999144376658 L 856.5691221058572 1753.6872394656068 L 867.8175808793112 1735.264089446046 L 879.0804505362507 1717.0472770763813 L 890.3465953939817 1699.053615054013 L 901.6048797698122 1681.2999160763397 L 912.844167981049 1663.8029928407602 L 924.0533243449989 1646.5796580446736 L 935.2212131789697 1629.6467243854793 L 946.3366988002683 1613.0210045605754 L 957.3886455262019 1596.7193112673617 L 968.3659176740772 1580.7584572032372 L 979.2573795612019 1565.1552550656006 L 990.0518955048832 1549.9265175518506 L 1000.7383298224278 1535.0890573593867 L 1011.3055468311431 1520.6596871856082 L 1021.7424108483362 1506.6552197279134 L 1032.0377861913146 1493.0924676837017 L 1042.1805371773844 1479.988243750372 L 1052.159528123854 1467.3593606253237 L 1061.96362334803 1455.222631005955 L 1071.5816871672196 1443.5948675896652 L 1081.0025838987297 1432.492883073854 L 1090.2151778598677 1421.9334901559198 L 1099.208333367941 1411.9335015332615 L 1107.9709147402561 1402.5097299032784 L 1116.4917862941209 1393.678987963369 L 1124.7598123468422 1385.458088410933 L 1132.7638572157268 1377.8638439433687 L 1140.4927852180824 1370.9130672580761 L 1147.9354606712159 1364.6225710524534 L 1155.0807478924344 1359.0091680238997 L 1161.9175111990453 1354.0896708698144 L 1168.4346149083553 1349.8808922875962 L 1174.6209233376721 1346.3996449746442 L 1180.4653008043024 1343.6627416283573 L 1185.956611625554 1341.6869949461345 L 1191.0837201187328 1340.489217625375 L 1195.8354906011473 1340.0862223634774 L 1195.8354906011473 1340.0862223634774 L 1197.7483534281635 1340.156784744985 L 1199.6858894344796 1340.3673073736722 L 1201.6470068864978 1340.7160434757816 L 1203.6306140506215 1341.2012462775588 L 1205.635619193253 1341.8211690052474 L 1207.660930580795 1342.5740648850915 L 1209.7054564796501 1343.458187143336 L 1211.7681051562208 1344.4717890062245 L 1213.8477848769103 1345.6131237000018 L 1215.9434039081207 1346.8804444509117 L 1218.053870516255 1348.2720044851987 L 1220.1780929677157 1349.7860570291077 L 1222.314979528906 1351.4208553088815 L 1224.4634384662272 1353.1746525507658 L 1226.6223780460837 1355.0457019810035 L 1228.790706534877 1357.0322568258396 L 1230.96733219901 1359.132570311519 L 1233.151163304885 1361.3448956642853 L 1235.3411081189056 1363.6674861103825 L 1237.5360749074741 1366.0985948760547 L 1239.734971936993 1368.636475187547 L 1241.9367074738648 1371.2793802711033 L 1244.140189784492 1374.0255633529675 L 1246.344327135278 1376.873277659384 L 1248.548027792625 1379.820776416598 L 1250.750200022936 1382.8663128508517 L 1252.949752092613 1386.0081401883917 L 1255.1455922680589 1389.244511655461 L 1257.3366288156767 1392.5736804783041 L 1259.5217700018693 1395.9938998831647 L 1261.6999240930388 1399.5034230962879 L 1263.8699993555874 1403.1005033439176 L 1266.0309040559187 1406.7833938522986 L 1268.1815464604354 1410.5503478476735 L 1270.3208348355392 1414.3996185562885 L 1272.4476774476336 1418.3294592043867 L 1274.560982563121 1422.338123018213 L 1276.6596584484041 1426.423863224011 L 1278.7426133698855 1430.584933048026 L 1280.8087555939678 1434.819585716501 L 1282.8569933870538 1439.126074455681 L 1284.8862350155462 1443.5026524918103 L 1286.8953887458476 1447.9475730511328 L 1288.8833628443604 1452.459089359893 L 1290.8490655774879 1457.035454644335 L 1292.791405211632 1461.6749221307034 L 1294.7092900131959 1466.3757450452417 L 1296.6016282485823 1471.1361766141947 L 1298.467328184193 1475.9544700638073 L 1300.3052980864318 1480.8288786203227 L 1302.114446221701 1485.7576555099856 L 1303.8936808564029 1490.7390539590397 L 1305.6419102569403 1495.7713271937303 L 1307.358042689716 1500.8527284403008 L 1309.0409864211329 1505.981510924996 L 1310.689649717593 1511.1559278740604 L 1312.3029408454997 1516.3742325137368 L 1313.8797680712553 1521.634678070271 L 1315.419039661262 1526.9355177699067 L 1315.419039661262 1526.9355177699067 L 1315.419039661262 1526.9355177699067 L 1315.419039661262 1526.9355177699067 L 1315.419039661262 1526.9355177699067 L 1315.419039661262 1526.9355177699067 L 1315.419039661262 1526.9355177699067 L 1315.419039661262 1526.9355177699067 L 1315.419039661262 1526.9355177699067 L 1315.419039661262 1526.9355177699067 L 1315.419039661262 1526.9355177699067 L 1315.419039661262 1526.9355177699067 L 1315.419039661262 1526.9355177699067 L 1315.419039661262 1526.9355177699067 L 1315.419039661262 1526.9355177699067 L 1315.419039661262 1526.9355177699067 L 1315.419039661262 1526.9355177699067 L 1315.419039661262 1526.9355177699067 L 1315.419039661262 1526.9355177699067 L 1315.419039661262 1526.9355177699067 L 1315.419039661262 1526.9355177699067 L 1315.419039661262 1526.9355177699067 L 1315.419039661262 1526.9355177699067 L 1315.419039661262 1526.9355177699067 L 1315.419039661262 1526.9355177699067 L 1315.419039661262 1526.9355177699067 L 1315.419039661262 1526.9355177699067 L 1315.419039661262 1526.9355177699067 L 1315.419039661262 1526.9355177699067 L 1315.419039661262 1526.9355177699067 L 1315.419039661262 1526.9355177699067 L 1315.419039661262 1526.9355177699067 L 1315.419039661262 1526.9355177699067 L 1315.419039661262 1526.9355177699067 L 1315.419039661262 1526.9355177699067 L 1315.419039661262 1526.9355177699067 L 1315.419039661262 1526.9355177699067 L 1315.419039661262 1526.9355177699067 L 1315.419039661262 1526.9355177699067 L 1315.419039661262 1526.9355177699067 L 1315.419039661262 1526.9355177699067 L 1315.419039661262 1526.9355177699067 L 1315.419039661262 1526.9355177699067 L 1315.419039661262 1526.9355177699067 L 1315.419039661262 1526.9355177699067 L 1315.419039661262 1526.9355177699067 L 1315.419039661262 1526.9355177699067 L 1315.419039661262 1526.9355177699067 L 1315.419039661262 1526.9355177699067 L 1315.419039661262 1526.9355177699067 L 1315.419039661262 1526.9355177699067 L 1315.419039661262 1526.9355177699067 L 1315.419039661262 1526.9355177699067 L 1315.419039661262 1526.9355177699067 L 1315.419039661262 1526.9355177699067 L 1315.419039661262 1526.9355177699067 L 1315.419039661262 1526.9355177699067 L 1315.419039661262 1526.9355177699067 L 1315.419039661262 1526.9355177699067 L 1315.419039661262 1526.9355177699067 L 1315.419039661262 1526.9355177699067 M1606.9039404952916 144.25073176233013 L 1599.1096904326953 153.01611525087844 L 1591.6868481399135 161.82625981691834 L 1584.6332301497516 170.6743967121447 L 1577.9466529950141 179.55375718825545 L 1571.624933208508 188.45757249694594 L 1565.6658873230374 197.37907388991368 L 1560.0673318714073 206.31149261885523 L 1554.8270833864242 215.2480599354664 L 1549.9429584008924 224.18200709144423 L 1545.4127734476176 233.10656533848407 L 1541.2343450594058 242.01496592828343 L 1537.4054897690608 250.90044011254017 L 1533.9240241093894 259.75621914294754 L 1530.787764613196 268.5755342712052 L 1527.9945278132861 277.3516167490071 L 1525.5421302424663 286.07769782805076 L 1523.4283884335393 294.74700876003413 L 1521.6511189193122 303.35278079665295 L 1520.2081382325907 311.8882451896013 L 1519.0972629061796 320.3466331905775 L 1518.316309472884 328.7211760512791 L 1517.8630944655085 337.00510502340177 L 1517.7354344168596 345.19165135864216 L 1517.9311458597426 353.2740463086952 L 1518.4480453269623 361.2455211252597 L 1519.2839493513245 369.09930706003007 L 1520.4366744656338 376.8286353647052 L 1521.9040372026961 384.42673729098027 L 1523.6838540953163 391.8868440905507 L 1525.7739416763006 399.2021870151149 L 1528.1721164784537 406.36599731636807 L 1530.8761950345806 413.37150624600736 L 1533.8839938774868 420.2119450557294 L 1537.193329539978 426.8805449972299 L 1540.8020185548596 433.3705373222065 L 1544.7078774549364 439.67515328235476 L 1548.9087227730142 445.787624129371 L 1553.4023710418978 451.7011811149522 L 1558.1866387943928 457.40905549079633 L 1563.2593425633045 462.9044785085975 L 1568.6182988814385 468.1806814200536 L 1574.2613242816 473.23089547685976 L 1580.1862352965938 478.0483519307142 L 1586.3908484592262 482.6262820333121 L 1592.8729803023016 486.957917036351 L 1599.6304473586254 491.0364881915266 L 1606.6610661610039 494.855226750536 L 1613.9626532422412 498.407363965075 L 1621.5330251351434 501.686131086841 L 1629.3699983725155 504.6847593675299 L 1637.4713894871632 507.3964800588382 L 1645.835015011891 509.8145244124626 L 1654.458691479505 511.93212368010006 L 1663.34023542281 513.7425091134453 L 1672.477463374612 515.2389119641972 L 1681.8681918677157 516.414563484051 L 1691.5102374349271 517.2626949247025 L 1701.4014166090508 517.77653753785 L 1711.539545922892 517.9493225751886 L 1711.539545922892 517.9493225751886 L 1720.2727960525592 517.7319948070783 L 1728.9868316709126 517.0867074688123 L 1737.6753207230886 516.0235045094838 L 1746.331931154222 514.5524298781914 L 1754.950330909449 512.6835275240272 L 1763.5241879339048 510.42684139608934 L 1772.047170172724 507.792415443473 L 1780.512945571043 504.79029361527193 L 1788.915182073997 501.4305198605848 L 1797.2475476267214 497.72313812850365 L 1805.5037101743515 493.6781923681255 L 1813.6773376620224 489.30572652854613 L 1821.7620980348709 484.61578455886087 L 1829.7516592380302 479.618410408166 L 1837.6396892166385 474.32364802555514 L 1845.4198559158294 468.74154136012487 L 1853.0858272807382 462.8821343609719 L 1860.6312712565 456.75547097719027 L 1868.0498557882524 450.37159515787494 L 1875.3352488211303 443.74055085212206 L 1882.4811183002673 436.8723820090279 L 1889.4811321708 429.7771325776878 L 1896.3289583778633 422.46484650719697 L 1903.018264866594 414.9455677466497 L 1909.5427195821262 407.2293402451426 L 1915.8959904695962 399.3262079517714 L 1922.0717454741382 391.24621481563224 L 1928.063652540889 382.9994047858201 L 1933.8653796149836 374.5958218114291 L 1939.4705946415568 366.0455098415563 L 1944.8729655657448 357.35851282529654 L 1950.0661603326835 348.5448747117461 L 1955.0438468875066 339.6146394499995 L 1959.7996931753512 330.577850989153 L 1964.3273671413517 321.44455327830127 L 1968.6205367306445 312.22479026654037 L 1972.6728698883644 302.92860590296596 L 1976.478034559647 293.56604413667344 L 1980.029698689627 284.1471489167585 L 1983.321530223441 274.68196419231623 L 1986.3471971062238 265.18053391244223 L 1989.100367283111 255.65290202623243 L 1991.5747086992378 246.10911248278168 L 1993.7638892997404 236.55920923118623 L 1995.6615770297535 227.01323622054096 L 1997.2614398344128 217.4812373999417 L 1998.5571456588539 207.9732567184838 L 1999.5423624482114 198.4993381252626 L 2000.2107581476218 189.0695255693743 L 2000.5560007022204 179.6938629999138 L 2000.571758057142 170.38239436597695 L 2000.2516981575222 161.14516361665866 L 1999.5894889484969 151.9922147010551 L 1998.578798375201 142.93359156826128 L 1997.2132943827705 133.97933816737373 L 1995.4866449163399 125.13949844748659 L 1993.392517921046 116.42411635769606 L 1990.9245813420232 107.84323584709793 L 1988.0765031244073 99.4069008647871 L 1988.0765031244073 99.4069008647871 L 1984.9466120741988 91.95429063591776 L 1981.6396418345016 84.79732186520744 L 1978.1588676061083 77.93533951249793 L 1974.507564589811 71.36768853763184 L 1970.6890079864006 65.09371390044839 L 1966.7064729966712 59.112760560790214 L 1962.5632348214128 53.42417347850122 L 1958.2625686614192 48.0272976134189 L 1953.8077497174802 42.92147792538845 L 1949.20205319039 38.10605937424909 L 1944.44875428094 33.58038691984302 L 1939.5511281899205 29.343805522012858 L 1934.5124501181258 25.39566014059911 L 1929.3359952663466 21.735295735444392 L 1924.025038835376 18.362057266388355 L 1918.5828560260052 15.27528969327405 L 1913.0127220390257 12.4743379759441 L 1907.3179120752304 9.958547074238577 L 1901.5017013354113 7.727261947997979 L 1895.5673650203607 5.779827557065357 L 1889.5181783308697 4.115588861283755 L 1883.3574164677304 2.7338908204924017 L 1877.088354631735 1.6340783945347672 L 1870.7142680236768 0.8154965432496523 L 1864.238431844346 0.27749022648222854 L 1857.6641212945358 0.019404404070446035 L 1850.994611575037 0.04058403585905211 L 1844.2331778866421 0.34037408168897054 L 1837.3830954301436 0.9181195013998507 L 1830.4476394063333 1.7731652548351649 L 1823.4300850160037 2.9048563018354128 L 1816.3337074599458 4.312537602243642 L 1809.1617819389523 5.995554115899926 L 1801.917583653815 7.95325080264689 L 1794.6043878053258 10.184972622325029 L 1787.2254695942763 12.690064534777822 L 1779.7841042214604 15.467871499844913 L 1772.2835668876678 18.5177384773685 L 1764.7271327936917 21.839010427190786 L 1757.1180771403237 25.431032309153114 L 1749.4596751283561 29.29314908309641 L 1741.7552019585812 33.424705708862874 L 1734.0079328317904 37.82504714629428 L 1726.2211429487759 42.49351835523155 L 1718.3981075103297 47.42946429551688 L 1710.542101717244 52.63222992699162 L 1702.6564007703105 58.10116020949755 L 1694.7442798703219 63.835600102876015 L 1686.8090142180695 69.83489456696877 L 1678.8538790143452 76.0983885616172 L 1670.882149459942 82.62542704666348 L 1662.8971007556509 89.4153549819481 L 1654.902008102264 96.46751732731413 L 1646.900146700574 103.78125904260163 L 1638.8947917513724 111.35592508765323 L 1630.8892184554513 119.19086042231069 L 1622.886702013603 127.28541000641411 L 1614.8905176266187 135.63891879980736 L 1606.9039404952916 144.25073176233013 L 1606.9039404952916 144.25073176233013 L 1606.9039404952916 144.25073176233013 L 1606.9039404952916 144.25073176233013 L 1606.9039404952916 144.25073176233013 L 1606.9039404952916 144.25073176233013 L 1606.9039404952916 144.25073176233013 L 1606.9039404952916 144.25073176233013 L 1606.9039404952916 144.25073176233013 L 1606.9039404952916 144.25073176233013 L 1606.9039404952916 144.25073176233013 L 1606.9039404952916 144.25073176233013 L 1606.9039404952916 144.25073176233013 L 1606.9039404952916 144.25073176233013 L 1606.9039404952916 144.25073176233013 L 1606.9039404952916 144.25073176233013 L 1606.9039404952916 144.25073176233013 L 1606.9039404952916 144.25073176233013 L 1606.9039404952916 144.25073176233013 L 1606.9039404952916 144.25073176233013 L 1606.9039404952916 144.25073176233013 L 1606.9039404952916 144.25073176233013 L 1606.9039404952916 144.25073176233013 L 1606.9039404952916 144.25073176233013 L 1606.9039404952916 144.25073176233013 L 1606.9039404952916 144.25073176233013 L 1606.9039404952916 144.25073176233013 L 1606.9039404952916 144.25073176233013 L 1606.9039404952916 144.25073176233013 L 1606.9039404952916 144.25073176233013 L 1606.9039404952916 144.25073176233013 L 1606.9039404952916 144.25073176233013 L 1606.9039404952916 144.25073176233013 L 1606.9039404952916 144.25073176233013 L 1606.9039404952916 144.25073176233013 L 1606.9039404952916 144.25073176233013 L 1606.9039404952916 144.25073176233013 L 1606.9039404952916 144.25073176233013 L 1606.9039404952916 144.25073176233013 L 1606.9039404952916 144.25073176233013 L 1606.9039404952916 144.25073176233013 L 1606.9039404952916 144.25073176233013 L 1606.9039404952916 144.25073176233013 L 1606.9039404952916 144.25073176233013 L 1606.9039404952916 144.25073176233013 L 1606.9039404952916 144.25073176233013 L 1606.9039404952916 144.25073176233013 L 1606.9039404952916 144.25073176233013 L 1606.9039404952916 144.25073176233013 L 1606.9039404952916 144.25073176233013 L 1606.9039404952916 144.25073176233013 L 1606.9039404952916 144.25073176233013 L 1606.9039404952916 144.25073176233013 L 1606.9039404952916 144.25073176233013 L 1606.9039404952916 144.25073176233013 L 1606.9039404952916 144.25073176233013 L 1606.9039404952916 144.25073176233013 L 1606.9039404952916 144.25073176233013 L 1606.9039404952916 144.25073176233013 L 1606.9039404952916 144.25073176233013 L 1606.9039404952916 144.25073176233013 "/></svg>
