<?xml version="1.0" encoding="utf-8"?>
<svg xmlns="http://www.w3.org/2000/svg"  viewBox="0,0,400,687.6061120543294" width="100%">
<path d="M194.82173174872668 191.383701188455 L 194.82173174872668,191.383701188455 L 181.91693391184052,222.96893667861417 L 167.38980066654094,263.9297616801862 L 151.99490662139223,311.5025466893038 L 136.48682638495885,362.9236622021002 L 121.6201345658052,415.42947871470795 L 108.14940577249575,466.25636672325976 L 96.82921461359494,512.6406967238886 L 88.41413569766712,551.8188392127272 L 83.65874363327674,581.0271646859084 L 83.65874363327674,581.0271646859084 L 82.05212852920832,596.3906181223668 L 81.07746965981262,609.0281707853865 L 80.77249575551785,619.1850594227504 L 81.1749355467522,627.1065207822423 L 82.32251776394392,633.0377916116456 L 84.25297113752121,637.2241086587437 L 87.00402439791235,639.9107086713199 L 90.6134062755455,641.3428283971577 L 95.1188455008489,641.7657045840408 L 95.1188455008489,641.7657045840408 L 99.15424762623402,641.2154939319626 L 102.86895554297931,639.5711500974659 L 106.28183361629883,636.8421052631579 L 109.41174621140667,633.0377916116456 L 112.27755769351697,628.167641325536 L 114.8981324278438,622.2410865874364 L 117.29233477960133,615.2675595799536 L 119.47902911400365,607.2564924856946 L 121.47707979626486,598.2173174872665 L 121.47707979626486,598.2173174872665 L 122.74256429604476,590.1512293277999 L 124.21555681317992,581.396591838018 L 125.84889643463501,572.1986417657046 L 127.5954222473747,562.8026158586431 L 129.40797333836386,553.4537508646167 L 131.23938879456708,544.3972835314092 L 133.04250770294914,535.8784506068038 L 134.77016915047477,528.1424888385839 L 136.37521222410868,521.4346349745331 L 136.37521222410868,521.4346349745331 L 137.26655348047538,517.6146010186757 L 138.15789473684214,513.7945670628184 L 139.04923599320884,509.97453310696096 L 139.94057724957557,506.15449915110355 L 140.8319185059423,502.33446519524625 L 141.72325976230903,498.51443123938884 L 142.61460101867573,494.69439728353143 L 143.50594227504246,490.87436332767413 L 144.3972835314092,487.0543293718166 L 144.3972835314092,487.0543293718166 L 155.22071307300513,487.0543293718166 L 166.04414261460104,487.0543293718166 L 176.86757215619696,487.0543293718166 L 187.69100169779287,487.0543293718166 L 198.5144312393888,487.0543293718166 L 209.3378607809847,487.0543293718166 L 220.16129032258064,487.0543293718166 L 230.98471986417658,487.0543293718166 L 241.80814940577253,487.0543293718166 L 241.80814940577253,487.0543293718166 L 252.50424448217322,487.0543293718166 L 263.20033955857383,487.0543293718166 L 273.8964346349746,487.0543293718166 L 284.5925297113752,487.0543293718166 L 295.2886247877759,487.0543293718166 L 305.9847198641766,487.0543293718166 L 316.68081494057725,487.0543293718166 L 327.37691001697794,487.0543293718166 L 338.07300509337864,487.0543293718166 L 338.07300509337864,487.0543293718166 L 339.34634974533105,496.6044142614602 L 340.6196943972836,506.15449915110355 L 341.893039049236,515.704584040747 L 343.16638370118847,525.2546689303905 L 344.43972835314094,534.804753820034 L 345.7130730050934,544.3548387096774 L 346.9864176570459,553.9049235993208 L 348.25976230899835,563.4550084889644 L 349.5331069609508,573.0050933786079 L 349.5331069609508,573.0050933786079 L 352.52153681695273,594.3689869835881 L 355.44394139470546,612.0826259196378 L 358.40407470288636,626.4855687606112 L 361.50569075017296,637.9173740803623 L 364.852543545243,646.7176004527448 L 368.5483870967742,653.2258064516129 L 372.696975413444,657.7815506508206 L 377.4020625039301,660.7243916242219 L 382.76740237691007,662.3938879456707 L 382.76740237691007,662.3938879456707 L 388.5949191976356,663.4612966107024 L 393.1396591838019,663.29308935421 L 396.47707979626495,661.4176570458404 L 398.68263849588135,657.3633905552412 L 399.8317927435076,650.6586807520594 L 400.0,640.8319185059423 L 399.26271772621516,627.4114946865371 L 397.69540338300953,609.9258001634912 L 395.3735144312394,587.9032258064516 L 395.3735144312394,587.9032258064516 L 389.6607558322329,539.163994214928 L 382.52373765956116,490.2644155190844 L 374.0662139219017,441.6383701188455 L 364.39193862793184,393.7197384141357 L 353.60466578632963,346.94240080487964 L 341.8081494057725,301.7402376910017 L 329.1061434949381,258.54712947242666 L 315.6024020625039,217.79695654907883 L 301.4006791171477,179.92359932088286 L 301.4006791171477,179.92359932088286 L 296.65314720492984,169.1127460227631 L 292.19801295353085,160.24492234169645 L 287.81833616298815,153.1409168081494 L 283.29717663333963,147.62151795258757 L 278.4175941646231,143.50751430547692 L 272.96264855687605,140.61969439728352 L 266.71539961013644,138.77884675847326 L 259.4589071244419,137.80575991951204 L 250.97623089983023,137.52122241086587 L 250.97623089983023,137.52122241086587 L 242.48569452304594,137.8592089542855 L 235.17418097214363,139.03665974973268 L 228.7775891341257,141.29881154499154 L 223.03181789599446,144.89090108784512 L 217.6727661447526,150.0581651260769 L 212.43633276740238,157.04584040747034 L 207.05841665094638,166.09916367980892 L 201.27491668238702,177.46337169087596 L 194.82173174872668,191.383701188455 L 194.82173174872668,191.383701188455 L 194.82173174872668,191.383701188455 L 194.82173174872668,191.383701188455 L 194.82173174872668,191.383701188455 L 194.82173174872668,191.383701188455 L 194.82173174872668,191.383701188455 L 194.82173174872668,191.383701188455 L 194.82173174872668,191.383701188455 L 194.82173174872668,191.383701188455 L 194.82173174872668,191.383701188455 L 279.62648556876064,250.9762308998302 L 279.62648556876064,250.9762308998302 L 279.62648556876064,250.9762308998302 L 279.62648556876064,250.9762308998302 L 279.62648556876064,250.9762308998302 L 279.62648556876064,250.9762308998302 L 279.62648556876064,250.9762308998302 L 279.62648556876064,250.9762308998302 L 279.62648556876064,250.9762308998302 L 279.62648556876064,250.9762308998302 L 279.62648556876064,250.9762308998302 L 283.2578758724769,260.9822046154816 L 287.20052820222605,272.450166635226 L 291.3412563667233,285.0594227504244 L 295.5668741746841,298.48927875243663 L 299.7641954348236,312.4190404326228 L 303.8200339558574,326.52801358234296 L 307.6212035465006,340.4955039929573 L 311.0545180154688,354.000817455826 L 314.0067911714771,366.723259762309 L 314.0067911714771,366.723259762309 L 315.7894736842105,374.1086587436333 L 317.572156196944,381.4940577249576 L 319.35483870967744,388.8794567062818 L 321.1375212224109,396.26485568760614 L 322.92020373514436,403.6502546689304 L 324.70288624787776,411.03565365025463 L 326.4855687606113,418.42105263157896 L 328.2682512733447,425.80645161290323 L 330.05093378607813,433.19185059422756 L 330.05093378607813,433.19185059422756 L 326.2308998302208,433.95585738539893 L 322.41086587436337,434.7198641765705 L 318.59083191850596,435.48387096774195 L 314.7707979626486,436.2478777589134 L 310.9507640067912,437.0118845500849 L 307.13073005093383,437.7758913412564 L 303.3106960950764,438.5398981324279 L 299.490662139219,439.3039049235994 L 295.67062818336166,440.0679117147708 L 295.67062818336166,440.0679117147708 L 278.0544551342514,442.7435075143055 L 258.7310570332642,444.66452870527576 L 238.70967741935493,445.84040747028865 L 218.99955983147834,446.28057599195125 L 200.6099478085896,445.9944664528706 L 184.55008488964347,444.99151103565373 L 171.82921461359493,443.28114192290764 L 163.45658051939887,440.87279129723953 L 160.4414261460102,437.7758913412564 L 160.4414261460102,437.7758913412564 L 161.88612211532413,429.4629944035717 L 165.8869395711501,413.9722065019179 L 171.94397283531413,392.86926994906617 L 179.55731622964225,367.71992705778786 L 188.22706407596056,340.08992014085396 L 197.45331069609506,311.54499151103573 L 206.736150411872,283.6508834811042 L 215.5756775451173,257.9733383638308 L 223.47198641765706,236.07809847198644 L 223.47198641765706,236.07809847198644 L 230.49110230774062,218.47921775765587 L 236.50097465886944,205.47380997296108 L 241.85059422750427,197.15619694397287 L 246.8889517701063,193.62070049676166 L 251.96503804313656,194.96164245739803 L 257.427843803056,201.27334465195253 L 263.62635980632587,212.65012890649564 L 270.90957680940704,229.18631704709807 L 279.62648556876064,250.9762308998302 L 279.62648556876064,250.9762308998302 L 279.62648556876064,250.9762308998302 L 279.62648556876064,250.9762308998302 L 279.62648556876064,250.9762308998302 L 279.62648556876064,250.9762308998302 L 279.62648556876064,250.9762308998302 L 279.62648556876064,250.9762308998302 L 279.62648556876064,250.9762308998302 L 279.62648556876064,250.9762308998302 L 279.62648556876064,250.9762308998302M214.30390492359933 16.04414261460102 L 194.82173174872668,191.383701188455 L 181.91693391184052,222.96893667861417 L 167.38980066654094,263.9297616801862 L 151.99490662139223,311.5025466893038 L 136.48682638495885,362.9236622021002 L 121.6201345658052,415.42947871470795 L 108.14940577249575,466.25636672325976 L 96.82921461359494,512.6406967238886 L 88.41413569766712,551.8188392127272 L 83.65874363327674,581.0271646859084 L 83.65874363327674,581.0271646859084 L 82.05212852920832,596.3906181223668 L 81.07746965981262,609.0281707853865 L 80.77249575551785,619.1850594227504 L 81.1749355467522,627.1065207822423 L 82.32251776394392,633.0377916116456 L 84.25297113752121,637.2241086587437 L 87.00402439791235,639.9107086713199 L 90.6134062755455,641.3428283971577 L 95.1188455008489,641.7657045840408 L 95.1188455008489,641.7657045840408 L 99.15424762623402,641.2154939319626 L 102.86895554297931,639.5711500974659 L 106.28183361629883,636.8421052631579 L 109.41174621140667,633.0377916116456 L 112.27755769351697,628.167641325536 L 114.8981324278438,622.2410865874364 L 117.29233477960133,615.2675595799536 L 119.47902911400365,607.2564924856946 L 121.47707979626486,598.2173174872665 L 121.47707979626486,598.2173174872665 L 122.74256429604476,590.1512293277999 L 124.21555681317992,581.396591838018 L 125.84889643463501,572.1986417657046 L 127.5954222473747,562.8026158586431 L 129.40797333836386,553.4537508646167 L 131.23938879456708,544.3972835314092 L 133.04250770294914,535.8784506068038 L 134.77016915047477,528.1424888385839 L 136.37521222410868,521.4346349745331 L 136.37521222410868,521.4346349745331 L 137.26655348047538,517.6146010186757 L 138.15789473684214,513.7945670628184 L 139.04923599320884,509.97453310696096 L 139.94057724957557,506.15449915110355 L 140.8319185059423,502.33446519524625 L 141.72325976230903,498.51443123938884 L 142.61460101867573,494.69439728353143 L 143.50594227504246,490.87436332767413 L 144.3972835314092,487.0543293718166 L 144.3972835314092,487.0543293718166 L 155.22071307300513,487.0543293718166 L 166.04414261460104,487.0543293718166 L 176.86757215619696,487.0543293718166 L 187.69100169779287,487.0543293718166 L 198.5144312393888,487.0543293718166 L 209.3378607809847,487.0543293718166 L 220.16129032258064,487.0543293718166 L 230.98471986417658,487.0543293718166 L 241.80814940577253,487.0543293718166 L 241.80814940577253,487.0543293718166 L 252.50424448217322,487.0543293718166 L 263.20033955857383,487.0543293718166 L 273.8964346349746,487.0543293718166 L 284.5925297113752,487.0543293718166 L 295.2886247877759,487.0543293718166 L 305.9847198641766,487.0543293718166 L 316.68081494057725,487.0543293718166 L 327.37691001697794,487.0543293718166 L 338.07300509337864,487.0543293718166 L 338.07300509337864,487.0543293718166 L 339.34634974533105,496.6044142614602 L 340.6196943972836,506.15449915110355 L 341.893039049236,515.704584040747 L 343.16638370118847,525.2546689303905 L 344.43972835314094,534.804753820034 L 345.7130730050934,544.3548387096774 L 346.9864176570459,553.9049235993208 L 348.25976230899835,563.4550084889644 L 349.5331069609508,573.0050933786079 L 349.5331069609508,573.0050933786079 L 352.52153681695273,594.3689869835881 L 355.44394139470546,612.0826259196378 L 358.40407470288636,626.4855687606112 L 361.50569075017296,637.9173740803623 L 364.852543545243,646.7176004527448 L 368.5483870967742,653.2258064516129 L 372.696975413444,657.7815506508206 L 377.4020625039301,660.7243916242219 L 382.76740237691007,662.3938879456707 L 382.76740237691007,662.3938879456707 L 388.5949191976356,663.4612966107024 L 393.1396591838019,663.29308935421 L 396.47707979626495,661.4176570458404 L 398.68263849588135,657.3633905552412 L 399.8317927435076,650.6586807520594 L 400.0,640.8319185059423 L 399.26271772621516,627.4114946865371 L 397.69540338300953,609.9258001634912 L 395.3735144312394,587.9032258064516 L 395.3735144312394,587.9032258064516 L 389.6607558322329,539.163994214928 L 382.52373765956116,490.2644155190844 L 374.0662139219017,441.6383701188455 L 364.39193862793184,393.7197384141357 L 353.60466578632963,346.94240080487964 L 341.8081494057725,301.7402376910017 L 329.1061434949381,258.54712947242666 L 315.6024020625039,217.79695654907883 L 301.4006791171477,179.92359932088286 L 301.4006791171477,179.92359932088286 L 296.65314720492984,169.1127460227631 L 292.19801295353085,160.24492234169645 L 287.81833616298815,153.1409168081494 L 283.29717663333963,147.62151795258757 L 278.4175941646231,143.50751430547692 L 272.96264855687605,140.61969439728352 L 266.71539961013644,138.77884675847326 L 259.4589071244419,137.80575991951204 L 250.97623089983023,137.52122241086587 L 250.97623089983023,137.52122241086587 L 242.48569452304594,137.8592089542855 L 235.17418097214363,139.03665974973268 L 228.7775891341257,141.29881154499154 L 223.03181789599446,144.89090108784512 L 217.6727661447526,150.0581651260769 L 212.43633276740238,157.04584040747034 L 207.05841665094638,166.09916367980892 L 201.27491668238702,177.46337169087596 L 194.82173174872668,191.383701188455 L 194.82173174872668,191.383701188455 L 194.82173174872668,191.383701188455 L 194.82173174872668,191.383701188455 L 194.82173174872668,191.383701188455 L 194.82173174872668,191.383701188455 L 194.82173174872668,191.383701188455 L 194.82173174872668,191.383701188455 L 194.82173174872668,191.383701188455 L 194.82173174872668,191.383701188455 L 194.82173174872668,191.383701188455 L 279.62648556876064,250.9762308998302 L 279.62648556876064,250.9762308998302 L 279.62648556876064,250.9762308998302 L 279.62648556876064,250.9762308998302 L 279.62648556876064,250.9762308998302 L 279.62648556876064,250.9762308998302 L 279.62648556876064,250.9762308998302 L 279.62648556876064,250.9762308998302 L 279.62648556876064,250.9762308998302 L 279.62648556876064,250.9762308998302 L 279.62648556876064,250.9762308998302 L 283.2578758724769,260.9822046154816 L 287.20052820222605,272.450166635226 L 291.3412563667233,285.0594227504244 L 295.5668741746841,298.48927875243663 L 299.7641954348236,312.4190404326228 L 303.8200339558574,326.52801358234296 L 307.6212035465006,340.4955039929573 L 311.0545180154688,354.000817455826 L 314.0067911714771,366.723259762309 L 314.0067911714771,366.723259762309 L 315.7894736842105,374.1086587436333 L 317.572156196944,381.4940577249576 L 319.35483870967744,388.8794567062818 L 321.1375212224109,396.26485568760614 L 322.92020373514436,403.6502546689304 L 324.70288624787776,411.03565365025463 L 326.4855687606113,418.42105263157896 L 328.2682512733447,425.80645161290323 L 330.05093378607813,433.19185059422756 L 330.05093378607813,433.19185059422756 L 326.2308998302208,433.95585738539893 L 322.41086587436337,434.7198641765705 L 318.59083191850596,435.48387096774195 L 314.7707979626486,436.2478777589134 L 310.9507640067912,437.0118845500849 L 307.13073005093383,437.7758913412564 L 303.3106960950764,438.5398981324279 L 299.490662139219,439.3039049235994 L 295.67062818336166,440.0679117147708 L 295.67062818336166,440.0679117147708 L 278.0544551342514,442.7435075143055 L 258.7310570332642,444.66452870527576 L 238.70967741935493,445.84040747028865 L 218.99955983147834,446.28057599195125 L 200.6099478085896,445.9944664528706 L 184.55008488964347,444.99151103565373 L 171.82921461359493,443.28114192290764 L 163.45658051939887,440.87279129723953 L 160.4414261460102,437.7758913412564 L 160.4414261460102,437.7758913412564 L 161.88612211532413,429.4629944035717 L 165.8869395711501,413.9722065019179 L 171.94397283531413,392.86926994906617 L 179.55731622964225,367.71992705778786 L 188.22706407596056,340.08992014085396 L 197.45331069609506,311.54499151103573 L 206.736150411872,283.6508834811042 L 215.5756775451173,257.9733383638308 L 223.47198641765706,236.07809847198644 L 223.47198641765706,236.07809847198644 L 230.49110230774062,218.47921775765587 L 236.50097465886944,205.47380997296108 L 241.85059422750427,197.15619694397287 L 246.8889517701063,193.62070049676166 L 251.96503804313656,194.96164245739803 L 257.427843803056,201.27334465195253 L 263.62635980632587,212.65012890649564 L 270.90957680940704,229.18631704709807 L 279.62648556876064,250.9762308998302 L 279.62648556876064,250.9762308998302 L 279.62648556876064,250.9762308998302 L 279.62648556876064,250.9762308998302 L 279.62648556876064,250.9762308998302 L 279.62648556876064,250.9762308998302 L 279.62648556876064,250.9762308998302 L 279.62648556876064,250.9762308998302 L 279.62648556876064,250.9762308998302 L 279.62648556876064,250.9762308998302 L 279.62648556876064,250.9762308998302 L 214.30390492359933,16.04414261460102 L 210.01697792869268,20.03552788781997 L 206.32427843803057,24.375903917499816 L 203.22580645161295,29.074702886247827 L 200.72156196943976,34.14135697667103 L 198.81154499151106,39.58529837137643 L 197.49575551782684,45.41595925297119 L 196.7741935483871,51.64277180406207 L 196.64685908319186,58.27516820725648 L 197.1137521222411,65.32258064516128 L 197.1137521222411,65.32258064516128 L 198.98761240017603,75.89448531723585 L 202.34232534741872,84.70257184179088 L 207.2156196943973,91.76570458404069 L 213.64522417154,97.10274790919956 L 221.668867509275,100.7325661824813 L 231.3242784380306,102.67402376910019 L 242.64918568823492,102.94598503427027 L 255.6813179903163,101.56731434320571 L 270.4584040747029,98.55687606112055 L 270.4584040747029,98.55687606112055 L 284.6082500157203,91.78142488838594 L 293.67414953153497,80.77092372508322 L 298.0050933786079,66.89303904923607 L 297.9500723134,51.51543733886685 L 293.8580770923726,36.00578507199897 L 286.07809847198644,21.731748726655443 L 274.9591272087028,10.060994780859032 L 260.8501540589826,2.361189712632877 L 244.10016977928694,0.0 L 244.10016977928694,0.0 L 242.24831792743507,0.28610953908080294 L 239.81167075394586,1.1004213041563833 L 236.8845500848897,2.3769100169778663 L 233.5612777463372,4.049550399295725 L 229.9361755643589,6.052317172860434 L 226.1035653650255,8.319185059422857 L 222.1577689744074,10.784128780733209 L 218.19310821857513,13.38112305854235 L 214.30390492359933,16.04414261460102 L 214.30390492359933,16.04414261460102 L 214.30390492359933,16.04414261460102 L 214.30390492359933,16.04414261460102 L 214.30390492359933,16.04414261460102 L 214.30390492359933,16.04414261460102 L 214.30390492359933,16.04414261460102 L 214.30390492359933,16.04414261460102 L 214.30390492359933,16.04414261460102 L 214.30390492359933,16.04414261460102 L 214.30390492359933,16.04414261460102 L 263.5823429541596,57.30050933786079 L 263.5823429541596,57.30050933786079 L 263.5823429541596,57.30050933786079 L 263.5823429541596,57.30050933786079 L 263.5823429541596,57.30050933786079 L 263.5823429541596,57.30050933786079 L 263.5823429541596,57.30050933786079 L 263.5823429541596,57.30050933786079 L 263.5823429541596,57.30050933786079 L 263.5823429541596,57.30050933786079 L 263.5823429541596,57.30050933786079 L 263.29466138464437,61.40665283279902 L 262.4693454065271,65.27699176256058 L 261.16298811544993,68.84550084889638 L 259.43218260705527,72.04615481355724 L 257.33352197698554,74.81292837829338 L 254.92359932088283,77.0797962648558 L 252.25900773438974,78.78073319499472 L 249.39634031314844,79.84971389046099 L 246.3921901528014,80.2207130730051 L 246.3921901528014,80.2207130730051 L 241.05986291894607,79.37653272967381 L 236.5858643023329,77.03263535182045 L 233.06451612903226,73.47198641765702 L 230.5901402251148,68.97755140539529 L 229.25705841665098,63.832295793246494 L 229.15959252971135,58.31918505942278 L 230.39206439036658,52.721184682135494 L 233.04879582468718,47.32126013959626 L 237.22410865874366,42.40237691001698 L 237.22410865874366,42.40237691001698 L 241.74998427969564,38.23492422813306 L 246.09664843111364,35.63321385902021 L 250.16977928692702,34.55008488964347 L 253.87505502106526,34.93837640696722 L 257.1181538074577,36.75092749795637 L 259.80475382003397,39.940577249575675 L 261.8405332327234,44.46016474878954 L 263.13117021945544,50.262529082562985 L 263.5823429541596,57.30050933786079 L 263.5823429541596,57.30050933786079 L 263.5823429541596,57.30050933786079 L 263.5823429541596,57.30050933786079 L 263.5823429541596,57.30050933786079 L 263.5823429541596,57.30050933786079 L 263.5823429541596,57.30050933786079 L 263.5823429541596,57.30050933786079 L 263.5823429541596,57.30050933786079 L 263.5823429541596,57.30050933786079 L 263.5823429541596,57.30050933786079"/></svg>
