<?xml version="1.0" encoding="utf-8"?>
<svg xmlns="http://www.w3.org/2000/svg"  viewBox="0,0,400,464.5341637934231" width="100%">
<path d="M196.75675675675674 12.642271901531172 L 196.75675675675674,12.642271901531172 L 190.29844659474287,20.401141882623445 L 186.01119638156678,28.34686538390241 L 183.82382382382386,36.185815445074645 L 183.6651466281096,43.62436510584659 L 185.46398250101956,50.36888740592445 L 189.1491491491491,56.12575538501466 L 194.6494642790939,60.601342082823564 L 201.89374559744928,63.50202053905759 L 210.8108108108108,64.53416379342306 L 210.8108108108108,64.53416379342306 L 219.02791680569456,63.6073110147185 L 226.97808920031144,60.963185407629844 L 234.47447447447445,56.806436065695266 L 241.3302191079969,51.34171208245286 L 247.35846958069183,44.77366255144028 L 252.37237237237235,37.3069365661958 L 256.18507396285173,29.146183220257356 L 258.60972083194304,20.496051607162766 L 259.4594594594595,11.56119082045009 L 259.4594594594595,11.56119082045009 L 257.84302821339855,6.7934601267935815 L 253.41489637785935,3.2892151410669617 L 246.80680680680683,1.0306602899195365 L 238.65050235420608,0.0 L 229.57772587402215,0.1794386979571681 L 220.2202202202202,1.5511808104401024 L 211.20972824676525,4.097430764097434 L 203.17799280762242,7.800392985578165 L 196.75675675675674,12.642271901531172 L 196.75675675675674,12.642271901531172 L 196.75675675675674,12.642271901531172 L 196.75675675675674,12.642271901531172 L 196.75675675675674,12.642271901531172 L 196.75675675675674,12.642271901531172 L 196.75675675675674,12.642271901531172 L 196.75675675675674,12.642271901531172 L 196.75675675675674,12.642271901531172 L 196.75675675675674,12.642271901531172 L 196.75675675675674,12.642271901531172"/></svg>
