<?xml version="1.0" encoding="utf-8"?>
<svg xmlns="http://www.w3.org/2000/svg"  viewBox="0,0,400,464.5341637934231" width="100%">
<path d="M196.75675675675674 12.642271901531172 L 196.75675675675674,12.642271901531172 L 190.29844659474287,20.401141882623445 L 186.01119638156678,28.34686538390241 L 183.82382382382386,36.185815445074645 L 183.6651466281096,43.62436510584659 L 185.46398250101956,50.36888740592445 L 189.1491491491491,56.12575538501466 L 194.6494642790939,60.601342082823564 L 201.89374559744928,63.50202053905759 L 210.8108108108108,64.53416379342306 L 210.8108108108108,64.53416379342306 L 219.02791680569456,63.6073110147185 L 226.97808920031144,60.963185407629844 L 234.47447447447445,56.806436065695266 L 241.3302191079969,51.34171208245286 L 247.35846958069183,44.77366255144028 L 252.37237237237235,37.3069365661958 L 256.18507396285173,29.146183220257356 L 258.60972083194304,20.496051607162766 L 259.4594594594595,11.56119082045009 L 259.4594594594595,11.56119082045009 L 257.84302821339855,6.7934601267935815 L 253.41489637785935,3.2892151410669617 L 246.80680680680683,1.0306602899195365 L 238.65050235420608,0.0 L 229.57772587402215,0.1794386979571681 L 220.2202202202202,1.5511808104401024 L 211.20972824676525,4.097430764097434 L 203.17799280762242,7.800392985578165 L 196.75675675675674,12.642271901531172 L 196.75675675675674,12.642271901531172 L 196.75675675675674,12.642271901531172 L 196.75675675675674,12.642271901531172 L 196.75675675675674,12.642271901531172 L 196.75675675675674,12.642271901531172 L 196.75675675675674,12.642271901531172 L 196.75675675675674,12.642271901531172 L 196.75675675675674,12.642271901531172 L 196.75675675675674,12.642271901531172 L 196.75675675675674,12.642271901531172M216.21621621621622 147.77740703666632 L 196.75675675675674,12.642271901531172 L 190.29844659474287,20.401141882623445 L 186.01119638156678,28.34686538390241 L 183.82382382382386,36.185815445074645 L 183.6651466281096,43.62436510584659 L 185.46398250101956,50.36888740592445 L 189.1491491491491,56.12575538501466 L 194.6494642790939,60.601342082823564 L 201.89374559744928,63.50202053905759 L 210.8108108108108,64.53416379342306 L 210.8108108108108,64.53416379342306 L 219.02791680569456,63.6073110147185 L 226.97808920031144,60.963185407629844 L 234.47447447447445,56.806436065695266 L 241.3302191079969,51.34171208245286 L 247.35846958069183,44.77366255144028 L 252.37237237237235,37.3069365661958 L 256.18507396285173,29.146183220257356 L 258.60972083194304,20.496051607162766 L 259.4594594594595,11.56119082045009 L 259.4594594594595,11.56119082045009 L 257.84302821339855,6.7934601267935815 L 253.41489637785935,3.2892151410669617 L 246.80680680680683,1.0306602899195365 L 238.65050235420608,0.0 L 229.57772587402215,0.1794386979571681 L 220.2202202202202,1.5511808104401024 L 211.20972824676525,4.097430764097434 L 203.17799280762242,7.800392985578165 L 196.75675675675674,12.642271901531172 L 196.75675675675674,12.642271901531172 L 196.75675675675674,12.642271901531172 L 196.75675675675674,12.642271901531172 L 196.75675675675674,12.642271901531172 L 196.75675675675674,12.642271901531172 L 196.75675675675674,12.642271901531172 L 196.75675675675674,12.642271901531172 L 196.75675675675674,12.642271901531172 L 196.75675675675674,12.642271901531172 L 196.75675675675674,12.642271901531172 L 216.21621621621622,147.77740703666632 L 195.25303080858632,158.10773736699667 L 174.55677900122345,172.04167130093057 L 154.71471471471475,188.85848811774738 L 136.31409186964746,207.83746709672639 L 119.94216438660882,228.2578875171468 L 106.18618618618619,249.39902865828796 L 95.63341118896676,270.54016979942907 L 88.87109331553776,290.9605902198495 L 86.48648648648648,309.9395691988285 L 86.48648648648648,309.9395691988285 L 88.25566307047787,328.38912987061144 L 93.43269195121047,343.3418603788974 L 101.82182182182181,354.7443740036333 L 113.22730137544951,362.5432840247655 L 127.45337930523118,366.6852037222408 L 144.30430430430428,367.11674637600566 L 163.58432506580652,363.7845252660068 L 185.09769028287545,356.6351536721907 L 208.64864864864865,345.6152448745041 L 208.64864864864865,345.6152448745041 L 215.75501427353274,341.7417417417418 L 222.57665072479887,338.09068327586846 L 228.98898898898904,334.72435398361324 L 234.86746005264524,331.70503837170503 L 240.0874949023097,329.0950209468728 L 244.52452452452448,326.9565862158455 L 248.0539799058318,325.35201868535205 L 250.55129203277352,324.34360286212143 L 251.8918918918919,323.99362325288257 L 251.8918918918919,323.99362325288257 L 252.32640047454856,324.53935416898383 L 252.88547807066325,326.1172283394506 L 253.53353353353356,328.6382678975272 L 254.2349757164572,332.01349497645793 L 254.95421347273202,336.15393170948727 L 255.65565565565564,340.97060022985954 L 256.3037111185259,346.37452267081903 L 256.86278871464054,352.27672116561007 L 257.2972972972973,358.5882178474771 L 257.2972972972973,358.5882178474771 L 258.93893893893886,372.76535795054315 L 261.7017017017017,385.0383717050384 L 265.5855855855856,395.425054684314 L 270.59059059059064,403.943202461721 L 276.7167167167167,410.61061061061065 L 283.9639639639639,415.44507470433405 L 292.33233233233227,418.4643903162422 L 301.8218218218218,419.68635301968635 L 312.43243243243245,419.1287583880177 L 312.43243243243245,419.1287583880177 L 324.186408630853,416.5810254699144 L 333.43120898676455,412.2003484966448 L 340.0600600600601,406.55618581544513 L 343.9661884106328,400.2179957735514 L 345.0428205983762,393.75523671819974 L 343.1831831831832,387.73736699662624 L 338.28050272494716,382.73384495606723 L 330.2280057835613,379.3141289437586 L 318.9189189189189,378.04767730693663 L 318.9189189189189,378.04767730693663 L 315.79579579579575,378.04767730693663 L 312.67267267267266,378.04767730693663 L 309.5495495495495,378.04767730693663 L 306.4264264264264,378.04767730693663 L 303.30330330330327,378.04767730693663 L 300.1801801801802,378.04767730693663 L 297.0570570570571,378.04767730693663 L 293.93393393393393,378.04767730693663 L 290.81081081081084,378.04767730693663 L 290.81081081081084,378.04767730693663 L 291.65165165165166,368.43806769732697 L 292.4924924924925,358.82845808771737 L 293.3333333333333,349.2188484781078 L 294.17417417417414,339.60923886849815 L 295.015015015015,329.99962925888855 L 295.85585585585585,320.39001964927894 L 296.69669669669673,310.78041003966933 L 297.53753753753756,301.1708004300598 L 298.3783783783784,291.5611908204501 L 298.3783783783784,291.5611908204501 L 300.21428836243643,269.1891891891893 L 301.37396655915177,250.80339598858123 L 301.82182182182186,235.9856152448745 L 301.52226300374457,224.31765098431765 L 300.43969895821755,215.38130723315908 L 298.53853853853855,208.75838801764735 L 295.7831905980054,204.03069736403074 L 292.13806398991585,200.78003929855785 L 287.56756756756755,198.58821784747713 L 287.56756756756755,198.58821784747713 L 284.411819226634,197.2001631260891 L 281.4607199792385,195.25154784414045 L 278.75875875875874,192.8224520817113 L 276.3504244985727,189.99295591888185 L 274.28020613205797,186.84313943573204 L 272.5925925925926,183.453082712342 L 271.3320728135543,179.9028658287918 L 270.54313572832086,176.2725688651615 L 270.27027027027026,172.64227190153116 L 270.27027027027026,172.64227190153116 L 269.4027360694027,167.40295851406964 L 267.0136803470137,161.95899603307015 L 263.42342342342346,156.58621584547507 L 258.95228561895226,151.56044933822713 L 253.9205872539206,147.15752789826865 L 248.64864864864862,143.65328291254224 L 243.45679012345676,141.32354576799025 L 238.66533199866532,140.4441478515553 L 234.59459459459458,141.29092055017983 L 234.59459459459458,141.29092055017983 L 233.9643347050754,141.40659177696222 L 232.8357987617247,141.73580988395807 L 231.2712712712713,142.25188151114077 L 229.33303674044413,142.92811329848365 L 227.08337967597228,143.73781188596 L 224.58458458458455,144.65428391354322 L 221.89893597301005,145.6508360212064 L 219.0887183479776,146.700774848923 L 216.21621621621622,147.77740703666632 L 216.21621621621622,147.77740703666632 L 216.21621621621622,147.77740703666632 L 216.21621621621622,147.77740703666632 L 216.21621621621622,147.77740703666632 L 216.21621621621622,147.77740703666632 L 216.21621621621622,147.77740703666632 L 216.21621621621622,147.77740703666632 L 216.21621621621622,147.77740703666632 L 216.21621621621622,147.77740703666632 L 216.21621621621622,147.77740703666632 L 227.02702702702703,210.48010973936903 L 227.02702702702703,210.48010973936903 L 227.02702702702703,210.48010973936903 L 227.02702702702703,210.48010973936903 L 227.02702702702703,210.48010973936903 L 227.02702702702703,210.48010973936903 L 227.02702702702703,210.48010973936903 L 227.02702702702703,210.48010973936903 L 227.02702702702703,210.48010973936903 L 227.02702702702703,210.48010973936903 L 227.02702702702703,210.48010973936903 L 227.21981240499753,213.31405479553635 L 227.76850924999076,216.01453305157008 L 228.6286286286287,218.52815778741706 L 229.75568160753346,220.80154228302376 L 231.10517925332738,222.78129981833686 L 232.63263263263258,224.41404367330298 L 234.29355281207134,225.64638712786862 L 236.04345085826566,226.42494346198055 L 237.83783783783784,226.69632595558525 L 237.83783783783784,226.69632595558525 L 244.10039669298922,227.81596411226047 L 247.81818855892934,231.00878656434216 L 249.0890890890891,236.02565528491454 L 248.01097393689986,242.61743224706188 L 244.68171875579282,250.5349794238683 L 239.19919919919917,259.5291587884181 L 231.6612909205502,269.3508323137953 L 222.165869573277,279.7508619730842 L 210.8108108108108,290.480109739369 L 210.8108108108108,290.480109739369 L 196.83980276572865,301.3947280613948 L 182.64635005375746,310.28954880806737 L 168.72872872872873,317.06669632595555 L 155.5852148444741,321.62829496162834 L 143.7140844548252,323.87646906165423 L 133.61361361361358,323.7133429726023 L 125.78207837467096,321.04104104104107 L 120.71775479182885,315.76168761353944 L 118.91891891891892,307.7774070366664 L 118.91891891891892,307.7774070366664 L 121.79438697957214,299.04422941459984 L 129.59033107181256,286.04011418826235 L 141.06106106106103,270.17980943906866 L 154.96088681273866,252.87806324843362 L 170.04411819226635,235.54962369777186 L 185.06506506506503,219.60923886849818 L 198.77803729655582,206.47165684202727 L 209.93734475215956,197.55162569977387 L 217.2972972972973,194.2638935231528 L 217.2972972972973,194.2638935231528 L 219.05461016572124,194.53527601675756 L 220.70514959403852,195.3138323508694 L 222.22222222222226,196.54617580543507 L 223.5791346902458,198.17891966040116 L 224.74919363808252,200.15867719571423 L 225.70570570570567,202.43206169132097 L 226.42197753308864,204.94568642716794 L 226.87131576020462,207.64616468320176 L 227.02702702702703,210.48010973936903 L 227.02702702702703,210.48010973936903 L 227.02702702702703,210.48010973936903 L 227.02702702702703,210.48010973936903 L 227.02702702702703,210.48010973936903 L 227.02702702702703,210.48010973936903 L 227.02702702702703,210.48010973936903 L 227.02702702702703,210.48010973936903 L 227.02702702702703,210.48010973936903 L 227.02702702702703,210.48010973936903 L 227.02702702702703,210.48010973936903"/></svg>
