<?xml version="1.0" encoding="utf-8"?>
<svg xmlns="http://www.w3.org/2000/svg"  viewBox="0,0,400,592.1919733972248" width="100%">
<path d="M266.2509983046336 9.299762275060353 L 266.2509983046336,9.299762275060353 L 263.4664873221149,13.358366843676029 L 261.88134302914824,17.7084063088182 L 261.4339157360833,22.18734967050104 L 262.0625557532705,26.632665928738547 L 263.7056133910599,30.881824083544664 L 266.30143895980166,34.7722931349334 L 269.78838276984584,38.14154208291884 L 274.1047951315427,40.82703992751492 L 279.18902635524233,42.66625566873565 L 279.18902635524233,42.66625566873565 L 284.59084688925947,43.114617048007425 L 290.1720119749852,41.91525035845564 L 295.6579002676158,39.33717242764332 L 300.7738904223471,35.64940008313368 L 305.2453610943755,31.12095015248956 L 308.7976909388967,26.020839463274122 L 311.15625861110726,20.618084843050205 L 312.046442766203,15.181703119380884 L 311.1936220593799,9.980711119829236 L 311.1936220593799,9.980711119829236 L 308.5538944389178,6.123869171885982 L 304.50182847374987,3.186168051449372 L 299.3905087500526,1.1788167930017752 L 293.5730198540023,0.1130244310247088 L 287.40244637177574,0.0 L 281.231872889549,0.8509525344093983 L 275.4143839934988,2.677091068734731 L 270.30306426980144,5.489624637457747 L 266.2509983046336,9.299762275060353 L 266.2509983046336,9.299762275060353 L 266.2509983046336,9.299762275060353 L 266.2509983046336,9.299762275060353 L 266.2509983046336,9.299762275060353 L 266.2509983046336,9.299762275060353 L 266.2509983046336,9.299762275060353 L 266.2509983046336,9.299762275060353 L 266.2509983046336,9.299762275060353 L 266.2509983046336,9.299762275060353 L 266.2509983046336,9.299762275060353"/></svg>
