<?xml version="1.0" encoding="utf-8"?>
<svg xmlns="http://www.w3.org/2000/svg"  viewBox="0,0,400,592.1919733972248" width="100%">
<path d="M266.2509983046336 9.299762275060353 L 266.2509983046336,9.299762275060353 L 263.4664873221149,13.358366843676029 L 261.88134302914824,17.7084063088182 L 261.4339157360833,22.18734967050104 L 262.0625557532705,26.632665928738547 L 263.7056133910599,30.881824083544664 L 266.30143895980166,34.7722931349334 L 269.78838276984584,38.14154208291884 L 274.1047951315427,40.82703992751492 L 279.18902635524233,42.66625566873565 L 279.18902635524233,42.66625566873565 L 284.59084688925947,43.114617048007425 L 290.1720119749852,41.91525035845564 L 295.6579002676158,39.33717242764332 L 300.7738904223471,35.64940008313368 L 305.2453610943755,31.12095015248956 L 308.7976909388967,26.020839463274122 L 311.15625861110726,20.618084843050205 L 312.046442766203,15.181703119380884 L 311.1936220593799,9.980711119829236 L 311.1936220593799,9.980711119829236 L 308.5538944389178,6.123869171885982 L 304.50182847374987,3.186168051449372 L 299.3905087500526,1.1788167930017752 L 293.5730198540023,0.1130244310247088 L 287.40244637177574,0.0 L 281.231872889549,0.8509525344093983 L 275.4143839934988,2.677091068734731 L 270.30306426980144,5.489624637457747 L 266.2509983046336,9.299762275060353 L 266.2509983046336,9.299762275060353 L 266.2509983046336,9.299762275060353 L 266.2509983046336,9.299762275060353 L 266.2509983046336,9.299762275060353 L 266.2509983046336,9.299762275060353 L 266.2509983046336,9.299762275060353 L 266.2509983046336,9.299762275060353 L 266.2509983046336,9.299762275060353 L 266.2509983046336,9.299762275060353 L 266.2509983046336,9.299762275060353M271.6985890627846 154.34186621083256 L 266.2509983046336,9.299762275060353 L 263.4664873221149,13.358366843676029 L 261.88134302914824,17.7084063088182 L 261.4339157360833,22.18734967050104 L 262.0625557532705,26.632665928738547 L 263.7056133910599,30.881824083544664 L 266.30143895980166,34.7722931349334 L 269.78838276984584,38.14154208291884 L 274.1047951315427,40.82703992751492 L 279.18902635524233,42.66625566873565 L 279.18902635524233,42.66625566873565 L 284.59084688925947,43.114617048007425 L 290.1720119749852,41.91525035845564 L 295.6579002676158,39.33717242764332 L 300.7738904223471,35.64940008313368 L 305.2453610943755,31.12095015248956 L 308.7976909388967,26.020839463274122 L 311.15625861110726,20.618084843050205 L 312.046442766203,15.181703119380884 L 311.1936220593799,9.980711119829236 L 311.1936220593799,9.980711119829236 L 308.5538944389178,6.123869171885982 L 304.50182847374987,3.186168051449372 L 299.3905087500526,1.1788167930017752 L 293.5730198540023,0.1130244310247088 L 287.40244637177574,0.0 L 281.231872889549,0.8509525344093983 L 275.4143839934988,2.677091068734731 L 270.30306426980144,5.489624637457747 L 266.2509983046336,9.299762275060353 L 266.2509983046336,9.299762275060353 L 266.2509983046336,9.299762275060353 L 266.2509983046336,9.299762275060353 L 266.2509983046336,9.299762275060353 L 266.2509983046336,9.299762275060353 L 266.2509983046336,9.299762275060353 L 266.2509983046336,9.299762275060353 L 266.2509983046336,9.299762275060353 L 266.2509983046336,9.299762275060353 L 266.2509983046336,9.299762275060353 L 271.6985890627846,154.34186621083256 L 268.030432528618,160.32842471031663 L 264.3454624427289,165.9675031408649 L 260.72774656373036,171.16382470938242 L 257.2613526502361,175.82211262277394 L 254.03034846085947,179.84709008794422 L 251.11880175421388,183.143480311798 L 248.6107802889129,185.61600650123995 L 246.59035182356982,187.16939186317506 L 245.14158411679816,187.70835960450788 L 245.14158411679816,187.70835960450788 L 243.73391620312637,187.9353425527642 L 242.253389565323,188.16232550102055 L 240.72802678959243,188.38930844927668 L 239.18585046213914,188.61629139753302 L 237.6548831691677,188.84327434578935 L 236.16314749688246,189.07025729404566 L 234.73866603148807,189.297240242302 L 233.40946135918887,189.52422319055822 L 232.20355606618938,189.75120613881455 L 232.20355606618938,189.75120613881455 L 227.2968012217847,197.0006491899138 L 217.61499768813673,216.12045975723098 L 204.58729736167354,243.84880880656473 L 189.64285213882394,276.92386730371345 L 174.21081391601632,312.08380621447554 L 159.72033458967928,346.0667965046494 L 147.60056605624135,375.6110091400335 L 139.28066021213098,397.4546150864263 L 136.18976895377676,408.3357853096262 L 136.18976895377676,408.3357853096262 L 135.74888026415957,409.53888834400533 L 134.4785230228898,410.8484772059614 L 132.45716047133993,412.21971575756726 L 129.76325585088247,413.6077678608958 L 126.47527240289007,414.96779737802007 L 122.6716733687352,416.25496817101254 L 118.43092198979045,417.4244441019462 L 113.83148150742835,418.4313890328939 L 108.95181516302141,419.23096682592836 L 108.95181516302141,419.23096682592836 L 99.25693442247785,421.4596965153914 L 91.56847085417515,424.34975923928016 L 85.97609673396761,427.65455623899527 L 82.56948433770954,431.12748875593735 L 81.43830594125534,434.5219580315067 L 82.6722338204593,437.5913653071043 L 86.36094025117578,440.0891118241302 L 92.59409750925913,441.7685988239855 L 101.46137787056368,442.38322754807047 L 101.46137787056368,442.38322754807047 L 107.13221523214378,442.44767949634075 L 111.51961814555868,442.7979618238967 L 114.75249050734895,443.6694642548561 L 116.9597362140552,445.29757651333637 L 118.2702591622181,447.9176883234553 L 118.81296324837818,451.7651894093306 L 118.71675236907615,457.0754694950798 L 118.11053042085254,464.0839183048204 L 117.12320130024801,473.0259255626702 L 117.12320130024801,473.0259255626702 L 116.29373274859535,485.486635561596 L 116.89341609337127,494.7303526642474 L 118.78774292079417,500.76828590510615 L 121.8422048170826,503.6116443186542 L 125.922293368455,503.2716369393731 L 130.89350016112988,499.75947280174483 L 136.62131678132573,493.08636094025127 L 142.9712348152611,483.2635103893739 L 149.80874584915443,470.30213018359467 L 149.80874584915443,470.30213018359467 L 154.22510543498058,460.8529141154437 L 158.1538720208488,453.2195616333432 L 161.91450308949013,447.1498694614526 L 165.82645612363567,442.3916343239318 L 170.20918860601645,438.6926529449403 L 175.38215801936363,435.8007220486379 L 181.6648218464082,433.4636383591842 L 189.37663756988132,431.4291986007389 L 198.83706267251407,429.4451994974616 L 198.83706267251407,429.4451994974616 L 217.40856463643027,425.4314310667732 L 231.69821542830192,422.7571422566588 L 242.21602611705038,421.8538808946678 L 249.47200777159728,423.15319480834887 L 253.97617146086415,427.0866318252511 L 256.23852825377253,434.08573977292366 L 256.76908921924405,444.5820664789154 L 256.0778654262002,459.0071597707753 L 254.67486794356253,477.79256747605234 L 254.67486794356253,477.79256747605234 L 253.9173240298347,489.45556785435735 L 253.45681952987442,500.7822971982084 L 253.28774992644074,511.6886877489924 L 253.4045107022927,522.0906717480956 L 253.8014973401896,531.9041814369048 L 254.47310532289023,541.0451490568065 L 255.413730133154,549.4295068491871 L 256.6177672537399,556.9731870554334 L 258.07961216740694,563.5921219169318 L 258.07961216740694,563.5921219169318 L 260.4082890809993,571.5673499507269 L 262.53520337391944,577.9116634674214 L 264.66211766683955,582.8100115359646 L 266.99079458043184,586.4473432253062 L 269.7229967353688,589.0086076043958 L 273.0604867523224,590.678753742183 L 277.2050272519651,591.642730707617 L 282.3583808549691,592.0854875696479 L 288.7223101820067,592.1919733972248 L 288.7223101820067,592.1919733972248 L 297.49711600883643,591.4036046386722 L 305.907628215008,589.2141065698953 L 313.63999383503113,585.8868915012166 L 320.3803599034155,581.6853717429582 L 325.8148734546711,576.872959605442 L 329.6296815233078,571.7130673989903 L 331.51093114383525,566.469107433925 L 331.14476935076334,561.4044920205686 L 328.217343178602,556.7826334692429 L 328.217343178602,556.7826334692429 L 326.19224428222475,555.0181446245674 L 324.1727499030886,553.8141075039816 L 322.1140239032661,553.1761266247262 L 319.97123014483014,553.1098065040422 L 317.69953248985354,553.6207516591707 L 315.2540948004091,554.7145666073521 L 312.5900809385698,556.3968558658279 L 309.66265476640837,558.6732239518385 L 306.4269801459977,561.5492753826251 L 306.4269801459977,561.5492753826251 L 300.11255738792124,566.4728437787523 L 294.75090256079733,568.9080065199217 L 290.28597049221673,568.7370687440745 L 286.66171600977054,565.8423355891515 L 283.82209394104984,560.1061121930943 L 281.71105911364566,551.4107036938439 L 280.2725663551489,539.6384152293416 L 279.45057049315085,524.6715519375283 L 279.18902635524233,506.3924189563455 L 279.18902635524233,506.3924189563455 L 279.39919575177595,485.37174295815765 L 280.0633310448221,467.5568508217623 L 281.231872889549,452.72356185752386 L 282.9552619411246,440.64769537580617 L 285.28393885471695,431.10507068697365 L 288.2683442854941,423.87150710139036 L 291.9589188886243,418.7228239294205 L 296.40610331927536,415.43484048142795 L 301.6603382326155,413.7833760677773 L 301.6603382326155,413.7833760677773 L 307.4516727148748,412.4055989127237 L 312.0772676110278,410.2263757922219 L 315.4810777486654,407.4530738441851 L 317.6070579553787,404.29306020652643 L 318.39916305875875,400.9537020171592 L 317.80134788639646,397.64236641399634 L 315.757567265883,394.56642053495125 L 312.21177602480935,391.9332315179368 L 307.1079289907666,389.9501665008664 L 307.1079289907666,389.9501665008664 L 304.46539911168395,389.2467995871339 L 302.0078183015511,388.50980556995603 L 299.7688136638131,387.75599800105556 L 297.7820123019154,387.00219043215503 L 296.0810413193034,386.26519641497714 L 294.6995278194224,385.56182950124474 L 293.671098905718,384.9089032426803 L 293.02938168163536,384.32323119100664 L 292.80800325062,383.8216268979464 L 292.80800325062,383.8216268979464 L 292.9555888712969,382.81374788079194 L 293.3834003540187,380.34869438100435 L 294.06901962982175,376.5833928813291 L 294.99002862974226,371.6747698645108 L 296.1240092848169,365.77975181329487 L 297.448543526082,359.0552652104262 L 298.941213284574,351.6582365386502 L 300.57960049132936,343.7455922807116 L 302.3412870773844,335.4742589193557 L 302.3412870773844,335.4742589193557 L 310.2100292836026,295.1656368366237 L 316.1115859382663,258.04598506396155 L 320.0459570413754,224.53003787719564 L 322.01314259292997,195.03252955215234 L 322.01314259292997,169.96819436465788 L 320.0459570413754,149.7517665905387 L 316.1115859382663,134.79798050562087 L 310.2100292836026,125.52157038573093 L 302.3412870773844,122.33727050669505 L 302.3412870773844,122.33727050669505 L 300.2367908534279,122.8519520066508 L 297.611074526068,124.33621498928137 L 294.5482058539183,126.70038717873271 L 291.13225259559204,129.85479629915048 L 287.44728250970286,133.70977007468016 L 283.5773633548641,138.17563622946767 L 279.6065628896891,143.1627224876584 L 275.61894887279146,148.58135657339812 L 271.6985890627846,154.34186621083256 L 271.6985890627846,154.34186621083256 L 271.6985890627846,154.34186621083256 L 271.6985890627846,154.34186621083256 L 271.6985890627846,154.34186621083256 L 271.6985890627846,154.34186621083256 L 271.6985890627846,154.34186621083256 L 271.6985890627846,154.34186621083256 L 271.6985890627846,154.34186621083256 L 271.6985890627846,154.34186621083256 L 271.6985890627846,154.34186621083256 L 290.0842078715445,263.293681373854 L 290.0842078715445,263.293681373854 L 290.0842078715445,263.293681373854 L 290.0842078715445,263.293681373854 L 290.0842078715445,263.293681373854 L 290.0842078715445,263.293681373854 L 290.0842078715445,263.293681373854 L 290.0842078715445,263.293681373854 L 290.0842078715445,263.293681373854 L 290.0842078715445,263.293681373854 L 290.0842078715445,263.293681373854 L 288.1768038372261,274.52046349357585 L 286.1236823546445,286.22362957877374 L 283.9808885962087,298.1229537674032 L 281.8044677343272,309.9382101974191 L 279.6504649414095,321.3891730067768 L 277.57492538986423,332.1956163334315 L 275.6338942521005,342.0773143153382 L 273.8834167005273,350.7540410904523 L 272.3795379075535,357.9455707967288 L 272.3795379075535,357.9455707967288 L 271.5472670972804,361.7286199343337 L 270.71499628700735,365.5116690719387 L 269.88272547673427,369.2947182095436 L 269.0504546664612,373.07776734714844 L 268.21818385618815,376.86081648475346 L 267.38591304591506,380.64386562235825 L 266.553642235642,384.4269147599632 L 265.7213714253689,388.2099638975681 L 264.8891006150958,391.993013035173 L 264.8891006150958,391.993013035173 L 260.425102632722,392.749622862694 L 255.9611046503482,393.506232690215 L 251.49710666797438,394.2628425177359 L 247.03310868560058,395.019452345257 L 242.56911070322684,395.7760621727779 L 238.10511272085307,396.532672000299 L 233.64111473847922,397.2892818278199 L 229.17711675610545,398.0458916553409 L 224.71311877373165,398.8025014828618 L 224.71311877373165,398.8025014828618 L 217.39361925712123,400.03829753447945 L 210.49445853357807,401.0218903102568 L 204.13333146516095,401.75327981019365 L 198.42793291392866,402.23246603429027 L 193.49595774194,402.4594489825467 L 189.45510081125389,402.43422865496257 L 186.42305698392903,402.15680505153824 L 184.51752112202436,401.62717817227355 L 183.8561880875986,400.84534801716853 L 183.8561880875986,400.84534801716853 L 186.8639456735462,392.49648550064694 L 195.00544105215474,373.4485995712544 L 206.95800815457264,346.57120305633003 L 221.3989809119484,314.73380878321257 L 237.00569325543063,280.80592957924085 L 252.45547911616765,247.65707827175373 L 266.42567242530816,218.15676768808999 L 277.5936071140006,195.17451065558848 L 284.6366171133934,181.57982000158793 L 284.6366171133934,181.57982000158793 L 285.9228538201791,179.38565150177712 L 287.20909052696476,177.19148300196625 L 288.49532723375046,174.9973145021554 L 289.7815639405361,172.80314600234453 L 291.06780064732175,170.60897750253372 L 292.3540373541074,168.41480900272282 L 293.64027406089315,166.220640502912 L 294.92651076767874,164.02647200310113 L 296.21274747446444,161.8323035032903 L 296.21274747446444,161.8323035032903 L 296.4397304227207,164.17779396860539 L 296.66671337097705,166.52328443392042 L 296.8936963192333,168.8687748992355 L 297.1206792674896,171.21426536455053 L 297.34766221574597,173.5597558298655 L 297.5746451640022,175.90524629518055 L 297.80162811225847,178.25073676049558 L 298.02861106051483,180.59622722581065 L 298.2555940087711,182.9417176911257 L 298.2555940087711,182.9417176911257 L 298.51340180185224,187.49071751831983 L 298.4013114570344,193.70986348330084 L 297.95295007776275,201.35255682746956 L 297.20194476748264,210.17219879222654 L 296.18192262963953,219.92219061897222 L 294.92651076767874,230.35593354910728 L 293.46933628504576,241.22682882403217 L 291.8440262851859,252.28827768514756 L 290.0842078715445,263.293681373854 L 290.0842078715445,263.293681373854 L 290.0842078715445,263.293681373854 L 290.0842078715445,263.293681373854 L 290.0842078715445,263.293681373854 L 290.0842078715445,263.293681373854 L 290.0842078715445,263.293681373854 L 290.0842078715445,263.293681373854 L 290.0842078715445,263.293681373854 L 290.0842078715445,263.293681373854 L 290.0842078715445,263.293681373854M359.54099003797063 20.875892636131375 L 266.2509983046336,9.299762275060353 L 263.4664873221149,13.358366843676029 L 261.88134302914824,17.7084063088182 L 261.4339157360833,22.18734967050104 L 262.0625557532705,26.632665928738547 L 263.7056133910599,30.881824083544664 L 266.30143895980166,34.7722931349334 L 269.78838276984584,38.14154208291884 L 274.1047951315427,40.82703992751492 L 279.18902635524233,42.66625566873565 L 279.18902635524233,42.66625566873565 L 284.59084688925947,43.114617048007425 L 290.1720119749852,41.91525035845564 L 295.6579002676158,39.33717242764332 L 300.7738904223471,35.64940008313368 L 305.2453610943755,31.12095015248956 L 308.7976909388967,26.020839463274122 L 311.15625861110726,20.618084843050205 L 312.046442766203,15.181703119380884 L 311.1936220593799,9.980711119829236 L 311.1936220593799,9.980711119829236 L 308.5538944389178,6.123869171885982 L 304.50182847374987,3.186168051449372 L 299.3905087500526,1.1788167930017752 L 293.5730198540023,0.1130244310247088 L 287.40244637177574,0.0 L 281.231872889549,0.8509525344093983 L 275.4143839934988,2.677091068734731 L 270.30306426980144,5.489624637457747 L 266.2509983046336,9.299762275060353 L 266.2509983046336,9.299762275060353 L 266.2509983046336,9.299762275060353 L 266.2509983046336,9.299762275060353 L 266.2509983046336,9.299762275060353 L 266.2509983046336,9.299762275060353 L 266.2509983046336,9.299762275060353 L 266.2509983046336,9.299762275060353 L 266.2509983046336,9.299762275060353 L 266.2509983046336,9.299762275060353 L 266.2509983046336,9.299762275060353 L 271.6985890627846,154.34186621083256 L 268.030432528618,160.32842471031663 L 264.3454624427289,165.9675031408649 L 260.72774656373036,171.16382470938242 L 257.2613526502361,175.82211262277394 L 254.03034846085947,179.84709008794422 L 251.11880175421388,183.143480311798 L 248.6107802889129,185.61600650123995 L 246.59035182356982,187.16939186317506 L 245.14158411679816,187.70835960450788 L 245.14158411679816,187.70835960450788 L 243.73391620312637,187.9353425527642 L 242.253389565323,188.16232550102055 L 240.72802678959243,188.38930844927668 L 239.18585046213914,188.61629139753302 L 237.6548831691677,188.84327434578935 L 236.16314749688246,189.07025729404566 L 234.73866603148807,189.297240242302 L 233.40946135918887,189.52422319055822 L 232.20355606618938,189.75120613881455 L 232.20355606618938,189.75120613881455 L 227.2968012217847,197.0006491899138 L 217.61499768813673,216.12045975723098 L 204.58729736167354,243.84880880656473 L 189.64285213882394,276.92386730371345 L 174.21081391601632,312.08380621447554 L 159.72033458967928,346.0667965046494 L 147.60056605624135,375.6110091400335 L 139.28066021213098,397.4546150864263 L 136.18976895377676,408.3357853096262 L 136.18976895377676,408.3357853096262 L 135.74888026415957,409.53888834400533 L 134.4785230228898,410.8484772059614 L 132.45716047133993,412.21971575756726 L 129.76325585088247,413.6077678608958 L 126.47527240289007,414.96779737802007 L 122.6716733687352,416.25496817101254 L 118.43092198979045,417.4244441019462 L 113.83148150742835,418.4313890328939 L 108.95181516302141,419.23096682592836 L 108.95181516302141,419.23096682592836 L 99.25693442247785,421.4596965153914 L 91.56847085417515,424.34975923928016 L 85.97609673396761,427.65455623899527 L 82.56948433770954,431.12748875593735 L 81.43830594125534,434.5219580315067 L 82.6722338204593,437.5913653071043 L 86.36094025117578,440.0891118241302 L 92.59409750925913,441.7685988239855 L 101.46137787056368,442.38322754807047 L 101.46137787056368,442.38322754807047 L 107.13221523214378,442.44767949634075 L 111.51961814555868,442.7979618238967 L 114.75249050734895,443.6694642548561 L 116.9597362140552,445.29757651333637 L 118.2702591622181,447.9176883234553 L 118.81296324837818,451.7651894093306 L 118.71675236907615,457.0754694950798 L 118.11053042085254,464.0839183048204 L 117.12320130024801,473.0259255626702 L 117.12320130024801,473.0259255626702 L 116.29373274859535,485.486635561596 L 116.89341609337127,494.7303526642474 L 118.78774292079417,500.76828590510615 L 121.8422048170826,503.6116443186542 L 125.922293368455,503.2716369393731 L 130.89350016112988,499.75947280174483 L 136.62131678132573,493.08636094025127 L 142.9712348152611,483.2635103893739 L 149.80874584915443,470.30213018359467 L 149.80874584915443,470.30213018359467 L 154.22510543498058,460.8529141154437 L 158.1538720208488,453.2195616333432 L 161.91450308949013,447.1498694614526 L 165.82645612363567,442.3916343239318 L 170.20918860601645,438.6926529449403 L 175.38215801936363,435.8007220486379 L 181.6648218464082,433.4636383591842 L 189.37663756988132,431.4291986007389 L 198.83706267251407,429.4451994974616 L 198.83706267251407,429.4451994974616 L 217.40856463643027,425.4314310667732 L 231.69821542830192,422.7571422566588 L 242.21602611705038,421.8538808946678 L 249.47200777159728,423.15319480834887 L 253.97617146086415,427.0866318252511 L 256.23852825377253,434.08573977292366 L 256.76908921924405,444.5820664789154 L 256.0778654262002,459.0071597707753 L 254.67486794356253,477.79256747605234 L 254.67486794356253,477.79256747605234 L 253.9173240298347,489.45556785435735 L 253.45681952987442,500.7822971982084 L 253.28774992644074,511.6886877489924 L 253.4045107022927,522.0906717480956 L 253.8014973401896,531.9041814369048 L 254.47310532289023,541.0451490568065 L 255.413730133154,549.4295068491871 L 256.6177672537399,556.9731870554334 L 258.07961216740694,563.5921219169318 L 258.07961216740694,563.5921219169318 L 260.4082890809993,571.5673499507269 L 262.53520337391944,577.9116634674214 L 264.66211766683955,582.8100115359646 L 266.99079458043184,586.4473432253062 L 269.7229967353688,589.0086076043958 L 273.0604867523224,590.678753742183 L 277.2050272519651,591.642730707617 L 282.3583808549691,592.0854875696479 L 288.7223101820067,592.1919733972248 L 288.7223101820067,592.1919733972248 L 297.49711600883643,591.4036046386722 L 305.907628215008,589.2141065698953 L 313.63999383503113,585.8868915012166 L 320.3803599034155,581.6853717429582 L 325.8148734546711,576.872959605442 L 329.6296815233078,571.7130673989903 L 331.51093114383525,566.469107433925 L 331.14476935076334,561.4044920205686 L 328.217343178602,556.7826334692429 L 328.217343178602,556.7826334692429 L 326.19224428222475,555.0181446245674 L 324.1727499030886,553.8141075039816 L 322.1140239032661,553.1761266247262 L 319.97123014483014,553.1098065040422 L 317.69953248985354,553.6207516591707 L 315.2540948004091,554.7145666073521 L 312.5900809385698,556.3968558658279 L 309.66265476640837,558.6732239518385 L 306.4269801459977,561.5492753826251 L 306.4269801459977,561.5492753826251 L 300.11255738792124,566.4728437787523 L 294.75090256079733,568.9080065199217 L 290.28597049221673,568.7370687440745 L 286.66171600977054,565.8423355891515 L 283.82209394104984,560.1061121930943 L 281.71105911364566,551.4107036938439 L 280.2725663551489,539.6384152293416 L 279.45057049315085,524.6715519375283 L 279.18902635524233,506.3924189563455 L 279.18902635524233,506.3924189563455 L 279.39919575177595,485.37174295815765 L 280.0633310448221,467.5568508217623 L 281.231872889549,452.72356185752386 L 282.9552619411246,440.64769537580617 L 285.28393885471695,431.10507068697365 L 288.2683442854941,423.87150710139036 L 291.9589188886243,418.7228239294205 L 296.40610331927536,415.43484048142795 L 301.6603382326155,413.7833760677773 L 301.6603382326155,413.7833760677773 L 307.4516727148748,412.4055989127237 L 312.0772676110278,410.2263757922219 L 315.4810777486654,407.4530738441851 L 317.6070579553787,404.29306020652643 L 318.39916305875875,400.9537020171592 L 317.80134788639646,397.64236641399634 L 315.757567265883,394.56642053495125 L 312.21177602480935,391.9332315179368 L 307.1079289907666,389.9501665008664 L 307.1079289907666,389.9501665008664 L 304.46539911168395,389.2467995871339 L 302.0078183015511,388.50980556995603 L 299.7688136638131,387.75599800105556 L 297.7820123019154,387.00219043215503 L 296.0810413193034,386.26519641497714 L 294.6995278194224,385.56182950124474 L 293.671098905718,384.9089032426803 L 293.02938168163536,384.32323119100664 L 292.80800325062,383.8216268979464 L 292.80800325062,383.8216268979464 L 292.9555888712969,382.81374788079194 L 293.3834003540187,380.34869438100435 L 294.06901962982175,376.5833928813291 L 294.99002862974226,371.6747698645108 L 296.1240092848169,365.77975181329487 L 297.448543526082,359.0552652104262 L 298.941213284574,351.6582365386502 L 300.57960049132936,343.7455922807116 L 302.3412870773844,335.4742589193557 L 302.3412870773844,335.4742589193557 L 310.2100292836026,295.1656368366237 L 316.1115859382663,258.04598506396155 L 320.0459570413754,224.53003787719564 L 322.01314259292997,195.03252955215234 L 322.01314259292997,169.96819436465788 L 320.0459570413754,149.7517665905387 L 316.1115859382663,134.79798050562087 L 310.2100292836026,125.52157038573093 L 302.3412870773844,122.33727050669505 L 302.3412870773844,122.33727050669505 L 300.2367908534279,122.8519520066508 L 297.611074526068,124.33621498928137 L 294.5482058539183,126.70038717873271 L 291.13225259559204,129.85479629915048 L 287.44728250970286,133.70977007468016 L 283.5773633548641,138.17563622946767 L 279.6065628896891,143.1627224876584 L 275.61894887279146,148.58135657339812 L 271.6985890627846,154.34186621083256 L 271.6985890627846,154.34186621083256 L 271.6985890627846,154.34186621083256 L 271.6985890627846,154.34186621083256 L 271.6985890627846,154.34186621083256 L 271.6985890627846,154.34186621083256 L 271.6985890627846,154.34186621083256 L 271.6985890627846,154.34186621083256 L 271.6985890627846,154.34186621083256 L 271.6985890627846,154.34186621083256 L 271.6985890627846,154.34186621083256 L 290.0842078715445,263.293681373854 L 290.0842078715445,263.293681373854 L 290.0842078715445,263.293681373854 L 290.0842078715445,263.293681373854 L 290.0842078715445,263.293681373854 L 290.0842078715445,263.293681373854 L 290.0842078715445,263.293681373854 L 290.0842078715445,263.293681373854 L 290.0842078715445,263.293681373854 L 290.0842078715445,263.293681373854 L 290.0842078715445,263.293681373854 L 288.1768038372261,274.52046349357585 L 286.1236823546445,286.22362957877374 L 283.9808885962087,298.1229537674032 L 281.8044677343272,309.9382101974191 L 279.6504649414095,321.3891730067768 L 277.57492538986423,332.1956163334315 L 275.6338942521005,342.0773143153382 L 273.8834167005273,350.7540410904523 L 272.3795379075535,357.9455707967288 L 272.3795379075535,357.9455707967288 L 271.5472670972804,361.7286199343337 L 270.71499628700735,365.5116690719387 L 269.88272547673427,369.2947182095436 L 269.0504546664612,373.07776734714844 L 268.21818385618815,376.86081648475346 L 267.38591304591506,380.64386562235825 L 266.553642235642,384.4269147599632 L 265.7213714253689,388.2099638975681 L 264.8891006150958,391.993013035173 L 264.8891006150958,391.993013035173 L 260.425102632722,392.749622862694 L 255.9611046503482,393.506232690215 L 251.49710666797438,394.2628425177359 L 247.03310868560058,395.019452345257 L 242.56911070322684,395.7760621727779 L 238.10511272085307,396.532672000299 L 233.64111473847922,397.2892818278199 L 229.17711675610545,398.0458916553409 L 224.71311877373165,398.8025014828618 L 224.71311877373165,398.8025014828618 L 217.39361925712123,400.03829753447945 L 210.49445853357807,401.0218903102568 L 204.13333146516095,401.75327981019365 L 198.42793291392866,402.23246603429027 L 193.49595774194,402.4594489825467 L 189.45510081125389,402.43422865496257 L 186.42305698392903,402.15680505153824 L 184.51752112202436,401.62717817227355 L 183.8561880875986,400.84534801716853 L 183.8561880875986,400.84534801716853 L 186.8639456735462,392.49648550064694 L 195.00544105215474,373.4485995712544 L 206.95800815457264,346.57120305633003 L 221.3989809119484,314.73380878321257 L 237.00569325543063,280.80592957924085 L 252.45547911616765,247.65707827175373 L 266.42567242530816,218.15676768808999 L 277.5936071140006,195.17451065558848 L 284.6366171133934,181.57982000158793 L 284.6366171133934,181.57982000158793 L 285.9228538201791,179.38565150177712 L 287.20909052696476,177.19148300196625 L 288.49532723375046,174.9973145021554 L 289.7815639405361,172.80314600234453 L 291.06780064732175,170.60897750253372 L 292.3540373541074,168.41480900272282 L 293.64027406089315,166.220640502912 L 294.92651076767874,164.02647200310113 L 296.21274747446444,161.8323035032903 L 296.21274747446444,161.8323035032903 L 296.4397304227207,164.17779396860539 L 296.66671337097705,166.52328443392042 L 296.8936963192333,168.8687748992355 L 297.1206792674896,171.21426536455053 L 297.34766221574597,173.5597558298655 L 297.5746451640022,175.90524629518055 L 297.80162811225847,178.25073676049558 L 298.02861106051483,180.59622722581065 L 298.2555940087711,182.9417176911257 L 298.2555940087711,182.9417176911257 L 298.51340180185224,187.49071751831983 L 298.4013114570344,193.70986348330084 L 297.95295007776275,201.35255682746956 L 297.20194476748264,210.17219879222654 L 296.18192262963953,219.92219061897222 L 294.92651076767874,230.35593354910728 L 293.46933628504576,241.22682882403217 L 291.8440262851859,252.28827768514756 L 290.0842078715445,263.293681373854 L 290.0842078715445,263.293681373854 L 290.0842078715445,263.293681373854 L 290.0842078715445,263.293681373854 L 290.0842078715445,263.293681373854 L 290.0842078715445,263.293681373854 L 290.0842078715445,263.293681373854 L 290.0842078715445,263.293681373854 L 290.0842078715445,263.293681373854 L 290.0842078715445,263.293681373854 L 290.0842078715445,263.293681373854 L 359.54099003797063,20.875892636131375 L 354.34186621083256,24.943838066815307 L 350.53266265943694,30.06543273878742 L 348.0909613148198,35.831546893462686 L 346.9943441080178,41.83305077225571 L 347.2203929700672,47.660814616580986 L 348.74668983200456,52.90570866785296 L 351.55081662486634,57.158603167486305 L 355.6103552796888,60.01036835689568 L 360.9028877275084,61.05187447749552 L 360.9028877275084,61.05187447749552 L 366.6727382270109,60.19531742584532 L 372.86292751958086,57.83114523639384 L 379.1371845707642,54.267606357390726 L 385.159238346107,49.81294923708504 L 390.5928178111558,44.77542232372621 L 395.1016519314568,39.4632740655635 L 398.34946967255604,34.18475291084612 L 400.0,29.248107307823425 L 399.7169718793348,24.961585704744678 L 399.7169718793348,24.961585704744678 L 397.91325141397283,21.66052504985687 L 394.9213732935413,19.032006463876517 L 390.9655182076754,17.092843498526477 L 386.26986684601127,15.859849705529292 L 381.05859989818464,15.349838636607748 L 375.55589805383136,15.579623843484546 L 369.9859420025875,16.566018877882307 L 364.5729124340886,18.325837291523655 L 359.54099003797063,20.875892636131375 L 359.54099003797063,20.875892636131375 L 359.54099003797063,20.875892636131375 L 359.54099003797063,20.875892636131375 L 359.54099003797063,20.875892636131375 L 359.54099003797063,20.875892636131375 L 359.54099003797063,20.875892636131375 L 359.54099003797063,20.875892636131375 L 359.54099003797063,20.875892636131375 L 359.54099003797063,20.875892636131375 L 359.54099003797063,20.875892636131375"/></svg>
