<?xml version="1.0" encoding="utf-8"?>
<svg xmlns="http://www.w3.org/2000/svg"  viewBox="0,0,400,496.77753476487436" width="100%">
<path d="M249.61372361871423 28.751802979785197 L 249.61372361871423,28.751802979785197 L 249.93216087929773,32.67748383203292 L 250.86692832165588,36.12037270855705 L 252.38720943669998,39.059925269965404 L 254.46218771534112,41.47559717686536 L 257.0610466484907,43.34684408986435 L 260.1529697270599,44.65312166956998 L 263.7071404419602,45.3738855765897 L 267.69274228410256,45.4885914715311 L 272.0789587443985,44.976695015001624 L 272.0789587443985,44.976695015001624 L 279.75911762062316,42.713393625262796 L 285.35402604851043,39.44341960529176 L 288.90477270684516,35.45439370658395 L 290.4524462744125,31.03393668063392 L 290.03813542999734,26.469669278936397 L 287.70292885238473,22.049212252986447 L 283.48791522035947,18.060186354278564 L 277.4341832127067,14.790212334307814 L 269.58282150821134,12.526910944568773 L 269.58282150821134,12.526910944568773 L 265.61091589233047,12.015014488039439 L 262.029352724907,12.129720382980693 L 258.85867634533327,12.850484290000413 L 256.11943109300165,14.156761869706044 L 253.83216130730486,16.028008782705108 L 252.01741132763516,18.44368068960499 L 250.69572549338517,21.3832332510132 L 249.8876481439474,24.826122127537545 L 249.61372361871423,28.751802979785197 L 249.61372361871423,28.751802979785197 L 249.61372361871423,28.751802979785197 L 249.61372361871423,28.751802979785197 L 249.61372361871423,28.751802979785197 L 249.61372361871423,28.751802979785197 L 249.61372361871423,28.751802979785197 L 249.61372361871423,28.751802979785197 L 249.61372361871423,28.751802979785197 L 249.61372361871423,28.751802979785197 L 249.61372361871423,28.751802979785197"/></svg>
