<?xml version="1.0" encoding="utf-8"?>
<svg xmlns="http://www.w3.org/2000/svg"  viewBox="0,0,400,496.77753476487436" width="100%">
<path d="M249.61372361871423 28.751802979785197 L 249.61372361871423,28.751802979785197 L 249.93216087929773,32.67748383203292 L 250.86692832165588,36.12037270855705 L 252.38720943669998,39.059925269965404 L 254.46218771534112,41.47559717686536 L 257.0610466484907,43.34684408986435 L 260.1529697270599,44.65312166956998 L 263.7071404419602,45.3738855765897 L 267.69274228410256,45.4885914715311 L 272.0789587443985,44.976695015001624 L 272.0789587443985,44.976695015001624 L 279.75911762062316,42.713393625262796 L 285.35402604851043,39.44341960529176 L 288.90477270684516,35.45439370658395 L 290.4524462744125,31.03393668063392 L 290.03813542999734,26.469669278936397 L 287.70292885238473,22.049212252986447 L 283.48791522035947,18.060186354278564 L 277.4341832127067,14.790212334307814 L 269.58282150821134,12.526910944568773 L 269.58282150821134,12.526910944568773 L 265.61091589233047,12.015014488039439 L 262.029352724907,12.129720382980693 L 258.85867634533327,12.850484290000413 L 256.11943109300165,14.156761869706044 L 253.83216130730486,16.028008782705108 L 252.01741132763516,18.44368068960499 L 250.69572549338517,21.3832332510132 L 249.8876481439474,24.826122127537545 L 249.61372361871423,28.751802979785197 L 249.61372361871423,28.751802979785197 L 249.61372361871423,28.751802979785197 L 249.61372361871423,28.751802979785197 L 249.61372361871423,28.751802979785197 L 249.61372361871423,28.751802979785197 L 249.61372361871423,28.751802979785197 L 249.61372361871423,28.751802979785197 L 249.61372361871423,28.751802979785197 L 249.61372361871423,28.751802979785197 L 249.61372361871423,28.751802979785197M253.35792947299493 106.1320573015866 L 249.61372361871423,28.751802979785197 L 249.93216087929773,32.67748383203292 L 250.86692832165588,36.12037270855705 L 252.38720943669998,39.059925269965404 L 254.46218771534112,41.47559717686536 L 257.0610466484907,43.34684408986435 L 260.1529697270599,44.65312166956998 L 263.7071404419602,45.3738855765897 L 267.69274228410256,45.4885914715311 L 272.0789587443985,44.976695015001624 L 272.0789587443985,44.976695015001624 L 279.75911762062316,42.713393625262796 L 285.35402604851043,39.44341960529176 L 288.90477270684516,35.45439370658395 L 290.4524462744125,31.03393668063392 L 290.03813542999734,26.469669278936397 L 287.70292885238473,22.049212252986447 L 283.48791522035947,18.060186354278564 L 277.4341832127067,14.790212334307814 L 269.58282150821134,12.526910944568773 L 269.58282150821134,12.526910944568773 L 265.61091589233047,12.015014488039439 L 262.029352724907,12.129720382980693 L 258.85867634533327,12.850484290000413 L 256.11943109300165,14.156761869706044 L 253.83216130730486,16.028008782705108 L 252.01741132763516,18.44368068960499 L 250.69572549338517,21.3832332510132 L 249.8876481439474,24.826122127537545 L 249.61372361871423,28.751802979785197 L 249.61372361871423,28.751802979785197 L 249.61372361871423,28.751802979785197 L 249.61372361871423,28.751802979785197 L 249.61372361871423,28.751802979785197 L 249.61372361871423,28.751802979785197 L 249.61372361871423,28.751802979785197 L 249.61372361871423,28.751802979785197 L 249.61372361871423,28.751802979785197 L 249.61372361871423,28.751802979785197 L 249.61372361871423,28.751802979785197 L 253.35792947299493,106.1320573015866 L 249.60173942073524,108.30462119234218 L 244.2944517443429,112.97332231928468 L 237.6415098377426,119.86081210061589 L 229.84835709485924,128.68974195453703 L 221.12043690961778,139.18276329924967 L 211.66319267594304,151.06252755295515 L 201.6820677877599,164.0516861338549 L 191.38250563899317,177.87289046015036 L 180.9699496235678,192.248791950043 L 180.9699496235678,192.248791950043 L 165.8955405943306,214.43496646564606 L 153.74869992852285,233.28268582996992 L 144.22126253525715,249.61372361871415 L 137.00506332364614,264.24985340757826 L 131.79193720280261,278.0128487722617 L 128.27371908183923,291.72448328846394 L 126.14224386986874,306.2065305318844 L 125.08934647600381,322.28076407822255 L 124.80686180935712,340.768957503178 L 124.80686180935712,340.768957503178 L 125.53789788607308,361.8286174087597 L 127.69676555056691,380.83384337509256 L 131.23210395435737,397.6716415355181 L 136.0925522489632,412.22901802337776 L 142.22674958590318,424.3929789720127 L 149.58333511669613,434.0505305147642 L 158.11094799286084,441.0886787849735 L 167.7582273659161,445.39442991598224 L 178.47381238738066,446.85479004113154 L 178.47381238738066,446.85479004113154 L 191.76942403088495,444.34495657868274 L 207.92069884994504,437.9625151407502 L 226.27021798400116,428.179985533361 L 246.16056257249375,415.46988756254257 L 266.9343137548633,400.3047410343219 L 287.9340526705501,383.1570657547263 L 308.50236045899476,364.4993815297829 L 327.98181825963763,344.8042081655189 L 345.7150072119192,324.54406546796156 L 345.7150072119192,324.54406546796156 L 368.135729602253,294.14186722364656 L 384.649954417247,265.3934883004267 L 395.26795382659725,238.381106055872 L 400.0,213.18689784755244 L 398.85636510715165,189.89304103303783 L 391.8473213177482,168.5817129698983 L 378.98314080148606,149.3350910157036 L 360.27409572806147,132.23535252802384 L 335.7304582671706,117.36467486442875 L 335.7304582671706,117.36467486442875 L 322.9210626559551,111.35031950727839 L 311.74494202644235,106.59944102276573 L 301.8939312877449,103.08122290180224 L 293.0598653489756,100.76484863529939 L 284.9345791192471,99.61950171416827 L 277.209907507672,99.61436562932018 L 269.5776854233632,100.71862387166638 L 261.7297477754333,102.9014599321181 L 253.35792947299493,106.1320573015866 L 253.35792947299493,106.1320573015866 L 253.35792947299493,106.1320573015866 L 253.35792947299493,106.1320573015866 L 253.35792947299493,106.1320573015866 L 253.35792947299493,106.1320573015866 L 253.35792947299493,106.1320573015866 L 253.35792947299493,106.1320573015866 L 253.35792947299493,106.1320573015866 L 253.35792947299493,106.1320573015866 L 253.35792947299493,106.1320573015866 L 349.4592130661999,178.52003715101372 L 349.4592130661999,178.52003715101372 L 349.4592130661999,178.52003715101372 L 349.4592130661999,178.52003715101372 L 349.4592130661999,178.52003715101372 L 349.4592130661999,178.52003715101372 L 349.4592130661999,178.52003715101372 L 349.4592130661999,178.52003715101372 L 349.4592130661999,178.52003715101372 L 349.4592130661999,178.52003715101372 L 349.4592130661999,178.52003715101372 L 351.7670271912891,182.24883475075012 L 353.68449886792126,186.71722856861595 L 355.1910837567038,191.83276907734512 L 356.2662375182438,197.5030067496715 L 356.88941581314924,203.63549205832882 L 357.04007430202745,210.1377754760509 L 356.6976686454861,216.91740747557145 L 355.84165450413246,223.88193852962448 L 354.4514875385742,230.93891911094371 L 354.4514875385742,230.93891911094371 L 346.8226895108306,248.46495264101765 L 332.5272533502254,270.0074045223227 L 313.21899837785327,293.9432719428525 L 290.55174391480955,318.64955209060054 L 266.17930928218937,342.5032421535604 L 241.755513801088,363.8813393197256 L 218.93417679260065,381.1608407770896 L 199.3691175778224,392.7187437136462 L 184.71415547784852,396.9320453173887 L 184.71415547784852,396.9320453173887 L 177.99444446822258,396.70434555578873 L 172.74365372515962,395.8500434427178 L 168.85906155169687,394.1123347357699 L 166.23794625087208,391.234415192539 L 164.77758612572282,386.95948057061906 L 164.3752594792866,381.030726627604 L 164.92824461460106,373.19134912108746 L 166.3338198347037,363.1845438086637 L 168.4892634426321,350.75350644792655 L 168.4892634426321,350.75350644792655 L 176.77890438750046,317.0402455048558 L 188.67407689575035,283.9741312526483 L 203.43518474925213,252.57210849123226 L 220.3226317298762,223.85112202053577 L 238.59682161949323,198.82811664048685 L 257.51815819997347,178.52003715101372 L 276.3470452531876,163.9438283520444 L 294.343886561006,156.11643504350695 L 310.7690859052992,156.05480202532945 L 310.7690859052992,156.05480202532945 L 315.4651794847651,157.52372229189234 L 320.325627779371,159.39325717660853 L 325.2374369224581,161.60177366130083 L 330.0876130473676,164.08763872779176 L 334.76316228744105,166.7892193579038 L 339.1510907760196,169.64488253345948 L 343.1384046464449,172.59299523628133 L 346.6121100320578,175.57192444819188 L 349.4592130661999,178.52003715101372 L 349.4592130661999,178.52003715101372 L 349.4592130661999,178.52003715101372 L 349.4592130661999,178.52003715101372 L 349.4592130661999,178.52003715101372 L 349.4592130661999,178.52003715101372 L 349.4592130661999,178.52003715101372 L 349.4592130661999,178.52003715101372 L 349.4592130661999,178.52003715101372 L 349.4592130661999,178.52003715101372 L 349.4592130661999,178.52003715101372M345.7150072119192 5.038499236007345 L 249.61372361871423,28.751802979785197 L 249.93216087929773,32.67748383203292 L 250.86692832165588,36.12037270855705 L 252.38720943669998,39.059925269965404 L 254.46218771534112,41.47559717686536 L 257.0610466484907,43.34684408986435 L 260.1529697270599,44.65312166956998 L 263.7071404419602,45.3738855765897 L 267.69274228410256,45.4885914715311 L 272.0789587443985,44.976695015001624 L 272.0789587443985,44.976695015001624 L 279.75911762062316,42.713393625262796 L 285.35402604851043,39.44341960529176 L 288.90477270684516,35.45439370658395 L 290.4524462744125,31.03393668063392 L 290.03813542999734,26.469669278936397 L 287.70292885238473,22.049212252986447 L 283.48791522035947,18.060186354278564 L 277.4341832127067,14.790212334307814 L 269.58282150821134,12.526910944568773 L 269.58282150821134,12.526910944568773 L 265.61091589233047,12.015014488039439 L 262.029352724907,12.129720382980693 L 258.85867634533327,12.850484290000413 L 256.11943109300165,14.156761869706044 L 253.83216130730486,16.028008782705108 L 252.01741132763516,18.44368068960499 L 250.69572549338517,21.3832332510132 L 249.8876481439474,24.826122127537545 L 249.61372361871423,28.751802979785197 L 249.61372361871423,28.751802979785197 L 249.61372361871423,28.751802979785197 L 249.61372361871423,28.751802979785197 L 249.61372361871423,28.751802979785197 L 249.61372361871423,28.751802979785197 L 249.61372361871423,28.751802979785197 L 249.61372361871423,28.751802979785197 L 249.61372361871423,28.751802979785197 L 249.61372361871423,28.751802979785197 L 249.61372361871423,28.751802979785197 L 253.35792947299493,106.1320573015866 L 249.60173942073524,108.30462119234218 L 244.2944517443429,112.97332231928468 L 237.6415098377426,119.86081210061589 L 229.84835709485924,128.68974195453703 L 221.12043690961778,139.18276329924967 L 211.66319267594304,151.06252755295515 L 201.6820677877599,164.0516861338549 L 191.38250563899317,177.87289046015036 L 180.9699496235678,192.248791950043 L 180.9699496235678,192.248791950043 L 165.8955405943306,214.43496646564606 L 153.74869992852285,233.28268582996992 L 144.22126253525715,249.61372361871415 L 137.00506332364614,264.24985340757826 L 131.79193720280261,278.0128487722617 L 128.27371908183923,291.72448328846394 L 126.14224386986874,306.2065305318844 L 125.08934647600381,322.28076407822255 L 124.80686180935712,340.768957503178 L 124.80686180935712,340.768957503178 L 125.53789788607308,361.8286174087597 L 127.69676555056691,380.83384337509256 L 131.23210395435737,397.6716415355181 L 136.0925522489632,412.22901802337776 L 142.22674958590318,424.3929789720127 L 149.58333511669613,434.0505305147642 L 158.11094799286084,441.0886787849735 L 167.7582273659161,445.39442991598224 L 178.47381238738066,446.85479004113154 L 178.47381238738066,446.85479004113154 L 191.76942403088495,444.34495657868274 L 207.92069884994504,437.9625151407502 L 226.27021798400116,428.179985533361 L 246.16056257249375,415.46988756254257 L 266.9343137548633,400.3047410343219 L 287.9340526705501,383.1570657547263 L 308.50236045899476,364.4993815297829 L 327.98181825963763,344.8042081655189 L 345.7150072119192,324.54406546796156 L 345.7150072119192,324.54406546796156 L 368.135729602253,294.14186722364656 L 384.649954417247,265.3934883004267 L 395.26795382659725,238.381106055872 L 400.0,213.18689784755244 L 398.85636510715165,189.89304103303783 L 391.8473213177482,168.5817129698983 L 378.98314080148606,149.3350910157036 L 360.27409572806147,132.23535252802384 L 335.7304582671706,117.36467486442875 L 335.7304582671706,117.36467486442875 L 322.9210626559551,111.35031950727839 L 311.74494202644235,106.59944102276573 L 301.8939312877449,103.08122290180224 L 293.0598653489756,100.76484863529939 L 284.9345791192471,99.61950171416827 L 277.209907507672,99.61436562932018 L 269.5776854233632,100.71862387166638 L 261.7297477754333,102.9014599321181 L 253.35792947299493,106.1320573015866 L 253.35792947299493,106.1320573015866 L 253.35792947299493,106.1320573015866 L 253.35792947299493,106.1320573015866 L 253.35792947299493,106.1320573015866 L 253.35792947299493,106.1320573015866 L 253.35792947299493,106.1320573015866 L 253.35792947299493,106.1320573015866 L 253.35792947299493,106.1320573015866 L 253.35792947299493,106.1320573015866 L 253.35792947299493,106.1320573015866 L 349.4592130661999,178.52003715101372 L 349.4592130661999,178.52003715101372 L 349.4592130661999,178.52003715101372 L 349.4592130661999,178.52003715101372 L 349.4592130661999,178.52003715101372 L 349.4592130661999,178.52003715101372 L 349.4592130661999,178.52003715101372 L 349.4592130661999,178.52003715101372 L 349.4592130661999,178.52003715101372 L 349.4592130661999,178.52003715101372 L 349.4592130661999,178.52003715101372 L 351.7670271912891,182.24883475075012 L 353.68449886792126,186.71722856861595 L 355.1910837567038,191.83276907734512 L 356.2662375182438,197.5030067496715 L 356.88941581314924,203.63549205832882 L 357.04007430202745,210.1377754760509 L 356.6976686454861,216.91740747557145 L 355.84165450413246,223.88193852962448 L 354.4514875385742,230.93891911094371 L 354.4514875385742,230.93891911094371 L 346.8226895108306,248.46495264101765 L 332.5272533502254,270.0074045223227 L 313.21899837785327,293.9432719428525 L 290.55174391480955,318.64955209060054 L 266.17930928218937,342.5032421535604 L 241.755513801088,363.8813393197256 L 218.93417679260065,381.1608407770896 L 199.3691175778224,392.7187437136462 L 184.71415547784852,396.9320453173887 L 184.71415547784852,396.9320453173887 L 177.99444446822258,396.70434555578873 L 172.74365372515962,395.8500434427178 L 168.85906155169687,394.1123347357699 L 166.23794625087208,391.234415192539 L 164.77758612572282,386.95948057061906 L 164.3752594792866,381.030726627604 L 164.92824461460106,373.19134912108746 L 166.3338198347037,363.1845438086637 L 168.4892634426321,350.75350644792655 L 168.4892634426321,350.75350644792655 L 176.77890438750046,317.0402455048558 L 188.67407689575035,283.9741312526483 L 203.43518474925213,252.57210849123226 L 220.3226317298762,223.85112202053577 L 238.59682161949323,198.82811664048685 L 257.51815819997347,178.52003715101372 L 276.3470452531876,163.9438283520444 L 294.343886561006,156.11643504350695 L 310.7690859052992,156.05480202532945 L 310.7690859052992,156.05480202532945 L 315.4651794847651,157.52372229189234 L 320.325627779371,159.39325717660853 L 325.2374369224581,161.60177366130083 L 330.0876130473676,164.08763872779176 L 334.76316228744105,166.7892193579038 L 339.1510907760196,169.64488253345948 L 343.1384046464449,172.59299523628133 L 346.6121100320578,175.57192444819188 L 349.4592130661999,178.52003715101372 L 349.4592130661999,178.52003715101372 L 349.4592130661999,178.52003715101372 L 349.4592130661999,178.52003715101372 L 349.4592130661999,178.52003715101372 L 349.4592130661999,178.52003715101372 L 349.4592130661999,178.52003715101372 L 349.4592130661999,178.52003715101372 L 349.4592130661999,178.52003715101372 L 349.4592130661999,178.52003715101372 L 349.4592130661999,178.52003715101372 L 345.7150072119192,5.038499236007345 L 340.89051151125017,11.424364730505424 L 337.99718371347507,17.94376843105444 L 336.93230212163115,24.360450434641134 L 337.59314503875606,30.438150838251808 L 339.87699076788755,35.940609738872844 L 343.68111761206296,40.631567233490685 L 348.90280387432006,44.27476341909173 L 355.4393278576962,46.63393839266227 L 363.1879678652292,47.47283225118877 L 363.1879678652292,47.47283225118877 L 368.5996892668667,47.23828437645793 L 373.1999092625011,46.520944526003525 L 377.0091721915247,45.30026836043333 L 380.04802239333003,43.555711540354594 L 382.3370042073096,41.26672972637504 L 383.8966619728559,38.412778579102124 L 384.74754002936135,34.973313759143295 L 384.91018271621846,30.927790927106148 L 384.4051343728199,26.255665743598055 L 384.4051343728199,26.255665743598055 L 382.544159629517,19.20039719056163 L 379.5943348984125,13.079896079883206 L 375.76110357343117,7.996884108525382 L 371.2499090484976,4.05408297345063 L 366.2661947175368,1.3542143716213464 L 361.01540397447366,0.0 L 355.7029802132332,0.09416155554891745 L 350.53436682774,1.739420735230567 L 345.7150072119192,5.038499236007345 L 345.7150072119192,5.038499236007345 L 345.7150072119192,5.038499236007345 L 345.7150072119192,5.038499236007345 L 345.7150072119192,5.038499236007345 L 345.7150072119192,5.038499236007345 L 345.7150072119192,5.038499236007345 L 345.7150072119192,5.038499236007345 L 345.7150072119192,5.038499236007345 L 345.7150072119192,5.038499236007345 L 345.7150072119192,5.038499236007345"/></svg>
