<?xml version="1.0" encoding="utf-8"?>
<svg xmlns="http://www.w3.org/2000/svg"  viewBox="0,0,400,671.7014217353385" width="100%">
<path d="M125.14039694149241 20.433119373162885 L 125.14039694149241,20.433119373162885 L 123.26505373615062,28.381178272967812 L 123.79295546521337,35.97484160640868 L 126.53582948404988,43.05906131320162 L 131.30540314802934,49.478789333062664 L 137.91340381252104,55.07897760570726 L 146.17155883289414,59.70457807085143 L 155.89159556451796,63.20054266821103 L 166.88524136276166,65.41182333750191 L 178.96422358299452,66.18337201843968 L 178.96422358299452,66.18337201843968 L 187.78165910653547,64.50737631917768 L 194.4837960933426,59.951916643209536 L 199.048484820518,53.22578412326319 L 201.453575565164,45.03776989206623 L 201.67691860438285,36.096665082346234 L 199.6963642152768,27.11126082683078 L 195.48976267494817,18.79034825824744 L 189.03496426049915,11.842718509323724 L 180.30981924903207,6.977162712787357 L 180.30981924903207,6.977162712787357 L 169.8680707129903,3.495964597359818 L 160.86605416530153,1.1554772111653164 L 153.14872154568147,0.0 L 146.56102479384606,0.07383240965917524 L 140.94791584951108,1.4212738859381482 L 136.15434665239238,4.086623874632608 L 132.02526914220581,8.11418182153786 L 128.40563525866722,13.548247172449518 L 125.14039694149241,20.433119373162885 L 125.14039694149241,20.433119373162885 L 125.14039694149241,20.433119373162885 L 125.14039694149241,20.433119373162885 L 125.14039694149241,20.433119373162885 L 125.14039694149241,20.433119373162885 L 125.14039694149241,20.433119373162885 L 125.14039694149241,20.433119373162885 L 125.14039694149241,20.433119373162885 L 125.14039694149241,20.433119373162885 L 125.14039694149241,20.433119373162885M185.6922019131823 183.25019496370678 L 125.14039694149241,20.433119373162885 L 123.26505373615062,28.381178272967812 L 123.79295546521337,35.97484160640868 L 126.53582948404988,43.05906131320162 L 131.30540314802934,49.478789333062664 L 137.91340381252104,55.07897760570726 L 146.17155883289414,59.70457807085143 L 155.89159556451796,63.20054266821103 L 166.88524136276166,65.41182333750191 L 178.96422358299452,66.18337201843968 L 178.96422358299452,66.18337201843968 L 187.78165910653547,64.50737631917768 L 194.4837960933426,59.951916643209536 L 199.048484820518,53.22578412326319 L 201.453575565164,45.03776989206623 L 201.67691860438285,36.096665082346234 L 199.6963642152768,27.11126082683078 L 195.48976267494817,18.79034825824744 L 189.03496426049915,11.842718509323724 L 180.30981924903207,6.977162712787357 L 180.30981924903207,6.977162712787357 L 169.8680707129903,3.495964597359818 L 160.86605416530153,1.1554772111653164 L 153.14872154568147,0.0 L 146.56102479384606,0.07383240965917524 L 140.94791584951108,1.4212738859381482 L 136.15434665239238,4.086623874632608 L 132.02526914220581,8.11418182153786 L 128.40563525866722,13.548247172449518 L 125.14039694149241,20.433119373162885 L 125.14039694149241,20.433119373162885 L 125.14039694149241,20.433119373162885 L 125.14039694149241,20.433119373162885 L 125.14039694149241,20.433119373162885 L 125.14039694149241,20.433119373162885 L 125.14039694149241,20.433119373162885 L 125.14039694149241,20.433119373162885 L 125.14039694149241,20.433119373162885 L 125.14039694149241,20.433119373162885 L 125.14039694149241,20.433119373162885 L 185.6922019131823,183.25019496370678 L 166.01401892878397,192.53646628858328 L 150.96512803001286,202.12175887257916 L 140.58982866266433,211.50770395049534 L 134.93242027253388,220.19593275713288 L 134.03720230541697,227.68807652729265 L 137.9484742071091,233.48576649577547 L 146.71053542340576,237.09063389738222 L 160.3676854001024,238.00430996691384 L 178.96422358299452,235.72842593917136 L 178.96422358299452,235.72842593917136 L 215.26392779190328,228.15691232862812 L 244.09917538427456,222.5013497487391 L 266.4777787519554,218.78388792240216 L 283.40755028679274,217.0266765725149 L 295.8963023806337,217.25186542197525 L 304.9518474253254,219.48160419368097 L 311.5819978127148,223.73804261052942 L 316.79456593464903,230.04333039541874 L 321.5973641829751,238.41961727124644 L 321.5973641829751,238.41961727124644 L 324.3310091506042,244.16193293248506 L 327.1200284254777,251.36613030497398 L 329.92012256180004,259.79963729828745 L 332.6869921137757,269.2298818219993 L 335.37633763560933,279.4242917856829 L 337.9438596815054,290.1502950989124 L 340.34525880566844,301.17531967126126 L 342.5362355623029,312.26679341230323 L 344.4724905056135,323.1921442316123 L 344.4724905056135,323.1921442316123 L 345.51906491253163,329.6211013026806 L 346.5656393194497,336.0500583737489 L 347.61221372636777,342.4790154448172 L 348.6587881332859,348.9079725158855 L 349.705362540204,355.3369295869539 L 350.7519369471221,361.7658866580221 L 351.7985113540402,368.1948437290905 L 352.8450857609583,374.62380080015873 L 353.8916601678764,381.0527578712271 L 353.8916601678764,381.0527578712271 L 349.2568306515248,377.76352402091305 L 344.6220011351732,374.474290170599 L 339.98717161882166,371.18505632028496 L 335.3523421024701,367.895822469971 L 330.7175125861185,364.606588619657 L 326.082683069767,361.317354769343 L 321.44785355341537,358.02812091902894 L 316.8130240370638,354.7388870687149 L 312.1781945207122,351.4496532184009 L 312.1781945207122,351.4496532184009 L 304.44609541916026,346.03773759038705 L 295.7726330944547,340.6479716852709 L 286.4125293599191,335.40217897899004 L 276.6205060288777,330.42218294748204 L 266.6512849146543,325.8298070666845 L 256.759587830573,321.7468748125349 L 247.20013658995785,318.2952096609708 L 238.22765300613264,315.5966350879298 L 230.09685889242152,313.77297456934946 L 230.09685889242152,313.77297456934946 L 219.52959525995925,312.00099673753044 L 210.04766804948613,311.2589810204562 L 201.34098114043388,311.67982575551326 L 193.099438412234,313.3964292800879 L 185.01294374431833,316.5416899315666 L 176.77140101611852,321.2485060473359 L 168.06471410706618,327.64977596478195 L 158.58278689659306,335.8783980212915 L 148.01552326413082,346.0672705542507 L 148.01552326413082,346.0672705542507 L 133.0681519286409,363.63569243263953 L 121.43216416636287,382.8542686669097 L 113.12970970019427,403.28000479910656 L 108.18293825303287,424.4699063712755 L 106.61399954777647,445.9809789254616 L 108.44504330732276,467.3702280037101 L 113.69821925456952,488.19465914806625 L 122.39567711241445,508.01127790057546 L 134.5595666037553,526.3770898032827 L 134.5595666037553,526.3770898032827 L 147.2199790500537,539.4361972617405 L 163.97809023243363,551.509642051249 L 183.94791123498544,562.3094777741373 L 206.24345314179973,571.5477580327355 L 229.97872703696692,578.9365364293724 L 254.2677440045775,584.1878665663776 L 278.22451512872215,587.0138020460806 L 300.9630514934911,587.1263964708108 L 321.5973641829751,584.2377034428976 L 321.5973641829751,584.2377034428976 L 343.31885910468964,578.2591240707499 L 361.1087782120558,569.7997757340557 L 375.22184331839765,558.2726907760247 L 385.9127762370389,543.0909015398672 L 393.4362987813038,523.6674403687929 L 398.04713276451605,499.41533960601186 L 400.0,469.747631594734 L 399.5496223010793,434.07734867816924 L 396.95072148107806,391.8175231995275 L 396.95072148107806,391.8175231995275 L 389.75021572907184,326.01254228059094 L 379.51519794007567,271.8472407444153 L 365.80267365613474,228.9007738559437 L 348.1696484192942,196.75229688011927 L 326.1731277715994,174.98096508188468 L 299.3701172550956,163.1659337261833 L 267.3176224118279,160.8863580779579 L 229.57264878384174,167.7213934021513 L 185.6922019131823,183.25019496370678 L 185.6922019131823,183.25019496370678 L 185.6922019131823,183.25019496370678 L 185.6922019131823,183.25019496370678 L 185.6922019131823,183.25019496370678 L 185.6922019131823,183.25019496370678 L 185.6922019131823,183.25019496370678 L 185.6922019131823,183.25019496370678 L 185.6922019131823,183.25019496370678 L 185.6922019131823,183.25019496370678 L 185.6922019131823,183.25019496370678 L 291.99425953014895,409.31026685801567 L 291.99425953014895,409.31026685801567 L 291.99425953014895,409.31026685801567 L 291.99425953014895,409.31026685801567 L 291.99425953014895,409.31026685801567 L 291.99425953014895,409.31026685801567 L 291.99425953014895,409.31026685801567 L 291.99425953014895,409.31026685801567 L 291.99425953014895,409.31026685801567 L 291.99425953014895,409.31026685801567 L 291.99425953014895,409.31026685801567 L 302.77194553013965,420.45526909606065 L 311.83302800555583,430.69213269529826 L 319.25503098653945,440.20913030035945 L 325.1154785032324,449.194534555875 L 329.49189458577706,457.8366181064755 L 332.46180326431534,466.323653596792 L 334.10272856898945,474.84391367145497 L 334.4921945299413,483.5856709750954 L 333.7077251773131,492.737198152344 L 333.7077251773131,492.737198152344 L 332.5799351197699,502.230200224266 L 330.8651774054368,510.17272169334626 L 328.3751793896828,516.7087357584203 L 324.9216684278772,521.9822156183233 L 320.31637187538934,526.1371344718907 L 314.37101708758826,529.3174655179574 L 306.8973314198434,531.6671819553591 L 297.7070422275238,533.3302569829308 L 286.61187686599874,534.4506637995081 L 286.61187686599874,534.4506637995081 L 268.6669096983484,534.8512046219089 L 250.20142404260125,532.6713027267233 L 231.79131269409845,528.2210542345194 L 214.01246844818112,521.8105552658659 L 197.44078410019054,513.749901941331 L 182.6521524454678,504.34919038148286 L 170.2224662793541,493.91851670689 L 160.72761839719064,482.76797703812065 L 154.74350159431856,471.20766749574307 L 154.74350159431856,471.20766749574307 L 152.56913712985732,457.19243033219976 L 153.7947551301988,441.7153114574057 L 157.9330616915928,425.606925480026 L 164.49676291028896,409.6978870087262 L 172.99856488253724,394.81881065217095 L 182.95117370458726,381.8003110190257 L 193.86729547268888,371.4730027179556 L 205.25963628309188,364.66750035762584 L 216.640902232046,362.2144185467013 L 216.640902232046,362.2144185467013 L 222.63609389636687,362.98781303788076 L 229.716621982677,365.2120143788618 L 237.67206412344777,368.74304937080944 L 246.29199795115062,373.4369448148883 L 255.36600109825707,379.14972751226304 L 264.6836511972386,385.7374242640986 L 274.0345258805668,393.05606187155934 L 283.20820278071307,400.96166713581016 L 291.99425953014895,409.31026685801567 L 291.99425953014895,409.31026685801567 L 291.99425953014895,409.31026685801567 L 291.99425953014895,409.31026685801567 L 291.99425953014895,409.31026685801567 L 291.99425953014895,409.31026685801567 L 291.99425953014895,409.31026685801567 L 291.99425953014895,409.31026685801567 L 291.99425953014895,409.31026685801567 L 291.99425953014895,409.31026685801567 L 291.99425953014895,409.31026685801567M301.41342919241185 19.087523707125335 L 125.14039694149241,20.433119373162885 L 123.26505373615062,28.381178272967812 L 123.79295546521337,35.97484160640868 L 126.53582948404988,43.05906131320162 L 131.30540314802934,49.478789333062664 L 137.91340381252104,55.07897760570726 L 146.17155883289414,59.70457807085143 L 155.89159556451796,63.20054266821103 L 166.88524136276166,65.41182333750191 L 178.96422358299452,66.18337201843968 L 178.96422358299452,66.18337201843968 L 187.78165910653547,64.50737631917768 L 194.4837960933426,59.951916643209536 L 199.048484820518,53.22578412326319 L 201.453575565164,45.03776989206623 L 201.67691860438285,36.096665082346234 L 199.6963642152768,27.11126082683078 L 195.48976267494817,18.79034825824744 L 189.03496426049915,11.842718509323724 L 180.30981924903207,6.977162712787357 L 180.30981924903207,6.977162712787357 L 169.8680707129903,3.495964597359818 L 160.86605416530153,1.1554772111653164 L 153.14872154568147,0.0 L 146.56102479384606,0.07383240965917524 L 140.94791584951108,1.4212738859381482 L 136.15434665239238,4.086623874632608 L 132.02526914220581,8.11418182153786 L 128.40563525866722,13.548247172449518 L 125.14039694149241,20.433119373162885 L 125.14039694149241,20.433119373162885 L 125.14039694149241,20.433119373162885 L 125.14039694149241,20.433119373162885 L 125.14039694149241,20.433119373162885 L 125.14039694149241,20.433119373162885 L 125.14039694149241,20.433119373162885 L 125.14039694149241,20.433119373162885 L 125.14039694149241,20.433119373162885 L 125.14039694149241,20.433119373162885 L 125.14039694149241,20.433119373162885 L 185.6922019131823,183.25019496370678 L 166.01401892878397,192.53646628858328 L 150.96512803001286,202.12175887257916 L 140.58982866266433,211.50770395049534 L 134.93242027253388,220.19593275713288 L 134.03720230541697,227.68807652729265 L 137.9484742071091,233.48576649577547 L 146.71053542340576,237.09063389738222 L 160.3676854001024,238.00430996691384 L 178.96422358299452,235.72842593917136 L 178.96422358299452,235.72842593917136 L 215.26392779190328,228.15691232862812 L 244.09917538427456,222.5013497487391 L 266.4777787519554,218.78388792240216 L 283.40755028679274,217.0266765725149 L 295.8963023806337,217.25186542197525 L 304.9518474253254,219.48160419368097 L 311.5819978127148,223.73804261052942 L 316.79456593464903,230.04333039541874 L 321.5973641829751,238.41961727124644 L 321.5973641829751,238.41961727124644 L 324.3310091506042,244.16193293248506 L 327.1200284254777,251.36613030497398 L 329.92012256180004,259.79963729828745 L 332.6869921137757,269.2298818219993 L 335.37633763560933,279.4242917856829 L 337.9438596815054,290.1502950989124 L 340.34525880566844,301.17531967126126 L 342.5362355623029,312.26679341230323 L 344.4724905056135,323.1921442316123 L 344.4724905056135,323.1921442316123 L 345.51906491253163,329.6211013026806 L 346.5656393194497,336.0500583737489 L 347.61221372636777,342.4790154448172 L 348.6587881332859,348.9079725158855 L 349.705362540204,355.3369295869539 L 350.7519369471221,361.7658866580221 L 351.7985113540402,368.1948437290905 L 352.8450857609583,374.62380080015873 L 353.8916601678764,381.0527578712271 L 353.8916601678764,381.0527578712271 L 349.2568306515248,377.76352402091305 L 344.6220011351732,374.474290170599 L 339.98717161882166,371.18505632028496 L 335.3523421024701,367.895822469971 L 330.7175125861185,364.606588619657 L 326.082683069767,361.317354769343 L 321.44785355341537,358.02812091902894 L 316.8130240370638,354.7388870687149 L 312.1781945207122,351.4496532184009 L 312.1781945207122,351.4496532184009 L 304.44609541916026,346.03773759038705 L 295.7726330944547,340.6479716852709 L 286.4125293599191,335.40217897899004 L 276.6205060288777,330.42218294748204 L 266.6512849146543,325.8298070666845 L 256.759587830573,321.7468748125349 L 247.20013658995785,318.2952096609708 L 238.22765300613264,315.5966350879298 L 230.09685889242152,313.77297456934946 L 230.09685889242152,313.77297456934946 L 219.52959525995925,312.00099673753044 L 210.04766804948613,311.2589810204562 L 201.34098114043388,311.67982575551326 L 193.099438412234,313.3964292800879 L 185.01294374431833,316.5416899315666 L 176.77140101611852,321.2485060473359 L 168.06471410706618,327.64977596478195 L 158.58278689659306,335.8783980212915 L 148.01552326413082,346.0672705542507 L 148.01552326413082,346.0672705542507 L 133.0681519286409,363.63569243263953 L 121.43216416636287,382.8542686669097 L 113.12970970019427,403.28000479910656 L 108.18293825303287,424.4699063712755 L 106.61399954777647,445.9809789254616 L 108.44504330732276,467.3702280037101 L 113.69821925456952,488.19465914806625 L 122.39567711241445,508.01127790057546 L 134.5595666037553,526.3770898032827 L 134.5595666037553,526.3770898032827 L 147.2199790500537,539.4361972617405 L 163.97809023243363,551.509642051249 L 183.94791123498544,562.3094777741373 L 206.24345314179973,571.5477580327355 L 229.97872703696692,578.9365364293724 L 254.2677440045775,584.1878665663776 L 278.22451512872215,587.0138020460806 L 300.9630514934911,587.1263964708108 L 321.5973641829751,584.2377034428976 L 321.5973641829751,584.2377034428976 L 343.31885910468964,578.2591240707499 L 361.1087782120558,569.7997757340557 L 375.22184331839765,558.2726907760247 L 385.9127762370389,543.0909015398672 L 393.4362987813038,523.6674403687929 L 398.04713276451605,499.41533960601186 L 400.0,469.747631594734 L 399.5496223010793,434.07734867816924 L 396.95072148107806,391.8175231995275 L 396.95072148107806,391.8175231995275 L 389.75021572907184,326.01254228059094 L 379.51519794007567,271.8472407444153 L 365.80267365613474,228.9007738559437 L 348.1696484192942,196.75229688011927 L 326.1731277715994,174.98096508188468 L 299.3701172550956,163.1659337261833 L 267.3176224118279,160.8863580779579 L 229.57264878384174,167.7213934021513 L 185.6922019131823,183.25019496370678 L 185.6922019131823,183.25019496370678 L 185.6922019131823,183.25019496370678 L 185.6922019131823,183.25019496370678 L 185.6922019131823,183.25019496370678 L 185.6922019131823,183.25019496370678 L 185.6922019131823,183.25019496370678 L 185.6922019131823,183.25019496370678 L 185.6922019131823,183.25019496370678 L 185.6922019131823,183.25019496370678 L 185.6922019131823,183.25019496370678 L 291.99425953014895,409.31026685801567 L 291.99425953014895,409.31026685801567 L 291.99425953014895,409.31026685801567 L 291.99425953014895,409.31026685801567 L 291.99425953014895,409.31026685801567 L 291.99425953014895,409.31026685801567 L 291.99425953014895,409.31026685801567 L 291.99425953014895,409.31026685801567 L 291.99425953014895,409.31026685801567 L 291.99425953014895,409.31026685801567 L 291.99425953014895,409.31026685801567 L 302.77194553013965,420.45526909606065 L 311.83302800555583,430.69213269529826 L 319.25503098653945,440.20913030035945 L 325.1154785032324,449.194534555875 L 329.49189458577706,457.8366181064755 L 332.46180326431534,466.323653596792 L 334.10272856898945,474.84391367145497 L 334.4921945299413,483.5856709750954 L 333.7077251773131,492.737198152344 L 333.7077251773131,492.737198152344 L 332.5799351197699,502.230200224266 L 330.8651774054368,510.17272169334626 L 328.3751793896828,516.7087357584203 L 324.9216684278772,521.9822156183233 L 320.31637187538934,526.1371344718907 L 314.37101708758826,529.3174655179574 L 306.8973314198434,531.6671819553591 L 297.7070422275238,533.3302569829308 L 286.61187686599874,534.4506637995081 L 286.61187686599874,534.4506637995081 L 268.6669096983484,534.8512046219089 L 250.20142404260125,532.6713027267233 L 231.79131269409845,528.2210542345194 L 214.01246844818112,521.8105552658659 L 197.44078410019054,513.749901941331 L 182.6521524454678,504.34919038148286 L 170.2224662793541,493.91851670689 L 160.72761839719064,482.76797703812065 L 154.74350159431856,471.20766749574307 L 154.74350159431856,471.20766749574307 L 152.56913712985732,457.19243033219976 L 153.7947551301988,441.7153114574057 L 157.9330616915928,425.606925480026 L 164.49676291028896,409.6978870087262 L 172.99856488253724,394.81881065217095 L 182.95117370458726,381.8003110190257 L 193.86729547268888,371.4730027179556 L 205.25963628309188,364.66750035762584 L 216.640902232046,362.2144185467013 L 216.640902232046,362.2144185467013 L 222.63609389636687,362.98781303788076 L 229.716621982677,365.2120143788618 L 237.67206412344777,368.74304937080944 L 246.29199795115062,373.4369448148883 L 255.36600109825707,379.14972751226304 L 264.6836511972386,385.7374242640986 L 274.0345258805668,393.05606187155934 L 283.20820278071307,400.96166713581016 L 291.99425953014895,409.31026685801567 L 291.99425953014895,409.31026685801567 L 291.99425953014895,409.31026685801567 L 291.99425953014895,409.31026685801567 L 291.99425953014895,409.31026685801567 L 291.99425953014895,409.31026685801567 L 291.99425953014895,409.31026685801567 L 291.99425953014895,409.31026685801567 L 291.99425953014895,409.31026685801567 L 291.99425953014895,409.31026685801567 L 291.99425953014895,409.31026685801567 L 301.41342919241185,19.087523707125335 L 299.4384122340301,26.727332296603386 L 299.66729270397354,34.25639227159249 L 301.91179795761093,41.46428126456448 L 305.98365535031166,48.14057690799095 L 311.69459223744497,54.07485683434321 L 318.8563359743801,59.05669867609264 L 327.28061391648623,62.87568006571091 L 336.7791534191327,65.32137863566942 L 347.1636818376886,66.18337201843968 L 347.1636818376886,66.18337201843968 L 354.67428371026307,64.14559751184795 L 359.4050953591715,58.65246623320893 L 361.5665391519425,50.634266544227906 L 361.36903745610425,41.02128680660988 L 359.0230126391856,30.743815382059584 L 354.73888706871486,20.732140632282427 L 348.72708311222055,11.916550918982821 L 341.1980231372313,5.227334603866105 L 332.36212951127555,1.594780048637145 L 332.36212951127555,1.594780048637145 L 328.24412686253777,1.0871822322307072 L 324.0375253222092,1.3216001328983267 L 319.85307350477837,2.2426594433959472 L 315.8015200247338,3.794985856479053 L 311.9936134965644,5.9232050649033585 L 308.54010253475883,8.571942761424502 L 305.5517357538058,11.685824638798044 L 303.1392617681939,15.209476389779775 L 301.41342919241185,19.087523707125335 L 301.41342919241185,19.087523707125335 L 301.41342919241185,19.087523707125335 L 301.41342919241185,19.087523707125335 L 301.41342919241185,19.087523707125335 L 301.41342919241185,19.087523707125335 L 301.41342919241185,19.087523707125335 L 301.41342919241185,19.087523707125335 L 301.41342919241185,19.087523707125335 L 301.41342919241185,19.087523707125335 L 301.41342919241185,19.087523707125335"/></svg>
