<?xml version="1.0" encoding="utf-8"?>
<svg xmlns="http://www.w3.org/2000/svg"  viewBox="0,0,400,623.661178283499" width="100%">
<path d="M122.86861990505349 26.870738744667747 L 122.86861990505349,26.870738744667747 L 120.05313150850941,34.15184214644891 L 119.24090965637075,42.38642337465332 L 120.1815460305867,51.05440361486871 L 122.62463231310667,59.63570405268208 L 126.31976018588,67.61024587368016 L 131.01652133085597,74.4579502634504 L 136.46450742998397,79.65873840757959 L 142.41331016521326,82.69253149165502 L 148.61252121849327,83.03925070126364 L 148.61252121849327,83.03925070126364 L 158.2420051927622,79.99582652803247 L 166.70612737918,75.07433996942125 L 173.79300381631907,68.73708330490813 L 179.290750542752,61.44634881397141 L 182.9874835970513,53.66442877608917 L 184.67131901778936,45.85361547073951 L 184.1303728435389,38.476201177400704 L 181.15276111287233,31.994478175550682 L 175.52659986436214,26.870738744667747 L 175.52659986436214,26.870738744667747 L 167.86506844092722,22.36338901975587 L 160.52136295963368,18.982876726071698 L 153.55326995541606,16.729201863615625 L 147.0185759632092,15.602364432387656 L 140.97506751794793,15.602364432387656 L 135.4805311545669,16.72920186361576 L 130.59275340800102,18.982876726071698 L 126.36952081318493,22.36338901975587 L 122.86861990505349,26.870738744667747 L 122.86861990505349,26.870738744667747 L 122.86861990505349,26.870738744667747 L 122.86861990505349,26.870738744667747 L 122.86861990505349,26.870738744667747 L 122.86861990505349,26.870738744667747 L 122.86861990505349,26.870738744667747 L 122.86861990505349,26.870738744667747 L 122.86861990505349,26.870738744667747 L 122.86861990505349,26.870738744667747 L 122.86861990505349,26.870738744667747"/></svg>
