<?xml version="1.0" encoding="utf-8"?>
<svg xmlns="http://www.w3.org/2000/svg"  viewBox="0,0,400,623.661178283499" width="100%">
<path d="M122.86861990505349 26.870738744667747 L 122.86861990505349,26.870738744667747 L 120.05313150850941,34.15184214644891 L 119.24090965637075,42.38642337465332 L 120.1815460305867,51.05440361486871 L 122.62463231310667,59.63570405268208 L 126.31976018588,67.61024587368016 L 131.01652133085597,74.4579502634504 L 136.46450742998397,79.65873840757959 L 142.41331016521326,82.69253149165502 L 148.61252121849327,83.03925070126364 L 148.61252121849327,83.03925070126364 L 158.2420051927622,79.99582652803247 L 166.70612737918,75.07433996942125 L 173.79300381631907,68.73708330490813 L 179.290750542752,61.44634881397141 L 182.9874835970513,53.66442877608917 L 184.67131901778936,45.85361547073951 L 184.1303728435389,38.476201177400704 L 181.15276111287233,31.994478175550682 L 175.52659986436214,26.870738744667747 L 175.52659986436214,26.870738744667747 L 167.86506844092722,22.36338901975587 L 160.52136295963368,18.982876726071698 L 153.55326995541606,16.729201863615625 L 147.0185759632092,15.602364432387656 L 140.97506751794793,15.602364432387656 L 135.4805311545669,16.72920186361576 L 130.59275340800102,18.982876726071698 L 126.36952081318493,22.36338901975587 L 122.86861990505349,26.870738744667747 L 122.86861990505349,26.870738744667747 L 122.86861990505349,26.870738744667747 L 122.86861990505349,26.870738744667747 L 122.86861990505349,26.870738744667747 L 122.86861990505349,26.870738744667747 L 122.86861990505349,26.870738744667747 L 122.86861990505349,26.870738744667747 L 122.86861990505349,26.870738744667747 L 122.86861990505349,26.870738744667747 L 122.86861990505349,26.870738744667747M180.20730919407845 148.56918131729216 L 122.86861990505349,26.870738744667747 L 120.05313150850941,34.15184214644891 L 119.24090965637075,42.38642337465332 L 120.1815460305867,51.05440361486871 L 122.62463231310667,59.63570405268208 L 126.31976018588,67.61024587368016 L 131.01652133085597,74.4579502634504 L 136.46450742998397,79.65873840757959 L 142.41331016521326,82.69253149165502 L 148.61252121849327,83.03925070126364 L 148.61252121849327,83.03925070126364 L 158.2420051927622,79.99582652803247 L 166.70612737918,75.07433996942125 L 173.79300381631907,68.73708330490813 L 179.290750542752,61.44634881397141 L 182.9874835970513,53.66442877608917 L 184.67131901778936,45.85361547073951 L 184.1303728435389,38.476201177400704 L 181.15276111287233,31.994478175550682 L 175.52659986436214,26.870738744667747 L 175.52659986436214,26.870738744667747 L 167.86506844092722,22.36338901975587 L 160.52136295963368,18.982876726071698 L 153.55326995541606,16.729201863615625 L 147.0185759632092,15.602364432387656 L 140.97506751794793,15.602364432387656 L 135.4805311545669,16.72920186361576 L 130.59275340800102,18.982876726071698 L 126.36952081318493,22.36338901975587 L 122.86861990505349,26.870738744667747 L 122.86861990505349,26.870738744667747 L 122.86861990505349,26.870738744667747 L 122.86861990505349,26.870738744667747 L 122.86861990505349,26.870738744667747 L 122.86861990505349,26.870738744667747 L 122.86861990505349,26.870738744667747 L 122.86861990505349,26.870738744667747 L 122.86861990505349,26.870738744667747 L 122.86861990505349,26.870738744667747 L 122.86861990505349,26.870738744667747 L 180.20730919407845,148.56918131729216 L 163.73814673766913,156.28368373108404 L 150.64949657494392,164.0848659472778 L 140.42127989148972,173.53296440911248 L 132.5334178728937,186.18821555982706 L 126.46583170474288,203.61085584266 L 121.69844257262442,227.36112170085033 L 117.7111716621253,258.9992495776365 L 113.98394015883268,300.0854759162576 L 109.9966692483336,352.18003715995224 L 109.9966692483336,352.18003715995224 L 108.45730016493235,399.4269501952302 L 111.55048496546853,441.94499845501264 L 119.14138840176088,479.51266688871664 L 131.0951752256283,511.90844044575874 L 147.27701018888973,538.9108040755557 L 167.55205804336393,560.2982427275243 L 191.78548354086985,575.8492413510812 L 219.84245143322636,585.3422848956429 L 251.58812647225238,588.5558583106265 L 251.58812647225238,588.5558583106265 L 271.4506426745533,587.4611245099179 L 289.7432913444599,584.1319780250648 L 306.54312119521813,578.5010012319767 L 321.92718094007455,570.5007765065632 L 335.9725192922754,560.0638862247333 L 348.75618496506723,547.1229127623969 L 360.3552266716962,531.6104384954632 L 370.8466931254087,513.4590457998418 L 380.3076330394513,492.601317051442 L 380.3076330394513,492.601317051442 L 388.8471987575893,467.22018676287047 L 394.96936109762305,440.46181072502026 L 398.683751148708,412.6825392366558 L 400.0,384.23872259654155 L 398.9277387406548,355.4867111034418 L 395.4765984598282,326.7828550561211 L 389.65621024667627,298.4835047533437 L 381.4762051903544,270.9450104938741 L 370.94621438001866,244.52372257647679 L 370.94621438001866,244.52372257647679 L 355.50597328175337,215.46030586733983 L 338.1780387089525,190.75014145662192 L 319.1550324447316,170.4991713250371 L 298.62957627220663,154.8133374532992 L 276.7942919744936,143.79858182212172 L 253.84180133470838,137.56084641221867 L 229.9647261359669,136.20607320430346 L 205.35568816138493,139.84020417909005 L 180.20730919407845,148.56918131729216 L 180.20730919407845,148.56918131729216 L 180.20730919407845,148.56918131729216 L 180.20730919407845,148.56918131729216 L 180.20730919407845,148.56918131729216 L 180.20730919407845,148.56918131729216 L 180.20730919407845,148.56918131729216 L 180.20730919407845,148.56918131729216 L 180.20730919407845,148.56918131729216 L 180.20730919407845,148.56918131729216 L 180.20730919407845,148.56918131729216 L 314.77770242342274,265.5869145602002 L 314.77770242342274,265.5869145602002 L 314.77770242342274,265.5869145602002 L 314.77770242342274,265.5869145602002 L 314.77770242342274,265.5869145602002 L 314.77770242342274,265.5869145602002 L 314.77770242342274,265.5869145602002 L 314.77770242342274,265.5869145602002 L 314.77770242342274,265.5869145602002 L 314.77770242342274,265.5869145602002 L 314.77770242342274,265.5869145602002 L 326.2627762417081,291.19919098851085 L 334.97409638312473,317.1485555372742 L 340.9116628476723,343.1653377101282 L 344.0754756353508,368.9798670107105 L 344.46553474616053,394.3224729426588 L 342.0818401801013,418.92348500961094 L 336.92439193717314,442.51323271520454 L 328.99319001737604,464.8220455630775 L 318.28823442071,485.58025305686743 L 318.28823442071,485.58025305686743 L 295.42402876485284,515.4286035322019 L 271.895277957246,532.891373353184 L 248.59767328937812,538.6716320281868 L 226.42690605273822,533.4724490655836 L 206.27866753881526,517.9968939737471 L 189.04864903909817,492.94803626105056 L 175.63254184507588,459.0289454358669 L 166.9260372482373,416.94269100656913 L 163.8248265400713,367.3923424815303 L 163.8248265400713,367.3923424815303 L 164.4781354211394,339.82334977306743 L 166.45090351655142,315.60597609082106 L 169.76239300461887,294.71132816732404 L 174.43186606365344,277.11051273510884 L 180.47858487196666,262.77463652670815 L 187.92181160787015,251.67480627465457 L 196.78080844967553,243.78212871148062 L 207.07483757569432,239.06771056971903 L 218.82316116423814,237.50265858190232 L 218.82316116423814,237.50265858190232 L 224.06086848346456,237.24582953774794 L 228.8266524340571,236.48818385749186 L 233.0819886593925,235.24898371944616 L 236.78835280284756,233.54749130192246 L 239.90722050779914,231.40296878323224 L 242.40006741762406,228.83467834168692 L 244.22836917569913,225.8618821555982 L 245.35360142540117,222.50384240327773 L 245.73723981010698,218.77982126303704 L 245.73723981010698,218.77982126303704 L 247.141773645327,208.98179322854176 L 251.07928392852125,203.58517293824463 L 257.13563382599034,202.3106588066277 L 264.896686504035,204.878949248173 L 273.94830512895624,211.0107426773624 L 283.8763528670548,220.426737508678 L 294.26669288463154,232.84763215660143 L 304.70518834798725,247.99412503561487 L 314.77770242342274,265.5869145602002 L 314.77770242342274,265.5869145602002 L 314.77770242342274,265.5869145602002 L 314.77770242342274,265.5869145602002 L 314.77770242342274,265.5869145602002 L 314.77770242342274,265.5869145602002 L 314.77770242342274,265.5869145602002 L 314.77770242342274,265.5869145602002 L 314.77770242342274,265.5869145602002 L 314.77770242342274,265.5869145602002 L 314.77770242342274,265.5869145602002"/></svg>
