<?xml version="1.0" encoding="utf-8"?>
<svg xmlns="http://www.w3.org/2000/svg"  viewBox="0,0,400,592.809981571357" width="100%">
<path d="M106.76408489380137 22.21526119448523 L 106.76408489380137,22.21526119448523 L 107.04071794412823,28.068491088754545 L 107.92268919869979,33.01371367665657 L 109.48810681290247,37.10951007473158 L 111.81507894212265,40.41446139951914 L 114.98171374174679,42.98714876755905 L 119.06611936716118,44.88615329539117 L 124.14640397375238,46.170056099555346 L 130.30067571690674,46.8974382965913 L 137.60704275201064,47.12688100303888 L 137.60704275201064,47.12688100303888 L 149.08243258086426,45.776260816148955 L 157.44325971368477,42.12145004535963 L 162.73834174758863,36.75802337549272 L 165.01649627969226,30.28155549136943 L 164.3265409071123,23.287621077811114 L 160.71729322696515,16.371794819639383 L 154.23757083636744,10.129651401675314 L 144.9361913324356,5.1567655087403885 L 132.86197231228616,2.048711825656085 L 132.86197231228616,2.048711825656085 L 126.65562846554083,1.2171854214382871 L 121.43540008054903,1.108159454544675 L 117.13294252134752,1.7411609638219792 L 113.67991115197324,3.1357169881169304 L 111.00796133646308,5.31135456627599 L 109.04874843885392,8.287600737145754 L 107.73392782318264,12.083982539572817 L 106.99515485348616,16.72002701240378 L 106.76408489380137,22.21526119448523 L 106.76408489380137,22.21526119448523 L 106.76408489380137,22.21526119448523 L 106.76408489380137,22.21526119448523 L 106.76408489380137,22.21526119448523 L 106.76408489380137,22.21526119448523 L 106.76408489380137,22.21526119448523 L 106.76408489380137,22.21526119448523 L 106.76408489380137,22.21526119448523 L 106.76408489380137,22.21526119448523 L 106.76408489380137,22.21526119448523"/></svg>
