<?xml version="1.0" encoding="utf-8"?>
<svg xmlns="http://www.w3.org/2000/svg"  viewBox="0,0,400,592.809981571357" width="100%">
<path d="M106.76408489380137 22.21526119448523 L 106.76408489380137,22.21526119448523 L 107.04071794412823,28.068491088754545 L 107.92268919869979,33.01371367665657 L 109.48810681290247,37.10951007473158 L 111.81507894212265,40.41446139951914 L 114.98171374174679,42.98714876755905 L 119.06611936716118,44.88615329539117 L 124.14640397375238,46.170056099555346 L 130.30067571690674,46.8974382965913 L 137.60704275201064,47.12688100303888 L 137.60704275201064,47.12688100303888 L 149.08243258086426,45.776260816148955 L 157.44325971368477,42.12145004535963 L 162.73834174758863,36.75802337549272 L 165.01649627969226,30.28155549136943 L 164.3265409071123,23.287621077811114 L 160.71729322696515,16.371794819639383 L 154.23757083636744,10.129651401675314 L 144.9361913324356,5.1567655087403885 L 132.86197231228616,2.048711825656085 L 132.86197231228616,2.048711825656085 L 126.65562846554083,1.2171854214382871 L 121.43540008054903,1.108159454544675 L 117.13294252134752,1.7411609638219792 L 113.67991115197324,3.1357169881169304 L 111.00796133646308,5.31135456627599 L 109.04874843885392,8.287600737145754 L 107.73392782318264,12.083982539572817 L 106.99515485348616,16.72002701240378 L 106.76408489380137,22.21526119448523 L 106.76408489380137,22.21526119448523 L 106.76408489380137,22.21526119448523 L 106.76408489380137,22.21526119448523 L 106.76408489380137,22.21526119448523 L 106.76408489380137,22.21526119448523 L 106.76408489380137,22.21526119448523 L 106.76408489380137,22.21526119448523 L 106.76408489380137,22.21526119448523 L 106.76408489380137,22.21526119448523 L 106.76408489380137,22.21526119448523M158.95985973077094 153.89096589684024 L 106.76408489380137,22.21526119448523 L 107.04071794412823,28.068491088754545 L 107.92268919869979,33.01371367665657 L 109.48810681290247,37.10951007473158 L 111.81507894212265,40.41446139951914 L 114.98171374174679,42.98714876755905 L 119.06611936716118,44.88615329539117 L 124.14640397375238,46.170056099555346 L 130.30067571690674,46.8974382965913 L 137.60704275201064,47.12688100303888 L 137.60704275201064,47.12688100303888 L 149.08243258086426,45.776260816148955 L 157.44325971368477,42.12145004535963 L 162.73834174758863,36.75802337549272 L 165.01649627969226,30.28155549136943 L 164.3265409071123,23.287621077811114 L 160.71729322696515,16.371794819639383 L 154.23757083636744,10.129651401675314 L 144.9361913324356,5.1567655087403885 L 132.86197231228616,2.048711825656085 L 132.86197231228616,2.048711825656085 L 126.65562846554083,1.2171854214382871 L 121.43540008054903,1.108159454544675 L 117.13294252134752,1.7411609638219792 L 113.67991115197324,3.1357169881169304 L 111.00796133646308,5.31135456627599 L 109.04874843885392,8.287600737145754 L 107.73392782318264,12.083982539572817 L 106.99515485348616,16.72002701240378 L 106.76408489380137,22.21526119448523 L 106.76408489380137,22.21526119448523 L 106.76408489380137,22.21526119448523 L 106.76408489380137,22.21526119448523 L 106.76408489380137,22.21526119448523 L 106.76408489380137,22.21526119448523 L 106.76408489380137,22.21526119448523 L 106.76408489380137,22.21526119448523 L 106.76408489380137,22.21526119448523 L 106.76408489380137,22.21526119448523 L 106.76408489380137,22.21526119448523 L 158.95985973077094,153.89096589684024 L 138.79168310870452,164.7789173070587 L 120.37117646340916,180.4509932346946 L 103.95219129989059,200.3311460337736 L 89.78857912315458,223.84332805832074 L 78.13419143820707,250.41149166236116 L 69.24287975005389,279.4595891999202 L 63.368495563700854,310.411573025023 L 60.7648903841538,342.6913954916948 L 61.68591571641857,375.72300895396086 L 61.68591571641857,375.72300895396086 L 63.39127710902187,392.5829797447652 L 65.48717927855725,407.089942354554 L 68.18841965233734,419.7027821962222 L 71.70979565767473,430.8803846826651 L 76.26610472188209,441.08163522677796 L 82.07214427227198,450.7654192414558 L 89.34271173615713,460.3906221395938 L 98.29260454085014,470.4161293340872 L 109.13662011366362,481.30082623783113 L 109.13662011366362,481.30082623783113 L 144.12744647353878,510.0511364329795 L 181.07097671807426,528.5302241948147 L 218.75653443878068,537.0993397419988 L 255.97344322716856,536.1197332931944 L 291.5110266747487,525.952655067063 L 324.1586083730315,506.9593552822673 L 352.70551191352763,479.50108415746917 L 375.9410608877479,443.93909191133093 L 392.65457888720283,400.63462876251447 L 392.65457888720283,400.63462876251447 L 398.5924259498072,368.7453470727748 L 400.0,336.11403790686404 L 397.17997013990305,303.5803639351864 L 390.43500547163904,271.9839878281457 L 380.06777509733007,242.16457225614585 L 366.3809481190986,214.96177988959087 L 349.67719363906707,191.21527339888445 L 330.25918075935766,171.76471545443076 L 308.42957858209286,157.44976872663364 L 308.42957858209286,157.44976872663364 L 295.7662938900708,152.44596502219167 L 280.40827783721767,148.5259119737361 L 263.08779438028097,145.71890013953688 L 244.53710747600817,144.05422007786402 L 225.488481081147,143.56116234698732 L 206.67417915244513,144.26901750517672 L 188.82646564665006,146.207076110702 L 172.6776045205095,149.40462872183326 L 158.95985973077094,153.89096589684024 L 158.95985973077094,153.89096589684024 L 158.95985973077094,153.89096589684024 L 158.95985973077094,153.89096589684024 L 158.95985973077094,153.89096589684024 L 158.95985973077094,153.89096589684024 L 158.95985973077094,153.89096589684024 L 158.95985973077094,153.89096589684024 L 158.95985973077094,153.89096589684024 L 158.95985973077094,153.89096589684024 L 158.95985973077094,153.89096589684024 L 289.44929682319486,202.52793790401643 L 289.44929682319486,202.52793790401643 L 289.44929682319486,202.52793790401643 L 289.44929682319486,202.52793790401643 L 289.44929682319486,202.52793790401643 L 289.44929682319486,202.52793790401643 L 289.44929682319486,202.52793790401643 L 289.44929682319486,202.52793790401643 L 289.44929682319486,202.52793790401643 L 289.44929682319486,202.52793790401643 L 289.44929682319486,202.52793790401643 L 314.84258358996465,227.58926501039412 L 334.0750896006313,257.5030612701525 L 347.13705133577145,290.7950352503732 L 354.01870527596185,325.9908955181376 L 354.710287901779,361.61635064052746 L 349.20203569379964,396.19710918462397 L 337.4841851326008,428.2588797175087 L 319.5469726987588,456.32737080626316 L 295.38063487285046,478.92829101796883 L 295.38063487285046,478.92829101796883 L 268.5098021666876,491.952825928653 L 239.4617046291286,496.04374056701624 L 209.6618160959754,492.1090422394258 L 180.53561040302992,481.0567382522486 L 153.5085613860943,463.7948359118516 L 130.0061428809705,441.2313425246019 L 111.45382872346053,414.27426539686667 L 99.27709274936639,383.8316118350127 L 94.90140879449011,350.8113891454072 L 94.90140879449011,350.8113891454072 L 96.42614507776231,331.62281897214547 L 100.77253847436872,311.6238766867496 L 107.59886580449364,291.41013697404117 L 116.56340388832157,271.57717451884145 L 127.32442954603702,252.72056400597194 L 139.54021959782432,235.43588012025398 L 152.869050863868,220.3186975465089 L 166.96920016435254,207.96459096955815 L 181.49894431946234,198.96913507422306 L 181.49894431946234,198.96913507422306 L 198.0497369951955,191.2803635283732 L 212.41350132010913,185.61264050314662 L 225.0393591876752,181.9659659985435 L 236.37643249136534,180.34034001456388 L 246.87384312465164,180.7357625512075 L 256.9807129810058,183.15223360847472 L 267.1461639538999,187.5897531863652 L 277.81931793680553,194.0483212848791 L 289.44929682319486,202.52793790401643 L 289.44929682319486,202.52793790401643 L 289.44929682319486,202.52793790401643 L 289.44929682319486,202.52793790401643 L 289.44929682319486,202.52793790401643 L 289.44929682319486,202.52793790401643 L 289.44929682319486,202.52793790401643 L 289.44929682319486,202.52793790401643 L 289.44929682319486,202.52793790401643 L 289.44929682319486,202.52793790401643 L 289.44929682319486,202.52793790401643"/></svg>
