<?xml version="1.0" encoding="utf-8"?>
<svg xmlns="http://www.w3.org/2000/svg"  viewBox="0,0,400,635.610425240055" width="100%">
<path d="M145.1851851851852 14.869684499314173 L 145.1851851851852,14.869684499314173 L 134.26205354874762,23.32977696489378 L 126.16775897983031,34.26510186455323 L 120.87791495198906,46.748971193415706 L 118.36813493877965,59.85469694660374 L 118.61403241375808,72.65559111924 L 121.5912208504801,84.22496570644728 L 127.27531372250162,93.63613270334815 L 135.64192450337853,99.96240410506543 L 146.66666666666666,102.2770919067216 L 146.66666666666666,102.2770919067216 L 157.86617893613774,101.01305695270041 L 168.55357415028197,97.43230198648588 L 178.43621399176956,91.85185185185195 L 187.22146014327086,84.5887313925723 L 194.61667428745616,75.95996545242087 L 200.32921810699585,66.2825788751716 L 204.0664532845603,55.87359650459803 L 205.53574150281966,45.05004318447399 L 204.44444444444446,34.128943758573435 L 204.44444444444446,34.128943758573435 L 201.92450337854999,24.25036833816 L 198.33155514911343,16.334908296499567 L 193.68998628257887,10.370370370370287 L 188.02418330539044,6.3445612965503 L 181.35853274399227,4.245287811817334 L 173.71742112482855,4.0603566529492765 L 165.12523497434336,5.777574556724109 L 155.60636081898085,9.384748259919805 L 145.1851851851852,14.869684499314173 L 145.1851851851852,14.869684499314173 L 145.1851851851852,14.869684499314173 L 145.1851851851852,14.869684499314173 L 145.1851851851852,14.869684499314173 L 145.1851851851852,14.869684499314173 L 145.1851851851852,14.869684499314173 L 145.1851851851852,14.869684499314173 L 145.1851851851852,14.869684499314173 L 145.1851851851852,14.869684499314173 L 145.1851851851852,14.869684499314173M179.25925925925927 247.46227709190677 L 145.1851851851852,14.869684499314173 L 134.26205354874762,23.32977696489378 L 126.16775897983031,34.26510186455323 L 120.87791495198906,46.748971193415706 L 118.36813493877965,59.85469694660374 L 118.61403241375808,72.65559111924 L 121.5912208504801,84.22496570644728 L 127.27531372250162,93.63613270334815 L 135.64192450337853,99.96240410506543 L 146.66666666666666,102.2770919067216 L 146.66666666666666,102.2770919067216 L 157.86617893613774,101.01305695270041 L 168.55357415028197,97.43230198648588 L 178.43621399176956,91.85185185185195 L 187.22146014327086,84.5887313925723 L 194.61667428745616,75.95996545242087 L 200.32921810699585,66.2825788751716 L 204.0664532845603,55.87359650459803 L 205.53574150281966,45.05004318447399 L 204.44444444444446,34.128943758573435 L 204.44444444444446,34.128943758573435 L 201.92450337854999,24.25036833816 L 198.33155514911343,16.334908296499567 L 193.68998628257887,10.370370370370287 L 188.02418330539044,6.3445612965503 L 181.35853274399227,4.245287811817334 L 173.71742112482855,4.0603566529492765 L 165.12523497434336,5.777574556724109 L 155.60636081898085,9.384748259919805 L 145.1851851851852,14.869684499314173 L 145.1851851851852,14.869684499314173 L 145.1851851851852,14.869684499314173 L 145.1851851851852,14.869684499314173 L 145.1851851851852,14.869684499314173 L 145.1851851851852,14.869684499314173 L 145.1851851851852,14.869684499314173 L 145.1851851851852,14.869684499314173 L 145.1851851851852,14.869684499314173 L 145.1851851851852,14.869684499314173 L 145.1851851851852,14.869684499314173 L 179.25925925925927,247.46227709190677 L 155.70390692475738,275.09627597419103 L 133.80683838845704,306.6686988772037 L 114.12894375857339,340.74074074074076 L 97.23111314332165,375.8735965045979 L 83.67423665091704,410.62846110857095 L 74.01920438957475,443.5665294924555 L 68.82690646751003,473.24899659604733 L 68.65823299293807,498.2370573591425 L 74.07407407407408,517.0919067215364 L 74.07407407407408,517.0919067215364 L 78.95137936290199,525.562160239801 L 83.90184423106234,532.2887771173095 L 89.21810699588477,537.3936899862827 L 95.19280597469898,540.9988314789414 L 102.11857948483463,543.226134227506 L 110.28806584362137,544.1975308641977 L 119.99390336838894,544.0349540212367 L 131.528730376467,542.860336330844 L 145.1851851851852,540.79561042524 L 145.1851851851852,540.79561042524 L 167.73459330386623,536.2495554539452 L 188.95493573134178,529.5574861555657 L 208.83401920438956,520.7681755829905 L 227.35965045978767,509.9303967891074 L 244.51963623431388,497.0929228268049 L 260.3017832647462,482.30452674897134 L 274.69389828786257,465.6139816084947 L 287.68378804044096,447.0700604582636 L 299.25925925925924,426.72153635116604 L 299.25925925925924,426.72153635116604 L 312.33246964385506,396.8602347203171 L 320.99171874206166,366.9257735101357 L 325.32235939643346,337.50342935528124 L 325.4097444495249,309.1784788904131 L 321.3392267438907,282.5361987501906 L 313.196159122085,258.16186556927306 L 301.06589442666257,236.64075598231986 L 285.0337855001778,218.55814662399032 L 265.18518518518516,204.49931412894384 L 265.18518518518516,204.49931412894384 L 256.775897983031,200.80272316211972 L 249.0494335213128,198.74002946705284 L 241.5912208504801,198.51851851851853 L 233.98668902098262,200.34547579129202 L 225.82126708326982,204.42818676014846 L 216.6803840877915,210.97393689986288 L 206.1494690849972,220.19001168521066 L 193.8139511253366,232.28369659096685 L 179.25925925925927,247.46227709190677 L 179.25925925925927,247.46227709190677 L 179.25925925925927,247.46227709190677 L 179.25925925925927,247.46227709190677 L 179.25925925925927,247.46227709190677 L 179.25925925925927,247.46227709190677 L 179.25925925925927,247.46227709190677 L 179.25925925925927,247.46227709190677 L 179.25925925925927,247.46227709190677 L 179.25925925925927,247.46227709190677 L 179.25925925925927,247.46227709190677 L 266.6666666666667,324.49931412894387 L 266.6666666666667,324.49931412894387 L 266.6666666666667,324.49931412894387 L 266.6666666666667,324.49931412894387 L 266.6666666666667,324.49931412894387 L 266.6666666666667,324.49931412894387 L 266.6666666666667,324.49931412894387 L 266.6666666666667,324.49931412894387 L 266.6666666666667,324.49931412894387 L 266.6666666666667,324.49931412894387 L 266.6666666666667,324.49931412894387 L 266.2622567698013,338.69836915104423 L 264.9677386577249,351.8366102728243 L 262.6611796982167,364.1700960219479 L 259.220647259056,375.95488492607836 L 254.52420870802214,387.4470355128792 L 248.44993141289436,398.9026063100138 L 240.87588274145202,410.57765584514567 L 231.68013006147436,422.72824264593817 L 220.74074074074073,435.61042524005495 L 220.74074074074073,435.61042524005495 L 205.91982929431484,450.82964995173506 L 190.5136412132297,463.75654117766607 L 175.14403292181072,474.1838134430727 L 160.43286084438347,481.90418127318 L 147.00198140527357,486.7103591932124 L 135.47325102880657,488.3950617283952 L 126.46852613930801,486.75100340395267 L 120.60966316110348,481.57089874511007 L 118.51851851851852,472.64746227709196 L 118.51851851851852,472.64746227709196 L 119.89635726261238,463.7484123355181 L 123.83478128334097,451.2767362698777 L 130.0411522633745,435.8299039780522 L 138.2228318853833,418.0053853579232 L 148.0871818320378,398.4006503073719 L 159.3415637860082,377.61316872427994 L 171.6933394299649,356.2404105065286 L 184.84987044657822,334.8798455519993 L 198.5185185185185,314.1289437585734 L 198.5185185185185,314.1289437585734 L 212.17090890616262,294.53640197124435 L 224.44546054971295,280.1869633694051 L 235.28120713305898,271.05624142661185 L 244.61718234009044,267.1198496164203 L 252.39241985469695,268.3534014123864 L 258.5459533607682,274.73251028806595 L 263.01681654219374,286.2327897170147 L 265.7440430828633,302.8298531727888 L 266.6666666666667,324.49931412894387 L 266.6666666666667,324.49931412894387 L 266.6666666666667,324.49931412894387 L 266.6666666666667,324.49931412894387 L 266.6666666666667,324.49931412894387 L 266.6666666666667,324.49931412894387 L 266.6666666666667,324.49931412894387 L 266.6666666666667,324.49931412894387 L 266.6666666666667,324.49931412894387 L 266.6666666666667,324.49931412894387 L 266.6666666666667,324.49931412894387M337.77777777777777 19.314128943758618 L 145.1851851851852,14.869684499314173 L 134.26205354874762,23.32977696489378 L 126.16775897983031,34.26510186455323 L 120.87791495198906,46.748971193415706 L 118.36813493877965,59.85469694660374 L 118.61403241375808,72.65559111924 L 121.5912208504801,84.22496570644728 L 127.27531372250162,93.63613270334815 L 135.64192450337853,99.96240410506543 L 146.66666666666666,102.2770919067216 L 146.66666666666666,102.2770919067216 L 157.86617893613774,101.01305695270041 L 168.55357415028197,97.43230198648588 L 178.43621399176956,91.85185185185195 L 187.22146014327086,84.5887313925723 L 194.61667428745616,75.95996545242087 L 200.32921810699585,66.2825788751716 L 204.0664532845603,55.87359650459803 L 205.53574150281966,45.05004318447399 L 204.44444444444446,34.128943758573435 L 204.44444444444446,34.128943758573435 L 201.92450337854999,24.25036833816 L 198.33155514911343,16.334908296499567 L 193.68998628257887,10.370370370370287 L 188.02418330539044,6.3445612965503 L 181.35853274399227,4.245287811817334 L 173.71742112482855,4.0603566529492765 L 165.12523497434336,5.777574556724109 L 155.60636081898085,9.384748259919805 L 145.1851851851852,14.869684499314173 L 145.1851851851852,14.869684499314173 L 145.1851851851852,14.869684499314173 L 145.1851851851852,14.869684499314173 L 145.1851851851852,14.869684499314173 L 145.1851851851852,14.869684499314173 L 145.1851851851852,14.869684499314173 L 145.1851851851852,14.869684499314173 L 145.1851851851852,14.869684499314173 L 145.1851851851852,14.869684499314173 L 145.1851851851852,14.869684499314173 L 179.25925925925927,247.46227709190677 L 155.70390692475738,275.09627597419103 L 133.80683838845704,306.6686988772037 L 114.12894375857339,340.74074074074076 L 97.23111314332165,375.8735965045979 L 83.67423665091704,410.62846110857095 L 74.01920438957475,443.5665294924555 L 68.82690646751003,473.24899659604733 L 68.65823299293807,498.2370573591425 L 74.07407407407408,517.0919067215364 L 74.07407407407408,517.0919067215364 L 78.95137936290199,525.562160239801 L 83.90184423106234,532.2887771173095 L 89.21810699588477,537.3936899862827 L 95.19280597469898,540.9988314789414 L 102.11857948483463,543.226134227506 L 110.28806584362137,544.1975308641977 L 119.99390336838894,544.0349540212367 L 131.528730376467,542.860336330844 L 145.1851851851852,540.79561042524 L 145.1851851851852,540.79561042524 L 167.73459330386623,536.2495554539452 L 188.95493573134178,529.5574861555657 L 208.83401920438956,520.7681755829905 L 227.35965045978767,509.9303967891074 L 244.51963623431388,497.0929228268049 L 260.3017832647462,482.30452674897134 L 274.69389828786257,465.6139816084947 L 287.68378804044096,447.0700604582636 L 299.25925925925924,426.72153635116604 L 299.25925925925924,426.72153635116604 L 312.33246964385506,396.8602347203171 L 320.99171874206166,366.9257735101357 L 325.32235939643346,337.50342935528124 L 325.4097444495249,309.1784788904131 L 321.3392267438907,282.5361987501906 L 313.196159122085,258.16186556927306 L 301.06589442666257,236.64075598231986 L 285.0337855001778,218.55814662399032 L 265.18518518518516,204.49931412894384 L 265.18518518518516,204.49931412894384 L 256.775897983031,200.80272316211972 L 249.0494335213128,198.74002946705284 L 241.5912208504801,198.51851851851853 L 233.98668902098262,200.34547579129202 L 225.82126708326982,204.42818676014846 L 216.6803840877915,210.97393689986288 L 206.1494690849972,220.19001168521066 L 193.8139511253366,232.28369659096685 L 179.25925925925927,247.46227709190677 L 179.25925925925927,247.46227709190677 L 179.25925925925927,247.46227709190677 L 179.25925925925927,247.46227709190677 L 179.25925925925927,247.46227709190677 L 179.25925925925927,247.46227709190677 L 179.25925925925927,247.46227709190677 L 179.25925925925927,247.46227709190677 L 179.25925925925927,247.46227709190677 L 179.25925925925927,247.46227709190677 L 179.25925925925927,247.46227709190677 L 266.6666666666667,324.49931412894387 L 266.6666666666667,324.49931412894387 L 266.6666666666667,324.49931412894387 L 266.6666666666667,324.49931412894387 L 266.6666666666667,324.49931412894387 L 266.6666666666667,324.49931412894387 L 266.6666666666667,324.49931412894387 L 266.6666666666667,324.49931412894387 L 266.6666666666667,324.49931412894387 L 266.6666666666667,324.49931412894387 L 266.6666666666667,324.49931412894387 L 266.2622567698013,338.69836915104423 L 264.9677386577249,351.8366102728243 L 262.6611796982167,364.1700960219479 L 259.220647259056,375.95488492607836 L 254.52420870802214,387.4470355128792 L 248.44993141289436,398.9026063100138 L 240.87588274145202,410.57765584514567 L 231.68013006147436,422.72824264593817 L 220.74074074074073,435.61042524005495 L 220.74074074074073,435.61042524005495 L 205.91982929431484,450.82964995173506 L 190.5136412132297,463.75654117766607 L 175.14403292181072,474.1838134430727 L 160.43286084438347,481.90418127318 L 147.00198140527357,486.7103591932124 L 135.47325102880657,488.3950617283952 L 126.46852613930801,486.75100340395267 L 120.60966316110348,481.57089874511007 L 118.51851851851852,472.64746227709196 L 118.51851851851852,472.64746227709196 L 119.89635726261238,463.7484123355181 L 123.83478128334097,451.2767362698777 L 130.0411522633745,435.8299039780522 L 138.2228318853833,418.0053853579232 L 148.0871818320378,398.4006503073719 L 159.3415637860082,377.61316872427994 L 171.6933394299649,356.2404105065286 L 184.84987044657822,334.8798455519993 L 198.5185185185185,314.1289437585734 L 198.5185185185185,314.1289437585734 L 212.17090890616262,294.53640197124435 L 224.44546054971295,280.1869633694051 L 235.28120713305898,271.05624142661185 L 244.61718234009044,267.1198496164203 L 252.39241985469695,268.3534014123864 L 258.5459533607682,274.73251028806595 L 263.01681654219374,286.2327897170147 L 265.7440430828633,302.8298531727888 L 266.6666666666667,324.49931412894387 L 266.6666666666667,324.49931412894387 L 266.6666666666667,324.49931412894387 L 266.6666666666667,324.49931412894387 L 266.6666666666667,324.49931412894387 L 266.6666666666667,324.49931412894387 L 266.6666666666667,324.49931412894387 L 266.6666666666667,324.49931412894387 L 266.6666666666667,324.49931412894387 L 266.6666666666667,324.49931412894387 L 266.6666666666667,324.49931412894387 L 337.77777777777777,19.314128943758618 L 327.2427983539094,29.182543311487233 L 319.3415637860083,40.53853579230809 L 314.0740740740741,52.674897119341544 L 311.440329218107,64.88441802570749 L 311.440329218107,76.45988924452578 L 314.0740740740741,86.69410150891643 L 319.34156378600824,94.87984555199925 L 327.24279835390945,100.30991210689436 L 337.77777777777777,102.2770919067216 L 337.77777777777777,102.2770919067216 L 349.66620941929574,101.25489000660478 L 360.56698673982623,98.26957272773464 L 370.37037037037044,93.44307270233196 L 378.9666209419296,86.89732256261753 L 386.2459990855053,78.75425494081188 L 392.0987654320988,69.13580246913591 L 396.4151806127115,58.163897779810064 L 399.0855052583447,45.96047350505522 L 400.0,32.647462277091954 L 400.0,32.647462277091954 L 399.13427831123295,21.06995884773672 L 396.5858862978205,12.016460905349756 L 392.4279835390948,5.4869684499314015 L 386.73372961438804,1.4814814814814816 L 379.57628410303306,0.0 L 371.02880658436214,1.0425240054870404 L 361.1644566377077,4.609053497942434 L 350.05639384240203,10.699588477366348 L 337.77777777777777,19.314128943758618 L 337.77777777777777,19.314128943758618 L 337.77777777777777,19.314128943758618 L 337.77777777777777,19.314128943758618 L 337.77777777777777,19.314128943758618 L 337.77777777777777,19.314128943758618 L 337.77777777777777,19.314128943758618 L 337.77777777777777,19.314128943758618 L 337.77777777777777,19.314128943758618 L 337.77777777777777,19.314128943758618 L 337.77777777777777,19.314128943758618"/></svg>
