<?xml version="1.0" encoding="utf-8"?>
<svg xmlns="http://www.w3.org/2000/svg"  viewBox="0,0,400,813.810658738544" width="100%">
<path d="M151.89365832084326 29.982063441362236 L 151.89365832084326,29.982063441362236 L 138.20486989852324,45.58736086881751 L 127.72402270326053,61.629032654364934 L 120.47470453819503,77.8004373571832 L 116.48050320646698,93.79493353645054 L 115.76500651121648,109.30587975134527 L 118.35180225558365,124.02663456104582 L 124.26447824270868,137.6505565247304 L 133.52662227573157,149.87100420157756 L 146.16182215779259,160.38133615076543 L 146.16182215779259,160.38133615076543 L 173.24651711344256,174.56350278876653 L 201.92338878105113,181.2801297329173 L 230.70640556279028,181.23885107742208 L 258.10953586083195,175.14730091648454 L 282.6467480773484,163.71311334430828 L 302.8320106145114,147.6439224550972 L 317.17929187449323,127.64736234305519 L 324.20256025946577,104.43106710238594 L 322.4157841716013,78.7026708272931 L 322.4157841716013,78.7026708272931 L 317.81026560849153,64.02122902282639 L 312.42634954175776,51.368338288410136 L 306.0163640384285,40.54350229735372 L 298.33263716553233,31.34622472296617 L 289.127496990098,23.576009238556203 L 278.15327157915425,17.03235951743286 L 265.1622889997297,11.514779232905008 L 249.90687731885308,6.82277205828153 L 232.1393646035529,2.755841666871461 L 232.1393646035529,2.755841666871461 L 220.89584510675934,0.8589891643532179 L 210.8670974716824,0.0 L 201.7818619622104,0.2614314848030753 L 193.368878842232,1.7258409297525716 L 185.35688837563575,4.4757856458389425 L 177.47463082631023,8.593822944052803 L 169.45084645814393,14.162510135384283 L 161.0142755350254,21.264404530823995 L 151.89365832084326,29.982063441362236 L 151.89365832084326,29.982063441362236 L 151.89365832084326,29.982063441362236 L 151.89365832084326,29.982063441362236 L 151.89365832084326,29.982063441362236 L 151.89365832084326,29.982063441362236 L 151.89365832084326,29.982063441362236 L 151.89365832084326,29.982063441362236 L 151.89365832084326,29.982063441362236 L 151.89365832084326,29.982063441362236 L 151.89365832084326,29.982063441362236 L 245.03599597041696,70.10491658271705 L 245.03599597041696,70.10491658271705 L 245.03599597041696,70.10491658271705 L 245.03599597041696,70.10491658271705 L 245.03599597041696,70.10491658271705 L 245.03599597041696,70.10491658271705 L 245.03599597041696,70.10491658271705 L 245.03599597041696,70.10491658271705 L 245.03599597041696,70.10491658271705 L 245.03599597041696,70.10491658271705 L 245.03599597041696,70.10491658271705 L 251.93935968942725,73.78657952283862 L 257.38027961374974,77.26774613626873 L 261.38234354652445,80.66635543870854 L 263.96913929089163,84.10034644585866 L 265.16425464999145,87.6876581734195 L 264.9912774269638,91.54622963709198 L 263.473795424949,95.79399985257638 L 260.63539644708715,100.5489078355735 L 256.49966829651834,105.92889260178387 L 256.49966829651834,105.92889260178387 L 249.36435784663013,112.87156932602777 L 240.7076340942038,118.37539005872382 L 231.02484090518195,122.38138529202185 L 220.81132214550726,124.83058551807162 L 210.56242168112243,125.66402122902278 L 200.77348337796997,124.82272291702509 L 191.9398511019927,122.24772107422793 L 184.55686871913312,117.88004619278126 L 179.11988009533403,111.66072876483456 L 179.11988009533403,111.66072876483456 L 177.57291333939403,108.54517310007641 L 176.72178677608787,104.99324307722554 L 176.51932479913512,101.09928990884299 L 176.9183518022556,96.95766480748918 L 177.87169217916903,92.66271898572455 L 179.33217032359514,88.3088036561096 L 181.25261062925378,83.99027003120469 L 183.58583748986456,79.80146932357073 L 186.2846752991474,75.83675274576775 L 186.2846752991474,75.83675274576775 L 192.78114941399048,68.18644192732032 L 198.23976019066805,62.39956755694244 L 203.1086758888425,58.42895402835453 L 207.83606476817616,56.22742573527621 L 212.87009508833137,55.747807071426905 L 218.6589351089707,56.94292243052671 L 225.6507530897565,59.76559620629505 L 234.29371729035108,64.16865279245202 L 245.03599597041696,70.10491658271705 L 245.03599597041696,70.10491658271705 L 245.03599597041696,70.10491658271705 L 245.03599597041696,70.10491658271705 L 245.03599597041696,70.10491658271705 L 245.03599597041696,70.10491658271705 L 245.03599597041696,70.10491658271705 L 245.03599597041696,70.10491658271705 L 245.03599597041696,70.10491658271705 L 245.03599597041696,70.10491658271705 L 245.03599597041696,70.10491658271705"/></svg>
