<?xml version="1.0" encoding="utf-8"?>
<svg xmlns="http://www.w3.org/2000/svg"  viewBox="0,0,400,813.810658738544" width="100%">
<path d="M151.89365832084326 29.982063441362236 L 151.89365832084326,29.982063441362236 L 138.20486989852324,45.58736086881751 L 127.72402270326053,61.629032654364934 L 120.47470453819503,77.8004373571832 L 116.48050320646698,93.79493353645054 L 115.76500651121648,109.30587975134527 L 118.35180225558365,124.02663456104582 L 124.26447824270868,137.6505565247304 L 133.52662227573157,149.87100420157756 L 146.16182215779259,160.38133615076543 L 146.16182215779259,160.38133615076543 L 173.24651711344256,174.56350278876653 L 201.92338878105113,181.2801297329173 L 230.70640556279028,181.23885107742208 L 258.10953586083195,175.14730091648454 L 282.6467480773484,163.71311334430828 L 302.8320106145114,147.6439224550972 L 317.17929187449323,127.64736234305519 L 324.20256025946577,104.43106710238594 L 322.4157841716013,78.7026708272931 L 322.4157841716013,78.7026708272931 L 317.81026560849153,64.02122902282639 L 312.42634954175776,51.368338288410136 L 306.0163640384285,40.54350229735372 L 298.33263716553233,31.34622472296617 L 289.127496990098,23.576009238556203 L 278.15327157915425,17.03235951743286 L 265.1622889997297,11.514779232905008 L 249.90687731885308,6.82277205828153 L 232.1393646035529,2.755841666871461 L 232.1393646035529,2.755841666871461 L 220.89584510675934,0.8589891643532179 L 210.8670974716824,0.0 L 201.7818619622104,0.2614314848030753 L 193.368878842232,1.7258409297525716 L 185.35688837563575,4.4757856458389425 L 177.47463082631023,8.593822944052803 L 169.45084645814393,14.162510135384283 L 161.0142755350254,21.264404530823995 L 151.89365832084326,29.982063441362236 L 151.89365832084326,29.982063441362236 L 151.89365832084326,29.982063441362236 L 151.89365832084326,29.982063441362236 L 151.89365832084326,29.982063441362236 L 151.89365832084326,29.982063441362236 L 151.89365832084326,29.982063441362236 L 151.89365832084326,29.982063441362236 L 151.89365832084326,29.982063441362236 L 151.89365832084326,29.982063441362236 L 151.89365832084326,29.982063441362236 L 245.03599597041696,70.10491658271705 L 245.03599597041696,70.10491658271705 L 245.03599597041696,70.10491658271705 L 245.03599597041696,70.10491658271705 L 245.03599597041696,70.10491658271705 L 245.03599597041696,70.10491658271705 L 245.03599597041696,70.10491658271705 L 245.03599597041696,70.10491658271705 L 245.03599597041696,70.10491658271705 L 245.03599597041696,70.10491658271705 L 245.03599597041696,70.10491658271705 L 251.93935968942725,73.78657952283862 L 257.38027961374974,77.26774613626873 L 261.38234354652445,80.66635543870854 L 263.96913929089163,84.10034644585866 L 265.16425464999145,87.6876581734195 L 264.9912774269638,91.54622963709198 L 263.473795424949,95.79399985257638 L 260.63539644708715,100.5489078355735 L 256.49966829651834,105.92889260178387 L 256.49966829651834,105.92889260178387 L 249.36435784663013,112.87156932602777 L 240.7076340942038,118.37539005872382 L 231.02484090518195,122.38138529202185 L 220.81132214550726,124.83058551807162 L 210.56242168112243,125.66402122902278 L 200.77348337796997,124.82272291702509 L 191.9398511019927,122.24772107422793 L 184.55686871913312,117.88004619278126 L 179.11988009533403,111.66072876483456 L 179.11988009533403,111.66072876483456 L 177.57291333939403,108.54517310007641 L 176.72178677608787,104.99324307722554 L 176.51932479913512,101.09928990884299 L 176.9183518022556,96.95766480748918 L 177.87169217916903,92.66271898572455 L 179.33217032359514,88.3088036561096 L 181.25261062925378,83.99027003120469 L 183.58583748986456,79.80146932357073 L 186.2846752991474,75.83675274576775 L 186.2846752991474,75.83675274576775 L 192.78114941399048,68.18644192732032 L 198.23976019066805,62.39956755694244 L 203.1086758888425,58.42895402835453 L 207.83606476817616,56.22742573527621 L 212.87009508833137,55.747807071426905 L 218.6589351089707,56.94292243052671 L 225.6507530897565,59.76559620629505 L 234.29371729035108,64.16865279245202 L 245.03599597041696,70.10491658271705 L 245.03599597041696,70.10491658271705 L 245.03599597041696,70.10491658271705 L 245.03599597041696,70.10491658271705 L 245.03599597041696,70.10491658271705 L 245.03599597041696,70.10491658271705 L 245.03599597041696,70.10491658271705 L 245.03599597041696,70.10491658271705 L 245.03599597041696,70.10491658271705 L 245.03599597041696,70.10491658271705 L 245.03599597041696,70.10491658271705M170.522125850758 264.9873461264405 L 151.89365832084326,29.982063441362236 L 138.20486989852324,45.58736086881751 L 127.72402270326053,61.629032654364934 L 120.47470453819503,77.8004373571832 L 116.48050320646698,93.79493353645054 L 115.76500651121648,109.30587975134527 L 118.35180225558365,124.02663456104582 L 124.26447824270868,137.6505565247304 L 133.52662227573157,149.87100420157756 L 146.16182215779259,160.38133615076543 L 146.16182215779259,160.38133615076543 L 173.24651711344256,174.56350278876653 L 201.92338878105113,181.2801297329173 L 230.70640556279028,181.23885107742208 L 258.10953586083195,175.14730091648454 L 282.6467480773484,163.71311334430828 L 302.8320106145114,147.6439224550972 L 317.17929187449323,127.64736234305519 L 324.20256025946577,104.43106710238594 L 322.4157841716013,78.7026708272931 L 322.4157841716013,78.7026708272931 L 317.81026560849153,64.02122902282639 L 312.42634954175776,51.368338288410136 L 306.0163640384285,40.54350229735372 L 298.33263716553233,31.34622472296617 L 289.127496990098,23.576009238556203 L 278.15327157915425,17.03235951743286 L 265.1622889997297,11.514779232905008 L 249.90687731885308,6.82277205828153 L 232.1393646035529,2.755841666871461 L 232.1393646035529,2.755841666871461 L 220.89584510675934,0.8589891643532179 L 210.8670974716824,0.0 L 201.7818619622104,0.2614314848030753 L 193.368878842232,1.7258409297525716 L 185.35688837563575,4.4757856458389425 L 177.47463082631023,8.593822944052803 L 169.45084645814393,14.162510135384283 L 161.0142755350254,21.264404530823995 L 151.89365832084326,29.982063441362236 L 151.89365832084326,29.982063441362236 L 151.89365832084326,29.982063441362236 L 151.89365832084326,29.982063441362236 L 151.89365832084326,29.982063441362236 L 151.89365832084326,29.982063441362236 L 151.89365832084326,29.982063441362236 L 151.89365832084326,29.982063441362236 L 151.89365832084326,29.982063441362236 L 151.89365832084326,29.982063441362236 L 151.89365832084326,29.982063441362236 L 245.03599597041696,70.10491658271705 L 245.03599597041696,70.10491658271705 L 245.03599597041696,70.10491658271705 L 245.03599597041696,70.10491658271705 L 245.03599597041696,70.10491658271705 L 245.03599597041696,70.10491658271705 L 245.03599597041696,70.10491658271705 L 245.03599597041696,70.10491658271705 L 245.03599597041696,70.10491658271705 L 245.03599597041696,70.10491658271705 L 245.03599597041696,70.10491658271705 L 251.93935968942725,73.78657952283862 L 257.38027961374974,77.26774613626873 L 261.38234354652445,80.66635543870854 L 263.96913929089163,84.10034644585866 L 265.16425464999145,87.6876581734195 L 264.9912774269638,91.54622963709198 L 263.473795424949,95.79399985257638 L 260.63539644708715,100.5489078355735 L 256.49966829651834,105.92889260178387 L 256.49966829651834,105.92889260178387 L 249.36435784663013,112.87156932602777 L 240.7076340942038,118.37539005872382 L 231.02484090518195,122.38138529202185 L 220.81132214550726,124.83058551807162 L 210.56242168112243,125.66402122902278 L 200.77348337796997,124.82272291702509 L 191.9398511019927,122.24772107422793 L 184.55686871913312,117.88004619278126 L 179.11988009533403,111.66072876483456 L 179.11988009533403,111.66072876483456 L 177.57291333939403,108.54517310007641 L 176.72178677608787,104.99324307722554 L 176.51932479913512,101.09928990884299 L 176.9183518022556,96.95766480748918 L 177.87169217916903,92.66271898572455 L 179.33217032359514,88.3088036561096 L 181.25261062925378,83.99027003120469 L 183.58583748986456,79.80146932357073 L 186.2846752991474,75.83675274576775 L 186.2846752991474,75.83675274576775 L 192.78114941399048,68.18644192732032 L 198.23976019066805,62.39956755694244 L 203.1086758888425,58.42895402835453 L 207.83606476817616,56.22742573527621 L 212.87009508833137,55.747807071426905 L 218.6589351089707,56.94292243052671 L 225.6507530897565,59.76559620629505 L 234.29371729035108,64.16865279245202 L 245.03599597041696,70.10491658271705 L 245.03599597041696,70.10491658271705 L 245.03599597041696,70.10491658271705 L 245.03599597041696,70.10491658271705 L 245.03599597041696,70.10491658271705 L 245.03599597041696,70.10491658271705 L 245.03599597041696,70.10491658271705 L 245.03599597041696,70.10491658271705 L 245.03599597041696,70.10491658271705 L 245.03599597041696,70.10491658271705 L 245.03599597041696,70.10491658271705 L 170.522125850758,264.9873461264405 L 139.6574854419027,307.1446472886314 L 113.28632153124157,358.2181380377896 L 91.86859628000691,415.44804540652103 L 75.86427184943119,476.0745964274308 L 65.73331040074696,537.3380181331237 L 61.93567409518662,596.4785375562054 L 64.93132509398264,650.7363817292809 L 75.18022555836752,697.3517776849554 L 93.1423376495737,733.5649524558344 L 93.1423376495737,733.5649524558344 L 109.12897122779428,749.6007272905969 L 127.83999606869949,758.7842453131526 L 148.39086955453453,761.4811174721739 L 169.89704906754466,758.0569547163321 L 191.47399198997516,748.8773679942998 L 212.2371557040713,734.3079682547483 L 231.30199759207838,714.7143664463503 L 247.78397503624169,690.4621735177769 L 260.7985454188063,661.9170004177008 L 260.7985454188063,661.9170004177008 L 262.7091574731566,656.6628172682375 L 264.6197695275068,651.4086341187746 L 266.53038158185706,646.1544509693114 L 268.4409936362073,640.9002678198482 L 270.35160569055745,635.646084670385 L 272.26221774490773,630.391901520922 L 274.172829799258,625.1377183714588 L 276.0834418536082,619.8835352219957 L 277.9940539079584,614.6293520725326 L 277.9940539079584,614.6293520725326 L 280.85997198948377,619.2466645372123 L 283.72589007100913,623.863977001892 L 286.59180815253444,628.4812894665716 L 289.4577262340598,633.0986019312514 L 292.32364431558517,637.7159143959311 L 295.1895623971105,642.3332268606109 L 298.05548047863584,646.9505393252906 L 300.92139856016115,651.5678517899703 L 303.7873166416865,656.18516425465 L 303.7873166416865,656.18516425465 L 309.6272635691294,665.5849038059905 L 315.6912946264036,673.7462836924741 L 321.99120371507894,680.7046856188113 L 328.5387847367257,686.4954912897123 L 335.34583159291384,691.1540824098872 L 342.42413818521334,694.7158406840464 L 349.78549841519447,697.2161478168997 L 357.4417061844271,698.6903855131577 L 365.4045553944814,699.1739354775302 L 365.4045553944814,699.1739354775302 L 378.291358510037,698.0554804786359 L 388.25327403621714,694.8966805081207 L 395.23133246517125,689.9923831052361 L 399.16656428904884,683.6374358092337 L 400.0,676.1266861593651 L 397.6726700901741,667.754981694882 L 392.12560505172115,658.8171699550359 L 383.2998353767906,649.6080984790782 L 371.13639155753214,640.4226148062606 L 371.13639155753214,640.4226148062606 L 363.6236762574018,634.197400427529 L 357.20779380328753,626.4979483525394 L 351.7118356716381,616.593036683948 L 346.95889333890267,603.751443524411 L 342.7720582815303,587.2419469765844 L 338.9744219759699,566.333325143124 L 335.3890758986707,540.2943561266861 L 331.8391115260817,508.39381802992705 L 328.14762033465195,469.9004889555027 L 328.14762033465195,469.9004889555027 L 325.18538539030436,442.64478242708674 L 322.0698297255461,416.5920538588173 L 318.85992284822726,392.2022654119266 L 315.61463426619815,369.9353792476474 L 312.3929334873092,350.25135752721195 L 309.2537900194108,333.61016241185297 L 306.2561733703531,320.4717560628026 L 303.45905304798646,311.29610064129344 L 300.92139856016115,306.54315830855796 L 300.92139856016115,306.54315830855796 L 293.1669082778446,300.502715054424 L 286.1200520897319,298.66090075923256 L 279.7454482911128,301.07668493083366 L 274.0077151772771,307.80903707707813 L 268.8714710435146,318.9169267058159 L 264.3013341851151,334.45932332489747 L 260.2619228973685,354.49519644217304 L 256.7178554755645,379.08351556549303 L 253.633750214993,408.28325020270773 L 253.633750214993,408.28325020270773 L 248.95353694193955,446.96921300277654 L 242.72832256320794,485.9500233420969 L 235.21757291333938,524.2467873903536 L 226.68075382687533,560.8806113172313 L 217.3773311383572,594.8726012924151 L 207.56677068232634,625.2438634855894 L 197.50853829332416,651.015504066439 L 187.46209980589202,671.2086292046488 L 177.68692105457137,684.8443450699035 L 177.68692105457137,684.8443450699035 L 166.7166269441509,693.9472714317305 L 156.79599007346619,697.4834762524879 L 148.01936165507755,695.6180741541561 L 140.48109290154548,688.5161797587165 L 134.2755350254306,676.3429076881497 L 129.49703923929334,659.2633725644366 L 126.23995675569422,637.4426890095581 L 124.5986387871938,611.045971645495 L 124.66743654635249,580.2383350942284 L 124.66743654635249,580.2383350942284 L 127.20902233470106,543.5750264134256 L 132.68728961399546,505.9092360991672 L 140.7484213371336,468.2552396864789 L 151.03860045701367,431.6273127103861 L 163.20400992653381,397.0397307059142 L 176.89083269859208,365.50676920808877 L 191.7452517260866,338.04270375193505 L 207.4134499619155,315.6618098724785 L 223.54161035897687,299.37836310474466 L 223.54161035897687,299.37836310474466 L 229.6272635691294,294.30895107987925 L 235.39448143689032,288.7559890906411 L 240.73711884812894,282.8727978574412 L 245.54903068871474,276.81269810069057 L 249.72407184451706,270.72901054079955 L 253.1560972014054,264.77505589817946 L 255.73896164524922,259.1041548932406 L 257.3665200619179,253.86962824639437 L 257.932627337281,249.22479667805112 L 257.932627337281,249.22479667805112 L 256.2087520577901,238.9149610555543 L 251.35949286223246,231.81306666011452 L 243.8683997149807,227.83655618074158 L 234.2190225804074,226.9028723064449 L 222.89491142288506,228.92945772623406 L 210.3796162067864,233.83375512911877 L 197.15668689648396,241.53320720410818 L 183.70967345635026,251.94525664021236 L 170.522125850758,264.9873461264405 L 170.522125850758,264.9873461264405 L 170.522125850758,264.9873461264405 L 170.522125850758,264.9873461264405 L 170.522125850758,264.9873461264405 L 170.522125850758,264.9873461264405 L 170.522125850758,264.9873461264405 L 170.522125850758,264.9873461264405 L 170.522125850758,264.9873461264405 L 170.522125850758,264.9873461264405 L 170.522125850758,264.9873461264405"/></svg>
