<?xml version="1.0" encoding="utf-8"?>
<svg xmlns="http://www.w3.org/2000/svg"  viewBox="0,0,400,667.5060321564679" width="100%">
<path d="M237.81805061749742 17.616151897592466 L 237.81805061749742,17.616151897592466 L 235.94188083014498,20.876898907822806 L 235.95992092425416,25.274171846929857 L 237.57450934702382,30.402068597457873 L 240.48798454565272,35.85468704195074 L 244.40268496733995,41.226125062952455 L 249.02094905928425,46.1104805430069 L 254.04511526868467,50.10185136465809 L 259.17752204273995,52.79433541044988 L 264.1205078286492,53.782030562926174 L 264.1205078286492,53.782030562926174 L 265.90196712192846,53.427242045446135 L 267.5751858505529,52.40497004592719 L 269.1131038733586,50.778354893751285 L 270.4886610491818,48.610536918300966 L 271.674797236859,45.96465644895791 L 272.6444522952262,42.90385381510408 L 273.37056608311974,39.49126934612188 L 273.826078459376,35.790043371393025 L 273.9839292828311,31.863316220299684 L 273.9839292828311,31.863316220299684 L 273.21271525966455,25.38541909393657 L 271.0614340371476,19.89972714357671 L 267.77362688575363,15.505460886820966 L 263.5928350759564,12.301840841269698 L 258.7625998782294,10.38808752452327 L 253.52646256304638,9.863421454182044 L 248.12796440088096,10.82706314784626 L 242.81064666220678,13.37823312311628 L 237.81805061749742,17.616151897592466 L 237.81805061749742,17.616151897592466 L 237.81805061749742,17.616151897592466 L 237.81805061749742,17.616151897592466 L 237.81805061749742,17.616151897592466 L 237.81805061749742,17.616151897592466 L 237.81805061749742,17.616151897592466 L 237.81805061749742,17.616151897592466 L 237.81805061749742,17.616151897592466 L 237.81805061749742,17.616151897592466 L 237.81805061749742,17.616151897592466"/></svg>
