<?xml version="1.0" encoding="utf-8"?>
<svg xmlns="http://www.w3.org/2000/svg"  viewBox="0,0,400,667.5060321564679" width="100%">
<path d="M237.81805061749742 17.616151897592466 L 237.81805061749742,17.616151897592466 L 235.94188083014498,20.876898907822806 L 235.95992092425416,25.274171846929857 L 237.57450934702382,30.402068597457873 L 240.48798454565272,35.85468704195074 L 244.40268496733995,41.226125062952455 L 249.02094905928425,46.1104805430069 L 254.04511526868467,50.10185136465809 L 259.17752204273995,52.79433541044988 L 264.1205078286492,53.782030562926174 L 264.1205078286492,53.782030562926174 L 265.90196712192846,53.427242045446135 L 267.5751858505529,52.40497004592719 L 269.1131038733586,50.778354893751285 L 270.4886610491818,48.610536918300966 L 271.674797236859,45.96465644895791 L 272.6444522952262,42.90385381510408 L 273.37056608311974,39.49126934612188 L 273.826078459376,35.790043371393025 L 273.9839292828311,31.863316220299684 L 273.9839292828311,31.863316220299684 L 273.21271525966455,25.38541909393657 L 271.0614340371476,19.89972714357671 L 267.77362688575363,15.505460886820966 L 263.5928350759564,12.301840841269698 L 258.7625998782294,10.38808752452327 L 253.52646256304638,9.863421454182044 L 248.12796440088096,10.82706314784626 L 242.81064666220678,13.37823312311628 L 237.81805061749742,17.616151897592466 L 237.81805061749742,17.616151897592466 L 237.81805061749742,17.616151897592466 L 237.81805061749742,17.616151897592466 L 237.81805061749742,17.616151897592466 L 237.81805061749742,17.616151897592466 L 237.81805061749742,17.616151897592466 L 237.81805061749742,17.616151897592466 L 237.81805061749742,17.616151897592466 L 237.81805061749742,17.616151897592466 L 237.81805061749742,17.616151897592466M252.06521494020464 61.45358058284545 L 237.81805061749742,17.616151897592466 L 235.94188083014498,20.876898907822806 L 235.95992092425416,25.274171846929857 L 237.57450934702382,30.402068597457873 L 240.48798454565272,35.85468704195074 L 244.40268496733995,41.226125062952455 L 249.02094905928425,46.1104805430069 L 254.04511526868467,50.10185136465809 L 259.17752204273995,52.79433541044988 L 264.1205078286492,53.782030562926174 L 264.1205078286492,53.782030562926174 L 265.90196712192846,53.427242045446135 L 267.5751858505529,52.40497004592719 L 269.1131038733586,50.778354893751285 L 270.4886610491818,48.610536918300966 L 271.674797236859,45.96465644895791 L 272.6444522952262,42.90385381510408 L 273.37056608311974,39.49126934612188 L 273.826078459376,35.790043371393025 L 273.9839292828311,31.863316220299684 L 273.9839292828311,31.863316220299684 L 273.21271525966455,25.38541909393657 L 271.0614340371476,19.89972714357671 L 267.77362688575363,15.505460886820966 L 263.5928350759564,12.301840841269698 L 258.7625998782294,10.38808752452327 L 253.52646256304638,9.863421454182044 L 248.12796440088096,10.82706314784626 L 242.81064666220678,13.37823312311628 L 237.81805061749742,17.616151897592466 L 237.81805061749742,17.616151897592466 L 237.81805061749742,17.616151897592466 L 237.81805061749742,17.616151897592466 L 237.81805061749742,17.616151897592466 L 237.81805061749742,17.616151897592466 L 237.81805061749742,17.616151897592466 L 237.81805061749742,17.616151897592466 L 237.81805061749742,17.616151897592466 L 237.81805061749742,17.616151897592466 L 237.81805061749742,17.616151897592466 L 252.06521494020464,61.45358058284545 L 241.92968873320953,64.42418274615346 L 230.8921578207566,69.38821530852329 L 219.51186512022974,75.9036959642806 L 208.34805354901272,83.52864240775136 L 197.95996602448946,91.82107233326067 L 188.90684546404384,100.3390034351347 L 181.74793478505984,108.64045340769869 L 177.0424769049212,116.28343994527854 L 175.34971474101192,122.82598074219962 L 175.34971474101192,122.82598074219962 L 174.32593940031717,126.98422243436062 L 171.38089403699726,134.82264332478945 L 166.70399963919814,145.96240143719422 L 160.48467719506607,160.0246547952826 L 152.91234769274712,176.63056142276216 L 144.17643212038757,195.40127934334072 L 134.46635146613352,215.95796658072575 L 123.97152671813105,237.92178115862518 L 112.88137886452643,260.9138811007465 L 112.88137886452643,260.9138811007465 L 94.82625134361116,297.24663063659 L 80.55052353856448,326.86846516382667 L 69.61221314371191,351.2676924464623 L 61.569337853379146,371.9326202485024 L 55.979915361891806,390.35155633395226 L 52.40196336357555,408.01280846681766 L 50.39349955275601,426.40468441110374 L 49.5125416237588,447.0154919308163 L 49.3171072709096,471.3335387899608 L 49.3171072709096,471.3335387899608 L 50.010147552936395,502.9382803280291 L 52.26365597540535,529.3384547156055 L 56.3392139028992,550.9309440230915 L 62.49840270000076,568.1126303208883 L 71.0028037312928,581.2803956793977 L 82.11399836135813,590.8311221690208 L 96.09356795477949,597.1616918601593 L 113.20309387613972,600.6689868232147 L 133.7041574900216,601.7498891285885 L 133.7041574900216,601.7498891285885 L 145.31446139044024,601.4176507287449 L 155.6348985620542,600.2285078587161 L 165.1615715928652,597.893819012756 L 174.39058307087504,594.1249426851177 L 183.81803558408564,588.633237370055 L 193.94003172049878,581.1300615618213 L 205.2526740681164,571.32677375467 L 218.2520652149402,558.9347324428544 L 233.43430774897212,543.6652961206282 L 233.43430774897212,543.6652961206282 L 255.6627103738058,519.199921826259 L 278.1256342220585,490.33276456925523 L 300.24579628223734,458.1011297608937 L 321.44591354284904,423.5423228124508 L 341.1487029924007,387.69364913520303 L 358.7768816193991,351.5924141404273 L 373.7531664123515,316.27592323939973 L 385.5002743597646,282.78148184339705 L 393.4409224501455,252.1463953636959 L 393.4409224501455,252.1463953636959 L 398.9476611769657,212.41308808827642 L 398.20350729496306,176.1164187406511 L 391.6143629215933,143.7705300029315 L 379.5861301743124,115.88956455722852 L 362.5247111705766,92.98766508565295 L 340.8360080278419,75.57897427031587 L 314.9259228635643,64.17763479332834 L 285.20035779519986,59.2977893368011 L 252.06521494020464,61.45358058284545 L 252.06521494020464,61.45358058284545 L 252.06521494020464,61.45358058284545 L 252.06521494020464,61.45358058284545 L 252.06521494020464,61.45358058284545 L 252.06521494020464,61.45358058284545 L 252.06521494020464,61.45358058284545 L 252.06521494020464,61.45358058284545 L 252.06521494020464,61.45358058284545 L 252.06521494020464,61.45358058284545 L 252.06521494020464,61.45358058284545 L 336.4522651593166,121.73004502506829 L 336.4522651593166,121.73004502506829 L 336.4522651593166,121.73004502506829 L 336.4522651593166,121.73004502506829 L 336.4522651593166,121.73004502506829 L 336.4522651593166,121.73004502506829 L 336.4522651593166,121.73004502506829 L 336.4522651593166,121.73004502506829 L 336.4522651593166,121.73004502506829 L 336.4522651593166,121.73004502506829 L 336.4522651593166,121.73004502506829 L 342.5122334388177,127.90276389275179 L 347.58901658937003,134.17470327803548 L 351.7547749874096,140.80744454550245 L 355.08166900937346,148.06256905973527 L 357.641859031698,156.20165818531694 L 359.50750543082,165.48629328683006 L 360.7507685831761,176.17805572885746 L 361.4438088652029,188.53852687598197 L 361.6587866533371,202.8292880927863 L 361.6587866533371,202.8292880927863 L 356.11446439712256,244.82362049655373 L 340.84653141607225,294.1061509204207 L 317.9025383915754,347.41162233062994 L 289.3300360050212,401.4747776934237 L 257.17657493779933,453.0303599750447 L 223.48970587129898,498.8131121417351 L 190.3169794869097,535.5577771597376 L 159.70594646602078,559.9990979952946 L 133.7041574900216,568.8718176146486 L 133.7041574900216,568.8718176146486 L 121.50755053105526,567.2061155919031 L 110.57375015973001,562.3653570059457 L 101.02903703480992,554.5840630801957 L 92.99969181505897,544.0967550380723 L 86.61199515924142,531.1379541029941 L 81.9922277261213,515.9421814983803 L 79.26667017446277,498.74395844764996 L 78.56160316302984,479.77780617422235 L 80.00330735058668,459.2782459015163 L 80.00330735058668,459.2782459015163 L 84.79445567774377,435.6532393243986 L 93.57246480302474,406.09304178536803 L 105.61573096206321,372.29342213068554 L 120.20265039049286,335.9501492066118 L 136.61161932394748,298.7589918594076 L 154.12103399806068,262.4157189353339 L 172.00929064846622,228.6160992806514 L 189.5547855107977,199.05590174162083 L 206.03591482068902,175.4308951645032 L 206.03591482068902,175.4308951645032 L 211.41787622992095,168.1096236385368 L 216.53825627457027,160.86051248900685 L 221.29783443703636,153.83690251584147 L 225.59739019971892,147.1921345189685 L 229.33770304501755,141.07954929831556 L 232.41955245533202,135.6524876538107 L 234.74371791306183,131.0642903853816 L 236.21097890060662,127.4682982929562 L 236.72211490036608,125.01785217646227 L 236.72211490036608,125.01785217646227 L 237.08742680607648,122.78990055398145 L 237.452738711787,120.50782864917285 L 237.81805061749745,118.19869660320062 L 238.18336252320788,115.88956455722845 L 238.5486744289183,113.60749265242005 L 238.91398633462873,111.37954102993912 L 239.27929824033916,109.23276983094935 L 239.6446101460496,107.19423919661459 L 240.00992205176007,105.29100926809842 L 240.00992205176007,105.29100926809842 L 243.100791509129,100.47881416448084 L 250.28676232927688,97.64200936581558 L 260.6297496185272,96.64529416628461 L 273.19166848320396,97.35336786006903 L 287.03443402963086,99.63092974135016 L 301.21996136413185,103.34267910430947 L 314.81016559303055,108.35331524312791 L 326.86696182265086,114.52753745198709 L 336.4522651593166,121.73004502506829 L 336.4522651593166,121.73004502506829 L 336.4522651593166,121.73004502506829 L 336.4522651593166,121.73004502506829 L 336.4522651593166,121.73004502506829 L 336.4522651593166,121.73004502506829 L 336.4522651593166,121.73004502506829 L 336.4522651593166,121.73004502506829 L 336.4522651593166,121.73004502506829 L 336.4522651593166,121.73004502506829 L 336.4522651593166,121.73004502506829"/></svg>
