<?xml version="1.0" encoding="utf-8"?>
<svg xmlns="http://www.w3.org/2000/svg"  viewBox="0,0,400,614.5860371721725" width="100%">
<path d="M312.4005191370572 134.3818106129245 L 312.4005191370572,134.3818106129245 L 309.2024389646644,141.72564096285228 L 306.18801577001267,149.3633224771653 L 303.4086735068689,157.12589073634194 L 300.9158361290008,164.84438132086095 L 298.7609275901757,172.34982981120058 L 296.995371844161,179.4732717878395 L 295.67059284472424,186.0457428312559 L 294.8380145456327,191.89827852192866 L 294.5490609006539,196.86191444033594 L 294.5490609006539,196.86191444033594 L 293.99808996743155,208.84614442784738 L 292.25702181844906,220.60263976296 L 289.193623429733,232.43259788916907 L 284.67566177730987,244.6372162499694 L 278.5709038372066,257.5176922888557 L 270.74711658544953,271.37522344932296 L 261.07206699806557,286.51100717486594 L 249.4135220510812,303.22624090897966 L 235.63924872052314,321.8221220951589 L 235.63924872052314,321.8221220951589 L 223.7786810980239,337.0240223326886 L 214.01180302176954,348.9568283664324 L 205.7876435585377,357.9878541518721 L 198.555231775106,364.4844136444891 L 191.76359673825215,368.813820799765 L 184.86176751475386,371.3433895731813 L 177.29877317138877,372.44043392021945 L 168.52364277493456,372.4722677963612 L 157.98540539216893,371.806205157088 L 157.98540539216893,371.806205157088 L 145.66814408502097,371.694786590592 L 135.08460464774598,372.96446849670644 L 126.51394568650981,375.34343854837533 L 120.23532580747855,378.5598844185421 L 116.52790361681814,382.3419937801504 L 115.6708377206945,386.41795430614405 L 117.94328672527368,390.5159536694665 L 123.62440923672163,394.36417954306154 L 132.99336386120436,397.6908195998728 L 132.99336386120436,397.6908195998728 L 136.45713446139533,398.6764453804149 L 139.67847785096853,399.823689301369 L 142.61331635526614,401.0958199671867 L 145.2175722996303,402.4561059823201 L 147.4471680094033,403.8678159512208 L 149.2580258099273,405.2942184783408 L 150.6060680265446,406.69858216813196 L 151.44721698459733,408.044175625046 L 151.7373950094278,409.29426745353487 L 151.7373950094278,409.29426745353487 L 149.92163968949728,413.765702671597 L 144.74863481646554,420.4042902270001 L 136.6297720204717,428.86475500159173 L 125.97644293165514,438.8018218772193 L 113.20003918015529,449.87021573572997 L 98.7119523961114,461.7246614589712 L 82.92357420966285,474.01988392879014 L 66.24629625094892,486.4106080270344 L 49.09151015010899,498.55155863555126 L 49.09151015010899,498.55155863555126 L 39.761735680877635,505.0395474692071 L 31.974679824668815,510.8516786247767 L 25.686264906824704,516.0393760560278 L 20.852413252687523,520.6540637167277 L 17.42904718759949,524.7471655606437 L 15.372089036902814,528.3701055415434 L 14.637461125939717,531.574307613194 L 15.181085780052406,534.4111957293633 L 16.958885324583104,536.9321938438183 L 16.958885324583104,536.9321938438183 L 23.18853000955017,540.4167789014866 L 31.688174939393207,540.8085804540002 L 42.34762592746775,538.1884075715651 L 55.05668878712933,532.6370693243873 L 69.70516933173352,524.2353747826727 L 86.18287337463578,513.0641330166271 L 104.37960672919168,499.2041530964568 L 124.1851752087568,482.73624409236743 L 145.48938462668664,463.7412150745648 L 145.48938462668664,463.7412150745648 L 163.66530352376523,447.36758331904906 L 180.2176947376155,433.9104243700567 L 195.30817640864913,423.3109679947108 L 209.09836667727802,415.5104439601343 L 221.7498836839142,410.45008203345014 L 233.42434556896936,408.0711119817813 L 244.28337047285564,408.3147635722508 L 254.4885765359846,411.12226657198136 L 264.2015818987684,416.43485074809615 L 264.2015818987684,416.43485074809615 L 266.0773318314275,418.7440311482236 L 268.10000734627926,423.13955481548606 L 270.21818448955617,429.3936870974852 L 272.38043930749086,437.2786933418225 L 274.535347846316,446.5668388960993 L 276.63148615226396,457.030389107917 L 278.6174302715675,468.44160932487705 L 280.4417562504592,480.572764894581 L 282.0530401351716,493.1961211646302 L 282.0530401351716,493.1961211646302 L 283.9018537110954,507.4332100790951 L 285.86820775277334,520.3479687538263 L 287.9374097019861,531.8742806768372 L 290.09476700051437,541.9460293361415 L 292.325587090139,550.4970982197519 L 294.61517741264055,557.461370815682 L 296.9488454098,562.7727306119452 L 299.311898523398,566.3650610965548 L 301.68964419521524,568.172245757524 L 301.68964419521524,568.172245757524 L 304.4359282023655,568.3338638979359 L 306.73408918382853,566.8866469133386 L 308.5988196978232,563.6102064304432 L 310.0448123025688,558.2841540759607 L 311.0867595562849,550.6881014766022 L 311.7393540171904,540.6016602590789 L 312.0172882435048,527.8044420501018 L 311.93525479344726,512.076058476382 L 311.50794622523705,493.1961211646302 L 311.50794622523705,493.1961211646302 L 311.05615005999465,472.60205206063137 L 310.9349364546858,455.78397041898296 L 311.21042192129704,442.3525234468743 L 311.94872297181496,431.9183583514951 L 313.2159561182262,424.09212234003485 L 315.07823787251766,418.48446261968326 L 317.60168474667586,414.70602639762967 L 320.8524132526876,412.3674608810639 L 324.8965399025395,411.0794132771752 L 324.8965399025395,411.0794132771752 L 330.21647035776385,409.1595856698584 L 334.2654945270222,406.03496828856186 L 337.02891985209516,402.0875676469869 L 338.4920537747632,397.699390258834 L 338.6402037368074,393.25244263780405 L 337.4586771800084,389.1287312975979 L 334.93278154614705,385.71026275191633 L 331.04782427700377,383.37904351445997 L 325.78911281435967,382.51708009893 L 325.78911281435967,382.51708009893 L 318.63751010113384,379.0227000024489 L 313.7999853074419,369.23990498812356 L 311.21042192129704,354.2192129686314 L 310.8027034307125,335.01114185664966 L 312.5107133237017,312.6662095648554 L 316.26833508827787,288.23493400592605 L 322.0094522124545,262.7678330925387 L 329.6679481842448,237.3154247373706 L 339.1777064916621,212.9282268530989 L 339.1777064916621,212.9282268530989 L 348.828268482014,189.43727502020235 L 356.3484095305729,168.40732668903195 L 361.72343707911955,149.9191909297939 L 364.93865856943466,134.05367681269428 L 365.97938144329913,120.89159340793883 L 364.83091314249344,110.51374978573344 L 361.4785611087985,103.00095501628421 L 355.90763278399504,98.43401816979693 L 348.1034356098637,96.89374831647763 L 348.1034356098637,96.89374831647763 L 343.7348482993365,97.32717878394605 L 339.5352254083308,98.64216274456984 L 335.47518182040807,100.86073903567838 L 331.5253324191298,104.00494649460033 L 327.6562920880575,108.09682395866483 L 323.83867571075257,113.15841026520069 L 320.04309817077666,119.21174425153659 L 316.240174351691,126.27886475500156 L 312.4005191370572,134.3818106129245 L 312.4005191370572,134.3818106129245 L 312.4005191370572,134.3818106129245 L 312.4005191370572,134.3818106129245 L 312.4005191370572,134.3818106129245 L 312.4005191370572,134.3818106129245 L 312.4005191370572,134.3818106129245 L 312.4005191370572,134.3818106129245 L 312.4005191370572,134.3818106129245 L 312.4005191370572,134.3818106129245 L 312.4005191370572,134.3818106129245 L 278.482748487891,351.27702818522425 L 278.482748487891,351.27702818522425 L 278.482748487891,351.27702818522425 L 278.482748487891,351.27702818522425 L 278.482748487891,351.27702818522425 L 278.482748487891,351.27702818522425 L 278.482748487891,351.27702818522425 L 278.482748487891,351.27702818522425 L 278.482748487891,351.27702818522425 L 278.482748487891,351.27702818522425 L 278.482748487891,351.27702818522425 L 277.27183681465345,359.16570756911636 L 275.93603839655225,365.6585939221785 L 274.35046648872355,370.88057398927447 L 272.3902343463037,374.95653451526806 L 269.93045522442895,378.01136224502295 L 266.8462423782355,380.1699439234029 L 263.01270906285976,381.55716629527154 L 258.3049685334379,382.2979161054927 L 252.59813404510624,382.51708009893 L 252.59813404510624,382.51708009893 L 247.93569557019376,382.3836226951051 L 244.05930896001186,381.9783529642237 L 240.96162793545088,381.2939246271764 L 238.63530621740097,380.3229914048535 L 237.0729975267528,379.0582070181454 L 236.26735558439657,377.4922251879424 L 236.21103411122272,375.6176996351349 L 236.89668682812166,373.4272840806132 L 238.31696745598364,370.9136322452678 L 238.31696745598364,370.9136322452678 L 250.21426647403095,352.78546416240187 L 259.84156524720237,338.81529005558684 L 267.3751744741289,328.9296471337268 L 272.99140485344185,323.0550726057252 L 276.86656708377217,321.11810368048583 L 279.176971863751,323.04527756691243 L 280.09892989200983,328.7631314739085 L 279.80875186717935,338.1982026103779 L 278.482748487891,351.27702818522425 L 278.482748487891,351.27702818522425 L 278.482748487891,351.27702818522425 L 278.482748487891,351.27702818522425 L 278.482748487891,351.27702818522425 L 278.482748487891,351.27702818522425 L 278.482748487891,351.27702818522425 L 278.482748487891,351.27702818522425 L 278.482748487891,351.27702818522425 L 278.482748487891,351.27702818522425 L 278.482748487891,351.27702818522425"/></svg>
