<?xml version="1.0" encoding="utf-8"?>
<svg xmlns="http://www.w3.org/2000/svg"  viewBox="0,0,400,560.2662195803485" width="100%">
<path d="M226.66666666666666 21.006960321089316 L 226.66666666666666,21.006960321089316 L 224.52471676065636,30.383579738861076 L 224.78483970939388,39.50414062896917 L 227.1056241426612,48.00284509475179 L 231.14565869024034,55.51389523954681 L 236.56353198191331,61.67149316669211 L 243.01783264746223,66.10984097952554 L 250.16714931666922,68.46314078138498 L 257.67007061931616,68.36559467560846 L 265.18518518518516,65.45140476553377 L 265.18518518518516,65.45140476553377 L 272.0540568002844,59.85876136767787 L 276.8988467205202,53.19311080627956 L 279.78052126200276,45.808057714779245 L 280.76004674084237,38.05720672661689 L 279.8983894731495,30.294162475232426 L 277.2565157750343,22.87252959406605 L 272.89539196260733,16.14591271655753 L 266.87598435197884,10.467916476146979 L 259.25925925925924,6.192145506274502 L 259.25925925925924,6.192145506274502 L 254.82497586749986,5.090687395214293 L 250.45165879185083,4.73301834070012 L 246.20027434842248,5.094751816288104 L 242.13178885332522,6.151501295534199 L 238.3071686226693,7.878880251994106 L 234.78737997256513,10.252502159223779 L 231.6333892191231,13.247980490778916 L 228.9061626784535,16.840928720215473 L 226.66666666666666,21.006960321089316 L 226.66666666666666,21.006960321089316 L 226.66666666666666,21.006960321089316 L 226.66666666666666,21.006960321089316 L 226.66666666666666,21.006960321089316 L 226.66666666666666,21.006960321089316 L 226.66666666666666,21.006960321089316 L 226.66666666666666,21.006960321089316 L 226.66666666666666,21.006960321089316 L 226.66666666666666,21.006960321089316 L 226.66666666666666,21.006960321089316"/></svg>
