<?xml version="1.0" encoding="utf-8"?>
<svg xmlns="http://www.w3.org/2000/svg"  viewBox="0,0,400,560.2662195803485" width="100%">
<path d="M226.66666666666666 21.006960321089316 L 226.66666666666666,21.006960321089316 L 224.52471676065636,30.383579738861076 L 224.78483970939388,39.50414062896917 L 227.1056241426612,48.00284509475179 L 231.14565869024034,55.51389523954681 L 236.56353198191331,61.67149316669211 L 243.01783264746223,66.10984097952554 L 250.16714931666922,68.46314078138498 L 257.67007061931616,68.36559467560846 L 265.18518518518516,65.45140476553377 L 265.18518518518516,65.45140476553377 L 272.0540568002844,59.85876136767787 L 276.8988467205202,53.19311080627956 L 279.78052126200276,45.808057714779245 L 280.76004674084237,38.05720672661689 L 279.8983894731495,30.294162475232426 L 277.2565157750343,22.87252959406605 L 272.89539196260733,16.14591271655753 L 266.87598435197884,10.467916476146979 L 259.25925925925924,6.192145506274502 L 259.25925925925924,6.192145506274502 L 254.82497586749986,5.090687395214293 L 250.45165879185083,4.73301834070012 L 246.20027434842248,5.094751816288104 L 242.13178885332522,6.151501295534199 L 238.3071686226693,7.878880251994106 L 234.78737997256513,10.252502159223779 L 231.6333892191231,13.247980490778916 L 228.9061626784535,16.840928720215473 L 226.66666666666666,21.006960321089316 L 226.66666666666666,21.006960321089316 L 226.66666666666666,21.006960321089316 L 226.66666666666666,21.006960321089316 L 226.66666666666666,21.006960321089316 L 226.66666666666666,21.006960321089316 L 226.66666666666666,21.006960321089316 L 226.66666666666666,21.006960321089316 L 226.66666666666666,21.006960321089316 L 226.66666666666666,21.006960321089316 L 226.66666666666666,21.006960321089316M234.07407407407408 124.71066402479302 L 226.66666666666666,21.006960321089316 L 224.52471676065636,30.383579738861076 L 224.78483970939388,39.50414062896917 L 227.1056241426612,48.00284509475179 L 231.14565869024034,55.51389523954681 L 236.56353198191331,61.67149316669211 L 243.01783264746223,66.10984097952554 L 250.16714931666922,68.46314078138498 L 257.67007061931616,68.36559467560846 L 265.18518518518516,65.45140476553377 L 265.18518518518516,65.45140476553377 L 272.0540568002844,59.85876136767787 L 276.8988467205202,53.19311080627956 L 279.78052126200276,45.808057714779245 L 280.76004674084237,38.05720672661689 L 279.8983894731495,30.294162475232426 L 277.2565157750343,22.87252959406605 L 272.89539196260733,16.14591271655753 L 266.87598435197884,10.467916476146979 L 259.25925925925924,6.192145506274502 L 259.25925925925924,6.192145506274502 L 254.82497586749986,5.090687395214293 L 250.45165879185083,4.73301834070012 L 246.20027434842248,5.094751816288104 L 242.13178885332522,6.151501295534199 L 238.3071686226693,7.878880251994106 L 234.78737997256513,10.252502159223779 L 231.6333892191231,13.247980490778916 L 228.9061626784535,16.840928720215473 L 226.66666666666666,21.006960321089316 L 226.66666666666666,21.006960321089316 L 226.66666666666666,21.006960321089316 L 226.66666666666666,21.006960321089316 L 226.66666666666666,21.006960321089316 L 226.66666666666666,21.006960321089316 L 226.66666666666666,21.006960321089316 L 226.66666666666666,21.006960321089316 L 226.66666666666666,21.006960321089316 L 226.66666666666666,21.006960321089316 L 226.66666666666666,21.006960321089316 L 234.07407407407408,124.71066402479302 L 207.66753035614488,143.60006096631625 L 181.3951125336585,171.35396027028398 L 156.15912208504804,206.08240613727583 L 132.86186048874663,245.89544276787078 L 112.40562922318752,288.903114362648 L 95.69272976680384,333.2154651221867 L 83.62546359802877,376.94253924706607 L 77.10613219529543,418.1943809378652 L 77.03703703703704,455.08103439516333 L 77.03703703703704,455.08103439516333 L 83.30234212264389,487.90123456790127 L 95.0058426052939,511.33262205964536 L 111.87928669410151,525.4239699232841 L 133.65442259818116,530.2240512117056 L 160.06299852664736,525.7816389777981 L 190.83676268861456,512.1455062744501 L 225.70746329319715,489.3644261545496 L 264.4068485495097,457.4871716709852 L 306.6666666666667,416.56251587664485 L 306.6666666666667,416.56251587664485 L 332.1079103795153,389.9588477366256 L 352.5011431184271,367.7935274094396 L 368.3950617283951,349.12767362698776 L 380.33836305441247,333.0224051211706 L 388.8797439414723,318.5388406238887 L 394.5679012345679,304.73809886704265 L 397.95153177869224,290.6812985825332 L 399.5793324188386,275.42955850226093 L 400.0,258.0439973581264 L 400.0,258.0439973581264 L 399.487882944673,237.96575725245145 L 397.65889346136254,220.76512726718494 L 394.0740740740742,205.80805771477927 L 388.294467306813,192.46049890768685 L 379.88111568358477,180.08840115836003 L 368.39506172839504,168.05771477925123 L 353.3973479652492,155.73439008281258 L 334.44901691815267,142.4843773814968 L 311.1111111111111,127.67362698775597 L 311.1111111111111,127.67362698775597 L 301.0069603210892,121.52415790275889 L 292.1709089061627,116.88665345729827 L 284.2249657064472,113.73672712493021 L 276.7911395620586,112.04999237921054 L 269.49143931311283,111.80206269369506 L 261.94787379972564,112.96855154193979 L 253.78245186201286,115.5250723975005 L 244.61718234009044,119.44723873393295 L 234.07407407407408,124.71066402479302 L 234.07407407407408,124.71066402479302 L 234.07407407407408,124.71066402479302 L 234.07407407407408,124.71066402479302 L 234.07407407407408,124.71066402479302 L 234.07407407407408,124.71066402479302 L 234.07407407407408,124.71066402479302 L 234.07407407407408,124.71066402479302 L 234.07407407407408,124.71066402479302 L 234.07407407407408,124.71066402479302 L 234.07407407407408,124.71066402479302 L 339.25925925925924,218.04399735812635 L 339.25925925925924,218.04399735812635 L 339.25925925925924,218.04399735812635 L 339.25925925925924,218.04399735812635 L 339.25925925925924,218.04399735812635 L 339.25925925925924,218.04399735812635 L 339.25925925925924,218.04399735812635 L 339.25925925925924,218.04399735812635 L 339.25925925925924,218.04399735812635 L 339.25925925925924,218.04399735812635 L 339.25925925925924,218.04399735812635 L 343.5309658080576,233.84036986231783 L 341.9377127470406,253.87999796778948 L 335.0891632373114,277.1386475638876 L 323.5949804399736,302.59208453995836 L 308.0648275161307,329.21607478534776 L 289.10836762688615,355.9863841894021 L 267.3352639333435,381.87877864146725 L 243.3551795966062,405.8690240308897 L 217.77777777777777,426.9328862470152 L 217.77777777777777,426.9328862470152 L 192.7287506985723,444.4850886551847 L 171.78885332520449,457.61113651374285 L 154.7873799725652,466.2744500330234 L 141.5536249555454,470.4384494233603 L 131.91688258903625,470.06655489508717 L 125.70644718792866,465.1221866585378 L 122.75161306711374,455.56876492404615 L 122.8816745414825,441.3697099019459 L 125.92592592592592,422.48844180257083 L 125.92592592592592,422.48844180257083 L 131.41492658639433,400.21947873799735 L 138.78168978306152,376.3531981913327 L 147.70919067215362,351.5968094294569 L 157.88040440989687,326.65752171925016 L 168.9783061525174,302.2425443275923 L 180.68587105624138,279.05908652136367 L 192.68607427729515,257.81435756744406 L 204.66189097190468,239.2155667327136 L 216.2962962962963,223.96992328405227 L 216.2962962962963,223.96992328405227 L 229.19473657470905,211.57343900828138 L 243.76365391454559,202.05456485291873 L 259.3689986282579,195.43768734440891 L 275.37672102829856,191.74719300919585 L 291.1527714271199,191.00746837372358 L 306.0631001371743,193.2428999644364 L 319.47365747091396,198.47787430777836 L 330.75039374079154,206.73677793019357 L 339.25925925925924,218.04399735812635 L 339.25925925925924,218.04399735812635 L 339.25925925925924,218.04399735812635 L 339.25925925925924,218.04399735812635 L 339.25925925925924,218.04399735812635 L 339.25925925925924,218.04399735812635 L 339.25925925925924,218.04399735812635 L 339.25925925925924,218.04399735812635 L 339.25925925925924,218.04399735812635 L 339.25925925925924,218.04399735812635 L 339.25925925925924,218.04399735812635"/></svg>
