<?xml version="1.0" encoding="utf-8"?>
<svg xmlns="http://www.w3.org/2000/svg"  viewBox="0,0,400,665.9753086419754" width="100%">
<path d="M72.0 15.3086419753087 L 72.0,15.3086419753087 L 69.92592592592592,21.949702789209066 L 71.30864197530865,29.128486511202635 L 75.55555555555556,36.395061728395 L 82.07407407407406,43.29949702789205 L 90.27160493827162,49.39186099679933 L 99.55555555555554,54.22222222222233 L 109.33333333333331,57.34064929126666 L 119.01234567901231,58.29721079103805 L 128.0,56.64197530864204 L 128.0,56.64197530864204 L 135.45861911294006,52.843164151806306 L 140.95290352080477,47.881115683584845 L 144.49382716049385,42.07407407407406 L 146.0923639689072,35.74028349336997 L 145.75948788294465,29.197988111568446 L 143.50617283950615,22.765432098765512 L 139.34339277549154,16.76085962505719 L 133.28212162780062,11.502514860539653 L 125.33333333333333,7.308641975308698 L 125.33333333333333,7.308641975308698 L 115.77869227251941,3.851851851852113 L 107.46410608139006,1.4814814814815236 L 100.24691358024693,0.19753086419753652 L 93.98445358939185,0.0 L 88.53406492912666,0.8888888888889142 L 83.75308641975307,2.864197530864279 L 79.49885688157292,5.925925925925943 L 75.62871513488797,10.074074074074133 L 72.0,15.3086419753087 L 72.0,15.3086419753087 L 72.0,15.3086419753087 L 72.0,15.3086419753087 L 72.0,15.3086419753087 L 72.0,15.3086419753087 L 72.0,15.3086419753087 L 72.0,15.3086419753087 L 72.0,15.3086419753087 L 72.0,15.3086419753087 L 72.0,15.3086419753087"/></svg>
