<?xml version="1.0" encoding="utf-8"?>
<svg xmlns="http://www.w3.org/2000/svg"  viewBox="0,0,400,665.9753086419754" width="100%">
<path d="M72.0 15.3086419753087 L 72.0,15.3086419753087 L 69.92592592592592,21.949702789209066 L 71.30864197530865,29.128486511202635 L 75.55555555555556,36.395061728395 L 82.07407407407406,43.29949702789205 L 90.27160493827162,49.39186099679933 L 99.55555555555554,54.22222222222233 L 109.33333333333331,57.34064929126666 L 119.01234567901231,58.29721079103805 L 128.0,56.64197530864204 L 128.0,56.64197530864204 L 135.45861911294006,52.843164151806306 L 140.95290352080477,47.881115683584845 L 144.49382716049385,42.07407407407406 L 146.0923639689072,35.74028349336997 L 145.75948788294465,29.197988111568446 L 143.50617283950615,22.765432098765512 L 139.34339277549154,16.76085962505719 L 133.28212162780062,11.502514860539653 L 125.33333333333333,7.308641975308698 L 125.33333333333333,7.308641975308698 L 115.77869227251941,3.851851851852113 L 107.46410608139006,1.4814814814815236 L 100.24691358024693,0.19753086419753652 L 93.98445358939185,0.0 L 88.53406492912666,0.8888888888889142 L 83.75308641975307,2.864197530864279 L 79.49885688157292,5.925925925925943 L 75.62871513488797,10.074074074074133 L 72.0,15.3086419753087 L 72.0,15.3086419753087 L 72.0,15.3086419753087 L 72.0,15.3086419753087 L 72.0,15.3086419753087 L 72.0,15.3086419753087 L 72.0,15.3086419753087 L 72.0,15.3086419753087 L 72.0,15.3086419753087 L 72.0,15.3086419753087 L 72.0,15.3086419753087M93.33333333333333 208.64197530864203 L 72.0,15.3086419753087 L 69.92592592592592,21.949702789209066 L 71.30864197530865,29.128486511202635 L 75.55555555555556,36.395061728395 L 82.07407407407406,43.29949702789205 L 90.27160493827162,49.39186099679933 L 99.55555555555554,54.22222222222233 L 109.33333333333331,57.34064929126666 L 119.01234567901231,58.29721079103805 L 128.0,56.64197530864204 L 128.0,56.64197530864204 L 135.45861911294006,52.843164151806306 L 140.95290352080477,47.881115683584845 L 144.49382716049385,42.07407407407406 L 146.0923639689072,35.74028349336997 L 145.75948788294465,29.197988111568446 L 143.50617283950615,22.765432098765512 L 139.34339277549154,16.76085962505719 L 133.28212162780062,11.502514860539653 L 125.33333333333333,7.308641975308698 L 125.33333333333333,7.308641975308698 L 115.77869227251941,3.851851851852113 L 107.46410608139006,1.4814814814815236 L 100.24691358024693,0.19753086419753652 L 93.98445358939185,0.0 L 88.53406492912666,0.8888888888889142 L 83.75308641975307,2.864197530864279 L 79.49885688157292,5.925925925925943 L 75.62871513488797,10.074074074074133 L 72.0,15.3086419753087 L 72.0,15.3086419753087 L 72.0,15.3086419753087 L 72.0,15.3086419753087 L 72.0,15.3086419753087 L 72.0,15.3086419753087 L 72.0,15.3086419753087 L 72.0,15.3086419753087 L 72.0,15.3086419753087 L 72.0,15.3086419753087 L 72.0,15.3086419753087 L 93.33333333333333,208.64197530864203 L 81.65523548239595,220.92363968907193 L 71.41472336534066,233.01874714220398 L 62.46913580246915,245.1358024691359 L 54.67581161408322,257.48331047096485 L 47.89208962048468,270.2697759487884 L 41.97530864197531,283.70370370370387 L 36.78280749885688,297.9935985368085 L 32.171925011431185,313.3479652491999 L 28.0,329.9753086419754 L 28.0,329.9753086419754 L 21.461362597165063,379.9945130315502 L 22.90077732053041,426.52400548696846 L 31.901234567901227,468.9382716049383 L 48.04572473708275,506.61179698216745 L 70.91723822588021,538.9190672153636 L 100.09876543209874,565.2345679012346 L 135.1732967535436,584.9327846364885 L 175.72382258802008,597.3882030178328 L 221.33333333333334,601.9753086419754 L 221.33333333333334,601.9753086419754 L 256.25605852766336,599.6543209876544 L 287.9743941472336,591.1111111111112 L 316.2469135802469,576.6419753086421 L 340.8321902149063,556.5432098765433 L 361.4887974394148,531.1111111111112 L 377.9753086419753,500.64197530864203 L 390.05029721079103,465.4320987654322 L 397.4723365340649,425.7777777777779 L 400.0,381.97530864197535 L 400.0,381.97530864197535 L 397.54183813443063,336.06218564243267 L 390.2112482853224,295.26291723822595 L 378.07407407407413,259.6543209876544 L 361.19615912208513,229.31321444901704 L 339.6433470507544,204.3164151806127 L 313.48148148148147,184.74074074074088 L 282.77640603566533,170.66300868770017 L 247.59396433470508,162.16003657978976 L 208.0,159.30864197530872 L 208.0,159.30864197530872 L 190.41609510745306,159.55189757658914 L 175.4769090077732,160.4645633287609 L 162.5679012345679,162.32098765432102 L 151.07453132144494,165.39551897576592 L 140.38225880201188,169.96250571559216 L 129.87654320987656,176.2962962962963 L 118.94284407864654,184.671239140375 L 106.96662094192959,195.3616826703247 L 93.33333333333333,208.64197530864203 L 93.33333333333333,208.64197530864203 L 93.33333333333333,208.64197530864203 L 93.33333333333333,208.64197530864203 L 93.33333333333333,208.64197530864203 L 93.33333333333333,208.64197530864203 L 93.33333333333333,208.64197530864203 L 93.33333333333333,208.64197530864203 L 93.33333333333333,208.64197530864203 L 93.33333333333333,208.64197530864203 L 93.33333333333333,208.64197530864203 L 292.0,233.97530864197537 L 292.0,233.97530864197537 L 292.0,233.97530864197537 L 292.0,233.97530864197537 L 292.0,233.97530864197537 L 292.0,233.97530864197537 L 292.0,233.97530864197537 L 292.0,233.97530864197537 L 292.0,233.97530864197537 L 292.0,233.97530864197537 L 292.0,233.97530864197537 L 316.9876543209876,259.2940100594423 L 335.95061728395063,288.3767718335619 L 348.8888888888889,320.246913580247 L 355.8024691358025,353.9277549154093 L 356.6913580246914,388.4426154549612 L 351.55555555555554,422.81481481481484 L 340.3950617283951,456.06767261088254 L 323.2098765432098,487.22450845907645 L 300.0,515.3086419753088 L 300.0,515.3086419753088 L 284.48834019204384,529.7832647462279 L 269.73388203017834,541.2290809327847 L 255.40740740740745,549.6790123456791 L 241.17969821673532,555.1659807956105 L 226.72153635116595,557.7229080932785 L 211.7037037037037,557.3827160493828 L 195.79698216735255,554.178326474623 L 178.6721536351166,548.1426611796983 L 160.0,539.3086419753087 L 160.0,539.3086419753087 L 141.3479652491998,528.3145861911296 L 124.56149977137633,515.8500228623686 L 109.72839506172842,502.0246913580247 L 96.93644261545496,486.9483310470966 L 86.27343392775492,470.73068129858257 L 77.82716049382715,453.48148148148164 L 71.68541380887059,435.31047096479205 L 67.93598536808413,416.32738911751267 L 66.66666666666667,396.6419753086421 L 66.66666666666667,396.6419753086421 L 68.22130772748055,375.4769090077733 L 72.58527663465934,352.6547782350252 L 79.30864197530865,329.1851851851852 L 87.94147233653406,306.07773205304073 L 98.03383630544124,284.3420210333792 L 109.1358024691358,264.98765432098776 L 120.79743941472334,249.024234110654 L 132.56881572930953,237.46136259716516 L 144.0,231.30864197530872 L 144.0,231.30864197530872 L 148.27251943301326,229.8344764517606 L 152.99497027892087,228.10791037951543 L 158.0246913580247,226.17283950617283 L 163.21902149062646,224.0731595793325 L 168.43529949702787,221.85276634659357 L 173.5308641975309,219.55555555555569 L 178.36305441243712,217.22542295381808 L 182.7892089620485,214.9062642889804 L 186.66666666666666,212.64197530864203 L 186.66666666666666,212.64197530864203 L 198.00457247370824,206.92089620484694 L 209.02423411065385,203.12025605852767 L 219.90123456790127,201.28395061728392 L 230.81115683584818,201.45587562871515 L 241.92958390489255,203.67992684042073 L 253.43209876543207,208.00000000000009 L 265.4942844078646,214.45999085505267 L 278.291723822588,223.10379515317794 L 292.0,233.97530864197537 L 292.0,233.97530864197537 L 292.0,233.97530864197537 L 292.0,233.97530864197537 L 292.0,233.97530864197537 L 292.0,233.97530864197537 L 292.0,233.97530864197537 L 292.0,233.97530864197537 L 292.0,233.97530864197537 L 292.0,233.97530864197537 L 292.0,233.97530864197537M241.33333333333334 17.975308641975364 L 72.0,15.3086419753087 L 69.92592592592592,21.949702789209066 L 71.30864197530865,29.128486511202635 L 75.55555555555556,36.395061728395 L 82.07407407407406,43.29949702789205 L 90.27160493827162,49.39186099679933 L 99.55555555555554,54.22222222222233 L 109.33333333333331,57.34064929126666 L 119.01234567901231,58.29721079103805 L 128.0,56.64197530864204 L 128.0,56.64197530864204 L 135.45861911294006,52.843164151806306 L 140.95290352080477,47.881115683584845 L 144.49382716049385,42.07407407407406 L 146.0923639689072,35.74028349336997 L 145.75948788294465,29.197988111568446 L 143.50617283950615,22.765432098765512 L 139.34339277549154,16.76085962505719 L 133.28212162780062,11.502514860539653 L 125.33333333333333,7.308641975308698 L 125.33333333333333,7.308641975308698 L 115.77869227251941,3.851851851852113 L 107.46410608139006,1.4814814814815236 L 100.24691358024693,0.19753086419753652 L 93.98445358939185,0.0 L 88.53406492912666,0.8888888888889142 L 83.75308641975307,2.864197530864279 L 79.49885688157292,5.925925925925943 L 75.62871513488797,10.074074074074133 L 72.0,15.3086419753087 L 72.0,15.3086419753087 L 72.0,15.3086419753087 L 72.0,15.3086419753087 L 72.0,15.3086419753087 L 72.0,15.3086419753087 L 72.0,15.3086419753087 L 72.0,15.3086419753087 L 72.0,15.3086419753087 L 72.0,15.3086419753087 L 72.0,15.3086419753087 L 93.33333333333333,208.64197530864203 L 81.65523548239595,220.92363968907193 L 71.41472336534066,233.01874714220398 L 62.46913580246915,245.1358024691359 L 54.67581161408322,257.48331047096485 L 47.89208962048468,270.2697759487884 L 41.97530864197531,283.70370370370387 L 36.78280749885688,297.9935985368085 L 32.171925011431185,313.3479652491999 L 28.0,329.9753086419754 L 28.0,329.9753086419754 L 21.461362597165063,379.9945130315502 L 22.90077732053041,426.52400548696846 L 31.901234567901227,468.9382716049383 L 48.04572473708275,506.61179698216745 L 70.91723822588021,538.9190672153636 L 100.09876543209874,565.2345679012346 L 135.1732967535436,584.9327846364885 L 175.72382258802008,597.3882030178328 L 221.33333333333334,601.9753086419754 L 221.33333333333334,601.9753086419754 L 256.25605852766336,599.6543209876544 L 287.9743941472336,591.1111111111112 L 316.2469135802469,576.6419753086421 L 340.8321902149063,556.5432098765433 L 361.4887974394148,531.1111111111112 L 377.9753086419753,500.64197530864203 L 390.05029721079103,465.4320987654322 L 397.4723365340649,425.7777777777779 L 400.0,381.97530864197535 L 400.0,381.97530864197535 L 397.54183813443063,336.06218564243267 L 390.2112482853224,295.26291723822595 L 378.07407407407413,259.6543209876544 L 361.19615912208513,229.31321444901704 L 339.6433470507544,204.3164151806127 L 313.48148148148147,184.74074074074088 L 282.77640603566533,170.66300868770017 L 247.59396433470508,162.16003657978976 L 208.0,159.30864197530872 L 208.0,159.30864197530872 L 190.41609510745306,159.55189757658914 L 175.4769090077732,160.4645633287609 L 162.5679012345679,162.32098765432102 L 151.07453132144494,165.39551897576592 L 140.38225880201188,169.96250571559216 L 129.87654320987656,176.2962962962963 L 118.94284407864654,184.671239140375 L 106.96662094192959,195.3616826703247 L 93.33333333333333,208.64197530864203 L 93.33333333333333,208.64197530864203 L 93.33333333333333,208.64197530864203 L 93.33333333333333,208.64197530864203 L 93.33333333333333,208.64197530864203 L 93.33333333333333,208.64197530864203 L 93.33333333333333,208.64197530864203 L 93.33333333333333,208.64197530864203 L 93.33333333333333,208.64197530864203 L 93.33333333333333,208.64197530864203 L 93.33333333333333,208.64197530864203 L 292.0,233.97530864197537 L 292.0,233.97530864197537 L 292.0,233.97530864197537 L 292.0,233.97530864197537 L 292.0,233.97530864197537 L 292.0,233.97530864197537 L 292.0,233.97530864197537 L 292.0,233.97530864197537 L 292.0,233.97530864197537 L 292.0,233.97530864197537 L 292.0,233.97530864197537 L 316.9876543209876,259.2940100594423 L 335.95061728395063,288.3767718335619 L 348.8888888888889,320.246913580247 L 355.8024691358025,353.9277549154093 L 356.6913580246914,388.4426154549612 L 351.55555555555554,422.81481481481484 L 340.3950617283951,456.06767261088254 L 323.2098765432098,487.22450845907645 L 300.0,515.3086419753088 L 300.0,515.3086419753088 L 284.48834019204384,529.7832647462279 L 269.73388203017834,541.2290809327847 L 255.40740740740745,549.6790123456791 L 241.17969821673532,555.1659807956105 L 226.72153635116595,557.7229080932785 L 211.7037037037037,557.3827160493828 L 195.79698216735255,554.178326474623 L 178.6721536351166,548.1426611796983 L 160.0,539.3086419753087 L 160.0,539.3086419753087 L 141.3479652491998,528.3145861911296 L 124.56149977137633,515.8500228623686 L 109.72839506172842,502.0246913580247 L 96.93644261545496,486.9483310470966 L 86.27343392775492,470.73068129858257 L 77.82716049382715,453.48148148148164 L 71.68541380887059,435.31047096479205 L 67.93598536808413,416.32738911751267 L 66.66666666666667,396.6419753086421 L 66.66666666666667,396.6419753086421 L 68.22130772748055,375.4769090077733 L 72.58527663465934,352.6547782350252 L 79.30864197530865,329.1851851851852 L 87.94147233653406,306.07773205304073 L 98.03383630544124,284.3420210333792 L 109.1358024691358,264.98765432098776 L 120.79743941472334,249.024234110654 L 132.56881572930953,237.46136259716516 L 144.0,231.30864197530872 L 144.0,231.30864197530872 L 148.27251943301326,229.8344764517606 L 152.99497027892087,228.10791037951543 L 158.0246913580247,226.17283950617283 L 163.21902149062646,224.0731595793325 L 168.43529949702787,221.85276634659357 L 173.5308641975309,219.55555555555569 L 178.36305441243712,217.22542295381808 L 182.7892089620485,214.9062642889804 L 186.66666666666666,212.64197530864203 L 186.66666666666666,212.64197530864203 L 198.00457247370824,206.92089620484694 L 209.02423411065385,203.12025605852767 L 219.90123456790127,201.28395061728392 L 230.81115683584818,201.45587562871515 L 241.92958390489255,203.67992684042073 L 253.43209876543207,208.00000000000009 L 265.4942844078646,214.45999085505267 L 278.291723822588,223.10379515317794 L 292.0,233.97530864197537 L 292.0,233.97530864197537 L 292.0,233.97530864197537 L 292.0,233.97530864197537 L 292.0,233.97530864197537 L 292.0,233.97530864197537 L 292.0,233.97530864197537 L 292.0,233.97530864197537 L 292.0,233.97530864197537 L 292.0,233.97530864197537 L 292.0,233.97530864197537 L 241.33333333333334,17.975308641975364 L 235.48788294467303,26.29355281207154 L 232.10059442158212,34.24965706447188 L 231.06172839506175,41.679012345678906 L 232.2615454961134,48.41700960219479 L 235.59030635573842,54.2990397805213 L 240.93827160493825,59.160493827160515 L 248.1957018747142,62.83676268861458 L 257.25285779606764,65.16323731138559 L 268.0,65.97530864197537 L 268.0,65.97530864197537 L 274.1764974851394,65.67169638774598 L 279.387288523091,64.7315957933243 L 283.65432098765433,63.111111111111164 L 286.99954275262917,60.7663465935071 L 289.4449016918153,57.65340649291269 L 291.0123456790123,53.728395061728556 L 291.72382258802014,48.94741655235491 L 291.60128029263836,43.26657521719259 L 290.6666666666667,36.64197530864203 L 290.6666666666667,36.64197530864203 L 288.2725194330132,25.686328303612378 L 284.748056698674,16.84865112025606 L 280.2469135802469,10.172839506172824 L 274.9227251943301,5.702789208962107 L 268.92912665752175,3.4823959762231125 L 262.41975308641975,3.5555555555556566 L 255.54823959762234,5.966163694558797 L 248.46822130772745,10.758116140832271 L 241.33333333333334,17.975308641975364 L 241.33333333333334,17.975308641975364 L 241.33333333333334,17.975308641975364 L 241.33333333333334,17.975308641975364 L 241.33333333333334,17.975308641975364 L 241.33333333333334,17.975308641975364 L 241.33333333333334,17.975308641975364 L 241.33333333333334,17.975308641975364 L 241.33333333333334,17.975308641975364 L 241.33333333333334,17.975308641975364 L 241.33333333333334,17.975308641975364"/></svg>
