<?xml version="1.0" encoding="utf-8"?>
<svg xmlns="http://www.w3.org/2000/svg"  viewBox="0,0,400,806.9763852446366" width="100%">
<path d="M158.35777126099708 295.23074548541445 L 158.35777126099708,295.23074548541445 L 145.60317378653542,306.4396083071806 L 138.30895257041269,316.6195057536313 L 136.2555949992283,325.60580336471685 L 139.22358845958172,333.23386668038614 L 146.99342033807233,339.33906124058933 L 159.34557802129956,343.7567525852756 L 176.060548895863,346.32230625439456 L 196.91882034836198,346.871087787896 L 221.7008797653959,345.2384627257293 L 221.7008797653959,345.2384627257293 L 248.53172357416835,342.9953182075425 L 270.5195703497911,343.3451664351494 L 288.2543602407779,346.9053866337397 L 302.3260333956429,354.29335802850227 L 313.3245299629001,366.12645984462625 L 321.83979009106343,383.02207130730056 L 328.461753928647,405.5975716417143 L 333.7803616241647,434.4703400730566 L 338.3855533261306,470.2577558265165 L 338.3855533261306,470.2577558265165 L 341.2689429667358,494.3446919677821 L 343.17824538537616,513.547472460885 L 344.00370427535125,528.2914029942892 L 343.6355633299607,539.0017892564583 L 341.96406624250426,546.1039369358555 L 338.8794567062819,550.0231517209446 L 334.27197841459304,551.1847393001892 L 328.03187506073755,550.0140053620529 L 320.04939033801514,546.9362555949992 L 320.04939033801514,546.9362555949992 L 297.5676401822412,538.597062875501 L 273.91972926777686,532.4529962900083 L 249.79163451149876,528.4766167618459 L 225.86933283028364,526.6404852143393 L 202.83880114100828,526.9171625708129 L 181.3860163605495,529.2792097545918 L 162.19695540578397,533.699187689001 L 145.95759519358845,540.1496572973653 L 133.35391264083964,548.6031795030098 L 133.35391264083964,548.6031795030098 L 119.63894748275051,564.1405566702682 L 109.57337952244573,582.3944024283583 L 103.10233060657512,602.5003858620158 L 100.17092258178847,623.5941760559758 L 100.72427729473573,644.8114420949736 L 104.70751659206668,665.2878530637445 L 112.06576232043125,684.1590780470239 L 122.74413632647928,700.5607861295468 L 136.68776045686064,713.6286463960489 L 136.68776045686064,713.6286463960489 L 156.04374246139952,723.9457392258752 L 179.9134525789874,731.5875220798822 L 207.007254205896,736.5951535730824 L 236.035510738397,739.0097923204885 L 265.7085855727622,738.8725969371131 L 294.7368421052631,736.2247260379689 L 321.8306437321717,731.1073382380685 L 345.7003538497596,723.561592152424 L 365.05633585429854,713.6286463960489 L 365.05633585429854,713.6286463960489 L 376.45955880251296,705.2277157540316 L 385.28350854327095,696.7993460353393 L 391.7888563049854,686.8343880228431 L 396.2362733160696,673.8236924994142 L 398.8864308049368,656.2581102479236 L 400.0,632.6284920512425 L 399.83765212967256,601.4256886922423 L 398.66005842236746,561.1405509537939 L 396.72789010649797,510.2639296187684 L 396.72789010649797,510.2639296187684 L 394.5236176136006,462.840058765356 L 392.1821497373281,424.25157060131596 L 389.44281524926697,393.332304367958 L 386.04494292100406,368.9160993065917 L 381.7278615241264,349.83679465852646 L 376.23089983022066,334.92822966507185 L 369.293386610874,323.0242435675374 L 360.6546506376727,312.9586756072325 L 350.0540206822041,303.5653650254669 L 350.0540206822041,303.5653650254669 L 333.54712947242655,293.01732663362554 L 313.5691950632529,284.7467316058147 L 291.09430467664765,278.808458095385 L 267.09654553457614,275.2573842556865 L 242.55000485900317,274.14838824006915 L 218.42876987189385,275.5363482018831 L 195.70692779521306,279.4761422944785 L 175.35856585092583,286.0226486712056 L 158.35777126099708,295.23074548541445 L 158.35777126099708,295.23074548541445 L 158.35777126099708,295.23074548541445 L 158.35777126099708,295.23074548541445 L 158.35777126099708,295.23074548541445 L 158.35777126099708,295.23074548541445 L 158.35777126099708,295.23074548541445 L 158.35777126099708,295.23074548541445 L 158.35777126099708,295.23074548541445 L 158.35777126099708,295.23074548541445 L 158.35777126099708,295.23074548541445 L 283.3770643617843,608.6124401913877 L 283.3770643617843,608.6124401913877 L 283.3770643617843,608.6124401913877 L 283.3770643617843,608.6124401913877 L 283.3770643617843,608.6124401913877 L 283.3770643617843,608.6124401913877 L 283.3770643617843,608.6124401913877 L 283.3770643617843,608.6124401913877 L 283.3770643617843,608.6124401913877 L 283.3770643617843,608.6124401913877 L 283.3770643617843,608.6124401913877 L 299.27114952581843,618.6802947414153 L 311.5021179537309,626.923450692551 L 320.2346041055719,633.7397746565829 L 325.6332424413919,639.5271332452996 L 327.8626674212413,644.68339307049 L 327.08751350517053,649.6064207439421 L 323.4724151532301,654.6940828774445 L 317.18200682547035,660.344246082786 L 308.3809229819417,666.9547769717549 L 308.3809229819417,666.9547769717549 L 288.1560368826922,679.0919952210276 L 266.97078309981543,686.7566439722638 L 245.71693162525088,690.168235838864 L 225.28625245093838,689.5462834342292 L 206.5705155688178,685.1102993717595 L 190.46149097082883,677.0797962648558 L 177.85094864891136,665.6742867269185 L 169.63065859500495,651.113283371348 L 166.69239080104956,633.6162988115451 L 166.69239080104956,633.6162988115451 L 167.89513699530676,612.6185453859479 L 171.62227824367045,596.2717154567749 L 178.0521685445285,584.5346504090138 L 187.36316189626888,577.3661916276518 L 199.73361229727956,574.7251804976763 L 215.34187374594845,576.5704584040747 L 234.36630024066358,582.8608667318346 L 256.98524577981283,593.555246865943 L 283.3770643617843,608.6124401913877 L 283.3770643617843,608.6124401913877 L 283.3770643617843,608.6124401913877 L 283.3770643617843,608.6124401913877 L 283.3770643617843,608.6124401913877 L 283.3770643617843,608.6124401913877 L 283.3770643617843,608.6124401913877 L 283.3770643617843,608.6124401913877 L 283.3770643617843,608.6124401913877 L 283.3770643617843,608.6124401913877 L 283.3770643617843,608.6124401913877"/></svg>
