<?xml version="1.0" encoding="utf-8"?>
<svg xmlns="http://www.w3.org/2000/svg"  viewBox="0,0,400,578.8884158743674" width="100%">
<path d="M154.48275862068965 16.129795184712187 L 154.48275862068965,16.129795184712187 L 146.24284565536158,26.029043091623016 L 140.77290572820587,36.166690317392735 L 137.9821200510856,46.16810936095739 L 137.77966983586398,55.65867272125255 L 140.07473629440423,64.26375289721396 L 144.7765006385696,71.6087223877774 L 151.79414408022325,77.31895369187833 L 161.0368478312284,81.01981930845287 L 172.41379310344828,82.33669173643632 L 172.41379310344828,82.33669173643632 L 182.89768695898957,81.15415543257188 L 193.04101035901803,77.78061586490712 L 202.60536398467434,72.47717704933542 L 211.35234851709944,65.50494300175019 L 219.04356463743437,57.125017738044576 L 225.4406130268199,47.598505274111965 L 230.30509436639704,37.186509625845595 L 233.39860933730665,26.150134809138702 L 234.48275862068965,14.750484839884598 L 234.48275862068965,14.750484839884598 L 232.42041530674985,8.667518092805604 L 226.77072986140678,4.1965848351543995 L 218.33971902937424,1.3149803698973395 L 207.93339955536638,0.0 L 196.35778818409725,0.228939028428111 L 184.41890166028094,1.9790927581477171 L 172.92275672863155,5.227756492124392 L 162.6753701338631,9.952225533323867 L 154.48275862068965,16.129795184712187 L 154.48275862068965,16.129795184712187 L 154.48275862068965,16.129795184712187 L 154.48275862068965,16.129795184712187 L 154.48275862068965,16.129795184712187 L 154.48275862068965,16.129795184712187 L 154.48275862068965,16.129795184712187 L 154.48275862068965,16.129795184712187 L 154.48275862068965,16.129795184712187 L 154.48275862068965,16.129795184712187 L 154.48275862068965,16.129795184712187"/></svg>
