<?xml version="1.0" encoding="utf-8"?>
<svg xmlns="http://www.w3.org/2000/svg"  viewBox="0,0,400,578.8884158743674" width="100%">
<path d="M154.48275862068965 16.129795184712187 L 154.48275862068965,16.129795184712187 L 146.24284565536158,26.029043091623016 L 140.77290572820587,36.166690317392735 L 137.9821200510856,46.16810936095739 L 137.77966983586398,55.65867272125255 L 140.07473629440423,64.26375289721396 L 144.7765006385696,71.6087223877774 L 151.79414408022325,77.31895369187833 L 161.0368478312284,81.01981930845287 L 172.41379310344828,82.33669173643632 L 172.41379310344828,82.33669173643632 L 182.89768695898957,81.15415543257188 L 193.04101035901803,77.78061586490712 L 202.60536398467434,72.47717704933542 L 211.35234851709944,65.50494300175019 L 219.04356463743437,57.125017738044576 L 225.4406130268199,47.598505274111965 L 230.30509436639704,37.186509625845595 L 233.39860933730665,26.150134809138702 L 234.48275862068965,14.750484839884598 L 234.48275862068965,14.750484839884598 L 232.42041530674985,8.667518092805604 L 226.77072986140678,4.1965848351543995 L 218.33971902937424,1.3149803698973395 L 207.93339955536638,0.0 L 196.35778818409725,0.228939028428111 L 184.41890166028094,1.9790927581477171 L 172.92275672863155,5.227756492124392 L 162.6753701338631,9.952225533323867 L 154.48275862068965,16.129795184712187 L 154.48275862068965,16.129795184712187 L 154.48275862068965,16.129795184712187 L 154.48275862068965,16.129795184712187 L 154.48275862068965,16.129795184712187 L 154.48275862068965,16.129795184712187 L 154.48275862068965,16.129795184712187 L 154.48275862068965,16.129795184712187 L 154.48275862068965,16.129795184712187 L 154.48275862068965,16.129795184712187 L 154.48275862068965,16.129795184712187M179.31034482758622 189.92289863298808 L 154.48275862068965,16.129795184712187 L 146.24284565536158,26.029043091623016 L 140.77290572820587,36.166690317392735 L 137.9821200510856,46.16810936095739 L 137.77966983586398,55.65867272125255 L 140.07473629440423,64.26375289721396 L 144.7765006385696,71.6087223877774 L 151.79414408022325,77.31895369187833 L 161.0368478312284,81.01981930845287 L 172.41379310344828,82.33669173643632 L 172.41379310344828,82.33669173643632 L 182.89768695898957,81.15415543257188 L 193.04101035901803,77.78061586490712 L 202.60536398467434,72.47717704933542 L 211.35234851709944,65.50494300175019 L 219.04356463743437,57.125017738044576 L 225.4406130268199,47.598505274111965 L 230.30509436639704,37.186509625845595 L 233.39860933730665,26.150134809138702 L 234.48275862068965,14.750484839884598 L 234.48275862068965,14.750484839884598 L 232.42041530674985,8.667518092805604 L 226.77072986140678,4.1965848351543995 L 218.33971902937424,1.3149803698973395 L 207.93339955536638,0.0 L 196.35778818409725,0.228939028428111 L 184.41890166028094,1.9790927581477171 L 172.92275672863155,5.227756492124392 L 162.6753701338631,9.952225533323867 L 154.48275862068965,16.129795184712187 L 154.48275862068965,16.129795184712187 L 154.48275862068965,16.129795184712187 L 154.48275862068965,16.129795184712187 L 154.48275862068965,16.129795184712187 L 154.48275862068965,16.129795184712187 L 154.48275862068965,16.129795184712187 L 154.48275862068965,16.129795184712187 L 154.48275862068965,16.129795184712187 L 154.48275862068965,16.129795184712187 L 154.48275862068965,16.129795184712187 L 179.31034482758622,189.92289863298808 L 153.18102265739554,204.3290289011874 L 126.08675086325151,223.74154486542741 L 99.10600255427846,246.93439288586154 L 73.31725083960079,272.6815193226432 L 49.79896882834303,299.7568705359255 L 29.62962962962963,326.9343928858617 L 13.887706352585035,352.98803273260495 L 3.6516721063336677,376.6917364363086 L 0.0,396.819450357126 L 0.0,396.819450357126 L 1.5231067593775125,408.3610046828438 L 5.850243602478597,419.77768317487346 L 12.618135376756065,430.74026772621926 L 21.46350692966274,440.91954022988506 L 32.023083108651434,449.9862825788752 L 43.93358876117496,457.6112766661937 L 56.831748734686144,463.4653043848446 L 70.35428787663781,467.2191476278322 L 84.13793103448276,468.5435882881605 L 84.13793103448276,468.5435882881605 L 90.83960077574379,468.09706257982134 L 98.82408589943712,466.8104630812166 L 107.84163473818649,464.7632562319663 L 117.6424956246157,462.0349084716902 L 127.97691689134857,458.7048862400076 L 138.59514687100892,454.85265597653853 L 149.24743389622063,450.5576841209026 L 159.68402629960738,445.89943711271945 L 169.6551724137931,440.9573813916088 L 169.6551724137931,440.9573813916088 L 178.7711082730239,436.01532567049816 L 187.61458776784448,431.35707866231496 L 196.0153256704981,427.062106806679 L 203.80303675322833,423.20987654320993 L 210.80743578827872,419.87985431152737 L 216.8582375478927,417.15150655125126 L 221.78515680431386,415.10429970200096 L 225.41790832978572,413.81770020339627 L 227.58620689655172,413.37117449505706 L 227.58620689655172,413.37117449505706 L 228.9125396149661,414.11664538101326 L 230.12534884820965,416.2698074830898 L 231.21328224776502,419.70578496759856 L 232.16498746511522,424.29970200085154 L 232.96911215174308,429.9266827491604 L 233.61430395913155,436.4618513788374 L 234.08921053876358,443.7803320561942 L 234.38247954212196,451.75724894754273 L 234.48275862068965,460.26772621919497 L 234.48275862068965,460.26772621919497 L 235.4439241284707,477.21678255522454 L 238.28957949009035,492.1564732037274 L 242.962962962963,505.01868407360115 L 249.40731280450314,515.735301073743 L 257.5658672721253,524.2382101130506 L 267.3818646232439,530.4592971004212 L 278.7985431152736,534.330447944752 L 291.75914100562886,535.7835485549407 L 306.2068965517241,534.7504848398846 L 306.2068965517241,534.7504848398846 L 319.88458445674274,531.4999290478219 L 330.51984295917885,525.9107894612365 L 338.0332056194125,518.7096163852232 L 342.3452059978241,510.6229601248759 L 343.37637765479406,502.3773709852893 L 341.0472541507024,494.6993992715577 L 335.2783690459297,488.3155952887754 L 325.9902559008562,483.9525093420369 L 313.1034482758621,482.33669173643636 L 313.1034482758621,482.33669173643636 L 302.8428172744903,482.1191050565253 L 294.87536067357274,480.80034057045555 L 288.93997445721584,477.3813916087224 L 284.7755546095265,470.8632515018212 L 282.12099711461144,460.24691358024694 L 280.71519795657724,444.53337117449513 L 280.2970531195308,422.72361761506085 L 280.6054585875786,393.8186462324394 L 281.37931034482756,356.819450357126 L 281.37931034482756,356.819450357126 L 281.65365876732415,321.9185468993899 L 281.42850385506836,293.80634785487916 L 280.5108556832695,271.5065512511234 L 278.7077243271369,254.0428551156521 L 275.8261198618798,240.43895747599453 L 271.6730523627075,229.71855635968032 L 266.0555319048295,220.90534979423873 L 258.7805685634549,213.02303580719928 L 249.6551724137931,205.0953124260915 L 249.6551724137931,205.0953124260915 L 239.205335603803,196.85539946076352 L 230.5264651624805,190.46591930372267 L 223.1417624521073,185.83605316683216 L 216.57442883496526,182.87498226195544 L 210.3476656733362,181.49188780095554 L 203.9846743295019,181.59595099569566 L 197.00865616574427,183.0963530580389 L 188.94281254434512,185.90227519984876 L 179.31034482758622,189.92289863298808 L 179.31034482758622,189.92289863298808 L 179.31034482758622,189.92289863298808 L 179.31034482758622,189.92289863298808 L 179.31034482758622,189.92289863298808 L 179.31034482758622,189.92289863298808 L 179.31034482758622,189.92289863298808 L 179.31034482758622,189.92289863298808 L 179.31034482758622,189.92289863298808 L 179.31034482758622,189.92289863298808 L 179.31034482758622,189.92289863298808 L 193.10344827586206,268.5435882881605 L 193.10344827586206,268.5435882881605 L 193.10344827586206,268.5435882881605 L 193.10344827586206,268.5435882881605 L 193.10344827586206,268.5435882881605 L 193.10344827586206,268.5435882881605 L 193.10344827586206,268.5435882881605 L 193.10344827586206,268.5435882881605 L 193.10344827586206,268.5435882881605 L 193.10344827586206,268.5435882881605 L 193.10344827586206,268.5435882881605 L 193.34941582706588,272.15931129085675 L 194.0494773189537,275.60474906579634 L 195.14687100894,278.8117875218769 L 196.58483515443925,281.7123125679959 L 198.30660801286604,284.2382101130505 L 200.25542784163474,286.32136606593826 L 202.37453289815997,287.89366633555653 L 204.60716143985618,288.8869968308028 L 206.89655172413794,289.2332434605743 L 206.89655172413794,289.2332434605743 L 209.54921716096683,289.5321886381913 L 211.97483562745376,290.39875124166315 L 214.15070242656452,291.7875218769216 L 216.05411286126488,293.6530911498983 L 217.66236223452063,295.9500496665248 L 218.95274584929757,298.63298803273267 L 219.90255900856155,301.65649685445345 L 220.48909701527836,304.97516673761885 L 220.68965517241378,308.5435882881605 L 220.68965517241378,308.5435882881605 L 217.4201787994891,320.13055200794673 L 208.42911877394636,334.010690128187 L 194.94252873563224,349.20770067641075 L 178.18646232439335,364.74528168014757 L 159.3869731800766,379.6471311669269 L 139.77011494252872,392.936947164278 L 120.56194125159645,403.6384276997304 L 102.98850574712644,410.77527080081364 L 88.27586206896552,413.37117449505706 L 88.27586206896552,413.37117449505706 L 79.15803415164844,413.19142897686964 L 71.93604843668702,412.5462371694811 L 66.46232439335887,411.2766661936522 L 62.58928149094177,409.22378317014335 L 60.1693391987134,406.22865521971534 L 59.05491698595147,402.1323494631286 L 59.09843432193368,396.7759330211438 L 60.15231067593774,390.0004730145216 L 62.06896551724138,381.6470365640225 L 62.06896551724138,381.6470365640225 L 68.09138640556263,368.703467196443 L 78.88179367106571,351.9682134241521 L 93.1800766283525,332.8603188117876 L 109.72612459202499,312.79882692398667 L 127.25982687668511,293.20278132538675 L 144.52107279693487,275.49122558062544 L 160.2497516673762,261.08320325433994 L 173.185752802611,251.39775791116793 L 182.06896551724137,247.85393311574668 L 182.06896551724137,247.85393311574668 L 183.90047774466674,248.20017974551828 L 185.68658057802375,249.19351024076437 L 187.38186462324398,250.7658105103827 L 188.94092048625896,252.84896646327044 L 190.31833877300033,255.37486400832506 L 191.46871008939974,258.275389054444 L 192.34662504138876,261.4824275105246 L 192.906674234899,264.9278652854643 L 193.10344827586206,268.5435882881605 L 193.10344827586206,268.5435882881605 L 193.10344827586206,268.5435882881605 L 193.10344827586206,268.5435882881605 L 193.10344827586206,268.5435882881605 L 193.10344827586206,268.5435882881605 L 193.10344827586206,268.5435882881605 L 193.10344827586206,268.5435882881605 L 193.10344827586206,268.5435882881605 L 193.10344827586206,268.5435882881605 L 193.10344827586206,268.5435882881605M333.7931034482759 49.23324346057426 L 154.48275862068965,16.129795184712187 L 146.24284565536158,26.029043091623016 L 140.77290572820587,36.166690317392735 L 137.9821200510856,46.16810936095739 L 137.77966983586398,55.65867272125255 L 140.07473629440423,64.26375289721396 L 144.7765006385696,71.6087223877774 L 151.79414408022325,77.31895369187833 L 161.0368478312284,81.01981930845287 L 172.41379310344828,82.33669173643632 L 172.41379310344828,82.33669173643632 L 182.89768695898957,81.15415543257188 L 193.04101035901803,77.78061586490712 L 202.60536398467434,72.47717704933542 L 211.35234851709944,65.50494300175019 L 219.04356463743437,57.125017738044576 L 225.4406130268199,47.598505274111965 L 230.30509436639704,37.186509625845595 L 233.39860933730665,26.150134809138702 L 234.48275862068965,14.750484839884598 L 234.48275862068965,14.750484839884598 L 232.42041530674985,8.667518092805604 L 226.77072986140678,4.1965848351543995 L 218.33971902937424,1.3149803698973395 L 207.93339955536638,0.0 L 196.35778818409725,0.228939028428111 L 184.41890166028094,1.9790927581477171 L 172.92275672863155,5.227756492124392 L 162.6753701338631,9.952225533323867 L 154.48275862068965,16.129795184712187 L 154.48275862068965,16.129795184712187 L 154.48275862068965,16.129795184712187 L 154.48275862068965,16.129795184712187 L 154.48275862068965,16.129795184712187 L 154.48275862068965,16.129795184712187 L 154.48275862068965,16.129795184712187 L 154.48275862068965,16.129795184712187 L 154.48275862068965,16.129795184712187 L 154.48275862068965,16.129795184712187 L 154.48275862068965,16.129795184712187 L 179.31034482758622,189.92289863298808 L 153.18102265739554,204.3290289011874 L 126.08675086325151,223.74154486542741 L 99.10600255427846,246.93439288586154 L 73.31725083960079,272.6815193226432 L 49.79896882834303,299.7568705359255 L 29.62962962962963,326.9343928858617 L 13.887706352585035,352.98803273260495 L 3.6516721063336677,376.6917364363086 L 0.0,396.819450357126 L 0.0,396.819450357126 L 1.5231067593775125,408.3610046828438 L 5.850243602478597,419.77768317487346 L 12.618135376756065,430.74026772621926 L 21.46350692966274,440.91954022988506 L 32.023083108651434,449.9862825788752 L 43.93358876117496,457.6112766661937 L 56.831748734686144,463.4653043848446 L 70.35428787663781,467.2191476278322 L 84.13793103448276,468.5435882881605 L 84.13793103448276,468.5435882881605 L 90.83960077574379,468.09706257982134 L 98.82408589943712,466.8104630812166 L 107.84163473818649,464.7632562319663 L 117.6424956246157,462.0349084716902 L 127.97691689134857,458.7048862400076 L 138.59514687100892,454.85265597653853 L 149.24743389622063,450.5576841209026 L 159.68402629960738,445.89943711271945 L 169.6551724137931,440.9573813916088 L 169.6551724137931,440.9573813916088 L 178.7711082730239,436.01532567049816 L 187.61458776784448,431.35707866231496 L 196.0153256704981,427.062106806679 L 203.80303675322833,423.20987654320993 L 210.80743578827872,419.87985431152737 L 216.8582375478927,417.15150655125126 L 221.78515680431386,415.10429970200096 L 225.41790832978572,413.81770020339627 L 227.58620689655172,413.37117449505706 L 227.58620689655172,413.37117449505706 L 228.9125396149661,414.11664538101326 L 230.12534884820965,416.2698074830898 L 231.21328224776502,419.70578496759856 L 232.16498746511522,424.29970200085154 L 232.96911215174308,429.9266827491604 L 233.61430395913155,436.4618513788374 L 234.08921053876358,443.7803320561942 L 234.38247954212196,451.75724894754273 L 234.48275862068965,460.26772621919497 L 234.48275862068965,460.26772621919497 L 235.4439241284707,477.21678255522454 L 238.28957949009035,492.1564732037274 L 242.962962962963,505.01868407360115 L 249.40731280450314,515.735301073743 L 257.5658672721253,524.2382101130506 L 267.3818646232439,530.4592971004212 L 278.7985431152736,534.330447944752 L 291.75914100562886,535.7835485549407 L 306.2068965517241,534.7504848398846 L 306.2068965517241,534.7504848398846 L 319.88458445674274,531.4999290478219 L 330.51984295917885,525.9107894612365 L 338.0332056194125,518.7096163852232 L 342.3452059978241,510.6229601248759 L 343.37637765479406,502.3773709852893 L 341.0472541507024,494.6993992715577 L 335.2783690459297,488.3155952887754 L 325.9902559008562,483.9525093420369 L 313.1034482758621,482.33669173643636 L 313.1034482758621,482.33669173643636 L 302.8428172744903,482.1191050565253 L 294.87536067357274,480.80034057045555 L 288.93997445721584,477.3813916087224 L 284.7755546095265,470.8632515018212 L 282.12099711461144,460.24691358024694 L 280.71519795657724,444.53337117449513 L 280.2970531195308,422.72361761506085 L 280.6054585875786,393.8186462324394 L 281.37931034482756,356.819450357126 L 281.37931034482756,356.819450357126 L 281.65365876732415,321.9185468993899 L 281.42850385506836,293.80634785487916 L 280.5108556832695,271.5065512511234 L 278.7077243271369,254.0428551156521 L 275.8261198618798,240.43895747599453 L 271.6730523627075,229.71855635968032 L 266.0555319048295,220.90534979423873 L 258.7805685634549,213.02303580719928 L 249.6551724137931,205.0953124260915 L 249.6551724137931,205.0953124260915 L 239.205335603803,196.85539946076352 L 230.5264651624805,190.46591930372267 L 223.1417624521073,185.83605316683216 L 216.57442883496526,182.87498226195544 L 210.3476656733362,181.49188780095554 L 203.9846743295019,181.59595099569566 L 197.00865616574427,183.0963530580389 L 188.94281254434512,185.90227519984876 L 179.31034482758622,189.92289863298808 L 179.31034482758622,189.92289863298808 L 179.31034482758622,189.92289863298808 L 179.31034482758622,189.92289863298808 L 179.31034482758622,189.92289863298808 L 179.31034482758622,189.92289863298808 L 179.31034482758622,189.92289863298808 L 179.31034482758622,189.92289863298808 L 179.31034482758622,189.92289863298808 L 179.31034482758622,189.92289863298808 L 179.31034482758622,189.92289863298808 L 193.10344827586206,268.5435882881605 L 193.10344827586206,268.5435882881605 L 193.10344827586206,268.5435882881605 L 193.10344827586206,268.5435882881605 L 193.10344827586206,268.5435882881605 L 193.10344827586206,268.5435882881605 L 193.10344827586206,268.5435882881605 L 193.10344827586206,268.5435882881605 L 193.10344827586206,268.5435882881605 L 193.10344827586206,268.5435882881605 L 193.10344827586206,268.5435882881605 L 193.34941582706588,272.15931129085675 L 194.0494773189537,275.60474906579634 L 195.14687100894,278.8117875218769 L 196.58483515443925,281.7123125679959 L 198.30660801286604,284.2382101130505 L 200.25542784163474,286.32136606593826 L 202.37453289815997,287.89366633555653 L 204.60716143985618,288.8869968308028 L 206.89655172413794,289.2332434605743 L 206.89655172413794,289.2332434605743 L 209.54921716096683,289.5321886381913 L 211.97483562745376,290.39875124166315 L 214.15070242656452,291.7875218769216 L 216.05411286126488,293.6530911498983 L 217.66236223452063,295.9500496665248 L 218.95274584929757,298.63298803273267 L 219.90255900856155,301.65649685445345 L 220.48909701527836,304.97516673761885 L 220.68965517241378,308.5435882881605 L 220.68965517241378,308.5435882881605 L 217.4201787994891,320.13055200794673 L 208.42911877394636,334.010690128187 L 194.94252873563224,349.20770067641075 L 178.18646232439335,364.74528168014757 L 159.3869731800766,379.6471311669269 L 139.77011494252872,392.936947164278 L 120.56194125159645,403.6384276997304 L 102.98850574712644,410.77527080081364 L 88.27586206896552,413.37117449505706 L 88.27586206896552,413.37117449505706 L 79.15803415164844,413.19142897686964 L 71.93604843668702,412.5462371694811 L 66.46232439335887,411.2766661936522 L 62.58928149094177,409.22378317014335 L 60.1693391987134,406.22865521971534 L 59.05491698595147,402.1323494631286 L 59.09843432193368,396.7759330211438 L 60.15231067593774,390.0004730145216 L 62.06896551724138,381.6470365640225 L 62.06896551724138,381.6470365640225 L 68.09138640556263,368.703467196443 L 78.88179367106571,351.9682134241521 L 93.1800766283525,332.8603188117876 L 109.72612459202499,312.79882692398667 L 127.25982687668511,293.20278132538675 L 144.52107279693487,275.49122558062544 L 160.2497516673762,261.08320325433994 L 173.185752802611,251.39775791116793 L 182.06896551724137,247.85393311574668 L 182.06896551724137,247.85393311574668 L 183.90047774466674,248.20017974551828 L 185.68658057802375,249.19351024076437 L 187.38186462324398,250.7658105103827 L 188.94092048625896,252.84896646327044 L 190.31833877300033,255.37486400832506 L 191.46871008939974,258.275389054444 L 192.34662504138876,261.4824275105246 L 192.906674234899,264.9278652854643 L 193.10344827586206,268.5435882881605 L 193.10344827586206,268.5435882881605 L 193.10344827586206,268.5435882881605 L 193.10344827586206,268.5435882881605 L 193.10344827586206,268.5435882881605 L 193.10344827586206,268.5435882881605 L 193.10344827586206,268.5435882881605 L 193.10344827586206,268.5435882881605 L 193.10344827586206,268.5435882881605 L 193.10344827586206,268.5435882881605 L 193.10344827586206,268.5435882881605 L 333.7931034482759,49.23324346057426 L 323.0197247055484,57.633981363228024 L 314.630339151412,66.1709474480867 L 308.6590038314177,74.67385648739405 L 305.1397757911168,82.97242325339391 L 304.1067120760608,90.89636251832935 L 305.59386973180074,98.27538905444405 L 309.6353058038882,104.93921763398139 L 316.2650773378743,110.71756302918504 L 325.51724137931035,115.44014001229839 L 325.51724137931035,115.44014001229839 L 335.7002979991485,117.35111867934354 L 346.5985525755641,116.01532567049814 L 357.7011494252874,111.86415022941203 L 368.49723286504894,105.32898159973512 L 378.47594721157935,96.84120902511715 L 387.1264367816092,86.83222174920778 L 393.9378458918689,75.73340901565683 L 398.39931885908896,63.976160068114126 L 400.0,51.99186415022943 L 400.0,51.99186415022943 L 399.091812118632,42.951610614446 L 396.4126578685966,36.06830329691116 L 392.0306513409962,31.353294546142546 L 386.0139066269335,28.81793671065711 L 378.430537817511,28.473582138971608 L 369.3486590038314,30.33158317960364 L 358.83638427699725,34.40329218107003 L 346.9618277281112,40.70006149188791 L 333.7931034482759,49.23324346057426 L 333.7931034482759,49.23324346057426 L 333.7931034482759,49.23324346057426 L 333.7931034482759,49.23324346057426 L 333.7931034482759,49.23324346057426 L 333.7931034482759,49.23324346057426 L 333.7931034482759,49.23324346057426 L 333.7931034482759,49.23324346057426 L 333.7931034482759,49.23324346057426 L 333.7931034482759,49.23324346057426 L 333.7931034482759,49.23324346057426"/></svg>
