<?xml version="1.0" encoding="utf-8"?>
<svg xmlns="http://www.w3.org/2000/svg"  viewBox="0,0,400,577.9821200510856" width="100%">
<path d="M162.75862068965517 13.84418901660285 L 162.75862068965517,13.84418901660285 L 152.58880847642018,21.720826829383864 L 145.0527411191524,31.901991391135766 L 140.12771392081737,43.52490421455945 L 137.79102218438106,55.7267868123552 L 138.01996121280928,67.64486069722336 L 140.7918263090677,78.4163473818647 L 146.0839127761222,87.17846837897923 L 153.87351591693863,93.06844520126772 L 164.13793103448276,95.22349936143044 L 164.13793103448276,95.22349936143044 L 174.56506314743856,94.04663923182453 L 184.51539662267632,90.71283288396963 L 193.71647509578546,85.51724137931035 L 201.89584220235562,78.75502577929143 L 208.78104157797642,70.72134714535737 L 214.09961685823757,61.71136653895286 L 217.57911167872857,52.02024502152223 L 218.947069675039,41.943143654510266 L 217.93103448275863,31.775223499361474 L 217.93103448275863,31.775223499361474 L 215.58488245589135,22.57792914242483 L 212.23972375951942,15.208362896740976 L 207.91826309067693,9.655172413793027 L 202.64320514639797,5.907005345064151 L 196.43725462371694,3.952509342036906 L 189.32311621966795,3.7803320561942333 L 181.32349463128517,5.379121139018998 L 172.46109455560284,8.7375242419943 L 162.75862068965517,13.84418901660285 L 162.75862068965517,13.84418901660285 L 162.75862068965517,13.84418901660285 L 162.75862068965517,13.84418901660285 L 162.75862068965517,13.84418901660285 L 162.75862068965517,13.84418901660285 L 162.75862068965517,13.84418901660285 L 162.75862068965517,13.84418901660285 L 162.75862068965517,13.84418901660285 L 162.75862068965517,13.84418901660285 L 162.75862068965517,13.84418901660285"/></svg>
