<?xml version="1.0" encoding="utf-8"?>
<svg xmlns="http://www.w3.org/2000/svg"  viewBox="0,0,400,577.9821200510856" width="100%">
<path d="M162.75862068965517 13.84418901660285 L 162.75862068965517,13.84418901660285 L 152.58880847642018,21.720826829383864 L 145.0527411191524,31.901991391135766 L 140.12771392081737,43.52490421455945 L 137.79102218438106,55.7267868123552 L 138.01996121280928,67.64486069722336 L 140.7918263090677,78.4163473818647 L 146.0839127761222,87.17846837897923 L 153.87351591693863,93.06844520126772 L 164.13793103448276,95.22349936143044 L 164.13793103448276,95.22349936143044 L 174.56506314743856,94.04663923182453 L 184.51539662267632,90.71283288396963 L 193.71647509578546,85.51724137931035 L 201.89584220235562,78.75502577929143 L 208.78104157797642,70.72134714535737 L 214.09961685823757,61.71136653895286 L 217.57911167872857,52.02024502152223 L 218.947069675039,41.943143654510266 L 217.93103448275863,31.775223499361474 L 217.93103448275863,31.775223499361474 L 215.58488245589135,22.57792914242483 L 212.23972375951942,15.208362896740976 L 207.91826309067693,9.655172413793027 L 202.64320514639797,5.907005345064151 L 196.43725462371694,3.952509342036906 L 189.32311621966795,3.7803320561942333 L 181.32349463128517,5.379121139018998 L 172.46109455560284,8.7375242419943 L 162.75862068965517,13.84418901660285 L 162.75862068965517,13.84418901660285 L 162.75862068965517,13.84418901660285 L 162.75862068965517,13.84418901660285 L 162.75862068965517,13.84418901660285 L 162.75862068965517,13.84418901660285 L 162.75862068965517,13.84418901660285 L 162.75862068965517,13.84418901660285 L 162.75862068965517,13.84418901660285 L 162.75862068965517,13.84418901660285 L 162.75862068965517,13.84418901660285M194.48275862068965 230.3959131545339 L 162.75862068965517,13.84418901660285 L 152.58880847642018,21.720826829383864 L 145.0527411191524,31.901991391135766 L 140.12771392081737,43.52490421455945 L 137.79102218438106,55.7267868123552 L 138.01996121280928,67.64486069722336 L 140.7918263090677,78.4163473818647 L 146.0839127761222,87.17846837897923 L 153.87351591693863,93.06844520126772 L 164.13793103448276,95.22349936143044 L 164.13793103448276,95.22349936143044 L 174.56506314743856,94.04663923182453 L 184.51539662267632,90.71283288396963 L 193.71647509578546,85.51724137931035 L 201.89584220235562,78.75502577929143 L 208.78104157797642,70.72134714535737 L 214.09961685823757,61.71136653895286 L 217.57911167872857,52.02024502152223 L 218.947069675039,41.943143654510266 L 217.93103448275863,31.775223499361474 L 217.93103448275863,31.775223499361474 L 215.58488245589135,22.57792914242483 L 212.23972375951942,15.208362896740976 L 207.91826309067693,9.655172413793027 L 202.64320514639797,5.907005345064151 L 196.43725462371694,3.952509342036906 L 189.32311621966795,3.7803320561942333 L 181.32349463128517,5.379121139018998 L 172.46109455560284,8.7375242419943 L 162.75862068965517,13.84418901660285 L 162.75862068965517,13.84418901660285 L 162.75862068965517,13.84418901660285 L 162.75862068965517,13.84418901660285 L 162.75862068965517,13.84418901660285 L 162.75862068965517,13.84418901660285 L 162.75862068965517,13.84418901660285 L 162.75862068965517,13.84418901660285 L 162.75862068965517,13.84418901660285 L 162.75862068965517,13.84418901660285 L 162.75862068965517,13.84418901660285 L 194.48275862068965,230.3959131545339 L 172.55191334373964,256.12411901045374 L 152.1649874651152,285.51913343739653 L 133.84418901660283,317.24137931034494 L 118.11172602998913,349.9512795042809 L 105.48980653706069,382.3092568941867 L 96.50063856960409,412.9757343550448 L 91.6664301594059,440.6111347618372 L 91.50938933825269,463.87588098954643 L 96.55172413793103,481.4303959131546 L 96.55172413793103,481.4303959131546 L 101.0926635447708,489.3164940163664 L 105.70171704271321,495.5792062816328 L 110.65134099616859,500.3320561941252 L 116.2139917695473,503.68856723901433 L 122.66212572725983,505.76226290147116 L 130.26819923371647,506.66666666666674 L 139.30466865332764,506.51530201977204 L 150.04399035050375,505.4216924459582 L 162.75862068965517,503.49936143039594 L 162.75862068965517,503.49936143039594 L 183.75289721394446,499.26682749160403 L 203.50976774986992,493.0362802138026 L 222.01787994891447,484.8531289910601 L 239.26588146256094,474.76278321744485 L 255.2424199422923,462.8106522870253 L 269.9361430395913,449.04214559386986 L 283.335698405941,433.50267253204686 L 295.42973369282436,416.2376424956247 L 306.2068965517241,397.29246487867186 L 306.2068965517241,397.29246487867186 L 318.3785062201409,369.49056336029525 L 326.4405657253678,341.620547750816 L 330.4725415070243,314.22733077905497 L 330.5539000047301,287.8558251738329 L 326.7641076581051,263.05094366397054 L 319.1826309067688,240.3575989782887 L 307.888936190341,220.32070384560816 L 292.96248994844143,203.4851709947496 L 274.48275862068965,190.39591315453387 L 274.48275862068965,190.39591315453387 L 266.65342226006334,186.95425949576662 L 259.4598174163947,185.03382053829057 L 252.51596424010225,184.82758620689663 L 245.43588288160444,186.52854642637536 L 237.8335934913202,190.32969112151744 L 229.32311621966795,196.42401021711382 L 219.51847121706638,205.00449363795474 L 208.03367863393407,216.26413130883122 L 194.48275862068965,230.3959131545339 L 194.48275862068965,230.3959131545339 L 194.48275862068965,230.3959131545339 L 194.48275862068965,230.3959131545339 L 194.48275862068965,230.3959131545339 L 194.48275862068965,230.3959131545339 L 194.48275862068965,230.3959131545339 L 194.48275862068965,230.3959131545339 L 194.48275862068965,230.3959131545339 L 194.48275862068965,230.3959131545339 L 194.48275862068965,230.3959131545339 L 275.86206896551727,302.1200510855684 L 275.86206896551727,302.1200510855684 L 275.86206896551727,302.1200510855684 L 275.86206896551727,302.1200510855684 L 275.86206896551727,302.1200510855684 L 275.86206896551727,302.1200510855684 L 275.86206896551727,302.1200510855684 L 275.86206896551727,302.1200510855684 L 275.86206896551727,302.1200510855684 L 275.86206896551727,302.1200510855684 L 275.86206896551727,302.1200510855684 L 275.48554940636666,315.3398609337308 L 274.280308405468,327.57201646090533 L 272.13282247765017,339.05491698595154 L 268.9295681377418,350.0269618277282 L 264.5570219005724,360.72655030509446 L 258.9016602809706,371.3920817369094 L 251.84995979376563,382.2619554420321 L 243.28839695378647,393.57457073932176 L 233.10344827586206,405.56832694763733 L 233.10344827586206,405.56832694763733 L 219.3046686533276,419.73794995506375 L 204.96097630197247,431.7733314412753 L 190.65134099616859,441.4814814814815 L 176.95473251028807,448.6694101508917 L 164.450120618703,453.1441275247151 L 153.71647509578543,454.712643678161 L 145.33276571590747,453.18196868643867 L 139.87796225344115,448.3591126247577 L 137.93103448275863,440.05108556832704 L 137.93103448275863,440.05108556832704 L 139.21384986519084,431.76576320893065 L 142.880658436214,420.154202734024 L 148.65900383141764,405.77266922094515 L 156.27642968639137,389.1774277470319 L 165.46047963672487,370.92474338962205 L 175.93869731800766,351.57088122605376 L 187.43862636582944,331.67210633366454 L 199.68781041577972,311.78468378979244 L 212.41379310344828,292.4648786717753 L 212.41379310344828,292.4648786717753 L 225.12463932642723,274.2235466628827 L 236.5526701669741,260.8637245163427 L 246.64112388250325,252.36270753512136 L 255.33323873042903,248.69779102218445 L 262.57225296816614,249.84627028049766 L 268.301404853129,255.78544061302688 L 272.4639326427321,266.4925973227379 L 275.00307459439006,281.9450357125964 L 275.86206896551727,302.1200510855684 L 275.86206896551727,302.1200510855684 L 275.86206896551727,302.1200510855684 L 275.86206896551727,302.1200510855684 L 275.86206896551727,302.1200510855684 L 275.86206896551727,302.1200510855684 L 275.86206896551727,302.1200510855684 L 275.86206896551727,302.1200510855684 L 275.86206896551727,302.1200510855684 L 275.86206896551727,302.1200510855684 L 275.86206896551727,302.1200510855684"/></svg>
