<?xml version="1.0" encoding="utf-8"?>
<svg xmlns="http://www.w3.org/2000/svg"  viewBox="0,0,400,611.8199480205253" width="100%">
<path d="M127.0575208763719 28.850146352466027 L 127.0575208763719,28.850146352466027 L 118.17897548147651,40.468122843800295 L 112.38844148720761,52.14761350646163 L 109.56289055091071,63.50723047822146 L 109.57929432993124,74.16558589685103 L 112.31462448161497,83.74129190012148 L 117.64585266330731,91.85296062580426 L 125.44995053235388,98.11920421167032 L 135.60388974610026,102.15863479549112 L 147.98464196189198,103.58986451503773 L 147.98464196189198,103.58986451503773 L 159.3299056270088,101.80185260179334 L 170.2076615900388,96.81510377953332 L 180.26112765728408,89.19554842446829 L 189.13352163504666,79.50911691280884 L 196.46806132962882,68.32173962076517 L 201.9079645473326,56.19934692454791 L 205.09644909446016,43.70786920036714 L 205.67673277731356,31.413236824433568 L 203.29203340219505,19.881380172957417 L 203.29203340219505,19.881380172957417 L 198.56159362713183,11.183276347288656 L 192.4655392486044,4.994950711770319 L 185.18841278059438,1.279494763606136 L 176.9147567370833,0.0 L 167.82911363205298,1.1195579181554647 L 158.11602597948502,4.601260015276083 L 147.9600362933611,10.408197788565667 L 137.54568708766283,18.503462735227682 L 127.0575208763719,28.850146352466027 L 127.0575208763719,28.850146352466027 L 127.0575208763719,28.850146352466027 L 127.0575208763719,28.850146352466027 L 127.0575208763719,28.850146352466027 L 127.0575208763719,28.850146352466027 L 127.0575208763719,28.850146352466027 L 127.0575208763719,28.850146352466027 L 127.0575208763719,28.850146352466027 L 127.0575208763719,28.850146352466027 L 127.0575208763719,28.850146352466027"/></svg>
