<?xml version="1.0" encoding="utf-8"?>
<svg xmlns="http://www.w3.org/2000/svg"  viewBox="0,0,400,611.8199480205253" width="100%">
<path d="M127.0575208763719 28.850146352466027 L 127.0575208763719,28.850146352466027 L 118.17897548147651,40.468122843800295 L 112.38844148720761,52.14761350646163 L 109.56289055091071,63.50723047822146 L 109.57929432993124,74.16558589685103 L 112.31462448161497,83.74129190012148 L 117.64585266330731,91.85296062580426 L 125.44995053235388,98.11920421167032 L 135.60388974610026,102.15863479549112 L 147.98464196189198,103.58986451503773 L 147.98464196189198,103.58986451503773 L 159.3299056270088,101.80185260179334 L 170.2076615900388,96.81510377953332 L 180.26112765728408,89.19554842446829 L 189.13352163504666,79.50911691280884 L 196.46806132962882,68.32173962076517 L 201.9079645473326,56.19934692454791 L 205.09644909446016,43.70786920036714 L 205.67673277731356,31.413236824433568 L 203.29203340219505,19.881380172957417 L 203.29203340219505,19.881380172957417 L 198.56159362713183,11.183276347288656 L 192.4655392486044,4.994950711770319 L 185.18841278059438,1.279494763606136 L 176.9147567370833,0.0 L 167.82911363205298,1.1195579181554647 L 158.11602597948502,4.601260015276083 L 147.9600362933611,10.408197788565667 L 137.54568708766283,18.503462735227682 L 127.0575208763719,28.850146352466027 L 127.0575208763719,28.850146352466027 L 127.0575208763719,28.850146352466027 L 127.0575208763719,28.850146352466027 L 127.0575208763719,28.850146352466027 L 127.0575208763719,28.850146352466027 L 127.0575208763719,28.850146352466027 L 127.0575208763719,28.850146352466027 L 127.0575208763719,28.850146352466027 L 127.0575208763719,28.850146352466027 L 127.0575208763719,28.850146352466027M152.46902505164627 272.5016275624498 L 127.0575208763719,28.850146352466027 L 118.17897548147651,40.468122843800295 L 112.38844148720761,52.14761350646163 L 109.56289055091071,63.50723047822146 L 109.57929432993124,74.16558589685103 L 112.31462448161497,83.74129190012148 L 117.64585266330731,91.85296062580426 L 125.44995053235388,98.11920421167032 L 135.60388974610026,102.15863479549112 L 147.98464196189198,103.58986451503773 L 147.98464196189198,103.58986451503773 L 159.3299056270088,101.80185260179334 L 170.2076615900388,96.81510377953332 L 180.26112765728408,89.19554842446829 L 189.13352163504666,79.50911691280884 L 196.46806132962882,68.32173962076517 L 201.9079645473326,56.19934692454791 L 205.09644909446016,43.70786920036714 L 205.67673277731356,31.413236824433568 L 203.29203340219505,19.881380172957417 L 203.29203340219505,19.881380172957417 L 198.56159362713183,11.183276347288656 L 192.4655392486044,4.994950711770319 L 185.18841278059438,1.279494763606136 L 176.9147567370833,0.0 L 167.82911363205298,1.1195579181554647 L 158.11602597948502,4.601260015276083 L 147.9600362933611,10.408197788565667 L 137.54568708766283,18.503462735227682 L 127.0575208763719,28.850146352466027 L 127.0575208763719,28.850146352466027 L 127.0575208763719,28.850146352466027 L 127.0575208763719,28.850146352466027 L 127.0575208763719,28.850146352466027 L 127.0575208763719,28.850146352466027 L 127.0575208763719,28.850146352466027 L 127.0575208763719,28.850146352466027 L 127.0575208763719,28.850146352466027 L 127.0575208763719,28.850146352466027 L 127.0575208763719,28.850146352466027 L 152.46902505164627,272.5016275624498 L 124.03717506420539,316.2792128236544 L 100.62488145706565,358.4205211275548 L 82.37977824141238,398.1750795839592 L 69.44949942843083,434.79241530267547 L 61.981679029306385,467.5220553935114 L 60.12395105522434,495.6135269662749 L 64.02394951737006,518.316357130774 L 73.82930842692886,534.8800729968167 L 89.68766179508604,544.5542016742108 L 89.68766179508604,544.5542016742108 L 107.93276501073935,548.5444209209697 L 126.69458726554132,549.5696571097568 L 145.82549454830658,547.6545159091027 L 165.17785284784986,542.8236029875384 L 184.60402815298576,535.1015240135947 L 203.956386452529,524.5128846558027 L 223.08729373529425,511.0822905826931 L 241.8491159900962,494.8343474627968 L 260.09421920574954,475.79366096464486 L 260.09421920574954,475.79366096464486 L 274.1440559368864,459.9599132650185 L 285.57338896948386,445.89777369961615 L 294.640577823116,432.9428892181037 L 301.60398201735717,420.4309067701473 L 306.72196107178195,407.6974733054128 L 310.25287450596426,394.07823577356646 L 312.4550818394788,378.9088411242741 L 313.5869425918996,361.52493630720187 L 313.9068162828012,341.26216827201574 L 313.9068162828012,341.26216827201574 L 313.1645452821193,310.71628126329614 L 310.84751149546076,284.68553442999433 L 306.82038374590553,262.9238710868017 L 300.9478308565336,245.1852345484092 L 293.09452165042524,231.2235681295079 L 283.12512495066045,220.79281514478905 L 270.9043095803196,213.64691890894377 L 256.29674436248246,209.5398227366631 L 239.16709812022947,208.2254699426381 L 239.16709812022947,208.2254699426381 L 228.2708879058013,208.7565422884298 L 218.32199592981232,210.48098955796945 L 209.04975983842277,213.5956570995043 L 200.18351727779287,218.2973902612815 L 191.45260589408286,224.783034391548 L 182.58636333345294,233.24943483855102 L 173.3141272420634,243.89343695053756 L 163.36523526607442,256.9118860757548 L 152.46902505164627,272.5016275624498 L 152.46902505164627,272.5016275624498 L 152.46902505164627,272.5016275624498 L 152.46902505164627,272.5016275624498 L 152.46902505164627,272.5016275624498 L 152.46902505164627,272.5016275624498 L 152.46902505164627,272.5016275624498 L 152.46902505164627,272.5016275624498 L 152.46902505164627,272.5016275624498 L 152.46902505164627,272.5016275624498 L 152.46902505164627,272.5016275624498 L 263.0838079322524,305.3871035539813 L 263.0838079322524,305.3871035539813 L 263.0838079322524,305.3871035539813 L 263.0838079322524,305.3871035539813 L 263.0838079322524,305.3871035539813 L 263.0838079322524,305.3871035539813 L 263.0838079322524,305.3871035539813 L 263.0838079322524,305.3871035539813 L 263.0838079322524,305.3871035539813 L 263.0838079322524,305.3871035539813 L 263.0838079322524,305.3871035539813 L 265.61204037380105,331.08567386211615 L 261.82891883717707,358.5066409674129 L 252.62024738949242,386.3828129405312 L 238.8718300978588,413.4469978521302 L 221.46947102938842,438.4320037728693 L 201.29897425119313,460.0706387734075 L 179.24614383038494,477.0957109244043 L 156.19678383407577,488.2400282965188 L 133.03669832937763,492.23639896041055 L 133.03669832937763,492.23639896041055 L 125.05625983585965,492.06005833593923 L 119.01966915628186,491.2685759981957 L 114.87771495358245,489.4682612506857 L 112.58118589069956,486.2654233969152 L 112.08087063057154,481.26637174038984 L 113.32755783613649,474.0774155846154 L 116.27203617033275,464.3048642330978 L 120.86509429609846,451.55502698934276 L 127.0575208763719,435.43421315685606 L 127.0575208763719,435.43421315685606 L 138.57912516596008,410.40204637143296 L 151.79852058417958,384.76704070700293 L 166.08826258349268,359.4765144020055 L 180.82090661636175,335.4777856948795 L 195.36900813524917,313.7181728240644 L 209.10512259261728,295.1449940279993 L 221.40180544092846,280.7055675451233 L 231.63161213264505,271.34721161387563 L 239.16709812022947,268.0172444726955 L 239.16709812022947,268.0172444726955 L 241.75889520548293,268.60983098981444 L 244.51062913618728,270.32197542508857 L 247.36078574101512,273.05525510439475 L 250.2478508486393,276.71124735360917 L 253.1103102877326,281.1915294986083 L 255.88664988696766,286.3976788652687 L 258.5153554750176,292.2312727794666 L 260.93491288055486,298.59388856707875 L 263.0838079322524,305.3871035539813 L 263.0838079322524,305.3871035539813 L 263.0838079322524,305.3871035539813 L 263.0838079322524,305.3871035539813 L 263.0838079322524,305.3871035539813 L 263.0838079322524,305.3871035539813 L 263.0838079322524,305.3871035539813 L 263.0838079322524,305.3871035539813 L 263.0838079322524,305.3871035539813 L 263.0838079322524,305.3871035539813 L 263.0838079322524,305.3871035539813"/></svg>
