<?xml version="1.0" encoding="utf-8"?>
<svg xmlns="http://www.w3.org/2000/svg"  viewBox="0,0,400,624.390243902439" width="100%">
<path d="M94.63414634146342 13.658536585365855 L 94.63414634146342,13.658536585365855 L 93.48589782194117,18.974204556860435 L 93.83117534879054,24.386229047475616 L 95.50135501355015,29.70189701897009 L 98.3278129077587,34.728495433102424 L 102.14192512295494,39.27331125163097 L 106.7750677506775,43.143631436314315 L 112.05861688246512,46.14674294891102 L 117.82394860985646,48.08993275117944 L 123.90243902439025,48.78048780487805 L 123.90243902439025,48.78048780487805 L 126.13603666900863,48.39372344340729 L 128.2572183746529,47.2762554786042 L 130.22583559168928,45.4923215898825 L 132.00173977048414,43.1061594566562 L 133.54478236140386,40.182006758339234 L 134.81481481481478,36.784101174345174 L 135.77168858108334,32.97668038408785 L 136.3752551105758,28.823982066981152 L 136.58536585365854,24.390243902439025 L 136.58536585365854,24.390243902439025 L 136.399344240356,18.928702867275625 L 135.8198668406437,14.229984275151343 L 134.8148148148148,10.26196928635949 L 133.35206932316237,6.99253906119294 L 131.39951152597945,4.389574759945123 L 128.92502258355918,2.4209575429088033 L 125.89648365619458,1.0545685703770753 L 122.28177590417879,0.25828900264314586 L 118.04878048780488,0.0 L 118.04878048780488,0.0 L 114.77265883769945,0.2114490280707575 L 111.49653718759411,0.8243835524775399 L 108.29268292682929,1.8066847335138867 L 105.23336344474556,3.1262337314731155 L 102.39084613068353,4.750911706647989 L 99.83739837398373,6.648599819331605 L 97.64528756398674,8.787179229817056 L 95.88678109003312,11.13453109839744 L 94.63414634146342,13.658536585365855 L 94.63414634146342,13.658536585365855 L 94.63414634146342,13.658536585365855 L 94.63414634146342,13.658536585365855 L 94.63414634146342,13.658536585365855 L 94.63414634146342,13.658536585365855 L 94.63414634146342,13.658536585365855 L 94.63414634146342,13.658536585365855 L 94.63414634146342,13.658536585365855 L 94.63414634146342,13.658536585365855 L 94.63414634146342,13.658536585365855"/></svg>
