<?xml version="1.0" encoding="utf-8"?>
<svg xmlns="http://www.w3.org/2000/svg"  viewBox="0,0,400,624.390243902439" width="100%">
<path d="M94.63414634146342 13.658536585365855 L 94.63414634146342,13.658536585365855 L 93.48589782194117,18.974204556860435 L 93.83117534879054,24.386229047475616 L 95.50135501355015,29.70189701897009 L 98.3278129077587,34.728495433102424 L 102.14192512295494,39.27331125163097 L 106.7750677506775,43.143631436314315 L 112.05861688246512,46.14674294891102 L 117.82394860985646,48.08993275117944 L 123.90243902439025,48.78048780487805 L 123.90243902439025,48.78048780487805 L 126.13603666900863,48.39372344340729 L 128.2572183746529,47.2762554786042 L 130.22583559168928,45.4923215898825 L 132.00173977048414,43.1061594566562 L 133.54478236140386,40.182006758339234 L 134.81481481481478,36.784101174345174 L 135.77168858108334,32.97668038408785 L 136.3752551105758,28.823982066981152 L 136.58536585365854,24.390243902439025 L 136.58536585365854,24.390243902439025 L 136.399344240356,18.928702867275625 L 135.8198668406437,14.229984275151343 L 134.8148148148148,10.26196928635949 L 133.35206932316237,6.99253906119294 L 131.39951152597945,4.389574759945123 L 128.92502258355918,2.4209575429088033 L 125.89648365619458,1.0545685703770753 L 122.28177590417879,0.25828900264314586 L 118.04878048780488,0.0 L 118.04878048780488,0.0 L 114.77265883769945,0.2114490280707575 L 111.49653718759411,0.8243835524775399 L 108.29268292682929,1.8066847335138867 L 105.23336344474556,3.1262337314731155 L 102.39084613068353,4.750911706647989 L 99.83739837398373,6.648599819331605 L 97.64528756398674,8.787179229817056 L 95.88678109003312,11.13453109839744 L 94.63414634146342,13.658536585365855 L 94.63414634146342,13.658536585365855 L 94.63414634146342,13.658536585365855 L 94.63414634146342,13.658536585365855 L 94.63414634146342,13.658536585365855 L 94.63414634146342,13.658536585365855 L 94.63414634146342,13.658536585365855 L 94.63414634146342,13.658536585365855 L 94.63414634146342,13.658536585365855 L 94.63414634146342,13.658536585365855 L 94.63414634146342,13.658536585365855M174.6341463414634 114.14634146341464 L 94.63414634146342,13.658536585365855 L 93.48589782194117,18.974204556860435 L 93.83117534879054,24.386229047475616 L 95.50135501355015,29.70189701897009 L 98.3278129077587,34.728495433102424 L 102.14192512295494,39.27331125163097 L 106.7750677506775,43.143631436314315 L 112.05861688246512,46.14674294891102 L 117.82394860985646,48.08993275117944 L 123.90243902439025,48.78048780487805 L 123.90243902439025,48.78048780487805 L 126.13603666900863,48.39372344340729 L 128.2572183746529,47.2762554786042 L 130.22583559168928,45.4923215898825 L 132.00173977048414,43.1061594566562 L 133.54478236140386,40.182006758339234 L 134.81481481481478,36.784101174345174 L 135.77168858108334,32.97668038408785 L 136.3752551105758,28.823982066981152 L 136.58536585365854,24.390243902439025 L 136.58536585365854,24.390243902439025 L 136.399344240356,18.928702867275625 L 135.8198668406437,14.229984275151343 L 134.8148148148148,10.26196928635949 L 133.35206932316237,6.99253906119294 L 131.39951152597945,4.389574759945123 L 128.92502258355918,2.4209575429088033 L 125.89648365619458,1.0545685703770753 L 122.28177590417879,0.25828900264314586 L 118.04878048780488,0.0 L 118.04878048780488,0.0 L 114.77265883769945,0.2114490280707575 L 111.49653718759411,0.8243835524775399 L 108.29268292682929,1.8066847335138867 L 105.23336344474556,3.1262337314731155 L 102.39084613068353,4.750911706647989 L 99.83739837398373,6.648599819331605 L 97.64528756398674,8.787179229817056 L 95.88678109003312,11.13453109839744 L 94.63414634146342,13.658536585365855 L 94.63414634146342,13.658536585365855 L 94.63414634146342,13.658536585365855 L 94.63414634146342,13.658536585365855 L 94.63414634146342,13.658536585365855 L 94.63414634146342,13.658536585365855 L 94.63414634146342,13.658536585365855 L 94.63414634146342,13.658536585365855 L 94.63414634146342,13.658536585365855 L 94.63414634146342,13.658536585365855 L 94.63414634146342,13.658536585365855 L 174.6341463414634,114.14634146341464 L 169.5914885074776,132.4982435009536 L 160.95955033624412,168.38703201846835 L 149.7018970189702,217.45257452574523 L 136.78209374686338,275.33473853257044 L 123.16370571113117,337.67339154873036 L 109.81029810298102,400.1084010840108 L 97.6854361136204,458.27963464819834 L 87.75268493425676,507.826959751079 L 80.97560975609755,544.390243902439 L 80.97560975609755,544.390243902439 L 79.89695205594029,551.8846398340527 L 79.28401753153332,558.1665495667302 L 79.16892502258357,563.3242999096658 L 79.5837933687979,567.4462176720532 L 80.56074140988324,570.6206296630868 L 82.13188798554651,572.9358626919602 L 84.32935193549466,574.4802435678678 L 87.18525209943456,575.3420991000033 L 90.73170731707317,575.609756097561 L 90.73170731707317,575.609756097561 L 96.00455016895847,574.573923517013 L 100.89999665428753,571.0809996988858 L 105.61878952122855,564.5528455284552 L 110.36167151794976,554.4113218909966 L 115.32938539261937,540.0782896717856 L 120.72267389340558,520.9756097560976 L 126.74227976847668,496.5251430292081 L 133.58894576600085,466.1487503763927 L 141.46341463414635,429.26829268292687 L 141.46341463414635,429.26829268292687 L 149.11706647930671,391.33594298905956 L 155.06841982000066,362.5574626116631 L 160.1445347786811,341.680216802168 L 165.1724714778012,327.45157081200443 L 170.97929003981397,318.6188898926026 L 178.39205058717255,313.92953929539294 L 188.23781324232993,312.1308842718057 L 201.34363812773927,311.97029007327103 L 218.53658536585365,312.1951219512195 L 218.53658536585365,312.1951219512195 L 224.390243902439,312.1951219512195 L 230.2439024390244,312.1951219512195 L 236.09756097560975,312.1951219512195 L 241.9512195121951,312.1951219512195 L 247.8048780487805,312.1951219512195 L 253.65853658536585,312.1951219512195 L 259.5121951219512,312.1951219512195 L 265.3658536585366,312.1951219512195 L 271.219512195122,312.1951219512195 L 271.219512195122,312.1951219512195 L 276.4227642276423,326.28726287262873 L 281.6260162601626,340.37940379403796 L 286.8292682926829,354.4715447154471 L 292.0325203252032,368.56368563685635 L 297.2357723577236,382.6558265582656 L 302.4390243902439,396.74796747967474 L 307.6422764227642,410.84010840108397 L 312.8455284552846,424.93224932249325 L 318.0487804878049,439.0243902439024 L 318.0487804878049,439.0243902439024 L 329.3465823547123,468.81193750209115 L 339.27130382414936,493.9824015524106 L 347.9674796747968,514.8328816621499 L 355.5796446853357,531.6604770985981 L 362.25233363444744,544.762287129044 L 368.13008130081295,554.4354110207769 L 373.35742246311355,560.9769480410853 L 378.07889190003016,564.6839974572586 L 382.4390243902439,565.8536585365853 L 382.4390243902439,565.8536585365853 L 385.61075981130176,565.7492723075378 L 388.58978219411824,565.4521730402489 L 391.3279132791329,564.9864498644986 L 393.7769748067851,564.3761919100673 L 395.8887885175148,563.6454883067348 L 397.6151761517615,562.8184281842819 L 398.9079594499649,561.9191006724882 L 399.71896015256453,560.9715949011342 L 400.0,560.0 L 400.0,560.0 L 395.18886546890155,543.8161196426779 L 382.17939710261305,506.8433202850547 L 363.1074977416441,454.7425474254743 L 340.10907022650474,393.1747465622804 L 315.3200173977048,327.80086319381707 L 290.87624209575426,264.2818428184282 L 268.913647161163,208.27863093445754 L 251.56813543444076,165.452173040249 L 240.97560975609755,141.46341463414632 L 240.97560975609755,141.46341463414632 L 231.24895446485326,123.24667938037415 L 222.204824517381,108.90026431128506 L 213.80307136404696,98.39205058717253 L 206.00354645521764,91.68991936832953 L 198.76610124125932,88.76175181504905 L 192.0505871725384,89.57542908762429 L 185.81685569942118,94.09883234634813 L 180.02475827227406,102.29984275151398 L 174.6341463414634,114.14634146341464 L 174.6341463414634,114.14634146341464 L 174.6341463414634,114.14634146341464 L 174.6341463414634,114.14634146341464 L 174.6341463414634,114.14634146341464 L 174.6341463414634,114.14634146341464 L 174.6341463414634,114.14634146341464 L 174.6341463414634,114.14634146341464 L 174.6341463414634,114.14634146341464 L 174.6341463414634,114.14634146341464 L 174.6341463414634,114.14634146341464 L 230.2439024390244,211.7073170731707 L 230.2439024390244,211.7073170731707 L 230.2439024390244,211.7073170731707 L 230.2439024390244,211.7073170731707 L 230.2439024390244,211.7073170731707 L 230.2439024390244,211.7073170731707 L 230.2439024390244,211.7073170731707 L 230.2439024390244,211.7073170731707 L 230.2439024390244,211.7073170731707 L 230.2439024390244,211.7073170731707 L 230.2439024390244,211.7073170731707 L 236.10559068553647,224.96169159222464 L 240.7146441834789,236.2246980494496 L 244.11924119241198,245.67299006323393 L 246.36755997189601,253.48322125196555 L 247.50777878149154,259.83204523403253 L 247.5880758807588,264.896115627823 L 246.65662952925823,268.8520860517247 L 244.76161798655025,271.87661012412593 L 241.9512195121951,274.1463414634146 L 241.9512195121951,274.1463414634146 L 234.0232192445381,278.05814848271945 L 224.92288132757872,280.7253504633812 L 215.21228545618794,282.2041553748871 L 205.45351132523672,282.55077118672415 L 196.20863862959618,281.82140586837966 L 188.0397470641373,280.0722673893406 L 181.50891632373117,277.359563719094 L 177.1782261032487,273.73950282712707 L 175.609756097561,269.2682926829268 L 175.609756097561,269.2682926829268 L 176.3846231054903,260.24825186523475 L 178.4843922513299,247.1169995650573 L 181.5718157181572,231.2556458897922 L 185.3096456890495,214.04530094683668 L 189.3606343470842,196.86707484358791 L 193.38753387533873,181.10207768744357 L 197.05309645689047,168.13141958580078 L 200.0200742748168,159.33621064605708 L 201.9512195121951,156.09756097560975 L 201.9512195121951,156.09756097560975 L 202.9857138077553,156.9768142125866 L 204.7348522867945,159.5182174043962 L 207.1183378500452,163.57723577235768 L 210.05587339824018,169.0093345377898 L 213.46716183211214,175.66997892201144 L 217.27190605239383,183.4146341463415 L 221.38980895981797,192.09876543209873 L 225.7405734551173,201.57783800060227 L 230.2439024390244,211.7073170731707 L 230.2439024390244,211.7073170731707 L 230.2439024390244,211.7073170731707 L 230.2439024390244,211.7073170731707 L 230.2439024390244,211.7073170731707 L 230.2439024390244,211.7073170731707 L 230.2439024390244,211.7073170731707 L 230.2439024390244,211.7073170731707 L 230.2439024390244,211.7073170731707 L 230.2439024390244,211.7073170731707 L 230.2439024390244,211.7073170731707"/></svg>
