<?xml version="1.0" encoding="utf-8"?>
<svg xmlns="http://www.w3.org/2000/svg"  viewBox="0,0,400,649.3506493506494" width="100%">
<path d="M135.06493506493507 15.584415584415586 L 135.06493506493507,15.584415584415586 L 133.6433114210892,21.38136212210298 L 135.1397573619796,28.097554023479862 L 139.1053391053391,35.3054353054352 L 145.09112286890064,42.57744998485733 L 152.64817487039707,49.4860420786347 L 161.3275613275613,55.60365560365564 L 170.68034845812622,60.502734576808685 L 180.25760247982467,63.755723014982294 L 189.6103896103896,64.93506493506494 L 189.6103896103896,64.93506493506494 L 197.63062726025686,64.06035665294944 L 204.32544136247841,61.59300233374308 L 209.62000962000968,57.76815776815776 L 213.43950973580607,52.82097874690463 L 215.70911941282313,46.986621060695114 L 216.35401635401635,40.50024050024055 L 215.2993782623412,33.59699285625212 L 212.47038284075322,26.512033919441322 L 207.7922077922078,19.48051948051948 L 207.7922077922078,19.48051948051948 L 200.5950154098302,12.463256907701428 L 192.25411077262928,7.017262572818054 L 183.16498316498317,3.1746031746030434 L 173.72312187127002,0.9673454117897895 L 164.32401617586802,0.4275559831115344 L 155.36315536315536,1.5873015873015957 L 147.23602871751018,4.478648923093438 L 140.3381255233107,9.133664689220229 L 135.06493506493507,15.584415584415586 L 135.06493506493507,15.584415584415586 L 135.06493506493507,15.584415584415586 L 135.06493506493507,15.584415584415586 L 135.06493506493507,15.584415584415586 L 135.06493506493507,15.584415584415586 L 135.06493506493507,15.584415584415586 L 135.06493506493507,15.584415584415586 L 135.06493506493507,15.584415584415586 L 135.06493506493507,15.584415584415586 L 135.06493506493507,15.584415584415586"/></svg>
