<?xml version="1.0" encoding="utf-8"?>
<svg xmlns="http://www.w3.org/2000/svg"  viewBox="0,0,400,649.3506493506494" width="100%">
<path d="M135.06493506493507 15.584415584415586 L 135.06493506493507,15.584415584415586 L 133.6433114210892,21.38136212210298 L 135.1397573619796,28.097554023479862 L 139.1053391053391,35.3054353054352 L 145.09112286890064,42.57744998485733 L 152.64817487039707,49.4860420786347 L 161.3275613275613,55.60365560365564 L 170.68034845812622,60.502734576808685 L 180.25760247982467,63.755723014982294 L 189.6103896103896,64.93506493506494 L 189.6103896103896,64.93506493506494 L 197.63062726025686,64.06035665294944 L 204.32544136247841,61.59300233374308 L 209.62000962000968,57.76815776815776 L 213.43950973580607,52.82097874690463 L 215.70911941282313,46.986621060695114 L 216.35401635401635,40.50024050024055 L 215.2993782623412,33.59699285625212 L 212.47038284075322,26.512033919441322 L 207.7922077922078,19.48051948051948 L 207.7922077922078,19.48051948051948 L 200.5950154098302,12.463256907701428 L 192.25411077262928,7.017262572818054 L 183.16498316498317,3.1746031746030434 L 173.72312187127002,0.9673454117897895 L 164.32401617586802,0.4275559831115344 L 155.36315536315536,1.5873015873015957 L 147.23602871751018,4.478648923093438 L 140.3381255233107,9.133664689220229 L 135.06493506493507,15.584415584415586 L 135.06493506493507,15.584415584415586 L 135.06493506493507,15.584415584415586 L 135.06493506493507,15.584415584415586 L 135.06493506493507,15.584415584415586 L 135.06493506493507,15.584415584415586 L 135.06493506493507,15.584415584415586 L 135.06493506493507,15.584415584415586 L 135.06493506493507,15.584415584415586 L 135.06493506493507,15.584415584415586 L 135.06493506493507,15.584415584415586M192.2077922077922 177.92207792207793 L 135.06493506493507,15.584415584415586 L 133.6433114210892,21.38136212210298 L 135.1397573619796,28.097554023479862 L 139.1053391053391,35.3054353054352 L 145.09112286890064,42.57744998485733 L 152.64817487039707,49.4860420786347 L 161.3275613275613,55.60365560365564 L 170.68034845812622,60.502734576808685 L 180.25760247982467,63.755723014982294 L 189.6103896103896,64.93506493506494 L 189.6103896103896,64.93506493506494 L 197.63062726025686,64.06035665294944 L 204.32544136247841,61.59300233374308 L 209.62000962000968,57.76815776815776 L 213.43950973580607,52.82097874690463 L 215.70911941282313,46.986621060695114 L 216.35401635401635,40.50024050024055 L 215.2993782623412,33.59699285625212 L 212.47038284075322,26.512033919441322 L 207.7922077922078,19.48051948051948 L 207.7922077922078,19.48051948051948 L 200.5950154098302,12.463256907701428 L 192.25411077262928,7.017262572818054 L 183.16498316498317,3.1746031746030434 L 173.72312187127002,0.9673454117897895 L 164.32401617586802,0.4275559831115344 L 155.36315536315536,1.5873015873015957 L 147.23602871751018,4.478648923093438 L 140.3381255233107,9.133664689220229 L 135.06493506493507,15.584415584415586 L 135.06493506493507,15.584415584415586 L 135.06493506493507,15.584415584415586 L 135.06493506493507,15.584415584415586 L 135.06493506493507,15.584415584415586 L 135.06493506493507,15.584415584415586 L 135.06493506493507,15.584415584415586 L 135.06493506493507,15.584415584415586 L 135.06493506493507,15.584415584415586 L 135.06493506493507,15.584415584415586 L 135.06493506493507,15.584415584415586 L 192.2077922077922,177.92207792207793 L 173.21539914132504,186.88472021805362 L 158.6909660983735,196.1359628026295 L 148.67724867724868,205.19480519480516 L 143.21700247626174,213.58024691358023 L 142.35298309372385,220.81128747795418 L 146.1279461279461,226.4069264069265 L 154.58464717723976,229.88616321949658 L 167.76584183991588,230.7679974346641 L 185.71428571428572,228.57142857142858 L 185.71428571428572,228.57142857142858 L 220.1165090053979,221.30475834179546 L 248.42605953717066,215.9407122370086 L 271.2842712842713,212.4579124579125 L 289.33247822136707,210.83498120535154 L 303.21201432312546,211.0505406801703 L 313.5642135642135,213.0832130832131 L 321.0304099192988,216.91162061532432 L 326.25193736304846,222.51438547734847 L 329.87012987012986,229.8701298701299 L 329.87012987012986,229.8701298701299 L 334.35056027648614,243.00856893449497 L 338.9699463773538,259.84536725277474 L 343.48244348244344,278.9802789802789 L 347.64220690146624,299.0130582723175 L 351.2033919441327,318.5434592842 L 353.92015392015384,336.1712361712362 L 355.54664813924074,350.4961430887358 L 355.837029911104,360.11793419200836 L 354.54545454545456,363.6363636363636 L 354.54545454545456,363.6363636363636 L 353.12204941834574,363.21593358630406 L 350.6618210321914,362.00452496748795 L 347.28234728234725,360.0769600769601 L 343.101206064169,357.5080612117649 L 338.2359752730123,354.37265066894696 L 332.80423280423275,350.74555074555076 L 326.9235565531862,346.7015837386208 L 320.7115244152281,342.31557194520167 L 314.2857142857143,337.6623376623377 L 314.2857142857143,337.6623376623377 L 307.39315554130366,333.256729553026 L 299.8378850230702,328.77629914666954 L 291.82299182299187,324.33862433862436 L 283.5515650330466,320.061283024246 L 275.2266937452123,316.06185309889014 L 267.05146705146706,312.4579124579125 L 259.22897404378887,309.3670389966687 L 251.96230381415566,306.90681061051436 L 245.45454545454547,305.1948051948052 L 245.45454545454547,305.1948051948052 L 228.95266598970298,303.8533482977928 L 211.85220814850445,307.25776281331844 L 194.7089947089947,314.8629148629148 L 178.07884844921884,326.123670568115 L 162.5175921472218,340.4948960504516 L 148.58104858104858,357.4314574314575 L 136.82504052874424,376.38822083266535 L 127.8053907683537,396.82005237560793 L 122.07792207792208,418.18181818181824 L 122.07792207792208,418.18181818181824 L 120.28931288190545,431.6925872481429 L 119.40926015000089,443.1510875955321 L 119.6729196729197,453.10245310245307 L 121.31544724137316,462.0918176473733 L 124.57199864607273,470.66431510875964 L 129.67772967772967,479.36507936507934 L 136.86779612705539,488.73924429479985 L 146.3773537847612,499.33194377638824 L 158.44155844155844,511.6883116883117 L 158.44155844155844,511.6883116883117 L 179.07113462669014,529.6545703953111 L 201.5926460370905,544.4996704255964 L 225.39682539682542,556.0846560846561 L 249.87440542996097,564.2705716779791 L 274.41611886056336,568.9184615110541 L 298.4126984126984,569.88936988937 L 321.2548768104323,567.0443411184152 L 342.33338677783115,560.2444195036788 L 361.038961038961,549.3506493506494 L 361.038961038961,549.3506493506494 L 370.7979263534819,541.8595122298827 L 378.6008230452675,534.4431974061604 L 384.7041847041847,526.3107263107264 L 389.36454492010046,516.6711203748241 L 392.8384372828817,504.73340102969735 L 395.3823953823954,489.70658970658974 L 397.2529528085083,470.799707836745 L 398.7066431510876,447.22177685140656 L 400.0,418.18181818181824 L 400.0,418.18181818181824 L 399.9287406694813,347.6903069495663 L 394.4275203534463,288.49696257103665 L 383.3573833573834,240.4521404521404 L 366.5793739867814,203.40619599878866 L 343.9545365471292,177.209484616892 L 315.34391534391534,161.71236171236174 L 280.6085546826288,156.7651826911086 L 239.6094988687581,162.2183029590437 L 192.2077922077922,177.92207792207793 L 192.2077922077922,177.92207792207793 L 192.2077922077922,177.92207792207793 L 192.2077922077922,177.92207792207793 L 192.2077922077922,177.92207792207793 L 192.2077922077922,177.92207792207793 L 192.2077922077922,177.92207792207793 L 192.2077922077922,177.92207792207793 L 192.2077922077922,177.92207792207793 L 192.2077922077922,177.92207792207793 L 192.2077922077922,177.92207792207793 L 289.61038961038963,376.62337662337666 L 289.61038961038963,376.62337662337666 L 289.61038961038963,376.62337662337666 L 289.61038961038963,376.62337662337666 L 289.61038961038963,376.62337662337666 L 289.61038961038963,376.62337662337666 L 289.61038961038963,376.62337662337666 L 289.61038961038963,376.62337662337666 L 289.61038961038963,376.62337662337666 L 289.61038961038963,376.62337662337666 L 289.61038961038963,376.62337662337666 L 301.1864678531345,387.5331801257728 L 312.28154561487895,401.467942208683 L 322.51082251082255,417.5084175084175 L 331.48949815616487,434.73536066128656 L 338.83277216610554,452.2295263036004 L 344.15584415584414,469.0716690716692 L 347.07391374058045,484.3425436018029 L 347.2021805355139,497.122904530312 L 344.15584415584414,506.4935064935066 L 344.15584415584414,506.4935064935066 L 336.7359663655959,513.1010279158428 L 324.7198617568988,517.4104359289545 L 309.18710918710923,519.5286195286195 L 291.21728751358376,519.5624677106159 L 271.8899755936793,517.6188694707214 L 252.28475228475224,513.804713804714 L 233.48119644415945,508.22688970837123 L 216.5588869292573,500.99228617747144 L 202.5974025974026,492.20779220779224 L 202.5974025974026,492.20779220779224 L 191.24935421231714,481.8769707658597 L 182.32768603138973,470.84068195179316 L 175.85377585377591,459.1630591630592 L 171.84900147863112,446.90823579712475 L 170.3347407051111,434.1403452514564 L 171.33237133237134,420.92352092352104 L 174.86327115956743,407.32189621078516 L 180.948817985855,393.3996045107157 L 189.6103896103896,379.22077922077926 L 189.6103896103896,379.22077922077926 L 198.127661090624,368.78485026633183 L 207.2435109472147,360.8608127126646 L 216.979316979317,355.45935545935544 L 227.35645698608664,352.5911674059823 L 238.39630876667917,352.2669374521227 L 250.12025012025018,354.4973544973545 L 262.54965884595515,359.2931074412556 L 275.70591274294975,366.6648851834038 L 289.61038961038963,376.62337662337666 L 289.61038961038963,376.62337662337666 L 289.61038961038963,376.62337662337666 L 289.61038961038963,376.62337662337666 L 289.61038961038963,376.62337662337666 L 289.61038961038963,376.62337662337666 L 289.61038961038963,376.62337662337666 L 289.61038961038963,376.62337662337666 L 289.61038961038963,376.62337662337666 L 289.61038961038963,376.62337662337666 L 289.61038961038963,376.62337662337666"/></svg>
