<?xml version="1.0" encoding="utf-8"?>
<svg xmlns="http://www.w3.org/2000/svg"  viewBox="0,0,400,602.2264386851949" width="100%">
<path d="M241.9952400276386 12.69618434473607 L 241.9952400276386,12.69618434473607 L 240.17021836647402,15.86803689526987 L 240.18776665167755,20.14543141362405 L 241.75833817739132,25.133531482720393 L 244.59238623775738,30.43750068547984 L 248.40036412691802,35.66250260482357 L 252.89272513901534,40.41370082367265 L 257.7799225681916,44.296258924948255 L 262.77240970858884,46.91534049157144 L 267.5806398543493,47.87610910646327 L 267.5806398543493,47.87610910646327 L 269.31353301819536,47.53099283079452 L 270.94113647082054,46.53659000259563 L 272.4371277844194,44.954319620079616 L 273.7751845311867,42.84560068145839 L 274.92898428331716,40.27185218494436 L 275.8722046130055,37.29449312874966 L 276.5785230924466,33.974942511086574 L 277.0216172938351,30.37461933016738 L 277.1751647893658,26.554942584204362 L 277.1751647893658,26.554942584204362 L 276.42497559691583,20.253645839045898 L 274.33234258639794,14.917504780079703 L 271.1341676080591,10.643034975925774 L 267.0673525121467,7.526751995203388 L 262.36879914890824,5.665171406531577 L 257.27540936859083,5.154808778529738 L 252.02408502144186,6.092179679816901 L 246.85172795770868,8.573799679012588 L 241.9952400276386,12.69618434473607 L 241.9952400276386,12.69618434473607 L 241.9952400276386,12.69618434473607 L 241.9952400276386,12.69618434473607 L 241.9952400276386,12.69618434473607 L 241.9952400276386,12.69618434473607 L 241.9952400276386,12.69618434473607 L 241.9952400276386,12.69618434473607 L 241.9952400276386,12.69618434473607 L 241.9952400276386,12.69618434473607 L 241.9952400276386,12.69618434473607"/></svg>
