<?xml version="1.0" encoding="utf-8"?>
<svg xmlns="http://www.w3.org/2000/svg"  viewBox="0,0,400,602.2264386851949" width="100%">
<path d="M241.9952400276386 12.69618434473607 L 241.9952400276386,12.69618434473607 L 240.17021836647402,15.86803689526987 L 240.18776665167755,20.14543141362405 L 241.75833817739132,25.133531482720393 L 244.59238623775738,30.43750068547984 L 248.40036412691802,35.66250260482357 L 252.89272513901534,40.41370082367265 L 257.7799225681916,44.296258924948255 L 262.77240970858884,46.91534049157144 L 267.5806398543493,47.87610910646327 L 267.5806398543493,47.87610910646327 L 269.31353301819536,47.53099283079452 L 270.94113647082054,46.53659000259563 L 272.4371277844194,44.954319620079616 L 273.7751845311867,42.84560068145839 L 274.92898428331716,40.27185218494436 L 275.8722046130055,37.29449312874966 L 276.5785230924466,33.974942511086574 L 277.0216172938351,30.37461933016738 L 277.1751647893658,26.554942584204362 L 277.1751647893658,26.554942584204362 L 276.42497559691583,20.253645839045898 L 274.33234258639794,14.917504780079703 L 271.1341676080591,10.643034975925774 L 267.0673525121467,7.526751995203388 L 262.36879914890824,5.665171406531577 L 257.27540936859083,5.154808778529738 L 252.02408502144186,6.092179679816901 L 246.85172795770868,8.573799679012588 L 241.9952400276386,12.69618434473607 L 241.9952400276386,12.69618434473607 L 241.9952400276386,12.69618434473607 L 241.9952400276386,12.69618434473607 L 241.9952400276386,12.69618434473607 L 241.9952400276386,12.69618434473607 L 241.9952400276386,12.69618434473607 L 241.9952400276386,12.69618434473607 L 241.9952400276386,12.69618434473607 L 241.9952400276386,12.69618434473607 L 241.9952400276386,12.69618434473607M255.85399826710687 55.338517389253894 L 241.9952400276386,12.69618434473607 L 240.17021836647402,15.86803689526987 L 240.18776665167755,20.14543141362405 L 241.75833817739132,25.133531482720393 L 244.59238623775738,30.43750068547984 L 248.40036412691802,35.66250260482357 L 252.89272513901534,40.41370082367265 L 257.7799225681916,44.296258924948255 L 262.77240970858884,46.91534049157144 L 267.5806398543493,47.87610910646327 L 267.5806398543493,47.87610910646327 L 269.31353301819536,47.53099283079452 L 270.94113647082054,46.53659000259563 L 272.4371277844194,44.954319620079616 L 273.7751845311867,42.84560068145839 L 274.92898428331716,40.27185218494436 L 275.8722046130055,37.29449312874966 L 276.5785230924466,33.974942511086574 L 277.0216172938351,30.37461933016738 L 277.1751647893658,26.554942584204362 L 277.1751647893658,26.554942584204362 L 276.42497559691583,20.253645839045898 L 274.33234258639794,14.917504780079703 L 271.1341676080591,10.643034975925774 L 267.0673525121467,7.526751995203388 L 262.36879914890824,5.665171406531577 L 257.27540936859083,5.154808778529738 L 252.02408502144186,6.092179679816901 L 246.85172795770868,8.573799679012588 L 241.9952400276386,12.69618434473607 L 241.9952400276386,12.69618434473607 L 241.9952400276386,12.69618434473607 L 241.9952400276386,12.69618434473607 L 241.9952400276386,12.69618434473607 L 241.9952400276386,12.69618434473607 L 241.9952400276386,12.69618434473607 L 241.9952400276386,12.69618434473607 L 241.9952400276386,12.69618434473607 L 241.9952400276386,12.69618434473607 L 241.9952400276386,12.69618434473607 L 255.85399826710687,55.338517389253894 L 245.99478669693747,58.228135019431214 L 235.25816086659287,63.056838164595575 L 224.18811761738164,69.3946938372616 L 213.32865379061244,76.81176904994318 L 203.223766227594,84.87813081515444 L 194.4174517696349,93.16384614540956 L 187.45370725804395,101.23898205322251 L 182.87652953412962,108.6736055511076 L 181.2299154392007,115.03778365157883 L 181.2299154392007,115.03778365157883 L 180.23405025390173,119.08266339098691 L 177.3692926944295,126.70739331190981 L 172.81989975542086,137.54345942507433 L 166.77012843151235,151.2223477412067 L 159.40423571734104,167.3755442710333 L 150.9064786075436,185.63453502528063 L 141.46111409675692,205.63080601467485 L 131.2523991796177,226.99584324994248 L 120.46459085076283,249.36113274181 L 120.46459085076283,249.36113274181 L 102.90168207625462,284.70337914166964 L 89.01513905188078,313.5176634458252 L 78.37502879015544,337.2517191835661 L 70.55141830359267,357.35327988418146 L 65.11437460470661,375.2700790769603 L 61.63396470601139,392.449850291192 L 59.68025562002115,410.3403270561656 L 58.82331435924996,430.38924290117035 L 58.633207936211996,454.0443313554955 L 58.633207936211996,454.0443313554955 L 59.307354559446644,484.7874646749365 L 61.49942785278452,510.4679177131661 L 65.46387795167642,531.4717527446617 L 71.45515499157317,548.1850320439002 L 79.72770910792563,560.9938178853587 L 90.53599043618459,570.2841725435144 L 104.13444911180086,576.4421582928444 L 120.77753527022533,579.853837407826 L 140.7196990469088,580.9052721629361 L 140.7196990469088,580.9052721629361 L 152.01348293246465,580.5820912437715 L 162.05256442597005,579.4253667774404 L 171.31952137052113,577.1543262006868 L 180.29693160921437,573.4881969502544 L 189.46737298514617,568.1462064628873 L 199.31342334141286,560.8475821753295 L 210.31766052111092,551.3115515243247 L 222.9626623673368,539.2573419466167 L 237.73100672318682,524.4041808789499 L 237.73100672318682,524.4041808789499 L 259.35341880810586,500.6057814287962 L 281.20395860067055,472.5256003889872 L 302.72108097436865,441.1726641587244 L 323.3432408026879,407.5559991372095 L 342.5088929591162,372.68463172364386 L 359.6564923171414,337.56758831722925 L 374.2244937502514,303.2138953171671 L 385.6513521319339,270.63257912265897 L 393.37552233567686,240.8326661329064 L 393.37552233567686,240.8326661329064 L 398.7321363940468,202.1825679721861 L 398.0082696294022,166.87541814273337 L 391.59875845882203,135.41134277284843 L 379.89843929938485,108.29046799083112 L 363.3021485681696,86.01291992498106 L 342.20472268225546,69.07882470359854 L 317.00099805872105,57.98830845498321 L 288.0858111146452,53.24149730743512 L 255.85399826710687,55.338517389253894 L 255.85399826710687,55.338517389253894 L 255.85399826710687,55.338517389253894 L 255.85399826710687,55.338517389253894 L 255.85399826710687,55.338517389253894 L 255.85399826710687,55.338517389253894 L 255.85399826710687,55.338517389253894 L 255.85399826710687,55.338517389253894 L 255.85399826710687,55.338517389253894 L 255.85399826710687,55.338517389253894 L 255.85399826710687,55.338517389253894 L 341.1386643561425,119.30201695603061 L 341.1386643561425,119.30201695603061 L 341.1386643561425,119.30201695603061 L 341.1386643561425,119.30201695603061 L 341.1386643561425,119.30201695603061 L 341.1386643561425,119.30201695603061 L 341.1386643561425,119.30201695603061 L 341.1386643561425,119.30201695603061 L 341.1386643561425,119.30201695603061 L 341.1386643561425,119.30201695603061 L 341.1386643561425,119.30201695603061 L 347.2352311072603,127.46196957566065 L 352.0858696089292,135.14811849479582 L 355.78709542976856,142.75530013051534 L 358.4354241383976,150.67835089989805 L 360.1273713034355,159.31210722002268 L 360.95945249350166,169.0514055079681 L 361.0281832772154,180.29108218081322 L 360.430079223196,193.42597365563688 L 359.2616559000626,208.85091634951806 L 359.2616559000626,208.85091634951806 L 351.3459169161814,250.8366510560048 L 335.18248388665273,298.20093517736575 L 312.55250775963253,348.1886879366508 L 285.23713948327617,398.0448285569096 L 255.01753000573981,445.01427626119175 L 223.67483027517906,486.34195027254697 L 192.99019123974986,519.272769814025 L 164.7447638476078,541.0516541086753 L 140.7196990469088,548.9235223795476 L 140.7196990469088,548.9235223795476 L 128.8555958922389,547.303230712424 L 118.21987270181447,542.5944408494835 L 108.93536747205985,535.0252804983714 L 101.12491819939973,524.8238773667338 L 94.91136288025858,512.2183591622157 L 90.41753951106092,497.43685359246314 L 87.76628608823134,480.70748836512143 L 87.08044060819434,462.2583911878363 L 88.48284106737447,442.3176897682531 L 88.48284106737447,442.3176897682531 L 93.1433731460054,419.3367479371626 L 101.68207625461103,390.58242027411893 L 113.39701898505108,357.7042455882515 L 127.58626992918536,322.35176268868986 L 143.5478976788737,286.1745103845634 L 160.57997082597586,250.82202748500188 L 177.98055796235164,217.94385279913442 L 195.0477276798608,189.18952513609074 L 211.0795485703632,166.20858330500022 L 211.0795485703632,166.20858330500022 L 216.31478698940887,159.08690422657773 L 221.29557527300386,152.03541828896905 L 225.9253978525287,145.20328591640435 L 230.1077391593641,138.73966753311322 L 233.74608362489084,132.7937235633256 L 236.74391568048966,127.51461443127108 L 239.00471975754124,123.05150056117962 L 240.4319802874263,119.55354237728089 L 240.92918170152566,117.16990030380474 L 240.92918170152566,117.16990030380474 L 241.2845344768966,115.00268708117196 L 241.63988725226758,112.78282900292845 L 241.99524002763863,110.53664849687961 L 242.35059280300962,108.29046799083106 L 242.70594557838058,106.07060991258761 L 243.06129835375154,103.90339668995472 L 243.41665112912256,101.81515075073767 L 243.7720039044935,99.83219452274156 L 244.12735667986448,97.98085043377172 L 244.12735667986448,97.98085043377172 L 244.74008430488684,96.60184768819634 L 246.5022246107389,95.31936051124005 L 249.29971374359772,94.15093718810661 L 253.01848784964048,93.11412600399954 L 257.5444830750446,92.22647524412221 L 262.76363556598704,91.50553319367832 L 268.5618814686453,90.96884813787108 L 274.8251569291964,90.63396836190417 L 281.4393980938176,90.51844215098109 L 281.4393980938176,90.51844215098109 L 290.2252395523725,90.8036017855381 L 298.18631160636284,91.69417725961588 L 305.4454522522128,93.24281342882527 L 312.1254994863471,95.50215514877664 L 318.3492913051904,98.52484727508036 L 324.23966570516694,102.36353466334725 L 329.91946068270147,107.07086216918748 L 335.5115142342185,112.69947464821175 L 341.1386643561425,119.30201695603061 L 341.1386643561425,119.30201695603061 L 341.1386643561425,119.30201695603061 L 341.1386643561425,119.30201695603061 L 341.1386643561425,119.30201695603061 L 341.1386643561425,119.30201695603061 L 341.1386643561425,119.30201695603061 L 341.1386643561425,119.30201695603061 L 341.1386643561425,119.30201695603061 L 341.1386643561425,119.30201695603061 L 341.1386643561425,119.30201695603061"/></svg>
