<?xml version="1.0" encoding="utf-8"?>
<svg xmlns="http://www.w3.org/2000/svg"  viewBox="0,0,400,496.7768380942389" width="100%">
<path d="M215.15073012208603 152.53566989890123 L 215.15073012208603,152.53566989890123 L 213.04677175527712,154.7878497716013 L 210.00626334239502,157.6617729521987 L 206.15512757870994,161.0708675876951 L 201.6192871594923,164.92856182509215 L 196.52466478001244,169.14828381139145 L 190.99718313554072,173.6434616935948 L 185.16276492134753,178.32752361870354 L 179.1473328327032,183.1138977337195 L 173.0768095648781,187.91601218564426 L 173.0768095648781,187.91601218564426 L 159.51519762320913,200.09378617408177 L 145.89849450235945,214.5066880035679 L 132.66742963577522,230.4857533554792 L 120.26273245690264,247.36201791119186 L 109.12513239918809,264.4665173520819 L 99.6953588960777,281.1302873595259 L 92.41414138101781,296.68436361489967 L 87.72220928745463,310.45978179957973 L 86.06029204883441,321.78757759494226 L 86.06029204883441,321.78757759494226 L 87.18179105358601,331.40885853044296 L 90.35740402493532,340.95930794985406 L 95.30380489852405,350.15559978881726 L 101.73766760999382,358.7144079829743 L 109.3756660949864,366.35240646796694 L 117.93447428914344,372.7862691794367 L 127.13076612810669,377.7326700530254 L 136.6812155475178,380.9082830243747 L 146.3024964830185,382.02978202912635 L 146.3024964830185,382.02978202912635 L 150.66519319623936,381.72022206992 L 155.98805046089677,380.82826964508837 L 162.09792457099388,379.40901593381204 L 168.82167182053396,377.51755211527194 L 175.98614850352033,375.2089693686487 L 183.41821091395613,372.5383588731232 L 190.94471534584474,369.56081180787623 L 198.39251809318938,366.3314193520886 L 205.58847544999333,362.90527268494094 L 205.58847544999333,362.90527268494094 L 219.51867361427645,355.8247444654682 L 230.40311658670802,350.53074448514354 L 238.73762497991476,347.039013080876 L 245.01801940652376,345.3652905895741 L 249.74012047916216,345.5253173481468 L 253.39974881045688,347.534833693503 L 256.49272501303494,351.4095799625513 L 259.51486969952356,357.16529649220047 L 262.96200348254956,364.8177236193594 L 262.96200348254956,364.8177236193594 L 271.7437997829145,376.1363375515252 L 285.61759507327463,384.0392983744824 L 303.08805734729424,388.6525287835017 L 322.6598545986379,390.10195147385315 L 342.83765482097016,388.5134891408073 L 362.1261260079555,384.01306447963447 L 379.02993615325846,376.726600185605 L 392.05375325054365,366.78001895398916 L 399.70224529347536,354.2992434800575 L 399.70224529347536,354.2992434800575 L 400.0,350.40219840038844 L 397.7635604642089,347.63058740969814 L 393.07949853910003,345.97654033953233 L 386.03438607767214,345.4321870214365 L 376.7147949329233,345.98965728695634 L 365.20729695785195,347.6410809676374 L 351.5984640054567,350.37858789502525 L 335.9748679287357,354.19430790066554 L 318.4230805806873,359.0803708161038 L 318.4230805806873,359.0803708161038 L 309.1493987519225,360.4209228428362 L 301.7488170153043,358.82590203607833 L 296.2528160446502,354.4763222702814 L 292.6928765137778,347.5531974198966 L 291.1004790965047,338.237541359375 L 291.50710446664857,326.71036796316776 L 293.944233298027,313.15269110572603 L 298.4433462644574,297.7455246615009 L 305.0359240397575,280.6698825049436 L 305.0359240397575,280.6698825049436 L 308.74670846600577,272.0284375420154 L 312.19777733325907,262.8203404503705 L 315.3419096307908,253.25808577827777 L 318.13188434787463,243.55416807400593 L 320.5204804737842,233.9210818858236 L 322.46047699779314,224.5713217619997 L 323.90465290917507,215.71738225080276 L 324.80578719720353,207.5717579005015 L 325.11665885115224,200.3469432593648 L 325.11665885115224,200.3469432593648 L 324.9264631135042,191.50087391662223 L 324.3034081108645,183.9769928742184 L 323.168792158689,177.610026594611 L 321.4439135724335,172.23470154025765 L 319.0500706675542,167.68574417361603 L 315.9085617595073,163.7978809571438 L 311.94068516374875,160.40583835329855 L 307.0677391957344,157.34434282453796 L 301.21102217092044,154.44812083331976 L 301.21102217092044,154.44812083331976 L 290.8932313272055,150.44745186900118 L 279.9379568386845,147.37546278230135 L 268.6993562858052,145.24002374167495 L 257.53158724901544,144.04900491557615 L 246.78880730876318,143.81027647245944 L 236.82517404549614,144.53170858077922 L 227.9948450396624,146.2211714089898 L 220.6519778717097,148.8865351255457 L 215.15073012208603,152.53566989890123 L 215.15073012208603,152.53566989890123 L 215.15073012208603,152.53566989890123 L 215.15073012208603,152.53566989890123 L 215.15073012208603,152.53566989890123 L 215.15073012208603,152.53566989890123 L 215.15073012208603,152.53566989890123 L 215.15073012208603,152.53566989890123 L 215.15073012208603,152.53566989890123 L 215.15073012208603,152.53566989890123 L 215.15073012208603,152.53566989890123 L 275.3929345562701,207.99674699703897 L 275.3929345562701,207.99674699703897 L 275.3929345562701,207.99674699703897 L 275.3929345562701,207.99674699703897 L 275.3929345562701,207.99674699703897 L 275.3929345562701,207.99674699703897 L 275.3929345562701,207.99674699703897 L 275.3929345562701,207.99674699703897 L 275.3929345562701,207.99674699703897 L 275.3929345562701,207.99674699703897 L 275.3929345562701,207.99674699703897 L 274.23208470924646,227.22488022587396 L 266.5311248766187,248.3497240522187 L 253.61224335872566,270.0805708495519 L 236.79762845590577,291.12671299135275 L 217.40946846849806,310.19744285109977 L 196.76995169684113,326.002052802272 L 176.20126644127384,337.2498352183481 L 157.0256010021348,342.65008247280707 L 140.56514367976285,340.9120869391277 L 140.56514367976285,340.9120869391277 L 132.2463756234649,336.26868755103334 L 127.06780478047152,329.9725527875155 L 125.05304165614582,322.00007214321096 L 126.22569675585099,312.3276351127567 L 130.60938058495032,300.9316311907894 L 138.22770364880685,287.78844987194594 L 149.10427645278392,272.87448065086306 L 163.26270950224466,256.16611302217757 L 180.72661330255227,237.63973648052635 L 180.72661330255227,237.63973648052635 L 199.3985879606098,219.15139908640478 L 215.92200663061695,204.48009339266576 L 230.34409032329998,193.61794923085515 L 242.71206004938531,186.5570964325183 L 253.0731368195994,183.2896648292011 L 261.4745416446685,183.80778425244893 L 267.96349553531905,188.10358453380744 L 272.58721950227743,196.16919550482223 L 275.3929345562701,207.99674699703897 L 275.3929345562701,207.99674699703897 L 275.3929345562701,207.99674699703897 L 275.3929345562701,207.99674699703897 L 275.3929345562701,207.99674699703897 L 275.3929345562701,207.99674699703897 L 275.3929345562701,207.99674699703897 L 275.3929345562701,207.99674699703897 L 275.3929345562701,207.99674699703897 L 275.3929345562701,207.99674699703897 L 275.3929345562701,207.99674699703897M235.2314649334807 23.44523182564961 L 215.15073012208603,152.53566989890123 L 213.04677175527712,154.7878497716013 L 210.00626334239502,157.6617729521987 L 206.15512757870994,161.0708675876951 L 201.6192871594923,164.92856182509215 L 196.52466478001244,169.14828381139145 L 190.99718313554072,173.6434616935948 L 185.16276492134753,178.32752361870354 L 179.1473328327032,183.1138977337195 L 173.0768095648781,187.91601218564426 L 173.0768095648781,187.91601218564426 L 159.51519762320913,200.09378617408177 L 145.89849450235945,214.5066880035679 L 132.66742963577522,230.4857533554792 L 120.26273245690264,247.36201791119186 L 109.12513239918809,264.4665173520819 L 99.6953588960777,281.1302873595259 L 92.41414138101781,296.68436361489967 L 87.72220928745463,310.45978179957973 L 86.06029204883441,321.78757759494226 L 86.06029204883441,321.78757759494226 L 87.18179105358601,331.40885853044296 L 90.35740402493532,340.95930794985406 L 95.30380489852405,350.15559978881726 L 101.73766760999382,358.7144079829743 L 109.3756660949864,366.35240646796694 L 117.93447428914344,372.7862691794367 L 127.13076612810669,377.7326700530254 L 136.6812155475178,380.9082830243747 L 146.3024964830185,382.02978202912635 L 146.3024964830185,382.02978202912635 L 150.66519319623936,381.72022206992 L 155.98805046089677,380.82826964508837 L 162.09792457099388,379.40901593381204 L 168.82167182053396,377.51755211527194 L 175.98614850352033,375.2089693686487 L 183.41821091395613,372.5383588731232 L 190.94471534584474,369.56081180787623 L 198.39251809318938,366.3314193520886 L 205.58847544999333,362.90527268494094 L 205.58847544999333,362.90527268494094 L 219.51867361427645,355.8247444654682 L 230.40311658670802,350.53074448514354 L 238.73762497991476,347.039013080876 L 245.01801940652376,345.3652905895741 L 249.74012047916216,345.5253173481468 L 253.39974881045688,347.534833693503 L 256.49272501303494,351.4095799625513 L 259.51486969952356,357.16529649220047 L 262.96200348254956,364.8177236193594 L 262.96200348254956,364.8177236193594 L 271.7437997829145,376.1363375515252 L 285.61759507327463,384.0392983744824 L 303.08805734729424,388.6525287835017 L 322.6598545986379,390.10195147385315 L 342.83765482097016,388.5134891408073 L 362.1261260079555,384.01306447963447 L 379.02993615325846,376.726600185605 L 392.05375325054365,366.78001895398916 L 399.70224529347536,354.2992434800575 L 399.70224529347536,354.2992434800575 L 400.0,350.40219840038844 L 397.7635604642089,347.63058740969814 L 393.07949853910003,345.97654033953233 L 386.03438607767214,345.4321870214365 L 376.7147949329233,345.98965728695634 L 365.20729695785195,347.6410809676374 L 351.5984640054567,350.37858789502525 L 335.9748679287357,354.19430790066554 L 318.4230805806873,359.0803708161038 L 318.4230805806873,359.0803708161038 L 309.1493987519225,360.4209228428362 L 301.7488170153043,358.82590203607833 L 296.2528160446502,354.4763222702814 L 292.6928765137778,347.5531974198966 L 291.1004790965047,338.237541359375 L 291.50710446664857,326.71036796316776 L 293.944233298027,313.15269110572603 L 298.4433462644574,297.7455246615009 L 305.0359240397575,280.6698825049436 L 305.0359240397575,280.6698825049436 L 308.74670846600577,272.0284375420154 L 312.19777733325907,262.8203404503705 L 315.3419096307908,253.25808577827777 L 318.13188434787463,243.55416807400593 L 320.5204804737842,233.9210818858236 L 322.46047699779314,224.5713217619997 L 323.90465290917507,215.71738225080276 L 324.80578719720353,207.5717579005015 L 325.11665885115224,200.3469432593648 L 325.11665885115224,200.3469432593648 L 324.9264631135042,191.50087391662223 L 324.3034081108645,183.9769928742184 L 323.168792158689,177.610026594611 L 321.4439135724335,172.23470154025765 L 319.0500706675542,167.68574417361603 L 315.9085617595073,163.7978809571438 L 311.94068516374875,160.40583835329855 L 307.0677391957344,157.34434282453796 L 301.21102217092044,154.44812083331976 L 301.21102217092044,154.44812083331976 L 290.8932313272055,150.44745186900118 L 279.9379568386845,147.37546278230135 L 268.6993562858052,145.24002374167495 L 257.53158724901544,144.04900491557615 L 246.78880730876318,143.81027647245944 L 236.82517404549614,144.53170858077922 L 227.9948450396624,146.2211714089898 L 220.6519778717097,148.8865351255457 L 215.15073012208603,152.53566989890123 L 215.15073012208603,152.53566989890123 L 215.15073012208603,152.53566989890123 L 215.15073012208603,152.53566989890123 L 215.15073012208603,152.53566989890123 L 215.15073012208603,152.53566989890123 L 215.15073012208603,152.53566989890123 L 215.15073012208603,152.53566989890123 L 215.15073012208603,152.53566989890123 L 215.15073012208603,152.53566989890123 L 215.15073012208603,152.53566989890123 L 275.3929345562701,207.99674699703897 L 275.3929345562701,207.99674699703897 L 275.3929345562701,207.99674699703897 L 275.3929345562701,207.99674699703897 L 275.3929345562701,207.99674699703897 L 275.3929345562701,207.99674699703897 L 275.3929345562701,207.99674699703897 L 275.3929345562701,207.99674699703897 L 275.3929345562701,207.99674699703897 L 275.3929345562701,207.99674699703897 L 275.3929345562701,207.99674699703897 L 274.23208470924646,227.22488022587396 L 266.5311248766187,248.3497240522187 L 253.61224335872566,270.0805708495519 L 236.79762845590577,291.12671299135275 L 217.40946846849806,310.19744285109977 L 196.76995169684113,326.002052802272 L 176.20126644127384,337.2498352183481 L 157.0256010021348,342.65008247280707 L 140.56514367976285,340.9120869391277 L 140.56514367976285,340.9120869391277 L 132.2463756234649,336.26868755103334 L 127.06780478047152,329.9725527875155 L 125.05304165614582,322.00007214321096 L 126.22569675585099,312.3276351127567 L 130.60938058495032,300.9316311907894 L 138.22770364880685,287.78844987194594 L 149.10427645278392,272.87448065086306 L 163.26270950224466,256.16611302217757 L 180.72661330255227,237.63973648052635 L 180.72661330255227,237.63973648052635 L 199.3985879606098,219.15139908640478 L 215.92200663061695,204.48009339266576 L 230.34409032329998,193.61794923085515 L 242.71206004938531,186.5570964325183 L 253.0731368195994,183.2896648292011 L 261.4745416446685,183.80778425244893 L 267.96349553531905,188.10358453380744 L 272.58721950227743,196.16919550482223 L 275.3929345562701,207.99674699703897 L 275.3929345562701,207.99674699703897 L 275.3929345562701,207.99674699703897 L 275.3929345562701,207.99674699703897 L 275.3929345562701,207.99674699703897 L 275.3929345562701,207.99674699703897 L 275.3929345562701,207.99674699703897 L 275.3929345562701,207.99674699703897 L 275.3929345562701,207.99674699703897 L 275.3929345562701,207.99674699703897 L 275.3929345562701,207.99674699703897 L 235.2314649334807,23.44523182564961 L 227.13830837287549,37.86469212884796 L 222.54737677447707,51.04066581625133 L 221.34848777992391,62.792139013408836 L 223.43145903085437,72.93809784586942 L 228.686108168907,81.29752843918168 L 237.00225283572013,87.68941691889476 L 248.26971067293223,91.93274941055725 L 262.37829932218176,93.84651203971825 L 279.2178364251072,93.24969093192641 L 279.2178364251072,93.24969093192641 L 288.1111267785761,92.25017953821806 L 295.18640821907934,90.9909525855144 L 300.6797858002487,89.21229451482058 L 304.82736457571605,86.65448976714147 L 307.8652495991134,83.05782278348191 L 310.0295459240726,78.16257800484686 L 311.5563586042257,71.70903987224104 L 312.68179269320444,63.437492826669505 L 313.64195324464094,53.08822130913702 L 313.64195324464094,53.08822130913702 L 314.0695657306631,45.660093982928466 L 314.0879294570569,38.71204693243796 L 313.71278476073064,32.29917133684649 L 312.95987197859324,26.47655837533496 L 311.8449314475537,21.299299227083946 L 310.3837035045205,16.82248507127434 L 308.5919284864027,13.101207087086772 L 306.48534673010903,10.190556453702186 L 304.07969857254824,8.145624350301269 L 304.07969857254824,8.145624350301269 L 295.9262040537926,3.853759153170055 L 287.512993976042,1.1516679838268025 L 279.0053418768385,0.0 L 270.5685212937246,0.35940435941748466 L 262.36780576424263,2.190530219807311 L 254.56846882593487,5.454026738897425 L 247.33578401634375,10.110543074415773 L 240.83502487301158,16.120728384090572 L 235.2314649334807,23.44523182564961 L 235.2314649334807,23.44523182564961 L 235.2314649334807,23.44523182564961 L 235.2314649334807,23.44523182564961 L 235.2314649334807,23.44523182564961 L 235.2314649334807,23.44523182564961 L 235.2314649334807,23.44523182564961 L 235.2314649334807,23.44523182564961 L 235.2314649334807,23.44523182564961 L 235.2314649334807,23.44523182564961 L 235.2314649334807,23.44523182564961 L 286.86764016278136,57.86934864518337 L 286.86764016278136,57.86934864518337 L 286.86764016278136,57.86934864518337 L 286.86764016278136,57.86934864518337 L 286.86764016278136,57.86934864518337 L 286.86764016278136,57.86934864518337 L 286.86764016278136,57.86934864518337 L 286.86764016278136,57.86934864518337 L 286.86764016278136,57.86934864518337 L 286.86764016278136,57.86934864518337 L 286.86764016278136,57.86934864518337 L 285.93764859042005,64.48422523110433 L 283.3942724849074,69.6352504845073 L 279.6074097635999,73.27520339466605 L 274.94695834385425,75.35686295085414 L 269.7828161430273,75.83300814234515 L 264.4848810784755,74.65641795841279 L 259.42305106755555,71.7798713883306 L 254.9672240276243,67.15614742137225 L 251.48729787603833,60.73802504681119 L 251.48729787603833,60.73802504681119 L 250.48647478758744,55.506986414121904 L 251.13051690610567,50.197246096888406 L 253.15183850414337,45.08425999101496 L 256.2828538542511,40.44348399240535 L 260.2559772289793,36.550373996963515 L 264.8036229008785,33.68038590059328 L 269.6582051424993,32.10897559919861 L 274.55213822639195,32.11159898868349 L 279.2178364251072,33.96371196495159 L 279.2178364251072,33.96371196495159 L 280.4875569357499,35.192769938580085 L 281.72579677257517,36.92551869328978 L 282.90107526176513,39.098996881445785 L 283.9819117295024,41.65024315541294 L 284.9368255019693,44.516296167555986 L 285.73433590534813,47.6341945702397 L 286.34296226582154,50.940977015829 L 286.7312239095718,54.37368215668861 L 286.86764016278136,57.86934864518337 L 286.86764016278136,57.86934864518337 L 286.86764016278136,57.86934864518337 L 286.86764016278136,57.86934864518337 L 286.86764016278136,57.86934864518337 L 286.86764016278136,57.86934864518337 L 286.86764016278136,57.86934864518337 L 286.86764016278136,57.86934864518337 L 286.86764016278136,57.86934864518337 L 286.86764016278136,57.86934864518337 L 286.86764016278136,57.86934864518337"/></svg>
