<?xml version="1.0" encoding="utf-8"?>
<svg xmlns="http://www.w3.org/2000/svg"  viewBox="0,0,400,351.7460317460317" width="100%">
<path d="M157.14285714285714 93.65079365079362 L 157.14285714285714,93.65079365079362 L 129.72761120909266,109.37095825984719 L 104.5228297080149,130.09994121105228 L 82.32804232804236,154.28571428571425 L 63.94277875759358,180.3762492651381 L 50.166568685087206,206.81951793062902 L 41.7989417989418,232.06349206349205 L 39.63942778757593,254.55614344503232 L 44.48755633940819,272.7454438565549 L 57.142857142857146,285.07936507936506 L 57.142857142857146,285.07936507936506 L 66.18329087464888,288.30099941211046 L 76.6973675615651,289.1240446796002 L 88.53615520282186,287.6190476190476 L 101.55072179763539,283.856554967666 L 115.59213534522175,277.9071134626689 L 130.51146384479716,269.8412698412698 L 146.15977529557773,259.7295708406819 L 162.3881376967796,247.64256319811875 L 179.04761904761904,233.65079365079362 L 179.04761904761904,233.65079365079362 L 183.1746031746032,229.84126984126982 L 187.3015873015873,226.031746031746 L 191.42857142857142,222.2222222222222 L 195.55555555555557,218.41269841269838 L 199.68253968253967,214.60317460317458 L 203.8095238095238,210.79365079365076 L 207.93650793650792,206.98412698412696 L 212.06349206349205,203.17460317460313 L 216.1904761904762,199.36507936507934 L 216.1904761904762,199.36507936507934 L 216.93121693121694,202.7513227513227 L 217.67195767195767,206.13756613756613 L 218.41269841269843,209.5238095238095 L 219.15343915343917,212.91005291005285 L 219.89417989417987,216.29629629629625 L 220.6349206349206,219.68253968253964 L 221.3756613756614,223.06878306878303 L 222.11640211640213,226.45502645502643 L 222.85714285714286,229.84126984126982 L 222.85714285714286,229.84126984126982 L 225.98210203148471,242.3463322228754 L 230.22013194852704,253.7618394408517 L 235.48500881834215,263.98589065255726 L 241.69050885100268,272.9165850153504 L 248.7504082565811,280.45202168658955 L 256.57848324514987,286.4902998236331 L 265.08851002678165,290.9295185838395 L 274.1942648115487,293.6677771245672 L 283.8095238095238,294.6031746031745 L 283.8095238095238,294.6031746031745 L 297.0749232477627,292.408387223202 L 312.6840420667582,286.35704487556336 L 329.59435626102294,277.2486772486772 L 346.7633418250702,265.8828140309621 L 363.148474753413,253.0589849108367 L 377.70723104056435,239.57671957671954 L 389.39708668103725,226.23554771702916 L 397.1755176693448,213.83499902018417 L 400.0,203.17460317460313 L 400.0,203.17460317460313 L 399.8654386308706,196.7430922986478 L 399.2056959958195,192.145796590241 L 397.63668430335105,189.5238095238095 L 394.7743157619701,189.01822457378006 L 390.2345025801816,190.7701352145796 L 383.6331569664902,194.9206349206349 L 374.58619112940096,201.6108171663727 L 362.7095172774185,210.98177542621983 L 347.6190476190476,223.1746031746031 L 347.6190476190476,223.1746031746031 L 337.80782546214635,230.91514795218495 L 328.1768894114573,238.18538114834408 L 318.9065255731922,244.86772486772483 L 310.1770200535633,250.84460121497156 L 302.16865895878243,255.99843229472856 L 295.0617283950617,260.21164021164014 L 289.03651446861323,263.3666470703508 L 284.273303285649,265.34587497550456 L 280.95238095238096,266.03174603174597 L 280.95238095238096,266.03174603174597 L 273.3934287020706,263.5417074923247 L 266.6888758246783,256.5523548239597 L 260.9876543209877,245.78483245149903 L 256.4386961917826,231.9602847997909 L 253.190933437847,215.79985629368343 L 251.39329805996468,198.02469135802465 L 251.19472205891964,179.3559344176628 L 252.74413743549542,160.51472989744593 L 256.1904761904762,142.2222222222222 L 256.1904761904762,142.2222222222222 L 258.267685675093,133.6782284930433 L 260.0391926317852,125.29884381736231 L 261.48148148148147,117.24867724867718 L 262.5710366451107,109.69233784048596 L 263.28434254360184,102.79443464628646 L 263.5978835978836,96.7195767195767 L 263.488144228885,91.63237311385456 L 262.93160885753474,87.69743288261803 L 261.9047619047619,85.07936507936505 L 261.9047619047619,85.07936507936505 L 257.1833561957018,80.73290221438366 L 249.6714351035339,77.82088967274147 L 239.82363315696654,76.29629629629626 L 228.09458488470835,76.11209092690565 L 214.938924815468,77.22124240642755 L 200.81128747795415,79.57671957671961 L 186.16630740087533,83.1314912796394 L 171.45861911294008,87.83852635704484 L 157.14285714285714,93.65079365079362 L 157.14285714285714,93.65079365079362 L 157.14285714285714,93.65079365079362 L 157.14285714285714,93.65079365079362 L 157.14285714285714,93.65079365079362 L 157.14285714285714,93.65079365079362 L 157.14285714285714,93.65079365079362 L 157.14285714285714,93.65079365079362 L 157.14285714285714,93.65079365079362 L 157.14285714285714,93.65079365079362 L 157.14285714285714,93.65079365079362 L 219.04761904761904,126.98412698412696 L 219.04761904761904,126.98412698412696 L 219.04761904761904,126.98412698412696 L 219.04761904761904,126.98412698412696 L 219.04761904761904,126.98412698412696 L 219.04761904761904,126.98412698412696 L 219.04761904761904,126.98412698412696 L 219.04761904761904,126.98412698412696 L 219.04761904761904,126.98412698412696 L 219.04761904761904,126.98412698412696 L 219.04761904761904,126.98412698412696 L 215.31386765954664,139.20177673264092 L 205.12117055326934,155.2367888170357 L 189.98236331569666,173.68606701940027 L 171.41028153373833,193.1465151218237 L 150.917760794304,212.2150369063949 L 130.01763668430334,229.48853615520278 L 110.22274479064603,243.56391665033635 L 93.0459207002417,253.0380821738846 L 80.0,256.50793650793645 L 80.0,256.50793650793645 L 75.64700502972107,255.20935397478604 L 73.32418838591678,251.48082827095166 L 72.94532627865962,245.57319223985886 L 74.42419491802208,237.737278724933 L 77.6745705140767,228.22392056959953 L 82.61022927689594,217.28395061728392 L 89.14494741655236,205.16820171141157 L 97.1925011431184,192.12750669540787 L 106.66666666666667,178.4126984126984 L 106.66666666666667,178.4126984126984 L 119.80142399895483,162.50832843425437 L 135.06042197400222,148.1089555163629 L 151.46384479717813,135.66137566137562 L 168.031876673852,125.61238487164411 L 183.78470180939317,118.40877914951987 L 197.7425044091711,114.4973544973545 L 208.92546867855506,114.3249069174995 L 216.3537788229146,118.33823241230647 L 219.04761904761904,126.98412698412696 L 219.04761904761904,126.98412698412696 L 219.04761904761904,126.98412698412696 L 219.04761904761904,126.98412698412696 L 219.04761904761904,126.98412698412696 L 219.04761904761904,126.98412698412696 L 219.04761904761904,126.98412698412696 L 219.04761904761904,126.98412698412696 L 219.04761904761904,126.98412698412696 L 219.04761904761904,126.98412698412696 L 219.04761904761904,126.98412698412696M167.61904761904762 6.031746031746013 L 157.14285714285714,93.65079365079362 L 129.72761120909266,109.37095825984719 L 104.5228297080149,130.09994121105228 L 82.32804232804236,154.28571428571425 L 63.94277875759358,180.3762492651381 L 50.166568685087206,206.81951793062902 L 41.7989417989418,232.06349206349205 L 39.63942778757593,254.55614344503232 L 44.48755633940819,272.7454438565549 L 57.142857142857146,285.07936507936506 L 57.142857142857146,285.07936507936506 L 66.18329087464888,288.30099941211046 L 76.6973675615651,289.1240446796002 L 88.53615520282186,287.6190476190476 L 101.55072179763539,283.856554967666 L 115.59213534522175,277.9071134626689 L 130.51146384479716,269.8412698412698 L 146.15977529557773,259.7295708406819 L 162.3881376967796,247.64256319811875 L 179.04761904761904,233.65079365079362 L 179.04761904761904,233.65079365079362 L 183.1746031746032,229.84126984126982 L 187.3015873015873,226.031746031746 L 191.42857142857142,222.2222222222222 L 195.55555555555557,218.41269841269838 L 199.68253968253967,214.60317460317458 L 203.8095238095238,210.79365079365076 L 207.93650793650792,206.98412698412696 L 212.06349206349205,203.17460317460313 L 216.1904761904762,199.36507936507934 L 216.1904761904762,199.36507936507934 L 216.93121693121694,202.7513227513227 L 217.67195767195767,206.13756613756613 L 218.41269841269843,209.5238095238095 L 219.15343915343917,212.91005291005285 L 219.89417989417987,216.29629629629625 L 220.6349206349206,219.68253968253964 L 221.3756613756614,223.06878306878303 L 222.11640211640213,226.45502645502643 L 222.85714285714286,229.84126984126982 L 222.85714285714286,229.84126984126982 L 225.98210203148471,242.3463322228754 L 230.22013194852704,253.7618394408517 L 235.48500881834215,263.98589065255726 L 241.69050885100268,272.9165850153504 L 248.7504082565811,280.45202168658955 L 256.57848324514987,286.4902998236331 L 265.08851002678165,290.9295185838395 L 274.1942648115487,293.6677771245672 L 283.8095238095238,294.6031746031745 L 283.8095238095238,294.6031746031745 L 297.0749232477627,292.408387223202 L 312.6840420667582,286.35704487556336 L 329.59435626102294,277.2486772486772 L 346.7633418250702,265.8828140309621 L 363.148474753413,253.0589849108367 L 377.70723104056435,239.57671957671954 L 389.39708668103725,226.23554771702916 L 397.1755176693448,213.83499902018417 L 400.0,203.17460317460313 L 400.0,203.17460317460313 L 399.8654386308706,196.7430922986478 L 399.2056959958195,192.145796590241 L 397.63668430335105,189.5238095238095 L 394.7743157619701,189.01822457378006 L 390.2345025801816,190.7701352145796 L 383.6331569664902,194.9206349206349 L 374.58619112940096,201.6108171663727 L 362.7095172774185,210.98177542621983 L 347.6190476190476,223.1746031746031 L 347.6190476190476,223.1746031746031 L 337.80782546214635,230.91514795218495 L 328.1768894114573,238.18538114834408 L 318.9065255731922,244.86772486772483 L 310.1770200535633,250.84460121497156 L 302.16865895878243,255.99843229472856 L 295.0617283950617,260.21164021164014 L 289.03651446861323,263.3666470703508 L 284.273303285649,265.34587497550456 L 280.95238095238096,266.03174603174597 L 280.95238095238096,266.03174603174597 L 273.3934287020706,263.5417074923247 L 266.6888758246783,256.5523548239597 L 260.9876543209877,245.78483245149903 L 256.4386961917826,231.9602847997909 L 253.190933437847,215.79985629368343 L 251.39329805996468,198.02469135802465 L 251.19472205891964,179.3559344176628 L 252.74413743549542,160.51472989744593 L 256.1904761904762,142.2222222222222 L 256.1904761904762,142.2222222222222 L 258.267685675093,133.6782284930433 L 260.0391926317852,125.29884381736231 L 261.48148148148147,117.24867724867718 L 262.5710366451107,109.69233784048596 L 263.28434254360184,102.79443464628646 L 263.5978835978836,96.7195767195767 L 263.488144228885,91.63237311385456 L 262.93160885753474,87.69743288261803 L 261.9047619047619,85.07936507936505 L 261.9047619047619,85.07936507936505 L 257.1833561957018,80.73290221438366 L 249.6714351035339,77.82088967274147 L 239.82363315696654,76.29629629629626 L 228.09458488470835,76.11209092690565 L 214.938924815468,77.22124240642755 L 200.81128747795415,79.57671957671961 L 186.16630740087533,83.1314912796394 L 171.45861911294008,87.83852635704484 L 157.14285714285714,93.65079365079362 L 157.14285714285714,93.65079365079362 L 157.14285714285714,93.65079365079362 L 157.14285714285714,93.65079365079362 L 157.14285714285714,93.65079365079362 L 157.14285714285714,93.65079365079362 L 157.14285714285714,93.65079365079362 L 157.14285714285714,93.65079365079362 L 157.14285714285714,93.65079365079362 L 157.14285714285714,93.65079365079362 L 157.14285714285714,93.65079365079362 L 219.04761904761904,126.98412698412696 L 219.04761904761904,126.98412698412696 L 219.04761904761904,126.98412698412696 L 219.04761904761904,126.98412698412696 L 219.04761904761904,126.98412698412696 L 219.04761904761904,126.98412698412696 L 219.04761904761904,126.98412698412696 L 219.04761904761904,126.98412698412696 L 219.04761904761904,126.98412698412696 L 219.04761904761904,126.98412698412696 L 219.04761904761904,126.98412698412696 L 215.31386765954664,139.20177673264092 L 205.12117055326934,155.2367888170357 L 189.98236331569666,173.68606701940027 L 171.41028153373833,193.1465151218237 L 150.917760794304,212.2150369063949 L 130.01763668430334,229.48853615520278 L 110.22274479064603,243.56391665033635 L 93.0459207002417,253.0380821738846 L 80.0,256.50793650793645 L 80.0,256.50793650793645 L 75.64700502972107,255.20935397478604 L 73.32418838591678,251.48082827095166 L 72.94532627865962,245.57319223985886 L 74.42419491802208,237.737278724933 L 77.6745705140767,228.22392056959953 L 82.61022927689594,217.28395061728392 L 89.14494741655236,205.16820171141157 L 97.1925011431184,192.12750669540787 L 106.66666666666667,178.4126984126984 L 106.66666666666667,178.4126984126984 L 119.80142399895483,162.50832843425437 L 135.06042197400222,148.1089555163629 L 151.46384479717813,135.66137566137562 L 168.031876673852,125.61238487164411 L 183.78470180939317,118.40877914951987 L 197.7425044091711,114.4973544973545 L 208.92546867855506,114.3249069174995 L 216.3537788229146,118.33823241230647 L 219.04761904761904,126.98412698412696 L 219.04761904761904,126.98412698412696 L 219.04761904761904,126.98412698412696 L 219.04761904761904,126.98412698412696 L 219.04761904761904,126.98412698412696 L 219.04761904761904,126.98412698412696 L 219.04761904761904,126.98412698412696 L 219.04761904761904,126.98412698412696 L 219.04761904761904,126.98412698412696 L 219.04761904761904,126.98412698412696 L 219.04761904761904,126.98412698412696 L 167.61904761904762,6.031746031746013 L 164.43268665490888,10.119537526944992 L 162.445620223398,14.607093866353091 L 161.5873015873016,19.25925925925921 L 161.78718400940625,23.840877914951975 L 162.97472075249854,28.116794042719967 L 165.0793650793651,31.851851851851862 L 168.03057025279247,34.81089555163629 L 171.75778953556733,36.75876935136194 L 176.1904761904762,37.46031746031744 L 176.1904761904762,37.46031746031744 L 178.6870468351949,37.25390293291536 L 181.0660395845581,36.65556208766079 L 183.28042328042332,35.69664902998224 L 185.28316676464823,34.408517865307914 L 187.02723887909073,32.822522699065885 L 188.46560846560845,30.970017636684315 L 189.55124436605917,28.882356783591373 L 190.2371154223006,26.590894245215228 L 190.47619047619048,24.12698412698411 L 190.47619047619048,24.12698412698411 L 190.00587889476776,18.96008883663209 L 188.68900646678424,14.326213338558988 L 186.6666666666667,10.335097001763609 L 184.0799529688419,7.096479195244596 L 181.06995884773667,4.720099288000482 L 177.7777777777778,3.315696649029968 L 174.34450323339212,2.9930106473316402 L 170.91122868900646,3.86178065190409 L 167.61904761904762,6.031746031746013 L 167.61904761904762,6.031746031746013 L 167.61904761904762,6.031746031746013 L 167.61904761904762,6.031746031746013 L 167.61904761904762,6.031746031746013 L 167.61904761904762,6.031746031746013 L 167.61904761904762,6.031746031746013 L 167.61904761904762,6.031746031746013 L 167.61904761904762,6.031746031746013 L 167.61904761904762,6.031746031746013 L 167.61904761904762,6.031746031746013M239.04761904761904 12.698412698412678 L 157.14285714285714,93.65079365079362 L 129.72761120909266,109.37095825984719 L 104.5228297080149,130.09994121105228 L 82.32804232804236,154.28571428571425 L 63.94277875759358,180.3762492651381 L 50.166568685087206,206.81951793062902 L 41.7989417989418,232.06349206349205 L 39.63942778757593,254.55614344503232 L 44.48755633940819,272.7454438565549 L 57.142857142857146,285.07936507936506 L 57.142857142857146,285.07936507936506 L 66.18329087464888,288.30099941211046 L 76.6973675615651,289.1240446796002 L 88.53615520282186,287.6190476190476 L 101.55072179763539,283.856554967666 L 115.59213534522175,277.9071134626689 L 130.51146384479716,269.8412698412698 L 146.15977529557773,259.7295708406819 L 162.3881376967796,247.64256319811875 L 179.04761904761904,233.65079365079362 L 179.04761904761904,233.65079365079362 L 183.1746031746032,229.84126984126982 L 187.3015873015873,226.031746031746 L 191.42857142857142,222.2222222222222 L 195.55555555555557,218.41269841269838 L 199.68253968253967,214.60317460317458 L 203.8095238095238,210.79365079365076 L 207.93650793650792,206.98412698412696 L 212.06349206349205,203.17460317460313 L 216.1904761904762,199.36507936507934 L 216.1904761904762,199.36507936507934 L 216.93121693121694,202.7513227513227 L 217.67195767195767,206.13756613756613 L 218.41269841269843,209.5238095238095 L 219.15343915343917,212.91005291005285 L 219.89417989417987,216.29629629629625 L 220.6349206349206,219.68253968253964 L 221.3756613756614,223.06878306878303 L 222.11640211640213,226.45502645502643 L 222.85714285714286,229.84126984126982 L 222.85714285714286,229.84126984126982 L 225.98210203148471,242.3463322228754 L 230.22013194852704,253.7618394408517 L 235.48500881834215,263.98589065255726 L 241.69050885100268,272.9165850153504 L 248.7504082565811,280.45202168658955 L 256.57848324514987,286.4902998236331 L 265.08851002678165,290.9295185838395 L 274.1942648115487,293.6677771245672 L 283.8095238095238,294.6031746031745 L 283.8095238095238,294.6031746031745 L 297.0749232477627,292.408387223202 L 312.6840420667582,286.35704487556336 L 329.59435626102294,277.2486772486772 L 346.7633418250702,265.8828140309621 L 363.148474753413,253.0589849108367 L 377.70723104056435,239.57671957671954 L 389.39708668103725,226.23554771702916 L 397.1755176693448,213.83499902018417 L 400.0,203.17460317460313 L 400.0,203.17460317460313 L 399.8654386308706,196.7430922986478 L 399.2056959958195,192.145796590241 L 397.63668430335105,189.5238095238095 L 394.7743157619701,189.01822457378006 L 390.2345025801816,190.7701352145796 L 383.6331569664902,194.9206349206349 L 374.58619112940096,201.6108171663727 L 362.7095172774185,210.98177542621983 L 347.6190476190476,223.1746031746031 L 347.6190476190476,223.1746031746031 L 337.80782546214635,230.91514795218495 L 328.1768894114573,238.18538114834408 L 318.9065255731922,244.86772486772483 L 310.1770200535633,250.84460121497156 L 302.16865895878243,255.99843229472856 L 295.0617283950617,260.21164021164014 L 289.03651446861323,263.3666470703508 L 284.273303285649,265.34587497550456 L 280.95238095238096,266.03174603174597 L 280.95238095238096,266.03174603174597 L 273.3934287020706,263.5417074923247 L 266.6888758246783,256.5523548239597 L 260.9876543209877,245.78483245149903 L 256.4386961917826,231.9602847997909 L 253.190933437847,215.79985629368343 L 251.39329805996468,198.02469135802465 L 251.19472205891964,179.3559344176628 L 252.74413743549542,160.51472989744593 L 256.1904761904762,142.2222222222222 L 256.1904761904762,142.2222222222222 L 258.267685675093,133.6782284930433 L 260.0391926317852,125.29884381736231 L 261.48148148148147,117.24867724867718 L 262.5710366451107,109.69233784048596 L 263.28434254360184,102.79443464628646 L 263.5978835978836,96.7195767195767 L 263.488144228885,91.63237311385456 L 262.93160885753474,87.69743288261803 L 261.9047619047619,85.07936507936505 L 261.9047619047619,85.07936507936505 L 257.1833561957018,80.73290221438366 L 249.6714351035339,77.82088967274147 L 239.82363315696654,76.29629629629626 L 228.09458488470835,76.11209092690565 L 214.938924815468,77.22124240642755 L 200.81128747795415,79.57671957671961 L 186.16630740087533,83.1314912796394 L 171.45861911294008,87.83852635704484 L 157.14285714285714,93.65079365079362 L 157.14285714285714,93.65079365079362 L 157.14285714285714,93.65079365079362 L 157.14285714285714,93.65079365079362 L 157.14285714285714,93.65079365079362 L 157.14285714285714,93.65079365079362 L 157.14285714285714,93.65079365079362 L 157.14285714285714,93.65079365079362 L 157.14285714285714,93.65079365079362 L 157.14285714285714,93.65079365079362 L 157.14285714285714,93.65079365079362 L 219.04761904761904,126.98412698412696 L 219.04761904761904,126.98412698412696 L 219.04761904761904,126.98412698412696 L 219.04761904761904,126.98412698412696 L 219.04761904761904,126.98412698412696 L 219.04761904761904,126.98412698412696 L 219.04761904761904,126.98412698412696 L 219.04761904761904,126.98412698412696 L 219.04761904761904,126.98412698412696 L 219.04761904761904,126.98412698412696 L 219.04761904761904,126.98412698412696 L 215.31386765954664,139.20177673264092 L 205.12117055326934,155.2367888170357 L 189.98236331569666,173.68606701940027 L 171.41028153373833,193.1465151218237 L 150.917760794304,212.2150369063949 L 130.01763668430334,229.48853615520278 L 110.22274479064603,243.56391665033635 L 93.0459207002417,253.0380821738846 L 80.0,256.50793650793645 L 80.0,256.50793650793645 L 75.64700502972107,255.20935397478604 L 73.32418838591678,251.48082827095166 L 72.94532627865962,245.57319223985886 L 74.42419491802208,237.737278724933 L 77.6745705140767,228.22392056959953 L 82.61022927689594,217.28395061728392 L 89.14494741655236,205.16820171141157 L 97.1925011431184,192.12750669540787 L 106.66666666666667,178.4126984126984 L 106.66666666666667,178.4126984126984 L 119.80142399895483,162.50832843425437 L 135.06042197400222,148.1089555163629 L 151.46384479717813,135.66137566137562 L 168.031876673852,125.61238487164411 L 183.78470180939317,118.40877914951987 L 197.7425044091711,114.4973544973545 L 208.92546867855506,114.3249069174995 L 216.3537788229146,118.33823241230647 L 219.04761904761904,126.98412698412696 L 219.04761904761904,126.98412698412696 L 219.04761904761904,126.98412698412696 L 219.04761904761904,126.98412698412696 L 219.04761904761904,126.98412698412696 L 219.04761904761904,126.98412698412696 L 219.04761904761904,126.98412698412696 L 219.04761904761904,126.98412698412696 L 219.04761904761904,126.98412698412696 L 219.04761904761904,126.98412698412696 L 219.04761904761904,126.98412698412696 L 167.61904761904762,6.031746031746013 L 164.43268665490888,10.119537526944992 L 162.445620223398,14.607093866353091 L 161.5873015873016,19.25925925925921 L 161.78718400940625,23.840877914951975 L 162.97472075249854,28.116794042719967 L 165.0793650793651,31.851851851851862 L 168.03057025279247,34.81089555163629 L 171.75778953556733,36.75876935136194 L 176.1904761904762,37.46031746031744 L 176.1904761904762,37.46031746031744 L 178.6870468351949,37.25390293291536 L 181.0660395845581,36.65556208766079 L 183.28042328042332,35.69664902998224 L 185.28316676464823,34.408517865307914 L 187.02723887909073,32.822522699065885 L 188.46560846560845,30.970017636684315 L 189.55124436605917,28.882356783591373 L 190.2371154223006,26.590894245215228 L 190.47619047619048,24.12698412698411 L 190.47619047619048,24.12698412698411 L 190.00587889476776,18.96008883663209 L 188.68900646678424,14.326213338558988 L 186.6666666666667,10.335097001763609 L 184.0799529688419,7.096479195244596 L 181.06995884773667,4.720099288000482 L 177.7777777777778,3.315696649029968 L 174.34450323339212,2.9930106473316402 L 170.91122868900646,3.86178065190409 L 167.61904761904762,6.031746031746013 L 167.61904761904762,6.031746031746013 L 167.61904761904762,6.031746031746013 L 167.61904761904762,6.031746031746013 L 167.61904761904762,6.031746031746013 L 167.61904761904762,6.031746031746013 L 167.61904761904762,6.031746031746013 L 167.61904761904762,6.031746031746013 L 167.61904761904762,6.031746031746013 L 167.61904761904762,6.031746031746013 L 167.61904761904762,6.031746031746013 L 239.04761904761904,12.698412698412678 L 236.75746293030238,15.73584166176764 L 234.97681102619376,18.514599255339967 L 233.7213403880071,21.058201058201032 L 233.00672806845648,23.390162649421878 L 232.84865112025605,25.53399960807366 L 233.26278659611992,27.51322751322748 L 234.26481154876217,29.351361943954483 L 235.87040303089685,31.071918479325888 L 238.0952380952381,32.698412698412675 L 238.0952380952381,32.698412698412675 L 242.33588085439928,34.58357828728199 L 246.69410150891633,35.22241818538121 L 251.00529100529104,34.708994708994666 L 255.1048402900255,33.137370174407195 L 258.8281403096218,30.601606897903146 L 262.01058201058197,27.195767195767232 L 264.4875563394082,23.01391338428375 L 266.0944542426024,18.150107779737414 L 266.6666666666667,12.698412698412678 L 266.6666666666667,12.698412698412678 L 266.18982297994637,7.619047619047673 L 264.82722581488014,3.8095238095238093 L 262.68077601410937,1.2698412698412516 L 259.8523744202757,0.0 L 256.4439218760206,0.0 L 252.55731922398593,1.2698412698413057 L 248.29446730681298,3.809523809523755 L 243.7572669671435,7.619047619047619 L 239.04761904761904,12.698412698412678 L 239.04761904761904,12.698412698412678 L 239.04761904761904,12.698412698412678 L 239.04761904761904,12.698412698412678 L 239.04761904761904,12.698412698412678 L 239.04761904761904,12.698412698412678 L 239.04761904761904,12.698412698412678 L 239.04761904761904,12.698412698412678 L 239.04761904761904,12.698412698412678 L 239.04761904761904,12.698412698412678 L 239.04761904761904,12.698412698412678"/></svg>
