<?xml version="1.0" encoding="utf-8"?>
<svg xmlns="http://www.w3.org/2000/svg"  viewBox="0,0,400,476.67645931792055" width="100%">
<path d="M187.39462255715927 170.5597777493933 L 187.39462255715927,170.5597777493933 L 167.87584621279854,181.89583599437992 L 148.50076638140246,196.7572486907651 L 129.8441691148295,214.3584749010091 L 112.48084046493807,233.91397368757185 L 96.98556648358665,254.63820411291354 L 83.9331332226338,275.7456252394942 L 73.89832673393794,296.4506961297739 L 67.45593306935751,315.9678758462128 L 65.18073828075106,333.5116234512709 L 65.18073828075106,333.5116234512709 L 67.04719632136926,353.37527142674674 L 72.5252267211649,369.4740707625495 L 81.43281389704943,381.7505428534934 L 93.58794226593436,390.1472090943926 L 108.80859624473113,394.6065908800613 L 126.91276025035124,395.07120960531364 L 147.71841869970618,391.4835866649636 L 171.04355600970746,383.78624345382553 L 196.70615659726656,371.92170136671353 L 196.70615659726656,371.92170136671353 L 201.74990420232473,369.46449099501854 L 206.7936518073828,367.00728062332354 L 211.83739941244093,364.55007025162854 L 216.88114701749907,362.09285987993354 L 221.92489462255713,359.63564950823866 L 226.96864222761528,357.1784391365436 L 232.01238983267336,354.72122876484866 L 237.05613743773148,352.2640183931536 L 242.09988504278962,349.80680802145866 L 242.09988504278962,349.80680802145866 L 242.87584621279854,353.81594073317154 L 243.65180738280753,357.8250734448845 L 244.42776855281645,361.83420615659725 L 245.20372972282536,365.84333886831007 L 245.97969089283436,369.852471580023 L 246.75565206284327,373.8616042917358 L 247.53161323285218,377.8707370034487 L 248.30757440286118,381.8798697151616 L 249.0835355728701,385.88900242687447 L 249.0835355728701,385.88900242687447 L 252.50031932558434,400.7727679141653 L 256.58768680546683,413.65436198748245 L 261.4126963852344,424.6008430195427 L 267.0424064376038,433.679269383063 L 273.5438753352919,440.95669945075997 L 280.9841614510154,446.50019159535066 L 289.43032315749133,450.37680418955165 L 298.9494188274365,452.65359560607993 L 309.6085068335675,453.3976242176523 L 309.6085068335675,453.3976242176523 L 315.7778771235151,453.1357772384724 L 321.11380763826804,452.33746327755773 L 325.64503768041897,450.9835227998467 L 329.400306552561,449.0547962702772 L 332.40835355728694,446.5321241537872 L 334.6979179971899,443.39634691531484 L 336.29773917486267,439.6283050197982 L 337.2365563928982,435.20883893217524 L 337.5431089538894,430.1187891173841 L 337.5431089538894,430.1187891173841 L 337.2413462766636,425.02873930259295 L 336.33605824498653,420.60927321496996 L 334.8272448588581,416.84123131945336 L 332.7149061182782,413.705454080981 L 329.99904202324694,411.18278196449097 L 326.6796525737642,409.25405543492144 L 322.7567377698301,407.90011495721035 L 318.2302976114446,407.1018009962958 L 313.10033209860774,406.8399540171159 L 313.10033209860774,406.8399540171159 L 305.8340784263635,406.60684634052876 L 300.23470430450885,405.49240005109215 L 296.1585132200792,402.8739302592924 L 293.4618086601098,398.1287520756163 L 292.0008941116363,390.6341806105505 L 291.6320730616937,379.7675309745817 L 292.21164899731764,364.9061182781965 L 293.5959254055435,345.42725763188145 L 295.64120577340657,320.7082641461234 L 295.64120577340657,320.7082641461234 L 297.31287520756155,299.2224422020693 L 298.40975858985826,281.0799591263252 L 298.87437731511045,265.91678375271425 L 298.64925277813256,253.36888491505937 L 297.6769063737387,243.07223144718358 L 295.89985949674286,234.66279218290973 L 293.2606335419594,227.77653595606083 L 289.70174990420225,222.04943160045988 L 285.16572997828587,217.11744794992975 L 285.16572997828587,217.11744794992975 L 282.1145740196704,213.5505811725636 L 279.2071145740197,209.87833695235662 L 276.5008302465194,206.16777366202578 L 274.0531996423553,202.48594967428792 L 271.9217013667135,198.89992336185978 L 270.16381402477964,195.47675309745824 L 268.8370162217397,192.28349725379996 L 267.99878656277934,189.38721420360199 L 267.7066036530847,186.85496231958106 L 267.7066036530847,186.85496231958106 L 266.2552688721419,178.63232852216123 L 262.1311789500575,171.85623962191852 L 255.67920551794606,166.59375399156977 L 247.244220206923,162.9119300038319 L 237.17109464810324,160.87782603142165 L 225.80470047260187,160.55850044705582 L 213.489909311534,162.02101162345127 L 200.5715927960148,165.33241793332488 L 187.39462255715927,170.5597777493933 L 187.39462255715927,170.5597777493933 L 187.39462255715927,170.5597777493933 L 187.39462255715927,170.5597777493933 L 187.39462255715927,170.5597777493933 L 187.39462255715927,170.5597777493933 L 187.39462255715927,170.5597777493933 L 187.39462255715927,170.5597777493933 L 187.39462255715927,170.5597777493933 L 187.39462255715927,170.5597777493933 L 187.39462255715927,170.5597777493933 L 233.95229275769574,243.8881083152382 L 233.95229275769574,243.8881083152382 L 233.95229275769574,243.8881083152382 L 233.95229275769574,243.8881083152382 L 233.95229275769574,243.8881083152382 L 233.95229275769574,243.8881083152382 L 233.95229275769574,243.8881083152382 L 233.95229275769574,243.8881083152382 L 233.95229275769574,243.8881083152382 L 233.95229275769574,243.8881083152382 L 233.95229275769574,243.8881083152382 L 240.61342444756667,245.170200536467 L 244.39104611061438,248.79933580278455 L 245.41927449227234,254.4498020181377 L 243.83222633797422,261.79588708647333 L 239.76401839315366,270.5118789117384 L 233.34876740324432,280.2720653978797 L 224.7205901136799,290.75073444884407 L 214.013603269894,301.62217396857835 L 201.36192361732023,312.5606718610295 L 201.36192361732023,312.5606718610295 L 186.39992336185972,323.6636224294291 L 171.3325456635586,332.8410397241027 L 156.6579384340274,339.9779665346787 L 142.87424958487676,344.95944565078554 L 130.47962702771744,347.6705198620513 L 119.97221867416016,347.9962319581045 L 111.85017243581555,345.8216247285733 L 106.61163622429427,341.031740963086 L 104.75475795120705,333.5116234512709 L 104.75475795120705,333.5116234512709 L 106.20289947630603,324.9712606974071 L 110.30463660748498,314.4191467620385 L 116.69593817856686,302.3438497892451 L 125.01277302337462,289.2339379231064 L 134.89110997573124,275.57797930770215 L 145.96691786945968,261.86454208711206 L 157.8761655383829,248.58219440541578 L 170.2548218163239,236.21950440669312 L 182.73885553710562,225.26504023502363 L 182.73885553710562,225.26504023502363 L 192.13820411291346,217.97962702771753 L 199.56412057734067,212.4185719759867 L 205.2848384212543,208.58187507983135 L 209.56859113552179,206.4695363392515 L 212.68361221101034,206.081555754247 L 214.8981351385873,207.417933324818 L 216.48039340911993,210.47866905096438 L 217.69862051347548,215.26376293268618 L 218.8210499425214,221.7732149699834 L 218.8210499425214,221.7732149699834 L 219.7614637884787,225.59713884276417 L 220.99885042789631,229.25820666751824 L 222.48531102311915,232.6797803039979 L 224.17294673649255,235.7852216119556 L 226.01385873036145,238.49789245114317 L 227.96014816707114,240.74115468131308 L 229.96391620896665,242.4383701622174 L 231.97726401839313,243.51290075360842 L 233.95229275769574,243.8881083152382 L 233.95229275769574,243.8881083152382 L 233.95229275769574,243.8881083152382 L 233.95229275769574,243.8881083152382 L 233.95229275769574,243.8881083152382 L 233.95229275769574,243.8881083152382 L 233.95229275769574,243.8881083152382 L 233.95229275769574,243.8881083152382 L 233.95229275769574,243.8881083152382 L 233.95229275769574,243.8881083152382 L 233.95229275769574,243.8881083152382"/></svg>
