<?xml version="1.0" encoding="utf-8"?>
<svg xmlns="http://www.w3.org/2000/svg"  viewBox="0,0,400,570.7295173961841" width="100%">
<path d="M132.12121212121212 239.82042648709316 L 132.12121212121212,239.82042648709316 L 105.01558797855091,268.5222596333708 L 82.54894625264997,294.2611298166853 L 64.51178451178451,317.39618406285075 L 50.69460032422996,338.28656939768047 L 40.88789125826163,357.2914328469884 L 34.882154882154886,374.76992143658816 L 32.467888764185055,391.08118219229334 L 33.43559047262751,406.5843621399177 L 37.57575757575758,421.63860830527494 L 37.57575757575758,421.63860830527494 L 45.877707112275004,439.8287400756537 L 55.59629213950201,454.0283493369913 L 66.98092031425365,464.2873176206509 L 80.28099929334498,470.65552645799556 L 95.74593673359107,473.1828573803882 L 113.62514029180694,471.919191919192 L 134.16801762480773,466.9144116057696 L 157.62397638940845,458.2183979714844 L 184.24242424242425,445.8810325476992 L 184.24242424242425,445.8810325476992 L 190.3030303030303,442.7833894500561 L 196.36363636363637,439.68574635241305 L 202.42424242424244,436.5881032547699 L 208.4848484848485,433.4904601571268 L 214.54545454545453,430.3928170594837 L 220.6060606060606,427.29517396184065 L 226.66666666666666,424.1975308641975 L 232.72727272727272,421.09988776655445 L 238.78787878787878,418.0022446689113 L 238.78787878787878,418.0022446689113 L 240.26936026936028,421.7732884399551 L 241.75084175084177,425.5443322109989 L 243.2323232323232,429.3153759820426 L 244.71380471380468,433.08641975308643 L 246.19528619528623,436.8574635241302 L 247.6767676767677,440.6285072951739 L 249.15824915824913,444.3995510662177 L 250.63973063973063,448.17059483726155 L 252.12121212121212,451.94163860830525 L 252.12121212121212,451.94163860830525 L 255.71600781477318,460.7673442241344 L 259.420542877333,467.95693561125654 L 263.5241301907969,473.67003367003366 L 268.3160826370703,478.0662593008272 L 274.08571309805876,481.3052334039988 L 281.1223344556678,483.5465768799102 L 289.71525959180275,484.94991062892296 L 300.1538013883693,485.67485555139876 L 312.72727272727275,485.8810325476992 L 312.72727272727275,485.8810325476992 L 332.9592218481107,485.5085837801887 L 350.1384212495324,484.33803051087 L 364.44444444444446,482.2895622895623 L 376.0568649457539,479.28336866608475 L 385.15525626636736,475.23963919025647 L 391.9191919191919,470.0785634118967 L 396.5282454171343,463.7203308808247 L 399.16199027310137,456.0851311468595 L 400.0,447.09315375982044 L 400.0,447.09315375982044 L 399.76721952030584,441.2038076235607 L 399.0356237269817,436.4318077898325 L 397.75533108866443,432.72727272727275 L 395.876460073991,430.0403209045184 L 393.3491291515983,428.32107079020665 L 390.12345679012344,427.5196408529742 L 386.14956145820344,427.58614956145817 L 381.3775616244752,428.47071538429566 L 375.75757575757575,430.12345679012344 L 375.75757575757575,430.12345679012344 L 371.02215571351365,431.4602818306522 L 365.7978966620943,433.00660930290553 L 360.2244668911336,434.70258136924804 L 354.44153468844826,436.4883401920439 L 348.58876834185475,438.30402793365755 L 342.80583613916946,440.08978675645346 L 337.23240636820884,441.78575882279586 L 332.0081473167893,443.33208629504924 L 327.27272727272725,444.668911335578 L 327.27272727272725,444.668911335578 L 316.2322816643804,446.5710603982209 L 307.366670823461,445.0712890219063 L 300.69584736251403,440.2693602693603 L 296.2397638940849,432.2650372033088 L 294.01837303071875,421.158082886478 L 294.05162738496074,407.0482603815937 L 296.35947956935604,390.03533275138216 L 300.96188219645006,370.21906305856925 L 307.8787878787879,347.699214365881 L 307.8787878787879,347.699214365881 L 311.5018497734547,335.7692147815605 L 315.0451012179408,322.83160826370704 L 318.42873176206507,309.2255892255892 L 321.57293095564705,295.29035208047554 L 324.39788834850566,281.36509124163445 L 326.82379349046016,267.78900112233447 L 328.7708359313297,254.90127613584403 L 330.1592052209336,243.0411106954317 L 330.90909090909093,232.54769921436588 L 330.90909090909093,232.54769921436588 L 331.17845117845116,226.48709315375982 L 331.44781144781143,220.42648709315375 L 331.7171717171717,214.3658810325477 L 331.986531986532,208.30527497194163 L 332.25589225589226,202.24466891133557 L 332.5252525252525,196.1840628507295 L 332.79461279461276,190.12345679012344 L 333.06397306397304,184.06285072951738 L 333.3333333333333,178.00224466891135 L 333.3333333333333,178.00224466891135 L 325.9259259259259,177.59820426487096 L 318.51851851851853,177.1941638608305 L 311.11111111111114,176.79012345679013 L 303.7037037037037,176.38608305274974 L 296.2962962962963,175.9820426487093 L 288.8888888888889,175.5780022446689 L 281.48148148148147,175.17396184062855 L 274.0740740740741,174.76992143658808 L 266.6666666666667,174.3658810325477 L 266.6666666666667,174.3658810325477 L 259.25925925925924,173.9618406285073 L 251.85185185185185,173.55780022446686 L 244.44444444444443,173.15375982042647 L 237.03703703703704,172.74971941638609 L 229.62962962962965,172.34567901234564 L 222.22222222222226,171.94163860830528 L 214.8148148148148,171.5375982042649 L 207.40740740740742,171.13355780022445 L 200.0,170.72951739618406 L 200.0,170.72951739618406 L 192.45791245791244,178.4062850729517 L 184.9158249158249,186.08305274971943 L 177.37373737373738,193.7598204264871 L 169.83164983164983,201.43658810325473 L 162.2895622895623,209.11335578002246 L 154.74747474747477,216.79012345679013 L 147.2053872053872,224.46689113355777 L 139.66329966329968,232.1436588103255 L 132.12121212121212,239.82042648709316 L 132.12121212121212,239.82042648709316 L 132.12121212121212,239.82042648709316 L 132.12121212121212,239.82042648709316 L 132.12121212121212,239.82042648709316 L 132.12121212121212,239.82042648709316 L 132.12121212121212,239.82042648709316 L 132.12121212121212,239.82042648709316 L 132.12121212121212,239.82042648709316 L 132.12121212121212,239.82042648709316 L 132.12121212121212,239.82042648709316 L 266.6666666666667,236.1840628507295 L 266.6666666666667,236.1840628507295 L 266.6666666666667,236.1840628507295 L 266.6666666666667,236.1840628507295 L 266.6666666666667,236.1840628507295 L 266.6666666666667,236.1840628507295 L 266.6666666666667,236.1840628507295 L 266.6666666666667,236.1840628507295 L 266.6666666666667,236.1840628507295 L 266.6666666666667,236.1840628507295 L 266.6666666666667,236.1840628507295 L 271.8210915741779,248.01429937232416 L 272.2567236147483,263.4858876834185 L 268.4624017957352,281.6610549943882 L 260.926965124496,301.6020285156088 L 250.13925260838843,322.3710354574552 L 236.58810325476986,343.030303030303 L 220.76235607099807,362.64205844452755 L 203.1508500644303,380.2685289105042 L 184.24242424242425,394.9719416386083 L 184.24242424242425,394.9719416386083 L 164.9482479112108,406.4197530864198 L 146.8811572515276,414.90460157126824 L 130.3703703703704,420.4264870931538 L 115.74510537473502,422.9854096520763 L 103.3345803716174,422.5813692480359 L 93.46801346801345,419.21436588103256 L 86.47462277091907,412.8843995510662 L 82.68362638733008,403.5914702581369 L 82.42424242424242,391.3355780022447 L 82.42424242424242,391.3355780022447 L 85.40882071746266,377.73122168183903 L 91.66562746809662,362.32115392609217 L 100.78563411896747,345.6341189674523 L 112.35981211289851,328.19886103836717 L 125.97913289271314,310.54412437128485 L 141.23456790123456,293.19865319865323 L 157.71708858128608,276.69119175292013 L 175.01766637569102,261.55048426653366 L 192.72727272727272,248.30527497194163 L 192.72727272727272,248.30527497194163 L 208.03258926715714,238.19262584694687 L 220.35499023153344,230.43438500228623 L 230.21324354657688,224.96071829405156 L 238.1261171384628,221.7017915783348 L 244.6123789333666,220.58777071122748 L 250.19079685746348,221.54882154882154 L 255.38013883692898,224.51510994720869 L 260.6991727979382,229.41680176248082 L 266.6666666666667,236.1840628507295 L 266.6666666666667,236.1840628507295 L 266.6666666666667,236.1840628507295 L 266.6666666666667,236.1840628507295 L 266.6666666666667,236.1840628507295 L 266.6666666666667,236.1840628507295 L 266.6666666666667,236.1840628507295 L 266.6666666666667,236.1840628507295 L 266.6666666666667,236.1840628507295 L 266.6666666666667,236.1840628507295 L 266.6666666666667,236.1840628507295"/></svg>
