<?xml version="1.0" encoding="utf-8"?>
<svg xmlns="http://www.w3.org/2000/svg"  viewBox="0,0,400,661.8705035971223" width="100%">
<path d="M106.4748201438849 17.26618705035971 L 106.4748201438849,17.26618705035971 L 104.89978387660241,23.688703358301225 L 106.55771678953136,31.12966416989863 L 110.95123900879297,39.1153743671729 L 117.58297066050861,47.172138832144086 L 125.95553187079965,54.82626244683268 L 135.57154276578734,61.604050093258756 L 145.93362347159308,67.03180665344262 L 156.54439411433813,70.63583700940484 L 166.9064748201439,71.94244604316546 L 166.9064748201439,71.94244604316546 L 175.79220574157955,70.97334478096538 L 183.20948179727824,68.23972920429081 L 189.0754063415934,64.00213162803088 L 193.30708272887864,58.521084367074266 L 195.82161431348752,52.05711973630968 L 196.5361044497735,44.87077005062621 L 195.36765649209025,37.2225676249125 L 192.23337379479133,29.37304477405737 L 187.0503597122302,21.58273381294964 L 187.0503597122302,21.58273381294964 L 179.0764918929054,13.808212689108055 L 169.83548963298497,7.774521123841665 L 159.76552091660005,3.5171862509991367 L 149.30475372788186,1.0717352044289752 L 138.89135605096172,0.47369511797968555 L 128.96349586997067,1.7585931254996094 L 119.95934116904006,4.9619563608372514 L 112.31705993230108,10.119311957841198 L 106.4748201438849,17.26618705035971 L 106.4748201438849,17.26618705035971 L 106.4748201438849,17.26618705035971 L 106.4748201438849,17.26618705035971 L 106.4748201438849,17.26618705035971 L 106.4748201438849,17.26618705035971 L 106.4748201438849,17.26618705035971 L 106.4748201438849,17.26618705035971 L 106.4748201438849,17.26618705035971 L 106.4748201438849,17.26618705035971 L 106.4748201438849,17.26618705035971"/></svg>
