<?xml version="1.0" encoding="utf-8"?>
<svg xmlns="http://www.w3.org/2000/svg"  viewBox="0,0,400,661.8705035971223" width="100%">
<path d="M106.4748201438849 17.26618705035971 L 106.4748201438849,17.26618705035971 L 104.89978387660241,23.688703358301225 L 106.55771678953136,31.12966416989863 L 110.95123900879297,39.1153743671729 L 117.58297066050861,47.172138832144086 L 125.95553187079965,54.82626244683268 L 135.57154276578734,61.604050093258756 L 145.93362347159308,67.03180665344262 L 156.54439411433813,70.63583700940484 L 166.9064748201439,71.94244604316546 L 166.9064748201439,71.94244604316546 L 175.79220574157955,70.97334478096538 L 183.20948179727824,68.23972920429081 L 189.0754063415934,64.00213162803088 L 193.30708272887864,58.521084367074266 L 195.82161431348752,52.05711973630968 L 196.5361044497735,44.87077005062621 L 195.36765649209025,37.2225676249125 L 192.23337379479133,29.37304477405737 L 187.0503597122302,21.58273381294964 L 187.0503597122302,21.58273381294964 L 179.0764918929054,13.808212689108055 L 169.83548963298497,7.774521123841665 L 159.76552091660005,3.5171862509991367 L 149.30475372788186,1.0717352044289752 L 138.89135605096172,0.47369511797968555 L 128.96349586997067,1.7585931254996094 L 119.95934116904006,4.9619563608372514 L 112.31705993230108,10.119311957841198 L 106.4748201438849,17.26618705035971 L 106.4748201438849,17.26618705035971 L 106.4748201438849,17.26618705035971 L 106.4748201438849,17.26618705035971 L 106.4748201438849,17.26618705035971 L 106.4748201438849,17.26618705035971 L 106.4748201438849,17.26618705035971 L 106.4748201438849,17.26618705035971 L 106.4748201438849,17.26618705035971 L 106.4748201438849,17.26618705035971 L 106.4748201438849,17.26618705035971M169.7841726618705 198.56115107913666 L 106.4748201438849,17.26618705035971 L 104.89978387660241,23.688703358301225 L 106.55771678953136,31.12966416989863 L 110.95123900879297,39.1153743671729 L 117.58297066050861,47.172138832144086 L 125.95553187079965,54.82626244683268 L 135.57154276578734,61.604050093258756 L 145.93362347159308,67.03180665344262 L 156.54439411433813,70.63583700940484 L 166.9064748201439,71.94244604316546 L 166.9064748201439,71.94244604316546 L 175.79220574157955,70.97334478096538 L 183.20948179727824,68.23972920429081 L 189.0754063415934,64.00213162803088 L 193.30708272887864,58.521084367074266 L 195.82161431348752,52.05711973630968 L 196.5361044497735,44.87077005062621 L 195.36765649209025,37.2225676249125 L 192.23337379479133,29.37304477405737 L 187.0503597122302,21.58273381294964 L 187.0503597122302,21.58273381294964 L 179.0764918929054,13.808212689108055 L 169.83548963298497,7.774521123841665 L 159.76552091660005,3.5171862509991367 L 149.30475372788186,1.0717352044289752 L 138.89135605096172,0.47369511797968555 L 128.96349586997067,1.7585931254996094 L 119.95934116904006,4.9619563608372514 L 112.31705993230108,10.119311957841198 L 106.4748201438849,17.26618705035971 L 106.4748201438849,17.26618705035971 L 106.4748201438849,17.26618705035971 L 106.4748201438849,17.26618705035971 L 106.4748201438849,17.26618705035971 L 106.4748201438849,17.26618705035971 L 106.4748201438849,17.26618705035971 L 106.4748201438849,17.26618705035971 L 106.4748201438849,17.26618705035971 L 106.4748201438849,17.26618705035971 L 106.4748201438849,17.26618705035971 L 169.7841726618705,198.56115107913666 L 149.12119686966474,209.19955393709733 L 133.23069939110442,219.71953301556283 L 122.1955768718359,229.6829203304023 L 116.0987259575056,238.65154789748445 L 115.02304329376007,246.187247732678 L 119.05142552624565,251.85185185185188 L 128.2667693006089,255.2071922708747 L 142.75197126249617,255.81510100561528 L 162.58992805755395,253.2374100719424 L 162.58992805755395,253.2374100719424 L 200.70462148799479,245.18656679594605 L 232.06915948722505,239.243666794959 L 257.39408473221425,235.38502531308276 L 277.3899398999319,233.5869575944182 L 292.7672676673476,233.82577888306633 L 304.23661071143084,236.07780442312816 L 312.5085117091512,240.31934945870464 L 318.29351333747815,246.52672923389682 L 322.3021582733813,254.6762589928057 L 322.3021582733813,254.6762589928057 L 327.26608836387675,269.23251522239 L 332.3839693677157,287.88623422249856 L 337.3834265920598,309.0860644817479 L 341.9920853440704,331.2806544887546 L 345.9375709309096,352.91865273213523 L 348.9475086597389,372.4487077005062 L 350.74952383771995,388.3194678824841 L 351.0712417720145,398.9795817666854 L 349.64028776978415,402.8776978417266 L 349.64028776978415,402.8776978417266 L 348.0632777728434,402.41189764238 L 345.337557114802,401.0697614747708 L 341.59339195310423,398.93418598454565 L 336.9610484451944,396.08806781735103 L 331.57079274851725,392.6143036188334 L 325.55289102051694,388.5957900346389 L 319.03760941863794,384.11542371041435 L 312.15521410032466,379.25610129180603 L 305.0359712230216,374.1007194244604 L 305.0359712230216,374.1007194244604 L 297.39961117525723,369.21968597961137 L 289.0290236946245,364.25575588911585 L 280.1492139621636,359.33919531041835 L 270.98518715891487,354.60027040096315 L 261.7619484659186,350.1692473181948 L 252.7045030642153,346.17639221955767 L 244.03785613484519,342.75197126249617 L 235.98701285884871,340.0262506044547 L 228.77697841726618,338.1294964028777 L 228.77697841726618,338.1294964028777 L 210.4943205929083,336.6432779702165 L 191.54848960337904,340.41507534712963 L 172.5552891020517,348.8409272581934 L 154.1305227423,361.31687242798347 L 136.8899941774975,377.2389495810758 L 121.44950706101788,396.00319744204626 L 108.42486504623461,417.0056547354709 L 98.43187178652138,439.64236018592527 L 92.0863309352518,463.3093525179856 L 92.0863309352518,463.3093525179856 L 90.10470635837007,478.27811824614383 L 89.12968390719524,490.9731474079995 L 89.42179589661605,501.99840127897676 L 91.24157464152134,511.95784113449974 L 94.84955245680001,521.4554282499926 L 100.50626165734079,531.0951239008792 L 108.47223455803257,541.480889362584 L 119.00800347376419,553.2166859105307 L 132.37410071942446,566.9064748201438 L 132.37410071942446,566.9064748201438 L 155.2298901619445,586.8115384235821 L 180.1817805015247,603.2586276657686 L 206.55475619504398,616.0937916333598 L 233.67380169938124,625.1630794130127 L 260.86390147141543,630.3125400913837 L 287.4500399680256,631.3882227551292 L 312.7572016460905,628.2361764909059 L 336.1103709624893,620.7024503853708 L 356.8345323741007,608.6330935251798 L 356.8345323741007,608.6330935251798 L 367.64662344198706,600.333560312244 L 376.29155934511647,592.1169237449546 L 383.0535571542766,583.1068478550493 L 388.2168339402552,572.4269966742655 L 392.0656067738402,559.2010342343409 L 394.88409272581936,542.552624567013 L 396.95650886698047,521.6054317040195 L 398.5670722681114,495.4831196770978 L 400.0,463.3093525179856 L 400.0,463.3093525179856 L 399.8263117900741,385.11807837680476 L 393.4945870464123,319.3139315707927 L 380.921929123368,265.81401545430316 L 362.0254413752948,224.53543338168973 L 336.72222715654635,195.39528870730572 L 304.92938982147615,178.31068478550492 L 266.5640327244377,173.19872497064074 L 221.5432592197847,179.9765126170669 L 169.7841726618705,198.56115107913666 L 169.7841726618705,198.56115107913666 L 169.7841726618705,198.56115107913666 L 169.7841726618705,198.56115107913666 L 169.7841726618705,198.56115107913666 L 169.7841726618705,198.56115107913666 L 169.7841726618705,198.56115107913666 L 169.7841726618705,198.56115107913666 L 169.7841726618705,198.56115107913666 L 169.7841726618705,198.56115107913666 L 169.7841726618705,198.56115107913666 L 277.6978417266187,417.2661870503597 L 277.6978417266187,417.2661870503597 L 277.6978417266187,417.2661870503597 L 277.6978417266187,417.2661870503597 L 277.6978417266187,417.2661870503597 L 277.6978417266187,417.2661870503597 L 277.6978417266187,417.2661870503597 L 277.6978417266187,417.2661870503597 L 277.6978417266187,417.2661870503597 L 277.6978417266187,417.2661870503597 L 277.6978417266187,417.2661870503597 L 290.52313704591876,429.35330747747486 L 302.81552535749177,444.7918208642962 L 314.1486810551559,462.56328270716756 L 324.0962785327294,481.64924850243256 L 332.23199218403056,501.0312737464349 L 338.1294964028777,519.6909139355183 L 341.36246558308903,536.6097245660262 L 341.504574118483,550.7692611343024 L 338.1294964028777,561.1510791366906 L 338.1294964028777,561.1510791366906 L 329.90891237627176,568.471642439135 L 316.5961058313843,573.2460944824386 L 299.3871569411138,575.5928590460964 L 279.47814587835904,575.6303599096032 L 258.0651528160188,573.4770208524537 L 236.3442579269917,569.2512656541433 L 215.51154138417658,563.0715180941665 L 196.76308336047214,555.0562019520186 L 181.29496402877697,545.3237410071941 L 181.29496402877697,545.3237410071941 L 168.72230610573268,533.87808271901 L 158.83786797722314,521.6508274861592 L 151.66533439914735,508.7130295763389 L 147.22839012740425,495.135743257246 L 145.55071991789288,480.9900227965776 L 146.65600852651212,466.3469224620303 L 150.56794070916106,451.27749652130143 L 157.31020122173862,435.85279924208777 L 166.9064748201439,420.1438848920863 L 166.9064748201439,420.1438848920863 L 176.34287631623093,408.58177655406536 L 186.44245097748964,399.8026270341751 L 197.2288835598188,393.818278710365 L 208.72585881911758,390.6405739605846 L 220.95706151128485,390.28135516278326 L 233.94617639221954,392.75246469491077 L 247.7168882178208,398.0657449349162 L 262.2928817439875,406.2330382607494 L 277.6978417266187,417.2661870503597 L 277.6978417266187,417.2661870503597 L 277.6978417266187,417.2661870503597 L 277.6978417266187,417.2661870503597 L 277.6978417266187,417.2661870503597 L 277.6978417266187,417.2661870503597 L 277.6978417266187,417.2661870503597 L 277.6978417266187,417.2661870503597 L 277.6978417266187,417.2661870503597 L 277.6978417266187,417.2661870503597 L 277.6978417266187,417.2661870503597"/></svg>
