<?xml version="1.0" encoding="utf-8"?>
<svg xmlns="http://www.w3.org/2000/svg"  viewBox="0,0,400,614.7313355494374" width="100%">
<path d="M246.6996379736394 22.65220441270291 L 246.6996379736394,22.65220441270291 L 247.55975902510212,27.687437650036518 L 249.92579693387998,32.40118301895437 L 253.4762638315573,36.62423637818517 L 257.8896718497185,40.18739358645784 L 262.8445331199481,42.92145050250087 L 268.0193597738304,44.65720298504294 L 273.09266394294997,45.22544689281266 L 277.7429577588911,44.456978084538605 L 281.6487533532383,42.18259241894936 L 281.6487533532383,42.18259241894936 L 285.31766314980547,37.229141183230475 L 287.47219588199425,32.09802559917652 L 288.19695362043984,26.992290636313182 L 287.5765384357782,22.114981264166353 L 285.69555239864496,17.66914245226136 L 282.6385975796757,13.857819170124115 L 278.4902760495063,10.884056387280053 L 273.3351898787722,8.950899073254734 L 267.25794113810935,8.261392197573947 L 267.25794113810935,8.261392197573947 L 263.574930996436,8.484177650248027 L 260.10342603135217,9.129973456100293 L 256.9026476923023,10.164938786876716 L 254.03181742873156,11.555232814323041 L 251.55015669008498,13.26701471018489 L 249.51688692580746,15.266443646208236 L 247.99122958534412,17.519678794138468 L 247.03240611813973,19.992879325721447 L 246.6996379736394,22.65220441270291 L 246.6996379736394,22.65220441270291 L 246.6996379736394,22.65220441270291 L 246.6996379736394,22.65220441270291 L 246.6996379736394,22.65220441270291 L 246.6996379736394,22.65220441270291 L 246.6996379736394,22.65220441270291 L 246.6996379736394,22.65220441270291 L 246.6996379736394,22.65220441270291 L 246.6996379736394,22.65220441270291 L 246.6996379736394,22.65220441270291"/></svg>
