<?xml version="1.0" encoding="utf-8"?>
<svg xmlns="http://www.w3.org/2000/svg"  viewBox="0,0,400,614.7313355494374" width="100%">
<path d="M246.6996379736394 22.65220441270291 L 246.6996379736394,22.65220441270291 L 247.55975902510212,27.687437650036518 L 249.92579693387998,32.40118301895437 L 253.4762638315573,36.62423637818517 L 257.8896718497185,40.18739358645784 L 262.8445331199481,42.92145050250087 L 268.0193597738304,44.65720298504294 L 273.09266394294997,45.22544689281266 L 277.7429577588911,44.456978084538605 L 281.6487533532383,42.18259241894936 L 281.6487533532383,42.18259241894936 L 285.31766314980547,37.229141183230475 L 287.47219588199425,32.09802559917652 L 288.19695362043984,26.992290636313182 L 287.5765384357782,22.114981264166353 L 285.69555239864496,17.66914245226136 L 282.6385975796757,13.857819170124115 L 278.4902760495063,10.884056387280053 L 273.3351898787722,8.950899073254734 L 267.25794113810935,8.261392197573947 L 267.25794113810935,8.261392197573947 L 263.574930996436,8.484177650248027 L 260.10342603135217,9.129973456100293 L 256.9026476923023,10.164938786876716 L 254.03181742873156,11.555232814323041 L 251.55015669008498,13.26701471018489 L 249.51688692580746,15.266443646208236 L 247.99122958534412,17.519678794138468 L 247.03240611813973,19.992879325721447 L 246.6996379736394,22.65220441270291 L 246.6996379736394,22.65220441270291 L 246.6996379736394,22.65220441270291 L 246.6996379736394,22.65220441270291 L 246.6996379736394,22.65220441270291 L 246.6996379736394,22.65220441270291 L 246.6996379736394,22.65220441270291 L 246.6996379736394,22.65220441270291 L 246.6996379736394,22.65220441270291 L 246.6996379736394,22.65220441270291 L 246.6996379736394,22.65220441270291M247.7275531318629 62.74089558341932 L 246.6996379736394,22.65220441270291 L 247.55975902510212,27.687437650036518 L 249.92579693387998,32.40118301895437 L 253.4762638315573,36.62423637818517 L 257.8896718497185,40.18739358645784 L 262.8445331199481,42.92145050250087 L 268.0193597738304,44.65720298504294 L 273.09266394294997,45.22544689281266 L 277.7429577588911,44.456978084538605 L 281.6487533532383,42.18259241894936 L 281.6487533532383,42.18259241894936 L 285.31766314980547,37.229141183230475 L 287.47219588199425,32.09802559917652 L 288.19695362043984,26.992290636313182 L 287.5765384357782,22.114981264166353 L 285.69555239864496,17.66914245226136 L 282.6385975796757,13.857819170124115 L 278.4902760495063,10.884056387280053 L 273.3351898787722,8.950899073254734 L 267.25794113810935,8.261392197573947 L 267.25794113810935,8.261392197573947 L 263.574930996436,8.484177650248027 L 260.10342603135217,9.129973456100293 L 256.9026476923023,10.164938786876716 L 254.03181742873156,11.555232814323041 L 251.55015669008498,13.26701471018489 L 249.51688692580746,15.266443646208236 L 247.99122958534412,17.519678794138468 L 247.03240611813973,19.992879325721447 L 246.6996379736394,22.65220441270291 L 246.6996379736394,22.65220441270291 L 246.6996379736394,22.65220441270291 L 246.6996379736394,22.65220441270291 L 246.6996379736394,22.65220441270291 L 246.6996379736394,22.65220441270291 L 246.6996379736394,22.65220441270291 L 246.6996379736394,22.65220441270291 L 246.6996379736394,22.65220441270291 L 246.6996379736394,22.65220441270291 L 246.6996379736394,22.65220441270291 L 247.7275531318629,62.74089558341932 L 241.27241514236053,65.3170286342759 L 234.99494150119327,68.19772913942062 L 228.99665469312365,71.30685523528172 L 223.37907720291454,74.56826505828715 L 218.24373151532885,77.90581674486464 L 213.6921401151293,81.24336843144226 L 209.8258254870788,84.50477825444771 L 206.7463101159401,87.61390435030891 L 204.555116486476,90.49460485545373 L 204.555116486476,90.49460485545373 L 202.37661316760725,94.85302152770187 L 198.70065319848703,102.21481170751643 L 193.7049009274502,112.23310690529134 L 187.5670207028317,124.56103863142033 L 180.46467687296646,138.85173839629712 L 172.5755337861894,154.75833771031537 L 164.0772557908355,171.93396808386873 L 155.14750723523957,190.03176102735108 L 145.96395246773665,208.70484805115595 L 145.96395246773665,208.70484805115595 L 119.19162721507607,264.757949950825 L 97.774613033654,315.2526958097298 L 81.66214868108898,360.493653082159 L 70.80347291499959,400.7853892224011 L 65.14782449300446,436.4324716847443 L 64.64444217272217,467.7394679234773 L 69.24256471177131,495.01094539288835 L 78.89143086777048,518.551471547266 L 93.54027939833827,538.6656138408986 L 93.54027939833827,538.6656138408986 L 111.13892012507004,552.9690039163708 L 130.77647075412173,561.0372213859932 L 152.05530155350553,563.0310101839741 L 174.57778279123383,559.111114244521 L 197.9462847353189,549.4382775018418 L 221.76317765377303,534.173243890144 L 245.6308318146086,513.4767573436359 L 269.15161748583796,487.5095617965249 L 291.9279049354733,456.4324011830188 L 291.9279049354733,456.4324011830188 L 330.0228073082088,394.0327339511634 L 359.962070071665,334.74642291870083 L 381.661091155206,279.2502846507167 L 395.03526848819627,228.22113571229642 L 400.0,182.33579266852544 L 396.4706836199816,142.27107208448922 L 384.3627172775054,108.70379052527305 L 363.5914989019356,82.31076455596246 L 334.0724264226367,63.7688107416428 L 334.0724264226367,63.7688107416428 L 321.7712853522089,58.894321438517196 L 311.80516143132604,55.22964174548162 L 303.4633972666481,52.76631145547267 L 296.03533546483544,51.495870361426924 L 288.8103186325485,51.40985825628072 L 281.0776893764475,52.49981493297042 L 272.12679030319265,54.75728018443248 L 261.24696401944436,58.17379380360325 L 247.7275531318629,62.74089558341932 L 247.7275531318629,62.74089558341932 L 247.7275531318629,62.74089558341932 L 247.7275531318629,62.74089558341932 L 247.7275531318629,62.74089558341932 L 247.7275531318629,62.74089558341932 L 247.7275531318629,62.74089558341932 L 247.7275531318629,62.74089558341932 L 247.7275531318629,62.74089558341932 L 247.7275531318629,62.74089558341932 L 247.7275531318629,62.74089558341932 L 345.37949316309516,112.08082317814718 L 345.37949316309516,112.08082317814718 L 345.37949316309516,112.08082317814718 L 345.37949316309516,112.08082317814718 L 345.37949316309516,112.08082317814718 L 345.37949316309516,112.08082317814718 L 345.37949316309516,112.08082317814718 L 345.37949316309516,112.08082317814718 L 345.37949316309516,112.08082317814718 L 345.37949316309516,112.08082317814718 L 345.37949316309516,112.08082317814718 L 354.8605652123335,125.87237072627356 L 361.3805647893232,142.46424681244065 L 364.9479521011277,161.68724729537738 L 365.5711873548105,183.37216803381247 L 363.25873075743533,207.3498048864745 L 358.01904251606555,233.45095371209206 L 349.860582837765,261.50641036939373 L 338.791811929597,291.34697071710815 L 324.8211899986252,322.8034306139641 L 324.8211899986252,322.8034306139641 L 300.7942019380923,370.3173635174721 L 276.28498207493624,412.50982617799554 L 251.72500096939874,448.93242762116586 L 227.5457291817217,479.1367768726138 L 204.17863727214726,502.67448295797016 L 182.05519580091723,519.097154902866 L 161.60687532827367,527.9564017329322 L 143.26514641445848,528.8038324737996 L 127.46147961971369,521.1910561510991 L 127.46147961971369,521.1910561510991 L 118.12705115957712,512.2909183202257 L 110.6538682534255,502.6039812324405 L 104.99962986594097,491.9525805394086 L 101.1220349618057,480.15905189279493 L 98.97878250570184,467.0457309442647 L 98.52757146231153,452.43495334548305 L 99.72610079631698,436.1490547481148 L 102.53206947240032,418.0103708038253 L 106.90317645524374,397.84123716427945 L 106.90317645524374,397.84123716427945 L 114.81488009419029,371.59062468053895 L 125.72995724070347,341.79518543716347 L 138.9208300873164,309.93545567027735 L 153.65992082656226,277.4919716160052 L 169.21965165097419,245.9452695104711 L 184.87244475308535,216.77588558979974 L 199.89072232542887,191.46435609011525 L 213.54690656053805,171.49121724754204 L 225.11341965094596,158.33700529820456 L 225.11341965094596,158.33700529820456 L 229.10240728141815,154.39454880658198 L 232.81220807879274,150.1729054818615 L 236.19206080068813,145.77359780880624 L 239.1912042047229,141.29814827217888 L 241.75887704851576,136.84807935674215 L 243.84431808968523,132.524913547259 L 245.39676608584992,128.43017332849212 L 246.36545979462846,124.66538118520445 L 246.6996379736394,121.33205960215867 L 246.6996379736394,121.33205960215867 L 247.06765698090456,113.77709469439259 L 248.27323648746307,107.49116084616162 L 250.4686602204589,102.37273557270304 L 253.80621190703638,98.32029638925403 L 258.43817527433987,95.23232081105176 L 264.51683404951336,93.00728635333341 L 272.19447195970116,91.54367053133613 L 281.6233727320476,90.73995086029727 L 292.9558200936968,90.49460485545373 L 292.9558200936968,90.49460485545373 L 299.7620566763371,90.79494220621054 L 306.441390153024,91.67903384435317 L 312.943059281376,93.12149914869156 L 319.2163028190115,95.09695749803467 L 325.2103595235493,97.58002827119185 L 330.874468152608,100.54533084697243 L 336.15786746380616,103.96748460418564 L 341.00979621476233,107.8211089216408 L 345.37949316309516,112.08082317814718 L 345.37949316309516,112.08082317814718 L 345.37949316309516,112.08082317814718 L 345.37949316309516,112.08082317814718 L 345.37949316309516,112.08082317814718 L 345.37949316309516,112.08082317814718 L 345.37949316309516,112.08082317814718 L 345.37949316309516,112.08082317814718 L 345.37949316309516,112.08082317814718 L 345.37949316309516,112.08082317814718 L 345.37949316309516,112.08082317814718"/></svg>
