<?xml version="1.0" encoding="utf-8"?>
<svg xmlns="http://www.w3.org/2000/svg"  viewBox="0,0,400,550.8648071940253" width="100%">
<path d="M72.88888888888889 11.309251638469707 L 72.88888888888889,11.309251638469707 L 67.82624599908549,20.54442920286551 L 66.49474165523549,30.606310013717422 L 68.34567901234568,40.80719402530091 L 72.83036122542296,50.45938119189143 L 79.40009144947417,58.87517146776393 L 87.50617283950616,65.36686480719406 L 96.59990855052583,69.24676116445659 L 106.13260173754,69.82716049382715 L 115.55555555555556,66.42036274958082 L 115.55555555555556,66.42036274958082 L 119.64517604023773,62.18076512726727 L 122.4618198445359,55.81222374638007 L 124.0493827160494,47.951226947111635 L 124.45176040237767,39.234263069654034 L 123.71284865112027,30.297820454199005 L 121.87654320987654,21.77838744093889 L 118.986739826246,14.312452370065532 L 115.0873342478281,8.536503581771084 L 110.22222222222223,5.087029416247485 L 110.22222222222223,5.087029416247485 L 103.90855052583446,2.754458161865639 L 98.49474165523549,1.109586953208236 L 93.82716049382717,0.18167962200863663 L 89.75217192501144,0.0 L 86.11614083219023,0.593811918914778 L 82.76543209876543,1.9923792104861302 L 79.546410608139,4.2249657064472155 L 76.30544124371285,7.320835238530687 L 72.88888888888889,11.309251638469707 L 72.88888888888889,11.309251638469707 L 72.88888888888889,11.309251638469707 L 72.88888888888889,11.309251638469707 L 72.88888888888889,11.309251638469707 L 72.88888888888889,11.309251638469707 L 72.88888888888889,11.309251638469707 L 72.88888888888889,11.309251638469707 L 72.88888888888889,11.309251638469707 L 72.88888888888889,11.309251638469707 L 72.88888888888889,11.309251638469707"/></svg>
