<?xml version="1.0" encoding="utf-8"?>
<svg xmlns="http://www.w3.org/2000/svg"  viewBox="0,0,400,550.8648071940253" width="100%">
<path d="M72.88888888888889 11.309251638469707 L 72.88888888888889,11.309251638469707 L 67.82624599908549,20.54442920286551 L 66.49474165523549,30.606310013717422 L 68.34567901234568,40.80719402530091 L 72.83036122542296,50.45938119189143 L 79.40009144947417,58.87517146776393 L 87.50617283950616,65.36686480719406 L 96.59990855052583,69.24676116445659 L 106.13260173754,69.82716049382715 L 115.55555555555556,66.42036274958082 L 115.55555555555556,66.42036274958082 L 119.64517604023773,62.18076512726727 L 122.4618198445359,55.81222374638007 L 124.0493827160494,47.951226947111635 L 124.45176040237767,39.234263069654034 L 123.71284865112027,30.297820454199005 L 121.87654320987654,21.77838744093889 L 118.986739826246,14.312452370065532 L 115.0873342478281,8.536503581771084 L 110.22222222222223,5.087029416247485 L 110.22222222222223,5.087029416247485 L 103.90855052583446,2.754458161865639 L 98.49474165523549,1.109586953208236 L 93.82716049382717,0.18167962200863663 L 89.75217192501144,0.0 L 86.11614083219023,0.593811918914778 L 82.76543209876543,1.9923792104861302 L 79.546410608139,4.2249657064472155 L 76.30544124371285,7.320835238530687 L 72.88888888888889,11.309251638469707 L 72.88888888888889,11.309251638469707 L 72.88888888888889,11.309251638469707 L 72.88888888888889,11.309251638469707 L 72.88888888888889,11.309251638469707 L 72.88888888888889,11.309251638469707 L 72.88888888888889,11.309251638469707 L 72.88888888888889,11.309251638469707 L 72.88888888888889,11.309251638469707 L 72.88888888888889,11.309251638469707 L 72.88888888888889,11.309251638469707M155.55555555555554 172.1981405273586 L 72.88888888888889,11.309251638469707 L 67.82624599908549,20.54442920286551 L 66.49474165523549,30.606310013717422 L 68.34567901234568,40.80719402530091 L 72.83036122542296,50.45938119189143 L 79.40009144947417,58.87517146776393 L 87.50617283950616,65.36686480719406 L 96.59990855052583,69.24676116445659 L 106.13260173754,69.82716049382715 L 115.55555555555556,66.42036274958082 L 115.55555555555556,66.42036274958082 L 119.64517604023773,62.18076512726727 L 122.4618198445359,55.81222374638007 L 124.0493827160494,47.951226947111635 L 124.45176040237767,39.234263069654034 L 123.71284865112027,30.297820454199005 L 121.87654320987654,21.77838744093889 L 118.986739826246,14.312452370065532 L 115.0873342478281,8.536503581771084 L 110.22222222222223,5.087029416247485 L 110.22222222222223,5.087029416247485 L 103.90855052583446,2.754458161865639 L 98.49474165523549,1.109586953208236 L 93.82716049382717,0.18167962200863663 L 89.75217192501144,0.0 L 86.11614083219023,0.593811918914778 L 82.76543209876543,1.9923792104861302 L 79.546410608139,4.2249657064472155 L 76.30544124371285,7.320835238530687 L 72.88888888888889,11.309251638469707 L 72.88888888888889,11.309251638469707 L 72.88888888888889,11.309251638469707 L 72.88888888888889,11.309251638469707 L 72.88888888888889,11.309251638469707 L 72.88888888888889,11.309251638469707 L 72.88888888888889,11.309251638469707 L 72.88888888888889,11.309251638469707 L 72.88888888888889,11.309251638469707 L 72.88888888888889,11.309251638469707 L 72.88888888888889,11.309251638469707 L 155.55555555555554,172.1981405273586 L 131.93842402072852,185.91068434689836 L 109.89422344154855,205.25651577503425 L 89.74485596707821,229.5479347660417 L 71.81222374638013,258.097241274196 L 56.41822892851699,290.21673525377224 L 43.88477366255144,325.21871665904587 L 34.533760097546114,362.41548544429196 L 28.687090382563635,401.119341563786 L 26.666666666666668,440.6425849718031 L 26.666666666666668,440.6425849718031 L 27.364121322969055,461.4625819234873 L 29.480871818320384,479.5317786922725 L 33.05349794238683,494.93065081542437 L 38.118579484834626,507.7396738302088 L 44.712696235329986,518.0393232738912 L 52.87242798353909,525.9100746837373 L 62.63435451912817,531.4324035970127 L 74.03505563176346,534.6867855509831 L 87.11111111111111,535.7536960829141 L 87.11111111111111,535.7536960829141 L 100.7712238987959,534.8367626886146 L 113.42905044962659,531.9737844840726 L 125.26748971193418,526.9964944368237 L 136.46944063404968,519.7366255144034 L 147.21780216430423,510.02591068434685 L 157.69547325102877,497.69608291418996 L 168.08535284255447,482.5788751714677 L 178.57033988721233,464.50602042371594 L 189.33333333333334,443.30925163846973 L 189.33333333333334,443.30925163846973 L 192.7901234567901,436.39567139155616 L 196.2469135802469,429.4820911446426 L 199.7037037037037,422.56851089772897 L 203.16049382716048,415.65493065081546 L 206.6172839506173,408.74135040390183 L 210.0740740740741,401.82777015698827 L 213.53086419753086,394.91418991007464 L 216.98765432098767,388.0006096631611 L 220.44444444444446,381.0870294162475 L 220.44444444444446,381.0870294162475 L 221.037037037037,384.3462886755067 L 221.62962962962965,387.60554793476604 L 222.22222222222223,390.8648071940253 L 222.81481481481478,394.12406645328446 L 223.40740740740742,397.3833257125438 L 224.0,400.64258497180305 L 224.59259259259258,403.9018442310623 L 225.18518518518522,407.1611034903216 L 225.77777777777777,410.4203627495808 L 225.77777777777777,410.4203627495808 L 229.20286541685715,424.6291723822588 L 234.01798506325252,438.62581923487267 L 240.03292181069963,452.13229690595944 L 247.05746075293402,464.87059899405574 L 254.90138698369154,476.5627190976985 L 263.37448559670776,486.93065081542454 L 272.28654168571865,495.69638774577044 L 281.4473403444597,502.5819234872733 L 290.6666666666667,507.30925163846973 L 290.6666666666667,507.30925163846973 L 306.0923639689071,510.8709038256363 L 322.2862368541381,510.5843621399177 L 338.5679012345679,506.88126809937506 L 354.2569730224051,500.1932632220698 L 368.6730681298583,490.9519890260631 L 381.13580246913574,479.5890870294162 L 390.9647919524462,466.5361987501906 L 397.47965249199814,452.22496570644716 L 400.0,437.0870294162475 L 400.0,437.0870294162475 L 399.1964639536655,428.78829446730686 L 396.8638926992836,422.84529797286996 L 393.119341563786,419.24340801707046 L 388.07986587410454,417.9679926840421 L 381.8625209571712,419.00442005791797 L 374.5843621399177,422.3380582228318 L 366.36244474927605,427.9542752629172 L 357.313824112178,435.8384392623076 L 347.55555555555554,445.97591830513636 L 347.55555555555554,445.97591830513636 L 331.1361073007162,461.06630086876993 L 316.2822740435909,467.86770309404056 L 303.045267489712,466.4532845602804 L 291.47629934461213,456.89620484682206 L 281.62658131382415,439.269623532998 L 273.5473251028806,413.64670019814054 L 267.28974241731447,380.10059442158206 L 262.90504496265817,338.70446578265506 L 260.44444444444446,289.53147386069196 L 260.44444444444446,289.53147386069196 L 259.78844688309704,270.3258649596099 L 259.0153939948179,252.03475080018285 L 258.1399176954733,234.98003353147377 L 257.17664990092976,219.4836153025453 L 256.1402225270538,205.86739826245994 L 255.04526748971193,194.45328456028048 L 253.90641670477058,185.5631763450693 L 252.73830208809633,179.51897576588934 L 251.55555555555554,176.64258497180305 L 251.55555555555554,176.64258497180305 L 245.3662551440329,172.36396890717884 L 236.67489711934155,169.01447950007616 L 226.07407407407408,166.60143270842855 L 214.15637860082305,165.13214449016908 L 201.5144032921811,164.6139308032312 L 188.74074074074073,165.05410760554793 L 176.42798353909464,166.45999085505255 L 165.1687242798354,168.83889650967836 L 155.55555555555554,172.1981405273586 L 155.55555555555554,172.1981405273586 L 155.55555555555554,172.1981405273586 L 155.55555555555554,172.1981405273586 L 155.55555555555554,172.1981405273586 L 155.55555555555554,172.1981405273586 L 155.55555555555554,172.1981405273586 L 155.55555555555554,172.1981405273586 L 155.55555555555554,172.1981405273586 L 155.55555555555554,172.1981405273586 L 155.55555555555554,172.1981405273586 L 201.77777777777777,254.86480719402525 L 201.77777777777777,254.86480719402525 L 201.77777777777777,254.86480719402525 L 201.77777777777777,254.86480719402525 L 201.77777777777777,254.86480719402525 L 201.77777777777777,254.86480719402525 L 201.77777777777777,254.86480719402525 L 201.77777777777777,254.86480719402525 L 201.77777777777777,254.86480719402525 L 201.77777777777777,254.86480719402525 L 201.77777777777777,254.86480719402525 L 195.98963572626124,292.49931412894375 L 185.82655083066606,331.80917543057456 L 172.31275720164612,370.84834628867543 L 156.4724889498552,407.67078189300406 L 139.32998018594728,440.330437433318 L 121.90946502057614,466.88126809937506 L 105.23517756439567,485.37722908093275 L 90.33135192805976,493.8722755677487 L 78.22222222222223,490.4203627495808 L 78.22222222222223,490.4203627495808 L 73.40710257582684,482.6264288980338 L 70.18686175887822,470.93308946806883 L 68.51028806584364,455.9841487578113 L 68.32616979119037,438.4234110653864 L 69.58329522938577,418.8946806889193 L 72.23045267489711,398.0417619265356 L 76.21643042219173,376.50845907636034 L 81.49001676573691,354.9385764365189 L 88.0,333.9759183051364 L 88.0,333.9759183051364 L 97.45831428135953,309.51013565005337 L 107.9628105471727,287.18792866941004 L 119.37448559670783,267.17756439567137 L 131.55433622923337,249.64730986130158 L 144.3633592440177,234.76543209876536 L 157.66255144032922,222.70019814052733 L 171.31290961743636,213.6198750190519 L 185.17543057460753,207.69272976680386 L 199.11111111111111,205.0870294162475 L 199.11111111111111,205.0870294162475 L 200.4609053497942,205.6527968297516 L 201.54732510288068,207.83539094650197 L 202.37037037037038,211.47386069196762 L 202.93004115226336,216.40725499161707 L 203.22633744855966,222.47462277091904 L 203.25925925925924,229.51501295534217 L 203.02880658436212,237.3674744703551 L 202.53497942386832,245.8710562414266 L 201.77777777777777,254.86480719402525 L 201.77777777777777,254.86480719402525 L 201.77777777777777,254.86480719402525 L 201.77777777777777,254.86480719402525 L 201.77777777777777,254.86480719402525 L 201.77777777777777,254.86480719402525 L 201.77777777777777,254.86480719402525 L 201.77777777777777,254.86480719402525 L 201.77777777777777,254.86480719402525 L 201.77777777777777,254.86480719402525 L 201.77777777777777,254.86480719402525M246.22222222222223 19.309251638469707 L 72.88888888888889,11.309251638469707 L 67.82624599908549,20.54442920286551 L 66.49474165523549,30.606310013717422 L 68.34567901234568,40.80719402530091 L 72.83036122542296,50.45938119189143 L 79.40009144947417,58.87517146776393 L 87.50617283950616,65.36686480719406 L 96.59990855052583,69.24676116445659 L 106.13260173754,69.82716049382715 L 115.55555555555556,66.42036274958082 L 115.55555555555556,66.42036274958082 L 119.64517604023773,62.18076512726727 L 122.4618198445359,55.81222374638007 L 124.0493827160494,47.951226947111635 L 124.45176040237767,39.234263069654034 L 123.71284865112027,30.297820454199005 L 121.87654320987654,21.77838744093889 L 118.986739826246,14.312452370065532 L 115.0873342478281,8.536503581771084 L 110.22222222222223,5.087029416247485 L 110.22222222222223,5.087029416247485 L 103.90855052583446,2.754458161865639 L 98.49474165523549,1.109586953208236 L 93.82716049382717,0.18167962200863663 L 89.75217192501144,0.0 L 86.11614083219023,0.593811918914778 L 82.76543209876543,1.9923792104861302 L 79.546410608139,4.2249657064472155 L 76.30544124371285,7.320835238530687 L 72.88888888888889,11.309251638469707 L 72.88888888888889,11.309251638469707 L 72.88888888888889,11.309251638469707 L 72.88888888888889,11.309251638469707 L 72.88888888888889,11.309251638469707 L 72.88888888888889,11.309251638469707 L 72.88888888888889,11.309251638469707 L 72.88888888888889,11.309251638469707 L 72.88888888888889,11.309251638469707 L 72.88888888888889,11.309251638469707 L 72.88888888888889,11.309251638469707 L 155.55555555555554,172.1981405273586 L 131.93842402072852,185.91068434689836 L 109.89422344154855,205.25651577503425 L 89.74485596707821,229.5479347660417 L 71.81222374638013,258.097241274196 L 56.41822892851699,290.21673525377224 L 43.88477366255144,325.21871665904587 L 34.533760097546114,362.41548544429196 L 28.687090382563635,401.119341563786 L 26.666666666666668,440.6425849718031 L 26.666666666666668,440.6425849718031 L 27.364121322969055,461.4625819234873 L 29.480871818320384,479.5317786922725 L 33.05349794238683,494.93065081542437 L 38.118579484834626,507.7396738302088 L 44.712696235329986,518.0393232738912 L 52.87242798353909,525.9100746837373 L 62.63435451912817,531.4324035970127 L 74.03505563176346,534.6867855509831 L 87.11111111111111,535.7536960829141 L 87.11111111111111,535.7536960829141 L 100.7712238987959,534.8367626886146 L 113.42905044962659,531.9737844840726 L 125.26748971193418,526.9964944368237 L 136.46944063404968,519.7366255144034 L 147.21780216430423,510.02591068434685 L 157.69547325102877,497.69608291418996 L 168.08535284255447,482.5788751714677 L 178.57033988721233,464.50602042371594 L 189.33333333333334,443.30925163846973 L 189.33333333333334,443.30925163846973 L 192.7901234567901,436.39567139155616 L 196.2469135802469,429.4820911446426 L 199.7037037037037,422.56851089772897 L 203.16049382716048,415.65493065081546 L 206.6172839506173,408.74135040390183 L 210.0740740740741,401.82777015698827 L 213.53086419753086,394.91418991007464 L 216.98765432098767,388.0006096631611 L 220.44444444444446,381.0870294162475 L 220.44444444444446,381.0870294162475 L 221.037037037037,384.3462886755067 L 221.62962962962965,387.60554793476604 L 222.22222222222223,390.8648071940253 L 222.81481481481478,394.12406645328446 L 223.40740740740742,397.3833257125438 L 224.0,400.64258497180305 L 224.59259259259258,403.9018442310623 L 225.18518518518522,407.1611034903216 L 225.77777777777777,410.4203627495808 L 225.77777777777777,410.4203627495808 L 229.20286541685715,424.6291723822588 L 234.01798506325252,438.62581923487267 L 240.03292181069963,452.13229690595944 L 247.05746075293402,464.87059899405574 L 254.90138698369154,476.5627190976985 L 263.37448559670776,486.93065081542454 L 272.28654168571865,495.69638774577044 L 281.4473403444597,502.5819234872733 L 290.6666666666667,507.30925163846973 L 290.6666666666667,507.30925163846973 L 306.0923639689071,510.8709038256363 L 322.2862368541381,510.5843621399177 L 338.5679012345679,506.88126809937506 L 354.2569730224051,500.1932632220698 L 368.6730681298583,490.9519890260631 L 381.13580246913574,479.5890870294162 L 390.9647919524462,466.5361987501906 L 397.47965249199814,452.22496570644716 L 400.0,437.0870294162475 L 400.0,437.0870294162475 L 399.1964639536655,428.78829446730686 L 396.8638926992836,422.84529797286996 L 393.119341563786,419.24340801707046 L 388.07986587410454,417.9679926840421 L 381.8625209571712,419.00442005791797 L 374.5843621399177,422.3380582228318 L 366.36244474927605,427.9542752629172 L 357.313824112178,435.8384392623076 L 347.55555555555554,445.97591830513636 L 347.55555555555554,445.97591830513636 L 331.1361073007162,461.06630086876993 L 316.2822740435909,467.86770309404056 L 303.045267489712,466.4532845602804 L 291.47629934461213,456.89620484682206 L 281.62658131382415,439.269623532998 L 273.5473251028806,413.64670019814054 L 267.28974241731447,380.10059442158206 L 262.90504496265817,338.70446578265506 L 260.44444444444446,289.53147386069196 L 260.44444444444446,289.53147386069196 L 259.78844688309704,270.3258649596099 L 259.0153939948179,252.03475080018285 L 258.1399176954733,234.98003353147377 L 257.17664990092976,219.4836153025453 L 256.1402225270538,205.86739826245994 L 255.04526748971193,194.45328456028048 L 253.90641670477058,185.5631763450693 L 252.73830208809633,179.51897576588934 L 251.55555555555554,176.64258497180305 L 251.55555555555554,176.64258497180305 L 245.3662551440329,172.36396890717884 L 236.67489711934155,169.01447950007616 L 226.07407407407408,166.60143270842855 L 214.15637860082305,165.13214449016908 L 201.5144032921811,164.6139308032312 L 188.74074074074073,165.05410760554793 L 176.42798353909464,166.45999085505255 L 165.1687242798354,168.83889650967836 L 155.55555555555554,172.1981405273586 L 155.55555555555554,172.1981405273586 L 155.55555555555554,172.1981405273586 L 155.55555555555554,172.1981405273586 L 155.55555555555554,172.1981405273586 L 155.55555555555554,172.1981405273586 L 155.55555555555554,172.1981405273586 L 155.55555555555554,172.1981405273586 L 155.55555555555554,172.1981405273586 L 155.55555555555554,172.1981405273586 L 155.55555555555554,172.1981405273586 L 201.77777777777777,254.86480719402525 L 201.77777777777777,254.86480719402525 L 201.77777777777777,254.86480719402525 L 201.77777777777777,254.86480719402525 L 201.77777777777777,254.86480719402525 L 201.77777777777777,254.86480719402525 L 201.77777777777777,254.86480719402525 L 201.77777777777777,254.86480719402525 L 201.77777777777777,254.86480719402525 L 201.77777777777777,254.86480719402525 L 201.77777777777777,254.86480719402525 L 195.98963572626124,292.49931412894375 L 185.82655083066606,331.80917543057456 L 172.31275720164612,370.84834628867543 L 156.4724889498552,407.67078189300406 L 139.32998018594728,440.330437433318 L 121.90946502057614,466.88126809937506 L 105.23517756439567,485.37722908093275 L 90.33135192805976,493.8722755677487 L 78.22222222222223,490.4203627495808 L 78.22222222222223,490.4203627495808 L 73.40710257582684,482.6264288980338 L 70.18686175887822,470.93308946806883 L 68.51028806584364,455.9841487578113 L 68.32616979119037,438.4234110653864 L 69.58329522938577,418.8946806889193 L 72.23045267489711,398.0417619265356 L 76.21643042219173,376.50845907636034 L 81.49001676573691,354.9385764365189 L 88.0,333.9759183051364 L 88.0,333.9759183051364 L 97.45831428135953,309.51013565005337 L 107.9628105471727,287.18792866941004 L 119.37448559670783,267.17756439567137 L 131.55433622923337,249.64730986130158 L 144.3633592440177,234.76543209876536 L 157.66255144032922,222.70019814052733 L 171.31290961743636,213.6198750190519 L 185.17543057460753,207.69272976680386 L 199.11111111111111,205.0870294162475 L 199.11111111111111,205.0870294162475 L 200.4609053497942,205.6527968297516 L 201.54732510288068,207.83539094650197 L 202.37037037037038,211.47386069196762 L 202.93004115226336,216.40725499161707 L 203.22633744855966,222.47462277091904 L 203.25925925925924,229.51501295534217 L 203.02880658436212,237.3674744703551 L 202.53497942386832,245.8710562414266 L 201.77777777777777,254.86480719402525 L 201.77777777777777,254.86480719402525 L 201.77777777777777,254.86480719402525 L 201.77777777777777,254.86480719402525 L 201.77777777777777,254.86480719402525 L 201.77777777777777,254.86480719402525 L 201.77777777777777,254.86480719402525 L 201.77777777777777,254.86480719402525 L 201.77777777777777,254.86480719402525 L 201.77777777777777,254.86480719402525 L 201.77777777777777,254.86480719402525 L 246.22222222222223,19.309251638469707 L 238.35025148605388,25.361987501905283 L 233.55098308184728,33.031550068587116 L 231.60493827160496,41.6960829141898 L 232.29263831732965,50.73372961438802 L 235.39460448102423,59.52263374485594 L 240.69135802469137,67.44093888126817 L 247.9634202103338,73.86678859929887 L 256.9913122999543,78.17832647462274 L 267.55555555555554,79.75369608291415 L 267.55555555555554,79.75369608291415 L 273.2034750800183,78.96113397347966 L 278.2368541380887,76.70538027739673 L 282.5679012345679,73.16933394299637 L 286.1088248742569,68.53589391860987 L 288.771833561957,62.98795915256819 L 290.4691358024691,56.70842859320227 L 291.1129401005944,49.88020118884318 L 290.615454961134,42.686175887821975 L 288.8888888888889,35.30925163846971 L 288.8888888888889,35.30925163846971 L 286.4014631915866,29.02484377381501 L 283.14586191129405,23.815881725346724 L 279.2098765432099,19.704313366864778 L 274.68129858253315,16.712086572168825 L 269.64791952446274,14.861149215058605 L 264.1975308641975,14.173449169333962 L 258.4179240969365,14.670934308794434 L 252.39689071787834,16.37555250723977 L 246.22222222222223,19.309251638469707 L 246.22222222222223,19.309251638469707 L 246.22222222222223,19.309251638469707 L 246.22222222222223,19.309251638469707 L 246.22222222222223,19.309251638469707 L 246.22222222222223,19.309251638469707 L 246.22222222222223,19.309251638469707 L 246.22222222222223,19.309251638469707 L 246.22222222222223,19.309251638469707 L 246.22222222222223,19.309251638469707 L 246.22222222222223,19.309251638469707"/></svg>
