<?xml version="1.0" encoding="utf-8"?>
<svg xmlns="http://www.w3.org/2000/svg"  viewBox="0,0,400,532.2633744855967" width="100%">
<path d="M208.88888888888889 11.152263374485567 L 208.88888888888889,11.152263374485567 L 205.27663465935066,13.436976070721082 L 201.8838591678098,16.508154244779693 L 198.76543209876544,20.24691358024686 L 195.97622313671692,24.534369760707165 L 193.5711019661637,29.251638469745437 L 191.6049382716049,34.279835390946495 L 190.13260173754,39.500076207895134 L 189.20896204846818,44.79347660417621 L 188.88888888888889,50.04115226337446 L 188.88888888888889,50.04115226337446 L 189.07788446883092,57.42722146014331 L 189.7424173144338,63.3683889650967 L 191.02880658436217,67.98353909465018 L 193.0833714372809,71.39155616521869 L 196.0524310318549,73.7113244932175 L 200.08230452674894,75.06172839506178 L 205.31931108062793,75.5616521871666 L 211.90976985215667,75.32998018594728 L 220.0,74.48559670781891 L 220.0,74.48559670781891 L 227.46684956561495,73.55890870294174 L 233.6442615454961,72.17497332723669 L 238.641975308642,70.20576131687234 L 242.56973022405126,67.523243408017 L 245.53726566072248,63.99939033683887 L 247.6543209876543,59.50617283950623 L 249.03063557384542,53.915561652187186 L 249.77594878829444,47.09952751105013 L 250.0,38.93004115226334 L 250.0,38.93004115226334 L 249.54122847126956,27.77168114616675 L 248.14052735863436,18.716659045877073 L 245.76131687242798,11.728395061728257 L 242.3670172229843,6.770309404054223 L 237.92104862063712,3.8058222831884656 L 232.38683127572014,2.798353909465037 L 225.7277853985673,3.7113244932174894 L 217.90733119951224,6.508154244779753 L 208.88888888888889,11.152263374485567 L 208.88888888888889,11.152263374485567 L 208.88888888888889,11.152263374485567 L 208.88888888888889,11.152263374485567 L 208.88888888888889,11.152263374485567 L 208.88888888888889,11.152263374485567 L 208.88888888888889,11.152263374485567 L 208.88888888888889,11.152263374485567 L 208.88888888888889,11.152263374485567 L 208.88888888888889,11.152263374485567 L 208.88888888888889,11.152263374485567"/></svg>
