<?xml version="1.0" encoding="utf-8"?>
<svg xmlns="http://www.w3.org/2000/svg"  viewBox="0,0,400,532.2633744855967" width="100%">
<path d="M208.88888888888889 11.152263374485567 L 208.88888888888889,11.152263374485567 L 205.27663465935066,13.436976070721082 L 201.8838591678098,16.508154244779693 L 198.76543209876544,20.24691358024686 L 195.97622313671692,24.534369760707165 L 193.5711019661637,29.251638469745437 L 191.6049382716049,34.279835390946495 L 190.13260173754,39.500076207895134 L 189.20896204846818,44.79347660417621 L 188.88888888888889,50.04115226337446 L 188.88888888888889,50.04115226337446 L 189.07788446883092,57.42722146014331 L 189.7424173144338,63.3683889650967 L 191.02880658436217,67.98353909465018 L 193.0833714372809,71.39155616521869 L 196.0524310318549,73.7113244932175 L 200.08230452674894,75.06172839506178 L 205.31931108062793,75.5616521871666 L 211.90976985215667,75.32998018594728 L 220.0,74.48559670781891 L 220.0,74.48559670781891 L 227.46684956561495,73.55890870294174 L 233.6442615454961,72.17497332723669 L 238.641975308642,70.20576131687234 L 242.56973022405126,67.523243408017 L 245.53726566072248,63.99939033683887 L 247.6543209876543,59.50617283950623 L 249.03063557384542,53.915561652187186 L 249.77594878829444,47.09952751105013 L 250.0,38.93004115226334 L 250.0,38.93004115226334 L 249.54122847126956,27.77168114616675 L 248.14052735863436,18.716659045877073 L 245.76131687242798,11.728395061728257 L 242.3670172229843,6.770309404054223 L 237.92104862063712,3.8058222831884656 L 232.38683127572014,2.798353909465037 L 225.7277853985673,3.7113244932174894 L 217.90733119951224,6.508154244779753 L 208.88888888888889,11.152263374485567 L 208.88888888888889,11.152263374485567 L 208.88888888888889,11.152263374485567 L 208.88888888888889,11.152263374485567 L 208.88888888888889,11.152263374485567 L 208.88888888888889,11.152263374485567 L 208.88888888888889,11.152263374485567 L 208.88888888888889,11.152263374485567 L 208.88888888888889,11.152263374485567 L 208.88888888888889,11.152263374485567 L 208.88888888888889,11.152263374485567M234.44444444444446 185.59670781893 L 208.88888888888889,11.152263374485567 L 205.27663465935066,13.436976070721082 L 201.8838591678098,16.508154244779693 L 198.76543209876544,20.24691358024686 L 195.97622313671692,24.534369760707165 L 193.5711019661637,29.251638469745437 L 191.6049382716049,34.279835390946495 L 190.13260173754,39.500076207895134 L 189.20896204846818,44.79347660417621 L 188.88888888888889,50.04115226337446 L 188.88888888888889,50.04115226337446 L 189.07788446883092,57.42722146014331 L 189.7424173144338,63.3683889650967 L 191.02880658436217,67.98353909465018 L 193.0833714372809,71.39155616521869 L 196.0524310318549,73.7113244932175 L 200.08230452674894,75.06172839506178 L 205.31931108062793,75.5616521871666 L 211.90976985215667,75.32998018594728 L 220.0,74.48559670781891 L 220.0,74.48559670781891 L 227.46684956561495,73.55890870294174 L 233.6442615454961,72.17497332723669 L 238.641975308642,70.20576131687234 L 242.56973022405126,67.523243408017 L 245.53726566072248,63.99939033683887 L 247.6543209876543,59.50617283950623 L 249.03063557384542,53.915561652187186 L 249.77594878829444,47.09952751105013 L 250.0,38.93004115226334 L 250.0,38.93004115226334 L 249.54122847126956,27.77168114616675 L 248.14052735863436,18.716659045877073 L 245.76131687242798,11.728395061728257 L 242.3670172229843,6.770309404054223 L 237.92104862063712,3.8058222831884656 L 232.38683127572014,2.798353909465037 L 225.7277853985673,3.7113244932174894 L 217.90733119951224,6.508154244779753 L 208.88888888888889,11.152263374485567 L 208.88888888888889,11.152263374485567 L 208.88888888888889,11.152263374485567 L 208.88888888888889,11.152263374485567 L 208.88888888888889,11.152263374485567 L 208.88888888888889,11.152263374485567 L 208.88888888888889,11.152263374485567 L 208.88888888888889,11.152263374485567 L 208.88888888888889,11.152263374485567 L 208.88888888888889,11.152263374485567 L 208.88888888888889,11.152263374485567 L 234.44444444444446,185.59670781893 L 216.77793019356798,206.32220698064324 L 200.35512879134282,230.00152415790274 L 185.5967078189301,255.55555555555554 L 172.92333485749128,281.9051973784484 L 162.75567748818779,307.97134583142815 L 155.51440329218107,332.6748971193416 L 151.6201798506325,354.9367474470355 L 151.49367474470355,373.6777930193568 L 155.55555555555554,387.81893004115227 L 155.55555555555554,387.81893004115227 L 159.2120103642737,394.17314433775346 L 162.91418991007473,399.2287761012041 L 166.8724279835391,403.0864197530864 L 171.29705837524767,405.84666971498245 L 176.39841487578116,407.6101204084743 L 182.38683127572014,408.4773662551441 L 189.47264136564547,408.54900167657377 L 197.86617893613777,407.9256210943454 L 207.77777777777777,406.7078189300412 L 207.77777777777777,406.7078189300412 L 232.43560432860843,401.0166133211401 L 254.58771528730375,392.7831123304374 L 274.2798353909465,381.9341563786008 L 291.5576893766194,368.3965858862978 L 306.4670019814053,352.097241274196 L 319.0534979423868,332.96296296296305 L 329.36290199664677,310.9205913732663 L 337.4409388812681,285.89696692577354 L 343.3333333333333,257.81893004115227 L 343.3333333333333,257.81893004115227 L 345.21566834324034,243.55738454503893 L 346.3755525072398,231.6278006401463 L 346.7489711934156,221.64609053497935 L 346.27190976985213,213.22816643804293 L 344.88035360463346,205.98994055784175 L 342.5102880658436,199.54732510288068 L 339.0976985215668,193.5162322816644 L 334.57857033988716,187.51257430269777 L 328.8888888888889,181.15226337448559 L 328.8888888888889,181.15226337448559 L 315.9929888736473,168.64807194025306 L 305.0632525529645,159.3080323121475 L 295.5144032921811,153.16872427983535 L 286.76116445663774,150.26672763298274 L 278.21825941167504,150.63862216125594 L 269.30041152263374,154.320987654321 L 259.42234415485444,161.35040390184417 L 247.99878067367777,171.7634506934919 L 234.44444444444446,185.59670781893 L 234.44444444444446,185.59670781893 L 234.44444444444446,185.59670781893 L 234.44444444444446,185.59670781893 L 234.44444444444446,185.59670781893 L 234.44444444444446,185.59670781893 L 234.44444444444446,185.59670781893 L 234.44444444444446,185.59670781893 L 234.44444444444446,185.59670781893 L 234.44444444444446,185.59670781893 L 234.44444444444446,185.59670781893 L 300.0,243.3744855967078 L 300.0,243.3744855967078 L 300.0,243.3744855967078 L 300.0,243.3744855967078 L 300.0,243.3744855967078 L 300.0,243.3744855967078 L 300.0,243.3744855967078 L 300.0,243.3744855967078 L 300.0,243.3744855967078 L 300.0,243.3744855967078 L 300.0,243.3744855967078 L 299.6966925773509,254.0237768632831 L 298.72580399329365,263.8774577046182 L 296.9958847736626,273.1275720164609 L 294.4154854442921,281.96616369455876 L 290.8931565310166,290.58527663465935 L 286.33744855967075,299.1769547325103 L 280.65691205608897,307.9332418838592 L 273.7600975461058,317.04618198445365 L 265.55555555555554,326.7078189300411 L 265.55555555555554,326.7078189300411 L 254.43987197073614,338.1222374638013 L 242.88523090992229,347.8174058832495 L 231.35802469135808,355.63786008230454 L 220.32464563328762,361.4281359548849 L 210.25148605395515,365.0327693949093 L 201.6049382716049,366.2962962962963 L 194.85139460448104,365.06325255296457 L 190.45724737082762,361.1781740588325 L 188.88888888888889,354.48559670781896 L 188.88888888888889,354.48559670781896 L 189.9222679469593,347.8113092516385 L 192.8760859625057,338.4575522024082 L 197.5308641975309,326.872427983539 L 203.6671239140375,313.50403901844226 L 211.06538637402835,298.8004877305289 L 219.50617283950612,283.2098765432099 L 228.77000457247368,267.1803078798964 L 238.63740283493368,251.1598841639994 L 248.88888888888889,235.59670781893 L 248.88888888888889,235.59670781893 L 259.128181679622,220.90230147843317 L 268.33409541228474,210.14022252705377 L 276.4609053497943,203.29218106995884 L 283.4628867550678,200.33988721231515 L 289.29431489102274,201.26505105928973 L 293.90946502057614,206.04938271604942 L 297.26261240664536,214.67459228776102 L 299.3080323121476,227.1223898795915 L 300.0,243.3744855967078 L 300.0,243.3744855967078 L 300.0,243.3744855967078 L 300.0,243.3744855967078 L 300.0,243.3744855967078 L 300.0,243.3744855967078 L 300.0,243.3744855967078 L 300.0,243.3744855967078 L 300.0,243.3744855967078 L 300.0,243.3744855967078 L 300.0,243.3744855967078M353.3333333333333 14.4855967078189 L 208.88888888888889,11.152263374485567 L 205.27663465935066,13.436976070721082 L 201.8838591678098,16.508154244779693 L 198.76543209876544,20.24691358024686 L 195.97622313671692,24.534369760707165 L 193.5711019661637,29.251638469745437 L 191.6049382716049,34.279835390946495 L 190.13260173754,39.500076207895134 L 189.20896204846818,44.79347660417621 L 188.88888888888889,50.04115226337446 L 188.88888888888889,50.04115226337446 L 189.07788446883092,57.42722146014331 L 189.7424173144338,63.3683889650967 L 191.02880658436217,67.98353909465018 L 193.0833714372809,71.39155616521869 L 196.0524310318549,73.7113244932175 L 200.08230452674894,75.06172839506178 L 205.31931108062793,75.5616521871666 L 211.90976985215667,75.32998018594728 L 220.0,74.48559670781891 L 220.0,74.48559670781891 L 227.46684956561495,73.55890870294174 L 233.6442615454961,72.17497332723669 L 238.641975308642,70.20576131687234 L 242.56973022405126,67.523243408017 L 245.53726566072248,63.99939033683887 L 247.6543209876543,59.50617283950623 L 249.03063557384542,53.915561652187186 L 249.77594878829444,47.09952751105013 L 250.0,38.93004115226334 L 250.0,38.93004115226334 L 249.54122847126956,27.77168114616675 L 248.14052735863436,18.716659045877073 L 245.76131687242798,11.728395061728257 L 242.3670172229843,6.770309404054223 L 237.92104862063712,3.8058222831884656 L 232.38683127572014,2.798353909465037 L 225.7277853985673,3.7113244932174894 L 217.90733119951224,6.508154244779753 L 208.88888888888889,11.152263374485567 L 208.88888888888889,11.152263374485567 L 208.88888888888889,11.152263374485567 L 208.88888888888889,11.152263374485567 L 208.88888888888889,11.152263374485567 L 208.88888888888889,11.152263374485567 L 208.88888888888889,11.152263374485567 L 208.88888888888889,11.152263374485567 L 208.88888888888889,11.152263374485567 L 208.88888888888889,11.152263374485567 L 208.88888888888889,11.152263374485567 L 234.44444444444446,185.59670781893 L 216.77793019356798,206.32220698064324 L 200.35512879134282,230.00152415790274 L 185.5967078189301,255.55555555555554 L 172.92333485749128,281.9051973784484 L 162.75567748818779,307.97134583142815 L 155.51440329218107,332.6748971193416 L 151.6201798506325,354.9367474470355 L 151.49367474470355,373.6777930193568 L 155.55555555555554,387.81893004115227 L 155.55555555555554,387.81893004115227 L 159.2120103642737,394.17314433775346 L 162.91418991007473,399.2287761012041 L 166.8724279835391,403.0864197530864 L 171.29705837524767,405.84666971498245 L 176.39841487578116,407.6101204084743 L 182.38683127572014,408.4773662551441 L 189.47264136564547,408.54900167657377 L 197.86617893613777,407.9256210943454 L 207.77777777777777,406.7078189300412 L 207.77777777777777,406.7078189300412 L 232.43560432860843,401.0166133211401 L 254.58771528730375,392.7831123304374 L 274.2798353909465,381.9341563786008 L 291.5576893766194,368.3965858862978 L 306.4670019814053,352.097241274196 L 319.0534979423868,332.96296296296305 L 329.36290199664677,310.9205913732663 L 337.4409388812681,285.89696692577354 L 343.3333333333333,257.81893004115227 L 343.3333333333333,257.81893004115227 L 345.21566834324034,243.55738454503893 L 346.3755525072398,231.6278006401463 L 346.7489711934156,221.64609053497935 L 346.27190976985213,213.22816643804293 L 344.88035360463346,205.98994055784175 L 342.5102880658436,199.54732510288068 L 339.0976985215668,193.5162322816644 L 334.57857033988716,187.51257430269777 L 328.8888888888889,181.15226337448559 L 328.8888888888889,181.15226337448559 L 315.9929888736473,168.64807194025306 L 305.0632525529645,159.3080323121475 L 295.5144032921811,153.16872427983535 L 286.76116445663774,150.26672763298274 L 278.21825941167504,150.63862216125594 L 269.30041152263374,154.320987654321 L 259.42234415485444,161.35040390184417 L 247.99878067367777,171.7634506934919 L 234.44444444444446,185.59670781893 L 234.44444444444446,185.59670781893 L 234.44444444444446,185.59670781893 L 234.44444444444446,185.59670781893 L 234.44444444444446,185.59670781893 L 234.44444444444446,185.59670781893 L 234.44444444444446,185.59670781893 L 234.44444444444446,185.59670781893 L 234.44444444444446,185.59670781893 L 234.44444444444446,185.59670781893 L 234.44444444444446,185.59670781893 L 300.0,243.3744855967078 L 300.0,243.3744855967078 L 300.0,243.3744855967078 L 300.0,243.3744855967078 L 300.0,243.3744855967078 L 300.0,243.3744855967078 L 300.0,243.3744855967078 L 300.0,243.3744855967078 L 300.0,243.3744855967078 L 300.0,243.3744855967078 L 300.0,243.3744855967078 L 299.6966925773509,254.0237768632831 L 298.72580399329365,263.8774577046182 L 296.9958847736626,273.1275720164609 L 294.4154854442921,281.96616369455876 L 290.8931565310166,290.58527663465935 L 286.33744855967075,299.1769547325103 L 280.65691205608897,307.9332418838592 L 273.7600975461058,317.04618198445365 L 265.55555555555554,326.7078189300411 L 265.55555555555554,326.7078189300411 L 254.43987197073614,338.1222374638013 L 242.88523090992229,347.8174058832495 L 231.35802469135808,355.63786008230454 L 220.32464563328762,361.4281359548849 L 210.25148605395515,365.0327693949093 L 201.6049382716049,366.2962962962963 L 194.85139460448104,365.06325255296457 L 190.45724737082762,361.1781740588325 L 188.88888888888889,354.48559670781896 L 188.88888888888889,354.48559670781896 L 189.9222679469593,347.8113092516385 L 192.8760859625057,338.4575522024082 L 197.5308641975309,326.872427983539 L 203.6671239140375,313.50403901844226 L 211.06538637402835,298.8004877305289 L 219.50617283950612,283.2098765432099 L 228.77000457247368,267.1803078798964 L 238.63740283493368,251.1598841639994 L 248.88888888888889,235.59670781893 L 248.88888888888889,235.59670781893 L 259.128181679622,220.90230147843317 L 268.33409541228474,210.14022252705377 L 276.4609053497943,203.29218106995884 L 283.4628867550678,200.33988721231515 L 289.29431489102274,201.26505105928973 L 293.90946502057614,206.04938271604942 L 297.26261240664536,214.67459228776102 L 299.3080323121476,227.1223898795915 L 300.0,243.3744855967078 L 300.0,243.3744855967078 L 300.0,243.3744855967078 L 300.0,243.3744855967078 L 300.0,243.3744855967078 L 300.0,243.3744855967078 L 300.0,243.3744855967078 L 300.0,243.3744855967078 L 300.0,243.3744855967078 L 300.0,243.3744855967078 L 300.0,243.3744855967078 L 353.3333333333333,14.4855967078189 L 345.432098765432,21.886907483615424 L 339.5061728395062,30.403901844231065 L 335.55555555555566,39.50617283950616 L 333.58024691358025,48.66331351928049 L 333.5802469135803,57.34491693339427 L 335.55555555555554,65.02057613168726 L 339.5061728395062,71.15988416399932 L 345.4320987654321,75.23243408017069 L 353.3333333333333,76.70781893004113 L 353.3333333333333,76.70781893004113 L 362.2496570644718,75.94116750495353 L 370.4252400548697,73.70217954580092 L 377.7777777777779,70.08230452674891 L 384.22496570644716,65.17299192196309 L 389.68449931412897,59.06569120560884 L 394.074074074074,51.851851851851876 L 397.31138545953365,43.62292333485755 L 399.3141289437585,34.47035512879128 L 400.0,24.4855967078189 L 400.0,24.4855967078189 L 399.35070873342477,15.802469135802541 L 397.43941472336536,9.012345679012254 L 394.320987654321,4.115226337448488 L 390.05029721079103,1.111111111111048 L 384.68221307727475,0.0 L 378.2716049382716,0.7818930041152803 L 370.8733424782808,3.4567901234566993 L 362.5422953818015,8.024691358024699 L 353.3333333333333,14.4855967078189 L 353.3333333333333,14.4855967078189 L 353.3333333333333,14.4855967078189 L 353.3333333333333,14.4855967078189 L 353.3333333333333,14.4855967078189 L 353.3333333333333,14.4855967078189 L 353.3333333333333,14.4855967078189 L 353.3333333333333,14.4855967078189 L 353.3333333333333,14.4855967078189 L 353.3333333333333,14.4855967078189 L 353.3333333333333,14.4855967078189"/></svg>
