<?xml version="1.0" encoding="utf-8"?>
<svg xmlns="http://www.w3.org/2000/svg"  viewBox="0,0,400,798.7382597908912" width="100%">
<path d="M168.80382775119617 294.04926457558025 L 168.80382775119617,294.04926457558025 L 163.203969519759,295.68905428554547 L 157.94435583909265,298.2361627975662 L 153.11004784688996,301.5771752613857 L 148.78610668084352,305.59867682674684 L 145.05759347864608,310.1872526433929 L 142.0095693779904,315.22948786106673 L 139.7270955165692,320.61196762951135 L 138.29523303207515,326.22127709847 L 137.79904306220095,331.9440014176855 L 137.79904306220095,331.9440014176855 L 138.31177269773755,340.1972945832595 L 140.11459625494714,346.67848071356826 L 143.60446570972886,351.52932837143345 L 149.17833303798213,354.89160611967606 L 157.23315021560637,356.90708252111745 L 168.16586921850077,357.7175261385786 L 182.37344202256483,357.4647055348808 L 200.25282060369778,356.2903892728453 L 222.20095693779905,354.3363459152932 L 222.20095693779905,354.3363459152932 L 237.01577175261383,353.43847835075894 L 251.40528087896507,353.0226238998167 L 265.07177033492826,353.0604288499024 L 277.71752613857876,353.52353948845166 L 289.0448343079922,354.3836021029002 L 298.755980861244,355.61226298068397 L 306.5532518164097,357.1811684092386 L 312.1389331915648,359.0619646759997 L 315.21531100478467,361.22629806840325 L 315.21531100478467,361.22629806840325 L 317.05830232146013,365.69673341603163 L 319.11394648236757,373.1301317266229 L 321.3397129186603,383.1720715931241 L 323.69307106149216,395.46813160848234 L 326.13149034201666,409.66389036564465 L 328.6124401913875,425.40492645755796 L 331.09339004075844,442.3368184771692 L 333.531809321283,460.1051450174256 L 335.88516746411483,478.35548467127404 L 335.88516746411483,478.35548467127404 L 339.431744344025,507.22665248981025 L 341.9292338590584,529.9308878256245 L 343.2216905901117,547.0636186425659 L 343.15316911808145,559.2202729044834 L 341.5677240238644,566.9962785752259 L 338.3094098883572,570.9870636186424 L 333.2222812924567,571.7880559985822 L 326.15039281705947,569.994683678894 L 316.93779904306217,566.2023746234271 L 316.93779904306217,566.2023746234271 L 309.65089491405274,563.3362868450587 L 300.6202374623427,560.4985527792545 L 290.1435406698565,557.7175261385786 L 278.5185185185185,555.0215606355955 L 266.0428849902534,552.4390099828695 L 253.01435406698565,549.9982278929647 L 239.73063973063972,547.7275680784452 L 226.4894559631402,545.6553842518754 L 213.58851674641147,543.8100301258195 L 213.58851674641147,543.8100301258195 L 195.07826806072416,542.4939453009627 L 179.44592120030717,542.0851792781616 L 166.25199362041468,542.7255006202372 L 155.05700277630103,544.5566778900111 L 145.4214661232205,547.720479650304 L 136.90590111642743,552.3586744639375 L 129.0708252111761,558.6130308937326 L 121.47675586272076,566.6253175025104 L 113.68421052631578,576.5373028530921 L 113.68421052631578,576.5373028530921 L 95.87335341721302,608.3808848721128 L 86.923031484435,639.1328489574103 L 86.37958532695376,668.0843522948785 L 93.78935554374151,694.5265520704116 L 108.69868273377045,717.7506054699036 L 130.65390749601275,737.0476696792484 L 159.2013704294406,751.7089018843403 L 193.88741213302612,761.025459271073 L 234.25837320574163,764.288499025341 L 234.25837320574163,764.288499025341 L 258.1841809911985,763.4780554078799 L 281.48620710024227,761.1223344556677 L 303.7958532695375,757.3347510189614 L 324.74452123574923,752.2287199480181 L 343.96361273554254,745.9176560930946 L 361.0845295055821,738.5149743044478 L 375.7386732825329,730.1340894323349 L 387.5574458030598,720.8884163270126 L 396.17224880382776,710.8913698387381 L 396.17224880382776,710.8913698387381 L 397.7033492822966,705.8136924803591 L 398.85167464114835,695.533108866442 L 399.61722488038276,680.5883395357077 L 400.0,661.5181050268768 L 400.0,638.8611258786696 L 399.61722488038276,613.1561226298066 L 398.8516746411483,584.9418158190088 L 397.7033492822966,554.7569259849961 L 396.17224880382776,523.1401736664893 L 396.17224880382776,523.1401736664893 L 393.38177092563046,475.22003662354524 L 390.56293933486916,436.302203319747 L 387.4322169059011,405.1816409711145 L 383.70606651308407,380.65331679366756 L 379.10095103077555,361.51219800342596 L 373.33333333333326,346.55325181640967 L 366.11967629511486,334.57144544863837 L 357.17644279047784,324.361746116132 L 346.2200956937799,314.7191210349104 L 346.2200956937799,314.7191210349104 L 332.4236517218973,305.2206273258905 L 316.4865024514147,297.42335637072466 L 298.6921850079745,291.36983873825966 L 279.32423651721905,287.10260499734164 L 258.6661941047906,284.6641857168172 L 237.0015948963317,284.0971114655324 L 214.6139760174848,285.44391281233385 L 191.78687459389215,288.74712032606766 L 168.80382775119617,294.04926457558025 L 168.80382775119617,294.04926457558025 L 168.80382775119617,294.04926457558025 L 168.80382775119617,294.04926457558025 L 168.80382775119617,294.04926457558025 L 168.80382775119617,294.04926457558025 L 168.80382775119617,294.04926457558025 L 168.80382775119617,294.04926457558025 L 168.80382775119617,294.04926457558025 L 168.80382775119617,294.04926457558025 L 168.80382775119617,294.04926457558025 L 272.1531100478469,626.48945596314 L 272.1531100478469,626.48945596314 L 272.1531100478469,626.48945596314 L 272.1531100478469,626.48945596314 L 272.1531100478469,626.48945596314 L 272.1531100478469,626.48945596314 L 272.1531100478469,626.48945596314 L 272.1531100478469,626.48945596314 L 272.1531100478469,626.48945596314 L 272.1531100478469,626.48945596314 L 272.1531100478469,626.48945596314 L 291.73371138283414,639.5227125051684 L 306.8202492763897,651.1382834189851 L 317.38437001594906,661.4495835548465 L 323.397719888948,670.5700277630101 L 324.8319451828224,678.6130308937325 L 321.65869218500796,685.6920077972709 L 313.84960718294053,691.9203733238819 L 301.3763364640557,697.4115423238228 L 284.2105263157895,702.2789296473505 L 284.2105263157895,702.2789296473505 L 261.63388268651426,706.5792427195935 L 240.120503278398,708.1008919605409 L 220.09569377990434,706.9998227892963 L 201.98475987949672,703.431980624963 L 186.21300726563882,697.553310886644 L 173.20574162679424,689.519758993443 L 163.38826865142656,679.4872703644633 L 157.18589402799927,667.6117904188078 L 155.02392344497608,654.0492645755803 L 155.02392344497608,654.0492645755803 L 156.26203556028116,632.3492232264163 L 160.080335518932,615.4409593006083 L 166.6347687400319,603.2677653730283 L 176.08128064268416,595.7729340185479 L 188.57581664599212,592.8997578120384 L 204.27432216905896,594.5915293283713 L 223.3327426309882,600.7915411424183 L 245.9070234508831,611.4430858290507 L 272.1531100478469,626.48945596314 L 272.1531100478469,626.48945596314 L 272.1531100478469,626.48945596314 L 272.1531100478469,626.48945596314 L 272.1531100478469,626.48945596314 L 272.1531100478469,626.48945596314 L 272.1531100478469,626.48945596314 L 272.1531100478469,626.48945596314 L 272.1531100478469,626.48945596314 L 272.1531100478469,626.48945596314 L 272.1531100478469,626.48945596314"/></svg>
