<?xml version="1.0" encoding="utf-8"?>
<svg xmlns="http://www.w3.org/2000/svg"  viewBox="0,0,400,833.8914881392105" width="100%">
<path d="M145.10588524993844 26.085529015841836 L 145.10588524993844,26.085529015841836 L 123.91857506361322,47.88229500123152 L 110.90659115160469,71.58745793318572 L 105.60206845604534,96.0067306903062 L 107.53714191906755,119.94582615119438 L 116.2439464828039,142.2104571944514 L 131.25461708938684,161.60633669867863 L 152.10128868094884,176.93917754247735 L 178.31609619962242,187.01469260444898 L 209.43117458754003,190.63859476319473 L 209.43117458754003,190.63859476319473 L 229.17590084544034,189.22679143068228 L 247.38159730772392,185.10629565788398 L 263.83895592218664,178.44947878190925 L 278.3386686366248,169.4287121398671 L 290.67142739883445,158.21636706886653 L 300.6279241566117,144.98481490601674 L 307.9988508577526,129.90642698842666 L 312.5748994500533,113.15357465320544 L 314.14676188131006,94.89862923746213 L 314.14676188131006,94.89862923746213 L 313.3423623081342,77.18952638923119 L 310.81424936386765,61.819748830337296 L 306.3900517114012,48.57998850857749 L 299.8973980136256,37.26093737174767 L 291.1639169334318,27.653287367643394 L 280.01723713371086,19.547730444061557 L 266.28498727735365,12.734958548797701 L 249.7947960272511,7.00566362964806 L 230.37429204629402,2.1505376344086886 L 230.37429204629402,2.1505376344086886 L 220.1612903225806,0.6074037593370752 L 210.39152918000494,0.0 L 200.95419847328245,0.37757530985803484 L 191.7384880571288,1.789378642370561 L 182.63358778625954,4.2846589509973 L 173.52868751539032,7.912665189198143 L 164.31297709923663,12.722646310432642 L 154.87564639251417,18.76385126816069 L 145.10588524993844,26.085529015841836 L 145.10588524993844,26.085529015841836 L 145.10588524993844,26.085529015841836 L 145.10588524993844,26.085529015841836 L 145.10588524993844,26.085529015841836 L 145.10588524993844,26.085529015841836 L 145.10588524993844,26.085529015841836 L 145.10588524993844,26.085529015841836 L 145.10588524993844,26.085529015841836 L 145.10588524993844,26.085529015841836 L 145.10588524993844,26.085529015841836 L 237.85397685299188,69.46770089468941 L 237.85397685299188,69.46770089468941 L 237.85397685299188,69.46770089468941 L 237.85397685299188,69.46770089468941 L 237.85397685299188,69.46770089468941 L 237.85397685299188,69.46770089468941 L 237.85397685299188,69.46770089468941 L 237.85397685299188,69.46770089468941 L 237.85397685299188,69.46770089468941 L 237.85397685299188,69.46770089468941 L 237.85397685299188,69.46770089468941 L 245.59837478453582,76.29894114750077 L 250.05540507264223,84.44759090536006 L 251.48362472297467,93.34728720348032 L 250.14159074119675,102.43166707707464 L 246.2878601329722,111.1343675613561 L 240.18098990396453,118.88902569153754 L 232.0795370598375,125.12927850283198 L 222.24205860625466,129.28876303045237 L 210.9271115488796,130.80111630961184 L 210.9271115488796,130.80111630961184 L 198.867274070426,129.89206271033427 L 188.69120906180746,127.2962324550603 L 180.50972666830833,123.21062135762949 L 174.433637035213,117.83222523188051 L 170.573750307806,111.35803989165244 L 169.0408766313716,103.98506115078406 L 169.9458261511943,95.91028482311435 L 173.3994090125585,87.33070672248229 L 179.51243536074858,78.44332266272684 L 179.51243536074858,78.44332266272684 L 186.09332676680617,70.84667159156221 L 192.04629401625218,64.98604612985307 L 197.62989411475007,60.82450956250515 L 203.10268406796357,58.32512517442339 L 208.72322088155624,57.45095625051295 L 214.7500615611918,58.165066075679334 L 221.44176311253386,60.43051793482738 L 229.056882541246,64.21037511286224 L 237.85397685299188,69.46770089468941 L 237.85397685299188,69.46770089468941 L 237.85397685299188,69.46770089468941 L 237.85397685299188,69.46770089468941 L 237.85397685299188,69.46770089468941 L 237.85397685299188,69.46770089468941 L 237.85397685299188,69.46770089468941 L 237.85397685299188,69.46770089468941 L 237.85397685299188,69.46770089468941 L 237.85397685299188,69.46770089468941 L 237.85397685299188,69.46770089468941"/></svg>
