<?xml version="1.0" encoding="utf-8"?>
<svg xmlns="http://www.w3.org/2000/svg"  viewBox="0,0,400,833.8914881392105" width="100%">
<path d="M145.10588524993844 26.085529015841836 L 145.10588524993844,26.085529015841836 L 123.91857506361322,47.88229500123152 L 110.90659115160469,71.58745793318572 L 105.60206845604534,96.0067306903062 L 107.53714191906755,119.94582615119438 L 116.2439464828039,142.2104571944514 L 131.25461708938684,161.60633669867863 L 152.10128868094884,176.93917754247735 L 178.31609619962242,187.01469260444898 L 209.43117458754003,190.63859476319473 L 209.43117458754003,190.63859476319473 L 229.17590084544034,189.22679143068228 L 247.38159730772392,185.10629565788398 L 263.83895592218664,178.44947878190925 L 278.3386686366248,169.4287121398671 L 290.67142739883445,158.21636706886653 L 300.6279241566117,144.98481490601674 L 307.9988508577526,129.90642698842666 L 312.5748994500533,113.15357465320544 L 314.14676188131006,94.89862923746213 L 314.14676188131006,94.89862923746213 L 313.3423623081342,77.18952638923119 L 310.81424936386765,61.819748830337296 L 306.3900517114012,48.57998850857749 L 299.8973980136256,37.26093737174767 L 291.1639169334318,27.653287367643394 L 280.01723713371086,19.547730444061557 L 266.28498727735365,12.734958548797701 L 249.7947960272511,7.00566362964806 L 230.37429204629402,2.1505376344086886 L 230.37429204629402,2.1505376344086886 L 220.1612903225806,0.6074037593370752 L 210.39152918000494,0.0 L 200.95419847328245,0.37757530985803484 L 191.7384880571288,1.789378642370561 L 182.63358778625954,4.2846589509973 L 173.52868751539032,7.912665189198143 L 164.31297709923663,12.722646310432642 L 154.87564639251417,18.76385126816069 L 145.10588524993844,26.085529015841836 L 145.10588524993844,26.085529015841836 L 145.10588524993844,26.085529015841836 L 145.10588524993844,26.085529015841836 L 145.10588524993844,26.085529015841836 L 145.10588524993844,26.085529015841836 L 145.10588524993844,26.085529015841836 L 145.10588524993844,26.085529015841836 L 145.10588524993844,26.085529015841836 L 145.10588524993844,26.085529015841836 L 145.10588524993844,26.085529015841836 L 237.85397685299188,69.46770089468941 L 237.85397685299188,69.46770089468941 L 237.85397685299188,69.46770089468941 L 237.85397685299188,69.46770089468941 L 237.85397685299188,69.46770089468941 L 237.85397685299188,69.46770089468941 L 237.85397685299188,69.46770089468941 L 237.85397685299188,69.46770089468941 L 237.85397685299188,69.46770089468941 L 237.85397685299188,69.46770089468941 L 237.85397685299188,69.46770089468941 L 245.59837478453582,76.29894114750077 L 250.05540507264223,84.44759090536006 L 251.48362472297467,93.34728720348032 L 250.14159074119675,102.43166707707464 L 246.2878601329722,111.1343675613561 L 240.18098990396453,118.88902569153754 L 232.0795370598375,125.12927850283198 L 222.24205860625466,129.28876303045237 L 210.9271115488796,130.80111630961184 L 210.9271115488796,130.80111630961184 L 198.867274070426,129.89206271033427 L 188.69120906180746,127.2962324550603 L 180.50972666830833,123.21062135762949 L 174.433637035213,117.83222523188051 L 170.573750307806,111.35803989165244 L 169.0408766313716,103.98506115078406 L 169.9458261511943,95.91028482311435 L 173.3994090125585,87.33070672248229 L 179.51243536074858,78.44332266272684 L 179.51243536074858,78.44332266272684 L 186.09332676680617,70.84667159156221 L 192.04629401625218,64.98604612985307 L 197.62989411475007,60.82450956250515 L 203.10268406796357,58.32512517442339 L 208.72322088155624,57.45095625051295 L 214.7500615611918,58.165066075679334 L 221.44176311253386,60.43051793482738 L 229.056882541246,64.21037511286224 L 237.85397685299188,69.46770089468941 L 237.85397685299188,69.46770089468941 L 237.85397685299188,69.46770089468941 L 237.85397685299188,69.46770089468941 L 237.85397685299188,69.46770089468941 L 237.85397685299188,69.46770089468941 L 237.85397685299188,69.46770089468941 L 237.85397685299188,69.46770089468941 L 237.85397685299188,69.46770089468941 L 237.85397685299188,69.46770089468941 L 237.85397685299188,69.46770089468941M157.07338094065503 274.4110645982107 L 145.10588524993844,26.085529015841836 L 123.91857506361322,47.88229500123152 L 110.90659115160469,71.58745793318572 L 105.60206845604534,96.0067306903062 L 107.53714191906755,119.94582615119438 L 116.2439464828039,142.2104571944514 L 131.25461708938684,161.60633669867863 L 152.10128868094884,176.93917754247735 L 178.31609619962242,187.01469260444898 L 209.43117458754003,190.63859476319473 L 209.43117458754003,190.63859476319473 L 229.17590084544034,189.22679143068228 L 247.38159730772392,185.10629565788398 L 263.83895592218664,178.44947878190925 L 278.3386686366248,169.4287121398671 L 290.67142739883445,158.21636706886653 L 300.6279241566117,144.98481490601674 L 307.9988508577526,129.90642698842666 L 312.5748994500533,113.15357465320544 L 314.14676188131006,94.89862923746213 L 314.14676188131006,94.89862923746213 L 313.3423623081342,77.18952638923119 L 310.81424936386765,61.819748830337296 L 306.3900517114012,48.57998850857749 L 299.8973980136256,37.26093737174767 L 291.1639169334318,27.653287367643394 L 280.01723713371086,19.547730444061557 L 266.28498727735365,12.734958548797701 L 249.7947960272511,7.00566362964806 L 230.37429204629402,2.1505376344086886 L 230.37429204629402,2.1505376344086886 L 220.1612903225806,0.6074037593370752 L 210.39152918000494,0.0 L 200.95419847328245,0.37757530985803484 L 191.7384880571288,1.789378642370561 L 182.63358778625954,4.2846589509973 L 173.52868751539032,7.912665189198143 L 164.31297709923663,12.722646310432642 L 154.87564639251417,18.76385126816069 L 145.10588524993844,26.085529015841836 L 145.10588524993844,26.085529015841836 L 145.10588524993844,26.085529015841836 L 145.10588524993844,26.085529015841836 L 145.10588524993844,26.085529015841836 L 145.10588524993844,26.085529015841836 L 145.10588524993844,26.085529015841836 L 145.10588524993844,26.085529015841836 L 145.10588524993844,26.085529015841836 L 145.10588524993844,26.085529015841836 L 145.10588524993844,26.085529015841836 L 237.85397685299188,69.46770089468941 L 237.85397685299188,69.46770089468941 L 237.85397685299188,69.46770089468941 L 237.85397685299188,69.46770089468941 L 237.85397685299188,69.46770089468941 L 237.85397685299188,69.46770089468941 L 237.85397685299188,69.46770089468941 L 237.85397685299188,69.46770089468941 L 237.85397685299188,69.46770089468941 L 237.85397685299188,69.46770089468941 L 237.85397685299188,69.46770089468941 L 245.59837478453582,76.29894114750077 L 250.05540507264223,84.44759090536006 L 251.48362472297467,93.34728720348032 L 250.14159074119675,102.43166707707464 L 246.2878601329722,111.1343675613561 L 240.18098990396453,118.88902569153754 L 232.0795370598375,125.12927850283198 L 222.24205860625466,129.28876303045237 L 210.9271115488796,130.80111630961184 L 210.9271115488796,130.80111630961184 L 198.867274070426,129.89206271033427 L 188.69120906180746,127.2962324550603 L 180.50972666830833,123.21062135762949 L 174.433637035213,117.83222523188051 L 170.573750307806,111.35803989165244 L 169.0408766313716,103.98506115078406 L 169.9458261511943,95.91028482311435 L 173.3994090125585,87.33070672248229 L 179.51243536074858,78.44332266272684 L 179.51243536074858,78.44332266272684 L 186.09332676680617,70.84667159156221 L 192.04629401625218,64.98604612985307 L 197.62989411475007,60.82450956250515 L 203.10268406796357,58.32512517442339 L 208.72322088155624,57.45095625051295 L 214.7500615611918,58.165066075679334 L 221.44176311253386,60.43051793482738 L 229.056882541246,64.21037511286224 L 237.85397685299188,69.46770089468941 L 237.85397685299188,69.46770089468941 L 237.85397685299188,69.46770089468941 L 237.85397685299188,69.46770089468941 L 237.85397685299188,69.46770089468941 L 237.85397685299188,69.46770089468941 L 237.85397685299188,69.46770089468941 L 237.85397685299188,69.46770089468941 L 237.85397685299188,69.46770089468941 L 237.85397685299188,69.46770089468941 L 237.85397685299188,69.46770089468941 L 157.07338094065503,274.4110645982107 L 129.9577279816137,310.5946811130266 L 105.80932446852171,356.5542148896003 L 85.15759665107119,409.65484691783644 L 68.53197077895429,467.2617581876386 L 56.461873101863254,526.7401296889109 L 49.476729869490285,585.4551424115573 L 48.10596733152754,640.7719773454814 L 52.87901173766724,690.0558154805877 L 64.32528933760157,730.6718378067801 L 64.32528933760157,730.6718378067801 L 79.34416810309446,758.6616596897318 L 97.04711483214315,778.8455224493148 L 116.793893129771,791.2849872773538 L 137.9442666010014,796.0416153656737 L 159.85799885085777,793.1769679060988 L 181.89485348436344,782.752606090454 L 203.4145941065419,764.830091110564 L 223.77698432241647,739.4709841582535 L 242.3417877370106,706.7368464253469 L 242.3417877370106,706.7368464253469 L 245.99852253139622,699.2571616186491 L 249.6552573257818,691.7774768119513 L 253.3119921201675,684.2977920052533 L 256.9687269145531,676.8181071985555 L 260.6254617089387,669.3384223918576 L 264.28219650332426,661.8587375851598 L 267.93893129771,654.379052778462 L 271.59566609209554,646.899367971764 L 275.25240088648115,639.4196831650662 L 275.25240088648115,639.4196831650662 L 277.41319871952726,644.5723549207914 L 279.57399655257325,649.7250266765166 L 281.73479438561935,654.8776984322418 L 283.89559221866534,660.0303701879669 L 286.05639005171145,665.1830419436922 L 288.21718788475744,670.3357136994173 L 290.37798571780354,675.4883854551425 L 292.53878355084953,680.6410572108676 L 294.6995813838956,685.793728966593 L 294.6995813838956,685.793728966593 L 299.6080604120495,697.176393334975 L 304.49191496347373,706.4906016580483 L 309.5481408520069,713.8841007961915 L 314.97373389148817,719.5046376097843 L 320.96568989575644,723.4999589592056 L 327.72100467865056,726.0178117048348 L 335.4366740540097,727.205942707051 L 344.30969383567265,727.2120988262334 L 354.53705983747847,726.1840269227613 L 354.53705983747847,726.1840269227613 L 369.2440285643929,723.3583682180088 L 381.3284905195765,719.0921776245589 L 390.60576212755484,713.7178855782649 L 396.89115981285397,707.56792251498 L 400.0,700.9747188705575 L 399.7475991135188,694.2707050808506 L 395.9492735779365,687.7883115817125 L 388.42033981777894,681.8599688089963 L 376.976114257572,676.8181071985555 L 376.976114257572,676.8181071985555 L 366.0141180333251,672.5375523270133 L 356.8743330870886,665.9546088812281 L 349.2735779364689,655.985799885086 L 342.9286710990726,641.5476483624725 L 337.556431092506,621.5566773372734 L 332.87367643437574,594.9294098333746 L 328.5972256422885,560.5823688746616 L 324.44389723385046,517.4320774850203 L 320.1305097266683,464.39505868833635 L 320.1305097266683,464.39505868833635 L 317.57572026594437,433.9571534104902 L 314.8731839448412,407.3852909792334 L 311.985964048264,384.5563490109169 L 308.877123861118,365.34720512189125 L 305.50972666830836,349.634736928507 L 301.8468357547402,337.295822047115 L 297.8515144053189,328.2073380940656 L 293.4868259049495,322.24616268570975 L 288.7158335385373,319.2891734383979 L 288.7158335385373,319.2891734383979 L 281.15406714273985,316.42657801855074 L 275.0943938274645,315.7801855043914 L 270.04432405811383,318.79052778461795 L 265.51136830009034,326.8981367479275 L 261.00303701879665,341.5435442830174 L 256.02684067963554,364.16728227858505 L 250.0902897480095,396.2098826233277 L 242.70089468932116,439.1118772059428 L 233.36616596897318,494.31379791512774 L 233.36616596897318,494.31379791512774 L 224.6716736436017,543.7371747517034 L 215.55856521382253,587.29992612657 L 206.05146515636542,625.0143642780926 L 196.17499794796026,656.8928014446361 L 185.95378806533694,682.9475498645655 L 175.4124599852253,703.1909217762458 L 164.57563818435523,717.6352294180417 L 153.4679471394566,726.2927850283182 L 142.1140113272593,729.1759008454405 L 142.1140113272593,729.1759008454405 L 120.89386850529426,716.424525978823 L 109.42501846835756,681.9051136830011 L 106.71016990888945,631.2197324140196 L 111.75203151933023,569.9704506279244 L 123.55331199212017,503.7593367807602 L 141.11672001969956,438.1884593285728 L 163.44496429450874,378.85988672740723 L 189.5407535089879,331.3756874333089 L 218.40679635557746,301.337929902323 L 218.40679635557746,301.337929902323 L 224.75991135188372,296.5977181318232 L 230.78059591233685,291.4512024952805 L 236.35803989165237,286.046129853074 L 241.3814331445457,280.5302470655832 L 245.73996552573263,275.0513009931873 L 249.32282688992856,269.7570384962654 L 252.0192070918493,264.79520643519675 L 253.71829598621034,260.3135516703605 L 254.30928342772717,256.4598210621359 L 254.30928342772717,256.4598210621359 L 252.25519166051052,246.634654846918 L 246.51974062217846,240.02298284494782 L 237.7431667077075,236.51399491094156 L 226.5657063120742,235.99688089961427 L 213.6275958302553,238.36083066568182 L 199.5690716572273,243.49503406385966 L 185.03037018796687,251.28868094886334 L 170.65172781745056,261.6309611754085 L 157.07338094065503,274.4110645982107 L 157.07338094065503,274.4110645982107 L 157.07338094065503,274.4110645982107 L 157.07338094065503,274.4110645982107 L 157.07338094065503,274.4110645982107 L 157.07338094065503,274.4110645982107 L 157.07338094065503,274.4110645982107 L 157.07338094065503,274.4110645982107 L 157.07338094065503,274.4110645982107 L 157.07338094065503,274.4110645982107 L 157.07338094065503,274.4110645982107"/></svg>
